<svg width="400" height="400" viewBox="0 0 400 400" fill="none" xmlns="http://www.w3.org/2000/svg">
<path d="M200.001 385.78C302.604 385.78 385.781 302.603 385.781 200C385.781 97.3965 302.604 14.22 200.001 14.22C97.3972 14.22 14.2207 97.3965 14.2207 200C14.2207 302.603 97.3972 385.78 200.001 385.78Z" fill="black"/>
<path d="M200.001 392.78C93.7007 392.78 7.2207 306.3 7.2207 200C7.2207 93.7 93.7007 7.21997 200.001 7.21997C306.301 7.21997 392.781 93.7 392.781 200C392.781 306.3 306.301 392.78 200.001 392.78ZM200.001 21.22C101.421 21.22 21.2207 101.42 21.2207 200C21.2207 298.58 101.421 378.78 200.001 378.78C298.581 378.78 378.781 298.58 378.781 200C378.781 101.42 298.581 21.22 200.001 21.22Z" fill="#FFEF56"/>
<path d="M286.709 314.6H279.129V322.11H286.709V314.6Z" fill="black"/>
<path d="M286.709 307.01H279.129V314.6H286.709V307.01Z" fill="black"/>
<path d="M286.709 299.5H279.129V307.01H286.709V299.5Z" fill="black"/>
<path d="M286.709 291.91H279.129V299.5H286.709V291.91Z" fill="black"/>
<path d="M279.12 314.6H271.6V322.11H279.12V314.6Z" fill="black"/>
<path d="M279.12 307.01H271.6V314.6H279.12V307.01Z" fill="#EAD32D"/>
<path d="M279.12 299.5H271.6V307.01H279.12V299.5Z" fill="#EAD32D"/>
<path d="M279.12 291.91H271.6V299.5H279.12V291.91Z" fill="black"/>
<path d="M279.12 284.33H271.6V291.91H279.12V284.33Z" fill="black"/>
<path d="M279.12 276.8H271.6V284.32H279.12V276.8Z" fill="black"/>
<path d="M271.609 314.6H264.029V322.11H271.609V314.6Z" fill="black"/>
<path d="M271.609 307.01H264.029V314.6H271.609V307.01Z" fill="#FFEF56"/>
<path d="M271.609 299.5H264.029V307.01H271.609V299.5Z" fill="#EAD32D"/>
<path d="M271.609 291.91H264.029V299.5H271.609V291.91Z" fill="#EAD32D"/>
<path d="M271.609 284.33H264.029V291.91H271.609V284.33Z" fill="#EAD32D"/>
<path d="M271.609 276.8H264.029V284.32H271.609V276.8Z" fill="black"/>
<path d="M271.609 269.23H264.029V276.81H271.609V269.23Z" fill="black"/>
<path d="M271.609 261.71H264.029V269.22H271.609V261.71Z" fill="black"/>
<path d="M271.609 254.12H264.029V261.71H271.609V254.12Z" fill="black"/>
<path d="M271.609 246.61H264.029V254.12H271.609V246.61Z" fill="black"/>
<path d="M271.609 239.02H264.029V246.61H271.609V239.02Z" fill="black"/>
<path d="M271.609 231.44H264.029V239.02H271.609V231.44Z" fill="black"/>
<path d="M271.609 223.92H264.029V231.43H271.609V223.92Z" fill="black"/>
<path d="M271.609 216.33H264.029V223.92H271.609V216.33Z" fill="black"/>
<path d="M271.609 208.81H264.029V216.32H271.609V208.81Z" fill="black"/>
<path d="M271.609 201.22H264.029V208.81H271.609V201.22Z" fill="black"/>
<path d="M271.609 193.71H264.029V201.22H271.609V193.71Z" fill="black"/>
<path d="M271.609 186.12H264.029V193.71H271.609V186.12Z" fill="black"/>
<path d="M271.609 178.61H264.029V186.12H271.609V178.61Z" fill="black"/>
<path d="M271.609 171.02H264.029V178.61H271.609V171.02Z" fill="black"/>
<path d="M271.609 163.43H264.029V171.02H271.609V163.43Z" fill="black"/>
<path d="M271.609 155.92H264.029V163.43H271.609V155.92Z" fill="black"/>
<path d="M271.609 148.33H264.029V155.92H271.609V148.33Z" fill="black"/>
<path d="M264.02 314.6H256.51V322.11H264.02V314.6Z" fill="black"/>
<path d="M264.02 307.01H256.51V314.6H264.02V307.01Z" fill="#FFEF56"/>
<path d="M264.02 299.5H256.51V307.01H264.02V299.5Z" fill="#FFEF56"/>
<path d="M264.02 291.91H256.51V299.5H264.02V291.91Z" fill="#EAD32D"/>
<path d="M264.02 284.33H256.51V291.91H264.02V284.33Z" fill="#EAD32D"/>
<path d="M264.02 276.8H256.51V284.32H264.02V276.8Z" fill="#EAD32D"/>
<path d="M264.02 269.23H256.51V276.81H264.02V269.23Z" fill="#EAD32D"/>
<path d="M264.02 261.71H256.51V269.22H264.02V261.71Z" fill="#EAD32D"/>
<path d="M264.02 254.12H256.51V261.71H264.02V254.12Z" fill="black"/>
<path d="M264.02 246.61H256.51V254.12H264.02V246.61Z" fill="black"/>
<path d="M264.02 239.02H256.51V246.61H264.02V239.02Z" fill="black"/>
<path d="M264.02 231.44H256.51V239.02H264.02V231.44Z" fill="#FFEF56"/>
<path d="M264.02 223.92H256.51V231.43H264.02V223.92Z" fill="#FFEF56"/>
<path d="M264.02 216.33H256.51V223.92H264.02V216.33Z" fill="#FFEF56"/>
<path d="M264.02 208.81H256.51V216.32H264.02V208.81Z" fill="#FFEF56"/>
<path d="M264.02 201.22H256.51V208.81H264.02V201.22Z" fill="#FFEF56"/>
<path d="M264.02 193.71H256.51V201.22H264.02V193.71Z" fill="#FFEF56"/>
<path d="M264.02 186.12H256.51V193.71H264.02V186.12Z" fill="#FFEF56"/>
<path d="M264.02 178.61H256.51V186.12H264.02V178.61Z" fill="#EAD32D"/>
<path d="M264.02 171.02H256.51V178.61H264.02V171.02Z" fill="#EAD32D"/>
<path d="M264.02 163.43H256.51V171.02H264.02V163.43Z" fill="#EAD32D"/>
<path d="M264.02 155.92H256.51V163.43H264.02V155.92Z" fill="#EAD32D"/>
<path d="M264.02 148.33H256.51V155.92H264.02V148.33Z" fill="black"/>
<path d="M264.02 140.82H256.51V148.33H264.02V140.82Z" fill="black"/>
<path d="M256.51 314.6H248.92V322.11H256.51V314.6Z" fill="black"/>
<path d="M256.51 307.01H248.92V314.6H256.51V307.01Z" fill="#FFEF56"/>
<path d="M256.51 299.5H248.92V307.01H256.51V299.5Z" fill="#FFEF56"/>
<path d="M256.51 291.91H248.92V299.5H256.51V291.91Z" fill="#FFEF56"/>
<path d="M256.51 284.33H248.92V291.91H256.51V284.33Z" fill="#FFEF56"/>
<path d="M256.51 276.8H248.92V284.32H256.51V276.8Z" fill="#FFEF56"/>
<path d="M256.51 269.23H248.92V276.81H256.51V269.23Z" fill="#EAD32D"/>
<path d="M256.51 261.71H248.92V269.22H256.51V261.71Z" fill="black"/>
<path d="M256.51 254.12H248.92V261.71H256.51V254.12Z" fill="#00F3FF"/>
<path d="M256.51 246.61H248.92V254.12H256.51V246.61Z" fill="#2CF926"/>
<path d="M256.51 239.02H248.92V246.61H256.51V239.02Z" fill="#2CF926"/>
<path d="M256.51 231.44H248.92V239.02H256.51V231.44Z" fill="black"/>
<path d="M256.51 223.92H248.92V231.43H256.51V223.92Z" fill="#FFEF56"/>
<path d="M256.51 216.33H248.92V223.92H256.51V216.33Z" fill="black"/>
<path d="M256.51 208.81H248.92V216.32H256.51V208.81Z" fill="black"/>
<path d="M256.51 201.22H248.92V208.81H256.51V201.22Z" fill="black"/>
<path d="M256.51 193.71H248.92V201.22H256.51V193.71Z" fill="#FFEF56"/>
<path d="M256.51 186.12H248.92V193.71H256.51V186.12Z" fill="#FFEF56"/>
<path d="M256.51 178.61H248.92V186.12H256.51V178.61Z" fill="#FFEF56"/>
<path d="M256.51 171.02H248.92V178.61H256.51V171.02Z" fill="#FFEF56"/>
<path d="M256.51 163.43H248.92V171.02H256.51V163.43Z" fill="#FFEF56"/>
<path d="M256.51 155.92H248.92V163.43H256.51V155.92Z" fill="#EAD32D"/>
<path d="M256.51 148.33H248.92V155.92H256.51V148.33Z" fill="#EAD32D"/>
<path d="M256.51 140.82H248.92V148.33H256.51V140.82Z" fill="black"/>
<path d="M256.51 133.23H248.92V140.82H256.51V133.23Z" fill="black"/>
<path d="M248.92 314.6H241.41V322.11H248.92V314.6Z" fill="black"/>
<path d="M248.92 307.01H241.41V314.6H248.92V307.01Z" fill="#FFEF56"/>
<path d="M248.92 299.5H241.41V307.01H248.92V299.5Z" fill="#FFEF56"/>
<path d="M248.92 291.91H241.41V299.5H248.92V291.91Z" fill="#FFEF56"/>
<path d="M248.92 284.33H241.41V291.91H248.92V284.33Z" fill="#FFEF56"/>
<path d="M248.92 276.8H241.41V284.32H248.92V276.8Z" fill="#FFEF56"/>
<path d="M248.92 269.23H241.41V276.81H248.92V269.23Z" fill="#FFEF56"/>
<path d="M248.92 261.71H241.41V269.22H248.92V261.71Z" fill="black"/>
<path d="M248.92 254.12H241.41V261.71H248.92V254.12Z" fill="#2CF926"/>
<path d="M248.92 246.61H241.41V254.12H248.92V246.61Z" fill="#00F3FF"/>
<path d="M248.92 239.02H241.41V246.61H248.92V239.02Z" fill="#00F3FF"/>
<path d="M248.92 231.44H241.41V239.02H248.92V231.44Z" fill="#EFE4A3"/>
<path d="M248.92 223.92H241.41V231.43H248.92V223.92Z" fill="black"/>
<path d="M248.92 216.33H241.41V223.92H248.92V216.33Z" fill="#F9C6AA"/>
<path d="M248.92 208.81H241.41V216.32H248.92V208.81Z" fill="#F9C6AA"/>
<path d="M248.92 201.22H241.41V208.81H248.92V201.22Z" fill="#DDA487"/>
<path d="M248.92 193.71H241.41V201.22H248.92V193.71Z" fill="black"/>
<path d="M248.92 186.12H241.41V193.71H248.92V186.12Z" fill="#FFEF56"/>
<path d="M248.92 178.61H241.41V186.12H248.92V178.61Z" fill="#FFEF56"/>
<path d="M248.92 171.02H241.41V178.61H248.92V171.02Z" fill="#FFEF56"/>
<path d="M248.92 163.43H241.41V171.02H248.92V163.43Z" fill="#FFEF56"/>
<path d="M248.92 155.92H241.41V163.43H248.92V155.92Z" fill="#FFEF56"/>
<path d="M248.92 148.33H241.41V155.92H248.92V148.33Z" fill="#EAD32D"/>
<path d="M248.92 140.82H241.41V148.33H248.92V140.82Z" fill="#EAD32D"/>
<path d="M248.92 133.23H241.41V140.82H248.92V133.23Z" fill="black"/>
<path d="M248.92 125.72H241.41V133.23H248.92V125.72Z" fill="black"/>
<path d="M241.408 314.6H233.818V322.11H241.408V314.6Z" fill="black"/>
<path d="M241.408 307.01H233.818V314.6H241.408V307.01Z" fill="#EAD32D"/>
<path d="M241.408 299.5H233.818V307.01H241.408V299.5Z" fill="#FFEF56"/>
<path d="M241.408 291.91H233.818V299.5H241.408V291.91Z" fill="#FFEF56"/>
<path d="M241.408 284.33H233.818V291.91H241.408V284.33Z" fill="#FFEF56"/>
<path d="M241.408 276.8H233.818V284.32H241.408V276.8Z" fill="#FFEF56"/>
<path d="M241.408 269.23H233.818V276.81H241.408V269.23Z" fill="#FFEF56"/>
<path d="M241.408 261.71H233.818V269.22H241.408V261.71Z" fill="black"/>
<path d="M241.408 254.12H233.818V261.71H241.408V254.12Z" fill="#00F3FF"/>
<path d="M241.408 246.61H233.818V254.12H241.408V246.61Z" fill="#2CF926"/>
<path d="M241.408 239.02H233.818V246.61H241.408V239.02Z" fill="#2CF926"/>
<path d="M241.408 231.44H233.818V239.02H241.408V231.44Z" fill="#EFE4A3"/>
<path d="M241.408 223.92H233.818V231.43H241.408V223.92Z" fill="black"/>
<path d="M241.408 216.33H233.818V223.92H241.408V216.33Z" fill="#DDA487"/>
<path d="M241.408 208.81H233.818V216.32H241.408V208.81Z" fill="#F9C6AA"/>
<path d="M241.408 201.22H233.818V208.81H241.408V201.22Z" fill="#F9C6AA"/>
<path d="M241.408 193.71H233.818V201.22H241.408V193.71Z" fill="#DDA487"/>
<path d="M241.408 186.12H233.818V193.71H241.408V186.12Z" fill="black"/>
<path d="M241.408 178.61H233.818V186.12H241.408V178.61Z" fill="#FFEF56"/>
<path d="M241.408 171.02H233.818V178.61H241.408V171.02Z" fill="#FFEF56"/>
<path d="M241.408 163.43H233.818V171.02H241.408V163.43Z" fill="#FFEF56"/>
<path d="M241.408 155.92H233.818V163.43H241.408V155.92Z" fill="#FFEF56"/>
<path d="M241.408 148.33H233.818V155.92H241.408V148.33Z" fill="#FFEF56"/>
<path d="M241.408 140.82H233.818V148.33H241.408V140.82Z" fill="#EAD32D"/>
<path d="M241.408 133.23H233.818V140.82H241.408V133.23Z" fill="#EAD32D"/>
<path d="M241.408 125.72H233.818V133.23H241.408V125.72Z" fill="black"/>
<path d="M241.408 118.13H233.818V125.72H241.408V118.13Z" fill="black"/>
<path d="M233.82 314.6H226.24V322.11H233.82V314.6Z" fill="black"/>
<path d="M233.82 307.01H226.24V314.6H233.82V307.01Z" fill="#EAD32D"/>
<path d="M233.82 299.5H226.24V307.01H233.82V299.5Z" fill="#EAD32D"/>
<path d="M233.82 291.91H226.24V299.5H233.82V291.91Z" fill="#FFEF56"/>
<path d="M233.82 284.33H226.24V291.91H233.82V284.33Z" fill="#FFEF56"/>
<path d="M233.82 276.8H226.24V284.32H233.82V276.8Z" fill="#FFEF56"/>
<path d="M233.82 269.23H226.24V276.81H233.82V269.23Z" fill="#FFEF56"/>
<path d="M233.82 261.71H226.24V269.22H233.82V261.71Z" fill="black"/>
<path d="M233.82 254.12H226.24V261.71H233.82V254.12Z" fill="#2CF926"/>
<path d="M233.82 246.61H226.24V254.12H233.82V246.61Z" fill="#00F3FF"/>
<path d="M233.82 239.02H226.24V246.61H233.82V239.02Z" fill="#00F3FF"/>
<path d="M233.82 231.44H226.24V239.02H233.82V231.44Z" fill="#EFE4A3"/>
<path d="M233.82 223.92H226.24V231.43H233.82V223.92Z" fill="black"/>
<path d="M233.82 216.33H226.24V223.92H233.82V216.33Z" fill="#DDA487"/>
<path d="M233.82 208.81H226.24V216.32H233.82V208.81Z" fill="#F9C6AA"/>
<path d="M233.82 201.22H226.24V208.81H233.82V201.22Z" fill="#F9C6AA"/>
<path d="M233.82 193.71H226.24V201.22H233.82V193.71Z" fill="black"/>
<path d="M233.82 186.12H226.24V193.71H233.82V186.12Z" fill="#FFEF56"/>
<path d="M233.82 178.61H226.24V186.12H233.82V178.61Z" fill="#FFEF56"/>
<path d="M233.82 171.02H226.24V178.61H233.82V171.02Z" fill="#FFEF56"/>
<path d="M233.82 163.43H226.24V171.02H233.82V163.43Z" fill="#FFEF56"/>
<path d="M233.82 155.92H226.24V163.43H233.82V155.92Z" fill="#FFEF56"/>
<path d="M233.82 148.33H226.24V155.92H233.82V148.33Z" fill="#FFEF56"/>
<path d="M233.82 140.82H226.24V148.33H233.82V140.82Z" fill="#FFEF56"/>
<path d="M233.82 133.23H226.24V140.82H233.82V133.23Z" fill="#EAD32D"/>
<path d="M233.82 125.72H226.24V133.23H233.82V125.72Z" fill="#EAD32D"/>
<path d="M233.82 118.13H226.24V125.72H233.82V118.13Z" fill="black"/>
<path d="M233.82 110.54H226.24V118.13H233.82V110.54Z" fill="black"/>
<path d="M226.229 314.6H218.719V322.11H226.229V314.6Z" fill="black"/>
<path d="M226.229 307.01H218.719V314.6H226.229V307.01Z" fill="black"/>
<path d="M226.229 299.5H218.719V307.01H226.229V299.5Z" fill="#EAD32D"/>
<path d="M226.229 291.91H218.719V299.5H226.229V291.91Z" fill="#EAD32D"/>
<path d="M226.229 284.33H218.719V291.91H226.229V284.33Z" fill="#FFEF56"/>
<path d="M226.229 276.8H218.719V284.32H226.229V276.8Z" fill="#FFEF56"/>
<path d="M226.229 269.23H218.719V276.81H226.229V269.23Z" fill="#FFEF56"/>
<path d="M226.229 261.71H218.719V269.22H226.229V261.71Z" fill="black"/>
<path d="M226.229 254.12H218.719V261.71H226.229V254.12Z" fill="#00F3FF"/>
<path d="M226.229 246.61H218.719V254.12H226.229V246.61Z" fill="#2CF926"/>
<path d="M226.229 239.02H218.719V246.61H226.229V239.02Z" fill="#2CF926"/>
<path d="M226.229 231.44H218.719V239.02H226.229V231.44Z" fill="black"/>
<path d="M226.229 223.92H218.719V231.43H226.229V223.92Z" fill="#FFEF56"/>
<path d="M226.229 216.33H218.719V223.92H226.229V216.33Z" fill="black"/>
<path d="M226.229 208.81H218.719V216.32H226.229V208.81Z" fill="#F9C6AA"/>
<path d="M226.229 201.22H218.719V208.81H226.229V201.22Z" fill="#F9C6AA"/>
<path d="M226.229 193.71H218.719V201.22H226.229V193.71Z" fill="black"/>
<path d="M226.229 186.12H218.719V193.71H226.229V186.12Z" fill="#FFEF56"/>
<path d="M226.229 178.61H218.719V186.12H226.229V178.61Z" fill="#FFEF56"/>
<path d="M226.229 171.02H218.719V178.61H226.229V171.02Z" fill="#FFEF56"/>
<path d="M226.229 163.43H218.719V171.02H226.229V163.43Z" fill="#FFEF56"/>
<path d="M226.229 155.92H218.719V163.43H226.229V155.92Z" fill="#FFEF56"/>
<path d="M226.229 148.33H218.719V155.92H226.229V148.33Z" fill="#EAD32D"/>
<path d="M226.229 140.82H218.719V148.33H226.229V140.82Z" fill="#FFEF56"/>
<path d="M226.229 133.23H218.719V140.82H226.229V133.23Z" fill="#FFEF56"/>
<path d="M226.229 125.72H218.719V133.23H226.229V125.72Z" fill="#EAD32D"/>
<path d="M226.229 118.13H218.719V125.72H226.229V118.13Z" fill="#EAD32D"/>
<path d="M226.229 110.54H218.719V118.13H226.229V110.54Z" fill="black"/>
<path d="M218.719 314.6H211.129V322.11H218.719V314.6Z" fill="black"/>
<path d="M218.719 307.01H211.129V314.6H218.719V307.01Z" fill="#2B2403"/>
<path d="M218.719 299.5H211.129V307.01H218.719V299.5Z" fill="black"/>
<path d="M218.719 291.91H211.129V299.5H218.719V291.91Z" fill="black"/>
<path d="M218.719 284.33H211.129V291.91H218.719V284.33Z" fill="#EAD32D"/>
<path d="M218.719 276.8H211.129V284.32H218.719V276.8Z" fill="#EAD32D"/>
<path d="M218.719 269.23H211.129V276.81H218.719V269.23Z" fill="#FFEF56"/>
<path d="M218.719 261.71H211.129V269.22H218.719V261.71Z" fill="#FFEF56"/>
<path d="M218.719 254.12H211.129V261.71H218.719V254.12Z" fill="black"/>
<path d="M218.719 246.61H211.129V254.12H218.719V246.61Z" fill="black"/>
<path d="M218.719 239.02H211.129V246.61H218.719V239.02Z" fill="black"/>
<path d="M218.719 231.44H211.129V239.02H218.719V231.44Z" fill="#FFEF56"/>
<path d="M218.719 223.92H211.129V231.43H218.719V223.92Z" fill="#FFEF56"/>
<path d="M218.719 216.33H211.129V223.92H218.719V216.33Z" fill="black"/>
<path d="M218.719 208.81H211.129V216.32H218.719V208.81Z" fill="#F9C6AA"/>
<path d="M218.719 201.22H211.129V208.81H218.719V201.22Z" fill="#F9C6AA"/>
<path d="M218.719 193.71H211.129V201.22H218.719V193.71Z" fill="black"/>
<path d="M218.719 186.12H211.129V193.71H218.719V186.12Z" fill="#FFEF56"/>
<path d="M218.719 178.61H211.129V186.12H218.719V178.61Z" fill="#FFEF56"/>
<path d="M218.719 171.02H211.129V178.61H218.719V171.02Z" fill="#FFEF56"/>
<path d="M218.719 163.43H211.129V171.02H218.719V163.43Z" fill="#FFEF56"/>
<path d="M218.719 155.92H211.129V163.43H218.719V155.92Z" fill="#EAD32D"/>
<path d="M218.719 148.33H211.129V155.92H218.719V148.33Z" fill="#EAD32D"/>
<path d="M218.719 140.82H211.129V148.33H218.719V140.82Z" fill="#212120"/>
<path d="M218.719 133.23H211.129V140.82H218.719V133.23Z" fill="#FFEF56"/>
<path d="M218.719 125.72H211.129V133.23H218.719V125.72Z" fill="#FFEF56"/>
<path d="M218.719 118.13H211.129V125.72H218.719V118.13Z" fill="black"/>
<path d="M218.719 110.54H211.129V118.13H218.719V110.54Z" fill="black"/>
<path d="M218.719 103.02H211.129V110.53H218.719V103.02Z" fill="black"/>
<path d="M218.719 95.4302H211.129V103.02H218.719V95.4302Z" fill="black"/>
<path d="M218.719 87.9202H211.129V95.4302H218.719V87.9202Z" fill="black"/>
<path d="M218.719 80.3301H211.129V87.9201H218.719V80.3301Z" fill="black"/>
<path d="M211.119 314.6H203.609V322.11H211.119V314.6Z" fill="black"/>
<path d="M211.119 307.01H203.609V314.6H211.119V307.01Z" fill="#2B2403"/>
<path d="M211.119 299.5H203.609V307.01H211.119V299.5Z" fill="#2B2403"/>
<path d="M211.119 291.91H203.609V299.5H211.119V291.91Z" fill="#352E07"/>
<path d="M211.119 284.33H203.609V291.91H211.119V284.33Z" fill="black"/>
<path d="M211.119 276.8H203.609V284.32H211.119V276.8Z" fill="black"/>
<path d="M211.119 269.23H203.609V276.81H211.119V269.23Z" fill="#EAD32D"/>
<path d="M211.119 261.71H203.609V269.22H211.119V261.71Z" fill="#EAD32D"/>
<path d="M211.119 254.12H203.609V261.71H211.119V254.12Z" fill="#EAD32D"/>
<path d="M211.119 246.61H203.609V254.12H211.119V246.61Z" fill="#EAD32D"/>
<path d="M211.119 239.02H203.609V246.61H211.119V239.02Z" fill="#EAD32D"/>
<path d="M211.119 231.44H203.609V239.02H211.119V231.44Z" fill="#EAD32D"/>
<path d="M211.119 223.92H203.609V231.43H211.119V223.92Z" fill="black"/>
<path d="M211.119 216.33H203.609V223.92H211.119V216.33Z" fill="black"/>
<path d="M211.119 208.81H203.609V216.32H211.119V208.81Z" fill="black"/>
<path d="M211.119 201.22H203.609V208.81H211.119V201.22Z" fill="black"/>
<path d="M211.119 193.71H203.609V201.22H211.119V193.71Z" fill="black"/>
<path d="M211.119 186.12H203.609V193.71H211.119V186.12Z" fill="black"/>
<path d="M211.119 178.61H203.609V186.12H211.119V178.61Z" fill="#EAD32D"/>
<path d="M211.119 171.02H203.609V178.61H211.119V171.02Z" fill="#EAD32D"/>
<path d="M211.119 163.43H203.609V171.02H211.119V163.43Z" fill="#EAD32D"/>
<path d="M211.119 155.92H203.609V163.43H211.119V155.92Z" fill="#EAD32D"/>
<path d="M211.119 148.33H203.609V155.92H211.119V148.33Z" fill="#212120"/>
<path d="M211.119 140.82H203.609V148.33H211.119V140.82Z" fill="#212120"/>
<path d="M211.119 133.23H203.609V140.82H211.119V133.23Z" fill="#FFEF56"/>
<path d="M211.119 125.72H203.609V133.23H211.119V125.72Z" fill="black"/>
<path d="M211.119 118.13H203.609V125.72H211.119V118.13Z" fill="#A8A8A7"/>
<path d="M211.119 110.54H203.609V118.13H211.119V110.54Z" fill="#CCCCCA"/>
<path d="M211.119 103.02H203.609V110.53H211.119V103.02Z" fill="#CCCCCA"/>
<path d="M211.119 95.4302H203.609V103.02H211.119V95.4302Z" fill="#F9C6AA"/>
<path d="M211.119 87.9202H203.609V95.4302H211.119V87.9202Z" fill="#F9C6AA"/>
<path d="M211.119 80.3301H203.609V87.9201H211.119V80.3301Z" fill="#F9C6AA"/>
<path d="M211.119 72.8201H203.609V80.3301H211.119V72.8201Z" fill="black"/>
<path d="M203.61 314.6H196.02V322.11H203.61V314.6Z" fill="black"/>
<path d="M203.61 307.01H196.02V314.6H203.61V307.01Z" fill="#2B2403"/>
<path d="M203.61 299.5H196.02V307.01H203.61V299.5Z" fill="#2B2403"/>
<path d="M203.61 291.91H196.02V299.5H203.61V291.91Z" fill="#352E07"/>
<path d="M203.61 284.33H196.02V291.91H203.61V284.33Z" fill="#352E07"/>
<path d="M203.61 276.8H196.02V284.32H203.61V276.8Z" fill="black"/>
<path d="M203.61 269.23H196.02V276.81H203.61V269.23Z" fill="black"/>
<path d="M203.61 261.71H196.02V269.22H203.61V261.71Z" fill="black"/>
<path d="M203.61 254.12H196.02V261.71H203.61V254.12Z" fill="black"/>
<path d="M203.61 246.61H196.02V254.12H203.61V246.61Z" fill="black"/>
<path d="M203.61 239.02H196.02V246.61H203.61V239.02Z" fill="black"/>
<path d="M203.61 231.44H196.02V239.02H203.61V231.44Z" fill="black"/>
<path d="M203.61 223.92H196.02V231.43H203.61V223.92Z" fill="black"/>
<path d="M203.61 216.33H196.02V223.92H203.61V216.33Z" fill="#352E07"/>
<path d="M203.61 208.81H196.02V216.32H203.61V208.81Z" fill="#352E07"/>
<path d="M203.61 201.22H196.02V208.81H203.61V201.22Z" fill="#352E07"/>
<path d="M203.61 193.71H196.02V201.22H203.61V193.71Z" fill="#352E07"/>
<path d="M203.61 186.12H196.02V193.71H203.61V186.12Z" fill="black"/>
<path d="M203.61 178.61H196.02V186.12H203.61V178.61Z" fill="black"/>
<path d="M203.61 171.02H196.02V178.61H203.61V171.02Z" fill="black"/>
<path d="M203.61 163.43H196.02V171.02H203.61V163.43Z" fill="black"/>
<path d="M203.61 155.92H196.02V163.43H203.61V155.92Z" fill="black"/>
<path d="M203.61 148.33H196.02V155.92H203.61V148.33Z" fill="#212120"/>
<path d="M203.61 140.82H196.02V148.33H203.61V140.82Z" fill="#212120"/>
<path d="M203.61 133.23H196.02V140.82H203.61V133.23Z" fill="#212120"/>
<path d="M203.61 125.72H196.02V133.23H203.61V125.72Z" fill="#A8A8A7"/>
<path d="M203.61 118.13H196.02V125.72H203.61V118.13Z" fill="#CCCCCA"/>
<path d="M203.61 110.54H196.02V118.13H203.61V110.54Z" fill="#CCCCCA"/>
<path d="M203.61 103.02H196.02V110.53H203.61V103.02Z" fill="#F9C6AA"/>
<path d="M203.61 95.4302H196.02V103.02H203.61V95.4302Z" fill="#2D2D2D"/>
<path d="M203.61 87.9202H196.02V95.4302H203.61V87.9202Z" fill="#F9C6AA"/>
<path d="M203.61 80.3301H196.02V87.9201H203.61V80.3301Z" fill="#F9C6AA"/>
<path d="M203.61 72.8201H196.02V80.3301H203.61V72.8201Z" fill="black"/>
<path d="M196.02 314.6H188.51V322.11H196.02V314.6Z" fill="black"/>
<path d="M196.02 307.01H188.51V314.6H196.02V307.01Z" fill="#2B2403"/>
<path d="M196.02 299.5H188.51V307.01H196.02V299.5Z" fill="#514911"/>
<path d="M196.02 291.91H188.51V299.5H196.02V291.91Z" fill="#2B2403"/>
<path d="M196.02 284.33H188.51V291.91H196.02V284.33Z" fill="#352E07"/>
<path d="M196.02 276.8H188.51V284.32H196.02V276.8Z" fill="#352E07"/>
<path d="M196.02 269.23H188.51V276.81H196.02V269.23Z" fill="#352E07"/>
<path d="M196.02 261.71H188.51V269.22H196.02V261.71Z" fill="#352E07"/>
<path d="M196.02 254.12H188.51V261.71H196.02V254.12Z" fill="#352E07"/>
<path d="M196.02 246.61H188.51V254.12H196.02V246.61Z" fill="#352E07"/>
<path d="M196.02 239.02H188.51V246.61H196.02V239.02Z" fill="#352E07"/>
<path d="M196.02 231.44H188.51V239.02H196.02V231.44Z" fill="#352E07"/>
<path d="M196.02 223.92H188.51V231.43H196.02V223.92Z" fill="#352E07"/>
<path d="M196.02 216.33H188.51V223.92H196.02V216.33Z" fill="black"/>
<path d="M196.02 208.81H188.51V216.32H196.02V208.81Z" fill="#60561B"/>
<path d="M196.02 201.22H188.51V208.81H196.02V201.22Z" fill="#352E07"/>
<path d="M196.02 193.71H188.51V201.22H196.02V193.71Z" fill="#352E07"/>
<path d="M196.02 186.12H188.51V193.71H196.02V186.12Z" fill="black"/>
<path d="M196.02 178.61H188.51V186.12H196.02V178.61Z" fill="#352E07"/>
<path d="M196.02 171.02H188.51V178.61H196.02V171.02Z" fill="#352E07"/>
<path d="M196.02 163.43H188.51V171.02H196.02V163.43Z" fill="#352E07"/>
<path d="M196.02 155.92H188.51V163.43H196.02V155.92Z" fill="#352E07"/>
<path d="M196.02 148.33H188.51V155.92H196.02V148.33Z" fill="#352E07"/>
<path d="M196.02 140.82H188.51V148.33H196.02V140.82Z" fill="#212120"/>
<path d="M196.02 133.23H188.51V140.82H196.02V133.23Z" fill="#212120"/>
<path d="M196.02 125.72H188.51V133.23H196.02V125.72Z" fill="#A8A8A7"/>
<path d="M196.02 118.13H188.51V125.72H196.02V118.13Z" fill="#CCCCCA"/>
<path d="M196.02 110.54H188.51V118.13H196.02V110.54Z" fill="#CCCCCA"/>
<path d="M196.02 103.02H188.51V110.53H196.02V103.02Z" fill="#F9C6AA"/>
<path d="M196.02 95.4302H188.51V103.02H196.02V95.4302Z" fill="#2D2D2D"/>
<path d="M196.02 87.9202H188.51V95.4302H196.02V87.9202Z" fill="#F9C6AA"/>
<path d="M196.02 80.3301H188.51V87.9201H196.02V80.3301Z" fill="#F9C6AA"/>
<path d="M196.02 72.8201H188.51V80.3301H196.02V72.8201Z" fill="black"/>
<path d="M188.51 314.6H180.92V322.11H188.51V314.6Z" fill="black"/>
<path d="M188.51 307.01H180.92V314.6H188.51V307.01Z" fill="#2B2403"/>
<path d="M188.51 299.5H180.92V307.01H188.51V299.5Z" fill="#514911"/>
<path d="M188.51 291.91H180.92V299.5H188.51V291.91Z" fill="#514911"/>
<path d="M188.51 284.33H180.92V291.91H188.51V284.33Z" fill="#514911"/>
<path d="M188.51 276.8H180.92V284.32H188.51V276.8Z" fill="#514911"/>
<path d="M188.51 269.23H180.92V276.81H188.51V269.23Z" fill="#514911"/>
<path d="M188.51 261.71H180.92V269.22H188.51V261.71Z" fill="#514911"/>
<path d="M188.51 254.12H180.92V261.71H188.51V254.12Z" fill="#514911"/>
<path d="M188.51 246.61H180.92V254.12H188.51V246.61Z" fill="#514911"/>
<path d="M188.51 239.02H180.92V246.61H188.51V239.02Z" fill="#514911"/>
<path d="M188.51 231.44H180.92V239.02H188.51V231.44Z" fill="#514911"/>
<path d="M188.51 223.92H180.92V231.43H188.51V223.92Z" fill="#514911"/>
<path d="M188.51 216.33H180.92V223.92H188.51V216.33Z" fill="#514911"/>
<path d="M188.51 208.81H180.92V216.32H188.51V208.81Z" fill="black"/>
<path d="M188.51 201.22H180.92V208.81H188.51V201.22Z" fill="#60561B"/>
<path d="M188.51 193.71H180.92V201.22H188.51V193.71Z" fill="#352E07"/>
<path d="M188.51 186.12H180.92V193.71H188.51V186.12Z" fill="black"/>
<path d="M188.51 178.61H180.92V186.12H188.51V178.61Z" fill="black"/>
<path d="M188.51 171.02H180.92V178.61H188.51V171.02Z" fill="#514911"/>
<path d="M188.51 163.43H180.92V171.02H188.51V163.43Z" fill="#514911"/>
<path d="M188.51 155.92H180.92V163.43H188.51V155.92Z" fill="#514911"/>
<path d="M188.51 148.33H180.92V155.92H188.51V148.33Z" fill="#514911"/>
<path d="M188.51 140.82H180.92V148.33H188.51V140.82Z" fill="#212120"/>
<path d="M188.51 133.23H180.92V140.82H188.51V133.23Z" fill="#212120"/>
<path d="M188.51 125.72H180.92V133.23H188.51V125.72Z" fill="#A8A8A7"/>
<path d="M188.51 118.13H180.92V125.72H188.51V118.13Z" fill="#CCCCCA"/>
<path d="M188.51 110.54H180.92V118.13H188.51V110.54Z" fill="#CCCCCA"/>
<path d="M188.51 103.02H180.92V110.53H188.51V103.02Z" fill="#EA9E78"/>
<path d="M188.51 95.4302H180.92V103.02H188.51V95.4302Z" fill="#F9C6AA"/>
<path d="M188.51 87.9202H180.92V95.4302H188.51V87.9202Z" fill="#F9C6AA"/>
<path d="M188.51 80.3301H180.92V87.9201H188.51V80.3301Z" fill="#F9C6AA"/>
<path d="M188.51 72.8201H180.92V80.3301H188.51V72.8201Z" fill="black"/>
<path d="M180.92 314.6H173.41V322.11H180.92V314.6Z" fill="black"/>
<path d="M180.92 307.01H173.41V314.6H180.92V307.01Z" fill="#2B2403"/>
<path d="M180.92 299.5H173.41V307.01H180.92V299.5Z" fill="#514911"/>
<path d="M180.92 291.91H173.41V299.5H180.92V291.91Z" fill="#514911"/>
<path d="M180.92 284.33H173.41V291.91H180.92V284.33Z" fill="black"/>
<path d="M180.92 276.8H173.41V284.32H180.92V276.8Z" fill="black"/>
<path d="M180.92 269.23H173.41V276.81H180.92V269.23Z" fill="black"/>
<path d="M180.92 261.71H173.41V269.22H180.92V261.71Z" fill="black"/>
<path d="M180.92 254.12H173.41V261.71H180.92V254.12Z" fill="black"/>
<path d="M180.92 246.61H173.41V254.12H180.92V246.61Z" fill="black"/>
<path d="M180.92 239.02H173.41V246.61H180.92V239.02Z" fill="black"/>
<path d="M180.92 231.44H173.41V239.02H180.92V231.44Z" fill="black"/>
<path d="M180.92 223.92H173.41V231.43H180.92V223.92Z" fill="black"/>
<path d="M180.92 216.33H173.41V223.92H180.92V216.33Z" fill="black"/>
<path d="M180.92 208.81H173.41V216.32H180.92V208.81Z" fill="black"/>
<path d="M180.92 201.22H173.41V208.81H180.92V201.22Z" fill="black"/>
<path d="M180.92 193.71H173.41V201.22H180.92V193.71Z" fill="black"/>
<path d="M180.92 186.12H173.41V193.71H180.92V186.12Z" fill="black"/>
<path d="M180.92 178.61H173.41V186.12H180.92V178.61Z" fill="black"/>
<path d="M180.92 171.02H173.41V178.61H180.92V171.02Z" fill="black"/>
<path d="M180.92 163.43H173.41V171.02H180.92V163.43Z" fill="black"/>
<path d="M180.92 155.92H173.41V163.43H180.92V155.92Z" fill="black"/>
<path d="M180.92 148.33H173.41V155.92H180.92V148.33Z" fill="#212120"/>
<path d="M180.92 140.82H173.41V148.33H180.92V140.82Z" fill="#212120"/>
<path d="M180.92 133.23H173.41V140.82H180.92V133.23Z" fill="#212120"/>
<path d="M180.92 125.72H173.41V133.23H180.92V125.72Z" fill="#A8A8A7"/>
<path d="M180.92 118.13H173.41V125.72H180.92V118.13Z" fill="#CCCCCA"/>
<path d="M180.92 110.54H173.41V118.13H180.92V110.54Z" fill="#CCCCCA"/>
<path d="M180.92 103.02H173.41V110.53H180.92V103.02Z" fill="#F9C6AA"/>
<path d="M180.92 95.4302H173.41V103.02H180.92V95.4302Z" fill="#2D2D2D"/>
<path d="M180.92 87.9202H173.41V95.4302H180.92V87.9202Z" fill="#F9C6AA"/>
<path d="M180.92 80.3301H173.41V87.9201H180.92V80.3301Z" fill="#F9C6AA"/>
<path d="M180.92 72.8201H173.41V80.3301H180.92V72.8201Z" fill="black"/>
<path d="M173.408 314.6H165.818V322.11H173.408V314.6Z" fill="black"/>
<path d="M173.408 307.01H165.818V314.6H173.408V307.01Z" fill="#2B2403"/>
<path d="M173.408 299.5H165.818V307.01H173.408V299.5Z" fill="black"/>
<path d="M173.408 291.91H165.818V299.5H173.408V291.91Z" fill="black"/>
<path d="M173.408 284.33H165.818V291.91H173.408V284.33Z" fill="#FFEF56"/>
<path d="M173.408 276.8H165.818V284.32H173.408V276.8Z" fill="#FFEF56"/>
<path d="M173.408 269.23H165.818V276.81H173.408V269.23Z" fill="#FFEF56"/>
<path d="M173.408 261.71H165.818V269.22H173.408V261.71Z" fill="#FFEF56"/>
<path d="M173.408 254.12H165.818V261.71H173.408V254.12Z" fill="#FFEF56"/>
<path d="M173.408 246.61H165.818V254.12H173.408V246.61Z" fill="#FFEF56"/>
<path d="M173.408 239.02H165.818V246.61H173.408V239.02Z" fill="#FFEF56"/>
<path d="M173.408 231.44H165.818V239.02H173.408V231.44Z" fill="#FFEF56"/>
<path d="M173.408 223.92H165.818V231.43H173.408V223.92Z" fill="#FFEF56"/>
<path d="M173.408 216.33H165.818V223.92H173.408V216.33Z" fill="#FFEF56"/>
<path d="M173.408 208.81H165.818V216.32H173.408V208.81Z" fill="#FFEF56"/>
<path d="M173.408 201.22H165.818V208.81H173.408V201.22Z" fill="#FFEF56"/>
<path d="M173.408 193.71H165.818V201.22H173.408V193.71Z" fill="#FFEF56"/>
<path d="M173.408 186.12H165.818V193.71H173.408V186.12Z" fill="#EAD32D"/>
<path d="M173.408 178.61H165.818V186.12H173.408V178.61Z" fill="#EAD32D"/>
<path d="M173.408 171.02H165.818V178.61H173.408V171.02Z" fill="#EAD32D"/>
<path d="M173.408 163.43H165.818V171.02H173.408V163.43Z" fill="#EAD32D"/>
<path d="M173.408 155.92H165.818V163.43H173.408V155.92Z" fill="#EAD32D"/>
<path d="M173.408 148.33H165.818V155.92H173.408V148.33Z" fill="#212120"/>
<path d="M173.408 140.82H165.818V148.33H173.408V140.82Z" fill="#212120"/>
<path d="M173.408 133.23H165.818V140.82H173.408V133.23Z" fill="#EAD32D"/>
<path d="M173.408 125.72H165.818V133.23H173.408V125.72Z" fill="black"/>
<path d="M173.408 118.13H165.818V125.72H173.408V118.13Z" fill="black"/>
<path d="M173.408 110.54H165.818V118.13H173.408V110.54Z" fill="black"/>
<path d="M173.408 103.02H165.818V110.53H173.408V103.02Z" fill="black"/>
<path d="M173.408 95.4302H165.818V103.02H173.408V95.4302Z" fill="black"/>
<path d="M173.408 87.9202H165.818V95.4302H173.408V87.9202Z" fill="black"/>
<path d="M173.408 80.3301H165.818V87.9201H173.408V80.3301Z" fill="black"/>
<path d="M165.819 314.6H158.229V322.11H165.819V314.6Z" fill="black"/>
<path d="M165.819 307.01H158.229V314.6H165.819V307.01Z" fill="black"/>
<path d="M165.819 299.5H158.229V307.01H165.819V299.5Z" fill="#EAD32D"/>
<path d="M165.819 291.91H158.229V299.5H165.819V291.91Z" fill="#FFEF56"/>
<path d="M165.819 284.33H158.229V291.91H165.819V284.33Z" fill="#FFEF56"/>
<path d="M165.819 276.8H158.229V284.32H165.819V276.8Z" fill="#FFEF56"/>
<path d="M165.819 269.23H158.229V276.81H165.819V269.23Z" fill="#FFEF56"/>
<path d="M165.819 261.71H158.229V269.22H165.819V261.71Z" fill="#FFEF56"/>
<path d="M165.819 254.12H158.229V261.71H165.819V254.12Z" fill="#FFEF56"/>
<path d="M165.819 246.61H158.229V254.12H165.819V246.61Z" fill="#FFEF56"/>
<path d="M165.819 239.02H158.229V246.61H165.819V239.02Z" fill="#FFEF56"/>
<path d="M165.819 231.44H158.229V239.02H165.819V231.44Z" fill="#FFEF56"/>
<path d="M165.819 223.92H158.229V231.43H165.819V223.92Z" fill="#FFEF56"/>
<path d="M165.819 216.33H158.229V223.92H165.819V216.33Z" fill="#FFEF56"/>
<path d="M165.819 208.81H158.229V216.32H165.819V208.81Z" fill="#FFEF56"/>
<path d="M165.819 201.22H158.229V208.81H165.819V201.22Z" fill="#FFEF56"/>
<path d="M165.819 193.71H158.229V201.22H165.819V193.71Z" fill="#FFEF56"/>
<path d="M165.819 186.12H158.229V193.71H165.819V186.12Z" fill="#FFEF56"/>
<path d="M165.819 178.61H158.229V186.12H165.819V178.61Z" fill="#FFEF56"/>
<path d="M165.819 171.02H158.229V178.61H165.819V171.02Z" fill="#EAD32D"/>
<path d="M165.819 163.43H158.229V171.02H165.819V163.43Z" fill="#EAD32D"/>
<path d="M165.819 155.92H158.229V163.43H165.819V155.92Z" fill="#EAD32D"/>
<path d="M165.819 148.33H158.229V155.92H165.819V148.33Z" fill="#EAD32D"/>
<path d="M165.819 140.82H158.229V148.33H165.819V140.82Z" fill="#EAD32D"/>
<path d="M165.819 133.23H158.229V140.82H165.819V133.23Z" fill="#EAD32D"/>
<path d="M165.819 125.72H158.229V133.23H165.819V125.72Z" fill="#EAD32D"/>
<path d="M165.819 118.13H158.229V125.72H165.819V118.13Z" fill="black"/>
<path d="M158.229 314.6H150.719V322.11H158.229V314.6Z" fill="black"/>
<path d="M158.229 307.01H150.719V314.6H158.229V307.01Z" fill="#EAD32D"/>
<path d="M158.229 299.5H150.719V307.01H158.229V299.5Z" fill="#EAD32D"/>
<path d="M158.229 291.91H150.719V299.5H158.229V291.91Z" fill="#EAD32D"/>
<path d="M158.229 284.33H150.719V291.91H158.229V284.33Z" fill="#FFEF56"/>
<path d="M158.229 276.8H150.719V284.32H158.229V276.8Z" fill="#FFEF56"/>
<path d="M158.229 269.23H150.719V276.81H158.229V269.23Z" fill="#FFEF56"/>
<path d="M158.229 261.71H150.719V269.22H158.229V261.71Z" fill="#FFEF56"/>
<path d="M158.229 254.12H150.719V261.71H158.229V254.12Z" fill="#FFEF56"/>
<path d="M158.229 246.61H150.719V254.12H158.229V246.61Z" fill="#FFEF56"/>
<path d="M158.229 239.02H150.719V246.61H158.229V239.02Z" fill="#FFEF56"/>
<path d="M158.229 231.44H150.719V239.02H158.229V231.44Z" fill="#FFEF56"/>
<path d="M158.229 223.92H150.719V231.43H158.229V223.92Z" fill="#FFEF56"/>
<path d="M158.229 216.33H150.719V223.92H158.229V216.33Z" fill="#FFEF56"/>
<path d="M158.229 208.81H150.719V216.32H158.229V208.81Z" fill="#FFEF56"/>
<path d="M158.229 201.22H150.719V208.81H158.229V201.22Z" fill="#FFEF56"/>
<path d="M158.229 193.71H150.719V201.22H158.229V193.71Z" fill="#FFEF56"/>
<path d="M158.229 186.12H150.719V193.71H158.229V186.12Z" fill="#FFEF56"/>
<path d="M158.229 178.61H150.719V186.12H158.229V178.61Z" fill="#FFEF56"/>
<path d="M158.229 171.02H150.719V178.61H158.229V171.02Z" fill="#FFEF56"/>
<path d="M158.229 163.43H150.719V171.02H158.229V163.43Z" fill="#FFEF56"/>
<path d="M158.229 155.92H150.719V163.43H158.229V155.92Z" fill="#EAD32D"/>
<path d="M158.229 148.33H150.719V155.92H158.229V148.33Z" fill="#EAD32D"/>
<path d="M158.229 140.82H150.719V148.33H158.229V140.82Z" fill="#EAD32D"/>
<path d="M158.229 133.23H150.719V140.82H158.229V133.23Z" fill="black"/>
<path d="M158.229 125.72H150.719V133.23H158.229V125.72Z" fill="black"/>
<path d="M150.719 314.6H143.129V322.11H150.719V314.6Z" fill="black"/>
<path d="M150.719 307.01H143.129V314.6H150.719V307.01Z" fill="#EAD32D"/>
<path d="M150.719 299.5H143.129V307.01H150.719V299.5Z" fill="#EAD32D"/>
<path d="M150.719 291.91H143.129V299.5H150.719V291.91Z" fill="#EAD32D"/>
<path d="M150.719 284.33H143.129V291.91H150.719V284.33Z" fill="#EAD32D"/>
<path d="M150.719 276.8H143.129V284.32H150.719V276.8Z" fill="#EAD32D"/>
<path d="M150.719 269.23H143.129V276.81H150.719V269.23Z" fill="#FFEF56"/>
<path d="M150.719 261.71H143.129V269.22H150.719V261.71Z" fill="#FFEF56"/>
<path d="M150.719 254.12H143.129V261.71H150.719V254.12Z" fill="#FFEF56"/>
<path d="M150.719 246.61H143.129V254.12H150.719V246.61Z" fill="#FFEF56"/>
<path d="M150.719 239.02H143.129V246.61H150.719V239.02Z" fill="#FFEF56"/>
<path d="M150.719 231.44H143.129V239.02H150.719V231.44Z" fill="#FFEF56"/>
<path d="M150.719 223.92H143.129V231.43H150.719V223.92Z" fill="#FFEF56"/>
<path d="M150.719 216.33H143.129V223.92H150.719V216.33Z" fill="#FFEF56"/>
<path d="M150.719 208.81H143.129V216.32H150.719V208.81Z" fill="#FFEF56"/>
<path d="M150.719 201.22H143.129V208.81H150.719V201.22Z" fill="#FFEF56"/>
<path d="M150.719 193.71H143.129V201.22H150.719V193.71Z" fill="#FFEF56"/>
<path d="M150.719 186.12H143.129V193.71H150.719V186.12Z" fill="#FFEF56"/>
<path d="M150.719 178.61H143.129V186.12H150.719V178.61Z" fill="#FFEF56"/>
<path d="M150.719 171.02H143.129V178.61H150.719V171.02Z" fill="#FFEF56"/>
<path d="M150.719 163.43H143.129V171.02H150.719V163.43Z" fill="#FFEF56"/>
<path d="M150.719 155.92H143.129V163.43H150.719V155.92Z" fill="#FFEF56"/>
<path d="M150.719 148.33H143.129V155.92H150.719V148.33Z" fill="#EAD32D"/>
<path d="M150.719 140.82H143.129V148.33H150.719V140.82Z" fill="black"/>
<path d="M143.129 314.6H135.619V322.11H143.129V314.6Z" fill="black"/>
<path d="M143.129 307.01H135.619V314.6H143.129V307.01Z" fill="#EAD32D"/>
<path d="M143.129 299.5H135.619V307.01H143.129V299.5Z" fill="#EAD32D"/>
<path d="M143.129 291.91H135.619V299.5H143.129V291.91Z" fill="#EAD32D"/>
<path d="M143.129 284.33H135.619V291.91H143.129V284.33Z" fill="#EAD32D"/>
<path d="M143.129 276.8H135.619V284.32H143.129V276.8Z" fill="#EAD32D"/>
<path d="M143.129 269.23H135.619V276.81H143.129V269.23Z" fill="#EAD32D"/>
<path d="M143.129 261.71H135.619V269.22H143.129V261.71Z" fill="#FFEF56"/>
<path d="M143.129 254.12H135.619V261.71H143.129V254.12Z" fill="#FFEF56"/>
<path d="M143.129 246.61H135.619V254.12H143.129V246.61Z" fill="#FFEF56"/>
<path d="M143.129 239.02H135.619V246.61H143.129V239.02Z" fill="#FFEF56"/>
<path d="M143.129 231.44H135.619V239.02H143.129V231.44Z" fill="#FFEF56"/>
<path d="M143.129 223.92H135.619V231.43H143.129V223.92Z" fill="#FFEF56"/>
<path d="M143.129 216.33H135.619V223.92H143.129V216.33Z" fill="#FFEF56"/>
<path d="M143.129 208.81H135.619V216.32H143.129V208.81Z" fill="#FFEF56"/>
<path d="M143.129 201.22H135.619V208.81H143.129V201.22Z" fill="#FFEF56"/>
<path d="M143.129 193.71H135.619V201.22H143.129V193.71Z" fill="#FFEF56"/>
<path d="M143.129 186.12H135.619V193.71H143.129V186.12Z" fill="#FFEF56"/>
<path d="M143.129 178.61H135.619V186.12H143.129V178.61Z" fill="#FFEF56"/>
<path d="M143.129 171.02H135.619V178.61H143.129V171.02Z" fill="#FFEF56"/>
<path d="M143.129 163.43H135.619V171.02H143.129V163.43Z" fill="#FFEF56"/>
<path d="M143.129 155.92H135.619V163.43H143.129V155.92Z" fill="#EAD32D"/>
<path d="M143.129 148.33H135.619V155.92H143.129V148.33Z" fill="black"/>
<path d="M143.129 140.82H135.619V148.33H143.129V140.82Z" fill="black"/>
<path d="M135.619 314.6H128.029V322.11H135.619V314.6Z" fill="black"/>
<path d="M135.619 307.01H128.029V314.6H135.619V307.01Z" fill="black"/>
<path d="M135.619 299.5H128.029V307.01H135.619V299.5Z" fill="black"/>
<path d="M135.619 291.91H128.029V299.5H135.619V291.91Z" fill="black"/>
<path d="M135.619 284.33H128.029V291.91H135.619V284.33Z" fill="black"/>
<path d="M135.619 276.8H128.029V284.32H135.619V276.8Z" fill="black"/>
<path d="M135.619 269.23H128.029V276.81H135.619V269.23Z" fill="black"/>
<path d="M135.619 261.71H128.029V269.22H135.619V261.71Z" fill="black"/>
<path d="M135.619 254.12H128.029V261.71H135.619V254.12Z" fill="black"/>
<path d="M135.619 246.61H128.029V254.12H135.619V246.61Z" fill="black"/>
<path d="M135.619 239.02H128.029V246.61H135.619V239.02Z" fill="black"/>
<path d="M135.619 231.44H128.029V239.02H135.619V231.44Z" fill="black"/>
<path d="M135.619 223.92H128.029V231.43H135.619V223.92Z" fill="black"/>
<path d="M135.619 216.33H128.029V223.92H135.619V216.33Z" fill="black"/>
<path d="M135.619 208.81H128.029V216.32H135.619V208.81Z" fill="black"/>
<path d="M135.619 201.22H128.029V208.81H135.619V201.22Z" fill="black"/>
<path d="M135.619 193.71H128.029V201.22H135.619V193.71Z" fill="black"/>
<path d="M135.619 186.12H128.029V193.71H135.619V186.12Z" fill="black"/>
<path d="M135.619 178.61H128.029V186.12H135.619V178.61Z" fill="black"/>
<path d="M135.619 171.02H128.029V178.61H135.619V171.02Z" fill="black"/>
<path d="M135.619 163.43H128.029V171.02H135.619V163.43Z" fill="black"/>
<path d="M135.619 155.92H128.029V163.43H135.619V155.92Z" fill="black"/>
</svg>
