<svg width="400" height="400" viewBox="0 0 400 400" fill="none" xmlns="http://www.w3.org/2000/svg">
<path d="M200.001 385.78C302.604 385.78 385.781 302.603 385.781 200C385.781 97.3965 302.604 14.22 200.001 14.22C97.3972 14.22 14.2207 97.3965 14.2207 200C14.2207 302.603 97.3972 385.78 200.001 385.78Z" fill="black"/>
<path d="M200.001 392.78C93.7007 392.78 7.2207 306.3 7.2207 200C7.2207 93.7 93.7007 7.21997 200.001 7.21997C306.301 7.21997 392.781 93.7 392.781 200C392.781 306.3 306.301 392.78 200.001 392.78ZM200.001 21.22C101.421 21.22 21.2207 101.42 21.2207 200C21.2207 298.58 101.421 378.78 200.001 378.78C298.581 378.78 378.781 298.58 378.781 200C378.781 101.42 298.581 21.22 200.001 21.22Z" fill="#AD17AD"/>
<path d="M263.63 315.96H256.59V322.94H263.63V315.96Z" fill="black"/>
<path d="M263.63 308.91H256.59V315.96H263.63V308.91Z" fill="black"/>
<path d="M263.63 301.93H256.59V308.91H263.63V301.93Z" fill="black"/>
<path d="M263.63 294.88H256.59V301.93H263.63V294.88Z" fill="black"/>
<path d="M263.63 287.83H256.59V294.87H263.63V287.83Z" fill="black"/>
<path d="M263.63 280.84H256.59V287.83H263.63V280.84Z" fill="black"/>
<path d="M263.63 273.8H256.59V280.84H263.63V273.8Z" fill="black"/>
<path d="M263.63 238.69H256.59V245.73H263.63V238.69Z" fill="black"/>
<path d="M263.63 231.7H256.59V238.68H263.63V231.7Z" fill="black"/>
<path d="M263.63 224.65H256.59V231.7H263.63V224.65Z" fill="black"/>
<path d="M263.63 217.67H256.59V224.65H263.63V217.67Z" fill="black"/>
<path d="M263.63 210.62H256.59V217.67H263.63V210.62Z" fill="black"/>
<path d="M263.63 203.64H256.59V210.62H263.63V203.64Z" fill="black"/>
<path d="M263.63 196.59H256.59V203.64H263.63V196.59Z" fill="black"/>
<path d="M263.63 189.61H256.59V196.59H263.63V189.61Z" fill="black"/>
<path d="M263.63 182.56H256.59V189.61H263.63V182.56Z" fill="black"/>
<path d="M263.63 98.3H256.59V105.35H263.63V98.3Z" fill="#F20000"/>
<path d="M263.63 91.3301H256.59V98.3101H263.63V91.3301Z" fill="#F20000"/>
<path d="M256.591 315.96H249.611V322.94H256.591V315.96Z" fill="black"/>
<path d="M256.591 308.91H249.611V315.96H256.591V308.91Z" fill="#3C4360"/>
<path d="M256.591 301.93H249.611V308.91H256.591V301.93Z" fill="#3C4360"/>
<path d="M256.591 294.88H249.611V301.93H256.591V294.88Z" fill="#3C4360"/>
<path d="M256.591 287.83H249.611V294.87H256.591V287.83Z" fill="black"/>
<path d="M256.591 280.84H249.611V287.83H256.591V280.84Z" fill="#3C4360"/>
<path d="M256.591 273.8H249.611V280.84H256.591V273.8Z" fill="black"/>
<path d="M256.591 266.82H249.611V273.8H256.591V266.82Z" fill="black"/>
<path d="M256.591 259.76H249.611V266.81H256.591V259.76Z" fill="black"/>
<path d="M256.591 252.79H249.611V259.77H256.591V252.79Z" fill="black"/>
<path d="M256.591 245.73H249.611V252.78H256.591V245.73Z" fill="black"/>
<path d="M256.591 238.69H249.611V245.73H256.591V238.69Z" fill="#F49364"/>
<path d="M256.591 231.7H249.611V238.68H256.591V231.7Z" fill="#AD17AD"/>
<path d="M256.591 224.65H249.611V231.7H256.591V224.65Z" fill="#AD17AD"/>
<path d="M256.591 217.67H249.611V224.65H256.591V217.67Z" fill="#AD17AD"/>
<path d="M256.591 210.62H249.611V217.67H256.591V210.62Z" fill="#AD17AD"/>
<path d="M256.591 203.64H249.611V210.62H256.591V203.64Z" fill="#AD17AD"/>
<path d="M256.591 196.59H249.611V203.64H256.591V196.59Z" fill="#AD17AD"/>
<path d="M256.591 189.61H249.611V196.59H256.591V189.61Z" fill="#AD17AD"/>
<path d="M256.591 182.56H249.611V189.61H256.591V182.56Z" fill="#8A0391"/>
<path d="M256.591 175.51H249.611V182.56H256.591V175.51Z" fill="black"/>
<path d="M256.591 119.39H249.611V126.37H256.591V119.39Z" fill="black"/>
<path d="M256.591 112.34H249.611V119.39H256.591V112.34Z" fill="black"/>
<path d="M256.591 105.36H249.611V112.34H256.591V105.36Z" fill="#F20000"/>
<path d="M256.591 98.3H249.611V105.35H256.591V98.3Z" fill="#F20000"/>
<path d="M256.591 91.3301H249.611V98.3101H256.591V91.3301Z" fill="#F20000"/>
<path d="M249.601 315.96H242.551V322.94H249.601V315.96Z" fill="black"/>
<path d="M249.601 308.91H242.551V315.96H249.601V308.91Z" fill="#3C4360"/>
<path d="M249.601 301.93H242.551V308.91H249.601V301.93Z" fill="#3C4360"/>
<path d="M249.601 294.88H242.551V301.93H249.601V294.88Z" fill="#3C4360"/>
<path d="M249.601 287.83H242.551V294.87H249.601V287.83Z" fill="black"/>
<path d="M249.601 280.84H242.551V287.83H249.601V280.84Z" fill="#3C4360"/>
<path d="M249.601 273.8H242.551V280.84H249.601V273.8Z" fill="#8A0391"/>
<path d="M249.601 266.82H242.551V273.8H249.601V266.82Z" fill="#8A0391"/>
<path d="M249.601 259.76H242.551V266.81H249.601V259.76Z" fill="#8A0391"/>
<path d="M249.601 252.79H242.551V259.77H249.601V252.79Z" fill="#8A0391"/>
<path d="M249.601 245.73H242.551V252.78H249.601V245.73Z" fill="black"/>
<path d="M249.601 238.69H242.551V245.73H249.601V238.69Z" fill="#F49364"/>
<path d="M249.601 231.7H242.551V238.68H249.601V231.7Z" fill="#AD17AD"/>
<path d="M249.601 224.65H242.551V231.7H249.601V224.65Z" fill="#AD17AD"/>
<path d="M249.601 217.67H242.551V224.65H249.601V217.67Z" fill="#AD17AD"/>
<path d="M249.601 210.62H242.551V217.67H249.601V210.62Z" fill="#AD17AD"/>
<path d="M249.601 203.64H242.551V210.62H249.601V203.64Z" fill="#AD17AD"/>
<path d="M249.601 196.59H242.551V203.64H249.601V196.59Z" fill="#AD17AD"/>
<path d="M249.601 189.61H242.551V196.59H249.601V189.61Z" fill="#AD17AD"/>
<path d="M249.601 182.56H242.551V189.61H249.601V182.56Z" fill="#AD17AD"/>
<path d="M249.601 175.51H242.551V182.56H249.601V175.51Z" fill="#500256"/>
<path d="M249.601 168.53H242.551V175.51H249.601V168.53Z" fill="black"/>
<path d="M249.601 154.5H242.551V161.48H249.601V154.5Z" fill="black"/>
<path d="M249.601 147.45H242.551V154.5H249.601V147.45Z" fill="black"/>
<path d="M249.601 140.47H242.551V147.45H249.601V140.47Z" fill="black"/>
<path d="M249.601 133.42H242.551V140.47H249.601V133.42Z" fill="black"/>
<path d="M249.601 126.37H242.551V133.42H249.601V126.37Z" fill="black"/>
<path d="M249.601 119.39H242.551V126.37H249.601V119.39Z" fill="#8A0391"/>
<path d="M249.601 112.34H242.551V119.39H249.601V112.34Z" fill="#F20000"/>
<path d="M249.601 105.36H242.551V112.34H249.601V105.36Z" fill="#F20000"/>
<path d="M249.601 98.3H242.551V105.35H249.601V98.3Z" fill="#F20000"/>
<path d="M242.55 315.96H235.57V322.94H242.55V315.96Z" fill="black"/>
<path d="M242.55 308.91H235.57V315.96H242.55V308.91Z" fill="#3C4360"/>
<path d="M242.55 301.93H235.57V308.91H242.55V301.93Z" fill="black"/>
<path d="M242.55 294.88H235.57V301.93H242.55V294.88Z" fill="black"/>
<path d="M242.55 287.83H235.57V294.87H242.55V287.83Z" fill="black"/>
<path d="M242.55 280.84H235.57V287.83H242.55V280.84Z" fill="#3C4360"/>
<path d="M242.55 273.8H235.57V280.84H242.55V273.8Z" fill="#8A0391"/>
<path d="M242.55 266.82H235.57V273.8H242.55V266.82Z" fill="#8A0391"/>
<path d="M242.55 259.76H235.57V266.81H242.55V259.76Z" fill="#AD17AD"/>
<path d="M242.55 252.79H235.57V259.77H242.55V252.79Z" fill="#AD17AD"/>
<path d="M242.55 245.73H235.57V252.78H242.55V245.73Z" fill="#AD17AD"/>
<path d="M242.55 238.69H235.57V245.73H242.55V238.69Z" fill="#B8602D"/>
<path d="M242.55 231.7H235.57V238.68H242.55V231.7Z" fill="#AD17AD"/>
<path d="M242.55 224.65H235.57V231.7H242.55V224.65Z" fill="#AD17AD"/>
<path d="M242.55 217.67H235.57V224.65H242.55V217.67Z" fill="#AD17AD"/>
<path d="M242.55 210.62H235.57V217.67H242.55V210.62Z" fill="#AD17AD"/>
<path d="M242.55 203.64H235.57V210.62H242.55V203.64Z" fill="#AD17AD"/>
<path d="M242.55 196.59H235.57V203.64H242.55V196.59Z" fill="#AD17AD"/>
<path d="M242.55 189.61H235.57V196.59H242.55V189.61Z" fill="#AD17AD"/>
<path d="M242.55 182.56H235.57V189.61H242.55V182.56Z" fill="#500256"/>
<path d="M242.55 175.51H235.57V182.56H242.55V175.51Z" fill="#63036D"/>
<path d="M242.55 168.53H235.57V175.51H242.55V168.53Z" fill="black"/>
<path d="M242.55 161.48H235.57V168.53H242.55V161.48Z" fill="black"/>
<path d="M242.55 154.5H235.57V161.48H242.55V154.5Z" fill="#873810"/>
<path d="M242.55 147.45H235.57V154.5H242.55V147.45Z" fill="#873810"/>
<path d="M242.55 140.47H235.57V147.45H242.55V140.47Z" fill="#873810"/>
<path d="M242.55 133.42H235.57V140.47H242.55V133.42Z" fill="black"/>
<path d="M242.55 126.37H235.57V133.42H242.55V126.37Z" fill="#AD17AD"/>
<path d="M242.55 119.39H235.57V126.37H242.55V119.39Z" fill="#AD17AD"/>
<path d="M242.55 112.34H235.57V119.39H242.55V112.34Z" fill="#F20000"/>
<path d="M242.55 105.36H235.57V112.34H242.55V105.36Z" fill="#F20000"/>
<path d="M242.55 98.3H235.57V105.35H242.55V98.3Z" fill="black"/>
<path d="M235.57 315.96H228.52V322.94H235.57V315.96Z" fill="black"/>
<path d="M235.57 308.91H228.52V315.96H235.57V308.91Z" fill="black"/>
<path d="M235.57 280.84H228.52V287.83H235.57V280.84Z" fill="black"/>
<path d="M235.57 273.8H228.52V280.84H235.57V273.8Z" fill="#8A0391"/>
<path d="M235.57 266.82H228.52V273.8H235.57V266.82Z" fill="#8A0391"/>
<path d="M235.57 259.76H228.52V266.81H235.57V259.76Z" fill="#AD17AD"/>
<path d="M235.57 252.79H228.52V259.77H235.57V252.79Z" fill="#AD17AD"/>
<path d="M235.57 245.73H228.52V252.78H235.57V245.73Z" fill="#AD17AD"/>
<path d="M235.57 238.69H228.52V245.73H235.57V238.69Z" fill="#AD17AD"/>
<path d="M235.57 231.7H228.52V238.68H235.57V231.7Z" fill="#AD17AD"/>
<path d="M235.57 224.65H228.52V231.7H235.57V224.65Z" fill="#500256"/>
<path d="M235.57 217.67H228.52V224.65H235.57V217.67Z" fill="#500256"/>
<path d="M235.57 210.62H228.52V217.67H235.57V210.62Z" fill="#500256"/>
<path d="M235.57 203.64H228.52V210.62H235.57V203.64Z" fill="#500256"/>
<path d="M235.57 196.59H228.52V203.64H235.57V196.59Z" fill="#500256"/>
<path d="M235.57 189.61H228.52V196.59H235.57V189.61Z" fill="#500256"/>
<path d="M235.57 182.56H228.52V189.61H235.57V182.56Z" fill="#63036D"/>
<path d="M235.57 175.51H228.52V182.56H235.57V175.51Z" fill="#63036D"/>
<path d="M235.57 168.53H228.52V175.51H235.57V168.53Z" fill="black"/>
<path d="M235.57 161.48H228.52V168.53H235.57V161.48Z" fill="#873810"/>
<path d="M235.57 154.5H228.52V161.48H235.57V154.5Z" fill="#F49364"/>
<path d="M235.57 147.45H228.52V154.5H235.57V147.45Z" fill="#F49364"/>
<path d="M235.57 140.47H228.52V147.45H235.57V140.47Z" fill="#873810"/>
<path d="M235.57 133.42H228.52V140.47H235.57V133.42Z" fill="black"/>
<path d="M235.57 126.37H228.52V133.42H235.57V126.37Z" fill="#AD17AD"/>
<path d="M235.57 119.39H228.52V126.37H235.57V119.39Z" fill="#AD17AD"/>
<path d="M235.57 112.34H228.52V119.39H235.57V112.34Z" fill="#8A0391"/>
<path d="M235.57 105.36H228.52V112.34H235.57V105.36Z" fill="#AD17AD"/>
<path d="M235.57 98.3H228.52V105.35H235.57V98.3Z" fill="#AD17AD"/>
<path d="M235.57 91.3301H228.52V98.3101H235.57V91.3301Z" fill="black"/>
<path d="M228.521 273.8H221.541V280.84H228.521V273.8Z" fill="#570459"/>
<path d="M228.521 266.82H221.541V273.8H228.521V266.82Z" fill="#8A0391"/>
<path d="M228.521 259.76H221.541V266.81H228.521V259.76Z" fill="#AD17AD"/>
<path d="M228.521 252.79H221.541V259.77H228.521V252.79Z" fill="#AD17AD"/>
<path d="M228.521 245.73H221.541V252.78H228.521V245.73Z" fill="#AD17AD"/>
<path d="M228.521 238.69H221.541V245.73H228.521V238.69Z" fill="#AD17AD"/>
<path d="M228.521 231.7H221.541V238.68H228.521V231.7Z" fill="#AD17AD"/>
<path d="M228.521 224.65H221.541V231.7H228.521V224.65Z" fill="#500256"/>
<path d="M228.521 217.67H221.541V224.65H228.521V217.67Z" fill="#63036D"/>
<path d="M228.521 210.62H221.541V217.67H228.521V210.62Z" fill="#500256"/>
<path d="M228.521 203.64H221.541V210.62H228.521V203.64Z" fill="#63036D"/>
<path d="M228.521 196.59H221.541V203.64H228.521V196.59Z" fill="#63036D"/>
<path d="M228.521 189.61H221.541V196.59H228.521V189.61Z" fill="#63036D"/>
<path d="M228.521 182.56H221.541V189.61H228.521V182.56Z" fill="#63036D"/>
<path d="M228.521 175.51H221.541V182.56H228.521V175.51Z" fill="black"/>
<path d="M228.521 168.53H221.541V175.51H228.521V168.53Z" fill="#873810"/>
<path d="M228.521 161.48H221.541V168.53H228.521V161.48Z" fill="#F49364"/>
<path d="M228.521 154.5H221.541V161.48H228.521V154.5Z" fill="#FFEFD3"/>
<path d="M228.521 147.45H221.541V154.5H228.521V147.45Z" fill="#FFEFD3"/>
<path d="M228.521 140.47H221.541V147.45H228.521V140.47Z" fill="#F49364"/>
<path d="M228.521 133.42H221.541V140.47H228.521V133.42Z" fill="black"/>
<path d="M228.521 126.37H221.541V133.42H228.521V126.37Z" fill="#AD17AD"/>
<path d="M228.521 119.39H221.541V126.37H228.521V119.39Z" fill="#AD17AD"/>
<path d="M228.521 112.34H221.541V119.39H228.521V112.34Z" fill="#AD17AD"/>
<path d="M228.521 105.36H221.541V112.34H228.521V105.36Z" fill="#AD17AD"/>
<path d="M228.521 98.3H221.541V105.35H228.521V98.3Z" fill="#AD17AD"/>
<path d="M228.521 91.3301H221.541V98.3101H228.521V91.3301Z" fill="black"/>
<path d="M221.54 315.96H214.49V322.94H221.54V315.96Z" fill="black"/>
<path d="M221.54 308.91H214.49V315.96H221.54V308.91Z" fill="black"/>
<path d="M221.54 301.93H214.49V308.91H221.54V301.93Z" fill="black"/>
<path d="M221.54 294.88H214.49V301.93H221.54V294.88Z" fill="black"/>
<path d="M221.54 287.83H214.49V294.87H221.54V287.83Z" fill="black"/>
<path d="M221.54 280.84H214.49V287.83H221.54V280.84Z" fill="black"/>
<path d="M221.54 273.8H214.49V280.84H221.54V273.8Z" fill="black"/>
<path d="M221.54 266.82H214.49V273.8H221.54V266.82Z" fill="#570459"/>
<path d="M221.54 259.76H214.49V266.81H221.54V259.76Z" fill="#8A0391"/>
<path d="M221.54 252.79H214.49V259.77H221.54V252.79Z" fill="#AD17AD"/>
<path d="M221.54 245.73H214.49V252.78H221.54V245.73Z" fill="#AD17AD"/>
<path d="M221.54 238.69H214.49V245.73H221.54V238.69Z" fill="#AD17AD"/>
<path d="M221.54 231.7H214.49V238.68H221.54V231.7Z" fill="#AD17AD"/>
<path d="M221.54 224.65H214.49V231.7H221.54V224.65Z" fill="#500256"/>
<path d="M221.54 217.67H214.49V224.65H221.54V217.67Z" fill="#63036D"/>
<path d="M221.54 210.62H214.49V217.67H221.54V210.62Z" fill="#500256"/>
<path d="M221.54 203.64H214.49V210.62H221.54V203.64Z" fill="#63036D"/>
<path d="M221.54 196.59H214.49V203.64H221.54V196.59Z" fill="#63036D"/>
<path d="M221.54 189.61H214.49V196.59H221.54V189.61Z" fill="#63036D"/>
<path d="M221.54 182.56H214.49V189.61H221.54V182.56Z" fill="black"/>
<path d="M221.54 175.51H214.49V182.56H221.54V175.51Z" fill="#F49364"/>
<path d="M221.54 168.53H214.49V175.51H221.54V168.53Z" fill="#873810"/>
<path d="M221.54 161.48H214.49V168.53H221.54V161.48Z" fill="#FFEFD3"/>
<path d="M221.54 154.5H214.49V161.48H221.54V154.5Z" fill="#FFEFD3"/>
<path d="M221.54 147.45H214.49V154.5H221.54V147.45Z" fill="#FFEFD3"/>
<path d="M221.54 140.47H214.49V147.45H221.54V140.47Z" fill="black"/>
<path d="M221.54 133.42H214.49V140.47H221.54V133.42Z" fill="#AD17AD"/>
<path d="M221.54 126.37H214.49V133.42H221.54V126.37Z" fill="#AD17AD"/>
<path d="M221.54 119.39H214.49V126.37H221.54V119.39Z" fill="#AD17AD"/>
<path d="M221.54 112.34H214.49V119.39H221.54V112.34Z" fill="#AD17AD"/>
<path d="M221.54 105.36H214.49V112.34H221.54V105.36Z" fill="#AD17AD"/>
<path d="M221.54 98.3H214.49V105.35H221.54V98.3Z" fill="#AD17AD"/>
<path d="M221.54 91.3301H214.49V98.3101H221.54V91.3301Z" fill="black"/>
<path d="M214.49 315.96H207.51V322.94H214.49V315.96Z" fill="black"/>
<path d="M214.49 308.91H207.51V315.96H214.49V308.91Z" fill="#3C4360"/>
<path d="M214.49 301.93H207.51V308.91H214.49V301.93Z" fill="#3C4360"/>
<path d="M214.49 294.88H207.51V301.93H214.49V294.88Z" fill="#3C4360"/>
<path d="M214.49 287.83H207.51V294.87H214.49V287.83Z" fill="black"/>
<path d="M214.49 280.84H207.51V287.83H214.49V280.84Z" fill="#3C4360"/>
<path d="M214.49 273.8H207.51V280.84H214.49V273.8Z" fill="#570459"/>
<path d="M214.49 266.82H207.51V273.8H214.49V266.82Z" fill="#8A0391"/>
<path d="M214.49 259.76H207.51V266.81H214.49V259.76Z" fill="#570459"/>
<path d="M214.49 252.79H207.51V259.77H214.49V252.79Z" fill="#8A0391"/>
<path d="M214.49 245.73H207.51V252.78H214.49V245.73Z" fill="#AD17AD"/>
<path d="M214.49 238.69H207.51V245.73H214.49V238.69Z" fill="#AD17AD"/>
<path d="M214.49 231.7H207.51V238.68H214.49V231.7Z" fill="#AD17AD"/>
<path d="M214.49 224.65H207.51V231.7H214.49V224.65Z" fill="#500256"/>
<path d="M214.49 217.67H207.51V224.65H214.49V217.67Z" fill="#500256"/>
<path d="M214.49 210.62H207.51V217.67H214.49V210.62Z" fill="#500256"/>
<path d="M214.49 203.64H207.51V210.62H214.49V203.64Z" fill="#500256"/>
<path d="M214.49 196.59H207.51V203.64H214.49V196.59Z" fill="#500256"/>
<path d="M214.49 189.61H207.51V196.59H214.49V189.61Z" fill="#500256"/>
<path d="M214.49 182.56H207.51V189.61H214.49V182.56Z" fill="black"/>
<path d="M214.49 175.51H207.51V182.56H214.49V175.51Z" fill="#F49364"/>
<path d="M214.49 168.53H207.51V175.51H214.49V168.53Z" fill="#873810"/>
<path d="M214.49 161.48H207.51V168.53H214.49V161.48Z" fill="#FFEFD3"/>
<path d="M214.49 154.5H207.51V161.48H214.49V154.5Z" fill="#FFEFD3"/>
<path d="M214.49 147.45H207.51V154.5H214.49V147.45Z" fill="#FFEFD3"/>
<path d="M214.49 140.47H207.51V147.45H214.49V140.47Z" fill="black"/>
<path d="M214.49 133.42H207.51V140.47H214.49V133.42Z" fill="#AD17AD"/>
<path d="M214.49 126.37H207.51V133.42H214.49V126.37Z" fill="#AD17AD"/>
<path d="M214.49 119.39H207.51V126.37H214.49V119.39Z" fill="#8A0391"/>
<path d="M214.49 112.34H207.51V119.39H214.49V112.34Z" fill="#AD17AD"/>
<path d="M214.49 105.36H207.51V112.34H214.49V105.36Z" fill="#AD17AD"/>
<path d="M214.49 98.3H207.51V105.35H214.49V98.3Z" fill="#AD17AD"/>
<path d="M214.49 91.3301H207.51V98.3101H214.49V91.3301Z" fill="black"/>
<path d="M207.511 315.96H200.461V322.94H207.511V315.96Z" fill="black"/>
<path d="M207.511 308.91H200.461V315.96H207.511V308.91Z" fill="#3C4360"/>
<path d="M207.511 301.93H200.461V308.91H207.511V301.93Z" fill="#3C4360"/>
<path d="M207.511 294.88H200.461V301.93H207.511V294.88Z" fill="#3C4360"/>
<path d="M207.511 287.83H200.461V294.87H207.511V287.83Z" fill="black"/>
<path d="M207.511 280.84H200.461V287.83H207.511V280.84Z" fill="#3C4360"/>
<path d="M207.511 273.8H200.461V280.84H207.511V273.8Z" fill="#570459"/>
<path d="M207.511 266.82H200.461V273.8H207.511V266.82Z" fill="#8A0391"/>
<path d="M207.511 259.76H200.461V266.81H207.511V259.76Z" fill="#AD17AD"/>
<path d="M207.511 252.79H200.461V259.77H207.511V252.79Z" fill="#570459"/>
<path d="M207.511 245.73H200.461V252.78H207.511V245.73Z" fill="#570459"/>
<path d="M207.511 238.69H200.461V245.73H207.511V238.69Z" fill="#AD17AD"/>
<path d="M207.511 231.7H200.461V238.68H207.511V231.7Z" fill="#AD17AD"/>
<path d="M207.511 224.65H200.461V231.7H207.511V224.65Z" fill="#500256"/>
<path d="M207.511 217.67H200.461V224.65H207.511V217.67Z" fill="#500256"/>
<path d="M207.511 210.62H200.461V217.67H207.511V210.62Z" fill="#500256"/>
<path d="M207.511 203.64H200.461V210.62H207.511V203.64Z" fill="#500256"/>
<path d="M207.511 196.59H200.461V203.64H207.511V196.59Z" fill="#500256"/>
<path d="M207.511 189.61H200.461V196.59H207.511V189.61Z" fill="#500256"/>
<path d="M207.511 182.56H200.461V189.61H207.511V182.56Z" fill="black"/>
<path d="M207.511 175.51H200.461V182.56H207.511V175.51Z" fill="#500256"/>
<path d="M207.511 168.53H200.461V175.51H207.511V168.53Z" fill="black"/>
<path d="M207.511 161.48H200.461V168.53H207.511V161.48Z" fill="#FFEFD3"/>
<path d="M207.511 154.5H200.461V161.48H207.511V154.5Z" fill="#FFEFD3"/>
<path d="M207.511 147.45H200.461V154.5H207.511V147.45Z" fill="#FFEFD3"/>
<path d="M207.511 140.47H200.461V147.45H207.511V140.47Z" fill="black"/>
<path d="M207.511 133.42H200.461V140.47H207.511V133.42Z" fill="#AD17AD"/>
<path d="M207.511 126.37H200.461V133.42H207.511V126.37Z" fill="#AD17AD"/>
<path d="M207.511 119.39H200.461V126.37H207.511V119.39Z" fill="#8A0391"/>
<path d="M207.511 112.34H200.461V119.39H207.511V112.34Z" fill="#AD17AD"/>
<path d="M207.511 105.36H200.461V112.34H207.511V105.36Z" fill="#AD17AD"/>
<path d="M207.511 98.3H200.461V105.35H207.511V98.3Z" fill="black"/>
<path d="M200.46 315.96H193.41V322.94H200.46V315.96Z" fill="black"/>
<path d="M200.46 308.91H193.41V315.96H200.46V308.91Z" fill="#3C4360"/>
<path d="M200.46 301.93H193.41V308.91H200.46V301.93Z" fill="black"/>
<path d="M200.46 294.88H193.41V301.93H200.46V294.88Z" fill="black"/>
<path d="M200.46 287.83H193.41V294.87H200.46V287.83Z" fill="black"/>
<path d="M200.46 280.84H193.41V287.83H200.46V280.84Z" fill="#3C4360"/>
<path d="M200.46 273.8H193.41V280.84H200.46V273.8Z" fill="#570459"/>
<path d="M200.46 266.82H193.41V273.8H200.46V266.82Z" fill="#8A0391"/>
<path d="M200.46 259.76H193.41V266.81H200.46V259.76Z" fill="#AD17AD"/>
<path d="M200.46 252.79H193.41V259.77H200.46V252.79Z" fill="#AD17AD"/>
<path d="M200.46 245.73H193.41V252.78H200.46V245.73Z" fill="#AD17AD"/>
<path d="M200.46 238.69H193.41V245.73H200.46V238.69Z" fill="#AD17AD"/>
<path d="M200.46 231.7H193.41V238.68H200.46V231.7Z" fill="#AD17AD"/>
<path d="M200.46 224.65H193.41V231.7H200.46V224.65Z" fill="#500256"/>
<path d="M200.46 217.67H193.41V224.65H200.46V217.67Z" fill="#500256"/>
<path d="M200.46 210.62H193.41V217.67H200.46V210.62Z" fill="#500256"/>
<path d="M200.46 203.64H193.41V210.62H200.46V203.64Z" fill="#500256"/>
<path d="M200.46 196.59H193.41V203.64H200.46V196.59Z" fill="#500256"/>
<path d="M200.46 189.61H193.41V196.59H200.46V189.61Z" fill="#500256"/>
<path d="M200.46 182.56H193.41V189.61H200.46V182.56Z" fill="#500256"/>
<path d="M200.46 175.51H193.41V182.56H200.46V175.51Z" fill="black"/>
<path d="M200.46 168.53H193.41V175.51H200.46V168.53Z" fill="black"/>
<path d="M200.46 161.48H193.41V168.53H200.46V161.48Z" fill="black"/>
<path d="M200.46 154.5H193.41V161.48H200.46V154.5Z" fill="black"/>
<path d="M200.46 147.45H193.41V154.5H200.46V147.45Z" fill="black"/>
<path d="M200.46 140.47H193.41V147.45H200.46V140.47Z" fill="black"/>
<path d="M200.46 133.42H193.41V140.47H200.46V133.42Z" fill="#AD17AD"/>
<path d="M200.46 126.37H193.41V133.42H200.46V126.37Z" fill="#AD17AD"/>
<path d="M200.46 119.39H193.41V126.37H200.46V119.39Z" fill="#8A0391"/>
<path d="M200.46 112.34H193.41V119.39H200.46V112.34Z" fill="#AD17AD"/>
<path d="M200.46 105.36H193.41V112.34H200.46V105.36Z" fill="black"/>
<path d="M193.41 315.96H186.43V322.94H193.41V315.96Z" fill="black"/>
<path d="M193.41 308.91H186.43V315.96H193.41V308.91Z" fill="black"/>
<path d="M193.41 280.84H186.43V287.83H193.41V280.84Z" fill="black"/>
<path d="M193.41 273.8H186.43V280.84H193.41V273.8Z" fill="black"/>
<path d="M193.41 266.82H186.43V273.8H193.41V266.82Z" fill="#8A0391"/>
<path d="M193.41 259.76H186.43V266.81H193.41V259.76Z" fill="#AD17AD"/>
<path d="M193.41 252.79H186.43V259.77H193.41V252.79Z" fill="#AD17AD"/>
<path d="M193.41 245.73H186.43V252.78H193.41V245.73Z" fill="#AD17AD"/>
<path d="M193.41 238.69H186.43V245.73H193.41V238.69Z" fill="#AD17AD"/>
<path d="M193.41 231.7H186.43V238.68H193.41V231.7Z" fill="#AD17AD"/>
<path d="M193.41 224.65H186.43V231.7H193.41V224.65Z" fill="black"/>
<path d="M193.41 217.67H186.43V224.65H193.41V217.67Z" fill="black"/>
<path d="M193.41 210.62H186.43V217.67H193.41V210.62Z" fill="black"/>
<path d="M193.41 203.64H186.43V210.62H193.41V203.64Z" fill="black"/>
<path d="M193.41 196.59H186.43V203.64H193.41V196.59Z" fill="black"/>
<path d="M193.41 189.61H186.43V196.59H193.41V189.61Z" fill="black"/>
<path d="M193.41 182.56H186.43V189.61H193.41V182.56Z" fill="black"/>
<path d="M193.41 175.51H186.43V182.56H193.41V175.51Z" fill="black"/>
<path d="M193.41 140.47H186.43V147.45H193.41V140.47Z" fill="black"/>
<path d="M193.41 133.42H186.43V140.47H193.41V133.42Z" fill="#AD17AD"/>
<path d="M193.41 126.37H186.43V133.42H193.41V126.37Z" fill="#AD17AD"/>
<path d="M193.41 119.39H186.43V126.37H193.41V119.39Z" fill="#8A0391"/>
<path d="M193.41 112.34H186.43V119.39H193.41V112.34Z" fill="black"/>
<path d="M186.431 266.82H179.381V273.8H186.431V266.82Z" fill="black"/>
<path d="M186.431 259.76H179.381V266.81H186.431V259.76Z" fill="black"/>
<path d="M186.431 252.79H179.381V259.77H186.431V252.79Z" fill="black"/>
<path d="M186.431 245.73H179.381V252.78H186.431V245.73Z" fill="black"/>
<path d="M186.431 238.69H179.381V245.73H186.431V238.69Z" fill="black"/>
<path d="M186.431 231.7H179.381V238.68H186.431V231.7Z" fill="black"/>
<path d="M186.431 210.62H179.381V217.67H186.431V210.62Z" fill="black"/>
<path d="M186.431 203.64H179.381V210.62H186.431V203.64Z" fill="#8A0391"/>
<path d="M186.431 196.59H179.381V203.64H186.431V196.59Z" fill="#8A0391"/>
<path d="M186.431 189.61H179.381V196.59H186.431V189.61Z" fill="#8A0391"/>
<path d="M186.431 182.56H179.381V189.61H186.431V182.56Z" fill="black"/>
<path d="M186.431 140.47H179.381V147.45H186.431V140.47Z" fill="black"/>
<path d="M186.431 133.42H179.381V140.47H186.431V133.42Z" fill="#AD17AD"/>
<path d="M186.431 126.37H179.381V133.42H186.431V126.37Z" fill="#AD17AD"/>
<path d="M186.431 119.39H179.381V126.37H186.431V119.39Z" fill="black"/>
<path d="M179.38 217.67H172.4V224.65H179.38V217.67Z" fill="black"/>
<path d="M179.38 210.62H172.4V217.67H179.38V210.62Z" fill="#8A0391"/>
<path d="M179.38 203.64H172.4V210.62H179.38V203.64Z" fill="#8A0391"/>
<path d="M179.38 196.59H172.4V203.64H179.38V196.59Z" fill="#8A0391"/>
<path d="M179.38 189.61H172.4V196.59H179.38V189.61Z" fill="black"/>
<path d="M179.38 133.42H172.4V140.47H179.38V133.42Z" fill="black"/>
<path d="M179.38 126.37H172.4V133.42H179.38V126.37Z" fill="black"/>
<path d="M172.4 287.83H165.35V294.87H172.4V287.83Z" fill="black"/>
<path d="M172.4 280.84H165.35V287.83H172.4V280.84Z" fill="black"/>
<path d="M172.4 217.67H165.35V224.65H172.4V217.67Z" fill="black"/>
<path d="M172.4 210.62H165.35V217.67H172.4V210.62Z" fill="#8A0391"/>
<path d="M172.4 203.64H165.35V210.62H172.4V203.64Z" fill="#8A0391"/>
<path d="M172.4 196.59H165.35V203.64H172.4V196.59Z" fill="black"/>
<path d="M172.4 112.34H165.35V119.39H172.4V112.34Z" fill="black"/>
<path d="M172.4 105.36H165.35V112.34H172.4V105.36Z" fill="black"/>
<path d="M165.351 294.88H158.371V301.93H165.351V294.88Z" fill="black"/>
<path d="M165.351 287.83H158.371V294.87H165.351V287.83Z" fill="#B8602D"/>
<path d="M165.351 280.84H158.371V287.83H165.351V280.84Z" fill="#FFEFD3"/>
<path d="M165.351 273.8H158.371V280.84H165.351V273.8Z" fill="#FFEFD3"/>
<path d="M165.351 266.82H158.371V273.8H165.351V266.82Z" fill="#FFEFD3"/>
<path d="M165.351 259.76H158.371V266.81H165.351V259.76Z" fill="#FFEFD3"/>
<path d="M165.351 252.79H158.371V259.77H165.351V252.79Z" fill="#FFEFD3"/>
<path d="M165.351 245.73H158.371V252.78H165.351V245.73Z" fill="#FFEFD3"/>
<path d="M165.351 238.69H158.371V245.73H165.351V238.69Z" fill="#FFEFD3"/>
<path d="M165.351 231.7H158.371V238.68H165.351V231.7Z" fill="#FFEFD3"/>
<path d="M165.351 224.65H158.371V231.7H165.351V224.65Z" fill="#FFEFD3"/>
<path d="M165.351 217.67H158.371V224.65H165.351V217.67Z" fill="#FFEFD3"/>
<path d="M165.351 210.62H158.371V217.67H165.351V210.62Z" fill="#FFEFD3"/>
<path d="M165.351 203.64H158.371V210.62H165.351V203.64Z" fill="#FFEFD3"/>
<path d="M165.351 196.59H158.371V203.64H165.351V196.59Z" fill="#FFEFD3"/>
<path d="M165.351 189.61H158.371V196.59H165.351V189.61Z" fill="#FFEFD3"/>
<path d="M165.351 182.56H158.371V189.61H165.351V182.56Z" fill="#FFEFD3"/>
<path d="M165.351 175.51H158.371V182.56H165.351V175.51Z" fill="#FFEFD3"/>
<path d="M165.351 168.53H158.371V175.51H165.351V168.53Z" fill="#FFEFD3"/>
<path d="M165.351 161.48H158.371V168.53H165.351V161.48Z" fill="#FFEFD3"/>
<path d="M165.351 154.5H158.371V161.48H165.351V154.5Z" fill="#FFEFD3"/>
<path d="M165.351 147.45H158.371V154.5H165.351V147.45Z" fill="#FFEFD3"/>
<path d="M165.351 140.47H158.371V147.45H165.351V140.47Z" fill="#FFEFD3"/>
<path d="M165.351 133.42H158.371V140.47H165.351V133.42Z" fill="#FFEFD3"/>
<path d="M165.351 126.37H158.371V133.42H165.351V126.37Z" fill="#FFEFD3"/>
<path d="M165.351 119.39H158.371V126.37H165.351V119.39Z" fill="#FFEFD3"/>
<path d="M165.351 112.34H158.371V119.39H165.351V112.34Z" fill="#FFEFD3"/>
<path d="M165.351 105.36H158.371V112.34H165.351V105.36Z" fill="#B8602D"/>
<path d="M165.351 98.3H158.371V105.35H165.351V98.3Z" fill="black"/>
<path d="M158.37 287.83H151.32V294.87H158.37V287.83Z" fill="black"/>
<path d="M158.37 280.84H151.32V287.83H158.37V280.84Z" fill="black"/>
<path d="M158.37 273.8H151.32V280.84H158.37V273.8Z" fill="#B8602D"/>
<path d="M158.37 266.82H151.32V273.8H158.37V266.82Z" fill="#B8602D"/>
<path d="M158.37 259.76H151.32V266.81H158.37V259.76Z" fill="black"/>
<path d="M158.37 217.67H151.32V224.65H158.37V217.67Z" fill="black"/>
<path d="M158.37 210.62H151.32V217.67H158.37V210.62Z" fill="#8A0391"/>
<path d="M158.37 203.64H151.32V210.62H158.37V203.64Z" fill="#8A0391"/>
<path d="M158.37 196.59H151.32V203.64H158.37V196.59Z" fill="black"/>
<path d="M158.37 133.42H151.32V140.47H158.37V133.42Z" fill="black"/>
<path d="M158.37 126.37H151.32V133.42H158.37V126.37Z" fill="#B8602D"/>
<path d="M158.37 119.39H151.32V126.37H158.37V119.39Z" fill="#B8602D"/>
<path d="M158.37 112.34H151.32V119.39H158.37V112.34Z" fill="black"/>
<path d="M158.37 105.36H151.32V112.34H158.37V105.36Z" fill="black"/>
<path d="M151.32 273.8H144.27V280.84H151.32V273.8Z" fill="black"/>
<path d="M151.32 266.82H144.27V273.8H151.32V266.82Z" fill="#B8602D"/>
<path d="M151.32 259.76H144.27V266.81H151.32V259.76Z" fill="#B8602D"/>
<path d="M151.32 252.79H144.27V259.77H151.32V252.79Z" fill="black"/>
<path d="M151.32 217.67H144.27V224.65H151.32V217.67Z" fill="black"/>
<path d="M151.32 210.62H144.27V217.67H151.32V210.62Z" fill="#873810"/>
<path d="M151.32 203.64H144.27V210.62H151.32V203.64Z" fill="black"/>
<path d="M151.32 196.59H144.27V203.64H151.32V196.59Z" fill="#873810"/>
<path d="M151.32 140.47H144.27V147.45H151.32V140.47Z" fill="black"/>
<path d="M151.32 133.42H144.27V140.47H151.32V133.42Z" fill="#B8602D"/>
<path d="M151.32 126.37H144.27V133.42H151.32V126.37Z" fill="#B8602D"/>
<path d="M151.32 119.39H144.27V126.37H151.32V119.39Z" fill="black"/>
<path d="M144.271 266.82H137.291V273.8H144.271V266.82Z" fill="black"/>
<path d="M144.271 259.76H137.291V266.81H144.271V259.76Z" fill="#B8602D"/>
<path d="M144.271 252.79H137.291V259.77H144.271V252.79Z" fill="#B8602D"/>
<path d="M144.271 245.73H137.291V252.78H144.271V245.73Z" fill="black"/>
<path d="M144.271 238.69H137.291V245.73H144.271V238.69Z" fill="black"/>
<path d="M144.271 217.67H137.291V224.65H144.271V217.67Z" fill="black"/>
<path d="M144.271 210.62H137.291V217.67H144.271V210.62Z" fill="#873810"/>
<path d="M144.271 203.64H137.291V210.62H144.271V203.64Z" fill="#F49364"/>
<path d="M144.271 196.59H137.291V203.64H144.271V196.59Z" fill="black"/>
<path d="M144.271 154.5H137.291V161.48H144.271V154.5Z" fill="black"/>
<path d="M144.271 147.45H137.291V154.5H144.271V147.45Z" fill="black"/>
<path d="M144.271 140.47H137.291V147.45H144.271V140.47Z" fill="#B8602D"/>
<path d="M144.271 133.42H137.291V140.47H144.271V133.42Z" fill="#B8602D"/>
<path d="M144.271 126.37H137.291V133.42H144.271V126.37Z" fill="black"/>
<path d="M137.29 259.76H130.24V266.81H137.29V259.76Z" fill="black"/>
<path d="M137.29 252.79H130.24V259.77H137.29V252.79Z" fill="#B8602D"/>
<path d="M137.29 245.73H130.24V252.78H137.29V245.73Z" fill="#B8602D"/>
<path d="M137.29 238.69H130.24V245.73H137.29V238.69Z" fill="#B8602D"/>
<path d="M137.29 231.7H130.24V238.68H137.29V231.7Z" fill="black"/>
<path d="M137.29 224.65H130.24V231.7H137.29V224.65Z" fill="black"/>
<path d="M137.29 217.67H130.24V224.65H137.29V217.67Z" fill="black"/>
<path d="M137.29 210.62H130.24V217.67H137.29V210.62Z" fill="black"/>
<path d="M137.29 203.64H130.24V210.62H137.29V203.64Z" fill="#873810"/>
<path d="M137.29 196.59H130.24V203.64H137.29V196.59Z" fill="#F49364"/>
<path d="M137.29 189.61H130.24V196.59H137.29V189.61Z" fill="black"/>
<path d="M137.29 182.56H130.24V189.61H137.29V182.56Z" fill="black"/>
<path d="M137.29 175.51H130.24V182.56H137.29V175.51Z" fill="black"/>
<path d="M137.29 168.53H130.24V175.51H137.29V168.53Z" fill="black"/>
<path d="M137.29 161.48H130.24V168.53H137.29V161.48Z" fill="black"/>
<path d="M137.29 154.5H130.24V161.48H137.29V154.5Z" fill="#B8602D"/>
<path d="M137.29 147.45H130.24V154.5H137.29V147.45Z" fill="#B8602D"/>
<path d="M137.29 140.47H130.24V147.45H137.29V140.47Z" fill="#B8602D"/>
<path d="M137.29 133.42H130.24V140.47H137.29V133.42Z" fill="black"/>
<path d="M130.24 252.79H123.26V259.77H130.24V252.79Z" fill="black"/>
<path d="M130.24 245.73H123.26V252.78H130.24V245.73Z" fill="black"/>
<path d="M130.24 238.69H123.26V245.73H130.24V238.69Z" fill="#B8602D"/>
<path d="M130.24 231.7H123.26V238.68H130.24V231.7Z" fill="#B8602D"/>
<path d="M130.24 224.65H123.26V231.7H130.24V224.65Z" fill="#B8602D"/>
<path d="M130.24 217.67H123.26V224.65H130.24V217.67Z" fill="#B8602D"/>
<path d="M130.24 210.62H123.26V217.67H130.24V210.62Z" fill="#B8602D"/>
<path d="M130.24 203.64H123.26V210.62H130.24V203.64Z" fill="#873810"/>
<path d="M130.24 196.59H123.26V203.64H130.24V196.59Z" fill="#873810"/>
<path d="M130.24 189.61H123.26V196.59H130.24V189.61Z" fill="#B8602D"/>
<path d="M130.24 182.56H123.26V189.61H130.24V182.56Z" fill="#B8602D"/>
<path d="M130.24 175.51H123.26V182.56H130.24V175.51Z" fill="#B8602D"/>
<path d="M130.24 168.53H123.26V175.51H130.24V168.53Z" fill="#B8602D"/>
<path d="M130.24 161.48H123.26V168.53H130.24V161.48Z" fill="#B8602D"/>
<path d="M130.24 154.5H123.26V161.48H130.24V154.5Z" fill="#B8602D"/>
<path d="M130.24 147.45H123.26V154.5H130.24V147.45Z" fill="black"/>
<path d="M130.24 140.47H123.26V147.45H130.24V140.47Z" fill="black"/>
<path d="M123.261 238.69H116.211V245.73H123.261V238.69Z" fill="black"/>
<path d="M123.261 231.7H116.211V238.68H123.261V231.7Z" fill="black"/>
<path d="M123.261 224.65H116.211V231.7H123.261V224.65Z" fill="black"/>
<path d="M123.261 217.67H116.211V224.65H123.261V217.67Z" fill="black"/>
<path d="M123.261 210.62H116.211V217.67H123.261V210.62Z" fill="#F49364"/>
<path d="M123.261 203.64H116.211V210.62H123.261V203.64Z" fill="#F49364"/>
<path d="M123.261 196.59H116.211V203.64H123.261V196.59Z" fill="#F49364"/>
<path d="M123.261 189.61H116.211V196.59H123.261V189.61Z" fill="black"/>
<path d="M123.261 182.56H116.211V189.61H123.261V182.56Z" fill="black"/>
<path d="M123.261 175.51H116.211V182.56H123.261V175.51Z" fill="black"/>
<path d="M123.261 168.53H116.211V175.51H123.261V168.53Z" fill="black"/>
<path d="M123.261 161.48H116.211V168.53H123.261V161.48Z" fill="black"/>
<path d="M123.261 154.5H116.211V161.48H123.261V154.5Z" fill="black"/>
<path d="M116.21 210.62H109.23V217.67H116.21V210.62Z" fill="black"/>
<path d="M116.21 203.64H109.23V210.62H116.21V203.64Z" fill="black"/>
<path d="M116.21 196.59H109.23V203.64H116.21V196.59Z" fill="black"/>
</svg>
