<svg width="400" height="400" viewBox="0 0 400 400" fill="none" xmlns="http://www.w3.org/2000/svg">
<path d="M385.781 200C385.781 302.6 302.601 385.78 200.001 385.78C97.4007 385.78 14.2207 302.6 14.2207 200C14.2207 97.4 97.3907 14.22 200.001 14.22C302.611 14.22 385.781 97.4 385.781 200Z" fill="black"/>
<path d="M200.001 385.78C302.604 385.78 385.781 302.603 385.781 200C385.781 97.3965 302.604 14.22 200.001 14.22C97.3972 14.22 14.2207 97.3965 14.2207 200C14.2207 302.603 97.3972 385.78 200.001 385.78Z" stroke="#626CA0" stroke-width="14" stroke-miterlimit="10"/>
<path d="M349.07 242.17H342.16V249.02H349.07V242.17Z" fill="black"/>
<path d="M342.17 249.01H335.32V255.92H342.17V249.01Z" fill="black"/>
<path d="M342.17 242.17H335.32V249.02H342.17V242.17Z" fill="#1E2A3F"/>
<path d="M342.17 235.25H335.32V242.16H342.17V235.25Z" fill="black"/>
<path d="M335.31 255.93H328.4V262.78H335.31V255.93Z" fill="black"/>
<path d="M335.31 249.01H328.4V255.92H335.31V249.01Z" fill="#2F384C"/>
<path d="M335.31 242.17H328.4V249.02H335.31V242.17Z" fill="#1E2A3F"/>
<path d="M335.31 235.25H328.4V242.16H335.31V235.25Z" fill="#1E2A3F"/>
<path d="M335.31 228.35H328.4V235.26H335.31V228.35Z" fill="black"/>
<path d="M328.411 249.01H321.561V255.92H328.411V249.01Z" fill="black"/>
<path d="M328.411 242.17H321.561V249.02H328.411V242.17Z" fill="#2F384C"/>
<path d="M328.411 235.25H321.561V242.16H328.411V235.25Z" fill="black"/>
<path d="M321.551 262.77H314.641V269.68H321.551V262.77Z" fill="black"/>
<path d="M321.551 255.93H314.641V262.78H321.551V255.93Z" fill="black"/>
<path d="M321.551 249.01H314.641V255.92H321.551V249.01Z" fill="#2F384C"/>
<path d="M321.551 242.17H314.641V249.02H321.551V242.17Z" fill="#2F384C"/>
<path d="M321.551 235.25H314.641V242.16H321.551V235.25Z" fill="#1E2A3F"/>
<path d="M321.551 228.35H314.641V235.26H321.551V228.35Z" fill="black"/>
<path d="M321.551 221.51H314.641V228.36H321.551V221.51Z" fill="black"/>
<path d="M314.661 269.69H307.811V276.54H314.661V269.69Z" fill="black"/>
<path d="M314.661 262.77H307.811V269.68H314.661V262.77Z" fill="#2F384C"/>
<path d="M314.661 255.93H307.811V262.78H314.661V255.93Z" fill="#2F384C"/>
<path d="M314.661 249.01H307.811V255.92H314.661V249.01Z" fill="#2F384C"/>
<path d="M314.661 242.17H307.811V249.02H314.661V242.17Z" fill="#2F384C"/>
<path d="M314.661 235.25H307.811V242.16H314.661V235.25Z" fill="#2F384C"/>
<path d="M314.661 228.35H307.811V235.26H314.661V228.35Z" fill="#1E2A3F"/>
<path d="M314.661 221.51H307.811V228.36H314.661V221.51Z" fill="#1E2A3F"/>
<path d="M314.661 214.59H307.811V221.5H314.661V214.59Z" fill="black"/>
<path d="M307.81 262.77H300.9V269.68H307.81V262.77Z" fill="black"/>
<path d="M307.81 255.93H300.9V262.78H307.81V255.93Z" fill="black"/>
<path d="M307.81 249.01H300.9V255.92H307.81V249.01Z" fill="black"/>
<path d="M307.81 242.17H300.9V249.02H307.81V242.17Z" fill="#2F384C"/>
<path d="M307.81 235.25H300.9V242.16H307.81V235.25Z" fill="black"/>
<path d="M307.81 228.35H300.9V235.26H307.81V228.35Z" fill="black"/>
<path d="M307.81 221.51H300.9V228.36H307.81V221.51Z" fill="black"/>
<path d="M300.901 249.01H294.051V255.92H300.901V249.01Z" fill="black"/>
<path d="M300.901 242.17H294.051V249.02H300.901V242.17Z" fill="#2F384C"/>
<path d="M300.901 235.25H294.051V242.16H300.901V235.25Z" fill="black"/>
<path d="M294.051 249.01H287.141V255.92H294.051V249.01Z" fill="black"/>
<path d="M294.051 242.17H287.141V249.02H294.051V242.17Z" fill="#2F384C"/>
<path d="M294.051 235.25H287.141V242.16H294.051V235.25Z" fill="black"/>
<path d="M294.051 180.24H287.141V187.09H294.051V180.24Z" fill="black"/>
<path d="M287.131 249.01H280.221V255.92H287.131V249.01Z" fill="black"/>
<path d="M287.131 242.17H280.221V249.02H287.131V242.17Z" fill="#2F384C"/>
<path d="M287.131 235.25H280.221V242.16H287.131V235.25Z" fill="black"/>
<path d="M287.131 187.09H280.221V194H287.131V187.09Z" fill="black"/>
<path d="M287.131 180.24H280.221V187.09H287.131V180.24Z" fill="#B25212"/>
<path d="M287.131 173.33H280.221V180.24H287.131V173.33Z" fill="black"/>
<path d="M287.131 166.41H280.221V173.32H287.131V166.41Z" fill="black"/>
<path d="M287.131 159.57H280.221V166.42H287.131V159.57Z" fill="black"/>
<path d="M280.241 249.01H273.391V255.92H280.241V249.01Z" fill="black"/>
<path d="M280.241 242.17H273.391V249.02H280.241V242.17Z" fill="#2F384C"/>
<path d="M280.241 235.25H273.391V242.16H280.241V235.25Z" fill="black"/>
<path d="M280.241 221.51H273.391V228.36H280.241V221.51Z" fill="black"/>
<path d="M280.241 214.59H273.391V221.5H280.241V214.59Z" fill="black"/>
<path d="M280.241 207.75H273.391V214.6H280.241V207.75Z" fill="black"/>
<path d="M280.241 200.83H273.391V207.74H280.241V200.83Z" fill="black"/>
<path d="M280.241 187.09H273.391V194H280.241V187.09Z" fill="black"/>
<path d="M280.241 180.24H273.391V187.09H280.241V180.24Z" fill="#B25212"/>
<path d="M280.241 173.33H273.391V180.24H280.241V173.33Z" fill="black"/>
<path d="M280.241 166.41H273.391V173.32H280.241V166.41Z" fill="#404E89"/>
<path d="M280.241 159.57H273.391V166.42H280.241V159.57Z" fill="#404E89"/>
<path d="M280.241 152.67H273.391V159.58H280.241V152.67Z" fill="black"/>
<path d="M280.241 145.82H273.391V152.67H280.241V145.82Z" fill="black"/>
<path d="M273.39 249.01H266.48V255.92H273.39V249.01Z" fill="black"/>
<path d="M273.39 242.17H266.48V249.02H273.39V242.17Z" fill="black"/>
<path d="M273.39 235.25H266.48V242.16H273.39V235.25Z" fill="black"/>
<path d="M273.39 228.35H266.48V235.26H273.39V228.35Z" fill="black"/>
<path d="M273.39 221.51H266.48V228.36H273.39V221.51Z" fill="#B25212"/>
<path d="M273.39 214.59H266.48V221.5H273.39V214.59Z" fill="#C1811B"/>
<path d="M273.39 207.75H266.48V214.6H273.39V207.75Z" fill="black"/>
<path d="M273.39 200.83H266.48V207.74H273.39V200.83Z" fill="#626CA0"/>
<path d="M273.39 194H266.48V200.85H273.39V194Z" fill="black"/>
<path d="M273.39 187.09H266.48V194H273.39V187.09Z" fill="#B25212"/>
<path d="M273.39 180.24H266.48V187.09H273.39V180.24Z" fill="#C1811B"/>
<path d="M273.39 173.33H266.48V180.24H273.39V173.33Z" fill="black"/>
<path d="M273.39 166.41H266.48V173.32H273.39V166.41Z" fill="#404E89"/>
<path d="M273.39 159.57H266.48V166.42H273.39V159.57Z" fill="#626CA0"/>
<path d="M273.39 152.67H266.48V159.58H273.39V152.67Z" fill="#626CA0"/>
<path d="M273.39 145.82H266.48V152.67H273.39V145.82Z" fill="#5364AD"/>
<path d="M273.39 138.91H266.48V145.82H273.39V138.91Z" fill="black"/>
<path d="M273.39 132.06H266.48V138.91H273.39V132.06Z" fill="black"/>
<path d="M273.39 125.15H266.48V132.06H273.39V125.15Z" fill="black"/>
<path d="M273.39 118.24H266.48V125.15H273.39V118.24Z" fill="black"/>
<path d="M266.481 249.01H259.631V255.92H266.481V249.01Z" fill="black"/>
<path d="M266.481 242.17H259.631V249.02H266.481V242.17Z" fill="#B25212"/>
<path d="M266.481 235.25H259.631V242.16H266.481V235.25Z" fill="black"/>
<path d="M266.481 228.35H259.631V235.26H266.481V228.35Z" fill="#C1811B"/>
<path d="M266.481 221.51H259.631V228.36H266.481V221.51Z" fill="#B25212"/>
<path d="M266.481 214.59H259.631V221.5H266.481V214.59Z" fill="#C1811B"/>
<path d="M266.481 207.75H259.631V214.6H266.481V207.75Z" fill="black"/>
<path d="M266.481 200.83H259.631V207.74H266.481V200.83Z" fill="#626CA0"/>
<path d="M266.481 194H259.631V200.85H266.481V194Z" fill="black"/>
<path d="M266.481 187.09H259.631V194H266.481V187.09Z" fill="#B25212"/>
<path d="M266.481 180.24H259.631V187.09H266.481V180.24Z" fill="#DBAB65"/>
<path d="M266.481 173.33H259.631V180.24H266.481V173.33Z" fill="#626CA0"/>
<path d="M266.481 166.41H259.631V173.32H266.481V166.41Z" fill="#626CA0"/>
<path d="M266.481 159.57H259.631V166.42H266.481V159.57Z" fill="#626CA0"/>
<path d="M266.481 152.67H259.631V159.58H266.481V152.67Z" fill="#626CA0"/>
<path d="M266.481 145.82H259.631V152.67H266.481V145.82Z" fill="#5364AD"/>
<path d="M266.481 138.91H259.631V145.82H266.481V138.91Z" fill="#5364AD"/>
<path d="M266.481 132.06H259.631V138.91H266.481V132.06Z" fill="#5364AD"/>
<path d="M266.481 125.15H259.631V132.06H266.481V125.15Z" fill="#5364AD"/>
<path d="M266.481 118.24H259.631V125.15H266.481V118.24Z" fill="#626CA0"/>
<path d="M266.481 111.4H259.631V118.25H266.481V111.4Z" fill="black"/>
<path d="M259.631 255.93H252.721V262.78H259.631V255.93Z" fill="black"/>
<path d="M259.631 249.01H252.721V255.92H259.631V249.01Z" fill="#B25212"/>
<path d="M259.631 242.17H252.721V249.02H259.631V242.17Z" fill="#C1811B"/>
<path d="M259.631 235.25H252.721V242.16H259.631V235.25Z" fill="black"/>
<path d="M259.631 228.35H252.721V235.26H259.631V228.35Z" fill="#C1811B"/>
<path d="M259.631 221.51H252.721V228.36H259.631V221.51Z" fill="#C1811B"/>
<path d="M259.631 214.59H252.721V221.5H259.631V214.59Z" fill="#B25212"/>
<path d="M259.631 207.75H252.721V214.6H259.631V207.75Z" fill="black"/>
<path d="M259.631 200.83H252.721V207.74H259.631V200.83Z" fill="#626CA0"/>
<path d="M259.631 194H252.721V200.85H259.631V194Z" fill="black"/>
<path d="M259.631 187.09H252.721V194H259.631V187.09Z" fill="#B25212"/>
<path d="M259.631 180.24H252.721V187.09H259.631V180.24Z" fill="#DBAB65"/>
<path d="M259.631 173.33H252.721V180.24H259.631V173.33Z" fill="black"/>
<path d="M259.631 166.41H252.721V173.32H259.631V166.41Z" fill="#404E89"/>
<path d="M259.631 159.57H252.721V166.42H259.631V159.57Z" fill="#626CA0"/>
<path d="M259.631 152.67H252.721V159.58H259.631V152.67Z" fill="#626CA0"/>
<path d="M259.631 145.82H252.721V152.67H259.631V145.82Z" fill="#626CA0"/>
<path d="M259.631 138.91H252.721V145.82H259.631V138.91Z" fill="#626CA0"/>
<path d="M259.631 132.06H252.721V138.91H259.631V132.06Z" fill="#5364AD"/>
<path d="M259.631 125.15H252.721V132.06H259.631V125.15Z" fill="#626CA0"/>
<path d="M259.631 118.24H252.721V125.15H259.631V118.24Z" fill="#5364AD"/>
<path d="M259.631 111.4H252.721V118.25H259.631V111.4Z" fill="black"/>
<path d="M252.719 255.93H245.869V262.78H252.719V255.93Z" fill="black"/>
<path d="M252.719 249.01H245.869V255.92H252.719V249.01Z" fill="#C1811B"/>
<path d="M252.719 242.17H245.869V249.02H252.719V242.17Z" fill="#DBAB65"/>
<path d="M252.719 235.25H245.869V242.16H252.719V235.25Z" fill="#DBAB65"/>
<path d="M252.719 228.35H245.869V235.26H252.719V228.35Z" fill="black"/>
<path d="M252.719 221.51H245.869V228.36H252.719V221.51Z" fill="#C1811B"/>
<path d="M252.719 214.59H245.869V221.5H252.719V214.59Z" fill="black"/>
<path d="M252.719 207.75H245.869V214.6H252.719V207.75Z" fill="#626CA0"/>
<path d="M252.719 200.83H245.869V207.74H252.719V200.83Z" fill="#626CA0"/>
<path d="M252.719 194H245.869V200.85H252.719V194Z" fill="#5364AD"/>
<path d="M252.719 187.09H245.869V194H252.719V187.09Z" fill="black"/>
<path d="M252.719 180.24H245.869V187.09H252.719V180.24Z" fill="#C1811B"/>
<path d="M252.719 173.33H245.869V180.24H252.719V173.33Z" fill="black"/>
<path d="M252.719 166.41H245.869V173.32H252.719V166.41Z" fill="#404E89"/>
<path d="M252.719 159.57H245.869V166.42H252.719V159.57Z" fill="#404E89"/>
<path d="M252.719 152.67H245.869V159.58H252.719V152.67Z" fill="#626CA0"/>
<path d="M252.719 145.82H245.869V152.67H252.719V145.82Z" fill="#626CA0"/>
<path d="M252.719 138.91H245.869V145.82H252.719V138.91Z" fill="#626CA0"/>
<path d="M252.719 132.06H245.869V138.91H252.719V132.06Z" fill="#626CA0"/>
<path d="M252.719 125.15H245.869V132.06H252.719V125.15Z" fill="#626CA0"/>
<path d="M252.719 118.24H245.869V125.15H252.719V118.24Z" fill="#626CA0"/>
<path d="M252.719 111.4H245.869V118.25H252.719V111.4Z" fill="black"/>
<path d="M245.871 255.93H238.961V262.78H245.871V255.93Z" fill="black"/>
<path d="M245.871 249.01H238.961V255.92H245.871V249.01Z" fill="#DBAB65"/>
<path d="M245.871 242.17H238.961V249.02H245.871V242.17Z" fill="#DBAB65"/>
<path d="M245.871 235.25H238.961V242.16H245.871V235.25Z" fill="#DBAB65"/>
<path d="M245.871 228.35H238.961V235.26H245.871V228.35Z" fill="black"/>
<path d="M245.871 221.51H238.961V228.36H245.871V221.51Z" fill="#C1811B"/>
<path d="M245.871 214.59H238.961V221.5H245.871V214.59Z" fill="black"/>
<path d="M245.871 207.75H238.961V214.6H245.871V207.75Z" fill="#5364AD"/>
<path d="M245.871 200.83H238.961V207.74H245.871V200.83Z" fill="#5364AD"/>
<path d="M245.871 194H238.961V200.85H245.871V194Z" fill="#5364AD"/>
<path d="M245.871 187.09H238.961V194H245.871V187.09Z" fill="black"/>
<path d="M245.871 180.24H238.961V187.09H245.871V180.24Z" fill="#B25212"/>
<path d="M245.871 173.33H238.961V180.24H245.871V173.33Z" fill="#C1811B"/>
<path d="M245.871 166.41H238.961V173.32H245.871V166.41Z" fill="black"/>
<path d="M245.871 159.57H238.961V166.42H245.871V159.57Z" fill="#404E89"/>
<path d="M245.871 152.67H238.961V159.58H245.871V152.67Z" fill="#626CA0"/>
<path d="M245.871 145.82H238.961V152.67H245.871V145.82Z" fill="#626CA0"/>
<path d="M245.871 138.91H238.961V145.82H245.871V138.91Z" fill="#626CA0"/>
<path d="M245.871 132.06H238.961V138.91H245.871V132.06Z" fill="#626CA0"/>
<path d="M245.871 125.15H238.961V132.06H245.871V125.15Z" fill="black"/>
<path d="M245.871 118.24H238.961V125.15H245.871V118.24Z" fill="black"/>
<path d="M245.871 111.4H238.961V118.25H245.871V111.4Z" fill="black"/>
<path d="M238.971 297.19H232.061V304.1H238.971V297.19Z" fill="black"/>
<path d="M238.971 290.35H232.061V297.2H238.971V290.35Z" fill="black"/>
<path d="M238.971 283.43H232.061V290.34H238.971V283.43Z" fill="black"/>
<path d="M238.971 276.52H232.061V283.43H238.971V276.52Z" fill="black"/>
<path d="M238.971 269.69H232.061V276.54H238.971V269.69Z" fill="black"/>
<path d="M238.971 255.93H232.061V262.78H238.971V255.93Z" fill="black"/>
<path d="M238.971 249.01H232.061V255.92H238.971V249.01Z" fill="#B25212"/>
<path d="M238.971 242.17H232.061V249.02H238.971V242.17Z" fill="#DBAB65"/>
<path d="M238.971 235.25H232.061V242.16H238.971V235.25Z" fill="#DBAB65"/>
<path d="M238.971 228.35H232.061V235.26H238.971V228.35Z" fill="#C1811B"/>
<path d="M238.971 221.51H232.061V228.36H238.971V221.51Z" fill="black"/>
<path d="M238.971 214.59H232.061V221.5H238.971V214.59Z" fill="black"/>
<path d="M238.971 207.75H232.061V214.6H238.971V207.75Z" fill="black"/>
<path d="M238.971 200.83H232.061V207.74H238.971V200.83Z" fill="black"/>
<path d="M238.971 194H232.061V200.85H238.971V194Z" fill="#5364AD"/>
<path d="M238.971 187.09H232.061V194H238.971V187.09Z" fill="#5364AD"/>
<path d="M238.971 180.24H232.061V187.09H238.971V180.24Z" fill="black"/>
<path d="M238.971 173.33H232.061V180.24H238.971V173.33Z" fill="#B25212"/>
<path d="M238.971 166.41H232.061V173.32H238.971V166.41Z" fill="#C1811B"/>
<path d="M238.971 159.57H232.061V166.42H238.971V159.57Z" fill="black"/>
<path d="M238.971 152.67H232.061V159.58H238.971V152.67Z" fill="black"/>
<path d="M238.971 145.82H232.061V152.67H238.971V145.82Z" fill="#5364AD"/>
<path d="M238.971 138.91H232.061V145.82H238.971V138.91Z" fill="#5364AD"/>
<path d="M238.971 132.06H232.061V138.91H238.971V132.06Z" fill="black"/>
<path d="M238.971 125.15H232.061V132.06H238.971V125.15Z" fill="black"/>
<path d="M232.061 297.19H225.211V304.1H232.061V297.19Z" fill="black"/>
<path d="M232.061 290.35H225.211V297.2H232.061V290.35Z" fill="#404E89"/>
<path d="M232.061 283.43H225.211V290.34H232.061V283.43Z" fill="#404E89"/>
<path d="M232.061 276.52H225.211V283.43H232.061V276.52Z" fill="#404E89"/>
<path d="M232.061 269.69H225.211V276.54H232.061V269.69Z" fill="black"/>
<path d="M232.061 262.77H225.211V269.68H232.061V262.77Z" fill="black"/>
<path d="M232.061 255.93H225.211V262.78H232.061V255.93Z" fill="black"/>
<path d="M232.061 249.01H225.211V255.92H232.061V249.01Z" fill="black"/>
<path d="M232.061 242.17H225.211V249.02H232.061V242.17Z" fill="#C1811B"/>
<path d="M232.061 235.25H225.211V242.16H232.061V235.25Z" fill="#C1811B"/>
<path d="M232.061 228.35H225.211V235.26H232.061V228.35Z" fill="#C1811B"/>
<path d="M232.061 221.51H225.211V228.36H232.061V221.51Z" fill="black"/>
<path d="M232.061 214.59H225.211V221.5H232.061V214.59Z" fill="#344A91"/>
<path d="M232.061 207.75H225.211V214.6H232.061V207.75Z" fill="#344A91"/>
<path d="M232.061 200.83H225.211V207.74H232.061V200.83Z" fill="#C1811B"/>
<path d="M232.061 194H225.211V200.85H232.061V194Z" fill="black"/>
<path d="M232.061 187.09H225.211V194H232.061V187.09Z" fill="black"/>
<path d="M232.061 180.24H225.211V187.09H232.061V180.24Z" fill="#626CA0"/>
<path d="M232.061 173.33H225.211V180.24H232.061V173.33Z" fill="black"/>
<path d="M232.061 166.41H225.211V173.32H232.061V166.41Z" fill="#B25212"/>
<path d="M232.061 159.57H225.211V166.42H232.061V159.57Z" fill="#C1811B"/>
<path d="M232.061 152.67H225.211V159.58H232.061V152.67Z" fill="#DBAB65"/>
<path d="M232.061 145.82H225.211V152.67H232.061V145.82Z" fill="black"/>
<path d="M232.061 138.91H225.211V145.82H232.061V138.91Z" fill="#5364AD"/>
<path d="M232.061 132.06H225.211V138.91H232.061V132.06Z" fill="black"/>
<path d="M232.061 125.15H225.211V132.06H232.061V125.15Z" fill="black"/>
<path d="M232.061 118.24H225.211V125.15H232.061V118.24Z" fill="black"/>
<path d="M232.061 111.4H225.211V118.25H232.061V111.4Z" fill="black"/>
<path d="M232.061 104.49H225.211V111.4H232.061V104.49Z" fill="black"/>
<path d="M232.061 97.6399H225.211V104.49H232.061V97.6399Z" fill="black"/>
<path d="M232.061 90.73H225.211V97.64H232.061V90.73Z" fill="black"/>
<path d="M225.211 297.19H218.301V304.1H225.211V297.19Z" fill="black"/>
<path d="M225.211 290.35H218.301V297.2H225.211V290.35Z" fill="#404E89"/>
<path d="M225.211 283.43H218.301V290.34H225.211V283.43Z" fill="#626CA0"/>
<path d="M225.211 276.52H218.301V283.43H225.211V276.52Z" fill="#626CA0"/>
<path d="M225.211 269.69H218.301V276.54H225.211V269.69Z" fill="#404E89"/>
<path d="M225.211 262.77H218.301V269.68H225.211V262.77Z" fill="#404E89"/>
<path d="M225.211 255.93H218.301V262.78H225.211V255.93Z" fill="#404E89"/>
<path d="M225.211 249.01H218.301V255.92H225.211V249.01Z" fill="black"/>
<path d="M225.211 242.17H218.301V249.02H225.211V242.17Z" fill="black"/>
<path d="M225.211 235.25H218.301V242.16H225.211V235.25Z" fill="black"/>
<path d="M225.211 228.35H218.301V235.26H225.211V228.35Z" fill="black"/>
<path d="M225.211 221.51H218.301V228.36H225.211V221.51Z" fill="black"/>
<path d="M225.211 214.59H218.301V221.5H225.211V214.59Z" fill="black"/>
<path d="M225.211 207.75H218.301V214.6H225.211V207.75Z" fill="#42578E"/>
<path d="M225.211 200.83H218.301V207.74H225.211V200.83Z" fill="black"/>
<path d="M225.211 194H218.301V200.85H225.211V194Z" fill="#C1811B"/>
<path d="M225.211 187.09H218.301V194H225.211V187.09Z" fill="black"/>
<path d="M225.211 180.24H218.301V187.09H225.211V180.24Z" fill="#626CA0"/>
<path d="M225.211 173.33H218.301V180.24H225.211V173.33Z" fill="#626CA0"/>
<path d="M225.211 166.41H218.301V173.32H225.211V166.41Z" fill="black"/>
<path d="M225.211 159.57H218.301V166.42H225.211V159.57Z" fill="#B25212"/>
<path d="M225.211 152.67H218.301V159.58H225.211V152.67Z" fill="#C1811B"/>
<path d="M225.211 145.82H218.301V152.67H225.211V145.82Z" fill="#B25212"/>
<path d="M225.211 138.91H218.301V145.82H225.211V138.91Z" fill="black"/>
<path d="M225.211 132.06H218.301V138.91H225.211V132.06Z" fill="#404E89"/>
<path d="M225.211 125.15H218.301V132.06H225.211V125.15Z" fill="#404E89"/>
<path d="M225.211 118.24H218.301V125.15H225.211V118.24Z" fill="#626CA0"/>
<path d="M225.211 111.4H218.301V118.25H225.211V111.4Z" fill="#626CA0"/>
<path d="M225.211 104.49H218.301V111.4H225.211V104.49Z" fill="#404E89"/>
<path d="M225.211 97.6399H218.301V104.49H225.211V97.6399Z" fill="#404E89"/>
<path d="M225.211 90.73H218.301V97.64H225.211V90.73Z" fill="#404E89"/>
<path d="M225.211 83.8899H218.301V90.7399H225.211V83.8899Z" fill="black"/>
<path d="M218.299 297.19H211.449V304.1H218.299V297.19Z" fill="black"/>
<path d="M218.299 290.35H211.449V297.2H218.299V290.35Z" fill="#404E89"/>
<path d="M218.299 283.43H211.449V290.34H218.299V283.43Z" fill="#C1811B"/>
<path d="M218.299 276.52H211.449V283.43H218.299V276.52Z" fill="#B25212"/>
<path d="M218.299 269.69H211.449V276.54H218.299V269.69Z" fill="#626CA0"/>
<path d="M218.299 262.77H211.449V269.68H218.299V262.77Z" fill="black"/>
<path d="M218.299 255.93H211.449V262.78H218.299V255.93Z" fill="black"/>
<path d="M218.299 249.01H211.449V255.92H218.299V249.01Z" fill="black"/>
<path d="M218.299 242.17H211.449V249.02H218.299V242.17Z" fill="#2F384C"/>
<path d="M218.299 235.25H211.449V242.16H218.299V235.25Z" fill="black"/>
<path d="M218.299 228.35H211.449V235.26H218.299V228.35Z" fill="#344A91"/>
<path d="M218.299 221.51H211.449V228.36H218.299V221.51Z" fill="#42578E"/>
<path d="M218.299 214.59H211.449V221.5H218.299V214.59Z" fill="black"/>
<path d="M218.299 207.75H211.449V214.6H218.299V207.75Z" fill="#42578E"/>
<path d="M218.299 200.83H211.449V207.74H218.299V200.83Z" fill="black"/>
<path d="M218.299 194H211.449V200.85H218.299V194Z" fill="#B25212"/>
<path d="M218.299 187.09H211.449V194H218.299V187.09Z" fill="black"/>
<path d="M218.299 180.24H211.449V187.09H218.299V180.24Z" fill="#404E89"/>
<path d="M218.299 173.33H211.449V180.24H218.299V173.33Z" fill="black"/>
<path d="M218.299 166.41H211.449V173.32H218.299V166.41Z" fill="#C1811B"/>
<path d="M218.299 159.57H211.449V166.42H218.299V159.57Z" fill="black"/>
<path d="M218.299 152.67H211.449V159.58H218.299V152.67Z" fill="black"/>
<path d="M218.299 145.82H211.449V152.67H218.299V145.82Z" fill="black"/>
<path d="M218.299 138.91H211.449V145.82H218.299V138.91Z" fill="#404E89"/>
<path d="M218.299 132.06H211.449V138.91H218.299V132.06Z" fill="#404E89"/>
<path d="M218.299 125.15H211.449V132.06H218.299V125.15Z" fill="#626CA0"/>
<path d="M218.299 118.24H211.449V125.15H218.299V118.24Z" fill="#626CA0"/>
<path d="M218.299 111.4H211.449V118.25H218.299V111.4Z" fill="#626CA0"/>
<path d="M218.299 104.49H211.449V111.4H218.299V104.49Z" fill="#626CA0"/>
<path d="M218.299 97.6399H211.449V104.49H218.299V97.6399Z" fill="#626CA0"/>
<path d="M218.299 90.73H211.449V97.64H218.299V90.73Z" fill="#404E89"/>
<path d="M218.299 83.8899H211.449V90.7399H218.299V83.8899Z" fill="black"/>
<path d="M211.449 297.19H204.539V304.1H211.449V297.19Z" fill="black"/>
<path d="M211.449 290.35H204.539V297.2H211.449V290.35Z" fill="#404E89"/>
<path d="M211.449 283.43H204.539V290.34H211.449V283.43Z" fill="black"/>
<path d="M211.449 276.52H204.539V283.43H211.449V276.52Z" fill="black"/>
<path d="M211.449 269.69H204.539V276.54H211.449V269.69Z" fill="#B25212"/>
<path d="M211.449 262.77H204.539V269.68H211.449V262.77Z" fill="#B25212"/>
<path d="M211.449 255.93H204.539V262.78H211.449V255.93Z" fill="black"/>
<path d="M211.449 249.01H204.539V255.92H211.449V249.01Z" fill="black"/>
<path d="M211.449 242.17H204.539V249.02H211.449V242.17Z" fill="#2F384C"/>
<path d="M211.449 235.25H204.539V242.16H211.449V235.25Z" fill="black"/>
<path d="M211.449 228.35H204.539V235.26H211.449V228.35Z" fill="#344A91"/>
<path d="M211.449 221.51H204.539V228.36H211.449V221.51Z" fill="#344A91"/>
<path d="M211.449 214.59H204.539V221.5H211.449V214.59Z" fill="#42578E"/>
<path d="M211.449 207.75H204.539V214.6H211.449V207.75Z" fill="black"/>
<path d="M211.449 200.83H204.539V207.74H211.449V200.83Z" fill="#B25212"/>
<path d="M211.449 194H204.539V200.85H211.449V194Z" fill="#B25212"/>
<path d="M211.449 187.09H204.539V194H211.449V187.09Z" fill="black"/>
<path d="M211.449 180.24H204.539V187.09H211.449V180.24Z" fill="#404E89"/>
<path d="M211.449 173.33H204.539V180.24H211.449V173.33Z" fill="black"/>
<path d="M211.449 166.41H204.539V173.32H211.449V166.41Z" fill="#C1811B"/>
<path d="M211.449 159.57H204.539V166.42H211.449V159.57Z" fill="#404E89"/>
<path d="M211.449 152.67H204.539V159.58H211.449V152.67Z" fill="#404E89"/>
<path d="M211.449 145.82H204.539V152.67H211.449V145.82Z" fill="black"/>
<path d="M211.449 138.91H204.539V145.82H211.449V138.91Z" fill="#404E89"/>
<path d="M211.449 132.06H204.539V138.91H211.449V132.06Z" fill="#626CA0"/>
<path d="M211.449 125.15H204.539V132.06H211.449V125.15Z" fill="#626CA0"/>
<path d="M211.449 118.24H204.539V125.15H211.449V118.24Z" fill="#626CA0"/>
<path d="M211.449 111.4H204.539V118.25H211.449V111.4Z" fill="#626CA0"/>
<path d="M211.449 104.49H204.539V111.4H211.449V104.49Z" fill="#626CA0"/>
<path d="M211.449 97.6399H204.539V104.49H211.449V97.6399Z" fill="#626CA0"/>
<path d="M211.449 90.73H204.539V97.64H211.449V90.73Z" fill="#626CA0"/>
<path d="M211.449 83.8899H204.539V90.7399H211.449V83.8899Z" fill="black"/>
<path d="M204.549 297.19H197.699V304.1H204.549V297.19Z" fill="black"/>
<path d="M204.549 290.35H197.699V297.2H204.549V290.35Z" fill="#C1811B"/>
<path d="M204.549 283.43H197.699V290.34H204.549V283.43Z" fill="#DBAB65"/>
<path d="M204.549 276.52H197.699V283.43H204.549V276.52Z" fill="#C1811B"/>
<path d="M204.549 269.69H197.699V276.54H204.549V269.69Z" fill="black"/>
<path d="M204.549 262.77H197.699V269.68H204.549V262.77Z" fill="#C1811B"/>
<path d="M204.549 255.93H197.699V262.78H204.549V255.93Z" fill="#626CA0"/>
<path d="M204.549 249.01H197.699V255.92H204.549V249.01Z" fill="black"/>
<path d="M204.549 242.17H197.699V249.02H204.549V242.17Z" fill="#2F384C"/>
<path d="M204.549 235.25H197.699V242.16H204.549V235.25Z" fill="black"/>
<path d="M204.549 228.35H197.699V235.26H204.549V228.35Z" fill="#344A91"/>
<path d="M204.549 221.51H197.699V228.36H204.549V221.51Z" fill="#42578E"/>
<path d="M204.549 214.59H197.699V221.5H204.549V214.59Z" fill="#42578E"/>
<path d="M204.549 207.75H197.699V214.6H204.549V207.75Z" fill="black"/>
<path d="M204.549 200.83H197.699V207.74H204.549V200.83Z" fill="#B25212"/>
<path d="M204.549 194H197.699V200.85H204.549V194Z" fill="black"/>
<path d="M204.549 187.09H197.699V194H204.549V187.09Z" fill="#404E89"/>
<path d="M204.549 180.24H197.699V187.09H204.549V180.24Z" fill="black"/>
<path d="M204.549 173.33H197.699V180.24H204.549V173.33Z" fill="#C1811B"/>
<path d="M204.549 166.41H197.699V173.32H204.549V166.41Z" fill="#404E89"/>
<path d="M204.549 159.57H197.699V166.42H204.549V159.57Z" fill="#404E89"/>
<path d="M204.549 152.67H197.699V159.58H204.549V152.67Z" fill="#404E89"/>
<path d="M204.549 145.82H197.699V152.67H204.549V145.82Z" fill="black"/>
<path d="M204.549 138.91H197.699V145.82H204.549V138.91Z" fill="#404E89"/>
<path d="M204.549 132.06H197.699V138.91H204.549V132.06Z" fill="#626CA0"/>
<path d="M204.549 125.15H197.699V132.06H204.549V125.15Z" fill="#626CA0"/>
<path d="M204.549 118.24H197.699V125.15H204.549V118.24Z" fill="#5364AD"/>
<path d="M204.549 111.4H197.699V118.25H204.549V111.4Z" fill="#5364AD"/>
<path d="M204.549 104.49H197.699V111.4H204.549V104.49Z" fill="#626CA0"/>
<path d="M204.549 97.6399H197.699V104.49H204.549V97.6399Z" fill="#626CA0"/>
<path d="M204.549 90.73H197.699V97.64H204.549V90.73Z" fill="#626CA0"/>
<path d="M204.549 83.8899H197.699V90.7399H204.549V83.8899Z" fill="black"/>
<path d="M197.699 297.19H190.789V304.1H197.699V297.19Z" fill="black"/>
<path d="M197.699 290.35H190.789V297.2H197.699V290.35Z" fill="#DBAB65"/>
<path d="M197.699 283.43H190.789V290.34H197.699V283.43Z" fill="black"/>
<path d="M197.699 276.52H190.789V283.43H197.699V276.52Z" fill="black"/>
<path d="M197.699 269.69H190.789V276.54H197.699V269.69Z" fill="black"/>
<path d="M197.699 262.77H190.789V269.68H197.699V262.77Z" fill="black"/>
<path d="M197.699 255.93H190.789V262.78H197.699V255.93Z" fill="#626CA0"/>
<path d="M197.699 249.01H190.789V255.92H197.699V249.01Z" fill="black"/>
<path d="M197.699 242.17H190.789V249.02H197.699V242.17Z" fill="#2F384C"/>
<path d="M197.699 235.25H190.789V242.16H197.699V235.25Z" fill="black"/>
<path d="M197.699 228.35H190.789V235.26H197.699V228.35Z" fill="#42578E"/>
<path d="M197.699 221.51H190.789V228.36H197.699V221.51Z" fill="#42578E"/>
<path d="M197.699 214.59H190.789V221.5H197.699V214.59Z" fill="#42578E"/>
<path d="M197.699 207.75H190.789V214.6H197.699V207.75Z" fill="black"/>
<path d="M197.699 200.83H190.789V207.74H197.699V200.83Z" fill="#C1811B"/>
<path d="M197.699 194H190.789V200.85H197.699V194Z" fill="black"/>
<path d="M197.699 187.09H190.789V194H197.699V187.09Z" fill="#404E89"/>
<path d="M197.699 180.24H190.789V187.09H197.699V180.24Z" fill="black"/>
<path d="M197.699 173.33H190.789V180.24H197.699V173.33Z" fill="#404E89"/>
<path d="M197.699 166.41H190.789V173.32H197.699V166.41Z" fill="#404E89"/>
<path d="M197.699 159.57H190.789V166.42H197.699V159.57Z" fill="#626CA0"/>
<path d="M197.699 152.67H190.789V159.58H197.699V152.67Z" fill="black"/>
<path d="M197.699 145.82H190.789V152.67H197.699V145.82Z" fill="#404E89"/>
<path d="M197.699 138.91H190.789V145.82H197.699V138.91Z" fill="#404E89"/>
<path d="M197.699 132.06H190.789V138.91H197.699V132.06Z" fill="#626CA0"/>
<path d="M197.699 125.15H190.789V132.06H197.699V125.15Z" fill="#5364AD"/>
<path d="M197.699 118.24H190.789V125.15H197.699V118.24Z" fill="#5364AD"/>
<path d="M197.699 111.4H190.789V118.25H197.699V111.4Z" fill="black"/>
<path d="M197.699 104.49H190.789V111.4H197.699V104.49Z" fill="#626CA0"/>
<path d="M197.699 97.6399H190.789V104.49H197.699V97.6399Z" fill="#626CA0"/>
<path d="M197.699 90.73H190.789V97.64H197.699V90.73Z" fill="#626CA0"/>
<path d="M197.699 83.8899H190.789V90.7399H197.699V83.8899Z" fill="black"/>
<path d="M190.789 297.19H183.939V304.1H190.789V297.19Z" fill="black"/>
<path d="M190.789 290.35H183.939V297.2H190.789V290.35Z" fill="#C1811B"/>
<path d="M190.789 283.43H183.939V290.34H190.789V283.43Z" fill="black"/>
<path d="M190.789 276.52H183.939V283.43H190.789V276.52Z" fill="#C1811B"/>
<path d="M190.789 269.69H183.939V276.54H190.789V269.69Z" fill="black"/>
<path d="M190.789 262.77H183.939V269.68H190.789V262.77Z" fill="#C1811B"/>
<path d="M190.789 255.93H183.939V262.78H190.789V255.93Z" fill="black"/>
<path d="M190.789 249.01H183.939V255.92H190.789V249.01Z" fill="black"/>
<path d="M190.789 242.17H183.939V249.02H190.789V242.17Z" fill="#2F384C"/>
<path d="M190.789 235.25H183.939V242.16H190.789V235.25Z" fill="black"/>
<path d="M190.789 228.35H183.939V235.26H190.789V228.35Z" fill="#42578E"/>
<path d="M190.789 221.51H183.939V228.36H190.789V221.51Z" fill="#344A91"/>
<path d="M190.789 214.59H183.939V221.5H190.789V214.59Z" fill="black"/>
<path d="M190.789 207.75H183.939V214.6H190.789V207.75Z" fill="black"/>
<path d="M190.789 200.83H183.939V207.74H190.789V200.83Z" fill="#C1811B"/>
<path d="M190.789 194H183.939V200.85H190.789V194Z" fill="black"/>
<path d="M190.789 187.09H183.939V194H190.789V187.09Z" fill="#404E89"/>
<path d="M190.789 180.24H183.939V187.09H190.789V180.24Z" fill="black"/>
<path d="M190.789 173.33H183.939V180.24H190.789V173.33Z" fill="#626CA0"/>
<path d="M190.789 166.41H183.939V173.32H190.789V166.41Z" fill="#404E89"/>
<path d="M190.789 159.57H183.939V166.42H190.789V159.57Z" fill="#626CA0"/>
<path d="M190.789 152.67H183.939V159.58H190.789V152.67Z" fill="black"/>
<path d="M190.789 145.82H183.939V152.67H190.789V145.82Z" fill="#404E89"/>
<path d="M190.789 138.91H183.939V145.82H190.789V138.91Z" fill="#404E89"/>
<path d="M190.789 132.06H183.939V138.91H190.789V132.06Z" fill="#5364AD"/>
<path d="M190.789 125.15H183.939V132.06H190.789V125.15Z" fill="#5364AD"/>
<path d="M190.789 118.24H183.939V125.15H190.789V118.24Z" fill="black"/>
<path d="M190.789 111.4H183.939V118.25H190.789V111.4Z" fill="black"/>
<path d="M190.789 104.49H183.939V111.4H190.789V104.49Z" fill="#626CA0"/>
<path d="M190.789 97.6399H183.939V104.49H190.789V97.6399Z" fill="#626CA0"/>
<path d="M190.789 90.73H183.939V97.64H190.789V90.73Z" fill="#5364AD"/>
<path d="M190.789 83.8899H183.939V90.7399H190.789V83.8899Z" fill="black"/>
<path d="M183.939 297.19H177.029V304.1H183.939V297.19Z" fill="black"/>
<path d="M183.939 290.35H177.029V297.2H183.939V290.35Z" fill="black"/>
<path d="M183.939 283.43H177.029V290.34H183.939V283.43Z" fill="#C1811B"/>
<path d="M183.939 276.52H177.029V283.43H183.939V276.52Z" fill="#DBAB65"/>
<path d="M183.939 269.69H177.029V276.54H183.939V269.69Z" fill="#C1811B"/>
<path d="M183.939 262.77H177.029V269.68H183.939V262.77Z" fill="black"/>
<path d="M183.939 255.93H177.029V262.78H183.939V255.93Z" fill="#5364AD"/>
<path d="M183.939 249.01H177.029V255.92H183.939V249.01Z" fill="black"/>
<path d="M183.939 242.17H177.029V249.02H183.939V242.17Z" fill="#2F384C"/>
<path d="M183.939 235.25H177.029V242.16H183.939V235.25Z" fill="black"/>
<path d="M183.939 228.35H177.029V235.26H183.939V228.35Z" fill="#344A91"/>
<path d="M183.939 221.51H177.029V228.36H183.939V221.51Z" fill="black"/>
<path d="M183.939 214.59H177.029V221.5H183.939V214.59Z" fill="#42578E"/>
<path d="M183.939 207.75H177.029V214.6H183.939V207.75Z" fill="#344A91"/>
<path d="M183.939 200.83H177.029V207.74H183.939V200.83Z" fill="black"/>
<path d="M183.939 194H177.029V200.85H183.939V194Z" fill="#C1811B"/>
<path d="M183.939 187.09H177.029V194H183.939V187.09Z" fill="black"/>
<path d="M183.939 180.24H177.029V187.09H183.939V180.24Z" fill="black"/>
<path d="M183.939 173.33H177.029V180.24H183.939V173.33Z" fill="#626CA0"/>
<path d="M183.939 166.41H177.029V173.32H183.939V166.41Z" fill="#404E89"/>
<path d="M183.939 159.57H177.029V166.42H183.939V159.57Z" fill="#626CA0"/>
<path d="M183.939 152.67H177.029V159.58H183.939V152.67Z" fill="black"/>
<path d="M183.939 145.82H177.029V152.67H183.939V145.82Z" fill="#404E89"/>
<path d="M183.939 138.91H177.029V145.82H183.939V138.91Z" fill="#5364AD"/>
<path d="M183.939 132.06H177.029V138.91H183.939V132.06Z" fill="black"/>
<path d="M183.939 125.15H177.029V132.06H183.939V125.15Z" fill="black"/>
<path d="M183.939 118.24H177.029V125.15H183.939V118.24Z" fill="black"/>
<path d="M183.939 111.4H177.029V118.25H183.939V111.4Z" fill="black"/>
<path d="M183.939 104.49H177.029V111.4H183.939V104.49Z" fill="#5364AD"/>
<path d="M183.939 97.6399H177.029V104.49H183.939V97.6399Z" fill="#5364AD"/>
<path d="M183.939 90.73H177.029V97.64H183.939V90.73Z" fill="#5364AD"/>
<path d="M183.939 83.8899H177.029V90.7399H183.939V83.8899Z" fill="black"/>
<path d="M177.029 297.19H170.119V304.1H177.029V297.19Z" fill="black"/>
<path d="M177.029 290.35H170.119V297.2H177.029V290.35Z" fill="#DBAB65"/>
<path d="M177.029 283.43H170.119V290.34H177.029V283.43Z" fill="#C1811B"/>
<path d="M177.029 276.52H170.119V283.43H177.029V276.52Z" fill="black"/>
<path d="M177.029 269.69H170.119V276.54H177.029V269.69Z" fill="black"/>
<path d="M177.029 262.77H170.119V269.68H177.029V262.77Z" fill="black"/>
<path d="M177.029 255.93H170.119V262.78H177.029V255.93Z" fill="black"/>
<path d="M177.029 249.01H170.119V255.92H177.029V249.01Z" fill="black"/>
<path d="M177.029 242.17H170.119V249.02H177.029V242.17Z" fill="#2F384C"/>
<path d="M177.029 235.25H170.119V242.16H177.029V235.25Z" fill="black"/>
<path d="M177.029 228.35H170.119V235.26H177.029V228.35Z" fill="black"/>
<path d="M177.029 221.51H170.119V228.36H177.029V221.51Z" fill="black"/>
<path d="M177.029 214.59H170.119V221.5H177.029V214.59Z" fill="black"/>
<path d="M177.029 207.75H170.119V214.6H177.029V207.75Z" fill="black"/>
<path d="M177.029 200.83H170.119V207.74H177.029V200.83Z" fill="black"/>
<path d="M177.029 194H170.119V200.85H177.029V194Z" fill="black"/>
<path d="M177.029 187.09H170.119V194H177.029V187.09Z" fill="black"/>
<path d="M177.029 180.24H170.119V187.09H177.029V180.24Z" fill="#404E89"/>
<path d="M177.029 173.33H170.119V180.24H177.029V173.33Z" fill="black"/>
<path d="M177.029 166.41H170.119V173.32H177.029V166.41Z" fill="#626CA0"/>
<path d="M177.029 159.57H170.119V166.42H177.029V159.57Z" fill="#626CA0"/>
<path d="M177.029 152.67H170.119V159.58H177.029V152.67Z" fill="black"/>
<path d="M177.029 145.82H170.119V152.67H177.029V145.82Z" fill="black"/>
<path d="M177.029 138.91H170.119V145.82H177.029V138.91Z" fill="black"/>
<path d="M177.029 132.06H170.119V138.91H177.029V132.06Z" fill="black"/>
<path d="M177.029 125.15H170.119V132.06H177.029V125.15Z" fill="black"/>
<path d="M177.029 118.24H170.119V125.15H177.029V118.24Z" fill="black"/>
<path d="M177.029 111.4H170.119V118.25H177.029V111.4Z" fill="black"/>
<path d="M177.029 104.49H170.119V111.4H177.029V104.49Z" fill="black"/>
<path d="M177.029 97.6399H170.119V104.49H177.029V97.6399Z" fill="black"/>
<path d="M177.029 90.73H170.119V97.64H177.029V90.73Z" fill="black"/>
<path d="M170.12 297.19H163.27V304.1H170.12V297.19Z" fill="black"/>
<path d="M170.12 290.35H163.27V297.2H170.12V290.35Z" fill="#DBAB65"/>
<path d="M170.12 283.43H163.27V290.34H170.12V283.43Z" fill="black"/>
<path d="M170.12 249.01H163.27V255.92H170.12V249.01Z" fill="black"/>
<path d="M170.12 242.17H163.27V249.02H170.12V242.17Z" fill="#2F384C"/>
<path d="M170.12 235.25H163.27V242.16H170.12V235.25Z" fill="black"/>
<path d="M170.12 228.35H163.27V235.26H170.12V228.35Z" fill="#DBAB65"/>
<path d="M170.12 221.51H163.27V228.36H170.12V221.51Z" fill="black"/>
<path d="M170.12 214.59H163.27V221.5H170.12V214.59Z" fill="#DBAB65"/>
<path d="M170.12 207.75H163.27V214.6H170.12V207.75Z" fill="#B25212"/>
<path d="M170.12 200.83H163.27V207.74H170.12V200.83Z" fill="#C1811B"/>
<path d="M170.12 194H163.27V200.85H170.12V194Z" fill="black"/>
<path d="M170.12 187.09H163.27V194H170.12V187.09Z" fill="black"/>
<path d="M170.12 180.24H163.27V187.09H170.12V180.24Z" fill="black"/>
<path d="M170.12 173.33H163.27V180.24H170.12V173.33Z" fill="black"/>
<path d="M170.12 166.41H163.27V173.32H170.12V166.41Z" fill="black"/>
<path d="M170.12 159.57H163.27V166.42H170.12V159.57Z" fill="black"/>
<path d="M170.12 152.67H163.27V159.58H170.12V152.67Z" fill="#404E89"/>
<path d="M170.12 145.82H163.27V152.67H170.12V145.82Z" fill="#404E89"/>
<path d="M170.12 138.91H163.27V145.82H170.12V138.91Z" fill="#626CA0"/>
<path d="M170.12 132.06H163.27V138.91H170.12V132.06Z" fill="#626CA0"/>
<path d="M170.12 125.15H163.27V132.06H170.12V125.15Z" fill="#626CA0"/>
<path d="M170.12 118.24H163.27V125.15H170.12V118.24Z" fill="black"/>
<path d="M163.279 297.19H156.369V304.1H163.279V297.19Z" fill="black"/>
<path d="M163.279 290.35H156.369V297.2H163.279V290.35Z" fill="#C1811B"/>
<path d="M163.279 283.43H156.369V290.34H163.279V283.43Z" fill="black"/>
<path d="M163.279 249.01H156.369V255.92H163.279V249.01Z" fill="black"/>
<path d="M163.279 242.17H156.369V249.02H163.279V242.17Z" fill="#2F384C"/>
<path d="M163.279 235.25H156.369V242.16H163.279V235.25Z" fill="black"/>
<path d="M163.279 228.35H156.369V235.26H163.279V228.35Z" fill="#DBAB65"/>
<path d="M163.279 221.51H156.369V228.36H163.279V221.51Z" fill="#C1811B"/>
<path d="M163.279 214.59H156.369V221.5H163.279V214.59Z" fill="black"/>
<path d="M163.279 207.75H156.369V214.6H163.279V207.75Z" fill="black"/>
<path d="M163.279 200.83H156.369V207.74H163.279V200.83Z" fill="black"/>
<path d="M163.279 194H156.369V200.85H163.279V194Z" fill="black"/>
<path d="M163.279 187.09H156.369V194H163.279V187.09Z" fill="black"/>
<path d="M163.279 180.24H156.369V187.09H163.279V180.24Z" fill="black"/>
<path d="M163.279 173.33H156.369V180.24H163.279V173.33Z" fill="#C1811B"/>
<path d="M163.279 166.41H156.369V173.32H163.279V166.41Z" fill="black"/>
<path d="M163.279 159.57H156.369V166.42H163.279V159.57Z" fill="#404E89"/>
<path d="M163.279 152.67H156.369V159.58H163.279V152.67Z" fill="#404E89"/>
<path d="M163.279 145.82H156.369V152.67H163.279V145.82Z" fill="#626CA0"/>
<path d="M163.279 138.91H156.369V145.82H163.279V138.91Z" fill="#5364AD"/>
<path d="M163.279 132.06H156.369V138.91H163.279V132.06Z" fill="#5364AD"/>
<path d="M163.279 125.15H156.369V132.06H163.279V125.15Z" fill="#626CA0"/>
<path d="M163.279 118.24H156.369V125.15H163.279V118.24Z" fill="black"/>
<path d="M156.37 297.19H149.52V304.1H156.37V297.19Z" fill="black"/>
<path d="M156.37 290.35H149.52V297.2H156.37V290.35Z" fill="black"/>
<path d="M156.37 249.01H149.52V255.92H156.37V249.01Z" fill="black"/>
<path d="M156.37 242.17H149.52V249.02H156.37V242.17Z" fill="#2F384C"/>
<path d="M156.37 235.25H149.52V242.16H156.37V235.25Z" fill="black"/>
<path d="M156.37 228.35H149.52V235.26H156.37V228.35Z" fill="#C1811B"/>
<path d="M156.37 221.51H149.52V228.36H156.37V221.51Z" fill="#C1811B"/>
<path d="M156.37 214.59H149.52V221.5H156.37V214.59Z" fill="black"/>
<path d="M156.37 173.33H149.52V180.24H156.37V173.33Z" fill="black"/>
<path d="M156.37 166.41H149.52V173.32H156.37V166.41Z" fill="#C1811B"/>
<path d="M156.37 159.57H149.52V166.42H156.37V159.57Z" fill="black"/>
<path d="M156.37 152.67H149.52V159.58H156.37V152.67Z" fill="#404E89"/>
<path d="M156.37 145.82H149.52V152.67H156.37V145.82Z" fill="#5364AD"/>
<path d="M156.37 138.91H149.52V145.82H156.37V138.91Z" fill="black"/>
<path d="M156.37 132.06H149.52V138.91H156.37V132.06Z" fill="black"/>
<path d="M156.37 125.15H149.52V132.06H156.37V125.15Z" fill="black"/>
<path d="M149.519 249.01H142.609V255.92H149.519V249.01Z" fill="black"/>
<path d="M149.519 242.17H142.609V249.02H149.519V242.17Z" fill="#2F384C"/>
<path d="M149.519 235.25H142.609V242.16H149.519V235.25Z" fill="black"/>
<path d="M149.519 228.35H142.609V235.26H149.519V228.35Z" fill="black"/>
<path d="M149.519 221.51H142.609V228.36H149.519V221.51Z" fill="black"/>
<path d="M149.519 166.41H142.609V173.32H149.519V166.41Z" fill="black"/>
<path d="M149.519 159.57H142.609V166.42H149.519V159.57Z" fill="black"/>
<path d="M149.519 152.67H142.609V159.58H149.519V152.67Z" fill="black"/>
<path d="M149.519 145.82H142.609V152.67H149.519V145.82Z" fill="black"/>
<path d="M142.62 249.01H135.77V255.92H142.62V249.01Z" fill="black"/>
<path d="M142.62 242.17H135.77V249.02H142.62V242.17Z" fill="#2F384C"/>
<path d="M142.62 235.25H135.77V242.16H142.62V235.25Z" fill="black"/>
<path d="M135.76 249.01H128.85V255.92H135.76V249.01Z" fill="black"/>
<path d="M135.76 242.17H128.85V249.02H135.76V242.17Z" fill="#2F384C"/>
<path d="M135.76 235.25H128.85V242.16H135.76V235.25Z" fill="black"/>
<path d="M128.849 276.52H121.939V283.43H128.849V276.52Z" fill="black"/>
<path d="M128.849 269.69H121.939V276.54H128.849V269.69Z" fill="black"/>
<path d="M128.849 249.01H121.939V255.92H128.849V249.01Z" fill="black"/>
<path d="M128.849 242.17H121.939V249.02H128.849V242.17Z" fill="#2D3D54"/>
<path d="M128.849 235.25H121.939V242.16H128.849V235.25Z" fill="black"/>
<path d="M128.849 214.59H121.939V221.5H128.849V214.59Z" fill="black"/>
<path d="M128.849 207.75H121.939V214.6H128.849V207.75Z" fill="black"/>
<path d="M121.95 283.43H115.1V290.34H121.95V283.43Z" fill="black"/>
<path d="M121.95 276.52H115.1V283.43H121.95V276.52Z" fill="#4A5A7F"/>
<path d="M121.95 269.69H115.1V276.54H121.95V269.69Z" fill="#4A5A7F"/>
<path d="M121.95 262.77H115.1V269.68H121.95V262.77Z" fill="black"/>
<path d="M121.95 255.93H115.1V262.78H121.95V255.93Z" fill="black"/>
<path d="M121.95 249.01H115.1V255.92H121.95V249.01Z" fill="#1C2C3F"/>
<path d="M121.95 242.17H115.1V249.02H121.95V242.17Z" fill="#1C2C3F"/>
<path d="M121.95 235.25H115.1V242.16H121.95V235.25Z" fill="#1C2C3F"/>
<path d="M121.95 228.35H115.1V235.26H121.95V228.35Z" fill="black"/>
<path d="M121.95 221.51H115.1V228.36H121.95V221.51Z" fill="black"/>
<path d="M121.95 214.59H115.1V221.5H121.95V214.59Z" fill="#54679B"/>
<path d="M121.95 207.75H115.1V214.6H121.95V207.75Z" fill="#4A5A7F"/>
<path d="M121.95 200.83H115.1V207.74H121.95V200.83Z" fill="black"/>
<path d="M115.099 290.35H108.189V297.2H115.099V290.35Z" fill="black"/>
<path d="M115.099 283.43H108.189V290.34H115.099V283.43Z" fill="#54679B"/>
<path d="M115.099 276.52H108.189V283.43H115.099V276.52Z" fill="#54679B"/>
<path d="M115.099 269.69H108.189V276.54H115.099V269.69Z" fill="#4A5A7F"/>
<path d="M115.099 262.77H108.189V269.68H115.099V262.77Z" fill="#4A5A7F"/>
<path d="M115.099 255.93H108.189V262.78H115.099V255.93Z" fill="black"/>
<path d="M115.099 249.01H108.189V255.92H115.099V249.01Z" fill="#2D3D54"/>
<path d="M115.099 242.17H108.189V249.02H115.099V242.17Z" fill="#1C2C3F"/>
<path d="M115.099 235.25H108.189V242.16H115.099V235.25Z" fill="#1C2C3F"/>
<path d="M115.099 228.35H108.189V235.26H115.099V228.35Z" fill="black"/>
<path d="M115.099 221.51H108.189V228.36H115.099V221.51Z" fill="#54679B"/>
<path d="M115.099 214.59H108.189V221.5H115.099V214.59Z" fill="#54679B"/>
<path d="M115.099 207.75H108.189V214.6H115.099V207.75Z" fill="#4A5A7F"/>
<path d="M115.099 200.83H108.189V207.74H115.099V200.83Z" fill="#4A5A7F"/>
<path d="M115.099 194H108.189V200.85H115.099V194Z" fill="black"/>
<path d="M108.2 290.35H101.35V297.2H108.2V290.35Z" fill="black"/>
<path d="M108.2 283.43H101.35V290.34H108.2V283.43Z" fill="#54679B"/>
<path d="M108.2 276.52H101.35V283.43H108.2V276.52Z" fill="#54679B"/>
<path d="M108.2 269.69H101.35V276.54H108.2V269.69Z" fill="#54679B"/>
<path d="M108.2 262.77H101.35V269.68H108.2V262.77Z" fill="#4A5A7F"/>
<path d="M108.2 255.93H101.35V262.78H108.2V255.93Z" fill="black"/>
<path d="M108.2 249.01H101.35V255.92H108.2V249.01Z" fill="#2D3D54"/>
<path d="M108.2 242.17H101.35V249.02H108.2V242.17Z" fill="#2D3D54"/>
<path d="M108.2 235.25H101.35V242.16H108.2V235.25Z" fill="#1C2C3F"/>
<path d="M108.2 228.35H101.35V235.26H108.2V228.35Z" fill="black"/>
<path d="M108.2 221.51H101.35V228.36H108.2V221.51Z" fill="#54679B"/>
<path d="M108.2 214.59H101.35V221.5H108.2V214.59Z" fill="#54679B"/>
<path d="M108.2 207.75H101.35V214.6H108.2V207.75Z" fill="#54679B"/>
<path d="M108.2 200.83H101.35V207.74H108.2V200.83Z" fill="#4A5A7F"/>
<path d="M108.2 194H101.35V200.85H108.2V194Z" fill="black"/>
<path d="M101.34 290.35H94.4297V297.2H101.34V290.35Z" fill="black"/>
<path d="M101.34 283.43H94.4297V290.34H101.34V283.43Z" fill="#4A5A7F"/>
<path d="M101.34 276.52H94.4297V283.43H101.34V276.52Z" fill="#54679B"/>
<path d="M101.34 269.69H94.4297V276.54H101.34V269.69Z" fill="black"/>
<path d="M101.34 262.77H94.4297V269.68H101.34V262.77Z" fill="black"/>
<path d="M101.34 255.93H94.4297V262.78H101.34V255.93Z" fill="black"/>
<path d="M101.34 249.01H94.4297V255.92H101.34V249.01Z" fill="#2D3D54"/>
<path d="M101.34 242.17H94.4297V249.02H101.34V242.17Z" fill="#2D3D54"/>
<path d="M101.34 235.25H94.4297V242.16H101.34V235.25Z" fill="#1C2C3F"/>
<path d="M101.34 228.35H94.4297V235.26H101.34V228.35Z" fill="black"/>
<path d="M101.34 221.51H94.4297V228.36H101.34V221.51Z" fill="black"/>
<path d="M101.34 214.59H94.4297V221.5H101.34V214.59Z" fill="black"/>
<path d="M101.34 207.75H94.4297V214.6H101.34V207.75Z" fill="#54679B"/>
<path d="M101.34 200.83H94.4297V207.74H101.34V200.83Z" fill="#4A5A7F"/>
<path d="M101.34 194H94.4297V200.85H101.34V194Z" fill="black"/>
<path d="M94.4398 290.35H87.5898V297.2H94.4398V290.35Z" fill="black"/>
<path d="M94.4398 283.43H87.5898V290.34H94.4398V283.43Z" fill="#4A5A7F"/>
<path d="M94.4398 276.52H87.5898V283.43H94.4398V276.52Z" fill="black"/>
<path d="M94.4398 249.01H87.5898V255.92H94.4398V249.01Z" fill="black"/>
<path d="M94.4398 242.17H87.5898V249.02H94.4398V242.17Z" fill="#1C2C3F"/>
<path d="M94.4398 235.25H87.5898V242.16H94.4398V235.25Z" fill="black"/>
<path d="M94.4398 207.75H87.5898V214.6H94.4398V207.75Z" fill="black"/>
<path d="M94.4398 200.83H87.5898V207.74H94.4398V200.83Z" fill="#4A5A7F"/>
<path d="M94.4398 194H87.5898V200.85H94.4398V194Z" fill="black"/>
<path d="M87.5897 290.35H80.6797V297.2H87.5897V290.35Z" fill="black"/>
<path d="M87.5897 283.43H80.6797V290.34H87.5897V283.43Z" fill="black"/>
<path d="M87.5897 255.93H80.6797V262.78H87.5897V255.93Z" fill="black"/>
<path d="M87.5897 249.01H80.6797V255.92H87.5897V249.01Z" fill="#2D3D54"/>
<path d="M87.5897 242.17H80.6797V249.02H87.5897V242.17Z" fill="#2D3D54"/>
<path d="M87.5897 235.25H80.6797V242.16H87.5897V235.25Z" fill="#1C2C3F"/>
<path d="M87.5897 228.35H80.6797V235.26H87.5897V228.35Z" fill="black"/>
<path d="M87.5897 200.83H80.6797V207.74H87.5897V200.83Z" fill="black"/>
<path d="M87.5897 194H80.6797V200.85H87.5897V194Z" fill="black"/>
<path d="M80.6898 249.01H73.8398V255.92H80.6898V249.01Z" fill="black"/>
<path d="M80.6898 242.17H73.8398V249.02H80.6898V242.17Z" fill="#2D3D54"/>
<path d="M80.6898 235.25H73.8398V242.16H80.6898V235.25Z" fill="black"/>
<path d="M73.8397 242.17H66.9297V249.02H73.8397V242.17Z" fill="black"/>
</svg>
