<svg width="400" height="400" viewBox="0 0 400 400" fill="none" xmlns="http://www.w3.org/2000/svg">
<path d="M200.001 385.78C302.604 385.78 385.781 302.603 385.781 200C385.781 97.3965 302.604 14.22 200.001 14.22C97.3972 14.22 14.2207 97.3965 14.2207 200C14.2207 302.603 97.3972 385.78 200.001 385.78Z" fill="black"/>
<path d="M200.001 392.78C93.7007 392.78 7.2207 306.3 7.2207 200C7.2207 93.7 93.7007 7.21997 200.001 7.21997C306.301 7.21997 392.781 93.7 392.781 200C392.781 306.3 306.301 392.78 200.001 392.78ZM200.001 21.22C101.421 21.22 21.2207 101.42 21.2207 200C21.2207 298.58 101.421 378.78 200.001 378.78C298.581 378.78 378.781 298.58 378.781 200C378.781 101.42 298.581 21.22 200.001 21.22Z" fill="#D35353"/>
<path d="M316.022 252.52H309.432V259.05H316.022V252.52Z" fill="black"/>
<path d="M316.022 245.93H309.432V252.52H316.022V245.93Z" fill="black"/>
<path d="M316.022 239.4H309.432V245.93H316.022V239.4Z" fill="black"/>
<path d="M309.43 252.52H302.9V259.05H309.43V252.52Z" fill="black"/>
<path d="M309.43 245.93H302.9V252.52H309.43V245.93Z" fill="#BC9311"/>
<path d="M309.43 239.4H302.9V245.93H309.43V239.4Z" fill="#BC9311"/>
<path d="M309.43 232.81H302.9V239.4H309.43V232.81Z" fill="black"/>
<path d="M302.891 252.52H296.301V259.05H302.891V252.52Z" fill="black"/>
<path d="M302.891 245.93H296.301V252.52H302.891V245.93Z" fill="#BC9311"/>
<path d="M302.891 239.4H296.301V245.93H302.891V239.4Z" fill="#FFCE17"/>
<path d="M302.891 232.81H296.301V239.4H302.891V232.81Z" fill="#BC9311"/>
<path d="M302.891 226.22H296.301V232.81H302.891V226.22Z" fill="black"/>
<path d="M296.301 252.52H289.771V259.05H296.301V252.52Z" fill="black"/>
<path d="M296.301 245.93H289.771V252.52H296.301V245.93Z" fill="#FFCE17"/>
<path d="M296.301 239.4H289.771V245.93H296.301V239.4Z" fill="#D8B8B8"/>
<path d="M296.301 232.81H289.771V239.4H296.301V232.81Z" fill="#D8B8B8"/>
<path d="M296.301 226.22H289.771V232.81H296.301V226.22Z" fill="#BA9595"/>
<path d="M296.301 219.69H289.771V226.22H296.301V219.69Z" fill="black"/>
<path d="M296.301 213.09H289.771V219.68H296.301V213.09Z" fill="black"/>
<path d="M289.772 285.36H283.182V291.89H289.772V285.36Z" fill="black"/>
<path d="M289.772 278.77H283.182V285.36H289.772V278.77Z" fill="black"/>
<path d="M289.772 272.18H283.182V278.77H289.772V272.18Z" fill="black"/>
<path d="M289.772 265.64H283.182V272.17H289.772V265.64Z" fill="black"/>
<path d="M289.772 259.06H283.182V265.65H289.772V259.06Z" fill="black"/>
<path d="M289.772 252.52H283.182V259.05H289.772V252.52Z" fill="black"/>
<path d="M289.772 245.93H283.182V252.52H289.772V245.93Z" fill="#FFCE17"/>
<path d="M289.772 239.4H283.182V245.93H289.772V239.4Z" fill="#D8B8B8"/>
<path d="M289.772 232.81H283.182V239.4H289.772V232.81Z" fill="#D8B8B8"/>
<path d="M289.772 226.22H283.182V232.81H289.772V226.22Z" fill="#D8B8B8"/>
<path d="M289.772 219.69H283.182V226.22H289.772V219.69Z" fill="#D8B8B8"/>
<path d="M289.772 213.09H283.182V219.68H289.772V213.09Z" fill="#D8B8B8"/>
<path d="M289.772 206.56H283.182V213.09H289.772V206.56Z" fill="black"/>
<path d="M289.772 199.97H283.182V206.56H289.772V199.97Z" fill="black"/>
<path d="M283.182 285.36H276.592V291.89H283.182V285.36Z" fill="black"/>
<path d="M283.182 278.77H276.592V285.36H283.182V278.77Z" fill="#BC9311"/>
<path d="M283.182 272.18H276.592V278.77H283.182V272.18Z" fill="#BC9311"/>
<path d="M283.182 265.64H276.592V272.17H283.182V265.64Z" fill="#BC9311"/>
<path d="M283.182 259.06H276.592V265.65H283.182V259.06Z" fill="#FFCE17"/>
<path d="M283.182 252.52H276.592V259.05H283.182V252.52Z" fill="#FFCE17"/>
<path d="M283.182 245.93H276.592V252.52H283.182V245.93Z" fill="#D8B8B8"/>
<path d="M283.182 239.4H276.592V245.93H283.182V239.4Z" fill="#D8B8B8"/>
<path d="M283.182 232.81H276.592V239.4H283.182V232.81Z" fill="#D8B8B8"/>
<path d="M283.182 226.22H276.592V232.81H283.182V226.22Z" fill="#D8B8B8"/>
<path d="M283.182 219.69H276.592V226.22H283.182V219.69Z" fill="#D8B8B8"/>
<path d="M283.182 213.09H276.592V219.68H283.182V213.09Z" fill="#D8B8B8"/>
<path d="M283.182 206.56H276.592V213.09H283.182V206.56Z" fill="#D8B8B8"/>
<path d="M283.182 199.97H276.592V206.56H283.182V199.97Z" fill="#D8B8B8"/>
<path d="M283.182 193.44H276.592V199.97H283.182V193.44Z" fill="black"/>
<path d="M283.182 186.85H276.592V193.44H283.182V186.85Z" fill="black"/>
<path d="M283.182 167.13H276.592V173.72H283.182V167.13Z" fill="black"/>
<path d="M283.182 160.6H276.592V167.13H283.182V160.6Z" fill="black"/>
<path d="M283.182 154.01H276.592V160.6H283.182V154.01Z" fill="black"/>
<path d="M276.581 291.89H270.051V298.48H276.581V291.89Z" fill="black"/>
<path d="M276.581 285.36H270.051V291.89H276.581V285.36Z" fill="#A05252"/>
<path d="M276.581 278.77H270.051V285.36H276.581V278.77Z" fill="black"/>
<path d="M276.581 272.18H270.051V278.77H276.581V272.18Z" fill="#BC9311"/>
<path d="M276.581 265.64H270.051V272.17H276.581V265.64Z" fill="#FFCE17"/>
<path d="M276.581 259.06H270.051V265.65H276.581V259.06Z" fill="#D8B8B8"/>
<path d="M276.581 252.52H270.051V259.05H276.581V252.52Z" fill="#D8B8B8"/>
<path d="M276.581 245.93H270.051V252.52H276.581V245.93Z" fill="#D8B8B8"/>
<path d="M276.581 239.4H270.051V245.93H276.581V239.4Z" fill="#D8B8B8"/>
<path d="M276.581 232.81H270.051V239.4H276.581V232.81Z" fill="#D8B8B8"/>
<path d="M276.581 226.22H270.051V232.81H276.581V226.22Z" fill="#D8B8B8"/>
<path d="M276.581 219.69H270.051V226.22H276.581V219.69Z" fill="#D8B8B8"/>
<path d="M276.581 213.09H270.051V219.68H276.581V213.09Z" fill="#D8B8B8"/>
<path d="M276.581 206.56H270.051V213.09H276.581V206.56Z" fill="#D8B8B8"/>
<path d="M276.581 199.97H270.051V206.56H276.581V199.97Z" fill="#D8B8B8"/>
<path d="M276.581 193.44H270.051V199.97H276.581V193.44Z" fill="#D8B8B8"/>
<path d="M276.581 186.85H270.051V193.44H276.581V186.85Z" fill="#D8B8B8"/>
<path d="M276.581 180.32H270.051V186.85H276.581V180.32Z" fill="black"/>
<path d="M276.581 173.72H270.051V180.31H276.581V173.72Z" fill="black"/>
<path d="M276.581 167.13H270.051V173.72H276.581V167.13Z" fill="black"/>
<path d="M276.581 160.6H270.051V167.13H276.581V160.6Z" fill="#844141"/>
<path d="M276.581 154.01H270.051V160.6H276.581V154.01Z" fill="#A05252"/>
<path d="M276.581 147.48H270.051V154.01H276.581V147.48Z" fill="black"/>
<path d="M276.581 140.89H270.051V147.48H276.581V140.89Z" fill="black"/>
<path d="M270.061 291.89H263.471V298.48H270.061V291.89Z" fill="black"/>
<path d="M270.061 285.36H263.471V291.89H270.061V285.36Z" fill="#A05252"/>
<path d="M270.061 278.77H263.471V285.36H270.061V278.77Z" fill="#A05252"/>
<path d="M270.061 272.18H263.471V278.77H270.061V272.18Z" fill="black"/>
<path d="M270.061 265.64H263.471V272.17H270.061V265.64Z" fill="#FFCE17"/>
<path d="M270.061 259.06H263.471V265.65H270.061V259.06Z" fill="#D8B8B8"/>
<path d="M270.061 252.52H263.471V259.05H270.061V252.52Z" fill="#D8B8B8"/>
<path d="M270.061 245.93H263.471V252.52H270.061V245.93Z" fill="#D8B8B8"/>
<path d="M270.061 239.4H263.471V245.93H270.061V239.4Z" fill="#D8B8B8"/>
<path d="M270.061 232.81H263.471V239.4H270.061V232.81Z" fill="#D8B8B8"/>
<path d="M270.061 226.22H263.471V232.81H270.061V226.22Z" fill="#D8B8B8"/>
<path d="M270.061 219.69H263.471V226.22H270.061V219.69Z" fill="#D8B8B8"/>
<path d="M270.061 213.09H263.471V219.68H270.061V213.09Z" fill="#D8B8B8"/>
<path d="M270.061 206.56H263.471V213.09H270.061V206.56Z" fill="#D8B8B8"/>
<path d="M270.061 199.97H263.471V206.56H270.061V199.97Z" fill="#D8B8B8"/>
<path d="M270.061 193.44H263.471V199.97H270.061V193.44Z" fill="#D8B8B8"/>
<path d="M270.061 186.85H263.471V193.44H270.061V186.85Z" fill="#D8B8B8"/>
<path d="M270.061 180.32H263.471V186.85H270.061V180.32Z" fill="#D8B8B8"/>
<path d="M270.061 173.72H263.471V180.31H270.061V173.72Z" fill="#BA9595"/>
<path d="M270.061 167.13H263.471V173.72H270.061V167.13Z" fill="#844141"/>
<path d="M270.061 160.6H263.471V167.13H270.061V160.6Z" fill="#844141"/>
<path d="M270.061 154.01H263.471V160.6H270.061V154.01Z" fill="#A05252"/>
<path d="M270.061 147.48H263.471V154.01H270.061V147.48Z" fill="#A05252"/>
<path d="M270.061 140.89H263.471V147.48H270.061V140.89Z" fill="#A05252"/>
<path d="M270.061 134.36H263.471V140.89H270.061V134.36Z" fill="black"/>
<path d="M263.471 298.48H256.941V305.01H263.471V298.48Z" fill="black"/>
<path d="M263.471 291.89H256.941V298.48H263.471V291.89Z" fill="#A05252"/>
<path d="M263.471 285.36H256.941V291.89H263.471V285.36Z" fill="#A05252"/>
<path d="M263.471 278.77H256.941V285.36H263.471V278.77Z" fill="#A05252"/>
<path d="M263.471 272.18H256.941V278.77H263.471V272.18Z" fill="#A05252"/>
<path d="M263.471 265.64H256.941V272.17H263.471V265.64Z" fill="black"/>
<path d="M263.471 259.06H256.941V265.65H263.471V259.06Z" fill="black"/>
<path d="M263.471 252.52H256.941V259.05H263.471V252.52Z" fill="#D8B8B8"/>
<path d="M263.471 245.93H256.941V252.52H263.471V245.93Z" fill="#D8B8B8"/>
<path d="M263.471 239.4H256.941V245.93H263.471V239.4Z" fill="#D8B8B8"/>
<path d="M263.471 232.81H256.941V239.4H263.471V232.81Z" fill="#D8B8B8"/>
<path d="M263.471 226.22H256.941V232.81H263.471V226.22Z" fill="#D8B8B8"/>
<path d="M263.471 219.69H256.941V226.22H263.471V219.69Z" fill="#D8B8B8"/>
<path d="M263.471 213.09H256.941V219.68H263.471V213.09Z" fill="#D8B8B8"/>
<path d="M263.471 206.56H256.941V213.09H263.471V206.56Z" fill="#D8B8B8"/>
<path d="M263.471 199.97H256.941V206.56H263.471V199.97Z" fill="#D8B8B8"/>
<path d="M263.471 193.44H256.941V199.97H263.471V193.44Z" fill="#D8B8B8"/>
<path d="M263.471 186.85H256.941V193.44H263.471V186.85Z" fill="#D8B8B8"/>
<path d="M263.471 180.32H256.941V186.85H263.471V180.32Z" fill="#BA9595"/>
<path d="M263.471 173.72H256.941V180.31H263.471V173.72Z" fill="#BA9595"/>
<path d="M263.471 167.13H256.941V173.72H263.471V167.13Z" fill="#844141"/>
<path d="M263.471 160.6H256.941V167.13H263.471V160.6Z" fill="#A05252"/>
<path d="M263.471 154.01H256.941V160.6H263.471V154.01Z" fill="#A05252"/>
<path d="M263.471 147.48H256.941V154.01H263.471V147.48Z" fill="#A05252"/>
<path d="M263.471 140.89H256.941V147.48H263.471V140.89Z" fill="#A05252"/>
<path d="M263.471 134.36H256.941V140.89H263.471V134.36Z" fill="#BA9595"/>
<path d="M263.471 127.76H256.941V134.35H263.471V127.76Z" fill="black"/>
<path d="M256.932 318.14H250.342V324.73H256.932V318.14Z" fill="black"/>
<path d="M256.932 311.6H250.342V318.13H256.932V311.6Z" fill="black"/>
<path d="M256.932 298.48H250.342V305.01H256.932V298.48Z" fill="black"/>
<path d="M256.932 291.89H250.342V298.48H256.932V291.89Z" fill="#A05252"/>
<path d="M256.932 285.36H250.342V291.89H256.932V285.36Z" fill="#A05252"/>
<path d="M256.932 278.77H250.342V285.36H256.932V278.77Z" fill="black"/>
<path d="M256.932 272.18H250.342V278.77H256.932V272.18Z" fill="black"/>
<path d="M256.932 265.64H250.342V272.17H256.932V265.64Z" fill="#FFCE17"/>
<path d="M256.932 259.06H250.342V265.65H256.932V259.06Z" fill="#FFCE17"/>
<path d="M256.932 252.52H250.342V259.05H256.932V252.52Z" fill="#D8B8B8"/>
<path d="M256.932 245.93H250.342V252.52H256.932V245.93Z" fill="#D8B8B8"/>
<path d="M256.932 239.4H250.342V245.93H256.932V239.4Z" fill="#D8B8B8"/>
<path d="M256.932 232.81H250.342V239.4H256.932V232.81Z" fill="#D8B8B8"/>
<path d="M256.932 226.22H250.342V232.81H256.932V226.22Z" fill="#D8B8B8"/>
<path d="M256.932 219.69H250.342V226.22H256.932V219.69Z" fill="#D8B8B8"/>
<path d="M256.932 213.09H250.342V219.68H256.932V213.09Z" fill="#D8B8B8"/>
<path d="M256.932 206.56H250.342V213.09H256.932V206.56Z" fill="#D8B8B8"/>
<path d="M256.932 199.97H250.342V206.56H256.932V199.97Z" fill="#D8B8B8"/>
<path d="M256.932 193.44H250.342V199.97H256.932V193.44Z" fill="#D8B8B8"/>
<path d="M256.932 186.85H250.342V193.44H256.932V186.85Z" fill="#D8B8B8"/>
<path d="M256.932 180.32H250.342V186.85H256.932V180.32Z" fill="#BA9595"/>
<path d="M256.932 173.72H250.342V180.31H256.932V173.72Z" fill="#844141"/>
<path d="M256.932 167.13H250.342V173.72H256.932V167.13Z" fill="#844141"/>
<path d="M256.932 160.6H250.342V167.13H256.932V160.6Z" fill="#A05252"/>
<path d="M256.932 154.01H250.342V160.6H256.932V154.01Z" fill="#A05252"/>
<path d="M256.932 147.48H250.342V154.01H256.932V147.48Z" fill="#A05252"/>
<path d="M256.932 140.89H250.342V147.48H256.932V140.89Z" fill="#BA9595"/>
<path d="M256.932 134.36H250.342V140.89H256.932V134.36Z" fill="#BA9595"/>
<path d="M256.932 127.76H250.342V134.35H256.932V127.76Z" fill="black"/>
<path d="M250.341 318.14H243.811V324.73H250.341V318.14Z" fill="black"/>
<path d="M250.341 311.6H243.811V318.13H250.341V311.6Z" fill="#7F4E4E"/>
<path d="M250.341 305.02H243.811V311.61H250.341V305.02Z" fill="black"/>
<path d="M250.341 298.48H243.811V305.01H250.341V298.48Z" fill="black"/>
<path d="M250.341 291.89H243.811V298.48H250.341V291.89Z" fill="#A05252"/>
<path d="M250.341 285.36H243.811V291.89H250.341V285.36Z" fill="black"/>
<path d="M250.341 278.77H243.811V285.36H250.341V278.77Z" fill="#BC9311"/>
<path d="M250.341 272.18H243.811V278.77H250.341V272.18Z" fill="#BC9311"/>
<path d="M250.341 265.64H243.811V272.17H250.341V265.64Z" fill="#FFCE17"/>
<path d="M250.341 259.06H243.811V265.65H250.341V259.06Z" fill="#D8B8B8"/>
<path d="M250.341 252.52H243.811V259.05H250.341V252.52Z" fill="#D8B8B8"/>
<path d="M250.341 245.93H243.811V252.52H250.341V245.93Z" fill="#D8B8B8"/>
<path d="M250.341 239.4H243.811V245.93H250.341V239.4Z" fill="#D8B8B8"/>
<path d="M250.341 232.81H243.811V239.4H250.341V232.81Z" fill="#D8B8B8"/>
<path d="M250.341 226.22H243.811V232.81H250.341V226.22Z" fill="#D8B8B8"/>
<path d="M250.341 219.69H243.811V226.22H250.341V219.69Z" fill="#D8B8B8"/>
<path d="M250.341 213.09H243.811V219.68H250.341V213.09Z" fill="#D8B8B8"/>
<path d="M250.341 206.56H243.811V213.09H250.341V206.56Z" fill="#D8B8B8"/>
<path d="M250.341 199.97H243.811V206.56H250.341V199.97Z" fill="#D8B8B8"/>
<path d="M250.341 193.44H243.811V199.97H250.341V193.44Z" fill="#D8B8B8"/>
<path d="M250.341 186.85H243.811V193.44H250.341V186.85Z" fill="#D8B8B8"/>
<path d="M250.341 180.32H243.811V186.85H250.341V180.32Z" fill="#BA9595"/>
<path d="M250.341 173.72H243.811V180.31H250.341V173.72Z" fill="#844141"/>
<path d="M250.341 167.13H243.811V173.72H250.341V167.13Z" fill="#A05252"/>
<path d="M250.341 160.6H243.811V167.13H250.341V160.6Z" fill="#A05252"/>
<path d="M250.341 154.01H243.811V160.6H250.341V154.01Z" fill="#A05252"/>
<path d="M250.341 147.48H243.811V154.01H250.341V147.48Z" fill="#A05252"/>
<path d="M250.341 140.89H243.811V147.48H250.341V140.89Z" fill="#D8B8B8"/>
<path d="M250.341 134.36H243.811V140.89H250.341V134.36Z" fill="#BA9595"/>
<path d="M250.341 127.76H243.811V134.35H250.341V127.76Z" fill="#BA9595"/>
<path d="M250.341 121.17H243.811V127.76H250.341V121.17Z" fill="black"/>
<path d="M243.811 318.14H237.221V324.73H243.811V318.14Z" fill="black"/>
<path d="M243.811 311.6H237.221V318.13H243.811V311.6Z" fill="#7F4E4E"/>
<path d="M243.811 305.02H237.221V311.61H243.811V305.02Z" fill="#7F4E4E"/>
<path d="M243.811 298.48H237.221V305.01H243.811V298.48Z" fill="black"/>
<path d="M243.811 291.89H237.221V298.48H243.811V291.89Z" fill="#A05252"/>
<path d="M243.811 285.36H237.221V291.89H243.811V285.36Z" fill="black"/>
<path d="M243.811 278.77H237.221V285.36H243.811V278.77Z" fill="black"/>
<path d="M243.811 272.18H237.221V278.77H243.811V272.18Z" fill="black"/>
<path d="M243.811 265.64H237.221V272.17H243.811V265.64Z" fill="black"/>
<path d="M243.811 259.06H237.221V265.65H243.811V259.06Z" fill="black"/>
<path d="M243.811 252.52H237.221V259.05H243.811V252.52Z" fill="#FFCE17"/>
<path d="M243.811 245.93H237.221V252.52H243.811V245.93Z" fill="#BA9595"/>
<path d="M243.811 239.4H237.221V245.93H243.811V239.4Z" fill="#BA9595"/>
<path d="M243.811 232.81H237.221V239.4H243.811V232.81Z" fill="#BA9595"/>
<path d="M243.811 226.22H237.221V232.81H243.811V226.22Z" fill="#BA9595"/>
<path d="M243.811 219.69H237.221V226.22H243.811V219.69Z" fill="#BA9595"/>
<path d="M243.811 213.09H237.221V219.68H243.811V213.09Z" fill="#BA9595"/>
<path d="M243.811 206.56H237.221V213.09H243.811V206.56Z" fill="#D8B8B8"/>
<path d="M243.811 199.97H237.221V206.56H243.811V199.97Z" fill="#D8B8B8"/>
<path d="M243.811 193.44H237.221V199.97H243.811V193.44Z" fill="#D8B8B8"/>
<path d="M243.811 186.85H237.221V193.44H243.811V186.85Z" fill="#BA9595"/>
<path d="M243.811 180.32H237.221V186.85H243.811V180.32Z" fill="#BA9595"/>
<path d="M243.811 173.72H237.221V180.31H243.811V173.72Z" fill="#844141"/>
<path d="M243.811 167.13H237.221V173.72H243.811V167.13Z" fill="#A05252"/>
<path d="M243.811 160.6H237.221V167.13H243.811V160.6Z" fill="#A05252"/>
<path d="M243.811 154.01H237.221V160.6H243.811V154.01Z" fill="#A05252"/>
<path d="M243.811 147.48H237.221V154.01H243.811V147.48Z" fill="#A05252"/>
<path d="M243.811 140.89H237.221V147.48H243.811V140.89Z" fill="#D8B8B8"/>
<path d="M243.811 134.36H237.221V140.89H243.811V134.36Z" fill="#D8B8B8"/>
<path d="M243.811 127.76H237.221V134.35H243.811V127.76Z" fill="#BA9595"/>
<path d="M243.811 121.17H237.221V127.76H243.811V121.17Z" fill="black"/>
<path d="M243.811 114.64H237.221V121.17H243.811V114.64Z" fill="black"/>
<path d="M243.811 108.05H237.221V114.64H243.811V108.05Z" fill="black"/>
<path d="M237.221 318.14H230.631V324.73H237.221V318.14Z" fill="black"/>
<path d="M237.221 311.6H230.631V318.13H237.221V311.6Z" fill="#7F4E4E"/>
<path d="M237.221 305.02H230.631V311.61H237.221V305.02Z" fill="black"/>
<path d="M237.221 298.48H230.631V305.01H237.221V298.48Z" fill="#A05252"/>
<path d="M237.221 291.89H230.631V298.48H237.221V291.89Z" fill="#A05252"/>
<path d="M237.221 285.36H230.631V291.89H237.221V285.36Z" fill="#A05252"/>
<path d="M237.221 278.77H230.631V285.36H237.221V278.77Z" fill="#A05252"/>
<path d="M237.221 272.18H230.631V278.77H237.221V272.18Z" fill="black"/>
<path d="M237.221 265.64H230.631V272.17H237.221V265.64Z" fill="#BC9311"/>
<path d="M237.221 259.06H230.631V265.65H237.221V259.06Z" fill="#BC9311"/>
<path d="M237.221 252.52H230.631V259.05H237.221V252.52Z" fill="#FFCE17"/>
<path d="M237.221 245.93H230.631V252.52H237.221V245.93Z" fill="#FFCE17"/>
<path d="M237.221 239.4H230.631V245.93H237.221V239.4Z" fill="#BA9595"/>
<path d="M237.221 232.81H230.631V239.4H237.221V232.81Z" fill="#BA9595"/>
<path d="M237.221 226.22H230.631V232.81H237.221V226.22Z" fill="#BA9595"/>
<path d="M237.221 219.69H230.631V226.22H237.221V219.69Z" fill="#BA9595"/>
<path d="M237.221 213.09H230.631V219.68H237.221V213.09Z" fill="#BA9595"/>
<path d="M237.221 206.56H230.631V213.09H237.221V206.56Z" fill="#BA9595"/>
<path d="M237.221 199.97H230.631V206.56H237.221V199.97Z" fill="#BA9595"/>
<path d="M237.221 193.44H230.631V199.97H237.221V193.44Z" fill="#BA9595"/>
<path d="M237.221 186.85H230.631V193.44H237.221V186.85Z" fill="#BA9595"/>
<path d="M237.221 180.32H230.631V186.85H237.221V180.32Z" fill="#844141"/>
<path d="M237.221 173.72H230.631V180.31H237.221V173.72Z" fill="#844141"/>
<path d="M237.221 167.13H230.631V173.72H237.221V167.13Z" fill="#A05252"/>
<path d="M237.221 160.6H230.631V167.13H237.221V160.6Z" fill="#A05252"/>
<path d="M237.221 154.01H230.631V160.6H237.221V154.01Z" fill="#A05252"/>
<path d="M237.221 147.48H230.631V154.01H237.221V147.48Z" fill="#D8B8B8"/>
<path d="M237.221 140.89H230.631V147.48H237.221V140.89Z" fill="#D8B8B8"/>
<path d="M237.221 134.36H230.631V140.89H237.221V134.36Z" fill="#D8B8B8"/>
<path d="M237.221 127.76H230.631V134.35H237.221V127.76Z" fill="#BA9595"/>
<path d="M237.221 121.17H230.631V127.76H237.221V121.17Z" fill="#BA9595"/>
<path d="M237.221 114.64H230.631V121.17H237.221V114.64Z" fill="#BA9595"/>
<path d="M237.221 108.05H230.631V114.64H237.221V108.05Z" fill="#BA9595"/>
<path d="M237.221 101.52H230.631V108.05H237.221V101.52Z" fill="black"/>
<path d="M237.221 94.9199H230.631V101.51H237.221V94.9199Z" fill="black"/>
<path d="M230.632 318.14H224.102V324.73H230.632V318.14Z" fill="black"/>
<path d="M230.632 311.6H224.102V318.13H230.632V311.6Z" fill="#7F4E4E"/>
<path d="M230.632 305.02H224.102V311.61H230.632V305.02Z" fill="black"/>
<path d="M230.632 298.48H224.102V305.01H230.632V298.48Z" fill="#A05252"/>
<path d="M230.632 291.89H224.102V298.48H230.632V291.89Z" fill="#A05252"/>
<path d="M230.632 285.36H224.102V291.89H230.632V285.36Z" fill="#A05252"/>
<path d="M230.632 278.77H224.102V285.36H230.632V278.77Z" fill="#A05252"/>
<path d="M230.632 272.18H224.102V278.77H230.632V272.18Z" fill="black"/>
<path d="M230.632 265.64H224.102V272.17H230.632V265.64Z" fill="black"/>
<path d="M230.632 259.06H224.102V265.65H230.632V259.06Z" fill="black"/>
<path d="M230.632 252.52H224.102V259.05H230.632V252.52Z" fill="black"/>
<path d="M230.632 245.93H224.102V252.52H230.632V245.93Z" fill="black"/>
<path d="M230.632 239.4H224.102V245.93H230.632V239.4Z" fill="black"/>
<path d="M230.632 232.81H224.102V239.4H230.632V232.81Z" fill="black"/>
<path d="M230.632 226.22H224.102V232.81H230.632V226.22Z" fill="black"/>
<path d="M230.632 219.69H224.102V226.22H230.632V219.69Z" fill="black"/>
<path d="M230.632 213.09H224.102V219.68H230.632V213.09Z" fill="black"/>
<path d="M230.632 206.56H224.102V213.09H230.632V206.56Z" fill="#BA9595"/>
<path d="M230.632 199.97H224.102V206.56H230.632V199.97Z" fill="#BA9595"/>
<path d="M230.632 193.44H224.102V199.97H230.632V193.44Z" fill="#BA9595"/>
<path d="M230.632 186.85H224.102V193.44H230.632V186.85Z" fill="#BA9595"/>
<path d="M230.632 180.32H224.102V186.85H230.632V180.32Z" fill="#844141"/>
<path d="M230.632 173.72H224.102V180.31H230.632V173.72Z" fill="#A05252"/>
<path d="M230.632 167.13H224.102V173.72H230.632V167.13Z" fill="#A05252"/>
<path d="M230.632 160.6H224.102V167.13H230.632V160.6Z" fill="#A05252"/>
<path d="M230.632 154.01H224.102V160.6H230.632V154.01Z" fill="#A05252"/>
<path d="M230.632 147.48H224.102V154.01H230.632V147.48Z" fill="#D8B8B8"/>
<path d="M230.632 140.89H224.102V147.48H230.632V140.89Z" fill="#D8B8B8"/>
<path d="M230.632 134.36H224.102V140.89H230.632V134.36Z" fill="#D8B8B8"/>
<path d="M230.632 127.76H224.102V134.35H230.632V127.76Z" fill="#D8B8B8"/>
<path d="M230.632 121.17H224.102V127.76H230.632V121.17Z" fill="#844141"/>
<path d="M230.632 114.64H224.102V121.17H230.632V114.64Z" fill="#844141"/>
<path d="M230.632 108.05H224.102V114.64H230.632V108.05Z" fill="#844141"/>
<path d="M230.632 101.52H224.102V108.05H230.632V101.52Z" fill="#BA9595"/>
<path d="M230.632 94.9199H224.102V101.51H230.632V94.9199Z" fill="#BA9595"/>
<path d="M230.632 88.4001H224.102V94.9301H230.632V88.4001Z" fill="black"/>
<path d="M224.09 318.14H217.5V324.73H224.09V318.14Z" fill="black"/>
<path d="M224.09 311.6H217.5V318.13H224.09V311.6Z" fill="black"/>
<path d="M224.09 305.02H217.5V311.61H224.09V305.02Z" fill="black"/>
<path d="M224.09 298.48H217.5V305.01H224.09V298.48Z" fill="#A05252"/>
<path d="M224.09 291.89H217.5V298.48H224.09V291.89Z" fill="#A05252"/>
<path d="M224.09 285.36H217.5V291.89H224.09V285.36Z" fill="#A05252"/>
<path d="M224.09 278.77H217.5V285.36H224.09V278.77Z" fill="#BA9595"/>
<path d="M224.09 272.18H217.5V278.77H224.09V272.18Z" fill="#BA9595"/>
<path d="M224.09 265.64H217.5V272.17H224.09V265.64Z" fill="#BA9595"/>
<path d="M224.09 259.06H217.5V265.65H224.09V259.06Z" fill="#BA9595"/>
<path d="M224.09 252.52H217.5V259.05H224.09V252.52Z" fill="#BA9595"/>
<path d="M224.09 245.93H217.5V252.52H224.09V245.93Z" fill="#BA9595"/>
<path d="M224.09 239.4H217.5V245.93H224.09V239.4Z" fill="#BA9595"/>
<path d="M224.09 232.81H217.5V239.4H224.09V232.81Z" fill="#BA9595"/>
<path d="M224.09 226.22H217.5V232.81H224.09V226.22Z" fill="#BA9595"/>
<path d="M224.09 219.69H217.5V226.22H224.09V219.69Z" fill="#BA9595"/>
<path d="M224.09 213.09H217.5V219.68H224.09V213.09Z" fill="#BA9595"/>
<path d="M224.09 206.56H217.5V213.09H224.09V206.56Z" fill="black"/>
<path d="M224.09 199.97H217.5V206.56H224.09V199.97Z" fill="black"/>
<path d="M224.09 193.44H217.5V199.97H224.09V193.44Z" fill="black"/>
<path d="M224.09 186.85H217.5V193.44H224.09V186.85Z" fill="black"/>
<path d="M224.09 180.32H217.5V186.85H224.09V180.32Z" fill="#844141"/>
<path d="M224.09 173.72H217.5V180.31H224.09V173.72Z" fill="#A05252"/>
<path d="M224.09 167.13H217.5V173.72H224.09V167.13Z" fill="#A05252"/>
<path d="M224.09 160.6H217.5V167.13H224.09V160.6Z" fill="#A05252"/>
<path d="M224.09 154.01H217.5V160.6H224.09V154.01Z" fill="#A05252"/>
<path d="M224.09 147.48H217.5V154.01H224.09V147.48Z" fill="#D8B8B8"/>
<path d="M224.09 140.89H217.5V147.48H224.09V140.89Z" fill="#D8B8B8"/>
<path d="M224.09 134.36H217.5V140.89H224.09V134.36Z" fill="#D8B8B8"/>
<path d="M224.09 127.76H217.5V134.35H224.09V127.76Z" fill="#844141"/>
<path d="M224.09 121.17H217.5V127.76H224.09V121.17Z" fill="#A05252"/>
<path d="M224.09 114.64H217.5V121.17H224.09V114.64Z" fill="#A05252"/>
<path d="M224.09 108.05H217.5V114.64H224.09V108.05Z" fill="#A05252"/>
<path d="M224.09 101.52H217.5V108.05H224.09V101.52Z" fill="#844141"/>
<path d="M224.09 94.9199H217.5V101.51H224.09V94.9199Z" fill="#BA9595"/>
<path d="M224.09 88.4001H217.5V94.9301H224.09V88.4001Z" fill="#BA9595"/>
<path d="M224.09 81.8H217.5V88.39H224.09V81.8Z" fill="black"/>
<path d="M217.51 305.02H210.98V311.61H217.51V305.02Z" fill="black"/>
<path d="M217.51 298.48H210.98V305.01H217.51V298.48Z" fill="#A05252"/>
<path d="M217.51 291.89H210.98V298.48H217.51V291.89Z" fill="#A05252"/>
<path d="M217.51 285.36H210.98V291.89H217.51V285.36Z" fill="#A05252"/>
<path d="M217.51 278.77H210.98V285.36H217.51V278.77Z" fill="#D8B8B8"/>
<path d="M217.51 272.18H210.98V278.77H217.51V272.18Z" fill="#D8B8B8"/>
<path d="M217.51 265.64H210.98V272.17H217.51V265.64Z" fill="#D8B8B8"/>
<path d="M217.51 259.06H210.98V265.65H217.51V259.06Z" fill="#D8B8B8"/>
<path d="M217.51 252.52H210.98V259.05H217.51V252.52Z" fill="#D8B8B8"/>
<path d="M217.51 245.93H210.98V252.52H217.51V245.93Z" fill="#D8B8B8"/>
<path d="M217.51 239.4H210.98V245.93H217.51V239.4Z" fill="#D8B8B8"/>
<path d="M217.51 232.81H210.98V239.4H217.51V232.81Z" fill="#D8B8B8"/>
<path d="M217.51 226.22H210.98V232.81H217.51V226.22Z" fill="#D8B8B8"/>
<path d="M217.51 219.69H210.98V226.22H217.51V219.69Z" fill="#D8B8B8"/>
<path d="M217.51 213.09H210.98V219.68H217.51V213.09Z" fill="#D8B8B8"/>
<path d="M217.51 206.56H210.98V213.09H217.51V206.56Z" fill="#BA9595"/>
<path d="M217.51 199.97H210.98V206.56H217.51V199.97Z" fill="#BA9595"/>
<path d="M217.51 193.44H210.98V199.97H217.51V193.44Z" fill="#BA9595"/>
<path d="M217.51 186.85H210.98V193.44H217.51V186.85Z" fill="#BA9595"/>
<path d="M217.51 180.32H210.98V186.85H217.51V180.32Z" fill="#844141"/>
<path d="M217.51 173.72H210.98V180.31H217.51V173.72Z" fill="#A05252"/>
<path d="M217.51 167.13H210.98V173.72H217.51V167.13Z" fill="#A05252"/>
<path d="M217.51 160.6H210.98V167.13H217.51V160.6Z" fill="#A05252"/>
<path d="M217.51 154.01H210.98V160.6H217.51V154.01Z" fill="#D8B8B8"/>
<path d="M217.51 147.48H210.98V154.01H217.51V147.48Z" fill="#D8B8B8"/>
<path d="M217.51 140.89H210.98V147.48H217.51V140.89Z" fill="#D8B8B8"/>
<path d="M217.51 134.36H210.98V140.89H217.51V134.36Z" fill="#844141"/>
<path d="M217.51 127.76H210.98V134.35H217.51V127.76Z" fill="#A05252"/>
<path d="M217.51 121.17H210.98V127.76H217.51V121.17Z" fill="#E5B798"/>
<path d="M217.51 114.64H210.98V121.17H217.51V114.64Z" fill="#603C28"/>
<path d="M217.51 108.05H210.98V114.64H217.51V108.05Z" fill="#603C28"/>
<path d="M217.51 101.52H210.98V108.05H217.51V101.52Z" fill="#A05252"/>
<path d="M217.51 94.9199H210.98V101.51H217.51V94.9199Z" fill="#844141"/>
<path d="M217.51 88.4001H210.98V94.9301H217.51V88.4001Z" fill="#BA9595"/>
<path d="M217.51 81.8H210.98V88.39H217.51V81.8Z" fill="#BA9595"/>
<path d="M217.51 75.28H210.98V81.81H217.51V75.28Z" fill="black"/>
<path d="M210.971 305.02H204.381V311.61H210.971V305.02Z" fill="black"/>
<path d="M210.971 298.48H204.381V305.01H210.971V298.48Z" fill="#A05252"/>
<path d="M210.971 291.89H204.381V298.48H210.971V291.89Z" fill="#A05252"/>
<path d="M210.971 285.36H204.381V291.89H210.971V285.36Z" fill="#A05252"/>
<path d="M210.971 278.77H204.381V285.36H210.971V278.77Z" fill="#FFCE17"/>
<path d="M210.971 272.18H204.381V278.77H210.971V272.18Z" fill="#FFCE17"/>
<path d="M210.971 265.64H204.381V272.17H210.971V265.64Z" fill="#FFCE17"/>
<path d="M210.971 259.06H204.381V265.65H210.971V259.06Z" fill="#FFCE17"/>
<path d="M210.971 252.52H204.381V259.05H210.971V252.52Z" fill="#FFCE17"/>
<path d="M210.971 245.93H204.381V252.52H210.971V245.93Z" fill="#D8B8B8"/>
<path d="M210.971 239.4H204.381V245.93H210.971V239.4Z" fill="#D8B8B8"/>
<path d="M210.971 232.81H204.381V239.4H210.971V232.81Z" fill="#D8B8B8"/>
<path d="M210.971 226.22H204.381V232.81H210.971V226.22Z" fill="#D8B8B8"/>
<path d="M210.971 219.69H204.381V226.22H210.971V219.69Z" fill="#D8B8B8"/>
<path d="M210.971 213.09H204.381V219.68H210.971V213.09Z" fill="#D8B8B8"/>
<path d="M210.971 206.56H204.381V213.09H210.971V206.56Z" fill="#D8B8B8"/>
<path d="M210.971 199.97H204.381V206.56H210.971V199.97Z" fill="#BA9595"/>
<path d="M210.971 193.44H204.381V199.97H210.971V193.44Z" fill="#BA9595"/>
<path d="M210.971 186.85H204.381V193.44H210.971V186.85Z" fill="#BA9595"/>
<path d="M210.971 180.32H204.381V186.85H210.971V180.32Z" fill="#844141"/>
<path d="M210.971 173.72H204.381V180.31H210.971V173.72Z" fill="#A05252"/>
<path d="M210.971 167.13H204.381V173.72H210.971V167.13Z" fill="#A05252"/>
<path d="M210.971 160.6H204.381V167.13H210.971V160.6Z" fill="#A05252"/>
<path d="M210.971 154.01H204.381V160.6H210.971V154.01Z" fill="#D8B8B8"/>
<path d="M210.971 147.48H204.381V154.01H210.971V147.48Z" fill="#D8B8B8"/>
<path d="M210.971 140.89H204.381V147.48H210.971V140.89Z" fill="#D8B8B8"/>
<path d="M210.971 134.36H204.381V140.89H210.971V134.36Z" fill="#844141"/>
<path d="M210.971 127.76H204.381V134.35H210.971V127.76Z" fill="#A05252"/>
<path d="M210.971 121.17H204.381V127.76H210.971V121.17Z" fill="#E5B798"/>
<path d="M210.971 114.64H204.381V121.17H210.971V114.64Z" fill="#B28364"/>
<path d="M210.971 108.05H204.381V114.64H210.971V108.05Z" fill="#603C28"/>
<path d="M210.971 101.52H204.381V108.05H210.971V101.52Z" fill="#A05252"/>
<path d="M210.971 94.9199H204.381V101.51H210.971V94.9199Z" fill="#A05252"/>
<path d="M210.971 88.4001H204.381V94.9301H210.971V88.4001Z" fill="#844141"/>
<path d="M210.971 81.8H204.381V88.39H210.971V81.8Z" fill="#BA9595"/>
<path d="M210.971 75.28H204.381V81.81H210.971V75.28Z" fill="black"/>
<path d="M204.382 305.02H197.852V311.61H204.382V305.02Z" fill="black"/>
<path d="M204.382 298.48H197.852V305.01H204.382V298.48Z" fill="black"/>
<path d="M204.382 291.89H197.852V298.48H204.382V291.89Z" fill="black"/>
<path d="M204.382 285.36H197.852V291.89H204.382V285.36Z" fill="black"/>
<path d="M204.382 278.77H197.852V285.36H204.382V278.77Z" fill="black"/>
<path d="M204.382 272.18H197.852V278.77H204.382V272.18Z" fill="black"/>
<path d="M204.382 265.64H197.852V272.17H204.382V265.64Z" fill="black"/>
<path d="M204.382 259.06H197.852V265.65H204.382V259.06Z" fill="black"/>
<path d="M204.382 252.52H197.852V259.05H204.382V252.52Z" fill="black"/>
<path d="M204.382 245.93H197.852V252.52H204.382V245.93Z" fill="#FFCE17"/>
<path d="M204.382 239.4H197.852V245.93H204.382V239.4Z" fill="#FFCE17"/>
<path d="M204.382 232.81H197.852V239.4H204.382V232.81Z" fill="#FFCE17"/>
<path d="M204.382 226.22H197.852V232.81H204.382V226.22Z" fill="#FFCE17"/>
<path d="M204.382 219.69H197.852V226.22H204.382V219.69Z" fill="#FFCE17"/>
<path d="M204.382 213.09H197.852V219.68H204.382V213.09Z" fill="#FFCE17"/>
<path d="M204.382 206.56H197.852V213.09H204.382V206.56Z" fill="#FFCE17"/>
<path d="M204.382 199.97H197.852V206.56H204.382V199.97Z" fill="#BC9311"/>
<path d="M204.382 193.44H197.852V199.97H204.382V193.44Z" fill="#BC9311"/>
<path d="M204.382 186.85H197.852V193.44H204.382V186.85Z" fill="#BC9311"/>
<path d="M204.382 180.32H197.852V186.85H204.382V180.32Z" fill="#844141"/>
<path d="M204.382 173.72H197.852V180.31H204.382V173.72Z" fill="#A05252"/>
<path d="M204.382 167.13H197.852V173.72H204.382V167.13Z" fill="#A05252"/>
<path d="M204.382 160.6H197.852V167.13H204.382V160.6Z" fill="#A05252"/>
<path d="M204.382 154.01H197.852V160.6H204.382V154.01Z" fill="#D8B8B8"/>
<path d="M204.382 147.48H197.852V154.01H204.382V147.48Z" fill="#D8B8B8"/>
<path d="M204.382 140.89H197.852V147.48H204.382V140.89Z" fill="#D8B8B8"/>
<path d="M204.382 134.36H197.852V140.89H204.382V134.36Z" fill="#844141"/>
<path d="M204.382 127.76H197.852V134.35H204.382V127.76Z" fill="#A05252"/>
<path d="M204.382 121.17H197.852V127.76H204.382V121.17Z" fill="#E5B798"/>
<path d="M204.382 114.64H197.852V121.17H204.382V114.64Z" fill="#B28364"/>
<path d="M204.382 108.05H197.852V114.64H204.382V108.05Z" fill="#603C28"/>
<path d="M204.382 101.52H197.852V108.05H204.382V101.52Z" fill="#A05252"/>
<path d="M204.382 94.9199H197.852V101.51H204.382V94.9199Z" fill="#A05252"/>
<path d="M204.382 88.4001H197.852V94.9301H204.382V88.4001Z" fill="#A05252"/>
<path d="M204.382 81.8H197.852V88.39H204.382V81.8Z" fill="#844141"/>
<path d="M204.382 75.28H197.852V81.81H204.382V75.28Z" fill="black"/>
<path d="M197.852 298.48H191.262V305.01H197.852V298.48Z" fill="black"/>
<path d="M197.852 291.89H191.262V298.48H197.852V291.89Z" fill="#BC9311"/>
<path d="M197.852 285.36H191.262V291.89H197.852V285.36Z" fill="#BC9311"/>
<path d="M197.852 278.77H191.262V285.36H197.852V278.77Z" fill="#BA9595"/>
<path d="M197.852 272.18H191.262V278.77H197.852V272.18Z" fill="#BA9595"/>
<path d="M197.852 265.64H191.262V272.17H197.852V265.64Z" fill="#BA9595"/>
<path d="M197.852 259.06H191.262V265.65H197.852V259.06Z" fill="#BA9595"/>
<path d="M197.852 252.52H191.262V259.05H197.852V252.52Z" fill="#BA9595"/>
<path d="M197.852 245.93H191.262V252.52H197.852V245.93Z" fill="black"/>
<path d="M197.852 239.4H191.262V245.93H197.852V239.4Z" fill="black"/>
<path d="M197.852 232.81H191.262V239.4H197.852V232.81Z" fill="black"/>
<path d="M197.852 226.22H191.262V232.81H197.852V226.22Z" fill="black"/>
<path d="M197.852 219.69H191.262V226.22H197.852V219.69Z" fill="black"/>
<path d="M197.852 213.09H191.262V219.68H197.852V213.09Z" fill="black"/>
<path d="M197.852 206.56H191.262V213.09H197.852V206.56Z" fill="black"/>
<path d="M197.852 199.97H191.262V206.56H197.852V199.97Z" fill="black"/>
<path d="M197.852 193.44H191.262V199.97H197.852V193.44Z" fill="black"/>
<path d="M197.852 186.85H191.262V193.44H197.852V186.85Z" fill="black"/>
<path d="M197.852 180.32H191.262V186.85H197.852V180.32Z" fill="#844141"/>
<path d="M197.852 173.72H191.262V180.31H197.852V173.72Z" fill="#A05252"/>
<path d="M197.852 167.13H191.262V173.72H197.852V167.13Z" fill="#A05252"/>
<path d="M197.852 160.6H191.262V167.13H197.852V160.6Z" fill="#A05252"/>
<path d="M197.852 154.01H191.262V160.6H197.852V154.01Z" fill="#D8B8B8"/>
<path d="M197.852 147.48H191.262V154.01H197.852V147.48Z" fill="#D8B8B8"/>
<path d="M197.852 140.89H191.262V147.48H197.852V140.89Z" fill="#D8B8B8"/>
<path d="M197.852 134.36H191.262V140.89H197.852V134.36Z" fill="#844141"/>
<path d="M197.852 127.76H191.262V134.35H197.852V127.76Z" fill="#A05252"/>
<path d="M197.852 121.17H191.262V127.76H197.852V121.17Z" fill="#E5B798"/>
<path d="M197.852 114.64H191.262V121.17H197.852V114.64Z" fill="#B28364"/>
<path d="M197.852 108.05H191.262V114.64H197.852V108.05Z" fill="#603C28"/>
<path d="M197.852 101.52H191.262V108.05H197.852V101.52Z" fill="#A05252"/>
<path d="M197.852 94.9199H191.262V101.51H197.852V94.9199Z" fill="#A05252"/>
<path d="M197.852 88.4001H191.262V94.9301H197.852V88.4001Z" fill="#844141"/>
<path d="M197.852 81.8H191.262V88.39H197.852V81.8Z" fill="black"/>
<path d="M191.26 318.14H184.73V324.73H191.26V318.14Z" fill="black"/>
<path d="M191.26 311.6H184.73V318.13H191.26V311.6Z" fill="black"/>
<path d="M191.26 305.02H184.73V311.61H191.26V305.02Z" fill="black"/>
<path d="M191.26 298.48H184.73V305.01H191.26V298.48Z" fill="black"/>
<path d="M191.26 291.89H184.73V298.48H191.26V291.89Z" fill="#BC9311"/>
<path d="M191.26 285.36H184.73V291.89H191.26V285.36Z" fill="#BC9311"/>
<path d="M191.26 278.77H184.73V285.36H191.26V278.77Z" fill="#BA9595"/>
<path d="M191.26 272.18H184.73V278.77H191.26V272.18Z" fill="#BA9595"/>
<path d="M191.26 265.64H184.73V272.17H191.26V265.64Z" fill="#BA9595"/>
<path d="M191.26 259.06H184.73V265.65H191.26V259.06Z" fill="#BA9595"/>
<path d="M191.26 252.52H184.73V259.05H191.26V252.52Z" fill="#BA9595"/>
<path d="M191.26 245.93H184.73V252.52H191.26V245.93Z" fill="#BA9595"/>
<path d="M191.26 239.4H184.73V245.93H191.26V239.4Z" fill="#BA9595"/>
<path d="M191.26 232.81H184.73V239.4H191.26V232.81Z" fill="#BA9595"/>
<path d="M191.26 226.22H184.73V232.81H191.26V226.22Z" fill="#BA9595"/>
<path d="M191.26 219.69H184.73V226.22H191.26V219.69Z" fill="#BA9595"/>
<path d="M191.26 213.09H184.73V219.68H191.26V213.09Z" fill="#BA9595"/>
<path d="M191.26 206.56H184.73V213.09H191.26V206.56Z" fill="#BA9595"/>
<path d="M191.26 199.97H184.73V206.56H191.26V199.97Z" fill="#BA9595"/>
<path d="M191.26 193.44H184.73V199.97H191.26V193.44Z" fill="#BA9595"/>
<path d="M191.26 186.85H184.73V193.44H191.26V186.85Z" fill="#BA9595"/>
<path d="M191.26 180.32H184.73V186.85H191.26V180.32Z" fill="#844141"/>
<path d="M191.26 173.72H184.73V180.31H191.26V173.72Z" fill="#A05252"/>
<path d="M191.26 167.13H184.73V173.72H191.26V167.13Z" fill="#A05252"/>
<path d="M191.26 160.6H184.73V167.13H191.26V160.6Z" fill="#A05252"/>
<path d="M191.26 154.01H184.73V160.6H191.26V154.01Z" fill="#D8B8B8"/>
<path d="M191.26 147.48H184.73V154.01H191.26V147.48Z" fill="#D8B8B8"/>
<path d="M191.26 140.89H184.73V147.48H191.26V140.89Z" fill="#D8B8B8"/>
<path d="M191.26 134.36H184.73V140.89H191.26V134.36Z" fill="#844141"/>
<path d="M191.26 127.76H184.73V134.35H191.26V127.76Z" fill="#A05252"/>
<path d="M191.26 121.17H184.73V127.76H191.26V121.17Z" fill="#B28364"/>
<path d="M191.26 114.64H184.73V121.17H191.26V114.64Z" fill="#B28364"/>
<path d="M191.26 108.05H184.73V114.64H191.26V108.05Z" fill="#603C28"/>
<path d="M191.26 101.52H184.73V108.05H191.26V101.52Z" fill="#A05252"/>
<path d="M191.26 94.9199H184.73V101.51H191.26V94.9199Z" fill="#A05252"/>
<path d="M191.26 88.4001H184.73V94.9301H191.26V88.4001Z" fill="#844141"/>
<path d="M191.26 81.8H184.73V88.39H191.26V81.8Z" fill="black"/>
<path d="M184.731 318.14H178.141V324.73H184.731V318.14Z" fill="black"/>
<path d="M184.731 311.6H178.141V318.13H184.731V311.6Z" fill="#7F4E4E"/>
<path d="M184.731 305.02H178.141V311.61H184.731V305.02Z" fill="#7F4E4E"/>
<path d="M184.731 298.48H178.141V305.01H184.731V298.48Z" fill="black"/>
<path d="M184.731 291.89H178.141V298.48H184.731V291.89Z" fill="#BC9311"/>
<path d="M184.731 285.36H178.141V291.89H184.731V285.36Z" fill="#BC9311"/>
<path d="M184.731 278.77H178.141V285.36H184.731V278.77Z" fill="#BA9595"/>
<path d="M184.731 272.18H178.141V278.77H184.731V272.18Z" fill="#BA9595"/>
<path d="M184.731 265.64H178.141V272.17H184.731V265.64Z" fill="#BA9595"/>
<path d="M184.731 259.06H178.141V265.65H184.731V259.06Z" fill="#D8B8B8"/>
<path d="M184.731 252.52H178.141V259.05H184.731V252.52Z" fill="#D8B8B8"/>
<path d="M184.731 245.93H178.141V252.52H184.731V245.93Z" fill="#D8B8B8"/>
<path d="M184.731 239.4H178.141V245.93H184.731V239.4Z" fill="#D8B8B8"/>
<path d="M184.731 232.81H178.141V239.4H184.731V232.81Z" fill="#D8B8B8"/>
<path d="M184.731 226.22H178.141V232.81H184.731V226.22Z" fill="#D8B8B8"/>
<path d="M184.731 219.69H178.141V226.22H184.731V219.69Z" fill="#D8B8B8"/>
<path d="M184.731 213.09H178.141V219.68H184.731V213.09Z" fill="#D8B8B8"/>
<path d="M184.731 206.56H178.141V213.09H184.731V206.56Z" fill="#D8B8B8"/>
<path d="M184.731 199.97H178.141V206.56H184.731V199.97Z" fill="#D8B8B8"/>
<path d="M184.731 193.44H178.141V199.97H184.731V193.44Z" fill="#D8B8B8"/>
<path d="M184.731 186.85H178.141V193.44H184.731V186.85Z" fill="#BA9595"/>
<path d="M184.731 180.32H178.141V186.85H184.731V180.32Z" fill="#844141"/>
<path d="M184.731 173.72H178.141V180.31H184.731V173.72Z" fill="#A05252"/>
<path d="M184.731 167.13H178.141V173.72H184.731V167.13Z" fill="#A05252"/>
<path d="M184.731 160.6H178.141V167.13H184.731V160.6Z" fill="#A05252"/>
<path d="M184.731 154.01H178.141V160.6H184.731V154.01Z" fill="#D8B8B8"/>
<path d="M184.731 147.48H178.141V154.01H184.731V147.48Z" fill="#D8B8B8"/>
<path d="M184.731 140.89H178.141V147.48H184.731V140.89Z" fill="#BA9595"/>
<path d="M184.731 134.36H178.141V140.89H184.731V134.36Z" fill="#844141"/>
<path d="M184.731 127.76H178.141V134.35H184.731V127.76Z" fill="#844141"/>
<path d="M184.731 121.17H178.141V127.76H184.731V121.17Z" fill="#A05252"/>
<path d="M184.731 114.64H178.141V121.17H184.731V114.64Z" fill="#A05252"/>
<path d="M184.731 108.05H178.141V114.64H184.731V108.05Z" fill="#A05252"/>
<path d="M184.731 101.52H178.141V108.05H184.731V101.52Z" fill="#A05252"/>
<path d="M184.731 94.9199H178.141V101.51H184.731V94.9199Z" fill="#844141"/>
<path d="M184.731 88.4001H178.141V94.9301H184.731V88.4001Z" fill="black"/>
<path d="M178.131 318.14H171.541V324.73H178.131V318.14Z" fill="black"/>
<path d="M178.131 311.6H171.541V318.13H178.131V311.6Z" fill="#7F4E4E"/>
<path d="M178.131 305.02H171.541V311.61H178.131V305.02Z" fill="#7F4E4E"/>
<path d="M178.131 298.48H171.541V305.01H178.131V298.48Z" fill="black"/>
<path d="M178.131 291.89H171.541V298.48H178.131V291.89Z" fill="#FFCE17"/>
<path d="M178.131 285.36H171.541V291.89H178.131V285.36Z" fill="#FFCE17"/>
<path d="M178.131 278.77H171.541V285.36H178.131V278.77Z" fill="#D8B8B8"/>
<path d="M178.131 272.18H171.541V278.77H178.131V272.18Z" fill="#D8B8B8"/>
<path d="M178.131 265.64H171.541V272.17H178.131V265.64Z" fill="#D8B8B8"/>
<path d="M178.131 259.06H171.541V265.65H178.131V259.06Z" fill="#D8B8B8"/>
<path d="M178.131 252.52H171.541V259.05H178.131V252.52Z" fill="#D8B8B8"/>
<path d="M178.131 245.93H171.541V252.52H178.131V245.93Z" fill="#D8B8B8"/>
<path d="M178.131 239.4H171.541V245.93H178.131V239.4Z" fill="#D8B8B8"/>
<path d="M178.131 232.81H171.541V239.4H178.131V232.81Z" fill="#D8B8B8"/>
<path d="M178.131 226.22H171.541V232.81H178.131V226.22Z" fill="#D8B8B8"/>
<path d="M178.131 219.69H171.541V226.22H178.131V219.69Z" fill="#D8B8B8"/>
<path d="M178.131 213.09H171.541V219.68H178.131V213.09Z" fill="#D8B8B8"/>
<path d="M178.131 206.56H171.541V213.09H178.131V206.56Z" fill="#D8B8B8"/>
<path d="M178.131 199.97H171.541V206.56H178.131V199.97Z" fill="#D8B8B8"/>
<path d="M178.131 193.44H171.541V199.97H178.131V193.44Z" fill="#D8B8B8"/>
<path d="M178.131 186.85H171.541V193.44H178.131V186.85Z" fill="#BA9595"/>
<path d="M178.131 180.32H171.541V186.85H178.131V180.32Z" fill="#844141"/>
<path d="M178.131 173.72H171.541V180.31H178.131V173.72Z" fill="#A05252"/>
<path d="M178.131 167.13H171.541V173.72H178.131V167.13Z" fill="#A05252"/>
<path d="M178.131 160.6H171.541V167.13H178.131V160.6Z" fill="#A05252"/>
<path d="M178.131 154.01H171.541V160.6H178.131V154.01Z" fill="#D8B8B8"/>
<path d="M178.131 147.48H171.541V154.01H178.131V147.48Z" fill="#BA9595"/>
<path d="M178.131 140.89H171.541V147.48H178.131V140.89Z" fill="#BA9595"/>
<path d="M178.131 134.36H171.541V140.89H178.131V134.36Z" fill="#BA9595"/>
<path d="M178.131 127.76H171.541V134.35H178.131V127.76Z" fill="#844141"/>
<path d="M178.131 121.17H171.541V127.76H178.131V121.17Z" fill="#844141"/>
<path d="M178.131 114.64H171.541V121.17H178.131V114.64Z" fill="#844141"/>
<path d="M178.131 108.05H171.541V114.64H178.131V108.05Z" fill="#844141"/>
<path d="M178.131 101.52H171.541V108.05H178.131V101.52Z" fill="#844141"/>
<path d="M178.131 94.9199H171.541V101.51H178.131V94.9199Z" fill="black"/>
<path d="M171.542 318.14H165.012V324.73H171.542V318.14Z" fill="black"/>
<path d="M171.542 311.6H165.012V318.13H171.542V311.6Z" fill="#7F4E4E"/>
<path d="M171.542 305.02H165.012V311.61H171.542V305.02Z" fill="#7F4E4E"/>
<path d="M171.542 298.48H165.012V305.01H171.542V298.48Z" fill="black"/>
<path d="M171.542 291.89H165.012V298.48H171.542V291.89Z" fill="#FFCE17"/>
<path d="M171.542 285.36H165.012V291.89H171.542V285.36Z" fill="#FFCE17"/>
<path d="M171.542 278.77H165.012V285.36H171.542V278.77Z" fill="#D8B8B8"/>
<path d="M171.542 272.18H165.012V278.77H171.542V272.18Z" fill="#D8B8B8"/>
<path d="M171.542 265.64H165.012V272.17H171.542V265.64Z" fill="#D8B8B8"/>
<path d="M171.542 259.06H165.012V265.65H171.542V259.06Z" fill="#D8B8B8"/>
<path d="M171.542 252.52H165.012V259.05H171.542V252.52Z" fill="#BA9595"/>
<path d="M171.542 245.93H165.012V252.52H171.542V245.93Z" fill="#BA9595"/>
<path d="M171.542 239.4H165.012V245.93H171.542V239.4Z" fill="#BA9595"/>
<path d="M171.542 232.81H165.012V239.4H171.542V232.81Z" fill="#BA9595"/>
<path d="M171.542 226.22H165.012V232.81H171.542V226.22Z" fill="#BA9595"/>
<path d="M171.542 219.69H165.012V226.22H171.542V219.69Z" fill="#BA9595"/>
<path d="M171.542 213.09H165.012V219.68H171.542V213.09Z" fill="#BA9595"/>
<path d="M171.542 206.56H165.012V213.09H171.542V206.56Z" fill="#BA9595"/>
<path d="M171.542 199.97H165.012V206.56H171.542V199.97Z" fill="#BA9595"/>
<path d="M171.542 193.44H165.012V199.97H171.542V193.44Z" fill="#BA9595"/>
<path d="M171.542 186.85H165.012V193.44H171.542V186.85Z" fill="#BA9595"/>
<path d="M171.542 180.32H165.012V186.85H171.542V180.32Z" fill="#BA9595"/>
<path d="M171.542 173.72H165.012V180.31H171.542V173.72Z" fill="#844141"/>
<path d="M171.542 167.13H165.012V173.72H171.542V167.13Z" fill="#A05252"/>
<path d="M171.542 160.6H165.012V167.13H171.542V160.6Z" fill="#A05252"/>
<path d="M171.542 154.01H165.012V160.6H171.542V154.01Z" fill="#BA9595"/>
<path d="M171.542 147.48H165.012V154.01H171.542V147.48Z" fill="#BA9595"/>
<path d="M171.542 140.89H165.012V147.48H171.542V140.89Z" fill="#BA9595"/>
<path d="M171.542 134.36H165.012V140.89H171.542V134.36Z" fill="#BA9595"/>
<path d="M171.542 127.76H165.012V134.35H171.542V127.76Z" fill="#BA9595"/>
<path d="M171.542 121.17H165.012V127.76H171.542V121.17Z" fill="black"/>
<path d="M171.542 114.64H165.012V121.17H171.542V114.64Z" fill="black"/>
<path d="M171.542 108.05H165.012V114.64H171.542V108.05Z" fill="black"/>
<path d="M171.542 101.52H165.012V108.05H171.542V101.52Z" fill="black"/>
<path d="M165.012 318.14H158.422V324.73H165.012V318.14Z" fill="black"/>
<path d="M165.012 311.6H158.422V318.13H165.012V311.6Z" fill="#7F4E4E"/>
<path d="M165.012 305.02H158.422V311.61H165.012V305.02Z" fill="black"/>
<path d="M165.012 298.48H158.422V305.01H165.012V298.48Z" fill="black"/>
<path d="M165.012 291.89H158.422V298.48H165.012V291.89Z" fill="#BC9311"/>
<path d="M165.012 285.36H158.422V291.89H165.012V285.36Z" fill="#BC9311"/>
<path d="M165.012 278.77H158.422V285.36H165.012V278.77Z" fill="#BA9595"/>
<path d="M165.012 272.18H158.422V278.77H165.012V272.18Z" fill="#BA9595"/>
<path d="M165.012 265.64H158.422V272.17H165.012V265.64Z" fill="#BA9595"/>
<path d="M165.012 259.06H158.422V265.65H165.012V259.06Z" fill="#BA9595"/>
<path d="M165.012 252.52H158.422V259.05H165.012V252.52Z" fill="#BA9595"/>
<path d="M165.012 245.93H158.422V252.52H165.012V245.93Z" fill="#BA9595"/>
<path d="M165.012 239.4H158.422V245.93H165.012V239.4Z" fill="#BA9595"/>
<path d="M165.012 232.81H158.422V239.4H165.012V232.81Z" fill="#BC9311"/>
<path d="M165.012 226.22H158.422V232.81H165.012V226.22Z" fill="#BC9311"/>
<path d="M165.012 219.69H158.422V226.22H165.012V219.69Z" fill="#BC9311"/>
<path d="M165.012 213.09H158.422V219.68H165.012V213.09Z" fill="#BC9311"/>
<path d="M165.012 206.56H158.422V213.09H165.012V206.56Z" fill="#BC9311"/>
<path d="M165.012 199.97H158.422V206.56H165.012V199.97Z" fill="#BC9311"/>
<path d="M165.012 193.44H158.422V199.97H165.012V193.44Z" fill="#BC9311"/>
<path d="M165.012 186.85H158.422V193.44H165.012V186.85Z" fill="#BC9311"/>
<path d="M165.012 180.32H158.422V186.85H165.012V180.32Z" fill="#BC9311"/>
<path d="M165.012 173.72H158.422V180.31H165.012V173.72Z" fill="#BC9311"/>
<path d="M165.012 167.13H158.422V173.72H165.012V167.13Z" fill="#844141"/>
<path d="M165.012 160.6H158.422V167.13H165.012V160.6Z" fill="#A05252"/>
<path d="M165.012 154.01H158.422V160.6H165.012V154.01Z" fill="#A05252"/>
<path d="M165.012 147.48H158.422V154.01H165.012V147.48Z" fill="#A05252"/>
<path d="M165.012 140.89H158.422V147.48H165.012V140.89Z" fill="#A05252"/>
<path d="M165.012 134.36H158.422V140.89H165.012V134.36Z" fill="#A05252"/>
<path d="M165.012 127.76H158.422V134.35H165.012V127.76Z" fill="#A05252"/>
<path d="M165.012 121.17H158.422V127.76H165.012V121.17Z" fill="black"/>
<path d="M158.421 318.14H151.891V324.73H158.421V318.14Z" fill="black"/>
<path d="M158.421 311.6H151.891V318.13H158.421V311.6Z" fill="black"/>
<path d="M158.421 298.48H151.891V305.01H158.421V298.48Z" fill="black"/>
<path d="M158.421 291.89H151.891V298.48H158.421V291.89Z" fill="#BC9311"/>
<path d="M158.421 285.36H151.891V291.89H158.421V285.36Z" fill="#BC9311"/>
<path d="M158.421 278.77H151.891V285.36H158.421V278.77Z" fill="#BA9595"/>
<path d="M158.421 272.18H151.891V278.77H158.421V272.18Z" fill="#BA9595"/>
<path d="M158.421 265.64H151.891V272.17H158.421V265.64Z" fill="#BA9595"/>
<path d="M158.421 259.06H151.891V265.65H158.421V259.06Z" fill="#BC9311"/>
<path d="M158.421 252.52H151.891V259.05H158.421V252.52Z" fill="#BC9311"/>
<path d="M158.421 245.93H151.891V252.52H158.421V245.93Z" fill="#BC9311"/>
<path d="M158.421 239.4H151.891V245.93H158.421V239.4Z" fill="#BC9311"/>
<path d="M158.421 232.81H151.891V239.4H158.421V232.81Z" fill="black"/>
<path d="M158.421 226.22H151.891V232.81H158.421V226.22Z" fill="black"/>
<path d="M158.421 219.69H151.891V226.22H158.421V219.69Z" fill="black"/>
<path d="M158.421 213.09H151.891V219.68H158.421V213.09Z" fill="black"/>
<path d="M158.421 206.56H151.891V213.09H158.421V206.56Z" fill="black"/>
<path d="M158.421 199.97H151.891V206.56H158.421V199.97Z" fill="black"/>
<path d="M158.421 193.44H151.891V199.97H158.421V193.44Z" fill="black"/>
<path d="M158.421 186.85H151.891V193.44H158.421V186.85Z" fill="black"/>
<path d="M158.421 180.32H151.891V186.85H158.421V180.32Z" fill="black"/>
<path d="M158.421 173.72H151.891V180.31H158.421V173.72Z" fill="black"/>
<path d="M158.421 167.13H151.891V173.72H158.421V167.13Z" fill="#844141"/>
<path d="M158.421 160.6H151.891V167.13H158.421V160.6Z" fill="#844141"/>
<path d="M158.421 154.01H151.891V160.6H158.421V154.01Z" fill="#844141"/>
<path d="M158.421 147.48H151.891V154.01H158.421V147.48Z" fill="#A05252"/>
<path d="M158.421 140.89H151.891V147.48H158.421V140.89Z" fill="#A05252"/>
<path d="M158.421 134.36H151.891V140.89H158.421V134.36Z" fill="#A05252"/>
<path d="M158.421 127.76H151.891V134.35H158.421V127.76Z" fill="black"/>
<path d="M151.891 298.48H145.301V305.01H151.891V298.48Z" fill="black"/>
<path d="M151.891 291.89H145.301V298.48H151.891V291.89Z" fill="#BC9311"/>
<path d="M151.891 285.36H145.301V291.89H151.891V285.36Z" fill="#BC9311"/>
<path d="M151.891 278.77H145.301V285.36H151.891V278.77Z" fill="#BA9595"/>
<path d="M151.891 272.18H145.301V278.77H151.891V272.18Z" fill="#BC9311"/>
<path d="M151.891 265.64H145.301V272.17H151.891V265.64Z" fill="#BC9311"/>
<path d="M151.891 259.06H145.301V265.65H151.891V259.06Z" fill="black"/>
<path d="M151.891 252.52H145.301V259.05H151.891V252.52Z" fill="black"/>
<path d="M151.891 245.93H145.301V252.52H151.891V245.93Z" fill="black"/>
<path d="M151.891 239.4H145.301V245.93H151.891V239.4Z" fill="black"/>
<path d="M151.891 232.81H145.301V239.4H151.891V232.81Z" fill="#844141"/>
<path d="M151.891 226.22H145.301V232.81H151.891V226.22Z" fill="#844141"/>
<path d="M151.891 219.69H145.301V226.22H151.891V219.69Z" fill="#844141"/>
<path d="M151.891 213.09H145.301V219.68H151.891V213.09Z" fill="#844141"/>
<path d="M151.891 206.56H145.301V213.09H151.891V206.56Z" fill="#844141"/>
<path d="M151.891 199.97H145.301V206.56H151.891V199.97Z" fill="#844141"/>
<path d="M151.891 193.44H145.301V199.97H151.891V193.44Z" fill="black"/>
<path d="M151.891 186.85H145.301V193.44H151.891V186.85Z" fill="black"/>
<path d="M151.891 180.32H145.301V186.85H151.891V180.32Z" fill="#BA9595"/>
<path d="M151.891 173.72H145.301V180.31H151.891V173.72Z" fill="#BA9595"/>
<path d="M151.891 167.13H145.301V173.72H151.891V167.13Z" fill="#BA9595"/>
<path d="M151.891 160.6H145.301V167.13H151.891V160.6Z" fill="#BA9595"/>
<path d="M151.891 154.01H145.301V160.6H151.891V154.01Z" fill="#BA9595"/>
<path d="M151.891 147.48H145.301V154.01H151.891V147.48Z" fill="#844141"/>
<path d="M151.891 140.89H145.301V147.48H151.891V140.89Z" fill="#844141"/>
<path d="M151.891 134.36H145.301V140.89H151.891V134.36Z" fill="black"/>
<path d="M145.301 298.48H138.771V305.01H145.301V298.48Z" fill="black"/>
<path d="M145.301 291.89H138.771V298.48H145.301V291.89Z" fill="#BC9311"/>
<path d="M145.301 285.36H138.771V291.89H145.301V285.36Z" fill="#BC9311"/>
<path d="M145.301 278.77H138.771V285.36H145.301V278.77Z" fill="#BC9311"/>
<path d="M145.301 272.18H138.771V278.77H145.301V272.18Z" fill="black"/>
<path d="M145.301 265.64H138.771V272.17H145.301V265.64Z" fill="black"/>
<path d="M145.301 259.06H138.771V265.65H145.301V259.06Z" fill="#844141"/>
<path d="M145.301 252.52H138.771V259.05H145.301V252.52Z" fill="#844141"/>
<path d="M145.301 245.93H138.771V252.52H145.301V245.93Z" fill="#844141"/>
<path d="M145.301 239.4H138.771V245.93H145.301V239.4Z" fill="#844141"/>
<path d="M145.301 232.81H138.771V239.4H145.301V232.81Z" fill="#844141"/>
<path d="M145.301 226.22H138.771V232.81H145.301V226.22Z" fill="#844141"/>
<path d="M145.301 219.69H138.771V226.22H145.301V219.69Z" fill="#844141"/>
<path d="M145.301 213.09H138.771V219.68H145.301V213.09Z" fill="#844141"/>
<path d="M145.301 206.56H138.771V213.09H145.301V206.56Z" fill="black"/>
<path d="M145.301 199.97H138.771V206.56H145.301V199.97Z" fill="black"/>
<path d="M145.301 193.44H138.771V199.97H145.301V193.44Z" fill="#D8B8B8"/>
<path d="M145.301 186.85H138.771V193.44H145.301V186.85Z" fill="#D8B8B8"/>
<path d="M145.301 180.32H138.771V186.85H145.301V180.32Z" fill="#D8B8B8"/>
<path d="M145.301 173.72H138.771V180.31H145.301V173.72Z" fill="#D8B8B8"/>
<path d="M145.301 167.13H138.771V173.72H145.301V167.13Z" fill="#D8B8B8"/>
<path d="M145.301 160.6H138.771V167.13H145.301V160.6Z" fill="#BA9595"/>
<path d="M145.301 154.01H138.771V160.6H145.301V154.01Z" fill="black"/>
<path d="M145.301 147.48H138.771V154.01H145.301V147.48Z" fill="black"/>
<path d="M145.301 140.89H138.771V147.48H145.301V140.89Z" fill="black"/>
<path d="M138.772 298.48H132.182V305.01H138.772V298.48Z" fill="black"/>
<path d="M138.772 291.89H132.182V298.48H138.772V291.89Z" fill="#BC9311"/>
<path d="M138.772 285.36H132.182V291.89H138.772V285.36Z" fill="black"/>
<path d="M138.772 278.77H132.182V285.36H138.772V278.77Z" fill="black"/>
<path d="M138.772 272.18H132.182V278.77H138.772V272.18Z" fill="black"/>
<path d="M138.772 265.64H132.182V272.17H138.772V265.64Z" fill="#844141"/>
<path d="M138.772 259.06H132.182V265.65H138.772V259.06Z" fill="#844141"/>
<path d="M138.772 252.52H132.182V259.05H138.772V252.52Z" fill="#844141"/>
<path d="M138.772 245.93H132.182V252.52H138.772V245.93Z" fill="#844141"/>
<path d="M138.772 239.4H132.182V245.93H138.772V239.4Z" fill="#844141"/>
<path d="M138.772 232.81H132.182V239.4H138.772V232.81Z" fill="#844141"/>
<path d="M138.772 226.22H132.182V232.81H138.772V226.22Z" fill="#844141"/>
<path d="M138.772 219.69H132.182V226.22H138.772V219.69Z" fill="black"/>
<path d="M138.772 213.09H132.182V219.68H138.772V213.09Z" fill="black"/>
<path d="M138.772 206.56H132.182V213.09H138.772V206.56Z" fill="#D8B8B8"/>
<path d="M138.772 199.97H132.182V206.56H138.772V199.97Z" fill="#D8B8B8"/>
<path d="M138.772 193.44H132.182V199.97H138.772V193.44Z" fill="#D8B8B8"/>
<path d="M138.772 186.85H132.182V193.44H138.772V186.85Z" fill="#D8B8B8"/>
<path d="M138.772 180.32H132.182V186.85H138.772V180.32Z" fill="black"/>
<path d="M138.772 173.72H132.182V180.31H138.772V173.72Z" fill="black"/>
<path d="M138.772 167.13H132.182V173.72H138.772V167.13Z" fill="black"/>
<path d="M138.772 160.6H132.182V167.13H138.772V160.6Z" fill="black"/>
<path d="M132.17 298.48H125.58V305.01H132.17V298.48Z" fill="black"/>
<path d="M132.17 291.89H125.58V298.48H132.17V291.89Z" fill="black"/>
<path d="M132.17 285.36H125.58V291.89H132.17V285.36Z" fill="black"/>
<path d="M132.17 272.18H125.58V278.77H132.17V272.18Z" fill="black"/>
<path d="M132.17 265.64H125.58V272.17H132.17V265.64Z" fill="#844141"/>
<path d="M132.17 259.06H125.58V265.65H132.17V259.06Z" fill="#844141"/>
<path d="M132.17 252.52H125.58V259.05H132.17V252.52Z" fill="#844141"/>
<path d="M132.17 245.93H125.58V252.52H132.17V245.93Z" fill="#844141"/>
<path d="M132.17 239.4H125.58V245.93H132.17V239.4Z" fill="#844141"/>
<path d="M132.17 232.81H125.58V239.4H132.17V232.81Z" fill="black"/>
<path d="M132.17 226.22H125.58V232.81H132.17V226.22Z" fill="black"/>
<path d="M132.17 219.69H125.58V226.22H132.17V219.69Z" fill="#D8B8B8"/>
<path d="M132.17 213.09H125.58V219.68H132.17V213.09Z" fill="#D8B8B8"/>
<path d="M132.17 206.56H125.58V213.09H132.17V206.56Z" fill="#D8B8B8"/>
<path d="M132.17 199.97H125.58V206.56H132.17V199.97Z" fill="#D8B8B8"/>
<path d="M132.17 193.44H125.58V199.97H132.17V193.44Z" fill="#D8B8B8"/>
<path d="M132.17 186.85H125.58V193.44H132.17V186.85Z" fill="black"/>
<path d="M125.581 272.18H119.051V278.77H125.581V272.18Z" fill="black"/>
<path d="M125.581 265.64H119.051V272.17H125.581V265.64Z" fill="#844141"/>
<path d="M125.581 259.06H119.051V265.65H125.581V259.06Z" fill="#844141"/>
<path d="M125.581 252.52H119.051V259.05H125.581V252.52Z" fill="black"/>
<path d="M125.581 245.93H119.051V252.52H125.581V245.93Z" fill="black"/>
<path d="M125.581 239.4H119.051V245.93H125.581V239.4Z" fill="black"/>
<path d="M125.581 232.81H119.051V239.4H125.581V232.81Z" fill="#D8B8B8"/>
<path d="M125.581 226.22H119.051V232.81H125.581V226.22Z" fill="#D8B8B8"/>
<path d="M125.581 219.69H119.051V226.22H125.581V219.69Z" fill="#D8B8B8"/>
<path d="M125.581 213.09H119.051V219.68H125.581V213.09Z" fill="#D8B8B8"/>
<path d="M125.581 206.56H119.051V213.09H125.581V206.56Z" fill="#D8B8B8"/>
<path d="M125.581 199.97H119.051V206.56H125.581V199.97Z" fill="#D8B8B8"/>
<path d="M125.581 193.44H119.051V199.97H125.581V193.44Z" fill="black"/>
<path d="M119.051 272.18H112.461V278.77H119.051V272.18Z" fill="black"/>
<path d="M119.051 265.64H112.461V272.17H119.051V265.64Z" fill="black"/>
<path d="M119.051 259.06H112.461V265.65H119.051V259.06Z" fill="black"/>
<path d="M119.051 252.52H112.461V259.05H119.051V252.52Z" fill="#D8B8B8"/>
<path d="M119.051 245.93H112.461V252.52H119.051V245.93Z" fill="#D8B8B8"/>
<path d="M119.051 239.4H112.461V245.93H119.051V239.4Z" fill="#D8B8B8"/>
<path d="M119.051 232.81H112.461V239.4H119.051V232.81Z" fill="#D8B8B8"/>
<path d="M119.051 226.22H112.461V232.81H119.051V226.22Z" fill="#D8B8B8"/>
<path d="M119.051 219.69H112.461V226.22H119.051V219.69Z" fill="#D8B8B8"/>
<path d="M119.051 213.09H112.461V219.68H119.051V213.09Z" fill="black"/>
<path d="M119.051 206.56H112.461V213.09H119.051V206.56Z" fill="black"/>
<path d="M119.051 199.97H112.461V206.56H119.051V199.97Z" fill="black"/>
<path d="M112.462 285.36H105.932V291.89H112.462V285.36Z" fill="black"/>
<path d="M112.462 278.77H105.932V285.36H112.462V278.77Z" fill="black"/>
<path d="M112.462 272.18H105.932V278.77H112.462V272.18Z" fill="black"/>
<path d="M112.462 265.64H105.932V272.17H112.462V265.64Z" fill="#A05252"/>
<path d="M112.462 259.06H105.932V265.65H112.462V259.06Z" fill="#A05252"/>
<path d="M112.462 252.52H105.932V259.05H112.462V252.52Z" fill="#D8B8B8"/>
<path d="M112.462 245.93H105.932V252.52H112.462V245.93Z" fill="#D8B8B8"/>
<path d="M112.462 239.4H105.932V245.93H112.462V239.4Z" fill="#D8B8B8"/>
<path d="M112.462 232.81H105.932V239.4H112.462V232.81Z" fill="#D8B8B8"/>
<path d="M112.462 226.22H105.932V232.81H112.462V226.22Z" fill="#D8B8B8"/>
<path d="M112.462 219.69H105.932V226.22H112.462V219.69Z" fill="black"/>
<path d="M105.932 285.36H99.3418V291.89H105.932V285.36Z" fill="black"/>
<path d="M105.932 278.77H99.3418V285.36H105.932V278.77Z" fill="#A05252"/>
<path d="M105.932 272.18H99.3418V278.77H105.932V272.18Z" fill="#A05252"/>
<path d="M105.932 265.64H99.3418V272.17H105.932V265.64Z" fill="#A05252"/>
<path d="M105.932 259.06H99.3418V265.65H105.932V259.06Z" fill="#A05252"/>
<path d="M105.932 252.52H99.3418V259.05H105.932V252.52Z" fill="#A05252"/>
<path d="M105.932 245.93H99.3418V252.52H105.932V245.93Z" fill="#D8B8B8"/>
<path d="M105.932 239.4H99.3418V245.93H105.932V239.4Z" fill="#D8B8B8"/>
<path d="M105.932 232.81H99.3418V239.4H105.932V232.81Z" fill="black"/>
<path d="M105.932 226.22H99.3418V232.81H105.932V226.22Z" fill="black"/>
<path d="M99.3405 278.77H92.8105V285.36H99.3405V278.77Z" fill="black"/>
<path d="M99.3405 272.18H92.8105V278.77H99.3405V272.18Z" fill="#A05252"/>
<path d="M99.3405 265.64H92.8105V272.17H99.3405V265.64Z" fill="#A05252"/>
<path d="M99.3405 259.06H92.8105V265.65H99.3405V259.06Z" fill="#A05252"/>
<path d="M99.3405 252.52H92.8105V259.05H99.3405V252.52Z" fill="#A05252"/>
<path d="M99.3405 245.93H92.8105V252.52H99.3405V245.93Z" fill="black"/>
<path d="M99.3405 239.4H92.8105V245.93H99.3405V239.4Z" fill="black"/>
<path d="M92.8009 272.18H86.2109V278.77H92.8009V272.18Z" fill="black"/>
<path d="M92.8009 265.64H86.2109V272.17H92.8009V265.64Z" fill="black"/>
<path d="M92.8009 259.06H86.2109V265.65H92.8009V259.06Z" fill="black"/>
<path d="M92.8009 252.52H86.2109V259.05H92.8009V252.52Z" fill="black"/>
</svg>
