<svg width="400" height="400" viewBox="0 0 400 400" fill="none" xmlns="http://www.w3.org/2000/svg">
<path d="M200.001 385.78C302.604 385.78 385.781 302.603 385.781 200C385.781 97.3965 302.604 14.22 200.001 14.22C97.3972 14.22 14.2207 97.3965 14.2207 200C14.2207 302.603 97.3972 385.78 200.001 385.78Z" fill="black"/>
<path d="M200.001 392.78C93.7007 392.78 7.2207 306.3 7.2207 200C7.2207 93.7 93.7007 7.21997 200.001 7.21997C306.301 7.21997 392.781 93.7 392.781 200C392.781 306.3 306.301 392.78 200.001 392.78ZM200.001 21.22C101.421 21.22 21.2207 101.42 21.2207 200C21.2207 298.58 101.421 378.78 200.001 378.78C298.581 378.78 378.781 298.58 378.781 200C378.781 101.42 298.581 21.22 200.001 21.22Z" fill="#CFAA18"/>
<path d="M308.769 198.76H302.359V205.17H308.769V198.76Z" fill="black"/>
<path d="M308.769 192.42H302.359V198.77H308.769V192.42Z" fill="black"/>
<path d="M302.349 211.52H295.939V217.93H302.349V211.52Z" fill="black"/>
<path d="M302.349 205.18H295.939V211.53H302.349V205.18Z" fill="black"/>
<path d="M302.349 186H295.939V192.41H302.349V186Z" fill="black"/>
<path d="M295.948 243.46H289.598V249.87H295.948V243.46Z" fill="black"/>
<path d="M295.948 217.94H289.598V224.29H295.948V217.94Z" fill="black"/>
<path d="M295.948 211.52H289.598V217.93H295.948V211.52Z" fill="black"/>
<path d="M295.948 179.59H289.598V186H295.948V179.59Z" fill="black"/>
<path d="M295.948 166.83H289.598V173.24H295.948V166.83Z" fill="black"/>
<path d="M289.588 307.32H283.178V313.67H289.588V307.32Z" fill="black"/>
<path d="M289.588 300.91H283.178V307.32H289.588V300.91Z" fill="black"/>
<path d="M289.588 249.87H283.178V256.22H289.588V249.87Z" fill="black"/>
<path d="M289.588 237.05H283.178V243.46H289.588V237.05Z" fill="black"/>
<path d="M289.588 230.7H283.178V237.05H289.588V230.7Z" fill="black"/>
<path d="M289.588 224.28H283.178V230.69H289.588V224.28Z" fill="black"/>
<path d="M289.588 217.94H283.178V224.29H289.588V217.94Z" fill="black"/>
<path d="M289.588 173.24H283.178V179.59H289.588V173.24Z" fill="black"/>
<path d="M289.588 160.48H283.178V166.83H289.588V160.48Z" fill="black"/>
<path d="M283.178 313.68H276.828V320.09H283.178V313.68Z" fill="black"/>
<path d="M283.178 294.56H276.828V300.91H283.178V294.56Z" fill="black"/>
<path d="M283.178 281.74H276.828V288.15H283.178V281.74Z" fill="black"/>
<path d="M283.178 275.38H276.828V281.73H283.178V275.38Z" fill="black"/>
<path d="M283.178 268.98H276.828V275.39H283.178V268.98Z" fill="black"/>
<path d="M283.178 249.87H276.828V256.22H283.178V249.87Z" fill="black"/>
<path d="M283.178 230.7H276.828V237.05H283.178V230.7Z" fill="black"/>
<path d="M283.178 179.59H276.828V186H283.178V179.59Z" fill="black"/>
<path d="M283.178 154.07H276.828V160.48H283.178V154.07Z" fill="black"/>
<path d="M276.828 313.68H270.418V320.09H276.828V313.68Z" fill="black"/>
<path d="M276.828 288.15H270.418V294.56H276.828V288.15Z" fill="black"/>
<path d="M276.828 281.74H270.418V288.15H276.828V281.74Z" fill="black"/>
<path d="M276.828 268.98H270.418V275.39H276.828V268.98Z" fill="black"/>
<path d="M276.828 262.63H270.418V268.98H276.828V262.63Z" fill="black"/>
<path d="M276.828 256.22H270.418V262.63H276.828V256.22Z" fill="black"/>
<path d="M276.828 249.87H270.418V256.22H276.828V249.87Z" fill="black"/>
<path d="M276.828 224.28H270.418V230.69H276.828V224.28Z" fill="black"/>
<path d="M276.828 205.18H270.418V211.53H276.828V205.18Z" fill="black"/>
<path d="M276.828 198.76H270.418V205.17H276.828V198.76Z" fill="black"/>
<path d="M276.828 192.42H270.418V198.77H276.828V192.42Z" fill="black"/>
<path d="M276.828 186H270.418V192.41H276.828V186Z" fill="black"/>
<path d="M276.828 154.07H270.418V160.48H276.828V154.07Z" fill="black"/>
<path d="M276.828 147.72H270.418V154.07H276.828V147.72Z" fill="black"/>
<path d="M270.418 313.68H264.068V320.09H270.418V313.68Z" fill="black"/>
<path d="M270.418 281.74H264.068V288.15H270.418V281.74Z" fill="black"/>
<path d="M270.418 268.98H264.068V275.39H270.418V268.98Z" fill="black"/>
<path d="M270.418 243.46H264.068V249.87H270.418V243.46Z" fill="black"/>
<path d="M270.418 224.28H264.068V230.69H270.418V224.28Z" fill="black"/>
<path d="M270.418 217.94H264.068V224.29H270.418V217.94Z" fill="black"/>
<path d="M270.418 211.52H264.068V217.93H270.418V211.52Z" fill="black"/>
<path d="M270.418 141.31H264.068V147.72H270.418V141.31Z" fill="black"/>
<path d="M264.078 313.68H257.668V320.09H264.078V313.68Z" fill="black"/>
<path d="M264.078 281.74H257.668V288.15H264.078V281.74Z" fill="black"/>
<path d="M264.078 268.98H257.668V275.39H264.078V268.98Z" fill="black"/>
<path d="M264.078 237.05H257.668V243.46H264.078V237.05Z" fill="black"/>
<path d="M264.078 230.7H257.668V237.05H264.078V230.7Z" fill="black"/>
<path d="M264.078 147.72H257.668V154.07H264.078V147.72Z" fill="black"/>
<path d="M257.658 313.68H251.248V320.09H257.658V313.68Z" fill="black"/>
<path d="M257.658 281.74H251.248V288.15H257.658V281.74Z" fill="black"/>
<path d="M257.658 268.98H251.248V275.39H257.658V268.98Z" fill="black"/>
<path d="M257.658 237.05H251.248V243.46H257.658V237.05Z" fill="black"/>
<path d="M257.658 141.31H251.248V147.72H257.658V141.31Z" fill="black"/>
<path d="M251.248 313.68H244.898V320.09H251.248V313.68Z" fill="black"/>
<path d="M251.248 288.15H244.898V294.56H251.248V288.15Z" fill="black"/>
<path d="M251.248 281.74H244.898V288.15H251.248V281.74Z" fill="black"/>
<path d="M251.248 268.98H244.898V275.39H251.248V268.98Z" fill="black"/>
<path d="M251.248 243.46H244.898V249.87H251.248V243.46Z" fill="black"/>
<path d="M251.248 134.9H244.898V141.31H251.248V134.9Z" fill="black"/>
<path d="M251.248 128.55H244.898V134.9H251.248V128.55Z" fill="black"/>
<path d="M251.248 122.14H244.898V128.55H251.248V122.14Z" fill="black"/>
<path d="M244.898 307.32H238.488V313.67H244.898V307.32Z" fill="black"/>
<path d="M244.898 300.91H238.488V307.32H244.898V300.91Z" fill="black"/>
<path d="M244.898 294.56H238.488V300.91H244.898V294.56Z" fill="black"/>
<path d="M244.898 281.74H238.488V288.15H244.898V281.74Z" fill="black"/>
<path d="M244.898 275.38H238.488V281.73H244.898V275.38Z" fill="black"/>
<path d="M244.898 268.98H238.488V275.39H244.898V268.98Z" fill="black"/>
<path d="M244.898 262.63H238.488V268.98H244.898V262.63Z" fill="black"/>
<path d="M244.898 256.22H238.488V262.63H244.898V256.22Z" fill="black"/>
<path d="M244.898 249.87H238.488V256.22H244.898V249.87Z" fill="black"/>
<path d="M244.898 134.9H238.488V141.31H244.898V134.9Z" fill="black"/>
<path d="M244.898 115.79H238.488V122.14H244.898V115.79Z" fill="black"/>
<path d="M238.489 256.22H232.139V262.63H238.489V256.22Z" fill="black"/>
<path d="M238.489 141.31H232.139V147.72H238.489V141.31Z" fill="black"/>
<path d="M238.489 109.38H232.139V115.79H238.489V109.38Z" fill="black"/>
<path d="M232.139 307.32H225.729V313.67H232.139V307.32Z" fill="black"/>
<path d="M232.139 300.91H225.729V307.32H232.139V300.91Z" fill="black"/>
<path d="M232.139 294.56H225.729V300.91H232.139V294.56Z" fill="black"/>
<path d="M232.139 288.15H225.729V294.56H232.139V288.15Z" fill="black"/>
<path d="M232.139 281.74H225.729V288.15H232.139V281.74Z" fill="black"/>
<path d="M232.139 275.38H225.729V281.73H232.139V275.38Z" fill="black"/>
<path d="M232.139 268.98H225.729V275.39H232.139V268.98Z" fill="black"/>
<path d="M232.139 262.63H225.729V268.98H232.139V262.63Z" fill="black"/>
<path d="M232.139 141.31H225.729V147.72H232.139V141.31Z" fill="black"/>
<path d="M232.139 109.38H225.729V115.79H232.139V109.38Z" fill="black"/>
<path d="M225.719 313.68H219.369V320.09H225.719V313.68Z" fill="black"/>
<path d="M225.719 281.74H219.369V288.15H225.719V281.74Z" fill="black"/>
<path d="M225.719 268.98H219.369V275.39H225.719V268.98Z" fill="black"/>
<path d="M225.719 256.22H219.369V262.63H225.719V256.22Z" fill="black"/>
<path d="M225.719 249.87H219.369V256.22H225.719V249.87Z" fill="black"/>
<path d="M225.719 243.46H219.369V249.87H225.719V243.46Z" fill="black"/>
<path d="M225.719 141.31H219.369V147.72H225.719V141.31Z" fill="black"/>
<path d="M225.719 109.38H219.369V115.79H225.719V109.38Z" fill="black"/>
<path d="M219.389 313.68H212.979V320.09H219.389V313.68Z" fill="black"/>
<path d="M219.389 281.74H212.979V288.15H219.389V281.74Z" fill="black"/>
<path d="M219.389 268.98H212.979V275.39H219.389V268.98Z" fill="black"/>
<path d="M219.389 237.05H212.979V243.46H219.389V237.05Z" fill="black"/>
<path d="M219.389 141.31H212.979V147.72H219.389V141.31Z" fill="black"/>
<path d="M219.389 109.38H212.979V115.79H219.389V109.38Z" fill="black"/>
<path d="M212.959 313.68H206.609V320.09H212.959V313.68Z" fill="black"/>
<path d="M212.959 281.74H206.609V288.15H212.959V281.74Z" fill="black"/>
<path d="M212.959 268.98H206.609V275.39H212.959V268.98Z" fill="black"/>
<path d="M212.959 230.7H206.609V237.05H212.959V230.7Z" fill="black"/>
<path d="M212.959 141.31H206.609V147.72H212.959V141.31Z" fill="black"/>
<path d="M212.959 109.38H206.609V115.79H212.959V109.38Z" fill="black"/>
<path d="M206.619 313.68H200.209V320.09H206.619V313.68Z" fill="black"/>
<path d="M206.619 281.74H200.209V288.15H206.619V281.74Z" fill="black"/>
<path d="M206.619 268.98H200.209V275.39H206.619V268.98Z" fill="black"/>
<path d="M206.619 230.7H200.209V237.05H206.619V230.7Z" fill="black"/>
<path d="M206.619 141.31H200.209V147.72H206.619V141.31Z" fill="black"/>
<path d="M206.619 115.79H200.209V122.14H206.619V115.79Z" fill="black"/>
<path d="M200.209 313.68H193.799V320.09H200.209V313.68Z" fill="black"/>
<path d="M200.209 294.56H193.799V300.91H200.209V294.56Z" fill="black"/>
<path d="M200.209 288.15H193.799V294.56H200.209V288.15Z" fill="black"/>
<path d="M200.209 281.74H193.799V288.15H200.209V281.74Z" fill="black"/>
<path d="M200.209 268.98H193.799V275.39H200.209V268.98Z" fill="black"/>
<path d="M200.209 262.63H193.799V268.98H200.209V262.63Z" fill="black"/>
<path d="M200.209 256.22H193.799V262.63H200.209V256.22Z" fill="black"/>
<path d="M200.209 249.87H193.799V256.22H200.209V249.87Z" fill="black"/>
<path d="M200.209 243.46H193.799V249.87H200.209V243.46Z" fill="black"/>
<path d="M200.209 237.05H193.799V243.46H200.209V237.05Z" fill="black"/>
<path d="M200.209 147.72H193.799V154.07H200.209V147.72Z" fill="black"/>
<path d="M200.209 122.14H193.799V128.55H200.209V122.14Z" fill="black"/>
<path d="M193.799 313.68H187.449V320.09H193.799V313.68Z" fill="black"/>
<path d="M193.799 294.56H187.449V300.91H193.799V294.56Z" fill="black"/>
<path d="M193.799 281.74H187.449V288.15H193.799V281.74Z" fill="black"/>
<path d="M193.799 275.38H187.449V281.73H193.799V275.38Z" fill="black"/>
<path d="M193.799 268.98H187.449V275.39H193.799V268.98Z" fill="black"/>
<path d="M193.799 243.46H187.449V249.87H193.799V243.46Z" fill="black"/>
<path d="M193.799 224.28H187.449V230.69H193.799V224.28Z" fill="black"/>
<path d="M193.799 217.94H187.449V224.29H193.799V217.94Z" fill="black"/>
<path d="M193.799 166.83H187.449V173.24H193.799V166.83Z" fill="black"/>
<path d="M193.799 160.48H187.449V166.83H193.799V160.48Z" fill="black"/>
<path d="M193.799 154.07H187.449V160.48H193.799V154.07Z" fill="black"/>
<path d="M193.799 147.72H187.449V154.07H193.799V147.72Z" fill="black"/>
<path d="M193.799 141.31H187.449V147.72H193.799V141.31Z" fill="black"/>
<path d="M193.799 134.9H187.449V141.31H193.799V134.9Z" fill="black"/>
<path d="M193.799 128.55H187.449V134.9H193.799V128.55Z" fill="black"/>
<path d="M187.449 313.68H181.039V320.09H187.449V313.68Z" fill="black"/>
<path d="M187.449 294.56H181.039V300.91H187.449V294.56Z" fill="black"/>
<path d="M187.449 237.05H181.039V243.46H187.449V237.05Z" fill="black"/>
<path d="M187.449 230.7H181.039V237.05H187.449V230.7Z" fill="black"/>
<path d="M187.449 211.52H181.039V217.93H187.449V211.52Z" fill="black"/>
<path d="M187.449 205.18H181.039V211.53H187.449V205.18Z" fill="black"/>
<path d="M187.449 198.76H181.039V205.17H187.449V198.76Z" fill="black"/>
<path d="M187.449 192.42H181.039V198.77H187.449V192.42Z" fill="black"/>
<path d="M187.449 186H181.039V192.41H187.449V186Z" fill="black"/>
<path d="M187.449 179.59H181.039V186H187.449V179.59Z" fill="black"/>
<path d="M187.449 173.24H181.039V179.59H187.449V173.24Z" fill="black"/>
<path d="M187.449 154.07H181.039V160.48H187.449V154.07Z" fill="black"/>
<path d="M181.039 307.32H174.689V313.67H181.039V307.32Z" fill="black"/>
<path d="M181.039 300.91H174.689V307.32H181.039V300.91Z" fill="black"/>
<path d="M181.039 198.76H174.689V205.17H181.039V198.76Z" fill="black"/>
<path d="M181.039 160.48H174.689V166.83H181.039V160.48Z" fill="black"/>
<path d="M174.68 205.18H168.27V211.53H174.68V205.18Z" fill="black"/>
<path d="M174.68 166.83H168.27V173.24H174.68V166.83Z" fill="black"/>
<path d="M168.268 205.18H161.918V211.53H168.268V205.18Z" fill="black"/>
<path d="M168.268 186H161.918V192.41H168.268V186Z" fill="black"/>
<path d="M168.268 179.59H161.918V186H168.268V179.59Z" fill="black"/>
<path d="M168.268 173.24H161.918V179.59H168.268V173.24Z" fill="black"/>
<path d="M168.268 160.48H161.918V166.83H168.268V160.48Z" fill="black"/>
<path d="M168.268 154.07H161.918V160.48H168.268V154.07Z" fill="black"/>
<path d="M168.268 147.72H161.918V154.07H168.268V147.72Z" fill="black"/>
<path d="M168.268 141.31H161.918V147.72H168.268V141.31Z" fill="black"/>
<path d="M168.268 134.9H161.918V141.31H168.268V134.9Z" fill="black"/>
<path d="M168.268 128.55H161.918V134.9H168.268V128.55Z" fill="black"/>
<path d="M161.93 211.52H155.52V217.93H161.93V211.52Z" fill="black"/>
<path d="M161.93 186H155.52V192.41H161.93V186Z" fill="black"/>
<path d="M161.93 166.83H155.52V173.24H161.93V166.83Z" fill="black"/>
<path d="M161.93 122.14H155.52V128.55H161.93V122.14Z" fill="black"/>
<path d="M155.508 211.52H149.098V217.93H155.508V211.52Z" fill="black"/>
<path d="M155.508 192.42H149.098V198.77H155.508V192.42Z" fill="black"/>
<path d="M155.508 160.48H149.098V166.83H155.508V160.48Z" fill="black"/>
<path d="M155.508 128.55H149.098V134.9H155.508V128.55Z" fill="black"/>
<path d="M149.108 268.98H142.758V275.39H149.108V268.98Z" fill="black"/>
<path d="M149.108 262.63H142.758V268.98H149.108V262.63Z" fill="black"/>
<path d="M149.108 217.94H142.758V224.29H149.108V217.94Z" fill="black"/>
<path d="M149.108 198.76H142.758V205.17H149.108V198.76Z" fill="black"/>
<path d="M149.108 154.07H142.758V160.48H149.108V154.07Z" fill="black"/>
<path d="M149.108 134.9H142.758V141.31H149.108V134.9Z" fill="black"/>
<path d="M149.108 115.79H142.758V122.14H149.108V115.79Z" fill="black"/>
<path d="M142.748 275.38H136.338V281.73H142.748V275.38Z" fill="black"/>
<path d="M142.748 256.22H136.338V262.63H142.748V256.22Z" fill="black"/>
<path d="M142.748 249.87H136.338V256.22H142.748V249.87Z" fill="black"/>
<path d="M142.748 243.46H136.338V249.87H142.748V243.46Z" fill="black"/>
<path d="M142.748 237.05H136.338V243.46H142.748V237.05Z" fill="black"/>
<path d="M142.748 230.7H136.338V237.05H142.748V230.7Z" fill="black"/>
<path d="M142.748 224.28H136.338V230.69H142.748V224.28Z" fill="black"/>
<path d="M142.748 192.42H136.338V198.77H142.748V192.42Z" fill="black"/>
<path d="M142.748 186H136.338V192.41H142.748V186Z" fill="black"/>
<path d="M142.748 179.59H136.338V186H142.748V179.59Z" fill="black"/>
<path d="M142.748 173.24H136.338V179.59H142.748V173.24Z" fill="black"/>
<path d="M142.748 166.83H136.338V173.24H142.748V166.83Z" fill="black"/>
<path d="M142.748 160.48H136.338V166.83H142.748V160.48Z" fill="black"/>
<path d="M142.748 154.07H136.338V160.48H142.748V154.07Z" fill="black"/>
<path d="M142.748 147.72H136.338V154.07H142.748V147.72Z" fill="black"/>
<path d="M142.748 141.31H136.338V147.72H142.748V141.31Z" fill="black"/>
<path d="M142.748 134.9H136.338V141.31H142.748V134.9Z" fill="black"/>
<path d="M142.748 128.55H136.338V134.9H142.748V128.55Z" fill="black"/>
<path d="M142.748 122.14H136.338V128.55H142.748V122.14Z" fill="black"/>
<path d="M142.748 109.38H136.338V115.79H142.748V109.38Z" fill="black"/>
<path d="M136.338 281.74H129.988V288.15H136.338V281.74Z" fill="black"/>
<path d="M136.338 224.28H129.988V230.69H136.338V224.28Z" fill="black"/>
<path d="M136.338 186H129.988V192.41H136.338V186Z" fill="black"/>
<path d="M136.338 109.38H129.988V115.79H136.338V109.38Z" fill="black"/>
<path d="M129.988 275.38H123.578V281.73H129.988V275.38Z" fill="black"/>
<path d="M129.988 256.22H123.578V262.63H129.988V256.22Z" fill="black"/>
<path d="M129.988 249.87H123.578V256.22H129.988V249.87Z" fill="black"/>
<path d="M129.988 243.46H123.578V249.87H129.988V243.46Z" fill="black"/>
<path d="M129.988 237.05H123.578V243.46H129.988V237.05Z" fill="black"/>
<path d="M129.988 230.7H123.578V237.05H129.988V230.7Z" fill="black"/>
<path d="M129.988 224.28H123.578V230.69H129.988V224.28Z" fill="black"/>
<path d="M129.988 186H123.578V192.41H129.988V186Z" fill="black"/>
<path d="M129.988 179.59H123.578V186H129.988V179.59Z" fill="black"/>
<path d="M129.988 173.24H123.578V179.59H129.988V173.24Z" fill="black"/>
<path d="M129.988 166.83H123.578V173.24H129.988V166.83Z" fill="black"/>
<path d="M129.988 160.48H123.578V166.83H129.988V160.48Z" fill="black"/>
<path d="M129.988 154.07H123.578V160.48H129.988V154.07Z" fill="black"/>
<path d="M129.988 147.72H123.578V154.07H129.988V147.72Z" fill="black"/>
<path d="M129.988 141.31H123.578V147.72H129.988V141.31Z" fill="black"/>
<path d="M129.988 134.9H123.578V141.31H129.988V134.9Z" fill="black"/>
<path d="M129.988 128.55H123.578V134.9H129.988V128.55Z" fill="black"/>
<path d="M129.988 122.14H123.578V128.55H129.988V122.14Z" fill="black"/>
<path d="M129.988 109.38H123.578V115.79H129.988V109.38Z" fill="black"/>
<path d="M123.579 268.98H117.229V275.39H123.579V268.98Z" fill="black"/>
<path d="M123.579 262.63H117.229V268.98H123.579V262.63Z" fill="black"/>
<path d="M123.579 217.94H117.229V224.29H123.579V217.94Z" fill="black"/>
<path d="M123.579 211.52H117.229V217.93H123.579V211.52Z" fill="black"/>
<path d="M123.579 205.18H117.229V211.53H123.579V205.18Z" fill="black"/>
<path d="M123.579 198.76H117.229V205.17H123.579V198.76Z" fill="black"/>
<path d="M123.579 192.42H117.229V198.77H123.579V192.42Z" fill="black"/>
<path d="M123.579 154.07H117.229V160.48H123.579V154.07Z" fill="black"/>
<path d="M123.579 134.9H117.229V141.31H123.579V134.9Z" fill="black"/>
<path d="M123.579 115.79H117.229V122.14H123.579V115.79Z" fill="black"/>
<path d="M117.228 154.07H110.818V160.48H117.228V154.07Z" fill="black"/>
<path d="M117.228 134.9H110.818V141.31H117.228V134.9Z" fill="black"/>
<path d="M110.819 160.48H104.469V166.83H110.819V160.48Z" fill="black"/>
<path d="M110.819 128.55H104.469V134.9H110.819V128.55Z" fill="black"/>
<path d="M104.469 173.24H98.0586V179.59H104.469V173.24Z" fill="black"/>
<path d="M104.469 166.83H98.0586V173.24H104.469V166.83Z" fill="black"/>
<path d="M104.469 122.14H98.0586V128.55H104.469V122.14Z" fill="black"/>
<path d="M104.469 115.79H98.0586V122.14H104.469V115.79Z" fill="black"/>
<path d="M302.33 198.76H295.98V205.17H302.33V198.76Z" fill="#373370"/>
<path d="M302.33 192.42H295.98V198.77H302.33V192.42Z" fill="#373370"/>
<path d="M295.99 205.18H289.58V211.53H295.99V205.18Z" fill="#373370"/>
<path d="M295.99 198.76H289.58V205.17H295.99V198.76Z" fill="#373370"/>
<path d="M295.99 192.42H289.58V198.77H295.99V192.42Z" fill="#373370"/>
<path d="M295.99 186H289.58V192.41H295.99V186Z" fill="#373370"/>
<path d="M289.569 243.46H283.219V249.87H289.569V243.46Z" fill="#E2A066"/>
<path d="M289.569 211.52H283.219V217.93H289.569V211.52Z" fill="#373370"/>
<path d="M289.569 205.18H283.219V211.53H289.569V205.18Z" fill="#373370"/>
<path d="M289.569 198.76H283.219V205.17H289.569V198.76Z" fill="#453D7C"/>
<path d="M289.569 192.42H283.219V198.77H289.569V192.42Z" fill="#453D7C"/>
<path d="M289.569 186H283.219V192.41H289.569V186Z" fill="#373370"/>
<path d="M289.569 179.59H283.219V186H289.569V179.59Z" fill="#373370"/>
<path d="M289.569 166.83H283.219V173.24H289.569V166.83Z" fill="#CFAA18"/>
<path d="M283.219 307.32H276.809V313.67H283.219V307.32Z" fill="#7C6916"/>
<path d="M283.219 300.91H276.809V307.32H283.219V300.91Z" fill="#7C6916"/>
<path d="M283.219 243.46H276.809V249.87H283.219V243.46Z" fill="#E2A066"/>
<path d="M283.219 237.05H276.809V243.46H283.219V237.05Z" fill="#E2A066"/>
<path d="M283.219 224.28H276.809V230.69H283.219V224.28Z" fill="#453D7C"/>
<path d="M283.219 217.94H276.809V224.29H283.219V217.94Z" fill="#453D7C"/>
<path d="M283.219 211.52H276.809V217.93H283.219V211.52Z" fill="#453D7C"/>
<path d="M283.219 205.18H276.809V211.53H283.219V205.18Z" fill="#453D7C"/>
<path d="M283.219 198.76H276.809V205.17H283.219V198.76Z" fill="#453D7C"/>
<path d="M283.219 192.42H276.809V198.77H283.219V192.42Z" fill="#453D7C"/>
<path d="M283.219 186H276.809V192.41H283.219V186Z" fill="#453D7C"/>
<path d="M283.219 173.24H276.809V179.59H283.219V173.24Z" fill="#CFAA18"/>
<path d="M283.219 166.83H276.809V173.24H283.219V166.83Z" fill="#CFAA18"/>
<path d="M283.219 160.48H276.809V166.83H283.219V160.48Z" fill="#CFAA18"/>
<path d="M276.809 307.32H270.459V313.67H276.809V307.32Z" fill="#7C6916"/>
<path d="M276.809 300.91H270.459V307.32H276.809V300.91Z" fill="#7C6916"/>
<path d="M276.809 294.56H270.459V300.91H276.809V294.56Z" fill="#7C6916"/>
<path d="M276.809 275.38H270.459V281.73H276.809V275.38Z" fill="#7C6916"/>
<path d="M276.809 243.46H270.459V249.87H276.809V243.46Z" fill="#E2A066"/>
<path d="M276.809 237.05H270.459V243.46H276.809V237.05Z" fill="#E2A066"/>
<path d="M276.809 230.7H270.459V237.05H276.809V230.7Z" fill="#E2A066"/>
<path d="M276.809 217.94H270.459V224.29H276.809V217.94Z" fill="#453D7C"/>
<path d="M276.809 211.52H270.459V217.93H276.809V211.52Z" fill="#453D7C"/>
<path d="M276.809 179.59H270.459V186H276.809V179.59Z" fill="#CFAA18"/>
<path d="M276.809 173.24H270.459V179.59H276.809V173.24Z" fill="#B28A0D"/>
<path d="M276.809 166.83H270.459V173.24H276.809V166.83Z" fill="#B28A0D"/>
<path d="M276.809 160.48H270.459V166.83H276.809V160.48Z" fill="#CFAA18"/>
<path d="M270.459 307.32H264.049V313.67H270.459V307.32Z" fill="#A18824"/>
<path d="M270.459 300.91H264.049V307.32H270.459V300.91Z" fill="#7C6916"/>
<path d="M270.459 294.56H264.049V300.91H270.459V294.56Z" fill="#7C6916"/>
<path d="M270.459 288.15H264.049V294.56H270.459V288.15Z" fill="#7C6916"/>
<path d="M270.459 275.38H264.049V281.73H270.459V275.38Z" fill="#7C6916"/>
<path d="M270.459 262.63H264.049V268.98H270.459V262.63Z" fill="#373370"/>
<path d="M270.459 256.22H264.049V262.63H270.459V256.22Z" fill="#373370"/>
<path d="M270.459 249.87H264.049V256.22H270.459V249.87Z" fill="#373370"/>
<path d="M270.459 237.05H264.049V243.46H270.459V237.05Z" fill="#E2A066"/>
<path d="M270.459 230.7H264.049V237.05H270.459V230.7Z" fill="#E2A066"/>
<path d="M270.459 205.18H264.049V211.53H270.459V205.18Z" fill="#CFAA18"/>
<path d="M270.459 198.76H264.049V205.17H270.459V198.76Z" fill="#CFAA18"/>
<path d="M270.459 192.42H264.049V198.77H270.459V192.42Z" fill="#CFAA18"/>
<path d="M270.459 186H264.049V192.41H270.459V186Z" fill="#CFAA18"/>
<path d="M270.459 179.59H264.049V186H270.459V179.59Z" fill="#CFAA18"/>
<path d="M270.459 173.24H264.049V179.59H270.459V173.24Z" fill="#CFAA18"/>
<path d="M270.459 166.83H264.049V173.24H270.459V166.83Z" fill="#B28A0D"/>
<path d="M270.459 160.48H264.049V166.83H270.459V160.48Z" fill="#B28A0D"/>
<path d="M270.459 154.07H264.049V160.48H270.459V154.07Z" fill="#CFAA18"/>
<path d="M270.459 147.72H264.049V154.07H270.459V147.72Z" fill="#CFAA18"/>
<path d="M264.049 307.32H257.639V313.67H264.049V307.32Z" fill="#A18824"/>
<path d="M264.049 300.91H257.639V307.32H264.049V300.91Z" fill="#A18824"/>
<path d="M264.049 294.56H257.639V300.91H264.049V294.56Z" fill="#A18824"/>
<path d="M264.049 288.15H257.639V294.56H264.049V288.15Z" fill="#A18824"/>
<path d="M264.049 275.38H257.639V281.73H264.049V275.38Z" fill="#7C6916"/>
<path d="M264.049 262.63H257.639V268.98H264.049V262.63Z" fill="#373370"/>
<path d="M264.049 256.22H257.639V262.63H264.049V256.22Z" fill="#373370"/>
<path d="M264.049 249.87H257.639V256.22H264.049V249.87Z" fill="#373370"/>
<path d="M264.049 243.46H257.639V249.87H264.049V243.46Z" fill="#373370"/>
<path d="M264.049 224.28H257.639V230.69H264.049V224.28Z" fill="#CFAA18"/>
<path d="M264.049 217.94H257.639V224.29H264.049V217.94Z" fill="#CFAA18"/>
<path d="M264.049 211.52H257.639V217.93H264.049V211.52Z" fill="#CFAA18"/>
<path d="M264.049 205.18H257.639V211.53H264.049V205.18Z" fill="#CFAA18"/>
<path d="M264.049 198.76H257.639V205.17H264.049V198.76Z" fill="#CFAA18"/>
<path d="M264.049 192.42H257.639V198.77H264.049V192.42Z" fill="#B28A0D"/>
<path d="M264.049 186H257.639V192.41H264.049V186Z" fill="#B28A0D"/>
<path d="M264.049 179.59H257.639V186H264.049V179.59Z" fill="#CFAA18"/>
<path d="M264.049 173.24H257.639V179.59H264.049V173.24Z" fill="#CFAA18"/>
<path d="M264.049 166.83H257.639V173.24H264.049V166.83Z" fill="#CFAA18"/>
<path d="M264.049 160.48H257.639V166.83H264.049V160.48Z" fill="#CFAA18"/>
<path d="M264.049 154.07H257.639V160.48H264.049V154.07Z" fill="#CFAA18"/>
<path d="M264.049 109.38H257.639V115.79H264.049V109.38Z" fill="black"/>
<path d="M264.049 103.03H257.639V109.38H264.049V103.03Z" fill="black"/>
<path d="M264.049 96.6201H257.639V103.03H264.049V96.6201Z" fill="black"/>
<path d="M264.049 90.27H257.639V96.62H264.049V90.27Z" fill="black"/>
<path d="M257.629 307.32H251.279V313.67H257.629V307.32Z" fill="#A18824"/>
<path d="M257.629 300.91H251.279V307.32H257.629V300.91Z" fill="#A18824"/>
<path d="M257.629 294.56H251.279V300.91H257.629V294.56Z" fill="#A18824"/>
<path d="M257.629 288.15H251.279V294.56H257.629V288.15Z" fill="#A18824"/>
<path d="M257.629 275.38H251.279V281.73H257.629V275.38Z" fill="#A18824"/>
<path d="M257.629 262.63H251.279V268.98H257.629V262.63Z" fill="#453D7C"/>
<path d="M257.629 256.22H251.279V262.63H257.629V256.22Z" fill="#453D7C"/>
<path d="M257.629 249.87H251.279V256.22H257.629V249.87Z" fill="#453D7C"/>
<path d="M257.629 243.46H251.279V249.87H257.629V243.46Z" fill="#373370"/>
<path d="M257.629 230.7H251.279V237.05H257.629V230.7Z" fill="#CFAA18"/>
<path d="M257.629 224.28H251.279V230.69H257.629V224.28Z" fill="#CFAA18"/>
<path d="M257.629 217.94H251.279V224.29H257.629V217.94Z" fill="#CFAA18"/>
<path d="M257.629 211.52H251.279V217.93H257.629V211.52Z" fill="#CFAA18"/>
<path d="M257.629 205.18H251.279V211.53H257.629V205.18Z" fill="#B28A0D"/>
<path d="M257.629 198.76H251.279V205.17H257.629V198.76Z" fill="#B28A0D"/>
<path d="M257.629 192.42H251.279V198.77H257.629V192.42Z" fill="#CFAA18"/>
<path d="M257.629 186H251.279V192.41H257.629V186Z" fill="#CFAA18"/>
<path d="M257.629 179.59H251.279V186H257.629V179.59Z" fill="#CFAA18"/>
<path d="M257.629 173.24H251.279V179.59H257.629V173.24Z" fill="#CFAA18"/>
<path d="M257.629 166.83H251.279V173.24H257.629V166.83Z" fill="#CFAA18"/>
<path d="M257.629 160.48H251.279V166.83H257.629V160.48Z" fill="#CFAA18"/>
<path d="M257.629 154.07H251.279V160.48H257.629V154.07Z" fill="#CFAA18"/>
<path d="M257.629 147.72H251.279V154.07H257.629V147.72Z" fill="#CFAA18"/>
<path d="M257.629 115.79H251.279V122.14H257.629V115.79Z" fill="black"/>
<path d="M257.629 109.38H251.279V115.79H257.629V109.38Z" fill="#CFAA18"/>
<path d="M257.629 103.03H251.279V109.38H257.629V103.03Z" fill="#CFAA18"/>
<path d="M257.629 96.6201H251.279V103.03H257.629V96.6201Z" fill="black"/>
<path d="M251.289 307.32H244.879V313.67H251.289V307.32Z" fill="#A18824"/>
<path d="M251.289 300.91H244.879V307.32H251.289V300.91Z" fill="#A18824"/>
<path d="M251.289 294.56H244.879V300.91H251.289V294.56Z" fill="#A18824"/>
<path d="M251.289 275.38H244.879V281.73H251.289V275.38Z" fill="#A18824"/>
<path d="M251.289 262.63H244.879V268.98H251.289V262.63Z" fill="#453D7C"/>
<path d="M251.289 256.22H244.879V262.63H251.289V256.22Z" fill="#453D7C"/>
<path d="M251.289 249.87H244.879V256.22H251.289V249.87Z" fill="#453D7C"/>
<path d="M251.289 237.05H244.879V243.46H251.289V237.05Z" fill="#CFAA18"/>
<path d="M251.289 230.7H244.879V237.05H251.289V230.7Z" fill="#CFAA18"/>
<path d="M251.289 224.28H244.879V230.69H251.289V224.28Z" fill="#CFAA18"/>
<path d="M251.289 217.94H244.879V224.29H251.289V217.94Z" fill="#B28A0D"/>
<path d="M251.289 211.52H244.879V217.93H251.289V211.52Z" fill="#CFAA18"/>
<path d="M251.289 205.18H244.879V211.53H251.289V205.18Z" fill="#CFAA18"/>
<path d="M251.289 198.76H244.879V205.17H251.289V198.76Z" fill="#B28A0D"/>
<path d="M251.289 192.42H244.879V198.77H251.289V192.42Z" fill="#B28A0D"/>
<path d="M251.289 186H244.879V192.41H251.289V186Z" fill="#CFAA18"/>
<path d="M251.289 179.59H244.879V186H251.289V179.59Z" fill="#CFAA18"/>
<path d="M251.289 173.24H244.879V179.59H251.289V173.24Z" fill="#B28A0D"/>
<path d="M251.289 166.83H244.879V173.24H251.289V166.83Z" fill="#B28A0D"/>
<path d="M251.289 160.48H244.879V166.83H251.289V160.48Z" fill="#CFAA18"/>
<path d="M251.289 154.07H244.879V160.48H251.289V154.07Z" fill="#B28A0D"/>
<path d="M251.289 147.72H244.879V154.07H251.289V147.72Z" fill="#CFAA18"/>
<path d="M251.289 141.31H244.879V147.72H251.289V141.31Z" fill="#CFAA18"/>
<path d="M251.289 115.79H244.879V122.14H251.289V115.79Z" fill="#CFAA18"/>
<path d="M251.289 109.38H244.879V115.79H251.289V109.38Z" fill="#CFAA18"/>
<path d="M251.289 103.03H244.879V109.38H251.289V103.03Z" fill="black"/>
<path d="M244.879 243.46H238.529V249.87H244.879V243.46Z" fill="#CFAA18"/>
<path d="M244.879 237.05H238.529V243.46H244.879V237.05Z" fill="#CFAA18"/>
<path d="M244.879 230.7H238.529V237.05H244.879V230.7Z" fill="#CFAA18"/>
<path d="M244.879 224.28H238.529V230.69H244.879V224.28Z" fill="#CFAA18"/>
<path d="M244.879 217.94H238.529V224.29H244.879V217.94Z" fill="#CFAA18"/>
<path d="M244.879 211.52H238.529V217.93H244.879V211.52Z" fill="#B28A0D"/>
<path d="M244.879 205.18H238.529V211.53H244.879V205.18Z" fill="#CFAA18"/>
<path d="M244.879 198.76H238.529V205.17H244.879V198.76Z" fill="#CFAA18"/>
<path d="M244.879 192.42H238.529V198.77H244.879V192.42Z" fill="#CFAA18"/>
<path d="M244.879 186H238.529V192.41H244.879V186Z" fill="#CFAA18"/>
<path d="M244.879 179.59H238.529V186H244.879V179.59Z" fill="#CFAA18"/>
<path d="M244.879 173.24H238.529V179.59H244.879V173.24Z" fill="#CFAA18"/>
<path d="M244.879 166.83H238.529V173.24H244.879V166.83Z" fill="#CFAA18"/>
<path d="M244.879 160.48H238.529V166.83H244.879V160.48Z" fill="#B28A0D"/>
<path d="M244.879 154.07H238.529V160.48H244.879V154.07Z" fill="#B28A0D"/>
<path d="M244.879 147.72H238.529V154.07H244.879V147.72Z" fill="#CE8A57"/>
<path d="M244.879 141.31H238.529V147.72H244.879V141.31Z" fill="#CE8A57"/>
<path d="M244.879 128.55H238.529V134.9H244.879V128.55Z" fill="#2C2E3A"/>
<path d="M244.879 122.14H238.529V128.55H244.879V122.14Z" fill="#091442"/>
<path d="M244.879 109.38H238.529V115.79H244.879V109.38Z" fill="black"/>
<path d="M238.529 249.87H232.119V256.22H238.529V249.87Z" fill="#CFAA18"/>
<path d="M238.529 243.46H232.119V249.87H238.529V243.46Z" fill="#B28A0D"/>
<path d="M238.529 237.05H232.119V243.46H238.529V237.05Z" fill="#B28A0D"/>
<path d="M238.529 230.7H232.119V237.05H238.529V230.7Z" fill="#CFAA18"/>
<path d="M238.529 224.28H232.119V230.69H238.529V224.28Z" fill="#CFAA18"/>
<path d="M238.529 217.94H232.119V224.29H238.529V217.94Z" fill="#CFAA18"/>
<path d="M238.529 211.52H232.119V217.93H238.529V211.52Z" fill="#CFAA18"/>
<path d="M238.529 205.18H232.119V211.53H238.529V205.18Z" fill="#B28A0D"/>
<path d="M238.529 198.76H232.119V205.17H238.529V198.76Z" fill="#B28A0D"/>
<path d="M238.529 192.42H232.119V198.77H238.529V192.42Z" fill="#CFAA18"/>
<path d="M238.529 186H232.119V192.41H238.529V186Z" fill="#CFAA18"/>
<path d="M238.529 179.59H232.119V186H238.529V179.59Z" fill="#B28A0D"/>
<path d="M238.529 173.24H232.119V179.59H238.529V173.24Z" fill="#CFAA18"/>
<path d="M238.529 166.83H232.119V173.24H238.529V166.83Z" fill="#CFAA18"/>
<path d="M238.529 160.48H232.119V166.83H238.529V160.48Z" fill="#CFAA18"/>
<path d="M238.529 154.07H232.119V160.48H238.529V154.07Z" fill="#CE8A57"/>
<path d="M238.529 147.72H232.119V154.07H238.529V147.72Z" fill="#E2A066"/>
<path d="M238.529 134.9H232.119V141.31H238.529V134.9Z" fill="#091442"/>
<path d="M238.529 128.55H232.119V134.9H238.529V128.55Z" fill="#091442"/>
<path d="M238.529 122.14H232.119V128.55H238.529V122.14Z" fill="#091442"/>
<path d="M238.529 115.79H232.119V122.14H238.529V115.79Z" fill="#091442"/>
<path d="M232.12 256.22H225.77V262.63H232.12V256.22Z" fill="#CFAA18"/>
<path d="M232.12 249.87H225.77V256.22H232.12V249.87Z" fill="#CFAA18"/>
<path d="M232.12 243.46H225.77V249.87H232.12V243.46Z" fill="#CFAA18"/>
<path d="M232.12 237.05H225.77V243.46H232.12V237.05Z" fill="#CFAA18"/>
<path d="M232.12 230.7H225.77V237.05H232.12V230.7Z" fill="#CFAA18"/>
<path d="M232.12 224.28H225.77V230.69H232.12V224.28Z" fill="#B28A0D"/>
<path d="M232.12 217.94H225.77V224.29H232.12V217.94Z" fill="#CFAA18"/>
<path d="M232.12 211.52H225.77V217.93H232.12V211.52Z" fill="#CFAA18"/>
<path d="M232.12 205.18H225.77V211.53H232.12V205.18Z" fill="#CFAA18"/>
<path d="M232.12 198.76H225.77V205.17H232.12V198.76Z" fill="#B28A0D"/>
<path d="M232.12 192.42H225.77V198.77H232.12V192.42Z" fill="#CFAA18"/>
<path d="M232.12 186H225.77V192.41H232.12V186Z" fill="#CFAA18"/>
<path d="M232.12 179.59H225.77V186H232.12V179.59Z" fill="#B28A0D"/>
<path d="M232.12 173.24H225.77V179.59H232.12V173.24Z" fill="#CFAA18"/>
<path d="M232.12 166.83H225.77V173.24H232.12V166.83Z" fill="#CFAA18"/>
<path d="M232.12 160.48H225.77V166.83H232.12V160.48Z" fill="#FFC78F"/>
<path d="M232.12 154.07H225.77V160.48H232.12V154.07Z" fill="#FFC78F"/>
<path d="M232.12 147.72H225.77V154.07H232.12V147.72Z" fill="#E2A066"/>
<path d="M232.12 134.9H225.77V141.31H232.12V134.9Z" fill="#2C2E3A"/>
<path d="M232.12 128.55H225.77V134.9H232.12V128.55Z" fill="#101A54"/>
<path d="M232.12 122.14H225.77V128.55H232.12V122.14Z" fill="#101A54"/>
<path d="M232.12 115.79H225.77V122.14H232.12V115.79Z" fill="#091442"/>
<path d="M225.769 307.32H219.359V313.67H225.769V307.32Z" fill="#7C6916"/>
<path d="M225.769 300.91H219.359V307.32H225.769V300.91Z" fill="#7C6916"/>
<path d="M225.769 294.56H219.359V300.91H225.769V294.56Z" fill="#7C6916"/>
<path d="M225.769 288.15H219.359V294.56H225.769V288.15Z" fill="#7C6916"/>
<path d="M225.769 275.38H219.359V281.73H225.769V275.38Z" fill="#7C6916"/>
<path d="M225.769 262.63H219.359V268.98H225.769V262.63Z" fill="#373370"/>
<path d="M225.769 237.05H219.359V243.46H225.769V237.05Z" fill="#CFAA18"/>
<path d="M225.769 230.7H219.359V237.05H225.769V230.7Z" fill="#CFAA18"/>
<path d="M225.769 224.28H219.359V230.69H225.769V224.28Z" fill="#B28A0D"/>
<path d="M225.769 217.94H219.359V224.29H225.769V217.94Z" fill="#B28A0D"/>
<path d="M225.769 211.52H219.359V217.93H225.769V211.52Z" fill="#B28A0D"/>
<path d="M225.769 205.18H219.359V211.53H225.769V205.18Z" fill="#CFAA18"/>
<path d="M225.769 198.76H219.359V205.17H225.769V198.76Z" fill="#CFAA18"/>
<path d="M225.769 192.42H219.359V198.77H225.769V192.42Z" fill="#B28A0D"/>
<path d="M225.769 186H219.359V192.41H225.769V186Z" fill="#CFAA18"/>
<path d="M225.769 179.59H219.359V186H225.769V179.59Z" fill="#CFAA18"/>
<path d="M225.769 173.24H219.359V179.59H225.769V173.24Z" fill="#B28A0D"/>
<path d="M225.769 166.83H219.359V173.24H225.769V166.83Z" fill="#CFAA18"/>
<path d="M225.769 160.48H219.359V166.83H225.769V160.48Z" fill="#FFC78F"/>
<path d="M225.769 154.07H219.359V160.48H225.769V154.07Z" fill="#FFC78F"/>
<path d="M225.769 147.72H219.359V154.07H225.769V147.72Z" fill="#E2A066"/>
<path d="M225.769 134.9H219.359V141.31H225.769V134.9Z" fill="#101A54"/>
<path d="M225.769 128.55H219.359V134.9H225.769V128.55Z" fill="#101A54"/>
<path d="M225.769 122.14H219.359V128.55H225.769V122.14Z" fill="#101A54"/>
<path d="M225.769 115.79H219.359V122.14H225.769V115.79Z" fill="#101A54"/>
<path d="M219.359 307.32H212.949V313.67H219.359V307.32Z" fill="#A18824"/>
<path d="M219.359 300.91H212.949V307.32H219.359V300.91Z" fill="#7C6916"/>
<path d="M219.359 294.56H212.949V300.91H219.359V294.56Z" fill="#7C6916"/>
<path d="M219.359 288.15H212.949V294.56H219.359V288.15Z" fill="#7C6916"/>
<path d="M219.359 275.38H212.949V281.73H219.359V275.38Z" fill="#7C6916"/>
<path d="M219.359 262.63H212.949V268.98H219.359V262.63Z" fill="#373370"/>
<path d="M219.359 256.22H212.949V262.63H219.359V256.22Z" fill="#373370"/>
<path d="M219.359 249.87H212.949V256.22H219.359V249.87Z" fill="#373370"/>
<path d="M219.359 243.46H212.949V249.87H219.359V243.46Z" fill="#373370"/>
<path d="M219.359 230.7H212.949V237.05H219.359V230.7Z" fill="#CFAA18"/>
<path d="M219.359 224.28H212.949V230.69H219.359V224.28Z" fill="#CFAA18"/>
<path d="M219.359 217.94H212.949V224.29H219.359V217.94Z" fill="#CFAA18"/>
<path d="M219.359 211.52H212.949V217.93H219.359V211.52Z" fill="#B28A0D"/>
<path d="M219.359 205.18H212.949V211.53H219.359V205.18Z" fill="#CFAA18"/>
<path d="M219.359 198.76H212.949V205.17H219.359V198.76Z" fill="#CFAA18"/>
<path d="M219.359 192.42H212.949V198.77H219.359V192.42Z" fill="#CFAA18"/>
<path d="M219.359 186H212.949V192.41H219.359V186Z" fill="#CFAA18"/>
<path d="M219.359 179.59H212.949V186H219.359V179.59Z" fill="#B28A0D"/>
<path d="M219.359 173.24H212.949V179.59H219.359V173.24Z" fill="#CFAA18"/>
<path d="M219.359 166.83H212.949V173.24H219.359V166.83Z" fill="#CFAA18"/>
<path d="M219.359 160.48H212.949V166.83H219.359V160.48Z" fill="#FFC78F"/>
<path d="M219.359 154.07H212.949V160.48H219.359V154.07Z" fill="#FFC78F"/>
<path d="M219.359 147.72H212.949V154.07H219.359V147.72Z" fill="#E2A066"/>
<path d="M219.359 134.9H212.949V141.31H219.359V134.9Z" fill="#2C2E3A"/>
<path d="M219.359 128.55H212.949V134.9H219.359V128.55Z" fill="#101A54"/>
<path d="M219.359 122.14H212.949V128.55H219.359V122.14Z" fill="#101A54"/>
<path d="M219.359 115.79H212.949V122.14H219.359V115.79Z" fill="#101A54"/>
<path d="M212.95 307.32H206.6V313.67H212.95V307.32Z" fill="#A18824"/>
<path d="M212.95 300.91H206.6V307.32H212.95V300.91Z" fill="#A18824"/>
<path d="M212.95 294.56H206.6V300.91H212.95V294.56Z" fill="#7C6916"/>
<path d="M212.95 288.15H206.6V294.56H212.95V288.15Z" fill="#7C6916"/>
<path d="M212.95 275.38H206.6V281.73H212.95V275.38Z" fill="#7C6916"/>
<path d="M212.95 262.63H206.6V268.98H212.95V262.63Z" fill="#453D7C"/>
<path d="M212.95 256.22H206.6V262.63H212.95V256.22Z" fill="#453D7C"/>
<path d="M212.95 249.87H206.6V256.22H212.95V249.87Z" fill="#453D7C"/>
<path d="M212.95 243.46H206.6V249.87H212.95V243.46Z" fill="#373370"/>
<path d="M212.95 237.05H206.6V243.46H212.95V237.05Z" fill="#373370"/>
<path d="M212.95 224.28H206.6V230.69H212.95V224.28Z" fill="#CFAA18"/>
<path d="M212.95 217.94H206.6V224.29H212.95V217.94Z" fill="#CFAA18"/>
<path d="M212.95 211.52H206.6V217.93H212.95V211.52Z" fill="#CFAA18"/>
<path d="M212.95 205.18H206.6V211.53H212.95V205.18Z" fill="#CFAA18"/>
<path d="M212.95 198.76H206.6V205.17H212.95V198.76Z" fill="#CFAA18"/>
<path d="M212.95 192.42H206.6V198.77H212.95V192.42Z" fill="#CFAA18"/>
<path d="M212.95 186H206.6V192.41H212.95V186Z" fill="#CFAA18"/>
<path d="M212.95 179.59H206.6V186H212.95V179.59Z" fill="#B28A0D"/>
<path d="M212.95 173.24H206.6V179.59H212.95V173.24Z" fill="#CFAA18"/>
<path d="M212.95 166.83H206.6V173.24H212.95V166.83Z" fill="#CFAA18"/>
<path d="M212.95 160.48H206.6V166.83H212.95V160.48Z" fill="#FFC78F"/>
<path d="M212.95 154.07H206.6V160.48H212.95V154.07Z" fill="#FFC78F"/>
<path d="M212.95 147.72H206.6V154.07H212.95V147.72Z" fill="#E2A066"/>
<path d="M212.95 134.9H206.6V141.31H212.95V134.9Z" fill="#101A54"/>
<path d="M212.95 128.55H206.6V134.9H212.95V128.55Z" fill="#101A54"/>
<path d="M212.95 122.14H206.6V128.55H212.95V122.14Z" fill="#101A54"/>
<path d="M212.95 115.79H206.6V122.14H212.95V115.79Z" fill="#101A54"/>
<path d="M206.59 307.32H200.18V313.67H206.59V307.32Z" fill="#A18824"/>
<path d="M206.59 300.91H200.18V307.32H206.59V300.91Z" fill="#A18824"/>
<path d="M206.59 294.56H200.18V300.91H206.59V294.56Z" fill="#A18824"/>
<path d="M206.59 288.15H200.18V294.56H206.59V288.15Z" fill="#A18824"/>
<path d="M206.59 275.38H200.18V281.73H206.59V275.38Z" fill="#7C6916"/>
<path d="M206.59 262.63H200.18V268.98H206.59V262.63Z" fill="#453D7C"/>
<path d="M206.59 256.22H200.18V262.63H206.59V256.22Z" fill="#453D7C"/>
<path d="M206.59 249.87H200.18V256.22H206.59V249.87Z" fill="#453D7C"/>
<path d="M206.59 243.46H200.18V249.87H206.59V243.46Z" fill="#453D7C"/>
<path d="M206.59 237.05H200.18V243.46H206.59V237.05Z" fill="#373370"/>
<path d="M206.59 224.28H200.18V230.69H206.59V224.28Z" fill="#CFAA18"/>
<path d="M206.59 217.94H200.18V224.29H206.59V217.94Z" fill="#CFAA18"/>
<path d="M206.59 211.52H200.18V217.93H206.59V211.52Z" fill="#CFAA18"/>
<path d="M206.59 205.18H200.18V211.53H206.59V205.18Z" fill="#B28A0D"/>
<path d="M206.59 198.76H200.18V205.17H206.59V198.76Z" fill="#B28A0D"/>
<path d="M206.59 192.42H200.18V198.77H206.59V192.42Z" fill="#B28A0D"/>
<path d="M206.59 186H200.18V192.41H206.59V186Z" fill="#B28A0D"/>
<path d="M206.59 179.59H200.18V186H206.59V179.59Z" fill="#CFAA18"/>
<path d="M206.59 173.24H200.18V179.59H206.59V173.24Z" fill="#B28A0D"/>
<path d="M206.59 166.83H200.18V173.24H206.59V166.83Z" fill="#B28A0D"/>
<path d="M206.59 160.48H200.18V166.83H206.59V160.48Z" fill="#CFAA18"/>
<path d="M206.59 154.07H200.18V160.48H206.59V154.07Z" fill="#FFC78F"/>
<path d="M206.59 147.72H200.18V154.07H206.59V147.72Z" fill="#E2A066"/>
<path d="M206.59 134.9H200.18V141.31H206.59V134.9Z" fill="#2C2E3A"/>
<path d="M206.59 128.55H200.18V134.9H206.59V128.55Z" fill="#101A54"/>
<path d="M206.59 122.14H200.18V128.55H206.59V122.14Z" fill="#101A54"/>
<path d="M206.59 109.38H200.18V115.79H206.59V109.38Z" fill="black"/>
<path d="M200.18 307.32H193.83V313.67H200.18V307.32Z" fill="#A18824"/>
<path d="M200.18 300.91H193.83V307.32H200.18V300.91Z" fill="#A18824"/>
<path d="M200.18 275.38H193.83V281.73H200.18V275.38Z" fill="#A18824"/>
<path d="M200.18 230.7H193.83V237.05H200.18V230.7Z" fill="#CFAA18"/>
<path d="M200.18 224.28H193.83V230.69H200.18V224.28Z" fill="#CFAA18"/>
<path d="M200.18 217.94H193.83V224.29H200.18V217.94Z" fill="#CFAA18"/>
<path d="M200.18 211.52H193.83V217.93H200.18V211.52Z" fill="#B28A0D"/>
<path d="M200.18 205.18H193.83V211.53H200.18V205.18Z" fill="#B28A0D"/>
<path d="M200.18 198.76H193.83V205.17H200.18V198.76Z" fill="#CFAA18"/>
<path d="M200.18 192.42H193.83V198.77H200.18V192.42Z" fill="#CFAA18"/>
<path d="M200.18 186H193.83V192.41H200.18V186Z" fill="#B28A0D"/>
<path d="M200.18 179.59H193.83V186H200.18V179.59Z" fill="#B28A0D"/>
<path d="M200.18 173.24H193.83V179.59H200.18V173.24Z" fill="#CFAA18"/>
<path d="M200.18 166.83H193.83V173.24H200.18V166.83Z" fill="#CFAA18"/>
<path d="M200.18 160.48H193.83V166.83H200.18V160.48Z" fill="#CFAA18"/>
<path d="M200.18 154.07H193.83V160.48H200.18V154.07Z" fill="#CFAA18"/>
<path d="M200.18 141.31H193.83V147.72H200.18V141.31Z" fill="#2C2E3A"/>
<path d="M200.18 134.9H193.83V141.31H200.18V134.9Z" fill="#101A54"/>
<path d="M200.18 128.55H193.83V134.9H200.18V128.55Z" fill="#101A54"/>
<path d="M200.18 115.79H193.83V122.14H200.18V115.79Z" fill="#CFAA18"/>
<path d="M200.18 109.38H193.83V115.79H200.18V109.38Z" fill="#CFAA18"/>
<path d="M200.18 103.03H193.83V109.38H200.18V103.03Z" fill="black"/>
<path d="M193.83 307.32H187.42V313.67H193.83V307.32Z" fill="#A18824"/>
<path d="M193.83 300.91H187.42V307.32H193.83V300.91Z" fill="#A18824"/>
<path d="M193.83 237.05H187.42V243.46H193.83V237.05Z" fill="#CFAA18"/>
<path d="M193.83 230.7H187.42V237.05H193.83V230.7Z" fill="#CFAA18"/>
<path d="M193.83 211.52H187.42V217.93H193.83V211.52Z" fill="#CFAA18"/>
<path d="M193.83 205.18H187.42V211.53H193.83V205.18Z" fill="#CFAA18"/>
<path d="M193.83 198.76H187.42V205.17H193.83V198.76Z" fill="#CFAA18"/>
<path d="M193.83 192.42H187.42V198.77H193.83V192.42Z" fill="#CFAA18"/>
<path d="M193.83 186H187.42V192.41H193.83V186Z" fill="#CFAA18"/>
<path d="M193.83 179.59H187.42V186H193.83V179.59Z" fill="#A18824"/>
<path d="M193.83 173.24H187.42V179.59H193.83V173.24Z" fill="#CFAA18"/>
<path d="M193.83 122.14H187.42V128.55H193.83V122.14Z" fill="black"/>
<path d="M193.83 115.79H187.42V122.14H193.83V115.79Z" fill="black"/>
<path d="M193.83 109.38H187.42V115.79H193.83V109.38Z" fill="#CFAA18"/>
<path d="M193.83 103.03H187.42V109.38H193.83V103.03Z" fill="#CFAA18"/>
<path d="M193.83 96.6201H187.42V103.03H193.83V96.6201Z" fill="black"/>
<path d="M187.42 307.32H181.07V313.67H187.42V307.32Z" fill="#A18824"/>
<path d="M187.42 300.91H181.07V307.32H187.42V300.91Z" fill="#A18824"/>
<path d="M187.42 166.83H181.07V173.24H187.42V166.83Z" fill="#373370"/>
<path d="M187.42 160.48H181.07V166.83H187.42V160.48Z" fill="#373370"/>
<path d="M187.42 115.79H181.07V122.14H187.42V115.79Z" fill="black"/>
<path d="M187.42 109.38H181.07V115.79H187.42V109.38Z" fill="black"/>
<path d="M187.42 103.03H181.07V109.38H187.42V103.03Z" fill="black"/>
<path d="M187.42 96.6201H181.07V103.03H187.42V96.6201Z" fill="black"/>
<path d="M187.42 90.27H181.07V96.62H187.42V90.27Z" fill="black"/>
<path d="M181.07 192.42H174.66V198.77H181.07V192.42Z" fill="#373370"/>
<path d="M181.07 186H174.66V192.41H181.07V186Z" fill="#373370"/>
<path d="M181.07 179.59H174.66V186H181.07V179.59Z" fill="#373370"/>
<path d="M181.07 173.24H174.66V179.59H181.07V173.24Z" fill="#373370"/>
<path d="M181.07 166.83H174.66V173.24H181.07V166.83Z" fill="#373370"/>
<path d="M174.659 198.76H168.309V205.17H174.659V198.76Z" fill="#373370"/>
<path d="M174.659 192.42H168.309V198.77H174.659V192.42Z" fill="#373370"/>
<path d="M174.659 186H168.309V192.41H174.659V186Z" fill="#373370"/>
<path d="M174.659 179.59H168.309V186H174.659V179.59Z" fill="#373370"/>
<path d="M174.659 173.24H168.309V179.59H174.659V173.24Z" fill="#373370"/>
<path d="M168.31 198.76H161.9V205.17H168.31V198.76Z" fill="#373370"/>
<path d="M168.31 192.42H161.9V198.77H168.31V192.42Z" fill="#373370"/>
<path d="M161.9 205.18H155.49V211.53H161.9V205.18Z" fill="#373370"/>
<path d="M161.9 198.76H155.49V205.17H161.9V198.76Z" fill="#373370"/>
<path d="M161.9 192.42H155.49V198.77H161.9V192.42Z" fill="#373370"/>
<path d="M161.9 160.48H155.49V166.83H161.9V160.48Z" fill="#5C5C7A"/>
<path d="M161.9 154.07H155.49V160.48H161.9V154.07Z" fill="#5C5C7A"/>
<path d="M161.9 147.72H155.49V154.07H161.9V147.72Z" fill="#5C5C7A"/>
<path d="M161.9 141.31H155.49V147.72H161.9V141.31Z" fill="#5C5C7A"/>
<path d="M161.9 134.9H155.49V141.31H161.9V134.9Z" fill="#5C5C7A"/>
<path d="M161.9 128.55H155.49V134.9H161.9V128.55Z" fill="#5C5C7A"/>
<path d="M155.489 205.18H149.139V211.53H155.489V205.18Z" fill="#373370"/>
<path d="M155.489 198.76H149.139V205.17H155.489V198.76Z" fill="#373370"/>
<path d="M155.489 154.07H149.139V160.48H155.489V154.07Z" fill="#727296"/>
<path d="M155.489 147.72H149.139V154.07H155.489V147.72Z" fill="#727296"/>
<path d="M155.489 141.31H149.139V147.72H155.489V141.31Z" fill="#727296"/>
<path d="M155.489 134.9H149.139V141.31H155.489V134.9Z" fill="#727296"/>
<path d="M149.14 211.52H142.73V217.93H149.14V211.52Z" fill="#242D63"/>
<path d="M149.14 205.18H142.73V211.53H149.14V205.18Z" fill="#242D63"/>
<path d="M149.14 147.72H142.73V154.07H149.14V147.72Z" fill="#727296"/>
<path d="M149.14 141.31H142.73V147.72H149.14V141.31Z" fill="#727296"/>
<path d="M142.729 268.98H136.379V275.39H142.729V268.98Z" fill="#5C5C7A"/>
<path d="M142.729 262.63H136.379V268.98H142.729V262.63Z" fill="#5C5C7A"/>
<path d="M142.729 217.94H136.379V224.29H142.729V217.94Z" fill="#E2A066"/>
<path d="M142.729 211.52H136.379V217.93H142.729V211.52Z" fill="#E2A066"/>
<path d="M142.729 205.18H136.379V211.53H142.729V205.18Z" fill="#E2A066"/>
<path d="M142.729 198.76H136.379V205.17H142.729V198.76Z" fill="#E2A066"/>
<path d="M142.729 115.79H136.379V122.14H142.729V115.79Z" fill="#5C5C7A"/>
<path d="M136.379 275.38H129.969V281.73H136.379V275.38Z" fill="#727296"/>
<path d="M136.379 268.98H129.969V275.39H136.379V268.98Z" fill="#727296"/>
<path d="M136.379 262.63H129.969V268.98H136.379V262.63Z" fill="#5C5C7A"/>
<path d="M136.379 256.22H129.969V262.63H136.379V256.22Z" fill="#773725"/>
<path d="M136.379 249.87H129.969V256.22H136.379V249.87Z" fill="#773725"/>
<path d="M136.379 243.46H129.969V249.87H136.379V243.46Z" fill="#773725"/>
<path d="M136.379 237.05H129.969V243.46H136.379V237.05Z" fill="#773725"/>
<path d="M136.379 230.7H129.969V237.05H136.379V230.7Z" fill="#773725"/>
<path d="M136.379 217.94H129.969V224.29H136.379V217.94Z" fill="#E2A066"/>
<path d="M136.379 211.52H129.969V217.93H136.379V211.52Z" fill="#E2A066"/>
<path d="M136.379 205.18H129.969V211.53H136.379V205.18Z" fill="#E2A066"/>
<path d="M136.379 198.76H129.969V205.17H136.379V198.76Z" fill="#E2A066"/>
<path d="M136.379 192.42H129.969V198.77H136.379V192.42Z" fill="#E2A066"/>
<path d="M136.379 179.59H129.969V186H136.379V179.59Z" fill="#773725"/>
<path d="M136.379 173.24H129.969V179.59H136.379V173.24Z" fill="#773725"/>
<path d="M136.379 166.83H129.969V173.24H136.379V166.83Z" fill="#773725"/>
<path d="M136.379 160.48H129.969V166.83H136.379V160.48Z" fill="#773725"/>
<path d="M136.379 154.07H129.969V160.48H136.379V154.07Z" fill="#773725"/>
<path d="M136.379 147.72H129.969V154.07H136.379V147.72Z" fill="#773725"/>
<path d="M136.379 141.31H129.969V147.72H136.379V141.31Z" fill="#773725"/>
<path d="M136.379 134.9H129.969V141.31H136.379V134.9Z" fill="#773725"/>
<path d="M136.379 128.55H129.969V134.9H136.379V128.55Z" fill="#773725"/>
<path d="M136.379 122.14H129.969V128.55H136.379V122.14Z" fill="#773725"/>
<path d="M136.379 115.79H129.969V122.14H136.379V115.79Z" fill="#5C5C7A"/>
<path d="M129.969 268.98H123.619V275.39H129.969V268.98Z" fill="#727296"/>
<path d="M129.969 262.63H123.619V268.98H129.969V262.63Z" fill="#727296"/>
<path d="M129.969 217.94H123.619V224.29H129.969V217.94Z" fill="#E2A066"/>
<path d="M129.969 211.52H123.619V217.93H129.969V211.52Z" fill="#E2A066"/>
<path d="M129.969 205.18H123.619V211.53H129.969V205.18Z" fill="#E2A066"/>
<path d="M129.969 198.76H123.619V205.17H129.969V198.76Z" fill="#E2A066"/>
<path d="M129.969 192.42H123.619V198.77H129.969V192.42Z" fill="#E2A066"/>
<path d="M129.969 115.79H123.619V122.14H129.969V115.79Z" fill="#727296"/>
<path d="M123.619 147.72H117.209V154.07H123.619V147.72Z" fill="#5C5C7A"/>
<path d="M123.619 141.31H117.209V147.72H123.619V141.31Z" fill="#5C5C7A"/>
<path d="M117.209 147.72H110.799V154.07H117.209V147.72Z" fill="#5C5C7A"/>
<path d="M117.209 141.31H110.799V147.72H117.209V141.31Z" fill="#5C5C7A"/>
<path d="M110.799 154.07H104.449V160.48H110.799V154.07Z" fill="#5C5C7A"/>
<path d="M110.799 147.72H104.449V154.07H110.799V147.72Z" fill="#5C5C7A"/>
<path d="M110.799 141.31H104.449V147.72H110.799V141.31Z" fill="#5C5C7A"/>
<path d="M110.799 134.9H104.449V141.31H110.799V134.9Z" fill="#5C5C7A"/>
<path d="M104.449 160.48H98.0391V166.83H104.449V160.48Z" fill="#5C5C7A"/>
<path d="M104.449 154.07H98.0391V160.48H104.449V154.07Z" fill="#5C5C7A"/>
<path d="M104.449 147.72H98.0391V154.07H104.449V147.72Z" fill="#5C5C7A"/>
<path d="M104.449 141.31H98.0391V147.72H104.449V141.31Z" fill="#5C5C7A"/>
<path d="M104.449 134.9H98.0391V141.31H104.449V134.9Z" fill="#5C5C7A"/>
<path d="M104.449 128.55H98.0391V134.9H104.449V128.55Z" fill="#5C5C7A"/>
<path d="M98.0395 179.59H91.6895V186H98.0395V179.59Z" fill="black"/>
<path d="M98.0395 173.24H91.6895V179.59H98.0395V173.24Z" fill="#727296"/>
<path d="M98.0395 166.83H91.6895V173.24H98.0395V166.83Z" fill="#727296"/>
<path d="M98.0395 160.48H91.6895V166.83H98.0395V160.48Z" fill="#727296"/>
<path d="M98.0395 154.07H91.6895V160.48H98.0395V154.07Z" fill="#5C5C7A"/>
<path d="M98.0395 147.72H91.6895V154.07H98.0395V147.72Z" fill="#5C5C7A"/>
<path d="M98.0395 141.31H91.6895V147.72H98.0395V141.31Z" fill="#5C5C7A"/>
<path d="M98.0395 134.9H91.6895V141.31H98.0395V134.9Z" fill="#5C5C7A"/>
<path d="M98.0395 128.55H91.6895V134.9H98.0395V128.55Z" fill="#727296"/>
<path d="M98.0395 122.14H91.6895V128.55H98.0395V122.14Z" fill="#727296"/>
<path d="M98.0395 115.79H91.6895V122.14H98.0395V115.79Z" fill="#727296"/>
<path d="M98.0395 109.38H91.6895V115.79H98.0395V109.38Z" fill="black"/>
<path d="M91.6893 173.24H85.2793V179.59H91.6893V173.24Z" fill="black"/>
<path d="M91.6893 166.83H85.2793V173.24H91.6893V166.83Z" fill="#727296"/>
<path d="M91.6893 160.48H85.2793V166.83H91.6893V160.48Z" fill="#727296"/>
<path d="M91.6893 154.07H85.2793V160.48H91.6893V154.07Z" fill="#727296"/>
<path d="M91.6893 147.72H85.2793V154.07H91.6893V147.72Z" fill="#727296"/>
<path d="M91.6893 141.31H85.2793V147.72H91.6893V141.31Z" fill="#727296"/>
<path d="M91.6893 134.9H85.2793V141.31H91.6893V134.9Z" fill="#727296"/>
<path d="M91.6893 128.55H85.2793V134.9H91.6893V128.55Z" fill="#727296"/>
<path d="M91.6893 122.14H85.2793V128.55H91.6893V122.14Z" fill="#727296"/>
<path d="M91.6893 115.79H85.2793V122.14H91.6893V115.79Z" fill="black"/>
<path d="M85.2797 166.83H78.9297V173.24H85.2797V166.83Z" fill="black"/>
<path d="M85.2797 160.48H78.9297V166.83H85.2797V160.48Z" fill="#727296"/>
<path d="M85.2797 154.07H78.9297V160.48H85.2797V154.07Z" fill="#727296"/>
<path d="M85.2797 147.72H78.9297V154.07H85.2797V147.72Z" fill="#727296"/>
<path d="M85.2797 141.31H78.9297V147.72H85.2797V141.31Z" fill="#727296"/>
<path d="M85.2797 134.9H78.9297V141.31H85.2797V134.9Z" fill="#727296"/>
<path d="M85.2797 128.55H78.9297V134.9H85.2797V128.55Z" fill="#727296"/>
<path d="M85.2797 122.14H78.9297V128.55H85.2797V122.14Z" fill="black"/>
<path d="M78.9295 160.48H72.5195V166.83H78.9295V160.48Z" fill="black"/>
<path d="M78.9295 154.07H72.5195V160.48H78.9295V154.07Z" fill="black"/>
<path d="M78.9295 147.72H72.5195V154.07H78.9295V147.72Z" fill="black"/>
<path d="M78.9295 141.31H72.5195V147.72H78.9295V141.31Z" fill="black"/>
<path d="M78.9295 134.9H72.5195V141.31H78.9295V134.9Z" fill="black"/>
<path d="M78.9295 128.55H72.5195V134.9H78.9295V128.55Z" fill="black"/>
</svg>
