<svg width="400" height="400" viewBox="0 0 400 400" fill="none" xmlns="http://www.w3.org/2000/svg">
<path d="M385.781 200C385.781 302.6 302.601 385.78 200.001 385.78C97.4007 385.78 14.2207 302.6 14.2207 200C14.2207 97.4 97.3907 14.22 200.001 14.22C302.611 14.22 385.781 97.4 385.781 200Z" fill="black"/>
<path d="M200.001 392.78C93.7007 392.78 7.2207 306.3 7.2207 200C7.2207 93.7 93.7007 7.21997 200.001 7.21997C306.301 7.21997 392.781 93.7 392.781 200C392.781 306.3 306.301 392.78 200.001 392.78ZM200.001 21.22C101.421 21.22 21.2207 101.42 21.2207 200C21.2207 298.58 101.421 378.78 200.001 378.78C298.581 378.78 378.781 298.58 378.781 200C378.781 101.42 298.581 21.22 200.001 21.22Z" fill="#751545"/>
<path d="M296.61 270.21H289.52V277.3H296.61V270.21Z" fill="black"/>
<path d="M296.61 263.04H289.52V270.2H296.61V263.04Z" fill="black"/>
<path d="M289.5 284.47H282.34V291.56H289.5V284.47Z" fill="black"/>
<path d="M289.5 277.31H282.34V284.47H289.5V277.31Z" fill="black"/>
<path d="M289.5 270.21H282.34V277.3H289.5V270.21Z" fill="#FF5290"/>
<path d="M289.5 263.04H282.34V270.2H289.5V263.04Z" fill="#FF5290"/>
<path d="M289.5 255.95H282.34V263.04H289.5V255.95Z" fill="black"/>
<path d="M282.34 291.57H275.18V298.73H282.34V291.57Z" fill="black"/>
<path d="M282.34 284.47H275.18V291.56H282.34V284.47Z" fill="#FF5290"/>
<path d="M282.34 277.31H275.18V284.47H282.34V277.31Z" fill="#FF5290"/>
<path d="M282.34 270.21H275.18V277.3H282.34V270.21Z" fill="#FF5290"/>
<path d="M282.34 263.04H275.18V270.2H282.34V263.04Z" fill="#FF5290"/>
<path d="M282.34 255.95H275.18V263.04H282.34V255.95Z" fill="black"/>
<path d="M275.18 291.57H268.09V298.73H275.18V291.57Z" fill="black"/>
<path d="M275.18 284.47H268.09V291.56H275.18V284.47Z" fill="#FF5290"/>
<path d="M275.18 277.31H268.09V284.47H275.18V277.31Z" fill="#FF5A8D"/>
<path d="M275.18 270.21H268.09V277.3H275.18V270.21Z" fill="#FF5A8D"/>
<path d="M275.18 263.04H268.09V270.2H275.18V263.04Z" fill="#FF5290"/>
<path d="M275.18 255.95H268.09V263.04H275.18V255.95Z" fill="black"/>
<path d="M275.18 127.45H268.09V134.61H275.18V127.45Z" fill="black"/>
<path d="M275.18 113.19H268.09V120.35H275.18V113.19Z" fill="black"/>
<path d="M268.08 298.73H260.92V305.89H268.08V298.73Z" fill="black"/>
<path d="M268.08 291.57H260.92V298.73H268.08V291.57Z" fill="#FF5290"/>
<path d="M268.08 284.47H260.92V291.56H268.08V284.47Z" fill="#FF5A8D"/>
<path d="M268.08 277.31H260.92V284.47H268.08V277.31Z" fill="#FF5A8D"/>
<path d="M268.08 270.21H260.92V277.3H268.08V270.21Z" fill="#FF5A8D"/>
<path d="M268.08 263.04H260.92V270.2H268.08V263.04Z" fill="#FF5290"/>
<path d="M268.08 255.95H260.92V263.04H268.08V255.95Z" fill="black"/>
<path d="M268.08 170.31H260.92V177.4H268.08V170.31Z" fill="black"/>
<path d="M268.08 163.14H260.92V170.3H268.08V163.14Z" fill="black"/>
<path d="M268.08 134.62H260.92V141.78H268.08V134.62Z" fill="black"/>
<path d="M268.08 127.45H260.92V134.61H268.08V127.45Z" fill="#CCBE58"/>
<path d="M268.08 120.36H260.92V127.45H268.08V120.36Z" fill="black"/>
<path d="M268.08 113.19H260.92V120.35H268.08V113.19Z" fill="#CCBE58"/>
<path d="M268.08 106.1H260.92V113.19H268.08V106.1Z" fill="black"/>
<path d="M260.91 313H253.82V320.16H260.91V313Z" fill="black"/>
<path d="M260.91 305.9H253.82V312.99H260.91V305.9Z" fill="black"/>
<path d="M260.91 298.73H253.82V305.89H260.91V298.73Z" fill="#FF5A8D"/>
<path d="M260.91 291.57H253.82V298.73H260.91V291.57Z" fill="#FF5A8D"/>
<path d="M260.91 284.47H253.82V291.56H260.91V284.47Z" fill="#FF5A8D"/>
<path d="M260.91 277.31H253.82V284.47H260.91V277.31Z" fill="#FF5A8D"/>
<path d="M260.91 270.21H253.82V277.3H260.91V270.21Z" fill="#FF5A8D"/>
<path d="M260.91 263.04H253.82V270.2H260.91V263.04Z" fill="#FF5A8D"/>
<path d="M260.91 255.95H253.82V263.04H260.91V255.95Z" fill="black"/>
<path d="M260.91 177.41H253.82V184.57H260.91V177.41Z" fill="black"/>
<path d="M260.91 170.31H253.82V177.4H260.91V170.31Z" fill="#FF5290"/>
<path d="M260.91 163.14H253.82V170.3H260.91V163.14Z" fill="#FF5290"/>
<path d="M260.91 156.05H253.82V163.14H260.91V156.05Z" fill="black"/>
<path d="M260.91 134.62H253.82V141.78H260.91V134.62Z" fill="black"/>
<path d="M260.91 127.45H253.82V134.61H260.91V127.45Z" fill="#CCBE58"/>
<path d="M260.91 120.36H253.82V127.45H260.91V120.36Z" fill="#CCBB69"/>
<path d="M260.91 113.19H253.82V120.35H260.91V113.19Z" fill="#CCBE58"/>
<path d="M260.91 106.1H253.82V113.19H260.91V106.1Z" fill="#CCBE58"/>
<path d="M260.91 98.9299H253.82V106.09H260.91V98.9299Z" fill="black"/>
<path d="M253.82 320.16H246.66V327.25H253.82V320.16Z" fill="black"/>
<path d="M253.82 313H246.66V320.16H253.82V313Z" fill="#FF5290"/>
<path d="M253.82 305.9H246.66V312.99H253.82V305.9Z" fill="#FF5290"/>
<path d="M253.82 298.73H246.66V305.89H253.82V298.73Z" fill="#FF5A8D"/>
<path d="M253.82 291.57H246.66V298.73H253.82V291.57Z" fill="#FF5A8D"/>
<path d="M253.82 284.47H246.66V291.56H253.82V284.47Z" fill="#FF5A8D"/>
<path d="M253.82 277.31H246.66V284.47H253.82V277.31Z" fill="#FF5A8D"/>
<path d="M253.82 270.21H246.66V277.3H253.82V270.21Z" fill="#FF5A8D"/>
<path d="M253.82 263.04H246.66V270.2H253.82V263.04Z" fill="#FF5A8D"/>
<path d="M253.82 255.95H246.66V263.04H253.82V255.95Z" fill="black"/>
<path d="M253.82 184.57H246.66V191.73H253.82V184.57Z" fill="black"/>
<path d="M253.82 177.41H246.66V184.57H253.82V177.41Z" fill="#FF5A8D"/>
<path d="M253.82 170.31H246.66V177.4H253.82V170.31Z" fill="#FF5A8D"/>
<path d="M253.82 163.14H246.66V170.3H253.82V163.14Z" fill="#FF5290"/>
<path d="M253.82 156.05H246.66V163.14H253.82V156.05Z" fill="black"/>
<path d="M253.82 141.78H246.66V148.87H253.82V141.78Z" fill="black"/>
<path d="M253.82 134.62H246.66V141.78H253.82V134.62Z" fill="#CCBE58"/>
<path d="M253.82 127.45H246.66V134.61H253.82V127.45Z" fill="#DBD38B"/>
<path d="M253.82 120.36H246.66V127.45H253.82V120.36Z" fill="#CCBB69"/>
<path d="M253.82 113.19H246.66V120.35H253.82V113.19Z" fill="#CCBB69"/>
<path d="M253.82 106.1H246.66V113.19H253.82V106.1Z" fill="#CCBE58"/>
<path d="M253.82 98.9299H246.66V106.09H253.82V98.9299Z" fill="#CCBE58"/>
<path d="M253.82 91.8301H246.66V98.9201H253.82V91.8301Z" fill="black"/>
<path d="M246.651 320.16H239.561V327.25H246.651V320.16Z" fill="black"/>
<path d="M246.651 313H239.561V320.16H246.651V313Z" fill="#FF5290"/>
<path d="M246.651 305.9H239.561V312.99H246.651V305.9Z" fill="#FF749A"/>
<path d="M246.651 298.73H239.561V305.89H246.651V298.73Z" fill="#FF749A"/>
<path d="M246.651 291.57H239.561V298.73H246.651V291.57Z" fill="#FF5A8D"/>
<path d="M246.651 284.47H239.561V291.56H246.651V284.47Z" fill="#FF5A8D"/>
<path d="M246.651 277.31H239.561V284.47H246.651V277.31Z" fill="#FF5A8D"/>
<path d="M246.651 270.21H239.561V277.3H246.651V270.21Z" fill="#FF5A8D"/>
<path d="M246.651 263.04H239.561V270.2H246.651V263.04Z" fill="#FF5A8D"/>
<path d="M246.651 255.95H239.561V263.04H246.651V255.95Z" fill="black"/>
<path d="M246.651 184.57H239.561V191.73H246.651V184.57Z" fill="black"/>
<path d="M246.651 177.41H239.561V184.57H246.651V177.41Z" fill="#FF5A8D"/>
<path d="M246.651 170.31H239.561V177.4H246.651V170.31Z" fill="#FF749A"/>
<path d="M246.651 163.14H239.561V170.3H246.651V163.14Z" fill="#FF5A8D"/>
<path d="M246.651 156.05H239.561V163.14H246.651V156.05Z" fill="black"/>
<path d="M246.651 148.88H239.561V156.04H246.651V148.88Z" fill="black"/>
<path d="M246.651 141.78H239.561V148.87H246.651V141.78Z" fill="#CCBE58"/>
<path d="M246.651 134.62H239.561V141.78H246.651V134.62Z" fill="#DBD38B"/>
<path d="M246.651 127.45H239.561V134.61H246.651V127.45Z" fill="#DBD38B"/>
<path d="M246.651 120.36H239.561V127.45H246.651V120.36Z" fill="#DBD38B"/>
<path d="M246.651 113.19H239.561V120.35H246.651V113.19Z" fill="#CCBB69"/>
<path d="M246.651 106.1H239.561V113.19H246.651V106.1Z" fill="#CCBB69"/>
<path d="M246.651 98.9299H239.561V106.09H246.651V98.9299Z" fill="#CCBE58"/>
<path d="M246.651 91.8301H239.561V98.9201H246.651V91.8301Z" fill="black"/>
<path d="M239.56 320.16H232.4V327.25H239.56V320.16Z" fill="black"/>
<path d="M239.56 313H232.4V320.16H239.56V313Z" fill="#FF5A8D"/>
<path d="M239.56 305.9H232.4V312.99H239.56V305.9Z" fill="#FF749A"/>
<path d="M239.56 298.73H232.4V305.89H239.56V298.73Z" fill="#FF749A"/>
<path d="M239.56 291.57H232.4V298.73H239.56V291.57Z" fill="#FF749A"/>
<path d="M239.56 284.47H232.4V291.56H239.56V284.47Z" fill="#FF5A8D"/>
<path d="M239.56 277.31H232.4V284.47H239.56V277.31Z" fill="#FF5A8D"/>
<path d="M239.56 270.21H232.4V277.3H239.56V270.21Z" fill="#FF5A8D"/>
<path d="M239.56 263.04H232.4V270.2H239.56V263.04Z" fill="black"/>
<path d="M239.56 177.41H232.4V184.57H239.56V177.41Z" fill="black"/>
<path d="M239.56 170.31H232.4V177.4H239.56V170.31Z" fill="#FF749A"/>
<path d="M239.56 163.14H232.4V170.3H239.56V163.14Z" fill="#FF5A8D"/>
<path d="M239.56 156.05H232.4V163.14H239.56V156.05Z" fill="black"/>
<path d="M239.56 148.88H232.4V156.04H239.56V148.88Z" fill="#FF5290"/>
<path d="M239.56 141.78H232.4V148.87H239.56V141.78Z" fill="#FF5290"/>
<path d="M239.56 134.62H232.4V141.78H239.56V134.62Z" fill="#DBD38B"/>
<path d="M239.56 127.45H232.4V134.61H239.56V127.45Z" fill="#DBD38B"/>
<path d="M239.56 120.36H232.4V127.45H239.56V120.36Z" fill="#DBD38B"/>
<path d="M239.56 113.19H232.4V120.35H239.56V113.19Z" fill="#DBD38B"/>
<path d="M239.56 106.1H232.4V113.19H239.56V106.1Z" fill="#CCBB69"/>
<path d="M239.56 98.9299H232.4V106.09H239.56V98.9299Z" fill="#CCBE58"/>
<path d="M239.56 91.8301H232.4V98.9201H239.56V91.8301Z" fill="black"/>
<path d="M232.39 327.26H225.23V334.42H232.39V327.26Z" fill="black"/>
<path d="M232.39 320.16H225.23V327.25H232.39V320.16Z" fill="#FF5290"/>
<path d="M232.39 313H225.23V320.16H232.39V313Z" fill="#FF749A"/>
<path d="M232.39 305.9H225.23V312.99H232.39V305.9Z" fill="#FF749A"/>
<path d="M232.39 298.73H225.23V305.89H232.39V298.73Z" fill="#FF749A"/>
<path d="M232.39 291.57H225.23V298.73H232.39V291.57Z" fill="#FF749A"/>
<path d="M232.39 284.47H225.23V291.56H232.39V284.47Z" fill="#FF749A"/>
<path d="M232.39 277.31H225.23V284.47H232.39V277.31Z" fill="#FF5A8D"/>
<path d="M232.39 270.21H225.23V277.3H232.39V270.21Z" fill="black"/>
<path d="M232.39 184.57H225.23V191.73H232.39V184.57Z" fill="black"/>
<path d="M232.39 177.41H225.23V184.57H232.39V177.41Z" fill="#FF749A"/>
<path d="M232.39 170.31H225.23V177.4H232.39V170.31Z" fill="#FF749A"/>
<path d="M232.39 163.14H225.23V170.3H232.39V163.14Z" fill="#FF749A"/>
<path d="M232.39 156.05H225.23V163.14H232.39V156.05Z" fill="#FF5A8D"/>
<path d="M232.39 148.88H225.23V156.04H232.39V148.88Z" fill="#FF5A8D"/>
<path d="M232.39 141.78H225.23V148.87H232.39V141.78Z" fill="#FF5290"/>
<path d="M232.39 134.62H225.23V141.78H232.39V134.62Z" fill="#DBD38B"/>
<path d="M232.39 127.45H225.23V134.61H232.39V127.45Z" fill="#DBD38B"/>
<path d="M232.39 120.36H225.23V127.45H232.39V120.36Z" fill="#DBD38B"/>
<path d="M232.39 113.19H225.23V120.35H232.39V113.19Z" fill="#DBD38B"/>
<path d="M232.39 106.1H225.23V113.19H232.39V106.1Z" fill="#CCBB69"/>
<path d="M232.39 98.9299H225.23V106.09H232.39V98.9299Z" fill="#CCBE58"/>
<path d="M232.39 91.8301H225.23V98.9201H232.39V91.8301Z" fill="black"/>
<path d="M225.221 327.26H218.131V334.42H225.221V327.26Z" fill="black"/>
<path d="M225.221 320.16H218.131V327.25H225.221V320.16Z" fill="#FF5290"/>
<path d="M225.221 313H218.131V320.16H225.221V313Z" fill="#FF749A"/>
<path d="M225.221 305.9H218.131V312.99H225.221V305.9Z" fill="#FF749A"/>
<path d="M225.221 298.73H218.131V305.89H225.221V298.73Z" fill="#FF749A"/>
<path d="M225.221 291.57H218.131V298.73H225.221V291.57Z" fill="#FF749A"/>
<path d="M225.221 284.47H218.131V291.56H225.221V284.47Z" fill="#FF749A"/>
<path d="M225.221 277.31H218.131V284.47H225.221V277.31Z" fill="#FF5A8D"/>
<path d="M225.221 270.21H218.131V277.3H225.221V270.21Z" fill="black"/>
<path d="M225.221 227.36H218.131V234.52H225.221V227.36Z" fill="black"/>
<path d="M225.221 220.26H218.131V227.35H225.221V220.26Z" fill="black"/>
<path d="M225.221 213.09H218.131V220.25H225.221V213.09Z" fill="black"/>
<path d="M225.221 206H218.131V213.09H225.221V206Z" fill="black"/>
<path d="M225.221 184.57H218.131V191.73H225.221V184.57Z" fill="black"/>
<path d="M225.221 177.41H218.131V184.57H225.221V177.41Z" fill="#FF749A"/>
<path d="M225.221 170.31H218.131V177.4H225.221V170.31Z" fill="#FF749A"/>
<path d="M225.221 163.14H218.131V170.3H225.221V163.14Z" fill="#FF749A"/>
<path d="M225.221 156.05H218.131V163.14H225.221V156.05Z" fill="#FF749A"/>
<path d="M225.221 148.88H218.131V156.04H225.221V148.88Z" fill="#FF5A8D"/>
<path d="M225.221 141.78H218.131V148.87H225.221V141.78Z" fill="#FF5A8D"/>
<path d="M225.221 134.62H218.131V141.78H225.221V134.62Z" fill="#DBD38B"/>
<path d="M225.221 127.45H218.131V134.61H225.221V127.45Z" fill="#DBD38B"/>
<path d="M225.221 120.36H218.131V127.45H225.221V120.36Z" fill="#DBD38B"/>
<path d="M225.221 113.19H218.131V120.35H225.221V113.19Z" fill="#DBD38B"/>
<path d="M225.221 106.1H218.131V113.19H225.221V106.1Z" fill="#DBD38B"/>
<path d="M225.221 98.9299H218.131V106.09H225.221V98.9299Z" fill="#CCBB69"/>
<path d="M225.221 91.8301H218.131V98.9201H225.221V91.8301Z" fill="black"/>
<path d="M218.131 327.26H210.971V334.42H218.131V327.26Z" fill="black"/>
<path d="M218.131 320.16H210.971V327.25H218.131V320.16Z" fill="#FF5A8D"/>
<path d="M218.131 313H210.971V320.16H218.131V313Z" fill="#FF749A"/>
<path d="M218.131 305.9H210.971V312.99H218.131V305.9Z" fill="#FF749A"/>
<path d="M218.131 298.73H210.971V305.89H218.131V298.73Z" fill="#FF749A"/>
<path d="M218.131 291.57H210.971V298.73H218.131V291.57Z" fill="#FF749A"/>
<path d="M218.131 284.47H210.971V291.56H218.131V284.47Z" fill="#FF749A"/>
<path d="M218.131 277.31H210.971V284.47H218.131V277.31Z" fill="#FF5A8D"/>
<path d="M218.131 270.21H210.971V277.3H218.131V270.21Z" fill="black"/>
<path d="M218.131 263.04H210.971V270.2H218.131V263.04Z" fill="black"/>
<path d="M218.131 255.95H210.971V263.04H218.131V255.95Z" fill="black"/>
<path d="M218.131 248.79H210.971V255.95H218.131V248.79Z" fill="black"/>
<path d="M218.131 241.61H210.971V248.77H218.131V241.61Z" fill="black"/>
<path d="M218.131 234.52H210.971V241.61H218.131V234.52Z" fill="black"/>
<path d="M218.131 227.36H210.971V234.52H218.131V227.36Z" fill="#FF5A8D"/>
<path d="M218.131 220.26H210.971V227.35H218.131V220.26Z" fill="#FF5A8D"/>
<path d="M218.131 213.09H210.971V220.25H218.131V213.09Z" fill="#FF5A8D"/>
<path d="M218.131 206H210.971V213.09H218.131V206Z" fill="#FF5290"/>
<path d="M218.131 198.84H210.971V206H218.131V198.84Z" fill="black"/>
<path d="M218.131 191.73H210.971V198.82H218.131V191.73Z" fill="black"/>
<path d="M218.131 184.57H210.971V191.73H218.131V184.57Z" fill="black"/>
<path d="M218.131 177.41H210.971V184.57H218.131V177.41Z" fill="#FF749A"/>
<path d="M218.131 170.31H210.971V177.4H218.131V170.31Z" fill="#FF749A"/>
<path d="M218.131 163.14H210.971V170.3H218.131V163.14Z" fill="#FF749A"/>
<path d="M218.131 156.05H210.971V163.14H218.131V156.05Z" fill="#FF5A8D"/>
<path d="M218.131 148.88H210.971V156.04H218.131V148.88Z" fill="#FF5A8D"/>
<path d="M218.131 141.78H210.971V148.87H218.131V141.78Z" fill="black"/>
<path d="M218.131 134.62H210.971V141.78H218.131V134.62Z" fill="black"/>
<path d="M218.131 127.45H210.971V134.61H218.131V127.45Z" fill="#EF997B"/>
<path d="M218.131 120.36H210.971V127.45H218.131V120.36Z" fill="#DBD38B"/>
<path d="M218.131 113.19H210.971V120.35H218.131V113.19Z" fill="#DBD38B"/>
<path d="M218.131 106.1H210.971V113.19H218.131V106.1Z" fill="#DBD38B"/>
<path d="M218.131 98.9299H210.971V106.09H218.131V98.9299Z" fill="#CCBB69"/>
<path d="M218.131 91.8301H210.971V98.9201H218.131V91.8301Z" fill="black"/>
<path d="M210.959 327.26H203.869V334.42H210.959V327.26Z" fill="black"/>
<path d="M210.959 320.16H203.869V327.25H210.959V320.16Z" fill="#FF749A"/>
<path d="M210.959 313H203.869V320.16H210.959V313Z" fill="#FF749A"/>
<path d="M210.959 305.9H203.869V312.99H210.959V305.9Z" fill="#FF749A"/>
<path d="M210.959 298.73H203.869V305.89H210.959V298.73Z" fill="#FF749A"/>
<path d="M210.959 291.57H203.869V298.73H210.959V291.57Z" fill="#FF749A"/>
<path d="M210.959 284.47H203.869V291.56H210.959V284.47Z" fill="#FF749A"/>
<path d="M210.959 277.31H203.869V284.47H210.959V277.31Z" fill="#FF749A"/>
<path d="M210.959 270.21H203.869V277.3H210.959V270.21Z" fill="#FF5A8D"/>
<path d="M210.959 263.04H203.869V270.2H210.959V263.04Z" fill="#FF5A8D"/>
<path d="M210.959 255.95H203.869V263.04H210.959V255.95Z" fill="#FF5A8D"/>
<path d="M210.959 248.79H203.869V255.95H210.959V248.79Z" fill="#FF5A8D"/>
<path d="M210.959 241.61H203.869V248.77H210.959V241.61Z" fill="#FF5A8D"/>
<path d="M210.959 234.52H203.869V241.61H210.959V234.52Z" fill="#FF5A8D"/>
<path d="M210.959 227.36H203.869V234.52H210.959V227.36Z" fill="#FF749A"/>
<path d="M210.959 220.26H203.869V227.35H210.959V220.26Z" fill="#FF749A"/>
<path d="M210.959 213.09H203.869V220.25H210.959V213.09Z" fill="#FF5A8D"/>
<path d="M210.959 206H203.869V213.09H210.959V206Z" fill="#FF5290"/>
<path d="M210.959 198.84H203.869V206H210.959V198.84Z" fill="#FF5290"/>
<path d="M210.959 191.73H203.869V198.82H210.959V191.73Z" fill="#72512D"/>
<path d="M210.959 184.57H203.869V191.73H210.959V184.57Z" fill="#72512D"/>
<path d="M210.959 177.41H203.869V184.57H210.959V177.41Z" fill="#FF749A"/>
<path d="M210.959 170.31H203.869V177.4H210.959V170.31Z" fill="#FF749A"/>
<path d="M210.959 163.14H203.869V170.3H210.959V163.14Z" fill="#FF5A8D"/>
<path d="M210.959 156.05H203.869V163.14H210.959V156.05Z" fill="#EF997B"/>
<path d="M210.959 148.88H203.869V156.04H210.959V148.88Z" fill="#EF997B"/>
<path d="M210.959 141.78H203.869V148.87H210.959V141.78Z" fill="#EF997B"/>
<path d="M210.959 134.62H203.869V141.78H210.959V134.62Z" fill="#EF997B"/>
<path d="M210.959 127.45H203.869V134.61H210.959V127.45Z" fill="#EF997B"/>
<path d="M210.959 120.36H203.869V127.45H210.959V120.36Z" fill="#EF997B"/>
<path d="M210.959 113.19H203.869V120.35H210.959V113.19Z" fill="#DBD38B"/>
<path d="M210.959 106.1H203.869V113.19H210.959V106.1Z" fill="#DBD38B"/>
<path d="M210.959 98.9299H203.869V106.09H210.959V98.9299Z" fill="#DBD38B"/>
<path d="M210.959 91.8301H203.869V98.9201H210.959V91.8301Z" fill="black"/>
<path d="M203.859 327.26H196.699V334.42H203.859V327.26Z" fill="black"/>
<path d="M203.859 320.16H196.699V327.25H203.859V320.16Z" fill="#FF5A8D"/>
<path d="M203.859 313H196.699V320.16H203.859V313Z" fill="#FF749A"/>
<path d="M203.859 305.9H196.699V312.99H203.859V305.9Z" fill="#FF749A"/>
<path d="M203.859 298.73H196.699V305.89H203.859V298.73Z" fill="#FF749A"/>
<path d="M203.859 291.57H196.699V298.73H203.859V291.57Z" fill="#FF749A"/>
<path d="M203.859 284.47H196.699V291.56H203.859V284.47Z" fill="#FF749A"/>
<path d="M203.859 277.31H196.699V284.47H203.859V277.31Z" fill="#FF749A"/>
<path d="M203.859 270.21H196.699V277.3H203.859V270.21Z" fill="#FF749A"/>
<path d="M203.859 263.04H196.699V270.2H203.859V263.04Z" fill="#FF749A"/>
<path d="M203.859 255.95H196.699V263.04H203.859V255.95Z" fill="#FF749A"/>
<path d="M203.859 248.79H196.699V255.95H203.859V248.79Z" fill="#FF749A"/>
<path d="M203.859 241.61H196.699V248.77H203.859V241.61Z" fill="#FF749A"/>
<path d="M203.859 234.52H196.699V241.61H203.859V234.52Z" fill="#FF749A"/>
<path d="M203.859 227.36H196.699V234.52H203.859V227.36Z" fill="#FF749A"/>
<path d="M203.859 220.26H196.699V227.35H203.859V220.26Z" fill="#FF749A"/>
<path d="M203.859 213.09H196.699V220.25H203.859V213.09Z" fill="#FF749A"/>
<path d="M203.859 206H196.699V213.09H203.859V206Z" fill="#FF5A8D"/>
<path d="M203.859 198.84H196.699V206H203.859V198.84Z" fill="#FF5A8D"/>
<path d="M203.859 191.73H196.699V198.82H203.859V191.73Z" fill="#7A5A34"/>
<path d="M203.859 184.57H196.699V191.73H203.859V184.57Z" fill="#72512D"/>
<path d="M203.859 177.41H196.699V184.57H203.859V177.41Z" fill="#FF749A"/>
<path d="M203.859 170.31H196.699V177.4H203.859V170.31Z" fill="#FF5A8D"/>
<path d="M203.859 163.14H196.699V170.3H203.859V163.14Z" fill="#FF5A8D"/>
<path d="M203.859 156.05H196.699V163.14H203.859V156.05Z" fill="#EF997B"/>
<path d="M203.859 148.88H196.699V156.04H203.859V148.88Z" fill="#EF997B"/>
<path d="M203.859 141.78H196.699V148.87H203.859V141.78Z" fill="#EF997B"/>
<path d="M203.859 134.62H196.699V141.78H203.859V134.62Z" fill="#EF997B"/>
<path d="M203.859 127.45H196.699V134.61H203.859V127.45Z" fill="#C6C4C6"/>
<path d="M203.859 120.36H196.699V127.45H203.859V120.36Z" fill="#EF997B"/>
<path d="M203.859 113.19H196.699V120.35H203.859V113.19Z" fill="#DBD38B"/>
<path d="M203.859 106.1H196.699V113.19H203.859V106.1Z" fill="#DBD38B"/>
<path d="M203.859 98.9299H196.699V106.09H203.859V98.9299Z" fill="#DBD38B"/>
<path d="M203.859 91.8301H196.699V98.9201H203.859V91.8301Z" fill="black"/>
<path d="M196.699 327.26H189.609V334.42H196.699V327.26Z" fill="black"/>
<path d="M196.699 320.16H189.609V327.25H196.699V320.16Z" fill="#FF5A8D"/>
<path d="M196.699 313H189.609V320.16H196.699V313Z" fill="#FF5A8D"/>
<path d="M196.699 305.9H189.609V312.99H196.699V305.9Z" fill="#FF749A"/>
<path d="M196.699 298.73H189.609V305.89H196.699V298.73Z" fill="#FF749A"/>
<path d="M196.699 291.57H189.609V298.73H196.699V291.57Z" fill="#FF749A"/>
<path d="M196.699 284.47H189.609V291.56H196.699V284.47Z" fill="#FF749A"/>
<path d="M196.699 277.31H189.609V284.47H196.699V277.31Z" fill="#FF749A"/>
<path d="M196.699 270.21H189.609V277.3H196.699V270.21Z" fill="#FF749A"/>
<path d="M196.699 263.04H189.609V270.2H196.699V263.04Z" fill="#FF749A"/>
<path d="M196.699 255.95H189.609V263.04H196.699V255.95Z" fill="#FF749A"/>
<path d="M196.699 248.79H189.609V255.95H196.699V248.79Z" fill="#FF749A"/>
<path d="M196.699 241.61H189.609V248.77H196.699V241.61Z" fill="#FF749A"/>
<path d="M196.699 234.52H189.609V241.61H196.699V234.52Z" fill="#FF749A"/>
<path d="M196.699 227.36H189.609V234.52H196.699V227.36Z" fill="#FF749A"/>
<path d="M196.699 220.26H189.609V227.35H196.699V220.26Z" fill="#FF749A"/>
<path d="M196.699 213.09H189.609V220.25H196.699V213.09Z" fill="#FF749A"/>
<path d="M196.699 206H189.609V213.09H196.699V206Z" fill="#FF749A"/>
<path d="M196.699 198.84H189.609V206H196.699V198.84Z" fill="#FF5A8D"/>
<path d="M196.699 191.73H189.609V198.82H196.699V191.73Z" fill="#7A5A34"/>
<path d="M196.699 184.57H189.609V191.73H196.699V184.57Z" fill="#7A5A34"/>
<path d="M196.699 177.41H189.609V184.57H196.699V177.41Z" fill="#FF5A8D"/>
<path d="M196.699 170.31H189.609V177.4H196.699V170.31Z" fill="#EF997B"/>
<path d="M196.699 163.14H189.609V170.3H196.699V163.14Z" fill="#FF749A"/>
<path d="M196.699 156.05H189.609V163.14H196.699V156.05Z" fill="#EF997B"/>
<path d="M196.699 148.88H189.609V156.04H196.699V148.88Z" fill="black"/>
<path d="M196.699 141.78H189.609V148.87H196.699V141.78Z" fill="#EF997B"/>
<path d="M196.699 134.62H189.609V141.78H196.699V134.62Z" fill="#EF997B"/>
<path d="M196.699 127.45H189.609V134.61H196.699V127.45Z" fill="#EF997B"/>
<path d="M196.699 120.36H189.609V127.45H196.699V120.36Z" fill="#EF997B"/>
<path d="M196.699 113.19H189.609V120.35H196.699V113.19Z" fill="#DBD38B"/>
<path d="M196.699 106.1H189.609V113.19H196.699V106.1Z" fill="#DBD38B"/>
<path d="M196.699 98.9299H189.609V106.09H196.699V98.9299Z" fill="#DBD38B"/>
<path d="M196.699 91.8301H189.609V98.9201H196.699V91.8301Z" fill="black"/>
<path d="M189.609 320.16H182.449V327.25H189.609V320.16Z" fill="black"/>
<path d="M189.609 313H182.449V320.16H189.609V313Z" fill="#FF5A8D"/>
<path d="M189.609 305.9H182.449V312.99H189.609V305.9Z" fill="#FF749A"/>
<path d="M189.609 298.73H182.449V305.89H189.609V298.73Z" fill="#FF749A"/>
<path d="M189.609 291.57H182.449V298.73H189.609V291.57Z" fill="#FF5A8D"/>
<path d="M189.609 284.47H182.449V291.56H189.609V284.47Z" fill="black"/>
<path d="M189.609 277.31H182.449V284.47H189.609V277.31Z" fill="black"/>
<path d="M189.609 270.21H182.449V277.3H189.609V270.21Z" fill="black"/>
<path d="M189.609 263.04H182.449V270.2H189.609V263.04Z" fill="black"/>
<path d="M189.609 255.95H182.449V263.04H189.609V255.95Z" fill="black"/>
<path d="M189.609 248.79H182.449V255.95H189.609V248.79Z" fill="black"/>
<path d="M189.609 241.61H182.449V248.77H189.609V241.61Z" fill="#FF5A8D"/>
<path d="M189.609 234.52H182.449V241.61H189.609V234.52Z" fill="#FF5A8D"/>
<path d="M189.609 227.36H182.449V234.52H189.609V227.36Z" fill="#FF749A"/>
<path d="M189.609 220.26H182.449V227.35H189.609V220.26Z" fill="#FF749A"/>
<path d="M189.609 213.09H182.449V220.25H189.609V213.09Z" fill="#FF749A"/>
<path d="M189.609 206H182.449V213.09H189.609V206Z" fill="#FF749A"/>
<path d="M189.609 198.84H182.449V206H189.609V198.84Z" fill="#FF5A8D"/>
<path d="M189.609 191.73H182.449V198.82H189.609V191.73Z" fill="#7A5A34"/>
<path d="M189.609 184.57H182.449V191.73H189.609V184.57Z" fill="#7A5A34"/>
<path d="M189.609 177.41H182.449V184.57H189.609V177.41Z" fill="#FF749A"/>
<path d="M189.609 170.31H182.449V177.4H189.609V170.31Z" fill="#EF997B"/>
<path d="M189.609 163.14H182.449V170.3H189.609V163.14Z" fill="#FF749A"/>
<path d="M189.609 156.05H182.449V163.14H189.609V156.05Z" fill="#FF749A"/>
<path d="M189.609 148.88H182.449V156.04H189.609V148.88Z" fill="black"/>
<path d="M189.609 141.78H182.449V148.87H189.609V141.78Z" fill="black"/>
<path d="M189.609 134.62H182.449V141.78H189.609V134.62Z" fill="#EF997B"/>
<path d="M189.609 127.45H182.449V134.61H189.609V127.45Z" fill="#C6C4C6"/>
<path d="M189.609 120.36H182.449V127.45H189.609V120.36Z" fill="#EF997B"/>
<path d="M189.609 113.19H182.449V120.35H189.609V113.19Z" fill="#DBD38B"/>
<path d="M189.609 106.1H182.449V113.19H189.609V106.1Z" fill="#CCBB69"/>
<path d="M189.609 98.9299H182.449V106.09H189.609V98.9299Z" fill="black"/>
<path d="M182.43 320.16H175.34V327.25H182.43V320.16Z" fill="black"/>
<path d="M182.43 313H175.34V320.16H182.43V313Z" fill="#FF5A8D"/>
<path d="M182.43 305.9H175.34V312.99H182.43V305.9Z" fill="#FF749A"/>
<path d="M182.43 298.73H175.34V305.89H182.43V298.73Z" fill="#FF5A8D"/>
<path d="M182.43 291.57H175.34V298.73H182.43V291.57Z" fill="black"/>
<path d="M182.43 241.61H175.34V248.77H182.43V241.61Z" fill="black"/>
<path d="M182.43 234.52H175.34V241.61H182.43V234.52Z" fill="black"/>
<path d="M182.43 227.36H175.34V234.52H182.43V227.36Z" fill="black"/>
<path d="M182.43 220.26H175.34V227.35H182.43V220.26Z" fill="#FF749A"/>
<path d="M182.43 213.09H175.34V220.25H182.43V213.09Z" fill="#FF749A"/>
<path d="M182.43 206H175.34V213.09H182.43V206Z" fill="#FF749A"/>
<path d="M182.43 198.84H175.34V206H182.43V198.84Z" fill="black"/>
<path d="M182.43 191.73H175.34V198.82H182.43V191.73Z" fill="black"/>
<path d="M182.43 184.57H175.34V191.73H182.43V184.57Z" fill="#EF997B"/>
<path d="M182.43 177.41H175.34V184.57H182.43V177.41Z" fill="black"/>
<path d="M182.43 170.31H175.34V177.4H182.43V170.31Z" fill="#EF997B"/>
<path d="M182.43 163.14H175.34V170.3H182.43V163.14Z" fill="#FF749A"/>
<path d="M182.43 156.05H175.34V163.14H182.43V156.05Z" fill="black"/>
<path d="M182.43 134.62H175.34V141.78H182.43V134.62Z" fill="black"/>
<path d="M182.43 127.45H175.34V134.61H182.43V127.45Z" fill="black"/>
<path d="M182.43 120.36H175.34V127.45H182.43V120.36Z" fill="#CCBB69"/>
<path d="M182.43 113.19H175.34V120.35H182.43V113.19Z" fill="#CCBB69"/>
<path d="M182.43 106.1H175.34V113.19H182.43V106.1Z" fill="black"/>
<path d="M175.34 320.16H168.18V327.25H175.34V320.16Z" fill="black"/>
<path d="M175.34 313H168.18V320.16H175.34V313Z" fill="#FF5A8D"/>
<path d="M175.34 305.9H168.18V312.99H175.34V305.9Z" fill="#FF749A"/>
<path d="M175.34 298.73H168.18V305.89H175.34V298.73Z" fill="black"/>
<path d="M175.34 220.26H168.18V227.35H175.34V220.26Z" fill="black"/>
<path d="M175.34 213.09H168.18V220.25H175.34V213.09Z" fill="black"/>
<path d="M175.34 206H168.18V213.09H175.34V206Z" fill="black"/>
<path d="M175.34 198.84H168.18V206H175.34V198.84Z" fill="black"/>
<path d="M175.34 191.73H168.18V198.82H175.34V191.73Z" fill="#EF997B"/>
<path d="M175.34 184.57H168.18V191.73H175.34V184.57Z" fill="#EF997B"/>
<path d="M175.34 177.41H168.18V184.57H175.34V177.41Z" fill="black"/>
<path d="M175.34 170.31H168.18V177.4H175.34V170.31Z" fill="#EF997B"/>
<path d="M175.34 163.14H168.18V170.3H175.34V163.14Z" fill="black"/>
<path d="M175.34 120.36H168.18V127.45H175.34V120.36Z" fill="black"/>
<path d="M175.34 113.19H168.18V120.35H175.34V113.19Z" fill="black"/>
<path d="M168.18 320.16H161.02V327.25H168.18V320.16Z" fill="black"/>
<path d="M168.18 313H161.02V320.16H168.18V313Z" fill="#FF5A8D"/>
<path d="M168.18 305.9H161.02V312.99H168.18V305.9Z" fill="#FF5A8D"/>
<path d="M168.18 298.73H161.02V305.89H168.18V298.73Z" fill="black"/>
<path d="M168.18 198.84H161.02V206H168.18V198.84Z" fill="black"/>
<path d="M168.18 191.73H161.02V198.82H168.18V191.73Z" fill="#EF997B"/>
<path d="M168.18 184.57H161.02V191.73H168.18V184.57Z" fill="black"/>
<path d="M168.18 177.41H161.02V184.57H168.18V177.41Z" fill="black"/>
<path d="M168.18 170.31H161.02V177.4H168.18V170.31Z" fill="#EF997B"/>
<path d="M168.18 163.14H161.02V170.3H168.18V163.14Z" fill="black"/>
<path d="M161.02 313H153.93V320.16H161.02V313Z" fill="black"/>
<path d="M161.02 305.9H153.93V312.99H161.02V305.9Z" fill="black"/>
<path d="M161.02 206H153.93V213.09H161.02V206Z" fill="black"/>
<path d="M161.02 198.84H153.93V206H161.02V198.84Z" fill="#EF997B"/>
<path d="M161.02 191.73H153.93V198.82H161.02V191.73Z" fill="#EF997B"/>
<path d="M161.02 184.57H153.93V191.73H161.02V184.57Z" fill="black"/>
<path d="M161.02 177.41H153.93V184.57H161.02V177.41Z" fill="black"/>
<path d="M161.02 170.31H153.93V177.4H161.02V170.31Z" fill="#EF997B"/>
<path d="M161.02 163.14H153.93V170.3H161.02V163.14Z" fill="#EF997B"/>
<path d="M161.02 156.05H153.93V163.14H161.02V156.05Z" fill="black"/>
<path d="M161.02 113.19H153.93V120.35H161.02V113.19Z" fill="#751545"/>
<path d="M161.02 106.1H153.93V113.19H161.02V106.1Z" fill="#751545"/>
<path d="M161.02 98.9299H153.93V106.09H161.02V98.9299Z" fill="#751545"/>
<path d="M161.02 91.8301H153.93V98.9201H161.02V91.8301Z" fill="#751545"/>
<path d="M153.91 305.9H146.75V312.99H153.91V305.9Z" fill="#751545"/>
<path d="M153.91 298.73H146.75V305.89H153.91V298.73Z" fill="#751545"/>
<path d="M153.91 291.57H146.75V298.73H153.91V291.57Z" fill="#751545"/>
<path d="M153.91 284.47H146.75V291.56H153.91V284.47Z" fill="#751545"/>
<path d="M153.91 277.31H146.75V284.47H153.91V277.31Z" fill="#751545"/>
<path d="M153.91 270.21H146.75V277.3H153.91V270.21Z" fill="#751545"/>
<path d="M153.91 263.04H146.75V270.2H153.91V263.04Z" fill="#751545"/>
<path d="M153.91 255.95H146.75V263.04H153.91V255.95Z" fill="#751545"/>
<path d="M153.91 248.79H146.75V255.95H153.91V248.79Z" fill="#751545"/>
<path d="M153.91 241.61H146.75V248.77H153.91V241.61Z" fill="#751545"/>
<path d="M153.91 234.52H146.75V241.61H153.91V234.52Z" fill="#751545"/>
<path d="M153.91 227.36H146.75V234.52H153.91V227.36Z" fill="#751545"/>
<path d="M153.91 220.26H146.75V227.35H153.91V220.26Z" fill="#751545"/>
<path d="M153.91 213.09H146.75V220.25H153.91V213.09Z" fill="#751545"/>
<path d="M153.91 206H146.75V213.09H153.91V206Z" fill="#751545"/>
<path d="M153.91 198.84H146.75V206H153.91V198.84Z" fill="#751545"/>
<path d="M153.91 191.73H146.75V198.82H153.91V191.73Z" fill="#751545"/>
<path d="M153.91 184.57H146.75V191.73H153.91V184.57Z" fill="#751545"/>
<path d="M153.91 177.41H146.75V184.57H153.91V177.41Z" fill="black"/>
<path d="M153.91 170.31H146.75V177.4H153.91V170.31Z" fill="#EF997B"/>
<path d="M153.91 163.14H146.75V170.3H153.91V163.14Z" fill="#EF997B"/>
<path d="M153.91 156.05H146.75V163.14H153.91V156.05Z" fill="#751545"/>
<path d="M153.91 148.88H146.75V156.04H153.91V148.88Z" fill="#751545"/>
<path d="M153.91 141.78H146.75V148.87H153.91V141.78Z" fill="#751545"/>
<path d="M153.91 134.62H146.75V141.78H153.91V134.62Z" fill="#751545"/>
<path d="M153.91 127.45H146.75V134.61H153.91V127.45Z" fill="#751545"/>
<path d="M153.91 120.36H146.75V127.45H153.91V120.36Z" fill="#751545"/>
<path d="M153.91 113.19H146.75V120.35H153.91V113.19Z" fill="#751545"/>
<path d="M153.91 106.1H146.75V113.19H153.91V106.1Z" fill="#751545"/>
<path d="M153.91 98.9299H146.75V106.09H153.91V98.9299Z" fill="#751545"/>
<path d="M153.91 91.8301H146.75V98.9201H153.91V91.8301Z" fill="#751545"/>
<path d="M153.91 84.6699H146.75V91.8299H153.91V84.6699Z" fill="#751545"/>
<path d="M146.75 198.84H139.66V206H146.75V198.84Z" fill="black"/>
<path d="M146.75 191.73H139.66V198.82H146.75V191.73Z" fill="black"/>
<path d="M146.75 170.31H139.66V177.4H146.75V170.31Z" fill="black"/>
<path d="M146.75 163.14H139.66V170.3H146.75V163.14Z" fill="black"/>
<path d="M146.75 148.88H139.66V156.04H146.75V148.88Z" fill="#751545"/>
<path d="M146.75 141.78H139.66V148.87H146.75V141.78Z" fill="#751545"/>
<path d="M146.75 134.62H139.66V141.78H146.75V134.62Z" fill="#751545"/>
<path d="M146.75 127.45H139.66V134.61H146.75V127.45Z" fill="#751545"/>
<path d="M146.75 120.36H139.66V127.45H146.75V120.36Z" fill="#751545"/>
<path d="M146.75 113.19H139.66V120.35H146.75V113.19Z" fill="#751545"/>
<path d="M146.75 106.1H139.66V113.19H146.75V106.1Z" fill="#06E1F7"/>
<path d="M146.75 98.9299H139.66V106.09H146.75V98.9299Z" fill="#06E1F7"/>
<path d="M146.75 91.8301H139.66V98.9201H146.75V91.8301Z" fill="#751545"/>
<path d="M146.75 84.6699H139.66V91.8299H146.75V84.6699Z" fill="#751545"/>
<path d="M146.75 77.5701H139.66V84.6601H146.75V77.5701Z" fill="#751545"/>
<path d="M139.66 127.45H132.5V134.61H139.66V127.45Z" fill="#751545"/>
<path d="M139.66 120.36H132.5V127.45H139.66V120.36Z" fill="#751545"/>
<path d="M139.66 113.19H132.5V120.35H139.66V113.19Z" fill="#751545"/>
<path d="M139.66 106.1H132.5V113.19H139.66V106.1Z" fill="#06E1F7"/>
<path d="M139.66 98.9299H132.5V106.09H139.66V98.9299Z" fill="#06E1F7"/>
<path d="M139.66 91.8301H132.5V98.9201H139.66V91.8301Z" fill="#751545"/>
<path d="M139.66 84.6699H132.5V91.8299H139.66V84.6699Z" fill="#751545"/>
<path d="M139.66 77.5701H132.5V84.6601H139.66V77.5701Z" fill="#751545"/>
<path d="M132.481 113.19H125.391V120.35H132.481V113.19Z" fill="#751545"/>
<path d="M132.481 106.1H125.391V113.19H132.481V106.1Z" fill="#751545"/>
<path d="M132.481 98.9299H125.391V106.09H132.481V98.9299Z" fill="#751545"/>
<path d="M132.481 91.8301H125.391V98.9201H132.481V91.8301Z" fill="#751545"/>
<path d="M132.481 84.6699H125.391V91.8299H132.481V84.6699Z" fill="#751545"/>
</svg>
