<svg width="400" height="400" viewBox="0 0 400 400" fill="none" xmlns="http://www.w3.org/2000/svg">
<path d="M200.001 385.78C302.604 385.78 385.781 302.603 385.781 200C385.781 97.3965 302.604 14.22 200.001 14.22C97.3972 14.22 14.2207 97.3965 14.2207 200C14.2207 302.603 97.3972 385.78 200.001 385.78Z" fill="black"/>
<path d="M200.001 392.78C93.7007 392.78 7.2207 306.3 7.2207 200C7.2207 93.7 93.7007 7.21997 200.001 7.21997C306.301 7.21997 392.781 93.7 392.781 200C392.781 306.3 306.301 392.78 200.001 392.78ZM200.001 21.22C101.421 21.22 21.2207 101.42 21.2207 200C21.2207 298.58 101.421 378.78 200.001 378.78C298.581 378.78 378.781 298.58 378.781 200C378.781 101.42 298.581 21.22 200.001 21.22Z" fill="#C64B1A"/>
<path d="M210.889 293.97H205.109V299.7H210.889V293.97Z" fill="#6B1F01"/>
<path d="M210.889 299.7H205.109V305.48H210.889V299.7Z" fill="#6B1F01"/>
<path d="M210.889 270.97H205.109V276.69H210.889V270.97Z" fill="#6B1F01"/>
<path d="M210.889 265.19H205.109V270.97H210.889V265.19Z" fill="#6B1F01"/>
<path d="M210.889 276.69H205.109V282.47H210.889V276.69Z" fill="#6B1F01"/>
<path d="M210.889 282.47H205.109V288.19H210.889V282.47Z" fill="#6B1F01"/>
<path d="M205.111 288.2H199.391V293.98H205.111V288.2Z" fill="#7C2A05"/>
<path d="M199.389 299.7H193.609V305.48H199.389V299.7Z" fill="#7C2A05"/>
<path d="M205.111 276.69H199.391V282.47H205.111V276.69Z" fill="#6B1F01"/>
<path d="M199.389 293.97H193.609V299.7H199.389V293.97Z" fill="#7C2A05"/>
<path d="M199.389 276.69H193.609V282.47H199.389V276.69Z" fill="#7C2A05"/>
<path d="M205.111 270.97H199.391V276.69H205.111V270.97Z" fill="#7C2A05"/>
<path d="M205.111 282.47H199.391V288.19H205.111V282.47Z" fill="#7C2A05"/>
<path d="M205.111 265.19H199.391V270.97H205.111V265.19Z" fill="#6B1F01"/>
<path d="M199.389 288.2H193.609V293.98H199.389V288.2Z" fill="#7C2A05"/>
<path d="M199.389 282.47H193.609V288.19H199.389V282.47Z" fill="#7C2A05"/>
<path d="M199.389 265.19H193.609V270.97H199.389V265.19Z" fill="#7C2A05"/>
<path d="M199.389 270.97H193.609V276.69H199.389V270.97Z" fill="#7C2A05"/>
<path d="M176.32 299.7H170.6V305.48H176.32V299.7Z" fill="#6B1F01"/>
<path d="M182.1 259.41H176.32V265.19H182.1V259.41Z" fill="#7C2A05"/>
<path d="M182.1 276.69H176.32V282.47H182.1V276.69Z" fill="#7C2A05"/>
<path d="M182.1 265.19H176.32V270.97H182.1V265.19Z" fill="#7C2A05"/>
<path d="M182.1 270.97H176.32V276.69H182.1V270.97Z" fill="#7C2A05"/>
<path d="M182.1 282.47H176.32V288.19H182.1V282.47Z" fill="#6B1F01"/>
<path d="M176.32 265.19H170.6V270.97H176.32V265.19Z" fill="#7C2A05"/>
<path d="M176.32 276.69H170.6V282.47H176.32V276.69Z" fill="#6B1F01"/>
<path d="M176.32 282.47H170.6V288.19H176.32V282.47Z" fill="#6B1F01"/>
<path d="M176.32 270.97H170.6V276.69H176.32V270.97Z" fill="#7C2A05"/>
<path d="M176.32 259.41H170.6V265.19H176.32V259.41Z" fill="#7C2A05"/>
<path d="M187.88 299.7H182.1V305.48H187.88V299.7Z" fill="#6B1F01"/>
<path d="M182.1 293.97H176.32V299.7H182.1V293.97Z" fill="#6B1F01"/>
<path d="M187.88 293.97H182.1V299.7H187.88V293.97Z" fill="#7C2A05"/>
<path d="M187.88 276.69H182.1V282.47H187.88V276.69Z" fill="#7C2A05"/>
<path d="M187.88 288.2H182.1V293.98H187.88V288.2Z" fill="#7C2A05"/>
<path d="M187.88 282.47H182.1V288.19H187.88V282.47Z" fill="#7C2A05"/>
<path d="M187.88 265.19H182.1V270.97H187.88V265.19Z" fill="#7C2A05"/>
<path d="M187.88 270.97H182.1V276.69H187.88V270.97Z" fill="#7C2A05"/>
<path d="M182.1 288.2H176.32V293.98H182.1V288.2Z" fill="#6B1F01"/>
<path d="M268.41 305.48H262.68V311.2H268.41V305.48Z" fill="black"/>
<path d="M268.41 299.7H262.68V305.48H268.41V299.7Z" fill="black"/>
<path d="M268.41 293.97H262.68V299.7H268.41V293.97Z" fill="black"/>
<path d="M268.41 288.2H262.68V293.98H268.41V288.2Z" fill="black"/>
<path d="M268.41 282.47H262.68V288.19H268.41V282.47Z" fill="black"/>
<path d="M268.41 276.69H262.68V282.47H268.41V276.69Z" fill="black"/>
<path d="M268.41 270.97H262.68V276.69H268.41V270.97Z" fill="black"/>
<path d="M268.41 265.19H262.68V270.97H268.41V265.19Z" fill="black"/>
<path d="M268.41 259.41H262.68V265.19H268.41V259.41Z" fill="black"/>
<path d="M268.41 253.68H262.68V259.41H268.41V253.68Z" fill="black"/>
<path d="M268.41 247.91H262.68V253.69H268.41V247.91Z" fill="black"/>
<path d="M268.41 242.18H262.68V247.9H268.41V242.18Z" fill="black"/>
<path d="M268.41 236.4H262.68V242.18H268.41V236.4Z" fill="black"/>
<path d="M268.41 230.68H262.68V236.4H268.41V230.68Z" fill="black"/>
<path d="M268.41 224.9H262.68V230.68H268.41V224.9Z" fill="black"/>
<path d="M268.41 219.12H262.68V224.9H268.41V219.12Z" fill="black"/>
<path d="M268.41 213.39H262.68V219.11H268.41V213.39Z" fill="black"/>
<path d="M268.41 207.61H262.68V213.39H268.41V207.61Z" fill="black"/>
<path d="M268.41 201.89H262.68V207.61H268.41V201.89Z" fill="black"/>
<path d="M268.41 196.11H262.68V201.89H268.41V196.11Z" fill="black"/>
<path d="M268.41 190.39H262.68V196.11H268.41V190.39Z" fill="black"/>
<path d="M268.41 184.61H262.68V190.39H268.41V184.61Z" fill="black"/>
<path d="M268.41 178.88H262.68V184.6H268.41V178.88Z" fill="black"/>
<path d="M262.69 305.48H256.91V311.2H262.69V305.48Z" fill="black"/>
<path d="M262.69 299.7H256.91V305.48H262.69V299.7Z" fill="#DB4B03"/>
<path d="M262.69 293.97H256.91V299.7H262.69V293.97Z" fill="#DB4B03"/>
<path d="M262.69 288.2H256.91V293.98H262.69V288.2Z" fill="#DB4B03"/>
<path d="M262.69 282.47H256.91V288.19H262.69V282.47Z" fill="#DB4B03"/>
<path d="M262.69 276.69H256.91V282.47H262.69V276.69Z" fill="#DB4B03"/>
<path d="M262.69 270.97H256.91V276.69H262.69V270.97Z" fill="#DB4B03"/>
<path d="M262.69 265.19H256.91V270.97H262.69V265.19Z" fill="#DB4B03"/>
<path d="M262.69 259.41H256.91V265.19H262.69V259.41Z" fill="#DB4B03"/>
<path d="M262.69 253.68H256.91V259.41H262.69V253.68Z" fill="#DB4B03"/>
<path d="M262.69 247.91H256.91V253.69H262.69V247.91Z" fill="#FF5A00"/>
<path d="M262.69 242.18H256.91V247.9H262.69V242.18Z" fill="#FF5A00"/>
<path d="M262.69 236.4H256.91V242.18H262.69V236.4Z" fill="#FF5A00"/>
<path d="M262.69 230.68H256.91V236.4H262.69V230.68Z" fill="#FF5A00"/>
<path d="M262.69 224.9H256.91V230.68H262.69V224.9Z" fill="#FF5A00"/>
<path d="M262.69 219.12H256.91V224.9H262.69V219.12Z" fill="#FF5A00"/>
<path d="M262.69 213.39H256.91V219.11H262.69V213.39Z" fill="#FF5A00"/>
<path d="M262.69 207.61H256.91V213.39H262.69V207.61Z" fill="#FF5A00"/>
<path d="M262.69 201.89H256.91V207.61H262.69V201.89Z" fill="#FF5A00"/>
<path d="M262.69 196.11H256.91V201.89H262.69V196.11Z" fill="#FF5A00"/>
<path d="M262.69 190.39H256.91V196.11H262.69V190.39Z" fill="#DB4B03"/>
<path d="M262.69 184.61H256.91V190.39H262.69V184.61Z" fill="#DB4B03"/>
<path d="M262.69 178.88H256.91V184.6H262.69V178.88Z" fill="#DB4B03"/>
<path d="M262.69 173.1H256.91V178.88H262.69V173.1Z" fill="black"/>
<path d="M262.69 167.32H256.91V173.1H262.69V167.32Z" fill="black"/>
<path d="M256.9 299.7H251.18V305.48H256.9V299.7Z" fill="black"/>
<path d="M256.9 293.97H251.18V299.7H256.9V293.97Z" fill="#DB4B03"/>
<path d="M256.9 288.2H251.18V293.98H256.9V288.2Z" fill="#DB4B03"/>
<path d="M256.9 282.47H251.18V288.19H256.9V282.47Z" fill="#DB4B03"/>
<path d="M256.9 276.69H251.18V282.47H256.9V276.69Z" fill="#DB4B03"/>
<path d="M256.9 270.97H251.18V276.69H256.9V270.97Z" fill="#DB4B03"/>
<path d="M256.9 265.19H251.18V270.97H256.9V265.19Z" fill="#FF5A00"/>
<path d="M256.9 259.41H251.18V265.19H256.9V259.41Z" fill="#FF5A00"/>
<path d="M256.9 253.68H251.18V259.41H256.9V253.68Z" fill="#FF5A00"/>
<path d="M256.9 247.91H251.18V253.69H256.9V247.91Z" fill="#FF5A00"/>
<path d="M256.9 242.18H251.18V247.9H256.9V242.18Z" fill="#FF5A00"/>
<path d="M256.9 236.4H251.18V242.18H256.9V236.4Z" fill="#FF5A00"/>
<path d="M256.9 230.68H251.18V236.4H256.9V230.68Z" fill="#FF5A00"/>
<path d="M256.9 224.9H251.18V230.68H256.9V224.9Z" fill="#FF5A00"/>
<path d="M256.9 219.12H251.18V224.9H256.9V219.12Z" fill="#FF5A00"/>
<path d="M256.9 213.39H251.18V219.11H256.9V213.39Z" fill="#FF5A00"/>
<path d="M256.9 207.61H251.18V213.39H256.9V207.61Z" fill="#FF5A00"/>
<path d="M256.9 201.89H251.18V207.61H256.9V201.89Z" fill="#FF5A00"/>
<path d="M256.9 196.11H251.18V201.89H256.9V196.11Z" fill="#FF5A00"/>
<path d="M256.9 190.39H251.18V196.11H256.9V190.39Z" fill="#FF5A00"/>
<path d="M256.9 184.61H251.18V190.39H256.9V184.61Z" fill="#FF5A00"/>
<path d="M256.9 178.88H251.18V184.6H256.9V178.88Z" fill="#DB4B03"/>
<path d="M256.9 173.1H251.18V178.88H256.9V173.1Z" fill="#DB4B03"/>
<path d="M256.9 167.32H251.18V173.1H256.9V167.32Z" fill="black"/>
<path d="M256.9 161.6H251.18V167.32H256.9V161.6Z" fill="black"/>
<path d="M251.18 305.48H245.4V311.2H251.18V305.48Z" fill="black"/>
<path d="M251.18 299.7H245.4V305.48H251.18V299.7Z" fill="#DB4B03"/>
<path d="M251.18 293.97H245.4V299.7H251.18V293.97Z" fill="#DB4B03"/>
<path d="M251.18 288.2H245.4V293.98H251.18V288.2Z" fill="#DB4B03"/>
<path d="M251.18 282.47H245.4V288.19H251.18V282.47Z" fill="#DB4B03"/>
<path d="M251.18 276.69H245.4V282.47H251.18V276.69Z" fill="#DB4B03"/>
<path d="M251.18 270.97H245.4V276.69H251.18V270.97Z" fill="#FF5A00"/>
<path d="M251.18 265.19H245.4V270.97H251.18V265.19Z" fill="#FF5A00"/>
<path d="M251.18 259.41H245.4V265.19H251.18V259.41Z" fill="#FF5A00"/>
<path d="M251.18 253.68H245.4V259.41H251.18V253.68Z" fill="#FF5A00"/>
<path d="M251.18 247.91H245.4V253.69H251.18V247.91Z" fill="#FF5A00"/>
<path d="M251.18 242.18H245.4V247.9H251.18V242.18Z" fill="#FF5A00"/>
<path d="M251.18 236.4H245.4V242.18H251.18V236.4Z" fill="#FF5A00"/>
<path d="M251.18 230.68H245.4V236.4H251.18V230.68Z" fill="#FF5A00"/>
<path d="M251.18 224.9H245.4V230.68H251.18V224.9Z" fill="#FF5A00"/>
<path d="M251.18 219.12H245.4V224.9H251.18V219.12Z" fill="#FF5A00"/>
<path d="M251.18 213.39H245.4V219.11H251.18V213.39Z" fill="#FF5A00"/>
<path d="M251.18 207.61H245.4V213.39H251.18V207.61Z" fill="#FF5A00"/>
<path d="M251.18 201.89H245.4V207.61H251.18V201.89Z" fill="#FF5A00"/>
<path d="M251.18 196.11H245.4V201.89H251.18V196.11Z" fill="#FF5A00"/>
<path d="M251.18 190.39H245.4V196.11H251.18V190.39Z" fill="#FF5A00"/>
<path d="M251.18 184.61H245.4V190.39H251.18V184.61Z" fill="#FF5A00"/>
<path d="M251.18 178.88H245.4V184.6H251.18V178.88Z" fill="#FF5A00"/>
<path d="M251.18 173.1H245.4V178.88H251.18V173.1Z" fill="#DB4B03"/>
<path d="M251.18 167.32H245.4V173.1H251.18V167.32Z" fill="#DB4B03"/>
<path d="M251.18 161.6H245.4V167.32H251.18V161.6Z" fill="black"/>
<path d="M251.18 155.82H245.4V161.6H251.18V155.82Z" fill="black"/>
<path d="M251.18 150.1H245.4V155.82H251.18V150.1Z" fill="black"/>
<path d="M251.18 144.32H245.4V150.1H251.18V144.32Z" fill="black"/>
<path d="M245.4 305.48H239.68V311.2H245.4V305.48Z" fill="black"/>
<path d="M245.4 299.7H239.68V305.48H245.4V299.7Z" fill="#DB4B03"/>
<path d="M245.4 293.97H239.68V299.7H245.4V293.97Z" fill="#DB4B03"/>
<path d="M245.4 288.2H239.68V293.98H245.4V288.2Z" fill="#DB4B03"/>
<path d="M245.4 282.47H239.68V288.19H245.4V282.47Z" fill="#DB4B03"/>
<path d="M245.4 276.69H239.68V282.47H245.4V276.69Z" fill="#FF5A00"/>
<path d="M245.4 270.97H239.68V276.69H245.4V270.97Z" fill="#FF5A00"/>
<path d="M245.4 265.19H239.68V270.97H245.4V265.19Z" fill="#FF5A00"/>
<path d="M245.4 259.41H239.68V265.19H245.4V259.41Z" fill="#FF5A00"/>
<path d="M245.4 253.68H239.68V259.41H245.4V253.68Z" fill="#FF5A00"/>
<path d="M245.4 247.91H239.68V253.69H245.4V247.91Z" fill="#FF5A00"/>
<path d="M245.4 242.18H239.68V247.9H245.4V242.18Z" fill="#FF5A00"/>
<path d="M245.4 236.4H239.68V242.18H245.4V236.4Z" fill="#FF5A00"/>
<path d="M245.4 230.68H239.68V236.4H245.4V230.68Z" fill="#FF5A00"/>
<path d="M245.4 224.9H239.68V230.68H245.4V224.9Z" fill="#FF5A00"/>
<path d="M245.4 219.12H239.68V224.9H245.4V219.12Z" fill="#FF5A00"/>
<path d="M245.4 213.39H239.68V219.11H245.4V213.39Z" fill="#FF5A00"/>
<path d="M245.4 207.61H239.68V213.39H245.4V207.61Z" fill="#FF5A00"/>
<path d="M245.4 201.89H239.68V207.61H245.4V201.89Z" fill="#FF5A00"/>
<path d="M245.4 196.11H239.68V201.89H245.4V196.11Z" fill="#FF5A00"/>
<path d="M245.4 190.39H239.68V196.11H245.4V190.39Z" fill="#FF5A00"/>
<path d="M245.4 184.61H239.68V190.39H245.4V184.61Z" fill="#FF5A00"/>
<path d="M245.4 178.88H239.68V184.6H245.4V178.88Z" fill="#FF5A00"/>
<path d="M245.4 173.1H239.68V178.88H245.4V173.1Z" fill="#FF5A00"/>
<path d="M245.4 167.32H239.68V173.1H245.4V167.32Z" fill="#DB4B03"/>
<path d="M245.4 161.6H239.68V167.32H245.4V161.6Z" fill="#DB4B03"/>
<path d="M245.4 155.82H239.68V161.6H245.4V155.82Z" fill="black"/>
<path d="M245.4 150.1H239.68V155.82H245.4V150.1Z" fill="#DB4B03"/>
<path d="M245.4 144.32H239.68V150.1H245.4V144.32Z" fill="#DB4B03"/>
<path d="M245.4 138.59H239.68V144.31H245.4V138.59Z" fill="black"/>
<path d="M239.68 305.48H233.9V311.2H239.68V305.48Z" fill="black"/>
<path d="M239.68 299.7H233.9V305.48H239.68V299.7Z" fill="#DB4B03"/>
<path d="M239.68 293.97H233.9V299.7H239.68V293.97Z" fill="#DB4B03"/>
<path d="M239.68 288.2H233.9V293.98H239.68V288.2Z" fill="#DB4B03"/>
<path d="M239.68 282.47H233.9V288.19H239.68V282.47Z" fill="#FF5A00"/>
<path d="M239.68 276.69H233.9V282.47H239.68V276.69Z" fill="#FF5A00"/>
<path d="M239.68 270.97H233.9V276.69H239.68V270.97Z" fill="#FF5A00"/>
<path d="M239.68 265.19H233.9V270.97H239.68V265.19Z" fill="#FF5A00"/>
<path d="M239.68 259.41H233.9V265.19H239.68V259.41Z" fill="#FF5A00"/>
<path d="M239.68 253.68H233.9V259.41H239.68V253.68Z" fill="#FF5A00"/>
<path d="M239.68 247.91H233.9V253.69H239.68V247.91Z" fill="#FF5A00"/>
<path d="M239.68 242.18H233.9V247.9H239.68V242.18Z" fill="#FF5A00"/>
<path d="M239.68 236.4H233.9V242.18H239.68V236.4Z" fill="#FF5A00"/>
<path d="M239.68 230.68H233.9V236.4H239.68V230.68Z" fill="#FF5A00"/>
<path d="M239.68 224.9H233.9V230.68H239.68V224.9Z" fill="#FF5A00"/>
<path d="M239.68 219.12H233.9V224.9H239.68V219.12Z" fill="#FF5A00"/>
<path d="M239.68 213.39H233.9V219.11H239.68V213.39Z" fill="#FF5A00"/>
<path d="M239.68 207.61H233.9V213.39H239.68V207.61Z" fill="#FF5A00"/>
<path d="M239.68 201.89H233.9V207.61H239.68V201.89Z" fill="#FF5A00"/>
<path d="M239.68 196.11H233.9V201.89H239.68V196.11Z" fill="#FF5A00"/>
<path d="M239.68 190.39H233.9V196.11H239.68V190.39Z" fill="#FF5A00"/>
<path d="M239.68 184.61H233.9V190.39H239.68V184.61Z" fill="#FF5A00"/>
<path d="M239.68 178.88H233.9V184.6H239.68V178.88Z" fill="#FF5A00"/>
<path d="M239.68 173.1H233.9V178.88H239.68V173.1Z" fill="#FF5A00"/>
<path d="M239.68 167.32H233.9V173.1H239.68V167.32Z" fill="#DB4B03"/>
<path d="M239.68 161.6H233.9V167.32H239.68V161.6Z" fill="black"/>
<path d="M239.68 155.82H233.9V161.6H239.68V155.82Z" fill="#DB4B03"/>
<path d="M239.68 150.1H233.9V155.82H239.68V150.1Z" fill="#FF5A00"/>
<path d="M239.68 144.32H233.9V150.1H239.68V144.32Z" fill="#DB4B03"/>
<path d="M239.68 138.59H233.9V144.31H239.68V138.59Z" fill="#DB4B03"/>
<path d="M239.68 132.81H233.9V138.59H239.68V132.81Z" fill="black"/>
<path d="M239.68 127.03H233.9V132.81H239.68V127.03Z" fill="black"/>
<path d="M233.899 305.48H228.119V311.2H233.899V305.48Z" fill="black"/>
<path d="M233.899 299.7H228.119V305.48H233.899V299.7Z" fill="#DB4B03"/>
<path d="M233.899 293.97H228.119V299.7H233.899V293.97Z" fill="#DB4B03"/>
<path d="M233.899 288.2H228.119V293.98H233.899V288.2Z" fill="#FF5A00"/>
<path d="M233.899 282.47H228.119V288.19H233.899V282.47Z" fill="#FF5A00"/>
<path d="M233.899 276.69H228.119V282.47H233.899V276.69Z" fill="#FF5A00"/>
<path d="M233.899 270.97H228.119V276.69H233.899V270.97Z" fill="#FF5A00"/>
<path d="M233.899 265.19H228.119V270.97H233.899V265.19Z" fill="#FF5A00"/>
<path d="M233.899 259.41H228.119V265.19H233.899V259.41Z" fill="#FF5A00"/>
<path d="M233.899 253.68H228.119V259.41H233.899V253.68Z" fill="#FF5A00"/>
<path d="M233.899 247.91H228.119V253.69H233.899V247.91Z" fill="#FF5A00"/>
<path d="M233.899 242.18H228.119V247.9H233.899V242.18Z" fill="#FF5A00"/>
<path d="M233.899 236.4H228.119V242.18H233.899V236.4Z" fill="#FF5A00"/>
<path d="M233.899 230.68H228.119V236.4H233.899V230.68Z" fill="#FF5A00"/>
<path d="M233.899 224.9H228.119V230.68H233.899V224.9Z" fill="#FF5A00"/>
<path d="M233.899 219.12H228.119V224.9H233.899V219.12Z" fill="#FF5A00"/>
<path d="M233.899 213.39H228.119V219.11H233.899V213.39Z" fill="#FF5A00"/>
<path d="M233.899 207.61H228.119V213.39H233.899V207.61Z" fill="#FF5A00"/>
<path d="M233.899 201.89H228.119V207.61H233.899V201.89Z" fill="#FF5A00"/>
<path d="M233.899 196.11H228.119V201.89H233.899V196.11Z" fill="#FF5A00"/>
<path d="M233.899 190.39H228.119V196.11H233.899V190.39Z" fill="#FF5A00"/>
<path d="M233.899 184.61H228.119V190.39H233.899V184.61Z" fill="#FF5A00"/>
<path d="M233.899 178.88H228.119V184.6H233.899V178.88Z" fill="#DB4B03"/>
<path d="M233.899 173.1H228.119V178.88H233.899V173.1Z" fill="#DB4B03"/>
<path d="M233.899 167.32H228.119V173.1H233.899V167.32Z" fill="black"/>
<path d="M233.899 161.6H228.119V167.32H233.899V161.6Z" fill="#DB4B03"/>
<path d="M233.899 155.82H228.119V161.6H233.899V155.82Z" fill="#FF5A00"/>
<path d="M233.899 150.1H228.119V155.82H233.899V150.1Z" fill="#FF5A00"/>
<path d="M233.899 144.32H228.119V150.1H233.899V144.32Z" fill="#FF5A00"/>
<path d="M233.899 138.59H228.119V144.31H233.899V138.59Z" fill="#DB4B03"/>
<path d="M233.899 132.81H228.119V138.59H233.899V132.81Z" fill="#DB4B03"/>
<path d="M233.899 127.03H228.119V132.81H233.899V127.03Z" fill="#DB4B03"/>
<path d="M233.899 121.31H228.119V127.03H233.899V121.31Z" fill="black"/>
<path d="M233.899 115.53H228.119V121.31H233.899V115.53Z" fill="black"/>
<path d="M228.111 305.48H222.391V311.2H228.111V305.48Z" fill="black"/>
<path d="M228.111 299.7H222.391V305.48H228.111V299.7Z" fill="#DB4B03"/>
<path d="M228.111 293.97H222.391V299.7H228.111V293.97Z" fill="#DB4B03"/>
<path d="M228.111 288.2H222.391V293.98H228.111V288.2Z" fill="#FF5A00"/>
<path d="M228.111 282.47H222.391V288.19H228.111V282.47Z" fill="#FF5A00"/>
<path d="M228.111 276.69H222.391V282.47H228.111V276.69Z" fill="#FF5A00"/>
<path d="M228.111 270.97H222.391V276.69H228.111V270.97Z" fill="#FF5A00"/>
<path d="M228.111 265.19H222.391V270.97H228.111V265.19Z" fill="#FF5A00"/>
<path d="M228.111 259.41H222.391V265.19H228.111V259.41Z" fill="#FF5A00"/>
<path d="M228.111 253.68H222.391V259.41H228.111V253.68Z" fill="#FF5A00"/>
<path d="M228.111 247.91H222.391V253.69H228.111V247.91Z" fill="#FF5A00"/>
<path d="M228.111 242.18H222.391V247.9H228.111V242.18Z" fill="#FF5A00"/>
<path d="M228.111 236.4H222.391V242.18H228.111V236.4Z" fill="#FF5A00"/>
<path d="M228.111 230.68H222.391V236.4H228.111V230.68Z" fill="#FF5A00"/>
<path d="M228.111 224.9H222.391V230.68H228.111V224.9Z" fill="#FF5A00"/>
<path d="M228.111 219.12H222.391V224.9H228.111V219.12Z" fill="#FF5A00"/>
<path d="M228.111 213.39H222.391V219.11H228.111V213.39Z" fill="#FF5A00"/>
<path d="M228.111 207.61H222.391V213.39H228.111V207.61Z" fill="#FF5A00"/>
<path d="M228.111 201.89H222.391V207.61H228.111V201.89Z" fill="#FF5A00"/>
<path d="M228.111 196.11H222.391V201.89H228.111V196.11Z" fill="#FF5A00"/>
<path d="M228.111 190.39H222.391V196.11H228.111V190.39Z" fill="#FF5A00"/>
<path d="M228.111 184.61H222.391V190.39H228.111V184.61Z" fill="#DB4B03"/>
<path d="M228.111 178.88H222.391V184.6H228.111V178.88Z" fill="black"/>
<path d="M228.111 173.1H222.391V178.88H228.111V173.1Z" fill="black"/>
<path d="M228.111 167.32H222.391V173.1H228.111V167.32Z" fill="#FF5A00"/>
<path d="M228.111 161.6H222.391V167.32H228.111V161.6Z" fill="black"/>
<path d="M228.111 155.82H222.391V161.6H228.111V155.82Z" fill="#FF5A00"/>
<path d="M228.111 150.1H222.391V155.82H228.111V150.1Z" fill="#FF5A00"/>
<path d="M228.111 144.32H222.391V150.1H228.111V144.32Z" fill="#FF5A00"/>
<path d="M228.111 138.59H222.391V144.31H228.111V138.59Z" fill="#FF5A00"/>
<path d="M228.111 132.81H222.391V138.59H228.111V132.81Z" fill="#DB4B03"/>
<path d="M228.111 127.03H222.391V132.81H228.111V127.03Z" fill="#DB4B03"/>
<path d="M228.111 121.31H222.391V127.03H228.111V121.31Z" fill="#DB4B03"/>
<path d="M228.111 115.53H222.391V121.31H228.111V115.53Z" fill="black"/>
<path d="M228.111 109.81H222.391V115.53H228.111V109.81Z" fill="black"/>
<path d="M228.111 104.03H222.391V109.81H228.111V104.03Z" fill="black"/>
<path d="M222.389 305.48H216.609V311.2H222.389V305.48Z" fill="black"/>
<path d="M222.389 299.7H216.609V305.48H222.389V299.7Z" fill="#DB4B03"/>
<path d="M222.389 293.97H216.609V299.7H222.389V293.97Z" fill="#FF5A00"/>
<path d="M222.389 288.2H216.609V293.98H222.389V288.2Z" fill="#FF5A00"/>
<path d="M222.389 282.47H216.609V288.19H222.389V282.47Z" fill="#FF5A00"/>
<path d="M222.389 276.69H216.609V282.47H222.389V276.69Z" fill="#FF5A00"/>
<path d="M222.389 270.97H216.609V276.69H222.389V270.97Z" fill="#FF5A00"/>
<path d="M222.389 265.19H216.609V270.97H222.389V265.19Z" fill="#FF5A00"/>
<path d="M222.389 259.41H216.609V265.19H222.389V259.41Z" fill="#FF5A00"/>
<path d="M222.389 253.68H216.609V259.41H222.389V253.68Z" fill="#FF5A00"/>
<path d="M222.389 247.91H216.609V253.69H222.389V247.91Z" fill="#FF5A00"/>
<path d="M222.389 242.18H216.609V247.9H222.389V242.18Z" fill="#FF5A00"/>
<path d="M222.389 236.4H216.609V242.18H222.389V236.4Z" fill="#FF5A00"/>
<path d="M222.389 230.68H216.609V236.4H222.389V230.68Z" fill="#FF5A00"/>
<path d="M222.389 224.9H216.609V230.68H222.389V224.9Z" fill="#FF5A00"/>
<path d="M222.389 219.12H216.609V224.9H222.389V219.12Z" fill="#FF5A00"/>
<path d="M222.389 213.39H216.609V219.11H222.389V213.39Z" fill="#FF5A00"/>
<path d="M222.389 207.61H216.609V213.39H222.389V207.61Z" fill="#DB4B03"/>
<path d="M222.389 201.89H216.609V207.61H222.389V201.89Z" fill="#DB4B03"/>
<path d="M222.389 196.11H216.609V201.89H222.389V196.11Z" fill="#DB4B03"/>
<path d="M222.389 190.39H216.609V196.11H222.389V190.39Z" fill="#DB4B03"/>
<path d="M222.389 184.61H216.609V190.39H222.389V184.61Z" fill="#6B1F01"/>
<path d="M222.389 178.88H216.609V184.6H222.389V178.88Z" fill="#6B1F01"/>
<path d="M222.389 173.1H216.609V178.88H222.389V173.1Z" fill="black"/>
<path d="M222.389 167.32H216.609V173.1H222.389V167.32Z" fill="#FF5A00"/>
<path d="M222.389 161.6H216.609V167.32H222.389V161.6Z" fill="black"/>
<path d="M222.389 155.82H216.609V161.6H222.389V155.82Z" fill="black"/>
<path d="M222.389 150.1H216.609V155.82H222.389V150.1Z" fill="#FF5A00"/>
<path d="M222.389 144.32H216.609V150.1H222.389V144.32Z" fill="#FF5A00"/>
<path d="M222.389 138.59H216.609V144.31H222.389V138.59Z" fill="#FF5A00"/>
<path d="M222.389 132.81H216.609V138.59H222.389V132.81Z" fill="#FF5A00"/>
<path d="M222.389 127.03H216.609V132.81H222.389V127.03Z" fill="#FF5A00"/>
<path d="M222.389 121.31H216.609V127.03H222.389V121.31Z" fill="#DB4B03"/>
<path d="M222.389 115.53H216.609V121.31H222.389V115.53Z" fill="#DB4B03"/>
<path d="M222.389 109.81H216.609V115.53H222.389V109.81Z" fill="#FF5A00"/>
<path d="M222.389 104.03H216.609V109.81H222.389V104.03Z" fill="black"/>
<path d="M216.611 305.48H210.891V311.2H216.611V305.48Z" fill="black"/>
<path d="M216.611 299.7H210.891V305.48H216.611V299.7Z" fill="black"/>
<path d="M216.611 293.97H210.891V299.7H216.611V293.97Z" fill="black"/>
<path d="M216.611 288.2H210.891V293.98H216.611V288.2Z" fill="black"/>
<path d="M216.611 282.47H210.891V288.19H216.611V282.47Z" fill="black"/>
<path d="M216.611 276.69H210.891V282.47H216.611V276.69Z" fill="black"/>
<path d="M216.611 270.97H210.891V276.69H216.611V270.97Z" fill="black"/>
<path d="M216.611 265.19H210.891V270.97H216.611V265.19Z" fill="black"/>
<path d="M216.611 259.41H210.891V265.19H216.611V259.41Z" fill="black"/>
<path d="M216.611 253.68H210.891V259.41H216.611V253.68Z" fill="black"/>
<path d="M216.611 247.91H210.891V253.69H216.611V247.91Z" fill="black"/>
<path d="M216.611 242.18H210.891V247.9H216.611V242.18Z" fill="black"/>
<path d="M216.611 236.4H210.891V242.18H216.611V236.4Z" fill="black"/>
<path d="M216.611 230.68H210.891V236.4H216.611V230.68Z" fill="black"/>
<path d="M216.611 224.9H210.891V230.68H216.611V224.9Z" fill="black"/>
<path d="M216.611 219.12H210.891V224.9H216.611V219.12Z" fill="black"/>
<path d="M216.611 213.39H210.891V219.11H216.611V213.39Z" fill="black"/>
<path d="M216.611 207.61H210.891V213.39H216.611V207.61Z" fill="black"/>
<path d="M216.611 201.89H210.891V207.61H216.611V201.89Z" fill="black"/>
<path d="M216.611 196.11H210.891V201.89H216.611V196.11Z" fill="black"/>
<path d="M216.611 190.39H210.891V196.11H216.611V190.39Z" fill="black"/>
<path d="M216.611 184.61H210.891V190.39H216.611V184.61Z" fill="#200621"/>
<path d="M216.611 178.88H210.891V184.6H216.611V178.88Z" fill="#6B1F01"/>
<path d="M216.611 173.1H210.891V178.88H216.611V173.1Z" fill="black"/>
<path d="M216.611 167.32H210.891V173.1H216.611V167.32Z" fill="black"/>
<path d="M216.611 161.6H210.891V167.32H216.611V161.6Z" fill="#200621"/>
<path d="M216.611 155.82H210.891V161.6H216.611V155.82Z" fill="#200621"/>
<path d="M216.611 150.1H210.891V155.82H216.611V150.1Z" fill="black"/>
<path d="M216.611 144.32H210.891V150.1H216.611V144.32Z" fill="#FF5A00"/>
<path d="M216.611 138.59H210.891V144.31H216.611V138.59Z" fill="#FF5A00"/>
<path d="M216.611 132.81H210.891V138.59H216.611V132.81Z" fill="#FF5A00"/>
<path d="M216.611 127.03H210.891V132.81H216.611V127.03Z" fill="#FF5A00"/>
<path d="M216.611 121.31H210.891V127.03H216.611V121.31Z" fill="#FF5A00"/>
<path d="M216.611 115.53H210.891V121.31H216.611V115.53Z" fill="#DB4B03"/>
<path d="M216.611 109.81H210.891V115.53H216.611V109.81Z" fill="#DB4B03"/>
<path d="M216.611 104.03H210.891V109.81H216.611V104.03Z" fill="#DB4B03"/>
<path d="M216.611 98.3101H210.891V104.03H216.611V98.3101Z" fill="black"/>
<path d="M210.889 305.48H205.109V311.2H210.889V305.48Z" fill="black"/>
<path d="M210.889 288.2H205.109V293.98H210.889V288.2Z" fill="black"/>
<path d="M210.889 259.41H205.109V265.19H210.889V259.41Z" fill="#200621"/>
<path d="M210.889 253.68H205.109V259.41H210.889V253.68Z" fill="#6B1F01"/>
<path d="M210.889 247.91H205.109V253.69H210.889V247.91Z" fill="#6B1F01"/>
<path d="M210.889 242.18H205.109V247.9H210.889V242.18Z" fill="#6B1F01"/>
<path d="M210.889 236.4H205.109V242.18H210.889V236.4Z" fill="#6B1F01"/>
<path d="M210.889 230.68H205.109V236.4H210.889V230.68Z" fill="#6B1F01"/>
<path d="M210.889 224.9H205.109V230.68H210.889V224.9Z" fill="#200621"/>
<path d="M210.889 219.12H205.109V224.9H210.889V219.12Z" fill="#6B1F01"/>
<path d="M210.889 213.39H205.109V219.11H210.889V213.39Z" fill="#6B1F01"/>
<path d="M210.889 207.61H205.109V213.39H210.889V207.61Z" fill="#6B1F01"/>
<path d="M210.889 201.89H205.109V207.61H210.889V201.89Z" fill="#6B1F01"/>
<path d="M210.889 196.11H205.109V201.89H210.889V196.11Z" fill="#6B1F01"/>
<path d="M210.889 190.39H205.109V196.11H210.889V190.39Z" fill="#6B1F01"/>
<path d="M210.889 184.61H205.109V190.39H210.889V184.61Z" fill="#200621"/>
<path d="M210.889 178.88H205.109V184.6H210.889V178.88Z" fill="#6B1F01"/>
<path d="M210.889 173.1H205.109V178.88H210.889V173.1Z" fill="black"/>
<path d="M210.889 167.32H205.109V173.1H210.889V167.32Z" fill="#200621"/>
<path d="M210.889 161.6H205.109V167.32H210.889V161.6Z" fill="#200621"/>
<path d="M210.889 155.82H205.109V161.6H210.889V155.82Z" fill="#200621"/>
<path d="M210.889 150.1H205.109V155.82H210.889V150.1Z" fill="#200621"/>
<path d="M210.889 144.32H205.109V150.1H210.889V144.32Z" fill="black"/>
<path d="M210.889 138.59H205.109V144.31H210.889V138.59Z" fill="#FF5A00"/>
<path d="M210.889 132.81H205.109V138.59H210.889V132.81Z" fill="#FF5A00"/>
<path d="M210.889 127.03H205.109V132.81H210.889V127.03Z" fill="#FF5A00"/>
<path d="M210.889 121.31H205.109V127.03H210.889V121.31Z" fill="#FF5A00"/>
<path d="M210.889 115.53H205.109V121.31H210.889V115.53Z" fill="#FF5A00"/>
<path d="M210.889 109.81H205.109V115.53H210.889V109.81Z" fill="#FF5A00"/>
<path d="M210.889 104.03H205.109V109.81H210.889V104.03Z" fill="#DB4B03"/>
<path d="M210.889 98.3101H205.109V104.03H210.889V98.3101Z" fill="black"/>
<path d="M205.111 305.48H199.391V311.2H205.111V305.48Z" fill="black"/>
<path d="M205.111 299.7H199.391V305.48H205.111V299.7Z" fill="black"/>
<path d="M205.111 293.97H199.391V299.7H205.111V293.97Z" fill="black"/>
<path d="M205.111 259.41H199.391V265.19H205.111V259.41Z" fill="#200621"/>
<path d="M205.111 253.68H199.391V259.41H205.111V253.68Z" fill="#7C2A05"/>
<path d="M205.111 247.91H199.391V253.69H205.111V247.91Z" fill="#6B1F01"/>
<path d="M205.111 242.18H199.391V247.9H205.111V242.18Z" fill="#6B1F01"/>
<path d="M205.111 236.4H199.391V242.18H205.111V236.4Z" fill="#6B1F01"/>
<path d="M205.111 230.68H199.391V236.4H205.111V230.68Z" fill="#6B1F01"/>
<path d="M205.111 224.9H199.391V230.68H205.111V224.9Z" fill="#200621"/>
<path d="M205.111 219.12H199.391V224.9H205.111V219.12Z" fill="#200621"/>
<path d="M205.111 213.39H199.391V219.11H205.111V213.39Z" fill="#7C2A05"/>
<path d="M205.111 207.61H199.391V213.39H205.111V207.61Z" fill="#7C2A05"/>
<path d="M205.111 201.89H199.391V207.61H205.111V201.89Z" fill="#6B1F01"/>
<path d="M205.111 196.11H199.391V201.89H205.111V196.11Z" fill="#6B1F01"/>
<path d="M205.111 190.39H199.391V196.11H205.111V190.39Z" fill="#6B1F01"/>
<path d="M205.111 184.61H199.391V190.39H205.111V184.61Z" fill="#200621"/>
<path d="M205.111 178.88H199.391V184.6H205.111V178.88Z" fill="#7C2A05"/>
<path d="M205.111 173.1H199.391V178.88H205.111V173.1Z" fill="#6B1F01"/>
<path d="M205.111 167.32H199.391V173.1H205.111V167.32Z" fill="#200621"/>
<path d="M205.111 161.6H199.391V167.32H205.111V161.6Z" fill="#200621"/>
<path d="M205.111 155.82H199.391V161.6H205.111V155.82Z" fill="#200621"/>
<path d="M205.111 150.1H199.391V155.82H205.111V150.1Z" fill="#200621"/>
<path d="M205.111 144.32H199.391V150.1H205.111V144.32Z" fill="#200621"/>
<path d="M205.111 138.59H199.391V144.31H205.111V138.59Z" fill="black"/>
<path d="M205.111 132.81H199.391V138.59H205.111V132.81Z" fill="#FF5A00"/>
<path d="M205.111 127.03H199.391V132.81H205.111V127.03Z" fill="#FF5A00"/>
<path d="M205.111 121.31H199.391V127.03H205.111V121.31Z" fill="#FF5A00"/>
<path d="M205.111 115.53H199.391V121.31H205.111V115.53Z" fill="#FF5A00"/>
<path d="M205.111 109.81H199.391V115.53H205.111V109.81Z" fill="#FF5A00"/>
<path d="M205.111 104.03H199.391V109.81H205.111V104.03Z" fill="#FF5A00"/>
<path d="M205.111 98.3101H199.391V104.03H205.111V98.3101Z" fill="black"/>
<path d="M199.389 305.48H193.609V311.2H199.389V305.48Z" fill="black"/>
<path d="M199.389 259.41H193.609V265.19H199.389V259.41Z" fill="#200621"/>
<path d="M199.389 253.68H193.609V259.41H199.389V253.68Z" fill="#7C2A05"/>
<path d="M199.389 247.91H193.609V253.69H199.389V247.91Z" fill="#7C2A05"/>
<path d="M199.389 242.18H193.609V247.9H199.389V242.18Z" fill="#7C2A05"/>
<path d="M199.389 236.4H193.609V242.18H199.389V236.4Z" fill="#6B1F01"/>
<path d="M199.389 230.68H193.609V236.4H199.389V230.68Z" fill="#6B1F01"/>
<path d="M199.389 224.9H193.609V230.68H199.389V224.9Z" fill="#6B1F01"/>
<path d="M199.389 219.12H193.609V224.9H199.389V219.12Z" fill="#200621"/>
<path d="M199.389 213.39H193.609V219.11H199.389V213.39Z" fill="#7C2A05"/>
<path d="M199.389 207.61H193.609V213.39H199.389V207.61Z" fill="#7C2A05"/>
<path d="M199.389 201.89H193.609V207.61H199.389V201.89Z" fill="#7C2A05"/>
<path d="M199.389 196.11H193.609V201.89H199.389V196.11Z" fill="#6B1F01"/>
<path d="M199.389 190.39H193.609V196.11H199.389V190.39Z" fill="#6B1F01"/>
<path d="M199.389 184.61H193.609V190.39H199.389V184.61Z" fill="#200621"/>
<path d="M199.389 178.88H193.609V184.6H199.389V178.88Z" fill="#7C2A05"/>
<path d="M199.389 173.1H193.609V178.88H199.389V173.1Z" fill="#200621"/>
<path d="M199.389 167.32H193.609V173.1H199.389V167.32Z" fill="#200621"/>
<path d="M199.389 161.6H193.609V167.32H199.389V161.6Z" fill="#200621"/>
<path d="M199.389 155.82H193.609V161.6H199.389V155.82Z" fill="#200621"/>
<path d="M199.389 150.1H193.609V155.82H199.389V150.1Z" fill="#200621"/>
<path d="M199.389 144.32H193.609V150.1H199.389V144.32Z" fill="#200621"/>
<path d="M199.389 138.59H193.609V144.31H199.389V138.59Z" fill="#200621"/>
<path d="M199.389 132.81H193.609V138.59H199.389V132.81Z" fill="black"/>
<path d="M199.389 127.03H193.609V132.81H199.389V127.03Z" fill="#FF5A00"/>
<path d="M199.389 121.31H193.609V127.03H199.389V121.31Z" fill="#FF5A00"/>
<path d="M199.389 115.53H193.609V121.31H199.389V115.53Z" fill="#FF5A00"/>
<path d="M199.389 109.81H193.609V115.53H199.389V109.81Z" fill="#FF5A00"/>
<path d="M199.389 104.03H193.609V109.81H199.389V104.03Z" fill="#FF5A00"/>
<path d="M199.389 98.3101H193.609V104.03H199.389V98.3101Z" fill="black"/>
<path d="M193.599 305.48H187.879V311.2H193.599V305.48Z" fill="black"/>
<path d="M193.599 299.7H187.879V305.48H193.599V299.7Z" fill="black"/>
<path d="M193.599 293.97H187.879V299.7H193.599V293.97Z" fill="#200621"/>
<path d="M193.599 288.2H187.879V293.98H193.599V288.2Z" fill="#200621"/>
<path d="M193.599 282.47H187.879V288.19H193.599V282.47Z" fill="#200621"/>
<path d="M193.599 276.69H187.879V282.47H193.599V276.69Z" fill="#200621"/>
<path d="M193.599 270.97H187.879V276.69H193.599V270.97Z" fill="#200621"/>
<path d="M193.599 265.19H187.879V270.97H193.599V265.19Z" fill="#200621"/>
<path d="M193.599 259.41H187.879V265.19H193.599V259.41Z" fill="#7C2A05"/>
<path d="M193.599 253.68H187.879V259.41H193.599V253.68Z" fill="#7C2A05"/>
<path d="M193.599 247.91H187.879V253.69H193.599V247.91Z" fill="#7C2A05"/>
<path d="M193.599 242.18H187.879V247.9H193.599V242.18Z" fill="#7C2A05"/>
<path d="M193.599 236.4H187.879V242.18H193.599V236.4Z" fill="#7C2A05"/>
<path d="M193.599 230.68H187.879V236.4H193.599V230.68Z" fill="#7C2A05"/>
<path d="M193.599 224.9H187.879V230.68H193.599V224.9Z" fill="#6B1F01"/>
<path d="M193.599 219.12H187.879V224.9H193.599V219.12Z" fill="#200621"/>
<path d="M193.599 213.39H187.879V219.11H193.599V213.39Z" fill="#200621"/>
<path d="M193.599 207.61H187.879V213.39H193.599V207.61Z" fill="#7C2A05"/>
<path d="M193.599 201.89H187.879V207.61H193.599V201.89Z" fill="#7C2A05"/>
<path d="M193.599 196.11H187.879V201.89H193.599V196.11Z" fill="#7C2A05"/>
<path d="M193.599 190.39H187.879V196.11H193.599V190.39Z" fill="#6B1F01"/>
<path d="M193.599 184.61H187.879V190.39H193.599V184.61Z" fill="#200621"/>
<path d="M193.599 178.88H187.879V184.6H193.599V178.88Z" fill="#7C2A05"/>
<path d="M193.599 173.1H187.879V178.88H193.599V173.1Z" fill="#200621"/>
<path d="M193.599 167.32H187.879V173.1H193.599V167.32Z" fill="#200621"/>
<path d="M193.599 161.6H187.879V167.32H193.599V161.6Z" fill="#200621"/>
<path d="M193.599 155.82H187.879V161.6H193.599V155.82Z" fill="#200621"/>
<path d="M193.599 150.1H187.879V155.82H193.599V150.1Z" fill="#200621"/>
<path d="M193.599 144.32H187.879V150.1H193.599V144.32Z" fill="#200621"/>
<path d="M193.599 138.59H187.879V144.31H193.599V138.59Z" fill="#200621"/>
<path d="M193.599 132.81H187.879V138.59H193.599V132.81Z" fill="black"/>
<path d="M193.599 127.03H187.879V132.81H193.599V127.03Z" fill="black"/>
<path d="M193.599 121.31H187.879V127.03H193.599V121.31Z" fill="#FF5A00"/>
<path d="M193.599 115.53H187.879V121.31H193.599V115.53Z" fill="#FF5A00"/>
<path d="M193.599 109.81H187.879V115.53H193.599V109.81Z" fill="#FF5A00"/>
<path d="M193.599 104.03H187.879V109.81H193.599V104.03Z" fill="#FF5A00"/>
<path d="M193.599 98.3101H187.879V104.03H193.599V98.3101Z" fill="black"/>
<path d="M187.88 305.48H182.1V311.2H187.88V305.48Z" fill="black"/>
<path d="M187.88 259.41H182.1V265.19H187.88V259.41Z" fill="#200621"/>
<path d="M187.88 253.68H182.1V259.41H187.88V253.68Z" fill="#7C2A05"/>
<path d="M187.88 247.91H182.1V253.69H187.88V247.91Z" fill="#7C2A05"/>
<path d="M187.88 242.18H182.1V247.9H187.88V242.18Z" fill="#7C2A05"/>
<path d="M187.88 236.4H182.1V242.18H187.88V236.4Z" fill="#7C2A05"/>
<path d="M187.88 230.68H182.1V236.4H187.88V230.68Z" fill="#7C2A05"/>
<path d="M187.88 224.9H182.1V230.68H187.88V224.9Z" fill="#7C2A05"/>
<path d="M187.88 219.12H182.1V224.9H187.88V219.12Z" fill="#7C2A05"/>
<path d="M187.88 213.39H182.1V219.11H187.88V213.39Z" fill="#200621"/>
<path d="M187.88 207.61H182.1V213.39H187.88V207.61Z" fill="#6B1F01"/>
<path d="M187.88 201.89H182.1V207.61H187.88V201.89Z" fill="#7C2A05"/>
<path d="M187.88 196.11H182.1V201.89H187.88V196.11Z" fill="#7C2A05"/>
<path d="M187.88 190.39H182.1V196.11H187.88V190.39Z" fill="#7C2A05"/>
<path d="M187.88 184.61H182.1V190.39H187.88V184.61Z" fill="#200621"/>
<path d="M187.88 178.88H182.1V184.6H187.88V178.88Z" fill="#200621"/>
<path d="M187.88 173.1H182.1V178.88H187.88V173.1Z" fill="#200621"/>
<path d="M187.88 167.32H182.1V173.1H187.88V167.32Z" fill="#200621"/>
<path d="M187.88 161.6H182.1V167.32H187.88V161.6Z" fill="#200621"/>
<path d="M187.88 155.82H182.1V161.6H187.88V155.82Z" fill="#200621"/>
<path d="M187.88 150.1H182.1V155.82H187.88V150.1Z" fill="#200621"/>
<path d="M187.88 144.32H182.1V150.1H187.88V144.32Z" fill="#200621"/>
<path d="M187.88 138.59H182.1V144.31H187.88V138.59Z" fill="#200621"/>
<path d="M187.88 132.81H182.1V138.59H187.88V132.81Z" fill="#200621"/>
<path d="M187.88 127.03H182.1V132.81H187.88V127.03Z" fill="black"/>
<path d="M187.88 121.31H182.1V127.03H187.88V121.31Z" fill="#FF5A00"/>
<path d="M187.88 115.53H182.1V121.31H187.88V115.53Z" fill="#FF5A00"/>
<path d="M187.88 109.81H182.1V115.53H187.88V109.81Z" fill="#FF5A00"/>
<path d="M187.88 104.03H182.1V109.81H187.88V104.03Z" fill="black"/>
<path d="M182.1 305.48H176.32V311.2H182.1V305.48Z" fill="black"/>
<path d="M182.1 299.7H176.32V305.48H182.1V299.7Z" fill="black"/>
<path d="M182.1 253.68H176.32V259.41H182.1V253.68Z" fill="#200621"/>
<path d="M182.1 247.91H176.32V253.69H182.1V247.91Z" fill="#6B1F01"/>
<path d="M182.1 242.18H176.32V247.9H182.1V242.18Z" fill="#7C2A05"/>
<path d="M182.1 236.4H176.32V242.18H182.1V236.4Z" fill="#7C2A05"/>
<path d="M182.1 230.68H176.32V236.4H182.1V230.68Z" fill="#7C2A05"/>
<path d="M182.1 224.9H176.32V230.68H182.1V224.9Z" fill="#7C2A05"/>
<path d="M182.1 219.12H176.32V224.9H182.1V219.12Z" fill="#6B1F01"/>
<path d="M182.1 213.39H176.32V219.11H182.1V213.39Z" fill="#200621"/>
<path d="M182.1 207.61H176.32V213.39H182.1V207.61Z" fill="#6B1F01"/>
<path d="M182.1 201.89H176.32V207.61H182.1V201.89Z" fill="#200621"/>
<path d="M182.1 196.11H176.32V201.89H182.1V196.11Z" fill="#200621"/>
<path d="M182.1 190.39H176.32V196.11H182.1V190.39Z" fill="#200621"/>
<path d="M182.1 184.61H176.32V190.39H182.1V184.61Z" fill="#6B1F01"/>
<path d="M182.1 178.88H176.32V184.6H182.1V178.88Z" fill="#200621"/>
<path d="M182.1 173.1H176.32V178.88H182.1V173.1Z" fill="#200621"/>
<path d="M182.1 167.32H176.32V173.1H182.1V167.32Z" fill="#200621"/>
<path d="M182.1 161.6H176.32V167.32H182.1V161.6Z" fill="#200621"/>
<path d="M182.1 155.82H176.32V161.6H182.1V155.82Z" fill="#200621"/>
<path d="M182.1 150.1H176.32V155.82H182.1V150.1Z" fill="#200621"/>
<path d="M182.1 144.32H176.32V150.1H182.1V144.32Z" fill="#200621"/>
<path d="M182.1 138.59H176.32V144.31H182.1V138.59Z" fill="#200621"/>
<path d="M182.1 132.81H176.32V138.59H182.1V132.81Z" fill="#200621"/>
<path d="M182.1 127.03H176.32V132.81H182.1V127.03Z" fill="black"/>
<path d="M182.1 121.31H176.32V127.03H182.1V121.31Z" fill="#FF5A00"/>
<path d="M182.1 115.53H176.32V121.31H182.1V115.53Z" fill="#FF5A00"/>
<path d="M182.1 109.81H176.32V115.53H182.1V109.81Z" fill="#FF5A00"/>
<path d="M182.1 104.03H176.32V109.81H182.1V104.03Z" fill="black"/>
<path d="M176.32 305.48H170.6V311.2H176.32V305.48Z" fill="black"/>
<path d="M176.32 293.97H170.6V299.7H176.32V293.97Z" fill="black"/>
<path d="M176.32 288.2H170.6V293.98H176.32V288.2Z" fill="black"/>
<path d="M176.32 253.68H170.6V259.41H176.32V253.68Z" fill="#200621"/>
<path d="M176.32 247.91H170.6V253.69H176.32V247.91Z" fill="#6B1F01"/>
<path d="M176.32 242.18H170.6V247.9H176.32V242.18Z" fill="#7C2A05"/>
<path d="M176.32 236.4H170.6V242.18H176.32V236.4Z" fill="#7C2A05"/>
<path d="M176.32 230.68H170.6V236.4H176.32V230.68Z" fill="#6B1F01"/>
<path d="M176.32 224.9H170.6V230.68H176.32V224.9Z" fill="#6B1F01"/>
<path d="M176.32 219.12H170.6V224.9H176.32V219.12Z" fill="#6B1F01"/>
<path d="M176.32 213.39H170.6V219.11H176.32V213.39Z" fill="#6B1F01"/>
<path d="M176.32 207.61H170.6V213.39H176.32V207.61Z" fill="#200621"/>
<path d="M176.32 201.89H170.6V207.61H176.32V201.89Z" fill="#7C2A05"/>
<path d="M176.32 196.11H170.6V201.89H176.32V196.11Z" fill="#7C2A05"/>
<path d="M176.32 190.39H170.6V196.11H176.32V190.39Z" fill="#7C2A05"/>
<path d="M176.32 184.61H170.6V190.39H176.32V184.61Z" fill="black"/>
<path d="M176.32 178.88H170.6V184.6H176.32V178.88Z" fill="black"/>
<path d="M176.32 173.1H170.6V178.88H176.32V173.1Z" fill="black"/>
<path d="M176.32 167.32H170.6V173.1H176.32V167.32Z" fill="black"/>
<path d="M176.32 161.6H170.6V167.32H176.32V161.6Z" fill="#200621"/>
<path d="M176.32 155.82H170.6V161.6H176.32V155.82Z" fill="#200621"/>
<path d="M176.32 150.1H170.6V155.82H176.32V150.1Z" fill="#200621"/>
<path d="M176.32 144.32H170.6V150.1H176.32V144.32Z" fill="#200621"/>
<path d="M176.32 138.59H170.6V144.31H176.32V138.59Z" fill="#200621"/>
<path d="M176.32 132.81H170.6V138.59H176.32V132.81Z" fill="#200621"/>
<path d="M176.32 127.03H170.6V132.81H176.32V127.03Z" fill="black"/>
<path d="M176.32 121.31H170.6V127.03H176.32V121.31Z" fill="#DB4B03"/>
<path d="M176.32 115.53H170.6V121.31H176.32V115.53Z" fill="#DB4B03"/>
<path d="M176.32 109.81H170.6V115.53H176.32V109.81Z" fill="black"/>
<path d="M170.6 305.48H164.82V311.2H170.6V305.48Z" fill="black"/>
<path d="M170.6 299.7H164.82V305.48H170.6V299.7Z" fill="black"/>
<path d="M170.6 293.97H164.82V299.7H170.6V293.97Z" fill="black"/>
<path d="M170.6 288.2H164.82V293.98H170.6V288.2Z" fill="black"/>
<path d="M170.6 282.47H164.82V288.19H170.6V282.47Z" fill="black"/>
<path d="M170.6 276.69H164.82V282.47H170.6V276.69Z" fill="black"/>
<path d="M170.6 270.97H164.82V276.69H170.6V270.97Z" fill="black"/>
<path d="M170.6 265.19H164.82V270.97H170.6V265.19Z" fill="black"/>
<path d="M170.6 259.41H164.82V265.19H170.6V259.41Z" fill="black"/>
<path d="M170.6 253.68H164.82V259.41H170.6V253.68Z" fill="black"/>
<path d="M170.6 247.91H164.82V253.69H170.6V247.91Z" fill="black"/>
<path d="M170.6 242.18H164.82V247.9H170.6V242.18Z" fill="black"/>
<path d="M170.6 236.4H164.82V242.18H170.6V236.4Z" fill="black"/>
<path d="M170.6 230.68H164.82V236.4H170.6V230.68Z" fill="black"/>
<path d="M170.6 224.9H164.82V230.68H170.6V224.9Z" fill="black"/>
<path d="M170.6 219.12H164.82V224.9H170.6V219.12Z" fill="black"/>
<path d="M170.6 213.39H164.82V219.11H170.6V213.39Z" fill="black"/>
<path d="M170.6 207.61H164.82V213.39H170.6V207.61Z" fill="black"/>
<path d="M170.6 201.89H164.82V207.61H170.6V201.89Z" fill="black"/>
<path d="M170.6 196.11H164.82V201.89H170.6V196.11Z" fill="#7C2A05"/>
<path d="M170.6 190.39H164.82V196.11H170.6V190.39Z" fill="black"/>
<path d="M170.6 184.61H164.82V190.39H170.6V184.61Z" fill="#DB4B03"/>
<path d="M170.6 178.88H164.82V184.6H170.6V178.88Z" fill="#DB4B03"/>
<path d="M170.6 173.1H164.82V178.88H170.6V173.1Z" fill="black"/>
<path d="M170.6 161.6H164.82V167.32H170.6V161.6Z" fill="black"/>
<path d="M170.6 155.82H164.82V161.6H170.6V155.82Z" fill="black"/>
<path d="M170.6 150.1H164.82V155.82H170.6V150.1Z" fill="#200621"/>
<path d="M170.6 144.32H164.82V150.1H170.6V144.32Z" fill="black"/>
<path d="M170.6 138.59H164.82V144.31H170.6V138.59Z" fill="black"/>
<path d="M170.6 132.81H164.82V138.59H170.6V132.81Z" fill="black"/>
<path d="M170.6 127.03H164.82V132.81H170.6V127.03Z" fill="#DB4B03"/>
<path d="M170.6 121.31H164.82V127.03H170.6V121.31Z" fill="#DB4B03"/>
<path d="M170.6 115.53H164.82V121.31H170.6V115.53Z" fill="black"/>
<path d="M164.82 305.48H159.1V311.2H164.82V305.48Z" fill="black"/>
<path d="M164.82 299.7H159.1V305.48H164.82V299.7Z" fill="#DB4B03"/>
<path d="M164.82 293.97H159.1V299.7H164.82V293.97Z" fill="#DB4B03"/>
<path d="M164.82 288.2H159.1V293.98H164.82V288.2Z" fill="#E54A05"/>
<path d="M164.82 282.47H159.1V288.19H164.82V282.47Z" fill="#E54A05"/>
<path d="M164.82 276.69H159.1V282.47H164.82V276.69Z" fill="#E54A05"/>
<path d="M164.82 270.97H159.1V276.69H164.82V270.97Z" fill="#E54A05"/>
<path d="M164.82 265.19H159.1V270.97H164.82V265.19Z" fill="#E54A05"/>
<path d="M164.82 259.41H159.1V265.19H164.82V259.41Z" fill="#FF5A00"/>
<path d="M164.82 253.68H159.1V259.41H164.82V253.68Z" fill="#FF5A00"/>
<path d="M164.82 247.91H159.1V253.69H164.82V247.91Z" fill="#FF5A00"/>
<path d="M164.82 242.18H159.1V247.9H164.82V242.18Z" fill="#FF5A00"/>
<path d="M164.82 236.4H159.1V242.18H164.82V236.4Z" fill="#FF5A00"/>
<path d="M164.82 230.68H159.1V236.4H164.82V230.68Z" fill="#FF5A00"/>
<path d="M164.82 224.9H159.1V230.68H164.82V224.9Z" fill="#FF5A00"/>
<path d="M164.82 219.12H159.1V224.9H164.82V219.12Z" fill="#FF5A00"/>
<path d="M164.82 213.39H159.1V219.11H164.82V213.39Z" fill="#FF5A00"/>
<path d="M164.82 207.61H159.1V213.39H164.82V207.61Z" fill="#FF5A00"/>
<path d="M164.82 201.89H159.1V207.61H164.82V201.89Z" fill="#FF5A00"/>
<path d="M164.82 196.11H159.1V201.89H164.82V196.11Z" fill="black"/>
<path d="M164.82 190.39H159.1V196.11H164.82V190.39Z" fill="#DB4B03"/>
<path d="M164.82 184.61H159.1V190.39H164.82V184.61Z" fill="#FF5A00"/>
<path d="M164.82 178.88H159.1V184.6H164.82V178.88Z" fill="#DB4B03"/>
<path d="M164.82 173.1H159.1V178.88H164.82V173.1Z" fill="black"/>
<path d="M164.82 150.1H159.1V155.82H164.82V150.1Z" fill="black"/>
<path d="M164.82 144.32H159.1V150.1H164.82V144.32Z" fill="black"/>
<path d="M164.82 138.59H159.1V144.31H164.82V138.59Z" fill="#DB4B03"/>
<path d="M164.82 132.81H159.1V138.59H164.82V132.81Z" fill="#DB4B03"/>
<path d="M164.82 127.03H159.1V132.81H164.82V127.03Z" fill="black"/>
<path d="M164.82 121.31H159.1V127.03H164.82V121.31Z" fill="black"/>
<path d="M159.1 305.48H153.32V311.2H159.1V305.48Z" fill="black"/>
<path d="M159.1 299.7H153.32V305.48H159.1V299.7Z" fill="#DB4B03"/>
<path d="M159.1 293.97H153.32V299.7H159.1V293.97Z" fill="#DB4B03"/>
<path d="M159.1 288.2H153.32V293.98H159.1V288.2Z" fill="#E54A05"/>
<path d="M159.1 282.47H153.32V288.19H159.1V282.47Z" fill="#E54A05"/>
<path d="M159.1 276.69H153.32V282.47H159.1V276.69Z" fill="#FF5A00"/>
<path d="M159.1 270.97H153.32V276.69H159.1V270.97Z" fill="#FF5A00"/>
<path d="M159.1 265.19H153.32V270.97H159.1V265.19Z" fill="#FF5A00"/>
<path d="M159.1 259.41H153.32V265.19H159.1V259.41Z" fill="#FF5A00"/>
<path d="M159.1 253.68H153.32V259.41H159.1V253.68Z" fill="#FF5A00"/>
<path d="M159.1 247.91H153.32V253.69H159.1V247.91Z" fill="#FF5A00"/>
<path d="M159.1 242.18H153.32V247.9H159.1V242.18Z" fill="#FF5A00"/>
<path d="M159.1 236.4H153.32V242.18H159.1V236.4Z" fill="#FF5A00"/>
<path d="M159.1 230.68H153.32V236.4H159.1V230.68Z" fill="#FF5A00"/>
<path d="M159.1 224.9H153.32V230.68H159.1V224.9Z" fill="#FF5A00"/>
<path d="M159.1 219.12H153.32V224.9H159.1V219.12Z" fill="#FF5A00"/>
<path d="M159.1 213.39H153.32V219.11H159.1V213.39Z" fill="#FF5A00"/>
<path d="M159.1 207.61H153.32V213.39H159.1V207.61Z" fill="#FF5A00"/>
<path d="M159.1 201.89H153.32V207.61H159.1V201.89Z" fill="#DB4B03"/>
<path d="M159.1 196.11H153.32V201.89H159.1V196.11Z" fill="#DB4B03"/>
<path d="M159.1 190.39H153.32V196.11H159.1V190.39Z" fill="#DB4B03"/>
<path d="M159.1 184.61H153.32V190.39H159.1V184.61Z" fill="#DB4B03"/>
<path d="M159.1 178.88H153.32V184.6H159.1V178.88Z" fill="black"/>
<path d="M159.1 138.59H153.32V144.31H159.1V138.59Z" fill="black"/>
<path d="M159.1 132.81H153.32V138.59H159.1V132.81Z" fill="black"/>
<path d="M153.31 305.48H147.59V311.2H153.31V305.48Z" fill="black"/>
<path d="M153.31 299.7H147.59V305.48H153.31V299.7Z" fill="black"/>
<path d="M153.31 293.97H147.59V299.7H153.31V293.97Z" fill="black"/>
<path d="M153.31 288.2H147.59V293.98H153.31V288.2Z" fill="black"/>
<path d="M153.31 282.47H147.59V288.19H153.31V282.47Z" fill="black"/>
<path d="M153.31 276.69H147.59V282.47H153.31V276.69Z" fill="black"/>
<path d="M153.31 270.97H147.59V276.69H153.31V270.97Z" fill="black"/>
<path d="M153.31 265.19H147.59V270.97H153.31V265.19Z" fill="black"/>
<path d="M153.31 259.41H147.59V265.19H153.31V259.41Z" fill="black"/>
<path d="M153.31 253.68H147.59V259.41H153.31V253.68Z" fill="black"/>
<path d="M153.31 247.91H147.59V253.69H153.31V247.91Z" fill="black"/>
<path d="M153.31 242.18H147.59V247.9H153.31V242.18Z" fill="black"/>
<path d="M153.31 236.4H147.59V242.18H153.31V236.4Z" fill="black"/>
<path d="M153.31 230.68H147.59V236.4H153.31V230.68Z" fill="black"/>
<path d="M153.31 224.9H147.59V230.68H153.31V224.9Z" fill="black"/>
<path d="M153.31 219.12H147.59V224.9H153.31V219.12Z" fill="black"/>
<path d="M153.31 213.39H147.59V219.11H153.31V213.39Z" fill="black"/>
<path d="M153.31 207.61H147.59V213.39H153.31V207.61Z" fill="black"/>
<path d="M153.31 201.89H147.59V207.61H153.31V201.89Z" fill="black"/>
<path d="M153.31 196.11H147.59V201.89H153.31V196.11Z" fill="black"/>
<path d="M153.31 190.39H147.59V196.11H153.31V190.39Z" fill="black"/>
<path d="M153.31 184.61H147.59V190.39H153.31V184.61Z" fill="black"/>
<path d="M194.899 159.65H191.949V162.6H194.899V159.65Z" fill="#E80037"/>
<path d="M194.899 162.6H191.949V165.49H194.899V162.6Z" fill="#E80037"/>
<path d="M186.169 168.38H183.219V171.33H186.169V168.38Z" fill="#E80037"/>
<path d="M191.949 165.49H189.059V168.38H191.949V165.49Z" fill="#E80037"/>
<path d="M189.06 168.38H186.17V171.33H189.06V168.38Z" fill="#E80037"/>
<path d="M183.22 165.49H180.33V168.38H183.22V165.49Z" fill="#E80037"/>
<path d="M186.169 165.49H183.219V168.38H186.169V165.49Z" fill="#E80037"/>
<path d="M189.06 165.49H186.17V168.38H189.06V165.49Z" fill="#E80037"/>
<path d="M183.22 162.6H180.33V165.49H183.22V162.6Z" fill="#E80037"/>
<path d="M180.329 159.65H177.379V162.6H180.329V159.65Z" fill="#E80037"/>
<path d="M180.329 162.6H177.379V165.49H180.329V162.6Z" fill="#E80037"/>
<path d="M186.169 162.6H183.219V165.49H186.169V162.6Z" fill="#E80037"/>
<path d="M191.949 162.6H189.059V165.49H191.949V162.6Z" fill="#E80037"/>
<path d="M189.06 162.6H186.17V165.49H189.06V162.6Z" fill="#E80037"/>
<path d="M174.49 145.08H171.6V148.03H174.49V145.08Z" fill="#E80037"/>
<path d="M171.6 148.03H168.65V150.92H171.6V148.03Z" fill="#E80037"/>
<path d="M171.6 145.08H168.65V148.03H171.6V145.08Z" fill="#E80037"/>
<path d="M174.49 148.03H171.6V150.92H174.49V148.03Z" fill="#E80037"/>
<path d="M177.38 148.03H174.49V150.92H177.38V148.03Z" fill="#E80037"/>
<path d="M200.739 142.19H197.789V145.08H200.739V142.19Z" fill="#E80037"/>
<path d="M197.79 142.19H194.9V145.08H197.79V142.19Z" fill="#E80037"/>
<path d="M194.899 142.19H191.949V145.08H194.899V142.19Z" fill="#E80037"/>
<path d="M197.79 145.08H194.9V148.03H197.79V145.08Z" fill="#E80037"/>
<path d="M194.899 148.03H191.949V150.92H194.899V148.03Z" fill="#E80037"/>
<path d="M194.899 145.08H191.949V148.03H194.899V145.08Z" fill="#E80037"/>
<path d="M191.949 148.03H189.059V150.92H191.949V148.03Z" fill="#E80037"/>
<path d="M191.949 145.08H189.059V148.03H191.949V145.08Z" fill="#E80037"/>
<path d="M189.06 148.03H186.17V150.92H189.06V148.03Z" fill="#E80037"/>
<path d="M296.829 118.89H293.949V121.78H296.829V118.89Z" fill="#360066"/>
<path d="M293.95 121.78H291V124.73H293.95V121.78Z" fill="#360066"/>
<path d="M290.999 124.73H288.109V127.62H290.999V124.73Z" fill="#360066"/>
<path d="M288.109 127.62H285.219V130.57H288.109V127.62Z" fill="#360066"/>
<path d="M285.22 130.57H282.27V133.46H285.22V130.57Z" fill="#360066"/>
<path d="M282.269 133.46H279.379V136.35H282.269V133.46Z" fill="#360066"/>
<path d="M282.269 139.3H279.379V142.19H282.269V139.3Z" fill="#270947"/>
<path d="M299.79 121.78H296.84V124.73H299.79V121.78Z" fill="#270947"/>
<path d="M299.79 116H296.84V118.89H299.79V116Z" fill="#360066"/>
<path d="M299.79 118.89H296.84V121.78H299.79V118.89Z" fill="#360066"/>
<path d="M296.829 124.73H293.949V127.62H296.829V124.73Z" fill="#270947"/>
<path d="M296.829 121.78H293.949V124.73H296.829V121.78Z" fill="#360066"/>
<path d="M293.95 127.62H291V130.57H293.95V127.62Z" fill="#270947"/>
<path d="M293.95 124.73H291V127.62H293.95V124.73Z" fill="#360066"/>
<path d="M290.999 130.57H288.109V133.46H290.999V130.57Z" fill="#270947"/>
<path d="M290.999 127.62H288.109V130.57H290.999V127.62Z" fill="#360066"/>
<path d="M288.109 130.57H285.219V133.46H288.109V130.57Z" fill="#360066"/>
<path d="M288.109 133.46H285.219V136.35H288.109V133.46Z" fill="#270947"/>
<path d="M285.22 136.35H282.27V139.3H285.22V136.35Z" fill="#270947"/>
<path d="M285.22 133.46H282.27V136.35H285.22V133.46Z" fill="#360066"/>
<path d="M282.269 136.35H279.379V139.3H282.269V136.35Z" fill="#360066"/>
<path d="M279.38 136.35H276.43V139.3H279.38V136.35Z" fill="#360066"/>
<path d="M276.419 139.3H273.539V142.19H276.419V139.3Z" fill="#360066"/>
<path d="M273.54 142.19H270.65V145.08H273.54V142.19Z" fill="#360066"/>
<path d="M270.649 150.92H267.699V153.87H270.649V150.92Z" fill="#270947"/>
<path d="M270.649 145.08H267.699V148.03H270.649V145.08Z" fill="#360066"/>
<path d="M267.699 153.87H264.809V156.76H267.699V153.87Z" fill="#270947"/>
<path d="M279.38 142.19H276.43V145.08H279.38V142.19Z" fill="#270947"/>
<path d="M279.38 139.3H276.43V142.19H279.38V139.3Z" fill="#360066"/>
<path d="M276.419 145.08H273.539V148.03H276.419V145.08Z" fill="#270947"/>
<path d="M276.419 142.19H273.539V145.08H276.419V142.19Z" fill="#360066"/>
<path d="M273.54 145.08H270.65V148.03H273.54V145.08Z" fill="#360066"/>
<path d="M273.54 148.03H270.65V150.92H273.54V148.03Z" fill="#270947"/>
<path d="M270.649 148.03H267.699V150.92H270.649V148.03Z" fill="#360066"/>
<path d="M267.699 148.03H264.809V150.92H267.699V148.03Z" fill="#360066"/>
<path d="M267.699 150.92H264.809V153.87H267.699V150.92Z" fill="#360066"/>
<path d="M264.81 153.87H261.92V156.76H264.81V153.87Z" fill="#360066"/>
<path d="M264.81 150.92H261.92V153.87H264.81V150.92Z" fill="#360066"/>
<path d="M264.81 156.76H261.92V159.65H264.81V156.76Z" fill="#270947"/>
<path d="M261.919 159.65H258.969V162.6H261.919V159.65Z" fill="#270947"/>
<path d="M261.919 156.76H258.969V159.65H261.919V156.76Z" fill="#360066"/>
<path d="M261.919 153.87H258.969V156.76H261.919V153.87Z" fill="#360066"/>
<path d="M258.96 159.65H256.08V162.6H258.96V159.65Z" fill="#360066"/>
<path d="M258.96 156.76H256.08V159.65H258.96V156.76Z" fill="#360066"/>
<path d="M305.57 133.46H302.68V136.35H305.57V133.46Z" fill="black"/>
<path d="M305.57 127.62H302.68V130.57H305.57V127.62Z" fill="black"/>
<path d="M302.679 136.35H299.789V139.3H302.679V136.35Z" fill="black"/>
<path d="M302.679 133.46H299.789V136.35H302.679V133.46Z" fill="black"/>
<path d="M302.679 130.57H299.789V133.46H302.679V130.57Z" fill="black"/>
<path d="M302.679 127.62H299.789V130.57H302.679V127.62Z" fill="black"/>
<path d="M302.679 124.73H299.789V127.62H302.679V124.73Z" fill="black"/>
<path d="M302.679 121.78H299.789V124.73H302.679V121.78Z" fill="black"/>
<path d="M302.679 118.89H299.789V121.78H302.679V118.89Z" fill="black"/>
<path d="M302.679 116H299.789V118.89H302.679V116Z" fill="black"/>
<path d="M302.679 113.05H299.789V116H302.679V113.05Z" fill="black"/>
<path d="M302.679 110.16H299.789V113.05H302.679V110.16Z" fill="black"/>
<path d="M299.79 124.73H296.84V127.62H299.79V124.73Z" fill="black"/>
<path d="M299.79 113.05H296.84V116H299.79V113.05Z" fill="black"/>
<path d="M299.79 110.16H296.84V113.05H299.79V110.16Z" fill="black"/>
<path d="M299.79 107.21H296.84V110.16H299.79V107.21Z" fill="black"/>
<path d="M296.829 142.19H293.949V145.08H296.829V142.19Z" fill="black"/>
<path d="M296.829 133.46H293.949V136.35H296.829V133.46Z" fill="black"/>
<path d="M296.829 127.62H293.949V130.57H296.829V127.62Z" fill="black"/>
<path d="M296.829 116H293.949V118.89H296.829V116Z" fill="black"/>
<path d="M293.95 142.19H291V145.08H293.95V142.19Z" fill="black"/>
<path d="M293.95 139.3H291V142.19H293.95V139.3Z" fill="black"/>
<path d="M293.95 136.35H291V139.3H293.95V136.35Z" fill="black"/>
<path d="M293.95 133.46H291V136.35H293.95V133.46Z" fill="black"/>
<path d="M293.95 130.57H291V133.46H293.95V130.57Z" fill="black"/>
<path d="M293.95 118.89H291V121.78H293.95V118.89Z" fill="black"/>
<path d="M290.999 133.46H288.109V136.35H290.999V133.46Z" fill="black"/>
<path d="M290.999 121.78H288.109V124.73H290.999V121.78Z" fill="black"/>
<path d="M288.109 148.03H285.219V150.92H288.109V148.03Z" fill="black"/>
<path d="M288.109 142.19H285.219V145.08H288.109V142.19Z" fill="black"/>
<path d="M288.109 136.35H285.219V139.3H288.109V136.35Z" fill="black"/>
<path d="M288.109 124.73H285.219V127.62H288.109V124.73Z" fill="black"/>
<path d="M285.22 276.22H282.27V279.11H285.22V276.22Z" fill="black"/>
<path d="M285.22 273.27H282.27V276.22H285.22V273.27Z" fill="black"/>
<path d="M285.22 150.92H282.27V153.87H285.22V150.92Z" fill="black"/>
<path d="M285.22 148.03H282.27V150.92H285.22V148.03Z" fill="black"/>
<path d="M285.22 145.08H282.27V148.03H285.22V145.08Z" fill="black"/>
<path d="M285.22 142.19H282.27V145.08H285.22V142.19Z" fill="black"/>
<path d="M285.22 139.3H282.27V142.19H285.22V139.3Z" fill="black"/>
<path d="M285.22 127.62H282.27V130.57H285.22V127.62Z" fill="black"/>
<path d="M282.269 276.22H279.379V279.11H282.269V276.22Z" fill="black"/>
<path d="M282.269 273.27H279.379V276.22H282.269V273.27Z" fill="#525D6D"/>
<path d="M282.269 270.38H279.379V273.27H282.269V270.38Z" fill="black"/>
<path d="M282.269 171.33H279.379V174.22H282.269V171.33Z" fill="black"/>
<path d="M282.269 165.49H279.379V168.38H282.269V165.49Z" fill="black"/>
<path d="M282.269 159.65H279.379V162.6H282.269V159.65Z" fill="black"/>
<path d="M282.269 142.19H279.379V145.08H282.269V142.19Z" fill="black"/>
<path d="M282.269 130.57H279.379V133.46H282.269V130.57Z" fill="black"/>
<path d="M279.38 273.27H276.43V276.22H279.38V273.27Z" fill="black"/>
<path d="M279.38 270.38H276.43V273.27H279.38V270.38Z" fill="#525D6D"/>
<path d="M279.38 267.43H276.43V270.38H279.38V267.43Z" fill="black"/>
<path d="M279.38 174.22H276.43V177.17H279.38V174.22Z" fill="black"/>
<path d="M279.38 171.33H276.43V174.22H279.38V171.33Z" fill="black"/>
<path d="M279.38 168.38H276.43V171.33H279.38V168.38Z" fill="black"/>
<path d="M279.38 165.49H276.43V168.38H279.38V165.49Z" fill="black"/>
<path d="M279.38 162.6H276.43V165.49H279.38V162.6Z" fill="black"/>
<path d="M279.38 159.65H276.43V162.6H279.38V159.65Z" fill="black"/>
<path d="M279.38 156.76H276.43V159.65H279.38V156.76Z" fill="black"/>
<path d="M279.38 153.87H276.43V156.76H279.38V153.87Z" fill="black"/>
<path d="M279.38 150.92H276.43V153.87H279.38V150.92Z" fill="black"/>
<path d="M279.38 148.03H276.43V150.92H279.38V148.03Z" fill="black"/>
<path d="M279.38 145.08H276.43V148.03H279.38V145.08Z" fill="black"/>
<path d="M279.38 133.46H276.43V136.35H279.38V133.46Z" fill="black"/>
<path d="M276.419 270.38H273.539V273.27H276.419V270.38Z" fill="black"/>
<path d="M276.419 267.43H273.539V270.38H276.419V267.43Z" fill="#525D6D"/>
<path d="M276.419 264.54H273.539V267.42H276.419V264.54Z" fill="black"/>
<path d="M276.419 148.03H273.539V150.92H276.419V148.03Z" fill="black"/>
<path d="M276.419 136.35H273.539V139.3H276.419V136.35Z" fill="black"/>
<path d="M273.54 267.43H270.65V270.38H273.54V267.43Z" fill="black"/>
<path d="M273.54 264.54H270.65V267.42H273.54V264.54Z" fill="#525D6D"/>
<path d="M273.54 261.65H270.65V264.54H273.54V261.65Z" fill="black"/>
<path d="M273.54 150.92H270.65V153.87H273.54V150.92Z" fill="black"/>
<path d="M273.54 139.3H270.65V142.19H273.54V139.3Z" fill="black"/>
<path d="M270.649 264.54H267.699V267.42H270.649V264.54Z" fill="black"/>
<path d="M270.649 261.65H267.699V264.54H270.649V261.65Z" fill="#525D6D"/>
<path d="M270.649 258.7H267.699V261.65H270.649V258.7Z" fill="black"/>
<path d="M270.649 153.87H267.699V156.76H270.649V153.87Z" fill="black"/>
<path d="M270.649 142.19H267.699V145.08H270.649V142.19Z" fill="black"/>
<path d="M267.699 156.76H264.809V159.65H267.699V156.76Z" fill="black"/>
<path d="M267.699 145.08H264.809V148.03H267.699V145.08Z" fill="black"/>
<path d="M264.81 159.65H261.92V162.6H264.81V159.65Z" fill="black"/>
<path d="M264.81 148.03H261.92V150.92H264.81V148.03Z" fill="black"/>
<path d="M261.919 165.49H258.969V168.38H261.919V165.49Z" fill="black"/>
<path d="M261.919 162.6H258.969V165.49H261.919V162.6Z" fill="black"/>
<path d="M261.919 150.92H258.969V153.87H261.919V150.92Z" fill="black"/>
<path d="M258.96 165.49H256.08V168.38H258.96V165.49Z" fill="black"/>
<path d="M258.96 162.6H256.08V165.49H258.96V162.6Z" fill="black"/>
<path d="M258.96 153.87H256.08V156.76H258.96V153.87Z" fill="black"/>
<path d="M256.079 159.65H253.129V162.6H256.079V159.65Z" fill="black"/>
<path d="M256.079 156.76H253.129V159.65H256.079V156.76Z" fill="black"/>
<path d="M253.13 159.65H250.24V162.6H253.13V159.65Z" fill="black"/>
<path d="M162.87 171.33H159.92V174.22H162.87V171.33Z" fill="black"/>
<path d="M159.919 174.22H157.029V177.17H159.919V174.22Z" fill="black"/>
<path d="M159.919 171.33H157.029V174.22H159.919V171.33Z" fill="#525D6D"/>
<path d="M159.919 168.38H157.029V171.33H159.919V168.38Z" fill="black"/>
<path d="M157.03 171.33H154.08V174.22H157.03V171.33Z" fill="black"/>
<path d="M157.03 168.38H154.08V171.33H157.03V168.38Z" fill="#525D6D"/>
<path d="M157.03 165.49H154.08V168.38H157.03V165.49Z" fill="black"/>
<path d="M154.079 168.38H151.189V171.33H154.079V168.38Z" fill="black"/>
<path d="M154.079 165.49H151.189V168.38H154.079V165.49Z" fill="#525D6D"/>
<path d="M154.079 162.6H151.189V165.49H154.079V162.6Z" fill="black"/>
<path d="M151.189 165.49H148.299V168.38H151.189V165.49Z" fill="black"/>
<path d="M151.189 162.6H148.299V165.49H151.189V162.6Z" fill="#525D6D"/>
<path d="M151.189 159.65H148.299V162.6H151.189V159.65Z" fill="black"/>
<path d="M148.3 276.22H145.35V279.11H148.3V276.22Z" fill="black"/>
<path d="M148.3 273.27H145.35V276.22H148.3V273.27Z" fill="#360066"/>
<path d="M148.3 270.38H145.35V273.27H148.3V270.38Z" fill="#360066"/>
<path d="M148.3 267.43H145.35V270.38H148.3V267.43Z" fill="#360066"/>
<path d="M148.3 264.54H145.35V267.42H148.3V264.54Z" fill="black"/>
<path d="M148.3 162.6H145.35V165.49H148.3V162.6Z" fill="black"/>
<path d="M148.3 159.65H145.35V162.6H148.3V159.65Z" fill="#525D6D"/>
<path d="M148.3 156.76H145.35V159.65H148.3V156.76Z" fill="black"/>
<path d="M145.349 276.22H142.459V279.11H145.349V276.22Z" fill="black"/>
<path d="M145.349 273.27H142.459V276.22H145.349V273.27Z" fill="#360066"/>
<path d="M145.349 270.38H142.459V273.27H145.349V270.38Z" fill="#360066"/>
<path d="M145.349 267.43H142.459V270.38H145.349V267.43Z" fill="#360066"/>
<path d="M145.349 264.54H142.459V267.42H145.349V264.54Z" fill="black"/>
<path d="M145.349 162.6H142.459V165.49H145.349V162.6Z" fill="black"/>
<path d="M145.349 159.65H142.459V162.6H145.349V159.65Z" fill="black"/>
<path d="M145.349 156.76H142.459V159.65H145.349V156.76Z" fill="#525D6D"/>
<path d="M145.349 153.87H142.459V156.76H145.349V153.87Z" fill="black"/>
<path d="M142.46 282H139.57V284.95H142.46V282Z" fill="black"/>
<path d="M142.46 279.11H139.57V282H142.46V279.11Z" fill="black"/>
<path d="M142.46 276.22H139.57V279.11H142.46V276.22Z" fill="black"/>
<path d="M142.46 273.27H139.57V276.22H142.46V273.27Z" fill="#360066"/>
<path d="M142.46 270.38H139.57V273.27H142.46V270.38Z" fill="#360066"/>
<path d="M142.46 267.43H139.57V270.38H142.46V267.43Z" fill="#360066"/>
<path d="M142.46 264.54H139.57V267.42H142.46V264.54Z" fill="black"/>
<path d="M142.46 162.6H139.57V165.49H142.46V162.6Z" fill="black"/>
<path d="M142.46 159.65H139.57V162.6H142.46V159.65Z" fill="#4A535E"/>
<path d="M142.46 156.76H139.57V159.65H142.46V156.76Z" fill="black"/>
<path d="M142.46 153.87H139.57V156.76H142.46V153.87Z" fill="#525D6D"/>
<path d="M142.46 150.92H139.57V153.87H142.46V150.92Z" fill="black"/>
<path d="M139.569 282H136.619V284.95H139.569V282Z" fill="black"/>
<path d="M139.569 279.11H136.619V282H139.569V279.11Z" fill="#360066"/>
<path d="M139.569 276.22H136.619V279.11H139.569V276.22Z" fill="black"/>
<path d="M139.569 273.27H136.619V276.22H139.569V273.27Z" fill="black"/>
<path d="M139.569 270.38H136.619V273.27H139.569V270.38Z" fill="black"/>
<path d="M139.569 267.43H136.619V270.38H139.569V267.43Z" fill="black"/>
<path d="M139.569 264.54H136.619V267.42H139.569V264.54Z" fill="black"/>
<path d="M139.569 244.13H136.619V247.08H139.569V244.13Z" fill="black"/>
<path d="M139.569 162.6H136.619V165.49H139.569V162.6Z" fill="black"/>
<path d="M139.569 159.65H136.619V162.6H139.569V159.65Z" fill="#4A535E"/>
<path d="M139.569 156.76H136.619V159.65H139.569V156.76Z" fill="#5F646D"/>
<path d="M139.569 153.87H136.619V156.76H139.569V153.87Z" fill="black"/>
<path d="M139.569 150.92H136.619V153.87H139.569V150.92Z" fill="#525D6D"/>
<path d="M139.569 148.03H136.619V150.92H139.569V148.03Z" fill="black"/>
<path d="M136.62 282H133.73V284.95H136.62V282Z" fill="black"/>
<path d="M136.62 279.11H133.73V282H136.62V279.11Z" fill="#360066"/>
<path d="M136.62 276.22H133.73V279.11H136.62V276.22Z" fill="#360066"/>
<path d="M136.62 273.27H133.73V276.22H136.62V273.27Z" fill="#360066"/>
<path d="M136.62 270.38H133.73V273.27H136.62V270.38Z" fill="black"/>
<path d="M136.62 244.13H133.73V247.08H136.62V244.13Z" fill="black"/>
<path d="M136.62 241.24H133.73V244.13H136.62V241.24Z" fill="black"/>
<path d="M136.62 165.49H133.73V168.38H136.62V165.49Z" fill="black"/>
<path d="M136.62 162.6H133.73V165.49H136.62V162.6Z" fill="#4A535E"/>
<path d="M136.62 159.65H133.73V162.6H136.62V159.65Z" fill="#4A535E"/>
<path d="M136.62 156.76H133.73V159.65H136.62V156.76Z" fill="#5F646D"/>
<path d="M136.62 153.87H133.73V156.76H136.62V153.87Z" fill="#5F646D"/>
<path d="M136.62 150.92H133.73V153.87H136.62V150.92Z" fill="black"/>
<path d="M136.62 148.03H133.73V150.92H136.62V148.03Z" fill="#525D6D"/>
<path d="M136.62 145.08H133.73V148.03H136.62V145.08Z" fill="black"/>
<path d="M133.729 282H130.779V284.95H133.729V282Z" fill="black"/>
<path d="M133.729 279.11H130.779V282H133.729V279.11Z" fill="black"/>
<path d="M133.729 276.22H130.779V279.11H133.729V276.22Z" fill="black"/>
<path d="M133.729 273.27H130.779V276.22H133.729V273.27Z" fill="black"/>
<path d="M133.729 270.38H130.779V273.27H133.729V270.38Z" fill="black"/>
<path d="M133.729 244.13H130.779V247.08H133.729V244.13Z" fill="black"/>
<path d="M133.729 241.24H130.779V244.13H133.729V241.24Z" fill="#4A535E"/>
<path d="M133.729 238.35H130.779V241.24H133.729V238.35Z" fill="black"/>
<path d="M133.729 165.49H130.779V168.38H133.729V165.49Z" fill="black"/>
<path d="M133.729 162.6H130.779V165.49H133.729V162.6Z" fill="#4A535E"/>
<path d="M133.729 159.65H130.779V162.6H133.729V159.65Z" fill="#5F646D"/>
<path d="M133.729 156.76H130.779V159.65H133.729V156.76Z" fill="#5F646D"/>
<path d="M133.729 153.87H130.779V156.76H133.729V153.87Z" fill="#5F646D"/>
<path d="M133.729 150.92H130.779V153.87H133.729V150.92Z" fill="black"/>
<path d="M133.729 148.03H130.779V150.92H133.729V148.03Z" fill="black"/>
<path d="M133.729 145.08H130.779V148.03H133.729V145.08Z" fill="#525D6D"/>
<path d="M133.729 142.19H130.779V145.08H133.729V142.19Z" fill="black"/>
<path d="M130.779 244.13H127.889V247.08H130.779V244.13Z" fill="black"/>
<path d="M130.779 241.24H127.889V244.13H130.779V241.24Z" fill="#4A535E"/>
<path d="M130.779 238.35H127.889V241.24H130.779V238.35Z" fill="#4A535E"/>
<path d="M130.779 235.4H127.889V238.35H130.779V235.4Z" fill="black"/>
<path d="M130.779 168.38H127.889V171.33H130.779V168.38Z" fill="black"/>
<path d="M130.779 165.49H127.889V168.38H130.779V165.49Z" fill="#4A535E"/>
<path d="M130.779 162.6H127.889V165.49H130.779V162.6Z" fill="#4A535E"/>
<path d="M130.779 159.65H127.889V162.6H130.779V159.65Z" fill="#5F646D"/>
<path d="M130.779 156.76H127.889V159.65H130.779V156.76Z" fill="#5F646D"/>
<path d="M130.779 153.87H127.889V156.76H130.779V153.87Z" fill="#5F646D"/>
<path d="M130.779 150.92H127.889V153.87H130.779V150.92Z" fill="#4A535E"/>
<path d="M130.779 148.03H127.889V150.92H130.779V148.03Z" fill="black"/>
<path d="M130.779 145.08H127.889V148.03H130.779V145.08Z" fill="#525D6D"/>
<path d="M130.779 142.19H127.889V145.08H130.779V142.19Z" fill="black"/>
<path d="M127.89 241.24H125V244.13H127.89V241.24Z" fill="black"/>
<path d="M127.89 238.35H125V241.24H127.89V238.35Z" fill="#4A535E"/>
<path d="M127.89 235.4H125V238.35H127.89V235.4Z" fill="#4A535E"/>
<path d="M127.89 232.51H125V235.4H127.89V232.51Z" fill="black"/>
<path d="M127.89 229.62H125V232.5H127.89V229.62Z" fill="black"/>
<path d="M127.89 168.38H125V171.33H127.89V168.38Z" fill="black"/>
<path d="M127.89 165.49H125V168.38H127.89V165.49Z" fill="#4A535E"/>
<path d="M127.89 162.6H125V165.49H127.89V162.6Z" fill="#5F646D"/>
<path d="M127.89 159.65H125V162.6H127.89V159.65Z" fill="#5F646D"/>
<path d="M127.89 156.76H125V159.65H127.89V156.76Z" fill="#5F646D"/>
<path d="M127.89 153.87H125V156.76H127.89V153.87Z" fill="#5F646D"/>
<path d="M127.89 150.92H125V153.87H127.89V150.92Z" fill="#4A535E"/>
<path d="M127.89 148.03H125V150.92H127.89V148.03Z" fill="black"/>
<path d="M127.89 145.08H125V148.03H127.89V145.08Z" fill="#525D6D"/>
<path d="M127.89 142.19H125V145.08H127.89V142.19Z" fill="black"/>
<path d="M124.999 241.24H122.049V244.13H124.999V241.24Z" fill="black"/>
<path d="M124.999 238.35H122.049V241.24H124.999V238.35Z" fill="#4A535E"/>
<path d="M124.999 235.4H122.049V238.35H124.999V235.4Z" fill="#4A535E"/>
<path d="M124.999 232.51H122.049V235.4H124.999V232.51Z" fill="#4A535E"/>
<path d="M124.999 229.62H122.049V232.5H124.999V229.62Z" fill="#4A535E"/>
<path d="M124.999 226.67H122.049V229.62H124.999V226.67Z" fill="black"/>
<path d="M124.999 223.78H122.049V226.67H124.999V223.78Z" fill="black"/>
<path d="M124.999 171.33H122.049V174.22H124.999V171.33Z" fill="black"/>
<path d="M124.999 168.38H122.049V171.33H124.999V168.38Z" fill="#4A535E"/>
<path d="M124.999 165.49H122.049V168.38H124.999V165.49Z" fill="#4A535E"/>
<path d="M124.999 162.6H122.049V165.49H124.999V162.6Z" fill="#5F646D"/>
<path d="M124.999 159.65H122.049V162.6H124.999V159.65Z" fill="#5F646D"/>
<path d="M124.999 156.76H122.049V159.65H124.999V156.76Z" fill="#5F646D"/>
<path d="M124.999 153.87H122.049V156.76H124.999V153.87Z" fill="#5F646D"/>
<path d="M124.999 150.92H122.049V153.87H124.999V150.92Z" fill="#4A535E"/>
<path d="M124.999 148.03H122.049V150.92H124.999V148.03Z" fill="#4A535E"/>
<path d="M124.999 145.08H122.049V148.03H124.999V145.08Z" fill="black"/>
<path d="M122.05 241.24H119.16V244.13H122.05V241.24Z" fill="black"/>
<path d="M122.05 238.35H119.16V241.24H122.05V238.35Z" fill="#4A535E"/>
<path d="M122.05 235.4H119.16V238.35H122.05V235.4Z" fill="#4A535E"/>
<path d="M122.05 232.51H119.16V235.4H122.05V232.51Z" fill="#5F646D"/>
<path d="M122.05 229.62H119.16V232.5H122.05V229.62Z" fill="#4A535E"/>
<path d="M122.05 226.67H119.16V229.62H122.05V226.67Z" fill="#4A535E"/>
<path d="M122.05 223.78H119.16V226.67H122.05V223.78Z" fill="#4A535E"/>
<path d="M122.05 220.83H119.16V223.78H122.05V220.83Z" fill="black"/>
<path d="M122.05 217.94H119.16V220.83H122.05V217.94Z" fill="black"/>
<path d="M122.05 174.22H119.16V177.17H122.05V174.22Z" fill="black"/>
<path d="M122.05 171.33H119.16V174.22H122.05V171.33Z" fill="#4A535E"/>
<path d="M122.05 168.38H119.16V171.33H122.05V168.38Z" fill="#4A535E"/>
<path d="M122.05 165.49H119.16V168.38H122.05V165.49Z" fill="#5F646D"/>
<path d="M122.05 162.6H119.16V165.49H122.05V162.6Z" fill="#5F646D"/>
<path d="M122.05 159.65H119.16V162.6H122.05V159.65Z" fill="#5F646D"/>
<path d="M122.05 156.76H119.16V159.65H122.05V156.76Z" fill="#5F646D"/>
<path d="M122.05 153.87H119.16V156.76H122.05V153.87Z" fill="#5F646D"/>
<path d="M122.05 150.92H119.16V153.87H122.05V150.92Z" fill="#4A535E"/>
<path d="M122.05 148.03H119.16V150.92H122.05V148.03Z" fill="#4A535E"/>
<path d="M122.05 145.08H119.16V148.03H122.05V145.08Z" fill="black"/>
<path d="M119.159 238.35H116.209V241.24H119.159V238.35Z" fill="black"/>
<path d="M119.159 235.4H116.209V238.35H119.159V235.4Z" fill="#4A535E"/>
<path d="M119.159 232.51H116.209V235.4H119.159V232.51Z" fill="#5F646D"/>
<path d="M119.159 229.62H116.209V232.5H119.159V229.62Z" fill="#5F646D"/>
<path d="M119.159 226.67H116.209V229.62H119.159V226.67Z" fill="#5F646D"/>
<path d="M119.159 223.78H116.209V226.67H119.159V223.78Z" fill="#4A535E"/>
<path d="M119.159 220.83H116.209V223.78H119.159V220.83Z" fill="#5F646D"/>
<path d="M119.159 217.94H116.209V220.83H119.159V217.94Z" fill="#5F646D"/>
<path d="M119.159 215.05H116.209V217.94H119.159V215.05Z" fill="black"/>
<path d="M119.159 212.1H116.209V215.05H119.159V212.1Z" fill="black"/>
<path d="M119.159 177.17H116.209V180.06H119.159V177.17Z" fill="black"/>
<path d="M119.159 174.22H116.209V177.17H119.159V174.22Z" fill="#4A535E"/>
<path d="M119.159 171.33H116.209V174.22H119.159V171.33Z" fill="#4A535E"/>
<path d="M119.159 168.38H116.209V171.33H119.159V168.38Z" fill="#5F646D"/>
<path d="M119.159 165.49H116.209V168.38H119.159V165.49Z" fill="#5F646D"/>
<path d="M119.159 162.6H116.209V165.49H119.159V162.6Z" fill="#5F646D"/>
<path d="M119.159 159.65H116.209V162.6H119.159V159.65Z" fill="#5F646D"/>
<path d="M119.159 156.76H116.209V159.65H119.159V156.76Z" fill="#4A535E"/>
<path d="M119.159 153.87H116.209V156.76H119.159V153.87Z" fill="#4A535E"/>
<path d="M119.159 150.92H116.209V153.87H119.159V150.92Z" fill="#4A535E"/>
<path d="M119.159 148.03H116.209V150.92H119.159V148.03Z" fill="black"/>
<path d="M116.21 238.35H113.32V241.24H116.21V238.35Z" fill="black"/>
<path d="M116.21 235.4H113.32V238.35H116.21V235.4Z" fill="#4A535E"/>
<path d="M116.21 232.51H113.32V235.4H116.21V232.51Z" fill="#4A535E"/>
<path d="M116.21 229.62H113.32V232.5H116.21V229.62Z" fill="#5F646D"/>
<path d="M116.21 226.67H113.32V229.62H116.21V226.67Z" fill="#5F646D"/>
<path d="M116.21 223.78H113.32V226.67H116.21V223.78Z" fill="#5F646D"/>
<path d="M116.21 220.83H113.32V223.78H116.21V220.83Z" fill="#5F646D"/>
<path d="M116.21 217.94H113.32V220.83H116.21V217.94Z" fill="#5F646D"/>
<path d="M116.21 215.05H113.32V217.94H116.21V215.05Z" fill="#5F646D"/>
<path d="M116.21 212.1H113.32V215.05H116.21V212.1Z" fill="#5F646D"/>
<path d="M116.21 209.21H113.32V212.09H116.21V209.21Z" fill="black"/>
<path d="M116.21 206.26H113.32V209.21H116.21V206.26Z" fill="black"/>
<path d="M116.21 203.37H113.32V206.26H116.21V203.37Z" fill="black"/>
<path d="M116.21 180.06H113.32V182.95H116.21V180.06Z" fill="black"/>
<path d="M116.21 177.17H113.32V180.06H116.21V177.17Z" fill="#4A535E"/>
<path d="M116.21 174.22H113.32V177.17H116.21V174.22Z" fill="#4A535E"/>
<path d="M116.21 171.33H113.32V174.22H116.21V171.33Z" fill="#4A535E"/>
<path d="M116.21 168.38H113.32V171.33H116.21V168.38Z" fill="#5F646D"/>
<path d="M116.21 165.49H113.32V168.38H116.21V165.49Z" fill="#5F646D"/>
<path d="M116.21 162.6H113.32V165.49H116.21V162.6Z" fill="#5F646D"/>
<path d="M116.21 159.65H113.32V162.6H116.21V159.65Z" fill="#5F646D"/>
<path d="M116.21 156.76H113.32V159.65H116.21V156.76Z" fill="#4A535E"/>
<path d="M116.21 153.87H113.32V156.76H116.21V153.87Z" fill="#4A535E"/>
<path d="M116.21 150.92H113.32V153.87H116.21V150.92Z" fill="black"/>
<path d="M113.32 235.4H110.43V238.35H113.32V235.4Z" fill="black"/>
<path d="M113.32 232.51H110.43V235.4H113.32V232.51Z" fill="black"/>
<path d="M113.32 229.62H110.43V232.5H113.32V229.62Z" fill="#4A535E"/>
<path d="M113.32 226.67H110.43V229.62H113.32V226.67Z" fill="#5F646D"/>
<path d="M113.32 223.78H110.43V226.67H113.32V223.78Z" fill="#5F646D"/>
<path d="M113.32 220.83H110.43V223.78H113.32V220.83Z" fill="#5F646D"/>
<path d="M113.32 217.94H110.43V220.83H113.32V217.94Z" fill="#5F646D"/>
<path d="M113.32 215.05H110.43V217.94H113.32V215.05Z" fill="#5F646D"/>
<path d="M113.32 212.1H110.43V215.05H113.32V212.1Z" fill="#5F646D"/>
<path d="M113.32 209.21H110.43V212.09H113.32V209.21Z" fill="#5F646D"/>
<path d="M113.32 206.26H110.43V209.21H113.32V206.26Z" fill="#4A535E"/>
<path d="M113.32 203.37H110.43V206.26H113.32V203.37Z" fill="#5F646D"/>
<path d="M113.32 200.47H110.43V203.36H113.32V200.47Z" fill="black"/>
<path d="M113.32 197.53H110.43V200.48H113.32V197.53Z" fill="black"/>
<path d="M113.32 188.79H110.43V191.74H113.32V188.79Z" fill="black"/>
<path d="M113.32 185.9H110.43V188.79H113.32V185.9Z" fill="black"/>
<path d="M113.32 182.95H110.43V185.9H113.32V182.95Z" fill="black"/>
<path d="M113.32 180.06H110.43V182.95H113.32V180.06Z" fill="#4A535E"/>
<path d="M113.32 177.17H110.43V180.06H113.32V177.17Z" fill="#4A535E"/>
<path d="M113.32 174.22H110.43V177.17H113.32V174.22Z" fill="#5F646D"/>
<path d="M113.32 171.33H110.43V174.22H113.32V171.33Z" fill="#5F646D"/>
<path d="M113.32 168.38H110.43V171.33H113.32V168.38Z" fill="#5F646D"/>
<path d="M113.32 165.49H110.43V168.38H113.32V165.49Z" fill="#5F646D"/>
<path d="M113.32 162.6H110.43V165.49H113.32V162.6Z" fill="#5F646D"/>
<path d="M113.32 159.65H110.43V162.6H113.32V159.65Z" fill="#4A535E"/>
<path d="M113.32 156.76H110.43V159.65H113.32V156.76Z" fill="#4A535E"/>
<path d="M113.32 153.87H110.43V156.76H113.32V153.87Z" fill="#4A535E"/>
<path d="M113.32 150.92H110.43V153.87H113.32V150.92Z" fill="black"/>
<path d="M110.43 232.51H107.48V235.4H110.43V232.51Z" fill="black"/>
<path d="M110.43 229.62H107.48V232.5H110.43V229.62Z" fill="#4A535E"/>
<path d="M110.43 226.67H107.48V229.62H110.43V226.67Z" fill="#4A535E"/>
<path d="M110.43 223.78H107.48V226.67H110.43V223.78Z" fill="#5F646D"/>
<path d="M110.43 220.83H107.48V223.78H110.43V220.83Z" fill="#5F646D"/>
<path d="M110.43 217.94H107.48V220.83H110.43V217.94Z" fill="#5F646D"/>
<path d="M110.43 215.05H107.48V217.94H110.43V215.05Z" fill="#5F646D"/>
<path d="M110.43 212.1H107.48V215.05H110.43V212.1Z" fill="#5F646D"/>
<path d="M110.43 209.21H107.48V212.09H110.43V209.21Z" fill="#5F646D"/>
<path d="M110.43 206.26H107.48V209.21H110.43V206.26Z" fill="#5F646D"/>
<path d="M110.43 203.37H107.48V206.26H110.43V203.37Z" fill="#5F646D"/>
<path d="M110.43 200.47H107.48V203.36H110.43V200.47Z" fill="#4A535E"/>
<path d="M110.43 197.53H107.48V200.48H110.43V197.53Z" fill="#4A535E"/>
<path d="M110.43 194.63H107.48V197.52H110.43V194.63Z" fill="black"/>
<path d="M110.43 191.74H107.48V194.63H110.43V191.74Z" fill="black"/>
<path d="M110.43 188.79H107.48V191.74H110.43V188.79Z" fill="#4A535E"/>
<path d="M110.43 185.9H107.48V188.79H110.43V185.9Z" fill="#4A535E"/>
<path d="M110.43 182.95H107.48V185.9H110.43V182.95Z" fill="#4A535E"/>
<path d="M110.43 180.06H107.48V182.95H110.43V180.06Z" fill="#4A535E"/>
<path d="M110.43 177.17H107.48V180.06H110.43V177.17Z" fill="#5F646D"/>
<path d="M110.43 174.22H107.48V177.17H110.43V174.22Z" fill="#5F646D"/>
<path d="M110.43 171.33H107.48V174.22H110.43V171.33Z" fill="#5F646D"/>
<path d="M110.43 168.38H107.48V171.33H110.43V168.38Z" fill="#5F646D"/>
<path d="M110.43 165.49H107.48V168.38H110.43V165.49Z" fill="#5F646D"/>
<path d="M110.43 162.6H107.48V165.49H110.43V162.6Z" fill="#4A535E"/>
<path d="M110.43 159.65H107.48V162.6H110.43V159.65Z" fill="#4A535E"/>
<path d="M110.43 156.76H107.48V159.65H110.43V156.76Z" fill="black"/>
<path d="M110.43 153.87H107.48V156.76H110.43V153.87Z" fill="black"/>
<path d="M107.48 229.62H104.59V232.5H107.48V229.62Z" fill="black"/>
<path d="M107.48 226.67H104.59V229.62H107.48V226.67Z" fill="black"/>
<path d="M107.48 223.78H104.59V226.67H107.48V223.78Z" fill="#5F646D"/>
<path d="M107.48 220.83H104.59V223.78H107.48V220.83Z" fill="#5F646D"/>
<path d="M107.48 217.94H104.59V220.83H107.48V217.94Z" fill="#5F646D"/>
<path d="M107.48 215.05H104.59V217.94H107.48V215.05Z" fill="#5F646D"/>
<path d="M107.48 212.1H104.59V215.05H107.48V212.1Z" fill="#5F646D"/>
<path d="M107.48 209.21H104.59V212.09H107.48V209.21Z" fill="#5F646D"/>
<path d="M107.48 206.26H104.59V209.21H107.48V206.26Z" fill="#5F646D"/>
<path d="M107.48 203.37H104.59V206.26H107.48V203.37Z" fill="#5F646D"/>
<path d="M107.48 200.47H104.59V203.36H107.48V200.47Z" fill="#5F646D"/>
<path d="M107.48 197.53H104.59V200.48H107.48V197.53Z" fill="#4A535E"/>
<path d="M107.48 194.63H104.59V197.52H107.48V194.63Z" fill="#4A535E"/>
<path d="M107.48 191.74H104.59V194.63H107.48V191.74Z" fill="#4A535E"/>
<path d="M107.48 188.79H104.59V191.74H107.48V188.79Z" fill="#4A535E"/>
<path d="M107.48 185.9H104.59V188.79H107.48V185.9Z" fill="#4A535E"/>
<path d="M107.48 182.95H104.59V185.9H107.48V182.95Z" fill="#5F646D"/>
<path d="M107.48 180.06H104.59V182.95H107.48V180.06Z" fill="#5F646D"/>
<path d="M107.48 177.17H104.59V180.06H107.48V177.17Z" fill="#5F646D"/>
<path d="M107.48 174.22H104.59V177.17H107.48V174.22Z" fill="#5F646D"/>
<path d="M107.48 171.33H104.59V174.22H107.48V171.33Z" fill="#5F646D"/>
<path d="M107.48 168.38H104.59V171.33H107.48V168.38Z" fill="#5F646D"/>
<path d="M107.48 165.49H104.59V168.38H107.48V165.49Z" fill="#4A535E"/>
<path d="M107.48 162.6H104.59V165.49H107.48V162.6Z" fill="#4A535E"/>
<path d="M107.48 159.65H104.59V162.6H107.48V159.65Z" fill="black"/>
<path d="M107.48 156.76H104.59V159.65H107.48V156.76Z" fill="black"/>
<path d="M104.589 226.67H101.699V229.62H104.589V226.67Z" fill="black"/>
<path d="M104.589 223.78H101.699V226.67H104.589V223.78Z" fill="black"/>
<path d="M104.589 220.83H101.699V223.78H104.589V220.83Z" fill="#5F646D"/>
<path d="M104.589 217.94H101.699V220.83H104.589V217.94Z" fill="#5F646D"/>
<path d="M104.589 215.05H101.699V217.94H104.589V215.05Z" fill="#5F646D"/>
<path d="M104.589 212.1H101.699V215.05H104.589V212.1Z" fill="#5F646D"/>
<path d="M104.589 209.21H101.699V212.09H104.589V209.21Z" fill="#5F646D"/>
<path d="M104.589 206.26H101.699V209.21H104.589V206.26Z" fill="#5F646D"/>
<path d="M104.589 203.37H101.699V206.26H104.589V203.37Z" fill="#5F646D"/>
<path d="M104.589 200.47H101.699V203.36H104.589V200.47Z" fill="#5F646D"/>
<path d="M104.589 197.53H101.699V200.48H104.589V197.53Z" fill="#5F646D"/>
<path d="M104.589 194.63H101.699V197.52H104.589V194.63Z" fill="#5F646D"/>
<path d="M104.589 191.74H101.699V194.63H104.589V191.74Z" fill="#5F646D"/>
<path d="M104.589 188.79H101.699V191.74H104.589V188.79Z" fill="#5F646D"/>
<path d="M104.589 185.9H101.699V188.79H104.589V185.9Z" fill="#5F646D"/>
<path d="M104.589 182.95H101.699V185.9H104.589V182.95Z" fill="#5F646D"/>
<path d="M104.589 180.06H101.699V182.95H104.589V180.06Z" fill="#5F646D"/>
<path d="M104.589 177.17H101.699V180.06H104.589V177.17Z" fill="#5F646D"/>
<path d="M104.589 174.22H101.699V177.17H104.589V174.22Z" fill="#5F646D"/>
<path d="M104.589 171.33H101.699V174.22H104.589V171.33Z" fill="#5F646D"/>
<path d="M104.589 168.38H101.699V171.33H104.589V168.38Z" fill="#4A535E"/>
<path d="M104.589 165.49H101.699V168.38H104.589V165.49Z" fill="#4A535E"/>
<path d="M104.589 162.6H101.699V165.49H104.589V162.6Z" fill="black"/>
<path d="M104.589 159.65H101.699V162.6H104.589V159.65Z" fill="black"/>
<path d="M101.7 220.83H98.75V223.78H101.7V220.83Z" fill="black"/>
<path d="M101.7 217.94H98.75V220.83H101.7V217.94Z" fill="#5F646D"/>
<path d="M101.7 215.05H98.75V217.94H101.7V215.05Z" fill="#5F646D"/>
<path d="M101.7 212.1H98.75V215.05H101.7V212.1Z" fill="#5F646D"/>
<path d="M101.7 209.21H98.75V212.09H101.7V209.21Z" fill="#5F646D"/>
<path d="M101.7 206.26H98.75V209.21H101.7V206.26Z" fill="#5F646D"/>
<path d="M101.7 203.37H98.75V206.26H101.7V203.37Z" fill="#5F646D"/>
<path d="M101.7 200.47H98.75V203.36H101.7V200.47Z" fill="#5F646D"/>
<path d="M101.7 197.53H98.75V200.48H101.7V197.53Z" fill="#5F646D"/>
<path d="M101.7 194.63H98.75V197.52H101.7V194.63Z" fill="#5F646D"/>
<path d="M101.7 191.74H98.75V194.63H101.7V191.74Z" fill="#5F646D"/>
<path d="M101.7 188.79H98.75V191.74H101.7V188.79Z" fill="#5F646D"/>
<path d="M101.7 185.9H98.75V188.79H101.7V185.9Z" fill="#5F646D"/>
<path d="M101.7 182.95H98.75V185.9H101.7V182.95Z" fill="#5F646D"/>
<path d="M101.7 180.06H98.75V182.95H101.7V180.06Z" fill="#5F646D"/>
<path d="M101.7 177.17H98.75V180.06H101.7V177.17Z" fill="#5F646D"/>
<path d="M101.7 174.22H98.75V177.17H101.7V174.22Z" fill="#5F646D"/>
<path d="M101.7 171.33H98.75V174.22H101.7V171.33Z" fill="#4A535E"/>
<path d="M101.7 168.38H98.75V171.33H101.7V168.38Z" fill="#4A535E"/>
<path d="M101.7 165.49H98.75V168.38H101.7V165.49Z" fill="black"/>
<path d="M101.7 162.6H98.75V165.49H101.7V162.6Z" fill="black"/>
<path d="M98.7494 220.83H95.8594V223.78H98.7494V220.83Z" fill="black"/>
<path d="M98.7494 217.94H95.8594V220.83H98.7494V217.94Z" fill="black"/>
<path d="M98.7494 215.05H95.8594V217.94H98.7494V215.05Z" fill="black"/>
<path d="M98.7494 212.1H95.8594V215.05H98.7494V212.1Z" fill="black"/>
<path d="M98.7494 209.21H95.8594V212.09H98.7494V209.21Z" fill="#4A535E"/>
<path d="M98.7494 206.26H95.8594V209.21H98.7494V206.26Z" fill="#4A535E"/>
<path d="M98.7494 203.37H95.8594V206.26H98.7494V203.37Z" fill="#4A535E"/>
<path d="M98.7494 200.47H95.8594V203.36H98.7494V200.47Z" fill="#4A535E"/>
<path d="M98.7494 197.53H95.8594V200.48H98.7494V197.53Z" fill="#4A535E"/>
<path d="M98.7494 194.63H95.8594V197.52H98.7494V194.63Z" fill="#5F646D"/>
<path d="M98.7494 191.74H95.8594V194.63H98.7494V191.74Z" fill="#5F646D"/>
<path d="M98.7494 188.79H95.8594V191.74H98.7494V188.79Z" fill="#5F646D"/>
<path d="M98.7494 185.9H95.8594V188.79H98.7494V185.9Z" fill="#5F646D"/>
<path d="M98.7494 182.95H95.8594V185.9H98.7494V182.95Z" fill="#5F646D"/>
<path d="M98.7494 180.06H95.8594V182.95H98.7494V180.06Z" fill="#4A535E"/>
<path d="M98.7494 177.17H95.8594V180.06H98.7494V177.17Z" fill="#4A535E"/>
<path d="M98.7494 174.22H95.8594V177.17H98.7494V174.22Z" fill="#4A535E"/>
<path d="M98.7494 171.33H95.8594V174.22H98.7494V171.33Z" fill="#4A535E"/>
<path d="M98.7494 168.38H95.8594V171.33H98.7494V168.38Z" fill="black"/>
<path d="M98.7494 165.49H95.8594V168.38H98.7494V165.49Z" fill="black"/>
<path d="M95.8602 212.1H92.9102V215.05H95.8602V212.1Z" fill="black"/>
<path d="M95.8602 209.21H92.9102V212.09H95.8602V209.21Z" fill="black"/>
<path d="M95.8602 206.26H92.9102V209.21H95.8602V206.26Z" fill="black"/>
<path d="M95.8602 203.37H92.9102V206.26H95.8602V203.37Z" fill="black"/>
<path d="M95.8602 200.47H92.9102V203.36H95.8602V200.47Z" fill="black"/>
<path d="M95.8602 197.53H92.9102V200.48H95.8602V197.53Z" fill="#4A535E"/>
<path d="M95.8602 194.63H92.9102V197.52H95.8602V194.63Z" fill="#4A535E"/>
<path d="M95.8602 191.74H92.9102V194.63H95.8602V191.74Z" fill="#4A535E"/>
<path d="M95.8602 188.79H92.9102V191.74H95.8602V188.79Z" fill="#4A535E"/>
<path d="M95.8602 185.9H92.9102V188.79H95.8602V185.9Z" fill="#4A535E"/>
<path d="M95.8602 182.95H92.9102V185.9H95.8602V182.95Z" fill="#4A535E"/>
<path d="M95.8602 180.06H92.9102V182.95H95.8602V180.06Z" fill="black"/>
<path d="M95.8602 177.17H92.9102V180.06H95.8602V177.17Z" fill="black"/>
<path d="M95.8602 174.22H92.9102V177.17H95.8602V174.22Z" fill="black"/>
<path d="M95.8602 171.33H92.9102V174.22H95.8602V171.33Z" fill="black"/>
<path d="M95.8602 168.38H92.9102V171.33H95.8602V168.38Z" fill="black"/>
<path d="M92.9095 200.47H90.0195V203.36H92.9095V200.47Z" fill="black"/>
<path d="M92.9095 197.53H90.0195V200.48H92.9095V197.53Z" fill="black"/>
<path d="M92.9095 194.63H90.0195V197.52H92.9095V194.63Z" fill="black"/>
<path d="M92.9095 191.74H90.0195V194.63H92.9095V191.74Z" fill="black"/>
<path d="M92.9095 188.79H90.0195V191.74H92.9095V188.79Z" fill="black"/>
<path d="M92.9095 185.9H90.0195V188.79H92.9095V185.9Z" fill="black"/>
<path d="M92.9095 182.95H90.0195V185.9H92.9095V182.95Z" fill="black"/>
<path d="M92.9095 180.06H90.0195V182.95H92.9095V180.06Z" fill="black"/>
</svg>
