<svg width="400" height="400" viewBox="0 0 400 400" fill="none" xmlns="http://www.w3.org/2000/svg">
<path d="M200.001 385.78C302.604 385.78 385.781 302.603 385.781 200C385.781 97.3965 302.604 14.22 200.001 14.22C97.3972 14.22 14.2207 97.3965 14.2207 200C14.2207 302.603 97.3972 385.78 200.001 385.78Z" fill="black"/>
<path d="M200.001 392.78C93.7007 392.78 7.2207 306.3 7.2207 200C7.2207 93.7 93.7007 7.21997 200.001 7.21997C306.301 7.21997 392.781 93.7 392.781 200C392.781 306.3 306.301 392.78 200.001 392.78ZM200.001 21.22C101.421 21.22 21.2207 101.42 21.2207 200C21.2207 298.58 101.421 378.78 200.001 378.78C298.581 378.78 378.781 298.58 378.781 200C378.781 101.42 298.581 21.22 200.001 21.22Z" fill="#4CED63"/>
<path d="M280.53 318.86H272.83V326.56H280.53V318.86Z" fill="#28AF5F"/>
<path d="M280.53 311.23H272.83V318.86H280.53V311.23Z" fill="#28AF5F"/>
<path d="M280.53 150.16H272.83V157.79H280.53V150.16Z" fill="#28AF5F"/>
<path d="M280.53 142.45H272.83V150.15H280.53V142.45Z" fill="#28AF5F"/>
<path d="M280.53 134.83H272.83V142.46H280.53V134.83Z" fill="#28AF5F"/>
<path d="M272.829 318.86H265.199V326.56H272.829V318.86Z" fill="#28AF5F"/>
<path d="M272.829 311.23H265.199V318.86H272.829V311.23Z" fill="#28AF5F"/>
<path d="M272.829 303.53H265.199V311.23H272.829V303.53Z" fill="#28AF5F"/>
<path d="M272.829 295.9H265.199V303.53H272.829V295.9Z" fill="#28AF5F"/>
<path d="M272.829 288.2H265.199V295.9H272.829V288.2Z" fill="#28AF5F"/>
<path d="M272.829 157.78H265.199V165.48H272.829V157.78Z" fill="#298E52"/>
<path d="M272.829 150.16H265.199V157.79H272.829V150.16Z" fill="#EA8634"/>
<path d="M272.829 142.45H265.199V150.15H272.829V142.45Z" fill="#E5A870"/>
<path d="M272.829 134.83H265.199V142.46H272.829V134.83Z" fill="#EA8634"/>
<path d="M272.829 127.12H265.199V134.82H272.829V127.12Z" fill="#28AF5F"/>
<path d="M272.829 96.47H265.199V104.1H272.829V96.47Z" fill="#4C2501"/>
<path d="M272.829 88.77H265.199V96.47H272.829V88.77Z" fill="#4C2501"/>
<path d="M272.829 81.1399H265.199V88.7699H272.829V81.1399Z" fill="#4C2501"/>
<path d="M265.2 318.86H257.5V326.56H265.2V318.86Z" fill="#28AF5F"/>
<path d="M265.2 311.23H257.5V318.86H265.2V311.23Z" fill="#2ECC71"/>
<path d="M265.2 303.53H257.5V311.23H265.2V303.53Z" fill="#2ECC71"/>
<path d="M265.2 295.9H257.5V303.53H265.2V295.9Z" fill="#2ECC71"/>
<path d="M265.2 288.2H257.5V295.9H265.2V288.2Z" fill="#2ECC71"/>
<path d="M265.2 280.49H257.5V288.19H265.2V280.49Z" fill="#28AF5F"/>
<path d="M265.2 272.87H257.5V280.5H265.2V272.87Z" fill="#28AF5F"/>
<path d="M265.2 265.16H257.5V272.86H265.2V265.16Z" fill="#28AF5F"/>
<path d="M265.2 257.53H257.5V265.16H265.2V257.53Z" fill="#28AF5F"/>
<path d="M265.2 157.78H257.5V165.48H265.2V157.78Z" fill="#298E52"/>
<path d="M265.2 150.16H257.5V157.79H265.2V150.16Z" fill="#E5A870"/>
<path d="M265.2 142.45H257.5V150.15H265.2V142.45Z" fill="#E5A870"/>
<path d="M265.2 134.83H257.5V142.46H265.2V134.83Z" fill="#EA8634"/>
<path d="M265.2 127.12H257.5V134.82H265.2V127.12Z" fill="#EA8634"/>
<path d="M265.2 119.51H257.5V127.14H265.2V119.51Z" fill="#28AF5F"/>
<path d="M265.2 104.1H257.5V111.8H265.2V104.1Z" fill="#4C2501"/>
<path d="M265.2 81.1399H257.5V88.7699H265.2V81.1399Z" fill="#4C2501"/>
<path d="M257.489 318.86H249.789V326.56H257.489V318.86Z" fill="#28AF5F"/>
<path d="M257.489 311.23H249.789V318.86H257.489V311.23Z" fill="#28AF5F"/>
<path d="M257.489 303.53H249.789V311.23H257.489V303.53Z" fill="#28AF5F"/>
<path d="M257.489 295.9H249.789V303.53H257.489V295.9Z" fill="#2ECC71"/>
<path d="M257.489 288.2H249.789V295.9H257.489V288.2Z" fill="#2ECC71"/>
<path d="M257.489 280.49H249.789V288.19H257.489V280.49Z" fill="#2ECC71"/>
<path d="M257.489 272.87H249.789V280.5H257.489V272.87Z" fill="#2ECC71"/>
<path d="M257.489 265.16H249.789V272.86H257.489V265.16Z" fill="#2ECC71"/>
<path d="M257.489 257.53H249.789V265.16H257.489V257.53Z" fill="#2ECC71"/>
<path d="M257.489 249.83H249.789V257.53H257.489V249.83Z" fill="#28AF5F"/>
<path d="M257.489 242.22H249.789V249.85H257.489V242.22Z" fill="#28AF5F"/>
<path d="M257.489 157.78H249.789V165.48H257.489V157.78Z" fill="#298E52"/>
<path d="M257.489 150.16H249.789V157.79H257.489V150.16Z" fill="#E5A870"/>
<path d="M257.489 142.45H249.789V150.15H257.489V142.45Z" fill="#E5A870"/>
<path d="M257.489 134.83H249.789V142.46H257.489V134.83Z" fill="#E5A870"/>
<path d="M257.489 127.12H249.789V134.82H257.489V127.12Z" fill="#E5A870"/>
<path d="M257.489 119.51H249.789V127.14H257.489V119.51Z" fill="#EA8634"/>
<path d="M257.489 111.8H249.789V119.5H257.489V111.8Z" fill="#EA8634"/>
<path d="M257.489 104.1H249.789V111.8H257.489V104.1Z" fill="#EA8634"/>
<path d="M257.489 88.77H249.789V96.47H257.489V88.77Z" fill="#4C2501"/>
<path d="M249.81 318.86H242.18V326.56H249.81V318.86Z" fill="#28AF5F"/>
<path d="M249.81 311.23H242.18V318.86H249.81V311.23Z" fill="#28AF5F"/>
<path d="M249.81 303.53H242.18V311.23H249.81V303.53Z" fill="#28AF5F"/>
<path d="M249.81 295.9H242.18V303.53H249.81V295.9Z" fill="#28AF5F"/>
<path d="M249.81 288.2H242.18V295.9H249.81V288.2Z" fill="#2ECC71"/>
<path d="M249.81 280.49H242.18V288.19H249.81V280.49Z" fill="#2ECC71"/>
<path d="M249.81 272.87H242.18V280.5H249.81V272.87Z" fill="#2ECC71"/>
<path d="M249.81 265.16H242.18V272.86H249.81V265.16Z" fill="#2ECC71"/>
<path d="M249.81 257.53H242.18V265.16H249.81V257.53Z" fill="#2ECC71"/>
<path d="M249.81 249.83H242.18V257.53H249.81V249.83Z" fill="#2ECC71"/>
<path d="M249.81 242.22H242.18V249.85H249.81V242.22Z" fill="#2ECC71"/>
<path d="M249.81 234.5H242.18V242.2H249.81V234.5Z" fill="#28AF5F"/>
<path d="M249.81 226.8H242.18V234.5H249.81V226.8Z" fill="#28AF5F"/>
<path d="M249.81 165.49H242.18V173.19H249.81V165.49Z" fill="#298E52"/>
<path d="M249.81 157.78H242.18V165.48H249.81V157.78Z" fill="#298E52"/>
<path d="M249.81 150.16H242.18V157.79H249.81V150.16Z" fill="#298E52"/>
<path d="M249.81 142.45H242.18V150.15H249.81V142.45Z" fill="#298E52"/>
<path d="M249.81 134.83H242.18V142.46H249.81V134.83Z" fill="#E5A870"/>
<path d="M249.81 127.12H242.18V134.82H249.81V127.12Z" fill="#E5A870"/>
<path d="M249.81 119.51H242.18V127.14H249.81V119.51Z" fill="#E5A870"/>
<path d="M249.81 111.8H242.18V119.5H249.81V111.8Z" fill="#E5A870"/>
<path d="M249.81 104.1H242.18V111.8H249.81V104.1Z" fill="#E5A870"/>
<path d="M249.81 96.47H242.18V104.1H249.81V96.47Z" fill="#4C2501"/>
<path d="M242.18 318.86H234.48V326.56H242.18V318.86Z" fill="#28AF5F"/>
<path d="M242.18 311.23H234.48V318.86H242.18V311.23Z" fill="#28AF5F"/>
<path d="M242.18 303.53H234.48V311.23H242.18V303.53Z" fill="#2ECC71"/>
<path d="M242.18 295.9H234.48V303.53H242.18V295.9Z" fill="#28AF5F"/>
<path d="M242.18 288.2H234.48V295.9H242.18V288.2Z" fill="#28AF5F"/>
<path d="M242.18 280.49H234.48V288.19H242.18V280.49Z" fill="#2ECC71"/>
<path d="M242.18 272.87H234.48V280.5H242.18V272.87Z" fill="#2ECC71"/>
<path d="M242.18 265.16H234.48V272.86H242.18V265.16Z" fill="#2ECC71"/>
<path d="M242.18 257.53H234.48V265.16H242.18V257.53Z" fill="#2ECC71"/>
<path d="M242.18 249.83H234.48V257.53H242.18V249.83Z" fill="#2ECC71"/>
<path d="M242.18 242.22H234.48V249.85H242.18V242.22Z" fill="#2ECC71"/>
<path d="M242.18 234.5H234.48V242.2H242.18V234.5Z" fill="#2ECC71"/>
<path d="M242.18 226.8H234.48V234.5H242.18V226.8Z" fill="#2ECC71"/>
<path d="M242.18 219.18H234.48V226.81H242.18V219.18Z" fill="#28AF5F"/>
<path d="M242.18 211.48H234.48V219.18H242.18V211.48Z" fill="#28AF5F"/>
<path d="M242.18 203.85H234.48V211.48H242.18V203.85Z" fill="#28AF5F"/>
<path d="M242.18 173.19H234.48V180.82H242.18V173.19Z" fill="#298E52"/>
<path d="M242.18 165.49H234.48V173.19H242.18V165.49Z" fill="#28AF5F"/>
<path d="M242.18 157.78H234.48V165.48H242.18V157.78Z" fill="#28AF5F"/>
<path d="M242.18 150.16H234.48V157.79H242.18V150.16Z" fill="#298E52"/>
<path d="M242.18 142.45H234.48V150.15H242.18V142.45Z" fill="#298E52"/>
<path d="M242.18 134.83H234.48V142.46H242.18V134.83Z" fill="#298E52"/>
<path d="M242.18 127.12H234.48V134.82H242.18V127.12Z" fill="#4C2501"/>
<path d="M242.18 119.51H234.48V127.14H242.18V119.51Z" fill="#E5A870"/>
<path d="M242.18 111.8H234.48V119.5H242.18V111.8Z" fill="#E5A870"/>
<path d="M242.18 104.1H234.48V111.8H242.18V104.1Z" fill="#E5A870"/>
<path d="M234.48 318.86H226.85V326.56H234.48V318.86Z" fill="#28AF5F"/>
<path d="M234.48 311.23H226.85V318.86H234.48V311.23Z" fill="#28AF5F"/>
<path d="M234.48 303.53H226.85V311.23H234.48V303.53Z" fill="#2ECC71"/>
<path d="M234.48 295.9H226.85V303.53H234.48V295.9Z" fill="#28AF5F"/>
<path d="M234.48 288.2H226.85V295.9H234.48V288.2Z" fill="#28AF5F"/>
<path d="M234.48 280.49H226.85V288.19H234.48V280.49Z" fill="#2ECC71"/>
<path d="M234.48 272.87H226.85V280.5H234.48V272.87Z" fill="#2ECC71"/>
<path d="M234.48 265.16H226.85V272.86H234.48V265.16Z" fill="#2ECC71"/>
<path d="M234.48 257.53H226.85V265.16H234.48V257.53Z" fill="#2ECC71"/>
<path d="M234.48 249.83H226.85V257.53H234.48V249.83Z" fill="#2ECC71"/>
<path d="M234.48 242.22H226.85V249.85H234.48V242.22Z" fill="#2ECC71"/>
<path d="M234.48 234.5H226.85V242.2H234.48V234.5Z" fill="#2ECC71"/>
<path d="M234.48 226.8H226.85V234.5H234.48V226.8Z" fill="#2ECC71"/>
<path d="M234.48 219.18H226.85V226.81H234.48V219.18Z" fill="#2ECC71"/>
<path d="M234.48 211.48H226.85V219.18H234.48V211.48Z" fill="#2ECC71"/>
<path d="M234.48 203.85H226.85V211.48H234.48V203.85Z" fill="#2ECC71"/>
<path d="M234.48 196.15H226.85V203.85H234.48V196.15Z" fill="#298E52"/>
<path d="M234.48 188.52H226.85V196.15H234.48V188.52Z" fill="#025624"/>
<path d="M234.48 180.82H226.85V188.52H234.48V180.82Z" fill="#298E52"/>
<path d="M234.48 173.19H226.85V180.82H234.48V173.19Z" fill="#28AF5F"/>
<path d="M234.48 165.49H226.85V173.19H234.48V165.49Z" fill="#28AF5F"/>
<path d="M234.48 157.78H226.85V165.48H234.48V157.78Z" fill="#28AF5F"/>
<path d="M234.48 150.16H226.85V157.79H234.48V150.16Z" fill="#28AF5F"/>
<path d="M234.48 142.45H226.85V150.15H234.48V142.45Z" fill="#4C2501"/>
<path d="M234.48 134.83H226.85V142.46H234.48V134.83Z" fill="#4C2501"/>
<path d="M234.48 127.12H226.85V134.82H234.48V127.12Z" fill="#298E52"/>
<path d="M234.48 119.51H226.85V127.14H234.48V119.51Z" fill="#298E52"/>
<path d="M234.48 111.8H226.85V119.5H234.48V111.8Z" fill="#298E52"/>
<path d="M226.841 318.86H219.141V326.56H226.841V318.86Z" fill="#28AF5F"/>
<path d="M226.841 311.23H219.141V318.86H226.841V311.23Z" fill="#28AF5F"/>
<path d="M226.841 303.53H219.141V311.23H226.841V303.53Z" fill="#28AF5F"/>
<path d="M226.841 295.9H219.141V303.53H226.841V295.9Z" fill="#2ECC71"/>
<path d="M226.841 288.2H219.141V295.9H226.841V288.2Z" fill="#28AF5F"/>
<path d="M226.841 280.49H219.141V288.19H226.841V280.49Z" fill="#28AF5F"/>
<path d="M226.841 272.87H219.141V280.5H226.841V272.87Z" fill="#2ECC71"/>
<path d="M226.841 265.16H219.141V272.86H226.841V265.16Z" fill="#2ECC71"/>
<path d="M226.841 257.53H219.141V265.16H226.841V257.53Z" fill="#2ECC71"/>
<path d="M226.841 249.83H219.141V257.53H226.841V249.83Z" fill="#2ECC71"/>
<path d="M226.841 242.22H219.141V249.85H226.841V242.22Z" fill="#2ECC71"/>
<path d="M226.841 234.5H219.141V242.2H226.841V234.5Z" fill="#2ECC71"/>
<path d="M226.841 226.8H219.141V234.5H226.841V226.8Z" fill="#2ECC71"/>
<path d="M226.841 219.18H219.141V226.81H226.841V219.18Z" fill="#2ECC71"/>
<path d="M226.841 211.48H219.141V219.18H226.841V211.48Z" fill="#2ECC71"/>
<path d="M226.841 203.85H219.141V211.48H226.841V203.85Z" fill="#2ECC71"/>
<path d="M226.841 196.15H219.141V203.85H226.841V196.15Z" fill="#298E52"/>
<path d="M226.841 188.52H219.141V196.15H226.841V188.52Z" fill="#025624"/>
<path d="M226.841 180.82H219.141V188.52H226.841V180.82Z" fill="#28AF5F"/>
<path d="M226.841 173.19H219.141V180.82H226.841V173.19Z" fill="#28AF5F"/>
<path d="M226.841 165.49H219.141V173.19H226.841V165.49Z" fill="#2ECC71"/>
<path d="M226.841 157.78H219.141V165.48H226.841V157.78Z" fill="#28AF5F"/>
<path d="M226.841 150.16H219.141V157.79H226.841V150.16Z" fill="#28AF5F"/>
<path d="M226.841 142.45H219.141V150.15H226.841V142.45Z" fill="#28AF5F"/>
<path d="M226.841 134.83H219.141V142.46H226.841V134.83Z" fill="#298E52"/>
<path d="M226.841 127.12H219.141V134.82H226.841V127.12Z" fill="#2ECC71"/>
<path d="M226.841 119.51H219.141V127.14H226.841V119.51Z" fill="#28AF5F"/>
<path d="M226.841 111.8H219.141V119.5H226.841V111.8Z" fill="#298E52"/>
<path d="M226.841 96.47H219.141V104.1H226.841V96.47Z" fill="#5B5957"/>
<path d="M226.841 88.77H219.141V96.47H226.841V88.77Z" fill="#878481"/>
<path d="M226.841 81.1399H219.141V88.7699H226.841V81.1399Z" fill="#878481"/>
<path d="M219.15 318.86H211.52V326.56H219.15V318.86Z" fill="#28AF5F"/>
<path d="M219.15 311.23H211.52V318.86H219.15V311.23Z" fill="#28AF5F"/>
<path d="M219.15 303.53H211.52V311.23H219.15V303.53Z" fill="#28AF5F"/>
<path d="M219.15 295.9H211.52V303.53H219.15V295.9Z" fill="#2ECC71"/>
<path d="M219.15 288.2H211.52V295.9H219.15V288.2Z" fill="#28AF5F"/>
<path d="M219.15 280.49H211.52V288.19H219.15V280.49Z" fill="#28AF5F"/>
<path d="M219.15 272.87H211.52V280.5H219.15V272.87Z" fill="#2ECC71"/>
<path d="M219.15 265.16H211.52V272.86H219.15V265.16Z" fill="#2ECC71"/>
<path d="M219.15 257.53H211.52V265.16H219.15V257.53Z" fill="#2ECC71"/>
<path d="M219.15 249.83H211.52V257.53H219.15V249.83Z" fill="#2ECC71"/>
<path d="M219.15 242.22H211.52V249.85H219.15V242.22Z" fill="#2ECC71"/>
<path d="M219.15 234.5H211.52V242.2H219.15V234.5Z" fill="#2ECC71"/>
<path d="M219.15 226.8H211.52V234.5H219.15V226.8Z" fill="#2ECC71"/>
<path d="M219.15 219.18H211.52V226.81H219.15V219.18Z" fill="#2ECC71"/>
<path d="M219.15 211.48H211.52V219.18H219.15V211.48Z" fill="#2ECC71"/>
<path d="M219.15 203.85H211.52V211.48H219.15V203.85Z" fill="#28AF5F"/>
<path d="M219.15 196.15H211.52V203.85H219.15V196.15Z" fill="#025624"/>
<path d="M219.15 188.52H211.52V196.15H219.15V188.52Z" fill="#298E52"/>
<path d="M219.15 180.82H211.52V188.52H219.15V180.82Z" fill="#28AF5F"/>
<path d="M219.15 173.19H211.52V180.82H219.15V173.19Z" fill="#2ECC71"/>
<path d="M219.15 165.49H211.52V173.19H219.15V165.49Z" fill="#2ECC71"/>
<path d="M219.15 157.78H211.52V165.48H219.15V157.78Z" fill="#2ECC71"/>
<path d="M219.15 150.16H211.52V157.79H219.15V150.16Z" fill="#28AF5F"/>
<path d="M219.15 142.45H211.52V150.15H219.15V142.45Z" fill="#28AF5F"/>
<path d="M219.15 134.83H211.52V142.46H219.15V134.83Z" fill="#28AF5F"/>
<path d="M219.15 127.12H211.52V134.82H219.15V127.12Z" fill="#2ECC71"/>
<path d="M219.15 119.51H211.52V127.14H219.15V119.51Z" fill="#2ECC71"/>
<path d="M219.15 111.8H211.52V119.5H219.15V111.8Z" fill="#28AF5F"/>
<path d="M219.15 104.1H211.52V111.8H219.15V104.1Z" fill="#EFAD65"/>
<path d="M219.15 96.47H211.52V104.1H219.15V96.47Z" fill="#5B5957"/>
<path d="M219.15 88.77H211.52V96.47H219.15V88.77Z" fill="#878481"/>
<path d="M219.15 81.1399H211.52V88.7699H219.15V81.1399Z" fill="#878481"/>
<path d="M219.15 73.4399H211.52V81.1399H219.15V73.4399Z" fill="#EFAD65"/>
<path d="M211.511 318.86H203.811V326.56H211.511V318.86Z" fill="#28AF5F"/>
<path d="M211.511 311.23H203.811V318.86H211.511V311.23Z" fill="#28AF5F"/>
<path d="M211.511 303.53H203.811V311.23H211.511V303.53Z" fill="#28AF5F"/>
<path d="M211.511 295.9H203.811V303.53H211.511V295.9Z" fill="#28AF5F"/>
<path d="M211.511 288.2H203.811V295.9H211.511V288.2Z" fill="#2ECC71"/>
<path d="M211.511 280.49H203.811V288.19H211.511V280.49Z" fill="#28AF5F"/>
<path d="M211.511 272.87H203.811V280.5H211.511V272.87Z" fill="#28AF5F"/>
<path d="M211.511 265.16H203.811V272.86H211.511V265.16Z" fill="#2ECC71"/>
<path d="M211.511 257.53H203.811V265.16H211.511V257.53Z" fill="#025624"/>
<path d="M211.511 249.83H203.811V257.53H211.511V249.83Z" fill="#025624"/>
<path d="M211.511 242.22H203.811V249.85H211.511V242.22Z" fill="#025624"/>
<path d="M211.511 234.5H203.811V242.2H211.511V234.5Z" fill="#2ECC71"/>
<path d="M211.511 226.8H203.811V234.5H211.511V226.8Z" fill="#2ECC71"/>
<path d="M211.511 219.18H203.811V226.81H211.511V219.18Z" fill="#2ECC71"/>
<path d="M211.511 211.48H203.811V219.18H211.511V211.48Z" fill="#2ECC71"/>
<path d="M211.511 203.85H203.811V211.48H211.511V203.85Z" fill="#28AF5F"/>
<path d="M211.511 196.15H203.811V203.85H211.511V196.15Z" fill="#025624"/>
<path d="M211.511 188.52H203.811V196.15H211.511V188.52Z" fill="#28AF5F"/>
<path d="M211.511 180.82H203.811V188.52H211.511V180.82Z" fill="#28AF5F"/>
<path d="M211.511 173.19H203.811V180.82H211.511V173.19Z" fill="#28AF5F"/>
<path d="M211.511 165.49H203.811V173.19H211.511V165.49Z" fill="#28AF5F"/>
<path d="M211.511 157.78H203.811V165.48H211.511V157.78Z" fill="#2ECC71"/>
<path d="M211.511 150.16H203.811V157.79H211.511V150.16Z" fill="#2ECC71"/>
<path d="M211.511 142.45H203.811V150.15H211.511V142.45Z" fill="#2ECC71"/>
<path d="M211.511 134.83H203.811V142.46H211.511V134.83Z" fill="#2ECC71"/>
<path d="M211.511 127.12H203.811V134.82H211.511V127.12Z" fill="#2ECC71"/>
<path d="M211.511 119.51H203.811V127.14H211.511V119.51Z" fill="#28AF5F"/>
<path d="M211.511 111.8H203.811V119.5H211.511V111.8Z" fill="#EFAD65"/>
<path d="M211.511 104.1H203.811V111.8H211.511V104.1Z" fill="#EFAD65"/>
<path d="M211.511 96.47H203.811V104.1H211.511V96.47Z" fill="#EFAD65"/>
<path d="M211.511 88.77H203.811V96.47H211.511V88.77Z" fill="#5B5957"/>
<path d="M211.511 81.1399H203.811V88.7699H211.511V81.1399Z" fill="#878481"/>
<path d="M211.511 73.4399H203.811V81.1399H211.511V73.4399Z" fill="#EFAD65"/>
<path d="M203.819 318.86H196.189V326.56H203.819V318.86Z" fill="#28AF5F"/>
<path d="M203.819 311.23H196.189V318.86H203.819V311.23Z" fill="#28AF5F"/>
<path d="M203.819 303.53H196.189V311.23H203.819V303.53Z" fill="#28AF5F"/>
<path d="M203.819 295.9H196.189V303.53H203.819V295.9Z" fill="#28AF5F"/>
<path d="M203.819 288.2H196.189V295.9H203.819V288.2Z" fill="#2ECC71"/>
<path d="M203.819 280.49H196.189V288.19H203.819V280.49Z" fill="#28AF5F"/>
<path d="M203.819 272.87H196.189V280.5H203.819V272.87Z" fill="#28AF5F"/>
<path d="M203.819 265.16H196.189V272.86H203.819V265.16Z" fill="#2ECC71"/>
<path d="M203.819 257.53H196.189V265.16H203.819V257.53Z" fill="#2ECC71"/>
<path d="M203.819 249.83H196.189V257.53H203.819V249.83Z" fill="#2ECC71"/>
<path d="M203.819 242.22H196.189V249.85H203.819V242.22Z" fill="#2ECC71"/>
<path d="M203.819 234.5H196.189V242.2H203.819V234.5Z" fill="#025624"/>
<path d="M203.819 226.8H196.189V234.5H203.819V226.8Z" fill="#025624"/>
<path d="M203.819 219.18H196.189V226.81H203.819V219.18Z" fill="#025624"/>
<path d="M203.819 211.48H196.189V219.18H203.819V211.48Z" fill="#025624"/>
<path d="M203.819 203.85H196.189V211.48H203.819V203.85Z" fill="#28AF5F"/>
<path d="M203.819 196.15H196.189V203.85H203.819V196.15Z" fill="#025624"/>
<path d="M203.819 188.52H196.189V196.15H203.819V188.52Z" fill="#28AF5F"/>
<path d="M203.819 180.82H196.189V188.52H203.819V180.82Z" fill="#28AF5F"/>
<path d="M203.819 173.19H196.189V180.82H203.819V173.19Z" fill="#28AF5F"/>
<path d="M203.819 165.49H196.189V173.19H203.819V165.49Z" fill="#28AF5F"/>
<path d="M203.819 157.78H196.189V165.48H203.819V157.78Z" fill="#28AF5F"/>
<path d="M203.819 150.16H196.189V157.79H203.819V150.16Z" fill="#2ECC71"/>
<path d="M203.819 142.45H196.189V150.15H203.819V142.45Z" fill="#2ECC71"/>
<path d="M203.819 134.83H196.189V142.46H203.819V134.83Z" fill="#2ECC71"/>
<path d="M203.819 127.12H196.189V134.82H203.819V127.12Z" fill="#2ECC71"/>
<path d="M203.819 119.51H196.189V127.14H203.819V119.51Z" fill="#28AF5F"/>
<path d="M203.819 111.8H196.189V119.5H203.819V111.8Z" fill="#EFAD65"/>
<path d="M203.819 104.1H196.189V111.8H203.819V104.1Z" fill="#EFAD65"/>
<path d="M203.819 96.47H196.189V104.1H203.819V96.47Z" fill="#EFAD65"/>
<path d="M203.819 88.77H196.189V96.47H203.819V88.77Z" fill="#EFAD65"/>
<path d="M203.819 81.1399H196.189V88.7699H203.819V81.1399Z" fill="#EFAD65"/>
<path d="M203.819 73.4399H196.189V81.1399H203.819V73.4399Z" fill="#EFAD65"/>
<path d="M196.18 318.86H188.48V326.56H196.18V318.86Z" fill="#28AF5F"/>
<path d="M196.18 311.23H188.48V318.86H196.18V311.23Z" fill="#28AF5F"/>
<path d="M196.18 303.53H188.48V311.23H196.18V303.53Z" fill="#28AF5F"/>
<path d="M196.18 295.9H188.48V303.53H196.18V295.9Z" fill="#28AF5F"/>
<path d="M196.18 288.2H188.48V295.9H196.18V288.2Z" fill="#28AF5F"/>
<path d="M196.18 280.49H188.48V288.19H196.18V280.49Z" fill="#2ECC71"/>
<path d="M196.18 272.87H188.48V280.5H196.18V272.87Z" fill="#28AF5F"/>
<path d="M196.18 265.16H188.48V272.86H196.18V265.16Z" fill="#2ECC71"/>
<path d="M196.18 257.53H188.48V265.16H196.18V257.53Z" fill="#2ECC71"/>
<path d="M196.18 249.83H188.48V257.53H196.18V249.83Z" fill="#2ECC71"/>
<path d="M196.18 242.22H188.48V249.85H196.18V242.22Z" fill="#2ECC71"/>
<path d="M196.18 234.5H188.48V242.2H196.18V234.5Z" fill="#2ECC71"/>
<path d="M196.18 226.8H188.48V234.5H196.18V226.8Z" fill="#2ECC71"/>
<path d="M196.18 219.18H188.48V226.81H196.18V219.18Z" fill="#2ECC71"/>
<path d="M196.18 211.48H188.48V219.18H196.18V211.48Z" fill="#28AF5F"/>
<path d="M196.18 203.85H188.48V211.48H196.18V203.85Z" fill="#025624"/>
<path d="M196.18 196.15H188.48V203.85H196.18V196.15Z" fill="#025624"/>
<path d="M196.18 188.52H188.48V196.15H196.18V188.52Z" fill="#28AF5F"/>
<path d="M196.18 180.82H188.48V188.52H196.18V180.82Z" fill="#28AF5F"/>
<path d="M196.18 173.19H188.48V180.82H196.18V173.19Z" fill="#28AF5F"/>
<path d="M196.18 165.49H188.48V173.19H196.18V165.49Z" fill="#28AF5F"/>
<path d="M196.18 157.78H188.48V165.48H196.18V157.78Z" fill="#28AF5F"/>
<path d="M196.18 150.16H188.48V157.79H196.18V150.16Z" fill="#28AF5F"/>
<path d="M196.18 142.45H188.48V150.15H196.18V142.45Z" fill="#2ECC71"/>
<path d="M196.18 134.83H188.48V142.46H196.18V134.83Z" fill="#2ECC71"/>
<path d="M196.18 127.12H188.48V134.82H196.18V127.12Z" fill="#2ECC71"/>
<path d="M196.18 119.51H188.48V127.14H196.18V119.51Z" fill="#28AF5F"/>
<path d="M196.18 111.8H188.48V119.5H196.18V111.8Z" fill="#EFAD65"/>
<path d="M196.18 104.1H188.48V111.8H196.18V104.1Z" fill="#EFAD65"/>
<path d="M196.18 96.47H188.48V104.1H196.18V96.47Z" fill="#EFAD65"/>
<path d="M196.18 88.77H188.48V96.47H196.18V88.77Z" fill="#EFAD65"/>
<path d="M196.18 81.1399H188.48V88.7699H196.18V81.1399Z" fill="#EFAD65"/>
<path d="M196.18 73.4399H188.48V81.1399H196.18V73.4399Z" fill="#EFAD65"/>
<path d="M188.479 318.86H180.779V326.56H188.479V318.86Z" fill="#28AF5F"/>
<path d="M188.479 311.23H180.779V318.86H188.479V311.23Z" fill="#28AF5F"/>
<path d="M188.479 303.53H180.779V311.23H188.479V303.53Z" fill="#28AF5F"/>
<path d="M188.479 295.9H180.779V303.53H188.479V295.9Z" fill="#28AF5F"/>
<path d="M188.479 288.2H180.779V295.9H188.479V288.2Z" fill="#28AF5F"/>
<path d="M188.479 280.49H180.779V288.19H188.479V280.49Z" fill="#2ECC71"/>
<path d="M188.479 272.87H180.779V280.5H188.479V272.87Z" fill="#28AF5F"/>
<path d="M188.479 265.16H180.779V272.86H188.479V265.16Z" fill="#2ECC71"/>
<path d="M188.479 257.53H180.779V265.16H188.479V257.53Z" fill="#025624"/>
<path d="M188.479 249.83H180.779V257.53H188.479V249.83Z" fill="#025624"/>
<path d="M188.479 242.22H180.779V249.85H188.479V242.22Z" fill="#025624"/>
<path d="M188.479 234.5H180.779V242.2H188.479V234.5Z" fill="#025624"/>
<path d="M188.479 226.8H180.779V234.5H188.479V226.8Z" fill="#025624"/>
<path d="M188.479 219.18H180.779V226.81H188.479V219.18Z" fill="#025624"/>
<path d="M188.479 211.48H180.779V219.18H188.479V211.48Z" fill="#025624"/>
<path d="M188.479 203.85H180.779V211.48H188.479V203.85Z" fill="#28AF5F"/>
<path d="M188.479 196.15H180.779V203.85H188.479V196.15Z" fill="#28AF5F"/>
<path d="M188.479 188.52H180.779V196.15H188.479V188.52Z" fill="#025624"/>
<path d="M188.479 180.82H180.779V188.52H188.479V180.82Z" fill="#2ECC71"/>
<path d="M188.479 173.19H180.779V180.82H188.479V173.19Z" fill="#2ECC71"/>
<path d="M188.479 165.49H180.779V173.19H188.479V165.49Z" fill="#2ECC71"/>
<path d="M188.479 157.78H180.779V165.48H188.479V157.78Z" fill="#2ECC71"/>
<path d="M188.479 150.16H180.779V157.79H188.479V150.16Z" fill="#2ECC71"/>
<path d="M188.479 142.45H180.779V150.15H188.479V142.45Z" fill="#2ECC71"/>
<path d="M188.479 134.83H180.779V142.46H188.479V134.83Z" fill="#2ECC71"/>
<path d="M188.479 127.12H180.779V134.82H188.479V127.12Z" fill="#28AF5F"/>
<path d="M188.479 119.51H180.779V127.14H188.479V119.51Z" fill="#28AF5F"/>
<path d="M188.479 111.8H180.779V119.5H188.479V111.8Z" fill="#EFAD65"/>
<path d="M188.479 104.1H180.779V111.8H188.479V104.1Z" fill="#EA8634"/>
<path d="M188.479 96.47H180.779V104.1H188.479V96.47Z" fill="#EA8634"/>
<path d="M188.479 88.77H180.779V96.47H188.479V88.77Z" fill="#EFAD65"/>
<path d="M188.479 81.1399H180.779V88.7699H188.479V81.1399Z" fill="#EFAD65"/>
<path d="M180.78 318.86H173.15V326.56H180.78V318.86Z" fill="#28AF5F"/>
<path d="M180.78 311.23H173.15V318.86H180.78V311.23Z" fill="#28AF5F"/>
<path d="M180.78 303.53H173.15V311.23H180.78V303.53Z" fill="#28AF5F"/>
<path d="M180.78 295.9H173.15V303.53H180.78V295.9Z" fill="#28AF5F"/>
<path d="M180.78 288.2H173.15V295.9H180.78V288.2Z" fill="#28AF5F"/>
<path d="M180.78 280.49H173.15V288.19H180.78V280.49Z" fill="#28AF5F"/>
<path d="M180.78 272.87H173.15V280.5H180.78V272.87Z" fill="#28AF5F"/>
<path d="M180.78 265.16H173.15V272.86H180.78V265.16Z" fill="#28AF5F"/>
<path d="M180.78 257.53H173.15V265.16H180.78V257.53Z" fill="#28AF5F"/>
<path d="M180.78 249.83H173.15V257.53H180.78V249.83Z" fill="#2ECC71"/>
<path d="M180.78 242.22H173.15V249.85H180.78V242.22Z" fill="#2ECC71"/>
<path d="M180.78 234.5H173.15V242.2H180.78V234.5Z" fill="#2ECC71"/>
<path d="M180.78 226.8H173.15V234.5H180.78V226.8Z" fill="#2ECC71"/>
<path d="M180.78 219.18H173.15V226.81H180.78V219.18Z" fill="#28AF5F"/>
<path d="M180.78 180.82H173.15V188.52H180.78V180.82Z" fill="#28AF5F"/>
<path d="M180.78 173.19H173.15V180.82H180.78V173.19Z" fill="#2ECC71"/>
<path d="M180.78 165.49H173.15V173.19H180.78V165.49Z" fill="#2ECC71"/>
<path d="M180.78 157.78H173.15V165.48H180.78V157.78Z" fill="#2ECC71"/>
<path d="M180.78 150.16H173.15V157.79H180.78V150.16Z" fill="#28AF5F"/>
<path d="M180.78 142.45H173.15V150.15H180.78V142.45Z" fill="#28AF5F"/>
<path d="M180.78 134.83H173.15V142.46H180.78V134.83Z" fill="#28AF5F"/>
<path d="M173.149 318.86H165.449V326.56H173.149V318.86Z" fill="#28AF5F"/>
<path d="M173.149 311.23H165.449V318.86H173.149V311.23Z" fill="#28AF5F"/>
<path d="M173.149 303.53H165.449V311.23H173.149V303.53Z" fill="#28AF5F"/>
<path d="M173.149 295.9H165.449V303.53H173.149V295.9Z" fill="#28AF5F"/>
<path d="M173.149 288.2H165.449V295.9H173.149V288.2Z" fill="#28AF5F"/>
<path d="M173.149 280.49H165.449V288.19H173.149V280.49Z" fill="#28AF5F"/>
<path d="M173.149 272.87H165.449V280.5H173.149V272.87Z" fill="#2ECC71"/>
<path d="M173.149 265.16H165.449V272.86H173.149V265.16Z" fill="#2ECC71"/>
<path d="M173.149 257.53H165.449V265.16H173.149V257.53Z" fill="#2ECC71"/>
<path d="M173.149 249.83H165.449V257.53H173.149V249.83Z" fill="#2ECC71"/>
<path d="M173.149 242.22H165.449V249.85H173.149V242.22Z" fill="#2ECC71"/>
<path d="M173.149 234.5H165.449V242.2H173.149V234.5Z" fill="#28AF5F"/>
<path d="M173.149 226.8H165.449V234.5H173.149V226.8Z" fill="#28AF5F"/>
<path d="M173.149 180.82H165.449V188.52H173.149V180.82Z" fill="#28AF5F"/>
<path d="M173.149 173.19H165.449V180.82H173.149V173.19Z" fill="#28AF5F"/>
<path d="M173.149 165.49H165.449V173.19H173.149V165.49Z" fill="#28AF5F"/>
<path d="M173.149 157.78H165.449V165.48H173.149V157.78Z" fill="#28AF5F"/>
<path d="M173.149 150.16H165.449V157.79H173.149V150.16Z" fill="#28AF5F"/>
<path d="M165.45 318.86H157.82V326.56H165.45V318.86Z" fill="#28AF5F"/>
<path d="M165.45 311.23H157.82V318.86H165.45V311.23Z" fill="#2ECC71"/>
<path d="M165.45 303.53H157.82V311.23H165.45V303.53Z" fill="#2ECC71"/>
<path d="M165.45 295.9H157.82V303.53H165.45V295.9Z" fill="#2ECC71"/>
<path d="M165.45 288.2H157.82V295.9H165.45V288.2Z" fill="#2ECC71"/>
<path d="M165.45 280.49H157.82V288.19H165.45V280.49Z" fill="#2ECC71"/>
<path d="M165.45 272.87H157.82V280.5H165.45V272.87Z" fill="#2ECC71"/>
<path d="M165.45 265.16H157.82V272.86H165.45V265.16Z" fill="#2ECC71"/>
<path d="M165.45 257.53H157.82V265.16H165.45V257.53Z" fill="#28AF5F"/>
<path d="M165.45 249.83H157.82V257.53H165.45V249.83Z" fill="#28AF5F"/>
<path d="M165.45 242.22H157.82V249.85H165.45V242.22Z" fill="#28AF5F"/>
<path d="M165.45 188.52H157.82V196.15H165.45V188.52Z" fill="#28AF5F"/>
<path d="M165.45 180.82H157.82V188.52H165.45V180.82Z" fill="#28AF5F"/>
<path d="M165.45 173.19H157.82V180.82H165.45V173.19Z" fill="#28AF5F"/>
<path d="M165.45 165.49H157.82V173.19H165.45V165.49Z" fill="#28AF5F"/>
<path d="M157.819 318.86H150.119V326.56H157.819V318.86Z" fill="#28AF5F"/>
<path d="M157.819 311.23H150.119V318.86H157.819V311.23Z" fill="#28AF5F"/>
<path d="M157.819 303.53H150.119V311.23H157.819V303.53Z" fill="#28AF5F"/>
<path d="M157.819 295.9H150.119V303.53H157.819V295.9Z" fill="#28AF5F"/>
<path d="M157.819 288.2H150.119V295.9H157.819V288.2Z" fill="#28AF5F"/>
<path d="M157.819 280.49H150.119V288.19H157.819V280.49Z" fill="#28AF5F"/>
<path d="M157.819 272.87H150.119V280.5H157.819V272.87Z" fill="#28AF5F"/>
<path d="M157.819 265.16H150.119V272.86H157.819V265.16Z" fill="#28AF5F"/>
<path d="M157.819 257.53H150.119V265.16H157.819V257.53Z" fill="#28AF5F"/>
<path d="M157.819 188.52H150.119V196.15H157.819V188.52Z" fill="#EFAD65"/>
<path d="M157.819 180.82H150.119V188.52H157.819V180.82Z" fill="#EFAD65"/>
<path d="M157.819 173.19H150.119V180.82H157.819V173.19Z" fill="#EFAD65"/>
<path d="M157.819 165.49H150.119V173.19H157.819V165.49Z" fill="#28AF5F"/>
<path d="M150.13 188.52H142.5V196.15H150.13V188.52Z" fill="#EFAD65"/>
<path d="M150.13 180.82H142.5V188.52H150.13V180.82Z" fill="#EFAD65"/>
<path d="M150.13 173.19H142.5V180.82H150.13V173.19Z" fill="#EFAD65"/>
<path d="M142.501 180.82H134.801V188.52H142.501V180.82Z" fill="#EFAD65"/>
<path d="M142.501 173.19H134.801V180.82H142.501V173.19Z" fill="#EFAD65"/>
<path d="M142.501 165.49H134.801V173.19H142.501V165.49Z" fill="#EFAD65"/>
<path d="M142.501 104.1H134.801V111.8H142.501V104.1Z" fill="#5E320A"/>
<path d="M142.501 96.47H134.801V104.1H142.501V96.47Z" fill="#5E320A"/>
<path d="M142.501 88.77H134.801V96.47H142.501V88.77Z" fill="#5E320A"/>
<path d="M142.501 81.1399H134.801V88.7699H142.501V81.1399Z" fill="#5E320A"/>
<path d="M134.8 295.9H127.1V303.53H134.8V295.9Z" fill="#492807"/>
<path d="M134.8 288.2H127.1V295.9H134.8V288.2Z" fill="#492807"/>
<path d="M134.8 280.49H127.1V288.19H134.8V280.49Z" fill="#492807"/>
<path d="M134.8 272.87H127.1V280.5H134.8V272.87Z" fill="#492807"/>
<path d="M134.8 265.16H127.1V272.86H134.8V265.16Z" fill="#492807"/>
<path d="M134.8 257.53H127.1V265.16H134.8V257.53Z" fill="#492807"/>
<path d="M134.8 249.83H127.1V257.53H134.8V249.83Z" fill="#492807"/>
<path d="M134.8 242.22H127.1V249.85H134.8V242.22Z" fill="#492807"/>
<path d="M134.8 234.5H127.1V242.2H134.8V234.5Z" fill="#492807"/>
<path d="M134.8 226.8H127.1V234.5H134.8V226.8Z" fill="#492807"/>
<path d="M134.8 219.18H127.1V226.81H134.8V219.18Z" fill="#492807"/>
<path d="M134.8 211.48H127.1V219.18H134.8V211.48Z" fill="#492807"/>
<path d="M134.8 203.85H127.1V211.48H134.8V203.85Z" fill="#492807"/>
<path d="M134.8 196.15H127.1V203.85H134.8V196.15Z" fill="#492807"/>
<path d="M134.8 188.52H127.1V196.15H134.8V188.52Z" fill="#492807"/>
<path d="M134.8 180.82H127.1V188.52H134.8V180.82Z" fill="#EFAD65"/>
<path d="M134.8 173.19H127.1V180.82H134.8V173.19Z" fill="#EFAD65"/>
<path d="M134.8 165.49H127.1V173.19H134.8V165.49Z" fill="#EFAD65"/>
<path d="M134.8 157.78H127.1V165.48H134.8V157.78Z" fill="#492807"/>
<path d="M134.8 150.16H127.1V157.79H134.8V150.16Z" fill="#492807"/>
<path d="M134.8 142.45H127.1V150.15H134.8V142.45Z" fill="#492807"/>
<path d="M134.8 134.83H127.1V142.46H134.8V134.83Z" fill="#492807"/>
<path d="M134.8 127.12H127.1V134.82H134.8V127.12Z" fill="#492807"/>
<path d="M134.8 119.51H127.1V127.14H134.8V119.51Z" fill="#492807"/>
<path d="M134.8 111.8H127.1V119.5H134.8V111.8Z" fill="#492807"/>
<path d="M134.8 104.1H127.1V111.8H134.8V104.1Z" fill="#5E320A"/>
<path d="M134.8 96.47H127.1V104.1H134.8V96.47Z" fill="#723B0E"/>
<path d="M134.8 88.77H127.1V96.47H134.8V88.77Z" fill="#723B0E"/>
<path d="M127.101 173.19H119.471V180.82H127.101V173.19Z" fill="#EFAD65"/>
<path d="M127.101 165.49H119.471V173.19H127.101V165.49Z" fill="#EFAD65"/>
<path d="M127.101 111.8H119.471V119.5H127.101V111.8Z" fill="#5E320A"/>
<path d="M127.101 104.1H119.471V111.8H127.101V104.1Z" fill="#723B0E"/>
<path d="M127.101 96.47H119.471V104.1H127.101V96.47Z" fill="#84400D"/>
</svg>
