<svg width="400" height="400" viewBox="0 0 400 400" fill="none" xmlns="http://www.w3.org/2000/svg">
<path d="M200.001 385.78C302.604 385.78 385.781 302.603 385.781 200C385.781 97.3965 302.604 14.22 200.001 14.22C97.3972 14.22 14.2207 97.3965 14.2207 200C14.2207 302.603 97.3972 385.78 200.001 385.78Z" fill="black"/>
<path d="M200.001 392.78C93.7007 392.78 7.2207 306.3 7.2207 200C7.2207 93.7 93.7007 7.21997 200.001 7.21997C306.301 7.21997 392.781 93.7 392.781 200C392.781 306.3 306.301 392.78 200.001 392.78ZM200.001 21.22C101.421 21.22 21.2207 101.42 21.2207 200C21.2207 298.58 101.421 378.78 200.001 378.78C298.581 378.78 378.781 298.58 378.781 200C378.781 101.42 298.581 21.22 200.001 21.22Z" fill="#455360"/>
<path d="M315.349 236.77H309.109V242.95H315.349V236.77Z" fill="#455360"/>
<path d="M315.349 230.53H309.109V236.77H315.349V230.53Z" fill="#455360"/>
<path d="M315.349 224.29H309.109V230.53H315.349V224.29Z" fill="#455360"/>
<path d="M315.349 218.1H309.109V224.28H315.349V218.1Z" fill="#455360"/>
<path d="M309.11 242.96H302.93V249.2H309.11V242.96Z" fill="#455379"/>
<path d="M309.11 211.86H302.93V218.1H309.11V211.86Z" fill="black"/>
<path d="M302.929 236.77H296.689V242.95H302.929V236.77Z" fill="#455360"/>
<path d="M302.929 230.53H296.689V236.77H302.929V230.53Z" fill="#455360"/>
<path d="M302.929 224.29H296.689V230.53H302.929V224.29Z" fill="#455360"/>
<path d="M302.929 218.1H296.689V224.28H302.929V218.1Z" fill="black"/>
<path d="M302.929 211.86H296.689V218.1H302.929V211.86Z" fill="black"/>
<path d="M302.929 205.68H296.689V211.86H302.929V205.68Z" fill="black"/>
<path d="M296.689 242.96H290.449V249.2H296.689V242.96Z" fill="#455379"/>
<path d="M296.689 218.1H290.449V224.28H296.689V218.1Z" fill="black"/>
<path d="M296.689 211.86H290.449V218.1H296.689V211.86Z" fill="black"/>
<path d="M296.689 205.68H290.449V211.86H296.689V205.68Z" fill="black"/>
<path d="M290.44 211.86H284.25V218.1H290.44V211.86Z" fill="black"/>
<path d="M290.44 205.68H284.25V211.86H290.44V205.68Z" fill="black"/>
<path d="M284.26 230.53H278.02V236.77H284.26V230.53Z" fill="#455360"/>
<path d="M284.26 224.29H278.02V230.53H284.26V224.29Z" fill="#455360"/>
<path d="M284.26 218.1H278.02V224.28H284.26V218.1Z" fill="#455360"/>
<path d="M284.26 211.86H278.02V218.1H284.26V211.86Z" fill="black"/>
<path d="M284.26 205.68H278.02V211.86H284.26V205.68Z" fill="black"/>
<path d="M284.26 199.43H278.02V205.67H284.26V199.43Z" fill="black"/>
<path d="M284.26 193.25H278.02V199.43H284.26V193.25Z" fill="black"/>
<path d="M284.26 187.01H278.02V193.25H284.26V187.01Z" fill="black"/>
<path d="M278.01 236.77H271.83V242.95H278.01V236.77Z" fill="#455379"/>
<path d="M278.01 205.68H271.83V211.86H278.01V205.68Z" fill="black"/>
<path d="M278.01 199.43H271.83V205.67H278.01V199.43Z" fill="#2D1212"/>
<path d="M278.01 193.25H271.83V199.43H278.01V193.25Z" fill="#2D1212"/>
<path d="M278.01 187.01H271.83V193.25H278.01V187.01Z" fill="#2D1212"/>
<path d="M278.01 180.83H271.83V187.01H278.01V180.83Z" fill="black"/>
<path d="M278.01 174.58H271.83V180.82H278.01V174.58Z" fill="black"/>
<path d="M278.01 168.34H271.83V174.58H278.01V168.34Z" fill="black"/>
<path d="M271.83 199.43H265.59V205.67H271.83V199.43Z" fill="black"/>
<path d="M271.83 193.25H265.59V199.43H271.83V193.25Z" fill="#2D1212"/>
<path d="M271.83 187.01H265.59V193.25H271.83V187.01Z" fill="#2D1212"/>
<path d="M271.83 180.83H265.59V187.01H271.83V180.83Z" fill="#2D1212"/>
<path d="M271.83 174.58H265.59V180.82H271.83V174.58Z" fill="#2D1212"/>
<path d="M271.83 168.34H265.59V174.58H271.83V168.34Z" fill="#2D1212"/>
<path d="M271.83 162.16H265.59V168.34H271.83V162.16Z" fill="black"/>
<path d="M265.59 193.25H259.41V199.43H265.59V193.25Z" fill="black"/>
<path d="M265.59 187.01H259.41V193.25H265.59V187.01Z" fill="#2D1212"/>
<path d="M265.59 180.83H259.41V187.01H265.59V180.83Z" fill="#2D1212"/>
<path d="M265.59 174.58H259.41V180.82H265.59V174.58Z" fill="#2D1212"/>
<path d="M265.59 168.34H259.41V174.58H265.59V168.34Z" fill="#2D1212"/>
<path d="M265.59 162.16H259.41V168.34H265.59V162.16Z" fill="#2D1212"/>
<path d="M265.59 155.91H259.41V162.15H265.59V155.91Z" fill="black"/>
<path d="M259.4 317.57H253.16V323.75H259.4V317.57Z" fill="#CE0505"/>
<path d="M259.4 311.34H253.16V317.58H259.4V311.34Z" fill="#CE0505"/>
<path d="M259.4 305.14H253.16V311.33H259.4V305.14Z" fill="#CE0505"/>
<path d="M259.4 298.91H253.16V305.15H259.4V298.91Z" fill="#E80C0C"/>
<path d="M259.4 292.72H253.16V298.9H259.4V292.72Z" fill="#E80C0C"/>
<path d="M259.4 286.48H253.16V292.72H259.4V286.48Z" fill="#E80C0C"/>
<path d="M259.4 280.3H253.16V286.48H259.4V280.3Z" fill="black"/>
<path d="M259.4 267.81H253.16V274.05H259.4V267.81Z" fill="black"/>
<path d="M259.4 261.62H253.16V267.81H259.4V261.62Z" fill="black"/>
<path d="M259.4 211.86H253.16V218.1H259.4V211.86Z" fill="black"/>
<path d="M259.4 205.68H253.16V211.86H259.4V205.68Z" fill="black"/>
<path d="M259.4 199.43H253.16V205.67H259.4V199.43Z" fill="black"/>
<path d="M259.4 193.25H253.16V199.43H259.4V193.25Z" fill="black"/>
<path d="M259.4 187.01H253.16V193.25H259.4V187.01Z" fill="black"/>
<path d="M259.4 180.83H253.16V187.01H259.4V180.83Z" fill="#2D1212"/>
<path d="M259.4 174.58H253.16V180.82H259.4V174.58Z" fill="#2D1212"/>
<path d="M259.4 168.34H253.16V174.58H259.4V168.34Z" fill="#2D1212"/>
<path d="M259.4 162.16H253.16V168.34H259.4V162.16Z" fill="#2D1212"/>
<path d="M259.4 155.91H253.16V162.15H259.4V155.91Z" fill="black"/>
<path d="M259.4 143.48H253.16V149.72H259.4V143.48Z" fill="black"/>
<path d="M259.4 137.3H253.16V143.48H259.4V137.3Z" fill="black"/>
<path d="M259.4 131.06H253.16V137.3H259.4V131.06Z" fill="black"/>
<path d="M259.4 124.81H253.16V131.05H259.4V124.81Z" fill="black"/>
<path d="M259.4 118.63H253.16V124.81H259.4V118.63Z" fill="black"/>
<path d="M253.16 292.72H246.92V298.9H253.16V292.72Z" fill="#E80C0C"/>
<path d="M253.16 286.48H246.92V292.72H253.16V286.48Z" fill="#E80C0C"/>
<path d="M253.16 280.3H246.92V286.48H253.16V280.3Z" fill="#FF0000"/>
<path d="M253.16 274.05H246.92V280.29H253.16V274.05Z" fill="black"/>
<path d="M253.16 267.81H246.92V274.05H253.16V267.81Z" fill="#2D1212"/>
<path d="M253.16 261.62H246.92V267.81H253.16V261.62Z" fill="black"/>
<path d="M253.16 255.39H246.92V261.63H253.16V255.39Z" fill="black"/>
<path d="M253.16 249.2H246.92V255.38H253.16V249.2Z" fill="black"/>
<path d="M253.16 242.96H246.92V249.2H253.16V242.96Z" fill="black"/>
<path d="M253.16 236.77H246.92V242.95H253.16V236.77Z" fill="black"/>
<path d="M253.16 180.83H246.92V187.01H253.16V180.83Z" fill="black"/>
<path d="M253.16 174.58H246.92V180.82H253.16V174.58Z" fill="#2D1212"/>
<path d="M253.16 168.34H246.92V174.58H253.16V168.34Z" fill="#2D1212"/>
<path d="M253.16 162.16H246.92V168.34H253.16V162.16Z" fill="#2D1212"/>
<path d="M253.16 155.91H246.92V162.15H253.16V155.91Z" fill="#2D1212"/>
<path d="M253.16 149.73H246.92V155.91H253.16V149.73Z" fill="black"/>
<path d="M253.16 137.3H246.92V143.48H253.16V137.3Z" fill="black"/>
<path d="M253.16 131.06H246.92V137.3H253.16V131.06Z" fill="#2D1212"/>
<path d="M253.16 124.81H246.92V131.05H253.16V124.81Z" fill="#2D1212"/>
<path d="M253.16 118.63H246.92V124.81H253.16V118.63Z" fill="#2D1212"/>
<path d="M253.16 112.39H246.92V118.63H253.16V112.39Z" fill="black"/>
<path d="M253.16 106.21H246.92V112.39H253.16V106.21Z" fill="black"/>
<path d="M246.92 305.14H240.74V311.33H246.92V305.14Z" fill="#C40505"/>
<path d="M246.92 298.91H240.74V305.15H246.92V298.91Z" fill="#CE0505"/>
<path d="M246.92 292.72H240.74V298.9H246.92V292.72Z" fill="#CE0505"/>
<path d="M246.92 286.48H240.74V292.72H246.92V286.48Z" fill="#2D1212"/>
<path d="M246.92 280.3H240.74V286.48H246.92V280.3Z" fill="#2D1212"/>
<path d="M246.92 274.05H240.74V280.29H246.92V274.05Z" fill="#FF0000"/>
<path d="M246.92 267.81H240.74V274.05H246.92V267.81Z" fill="#2D1212"/>
<path d="M246.92 261.62H240.74V267.81H246.92V261.62Z" fill="#2D1212"/>
<path d="M246.92 255.39H240.74V261.63H246.92V255.39Z" fill="#2D1212"/>
<path d="M246.92 249.2H240.74V255.38H246.92V249.2Z" fill="#2D1212"/>
<path d="M246.92 242.96H240.74V249.2H246.92V242.96Z" fill="#2D1212"/>
<path d="M246.92 236.77H240.74V242.95H246.92V236.77Z" fill="#2D1212"/>
<path d="M246.92 230.53H240.74V236.77H246.92V230.53Z" fill="black"/>
<path d="M246.92 224.29H240.74V230.53H246.92V224.29Z" fill="black"/>
<path d="M246.92 218.1H240.74V224.28H246.92V218.1Z" fill="black"/>
<path d="M246.92 211.86H240.74V218.1H246.92V211.86Z" fill="black"/>
<path d="M246.92 205.68H240.74V211.86H246.92V205.68Z" fill="black"/>
<path d="M246.92 199.43H240.74V205.67H246.92V199.43Z" fill="black"/>
<path d="M246.92 193.25H240.74V199.43H246.92V193.25Z" fill="black"/>
<path d="M246.92 187.01H240.74V193.25H246.92V187.01Z" fill="black"/>
<path d="M246.92 180.83H240.74V187.01H246.92V180.83Z" fill="#2D1212"/>
<path d="M246.92 174.58H240.74V180.82H246.92V174.58Z" fill="#2D1212"/>
<path d="M246.92 168.34H240.74V174.58H246.92V168.34Z" fill="#2D1212"/>
<path d="M246.92 162.16H240.74V168.34H246.92V162.16Z" fill="#2D1212"/>
<path d="M246.92 155.91H240.74V162.15H246.92V155.91Z" fill="#2D1212"/>
<path d="M246.92 149.73H240.74V155.91H246.92V149.73Z" fill="#2D1212"/>
<path d="M246.92 143.48H240.74V149.72H246.92V143.48Z" fill="black"/>
<path d="M246.92 131.06H240.74V137.3H246.92V131.06Z" fill="black"/>
<path d="M246.92 124.81H240.74V131.05H246.92V124.81Z" fill="#321E1E"/>
<path d="M246.92 118.63H240.74V124.81H246.92V118.63Z" fill="#321E1E"/>
<path d="M246.92 112.39H240.74V118.63H246.92V112.39Z" fill="#321E1E"/>
<path d="M246.92 106.21H240.74V112.39H246.92V106.21Z" fill="#321E1E"/>
<path d="M246.92 99.9602H240.74V106.2H246.92V99.9602Z" fill="black"/>
<path d="M240.73 292.72H234.49V298.9H240.73V292.72Z" fill="#C40505"/>
<path d="M240.73 286.48H234.49V292.72H240.73V286.48Z" fill="#321E1E"/>
<path d="M240.73 280.3H234.49V286.48H240.73V280.3Z" fill="#321E1E"/>
<path d="M240.73 274.05H234.49V280.29H240.73V274.05Z" fill="#2D1212"/>
<path d="M240.73 267.81H234.49V274.05H240.73V267.81Z" fill="#321E1E"/>
<path d="M240.73 261.62H234.49V267.81H240.73V261.62Z" fill="#321E1E"/>
<path d="M240.73 255.39H234.49V261.63H240.73V255.39Z" fill="#321E1E"/>
<path d="M240.73 249.2H234.49V255.38H240.73V249.2Z" fill="#321E1E"/>
<path d="M240.73 242.96H234.49V249.2H240.73V242.96Z" fill="#321E1E"/>
<path d="M240.73 236.77H234.49V242.95H240.73V236.77Z" fill="#2D1212"/>
<path d="M240.73 230.53H234.49V236.77H240.73V230.53Z" fill="#2D1212"/>
<path d="M240.73 224.29H234.49V230.53H240.73V224.29Z" fill="#2D1212"/>
<path d="M240.73 218.1H234.49V224.28H240.73V218.1Z" fill="#2D1212"/>
<path d="M240.73 211.86H234.49V218.1H240.73V211.86Z" fill="#2D1212"/>
<path d="M240.73 205.68H234.49V211.86H240.73V205.68Z" fill="#2D1212"/>
<path d="M240.73 199.43H234.49V205.67H240.73V199.43Z" fill="#2D1212"/>
<path d="M240.73 193.25H234.49V199.43H240.73V193.25Z" fill="#2D1212"/>
<path d="M240.73 187.01H234.49V193.25H240.73V187.01Z" fill="#2D1212"/>
<path d="M240.73 180.83H234.49V187.01H240.73V180.83Z" fill="#2D1212"/>
<path d="M240.73 174.58H234.49V180.82H240.73V174.58Z" fill="#321E1E"/>
<path d="M240.73 168.34H234.49V174.58H240.73V168.34Z" fill="#2D1212"/>
<path d="M240.73 162.16H234.49V168.34H240.73V162.16Z" fill="#321E1E"/>
<path d="M240.73 155.91H234.49V162.15H240.73V155.91Z" fill="#2D1212"/>
<path d="M240.73 149.73H234.49V155.91H240.73V149.73Z" fill="#2D1212"/>
<path d="M240.73 143.48H234.49V149.72H240.73V143.48Z" fill="#2D1212"/>
<path d="M240.73 137.3H234.49V143.48H240.73V137.3Z" fill="black"/>
<path d="M240.73 131.06H234.49V137.3H240.73V131.06Z" fill="#321E1E"/>
<path d="M240.73 124.81H234.49V131.05H240.73V124.81Z" fill="#321E1E"/>
<path d="M240.73 118.63H234.49V124.81H240.73V118.63Z" fill="#321E1E"/>
<path d="M240.73 112.39H234.49V118.63H240.73V112.39Z" fill="#321E1E"/>
<path d="M240.73 106.21H234.49V112.39H240.73V106.21Z" fill="#321E1E"/>
<path d="M240.73 99.9602H234.49V106.2H240.73V99.9602Z" fill="#321E1E"/>
<path d="M240.73 93.78H234.49V99.96H240.73V93.78Z" fill="black"/>
<path d="M234.491 298.91H228.311V305.15H234.491V298.91Z" fill="#C60606"/>
<path d="M234.491 292.72H228.311V298.9H234.491V292.72Z" fill="#CE0505"/>
<path d="M234.491 286.48H228.311V292.72H234.491V286.48Z" fill="#321E1E"/>
<path d="M234.491 280.3H228.311V286.48H234.491V280.3Z" fill="#CE0505"/>
<path d="M234.491 274.05H228.311V280.29H234.491V274.05Z" fill="#E80C0C"/>
<path d="M234.491 267.81H228.311V274.05H234.491V267.81Z" fill="#321E1E"/>
<path d="M234.491 261.62H228.311V267.81H234.491V261.62Z" fill="#321E1E"/>
<path d="M234.491 255.39H228.311V261.63H234.491V255.39Z" fill="#321E1E"/>
<path d="M234.491 249.2H228.311V255.38H234.491V249.2Z" fill="#321E1E"/>
<path d="M234.491 242.96H228.311V249.2H234.491V242.96Z" fill="#321E1E"/>
<path d="M234.491 236.77H228.311V242.95H234.491V236.77Z" fill="#321E1E"/>
<path d="M234.491 230.53H228.311V236.77H234.491V230.53Z" fill="#321E1E"/>
<path d="M234.491 224.29H228.311V230.53H234.491V224.29Z" fill="#321E1E"/>
<path d="M234.491 218.1H228.311V224.28H234.491V218.1Z" fill="#321E1E"/>
<path d="M234.491 211.86H228.311V218.1H234.491V211.86Z" fill="#321E1E"/>
<path d="M234.491 205.68H228.311V211.86H234.491V205.68Z" fill="#321E1E"/>
<path d="M234.491 199.43H228.311V205.67H234.491V199.43Z" fill="#321E1E"/>
<path d="M234.491 193.25H228.311V199.43H234.491V193.25Z" fill="#321E1E"/>
<path d="M234.491 187.01H228.311V193.25H234.491V187.01Z" fill="#321E1E"/>
<path d="M234.491 180.83H228.311V187.01H234.491V180.83Z" fill="#321E1E"/>
<path d="M234.491 174.58H228.311V180.82H234.491V174.58Z" fill="#321E1E"/>
<path d="M234.491 168.34H228.311V174.58H234.491V168.34Z" fill="#321E1E"/>
<path d="M234.491 162.16H228.311V168.34H234.491V162.16Z" fill="#321E1E"/>
<path d="M234.491 155.91H228.311V162.15H234.491V155.91Z" fill="#321E1E"/>
<path d="M234.491 149.73H228.311V155.91H234.491V149.73Z" fill="#2D1212"/>
<path d="M234.491 143.48H228.311V149.72H234.491V143.48Z" fill="#2D1212"/>
<path d="M234.491 137.3H228.311V143.48H234.491V137.3Z" fill="#321E1E"/>
<path d="M234.491 131.06H228.311V137.3H234.491V131.06Z" fill="#321E1E"/>
<path d="M234.491 124.81H228.311V131.05H234.491V124.81Z" fill="#0C0C0C"/>
<path d="M234.491 118.63H228.311V124.81H234.491V118.63Z" fill="#0C0C0C"/>
<path d="M234.491 112.39H228.311V118.63H234.491V112.39Z" fill="#FF0000"/>
<path d="M234.491 106.21H228.311V112.39H234.491V106.21Z" fill="#0C0C0C"/>
<path d="M234.491 99.9602H228.311V106.2H234.491V99.9602Z" fill="#321E1E"/>
<path d="M234.491 93.78H228.311V99.96H234.491V93.78Z" fill="#321E1E"/>
<path d="M234.491 87.54H228.311V93.78H234.491V87.54Z" fill="black"/>
<path d="M228.31 311.34H222.07V317.58H228.31V311.34Z" fill="#C40505"/>
<path d="M228.31 305.14H222.07V311.33H228.31V305.14Z" fill="#C60606"/>
<path d="M228.31 298.91H222.07V305.15H228.31V298.91Z" fill="#C60606"/>
<path d="M228.31 292.72H222.07V298.9H228.31V292.72Z" fill="#E50000"/>
<path d="M228.31 286.48H222.07V292.72H228.31V286.48Z" fill="#E80C0C"/>
<path d="M228.31 280.3H222.07V286.48H228.31V280.3Z" fill="#E80C0C"/>
<path d="M228.31 274.05H222.07V280.29H228.31V274.05Z" fill="#321E1E"/>
<path d="M228.31 267.81H222.07V274.05H228.31V267.81Z" fill="#321E1E"/>
<path d="M228.31 261.62H222.07V267.81H228.31V261.62Z" fill="#321E1E"/>
<path d="M228.31 255.39H222.07V261.63H228.31V255.39Z" fill="#321E1E"/>
<path d="M228.31 249.2H222.07V255.38H228.31V249.2Z" fill="#321E1E"/>
<path d="M228.31 242.96H222.07V249.2H228.31V242.96Z" fill="#321E1E"/>
<path d="M228.31 236.77H222.07V242.95H228.31V236.77Z" fill="#321E1E"/>
<path d="M228.31 230.53H222.07V236.77H228.31V230.53Z" fill="#321E1E"/>
<path d="M228.31 224.29H222.07V230.53H228.31V224.29Z" fill="#321E1E"/>
<path d="M228.31 218.1H222.07V224.28H228.31V218.1Z" fill="#321E1E"/>
<path d="M228.31 211.86H222.07V218.1H228.31V211.86Z" fill="#321E1E"/>
<path d="M228.31 205.68H222.07V211.86H228.31V205.68Z" fill="#321E1E"/>
<path d="M228.31 199.43H222.07V205.67H228.31V199.43Z" fill="#321E1E"/>
<path d="M228.31 193.25H222.07V199.43H228.31V193.25Z" fill="#321E1E"/>
<path d="M228.31 187.01H222.07V193.25H228.31V187.01Z" fill="#321E1E"/>
<path d="M228.31 180.83H222.07V187.01H228.31V180.83Z" fill="#321E1E"/>
<path d="M228.31 174.58H222.07V180.82H228.31V174.58Z" fill="#321E1E"/>
<path d="M228.31 168.34H222.07V174.58H228.31V168.34Z" fill="#321E1E"/>
<path d="M228.31 162.16H222.07V168.34H228.31V162.16Z" fill="#321E1E"/>
<path d="M228.31 155.91H222.07V162.15H228.31V155.91Z" fill="#321E1E"/>
<path d="M228.31 149.73H222.07V155.91H228.31V149.73Z" fill="#321E1E"/>
<path d="M228.31 143.48H222.07V149.72H228.31V143.48Z" fill="#2D1212"/>
<path d="M228.31 137.3H222.07V143.48H228.31V137.3Z" fill="#321E1E"/>
<path d="M228.31 131.06H222.07V137.3H228.31V131.06Z" fill="#0C0C0C"/>
<path d="M228.31 124.81H222.07V131.05H228.31V124.81Z" fill="#0C0C0C"/>
<path d="M228.31 118.63H222.07V124.81H228.31V118.63Z" fill="#0C0C0C"/>
<path d="M228.31 112.39H222.07V118.63H228.31V112.39Z" fill="#FF0000"/>
<path d="M228.31 106.21H222.07V112.39H228.31V106.21Z" fill="#0C0C0C"/>
<path d="M228.31 99.9602H222.07V106.2H228.31V99.9602Z" fill="#0C0C0C"/>
<path d="M228.31 93.78H222.07V99.96H228.31V93.78Z" fill="#321E1E"/>
<path d="M228.31 87.54H222.07V93.78H228.31V87.54Z" fill="black"/>
<path d="M228.31 81.3601H222.07V87.5401H228.31V81.3601Z" fill="black"/>
<path d="M222.071 311.34H215.891V317.58H222.071V311.34Z" fill="#C40505"/>
<path d="M222.071 305.14H215.891V311.33H222.071V305.14Z" fill="#E50000"/>
<path d="M222.071 298.91H215.891V305.15H222.071V298.91Z" fill="#E50000"/>
<path d="M222.071 292.72H215.891V298.9H222.071V292.72Z" fill="#E50000"/>
<path d="M222.071 286.48H215.891V292.72H222.071V286.48Z" fill="black"/>
<path d="M222.071 280.3H215.891V286.48H222.071V280.3Z" fill="#E80C0C"/>
<path d="M222.071 274.05H215.891V280.29H222.071V274.05Z" fill="#E80C0C"/>
<path d="M222.071 267.81H215.891V274.05H222.071V267.81Z" fill="#321E1E"/>
<path d="M222.071 261.62H215.891V267.81H222.071V261.62Z" fill="#321E1E"/>
<path d="M222.071 255.39H215.891V261.63H222.071V255.39Z" fill="#321E1E"/>
<path d="M222.071 249.2H215.891V255.38H222.071V249.2Z" fill="#321E1E"/>
<path d="M222.071 242.96H215.891V249.2H222.071V242.96Z" fill="#321E1E"/>
<path d="M222.071 236.77H215.891V242.95H222.071V236.77Z" fill="#321E1E"/>
<path d="M222.071 230.53H215.891V236.77H222.071V230.53Z" fill="#321E1E"/>
<path d="M222.071 224.29H215.891V230.53H222.071V224.29Z" fill="#321E1E"/>
<path d="M222.071 218.1H215.891V224.28H222.071V218.1Z" fill="#321E1E"/>
<path d="M222.071 211.86H215.891V218.1H222.071V211.86Z" fill="#321E1E"/>
<path d="M222.071 205.68H215.891V211.86H222.071V205.68Z" fill="#321E1E"/>
<path d="M222.071 199.43H215.891V205.67H222.071V199.43Z" fill="#321E1E"/>
<path d="M222.071 193.25H215.891V199.43H222.071V193.25Z" fill="#321E1E"/>
<path d="M222.071 187.01H215.891V193.25H222.071V187.01Z" fill="#321E1E"/>
<path d="M222.071 180.83H215.891V187.01H222.071V180.83Z" fill="#321E1E"/>
<path d="M222.071 174.58H215.891V180.82H222.071V174.58Z" fill="#321E1E"/>
<path d="M222.071 168.34H215.891V174.58H222.071V168.34Z" fill="#321E1E"/>
<path d="M222.071 162.16H215.891V168.34H222.071V162.16Z" fill="#321E1E"/>
<path d="M222.071 155.91H215.891V162.15H222.071V155.91Z" fill="#321E1E"/>
<path d="M222.071 149.73H215.891V155.91H222.071V149.73Z" fill="#321E1E"/>
<path d="M222.071 143.48H215.891V149.72H222.071V143.48Z" fill="#2D1212"/>
<path d="M222.071 137.3H215.891V143.48H222.071V137.3Z" fill="#321E1E"/>
<path d="M222.071 131.06H215.891V137.3H222.071V131.06Z" fill="#0C0C0C"/>
<path d="M222.071 124.81H215.891V131.05H222.071V124.81Z" fill="#0C0C0C"/>
<path d="M222.071 118.63H215.891V124.81H222.071V118.63Z" fill="#0C0C0C"/>
<path d="M222.071 112.39H215.891V118.63H222.071V112.39Z" fill="#0C0C0C"/>
<path d="M222.071 106.21H215.891V112.39H222.071V106.21Z" fill="#0C0C0C"/>
<path d="M222.071 99.9602H215.891V106.2H222.071V99.9602Z" fill="#0C0C0C"/>
<path d="M222.071 93.78H215.891V99.96H222.071V93.78Z" fill="black"/>
<path d="M222.071 87.54H215.891V93.78H222.071V87.54Z" fill="#321E1E"/>
<path d="M222.071 81.3601H215.891V87.5401H222.071V81.3601Z" fill="black"/>
<path d="M215.881 323.76H209.641V330H215.881V323.76Z" fill="#C40505"/>
<path d="M215.881 317.57H209.641V323.75H215.881V317.57Z" fill="#C40505"/>
<path d="M215.881 311.34H209.641V317.58H215.881V311.34Z" fill="#E50000"/>
<path d="M215.881 305.14H209.641V311.33H215.881V305.14Z" fill="#E50000"/>
<path d="M215.881 298.91H209.641V305.15H215.881V298.91Z" fill="black"/>
<path d="M215.881 292.72H209.641V298.9H215.881V292.72Z" fill="black"/>
<path d="M215.881 274.05H209.641V280.29H215.881V274.05Z" fill="#2D1212"/>
<path d="M215.881 267.81H209.641V274.05H215.881V267.81Z" fill="#2D1212"/>
<path d="M215.881 261.62H209.641V267.81H215.881V261.62Z" fill="#321E1E"/>
<path d="M215.881 255.39H209.641V261.63H215.881V255.39Z" fill="#321E1E"/>
<path d="M215.881 249.2H209.641V255.38H215.881V249.2Z" fill="#321E1E"/>
<path d="M215.881 242.96H209.641V249.2H215.881V242.96Z" fill="#321E1E"/>
<path d="M215.881 236.77H209.641V242.95H215.881V236.77Z" fill="#321E1E"/>
<path d="M215.881 230.53H209.641V236.77H215.881V230.53Z" fill="#321E1E"/>
<path d="M215.881 224.29H209.641V230.53H215.881V224.29Z" fill="#321E1E"/>
<path d="M215.881 218.1H209.641V224.28H215.881V218.1Z" fill="#321E1E"/>
<path d="M215.881 211.86H209.641V218.1H215.881V211.86Z" fill="#321E1E"/>
<path d="M215.881 205.68H209.641V211.86H215.881V205.68Z" fill="#321E1E"/>
<path d="M215.881 199.43H209.641V205.67H215.881V199.43Z" fill="#321E1E"/>
<path d="M215.881 193.25H209.641V199.43H215.881V193.25Z" fill="#321E1E"/>
<path d="M215.881 187.01H209.641V193.25H215.881V187.01Z" fill="#321E1E"/>
<path d="M215.881 180.83H209.641V187.01H215.881V180.83Z" fill="#321E1E"/>
<path d="M215.881 174.58H209.641V180.82H215.881V174.58Z" fill="#321E1E"/>
<path d="M215.881 168.34H209.641V174.58H215.881V168.34Z" fill="#321E1E"/>
<path d="M215.881 162.16H209.641V168.34H215.881V162.16Z" fill="#321E1E"/>
<path d="M215.881 155.91H209.641V162.15H215.881V155.91Z" fill="#321E1E"/>
<path d="M215.881 149.73H209.641V155.91H215.881V149.73Z" fill="#321E1E"/>
<path d="M215.881 143.48H209.641V149.72H215.881V143.48Z" fill="#2D1212"/>
<path d="M215.881 137.3H209.641V143.48H215.881V137.3Z" fill="#321E1E"/>
<path d="M215.881 131.06H209.641V137.3H215.881V131.06Z" fill="#0C0C0C"/>
<path d="M215.881 124.81H209.641V131.05H215.881V124.81Z" fill="#0C0C0C"/>
<path d="M215.881 118.63H209.641V124.81H215.881V118.63Z" fill="#0C0C0C"/>
<path d="M215.881 112.39H209.641V118.63H215.881V112.39Z" fill="black"/>
<path d="M215.881 106.21H209.641V112.39H215.881V106.21Z" fill="#0C0C0C"/>
<path d="M215.881 99.9602H209.641V106.2H215.881V99.9602Z" fill="#0C0C0C"/>
<path d="M215.881 93.78H209.641V99.96H215.881V93.78Z" fill="black"/>
<path d="M215.881 87.54H209.641V93.78H215.881V87.54Z" fill="#321E1E"/>
<path d="M215.881 81.3601H209.641V87.5401H215.881V81.3601Z" fill="black"/>
<path d="M209.639 280.3H203.459V286.48H209.639V280.3Z" fill="black"/>
<path d="M209.639 274.05H203.459V280.29H209.639V274.05Z" fill="#2D1212"/>
<path d="M209.639 267.81H203.459V274.05H209.639V267.81Z" fill="#321E1E"/>
<path d="M209.639 261.62H203.459V267.81H209.639V261.62Z" fill="#321E1E"/>
<path d="M209.639 255.39H203.459V261.63H209.639V255.39Z" fill="#321E1E"/>
<path d="M209.639 249.2H203.459V255.38H209.639V249.2Z" fill="#321E1E"/>
<path d="M209.639 242.96H203.459V249.2H209.639V242.96Z" fill="#321E1E"/>
<path d="M209.639 236.77H203.459V242.95H209.639V236.77Z" fill="#321E1E"/>
<path d="M209.639 230.53H203.459V236.77H209.639V230.53Z" fill="#321E1E"/>
<path d="M209.639 224.29H203.459V230.53H209.639V224.29Z" fill="#321E1E"/>
<path d="M209.639 218.1H203.459V224.28H209.639V218.1Z" fill="#321E1E"/>
<path d="M209.639 211.86H203.459V218.1H209.639V211.86Z" fill="#321E1E"/>
<path d="M209.639 205.68H203.459V211.86H209.639V205.68Z" fill="#321E1E"/>
<path d="M209.639 199.43H203.459V205.67H209.639V199.43Z" fill="#321E1E"/>
<path d="M209.639 193.25H203.459V199.43H209.639V193.25Z" fill="#321E1E"/>
<path d="M209.639 187.01H203.459V193.25H209.639V187.01Z" fill="#321E1E"/>
<path d="M209.639 180.83H203.459V187.01H209.639V180.83Z" fill="#321E1E"/>
<path d="M209.639 174.58H203.459V180.82H209.639V174.58Z" fill="#321E1E"/>
<path d="M209.639 168.34H203.459V174.58H209.639V168.34Z" fill="#321E1E"/>
<path d="M209.639 162.16H203.459V168.34H209.639V162.16Z" fill="#321E1E"/>
<path d="M209.639 155.91H203.459V162.15H209.639V155.91Z" fill="#321E1E"/>
<path d="M209.639 149.73H203.459V155.91H209.639V149.73Z" fill="#321E1E"/>
<path d="M209.639 143.48H203.459V149.72H209.639V143.48Z" fill="#2D1212"/>
<path d="M209.639 137.3H203.459V143.48H209.639V137.3Z" fill="black"/>
<path d="M209.639 131.06H203.459V137.3H209.639V131.06Z" fill="#321E1E"/>
<path d="M209.639 124.81H203.459V131.05H209.639V124.81Z" fill="#0C0C0C"/>
<path d="M209.639 118.63H203.459V124.81H209.639V118.63Z" fill="#0C0C0C"/>
<path d="M209.639 112.39H203.459V118.63H209.639V112.39Z" fill="#FF0000"/>
<path d="M209.639 106.21H203.459V112.39H209.639V106.21Z" fill="#0C0C0C"/>
<path d="M209.639 99.9602H203.459V106.2H209.639V99.9602Z" fill="black"/>
<path d="M209.639 93.78H203.459V99.96H209.639V93.78Z" fill="#321E1E"/>
<path d="M209.639 87.54H203.459V93.78H209.639V87.54Z" fill="black"/>
<path d="M203.449 311.34H197.209V317.58H203.449V311.34Z" fill="#CE0505"/>
<path d="M203.449 305.14H197.209V311.33H203.449V305.14Z" fill="#CE0505"/>
<path d="M203.449 298.91H197.209V305.15H203.449V298.91Z" fill="#CE0505"/>
<path d="M203.449 292.72H197.209V298.9H203.449V292.72Z" fill="black"/>
<path d="M203.449 286.48H197.209V292.72H203.449V286.48Z" fill="black"/>
<path d="M203.449 280.3H197.209V286.48H203.449V280.3Z" fill="#2D1212"/>
<path d="M203.449 274.05H197.209V280.29H203.449V274.05Z" fill="#E80C0C"/>
<path d="M203.449 267.81H197.209V274.05H203.449V267.81Z" fill="#E80C0C"/>
<path d="M203.449 261.62H197.209V267.81H203.449V261.62Z" fill="#321E1E"/>
<path d="M203.449 255.39H197.209V261.63H203.449V255.39Z" fill="#321E1E"/>
<path d="M203.449 249.2H197.209V255.38H203.449V249.2Z" fill="#321E1E"/>
<path d="M203.449 242.96H197.209V249.2H203.449V242.96Z" fill="#321E1E"/>
<path d="M203.449 236.77H197.209V242.95H203.449V236.77Z" fill="#321E1E"/>
<path d="M203.449 230.53H197.209V236.77H203.449V230.53Z" fill="#321E1E"/>
<path d="M203.449 224.29H197.209V230.53H203.449V224.29Z" fill="#321E1E"/>
<path d="M203.449 218.1H197.209V224.28H203.449V218.1Z" fill="#321E1E"/>
<path d="M203.449 211.86H197.209V218.1H203.449V211.86Z" fill="#321E1E"/>
<path d="M203.449 205.68H197.209V211.86H203.449V205.68Z" fill="#321E1E"/>
<path d="M203.449 199.43H197.209V205.67H203.449V199.43Z" fill="#321E1E"/>
<path d="M203.449 193.25H197.209V199.43H203.449V193.25Z" fill="#321E1E"/>
<path d="M203.449 187.01H197.209V193.25H203.449V187.01Z" fill="#321E1E"/>
<path d="M203.449 180.83H197.209V187.01H203.449V180.83Z" fill="#321E1E"/>
<path d="M203.449 174.58H197.209V180.82H203.449V174.58Z" fill="#321E1E"/>
<path d="M203.449 168.34H197.209V174.58H203.449V168.34Z" fill="#321E1E"/>
<path d="M203.449 162.16H197.209V168.34H203.449V162.16Z" fill="#2D1212"/>
<path d="M203.449 155.91H197.209V162.15H203.449V155.91Z" fill="#2D1212"/>
<path d="M203.449 149.73H197.209V155.91H203.449V149.73Z" fill="#2D1212"/>
<path d="M203.449 143.48H197.209V149.72H203.449V143.48Z" fill="black"/>
<path d="M203.449 131.06H197.209V137.3H203.449V131.06Z" fill="black"/>
<path d="M203.449 124.81H197.209V131.05H203.449V124.81Z" fill="#321E1E"/>
<path d="M203.449 118.63H197.209V124.81H203.449V118.63Z" fill="#321E1E"/>
<path d="M203.449 112.39H197.209V118.63H203.449V112.39Z" fill="#321E1E"/>
<path d="M203.449 106.21H197.209V112.39H203.449V106.21Z" fill="#321E1E"/>
<path d="M203.449 99.9602H197.209V106.2H203.449V99.9602Z" fill="#321E1E"/>
<path d="M203.449 93.78H197.209V99.96H203.449V93.78Z" fill="black"/>
<path d="M203.449 87.54H197.209V93.78H203.449V87.54Z" fill="black"/>
<path d="M197.211 298.91H190.971V305.15H197.211V298.91Z" fill="#CE0505"/>
<path d="M197.211 292.72H190.971V298.9H197.211V292.72Z" fill="#2D1212"/>
<path d="M197.211 286.48H190.971V292.72H197.211V286.48Z" fill="#2D1212"/>
<path d="M197.211 280.3H190.971V286.48H197.211V280.3Z" fill="#E80C0C"/>
<path d="M197.211 274.05H190.971V280.29H197.211V274.05Z" fill="#E80C0C"/>
<path d="M197.211 267.81H190.971V274.05H197.211V267.81Z" fill="#321E1E"/>
<path d="M197.211 261.62H190.971V267.81H197.211V261.62Z" fill="#321E1E"/>
<path d="M197.211 255.39H190.971V261.63H197.211V255.39Z" fill="#321E1E"/>
<path d="M197.211 249.2H190.971V255.38H197.211V249.2Z" fill="black"/>
<path d="M197.211 242.96H190.971V249.2H197.211V242.96Z" fill="black"/>
<path d="M197.211 236.77H190.971V242.95H197.211V236.77Z" fill="black"/>
<path d="M197.211 230.53H190.971V236.77H197.211V230.53Z" fill="#2D1212"/>
<path d="M197.211 224.29H190.971V230.53H197.211V224.29Z" fill="#2D1212"/>
<path d="M197.211 218.1H190.971V224.28H197.211V218.1Z" fill="#2D1212"/>
<path d="M197.211 211.86H190.971V218.1H197.211V211.86Z" fill="#2D1212"/>
<path d="M197.211 205.68H190.971V211.86H197.211V205.68Z" fill="#2D1212"/>
<path d="M197.211 199.43H190.971V205.67H197.211V199.43Z" fill="#2D1212"/>
<path d="M197.211 193.25H190.971V199.43H197.211V193.25Z" fill="#2D1212"/>
<path d="M197.211 187.01H190.971V193.25H197.211V187.01Z" fill="#2D1212"/>
<path d="M197.211 180.83H190.971V187.01H197.211V180.83Z" fill="#2D1212"/>
<path d="M197.211 174.58H190.971V180.82H197.211V174.58Z" fill="#2D1212"/>
<path d="M197.211 168.34H190.971V174.58H197.211V168.34Z" fill="#2D1212"/>
<path d="M197.211 162.16H190.971V168.34H197.211V162.16Z" fill="#2D1212"/>
<path d="M197.211 155.91H190.971V162.15H197.211V155.91Z" fill="#2D1212"/>
<path d="M197.211 149.73H190.971V155.91H197.211V149.73Z" fill="black"/>
<path d="M197.211 124.81H190.971V131.05H197.211V124.81Z" fill="black"/>
<path d="M197.211 118.63H190.971V124.81H197.211V118.63Z" fill="black"/>
<path d="M197.211 112.39H190.971V118.63H197.211V112.39Z" fill="black"/>
<path d="M197.211 106.21H190.971V112.39H197.211V106.21Z" fill="black"/>
<path d="M197.211 99.9602H190.971V106.2H197.211V99.9602Z" fill="black"/>
<path d="M190.969 305.14H184.789V311.33H190.969V305.14Z" fill="#CE0505"/>
<path d="M190.969 298.91H184.789V305.15H190.969V298.91Z" fill="#C60606"/>
<path d="M190.969 292.72H184.789V298.9H190.969V292.72Z" fill="#C60606"/>
<path d="M190.969 286.48H184.789V292.72H190.969V286.48Z" fill="#E80C0C"/>
<path d="M190.969 280.3H184.789V286.48H190.969V280.3Z" fill="#E80C0C"/>
<path d="M190.969 274.05H184.789V280.29H190.969V274.05Z" fill="#E80C0C"/>
<path d="M190.969 267.81H184.789V274.05H190.969V267.81Z" fill="#E80C0C"/>
<path d="M190.969 261.62H184.789V267.81H190.969V261.62Z" fill="black"/>
<path d="M190.969 255.39H184.789V261.63H190.969V255.39Z" fill="black"/>
<path d="M190.969 249.2H184.789V255.38H190.969V249.2Z" fill="black"/>
<path d="M190.969 236.77H184.789V242.95H190.969V236.77Z" fill="black"/>
<path d="M190.969 230.53H184.789V236.77H190.969V230.53Z" fill="black"/>
<path d="M190.969 224.29H184.789V230.53H190.969V224.29Z" fill="black"/>
<path d="M190.969 218.1H184.789V224.28H190.969V218.1Z" fill="black"/>
<path d="M190.969 211.86H184.789V218.1H190.969V211.86Z" fill="black"/>
<path d="M190.969 205.68H184.789V211.86H190.969V205.68Z" fill="black"/>
<path d="M190.969 199.43H184.789V205.67H190.969V199.43Z" fill="black"/>
<path d="M190.969 193.25H184.789V199.43H190.969V193.25Z" fill="#2D1212"/>
<path d="M190.969 187.01H184.789V193.25H190.969V187.01Z" fill="#2D1212"/>
<path d="M190.969 180.83H184.789V187.01H190.969V180.83Z" fill="#2D1212"/>
<path d="M190.969 174.58H184.789V180.82H190.969V174.58Z" fill="#2D1212"/>
<path d="M190.969 168.34H184.789V174.58H190.969V168.34Z" fill="#2D1212"/>
<path d="M190.969 162.16H184.789V168.34H190.969V162.16Z" fill="#2D1212"/>
<path d="M190.969 155.91H184.789V162.15H190.969V155.91Z" fill="black"/>
<path d="M184.779 311.34H178.539V317.58H184.779V311.34Z" fill="#C60606"/>
<path d="M184.779 305.14H178.539V311.33H184.779V305.14Z" fill="#C60606"/>
<path d="M184.779 298.91H178.539V305.15H184.779V298.91Z" fill="#C60606"/>
<path d="M184.779 292.72H178.539V298.9H184.779V292.72Z" fill="#C60606"/>
<path d="M184.779 286.48H178.539V292.72H184.779V286.48Z" fill="#C60606"/>
<path d="M184.779 280.3H178.539V286.48H184.779V280.3Z" fill="#C60606"/>
<path d="M184.779 193.25H178.539V199.43H184.779V193.25Z" fill="black"/>
<path d="M184.779 187.01H178.539V193.25H184.779V187.01Z" fill="#2D1212"/>
<path d="M184.779 180.83H178.539V187.01H184.779V180.83Z" fill="#2D1212"/>
<path d="M184.779 174.58H178.539V180.82H184.779V174.58Z" fill="#2D1212"/>
<path d="M184.779 168.34H178.539V174.58H184.779V168.34Z" fill="#2D1212"/>
<path d="M184.779 162.16H178.539V168.34H184.779V162.16Z" fill="#2D1212"/>
<path d="M184.779 155.91H178.539V162.15H184.779V155.91Z" fill="black"/>
<path d="M178.539 211.86H172.359V218.1H178.539V211.86Z" fill="black"/>
<path d="M178.539 205.68H172.359V211.86H178.539V205.68Z" fill="black"/>
<path d="M178.539 199.43H172.359V205.67H178.539V199.43Z" fill="black"/>
<path d="M178.539 193.25H172.359V199.43H178.539V193.25Z" fill="#2D1212"/>
<path d="M178.539 187.01H172.359V193.25H178.539V187.01Z" fill="#2D1212"/>
<path d="M178.539 180.83H172.359V187.01H178.539V180.83Z" fill="#2D1212"/>
<path d="M178.539 174.58H172.359V180.82H178.539V174.58Z" fill="#301918"/>
<path d="M178.539 168.34H172.359V174.58H178.539V168.34Z" fill="black"/>
<path d="M178.539 162.16H172.359V168.34H178.539V162.16Z" fill="black"/>
<path d="M172.359 199.43H166.119V205.67H172.359V199.43Z" fill="black"/>
<path d="M172.359 193.25H166.119V199.43H172.359V193.25Z" fill="black"/>
<path d="M172.359 187.01H166.119V193.25H172.359V187.01Z" fill="#2D1212"/>
<path d="M172.359 180.83H166.119V187.01H172.359V180.83Z" fill="#301918"/>
<path d="M172.359 174.58H166.119V180.82H172.359V174.58Z" fill="#301918"/>
<path d="M172.359 168.34H166.119V174.58H172.359V168.34Z" fill="black"/>
<path d="M166.119 193.25H159.939V199.43H166.119V193.25Z" fill="black"/>
<path d="M166.119 187.01H159.939V193.25H166.119V187.01Z" fill="#301918"/>
<path d="M166.119 180.83H159.939V187.01H166.119V180.83Z" fill="#301918"/>
<path d="M166.119 174.58H159.939V180.82H166.119V174.58Z" fill="#301918"/>
<path d="M166.119 168.34H159.939V174.58H166.119V168.34Z" fill="black"/>
<path d="M159.929 211.86H153.689V218.1H159.929V211.86Z" fill="black"/>
<path d="M159.929 205.68H153.689V211.86H159.929V205.68Z" fill="black"/>
<path d="M159.929 199.43H153.689V205.67H159.929V199.43Z" fill="black"/>
<path d="M159.929 193.25H153.689V199.43H159.929V193.25Z" fill="#301918"/>
<path d="M159.929 187.01H153.689V193.25H159.929V187.01Z" fill="#301918"/>
<path d="M159.929 180.83H153.689V187.01H159.929V180.83Z" fill="#301918"/>
<path d="M159.929 174.58H153.689V180.82H159.929V174.58Z" fill="black"/>
<path d="M153.689 193.25H147.449V199.43H153.689V193.25Z" fill="black"/>
<path d="M153.689 187.01H147.449V193.25H153.689V187.01Z" fill="#301918"/>
<path d="M153.689 180.83H147.449V187.01H153.689V180.83Z" fill="#301918"/>
<path d="M153.689 174.58H147.449V180.82H153.689V174.58Z" fill="#301918"/>
<path d="M153.689 168.34H147.449V174.58H153.689V168.34Z" fill="black"/>
<path d="M147.45 187.01H141.27V193.25H147.45V187.01Z" fill="black"/>
<path d="M147.45 180.83H141.27V187.01H147.45V180.83Z" fill="#301918"/>
<path d="M147.45 174.58H141.27V180.82H147.45V174.58Z" fill="#301918"/>
<path d="M147.45 168.34H141.27V174.58H147.45V168.34Z" fill="black"/>
<path d="M147.45 162.16H141.27V168.34H147.45V162.16Z" fill="black"/>
<path d="M147.45 112.39H141.27V118.63H147.45V112.39Z" fill="#939393"/>
<path d="M147.45 106.21H141.27V112.39H147.45V106.21Z" fill="#939393"/>
<path d="M147.45 99.9602H141.27V106.2H147.45V99.9602Z" fill="#939393"/>
<path d="M141.26 187.01H135.02V193.25H141.26V187.01Z" fill="black"/>
<path d="M141.26 180.83H135.02V187.01H141.26V180.83Z" fill="black"/>
<path d="M141.26 174.58H135.02V180.82H141.26V174.58Z" fill="black"/>
<path d="M141.26 168.34H135.02V174.58H141.26V168.34Z" fill="black"/>
<path d="M141.26 118.63H135.02V124.81H141.26V118.63Z" fill="#939393"/>
<path d="M141.26 112.39H135.02V118.63H141.26V112.39Z" fill="#A7A7A8"/>
<path d="M141.26 106.21H135.02V112.39H141.26V106.21Z" fill="#FF0000"/>
<path d="M141.26 99.9602H135.02V106.2H141.26V99.9602Z" fill="black"/>
<path d="M141.26 93.78H135.02V99.96H141.26V93.78Z" fill="#939393"/>
<path d="M135.02 280.3H128.84V286.48H135.02V280.3Z" fill="#E50000"/>
<path d="M135.02 274.05H128.84V280.29H135.02V274.05Z" fill="#E50000"/>
<path d="M135.02 267.81H128.84V274.05H135.02V267.81Z" fill="#E50000"/>
<path d="M135.02 261.62H128.84V267.81H135.02V261.62Z" fill="#E50000"/>
<path d="M135.02 255.39H128.84V261.63H135.02V255.39Z" fill="#E50000"/>
<path d="M135.02 249.2H128.84V255.38H135.02V249.2Z" fill="#7A370A"/>
<path d="M135.02 242.96H128.84V249.2H135.02V242.96Z" fill="#7A370A"/>
<path d="M135.02 236.77H128.84V242.95H135.02V236.77Z" fill="#7A370A"/>
<path d="M135.02 230.53H128.84V236.77H135.02V230.53Z" fill="#7A370A"/>
<path d="M135.02 224.29H128.84V230.53H135.02V224.29Z" fill="#E50000"/>
<path d="M135.02 218.1H128.84V224.28H135.02V218.1Z" fill="#E50000"/>
<path d="M135.02 211.86H128.84V218.1H135.02V211.86Z" fill="#7A370A"/>
<path d="M135.02 205.68H128.84V211.86H135.02V205.68Z" fill="#7A370A"/>
<path d="M135.02 199.43H128.84V205.67H135.02V199.43Z" fill="#7A370A"/>
<path d="M135.02 193.25H128.84V199.43H135.02V193.25Z" fill="#7A370A"/>
<path d="M135.02 187.01H128.84V193.25H135.02V187.01Z" fill="#293D4C"/>
<path d="M135.02 180.83H128.84V187.01H135.02V180.83Z" fill="#293D4C"/>
<path d="M135.02 174.58H128.84V180.82H135.02V174.58Z" fill="#7A370A"/>
<path d="M135.02 168.34H128.84V174.58H135.02V168.34Z" fill="#293D4C"/>
<path d="M135.02 162.16H128.84V168.34H135.02V162.16Z" fill="#E50000"/>
<path d="M135.02 155.91H128.84V162.15H135.02V155.91Z" fill="#7A370A"/>
<path d="M135.02 149.73H128.84V155.91H135.02V149.73Z" fill="#7A370A"/>
<path d="M135.02 143.48H128.84V149.72H135.02V143.48Z" fill="#7A370A"/>
<path d="M135.02 137.3H128.84V143.48H135.02V137.3Z" fill="#7A370A"/>
<path d="M135.02 131.06H128.84V137.3H135.02V131.06Z" fill="#7A370A"/>
<path d="M135.02 124.81H128.84V131.05H135.02V124.81Z" fill="#E50000"/>
<path d="M135.02 118.63H128.84V124.81H135.02V118.63Z" fill="#E50000"/>
<path d="M135.02 112.39H128.84V118.63H135.02V112.39Z" fill="black"/>
<path d="M135.02 106.21H128.84V112.39H135.02V106.21Z" fill="#A7A7A8"/>
<path d="M135.02 99.9602H128.84V106.2H135.02V99.9602Z" fill="#A7A7A8"/>
<path d="M135.02 93.78H128.84V99.96H135.02V93.78Z" fill="#A7A7A8"/>
<path d="M135.02 87.54H128.84V93.78H135.02V87.54Z" fill="#FF0000"/>
<path d="M128.84 298.91H122.6V305.15H128.84V298.91Z" fill="#E50000"/>
<path d="M128.84 286.48H122.6V292.72H128.84V286.48Z" fill="#E50000"/>
<path d="M128.84 280.3H122.6V286.48H128.84V280.3Z" fill="#E50000"/>
<path d="M128.84 274.05H122.6V280.29H128.84V274.05Z" fill="#E50000"/>
<path d="M128.84 267.81H122.6V274.05H128.84V267.81Z" fill="#E50000"/>
<path d="M128.84 261.62H122.6V267.81H128.84V261.62Z" fill="#7A370A"/>
<path d="M128.84 255.39H122.6V261.63H128.84V255.39Z" fill="#7A370A"/>
<path d="M128.84 249.2H122.6V255.38H128.84V249.2Z" fill="#7A370A"/>
<path d="M128.84 242.96H122.6V249.2H128.84V242.96Z" fill="#7A370A"/>
<path d="M128.84 236.77H122.6V242.95H128.84V236.77Z" fill="#7A370A"/>
<path d="M128.84 230.53H122.6V236.77H128.84V230.53Z" fill="#E50000"/>
<path d="M128.84 224.29H122.6V230.53H128.84V224.29Z" fill="#E50000"/>
<path d="M128.84 218.1H122.6V224.28H128.84V218.1Z" fill="#7A370A"/>
<path d="M128.84 211.86H122.6V218.1H128.84V211.86Z" fill="#7A370A"/>
<path d="M128.84 205.68H122.6V211.86H128.84V205.68Z" fill="#7A370A"/>
<path d="M128.84 199.43H122.6V205.67H128.84V199.43Z" fill="#7A370A"/>
<path d="M128.84 193.25H122.6V199.43H128.84V193.25Z" fill="black"/>
<path d="M128.84 187.01H122.6V193.25H128.84V187.01Z" fill="#293D4C"/>
<path d="M128.84 180.83H122.6V187.01H128.84V180.83Z" fill="#293D4C"/>
<path d="M128.84 174.58H122.6V180.82H128.84V174.58Z" fill="#293D4C"/>
<path d="M128.84 168.34H122.6V174.58H128.84V168.34Z" fill="#293D4C"/>
<path d="M128.84 162.16H122.6V168.34H128.84V162.16Z" fill="black"/>
<path d="M128.84 155.91H122.6V162.15H128.84V155.91Z" fill="#E50000"/>
<path d="M128.84 149.73H122.6V155.91H128.84V149.73Z" fill="#7A370A"/>
<path d="M128.84 143.48H122.6V149.72H128.84V143.48Z" fill="#7A370A"/>
<path d="M128.84 137.3H122.6V143.48H128.84V137.3Z" fill="#7A370A"/>
<path d="M128.84 131.06H122.6V137.3H128.84V131.06Z" fill="#7A370A"/>
<path d="M128.84 124.81H122.6V131.05H128.84V124.81Z" fill="#939393"/>
<path d="M128.84 118.63H122.6V124.81H128.84V118.63Z" fill="#A7A7A8"/>
<path d="M128.84 112.39H122.6V118.63H128.84V112.39Z" fill="black"/>
<path d="M128.84 106.21H122.6V112.39H128.84V106.21Z" fill="#A7A7A8"/>
<path d="M128.84 99.9602H122.6V106.2H128.84V99.9602Z" fill="#A7A7A8"/>
<path d="M128.84 93.78H122.6V99.96H128.84V93.78Z" fill="#A7A7A8"/>
<path d="M128.84 87.54H122.6V93.78H128.84V87.54Z" fill="#FF0000"/>
<path d="M122.59 187.01H116.41V193.25H122.59V187.01Z" fill="#455360"/>
<path d="M122.59 180.83H116.41V187.01H122.59V180.83Z" fill="#455360"/>
<path d="M122.59 174.58H116.41V180.82H122.59V174.58Z" fill="#455360"/>
<path d="M122.59 168.34H116.41V174.58H122.59V168.34Z" fill="#455360"/>
<path d="M122.59 118.63H116.41V124.81H122.59V118.63Z" fill="#939393"/>
<path d="M122.59 112.39H116.41V118.63H122.59V112.39Z" fill="#A7A7A8"/>
<path d="M122.59 106.21H116.41V112.39H122.59V106.21Z" fill="#A7A7A8"/>
<path d="M122.59 99.9602H116.41V106.2H122.59V99.9602Z" fill="black"/>
<path d="M122.59 93.78H116.41V99.96H122.59V93.78Z" fill="#939393"/>
<path d="M116.41 112.39H110.17V118.63H116.41V112.39Z" fill="#939393"/>
<path d="M116.41 106.21H110.17V112.39H116.41V106.21Z" fill="#939393"/>
<path d="M116.41 99.9602H110.17V106.2H116.41V99.9602Z" fill="#939393"/>
</svg>
