<svg width="400" height="400" viewBox="0 0 400 400" fill="none" xmlns="http://www.w3.org/2000/svg">
<path d="M200.001 385.78C302.604 385.78 385.781 302.603 385.781 200C385.781 97.3965 302.604 14.22 200.001 14.22C97.3972 14.22 14.2207 97.3965 14.2207 200C14.2207 302.603 97.3972 385.78 200.001 385.78Z" fill="black"/>
<path d="M200.001 392.78C93.7007 392.78 7.2207 306.3 7.2207 200C7.2207 93.7 93.7007 7.21997 200.001 7.21997C306.301 7.21997 392.781 93.7 392.781 200C392.781 306.3 306.301 392.78 200.001 392.78ZM200.001 21.22C101.421 21.22 21.2207 101.42 21.2207 200C21.2207 298.58 101.421 378.78 200.001 378.78C298.581 378.78 378.781 298.58 378.781 200C378.781 101.42 298.581 21.22 200.001 21.22Z" fill="#0D561B"/>
<path d="M308.739 76.24H302.289V82.76H308.739V76.24Z" fill="black"/>
<path d="M308.739 69.79H302.289V76.24H308.739V69.79Z" fill="black"/>
<path d="M302.28 82.76H295.77V89.21H302.28V82.76Z" fill="black"/>
<path d="M302.28 76.24H295.77V82.76H302.28V76.24Z" fill="#416072"/>
<path d="M302.28 69.79H295.77V76.24H302.28V69.79Z" fill="black"/>
<path d="M295.769 219.01H289.309V225.52H295.769V219.01Z" fill="black"/>
<path d="M295.769 89.22H289.309V95.74H295.769V89.22Z" fill="black"/>
<path d="M295.769 82.76H289.309V89.21H295.769V82.76Z" fill="#2E4851"/>
<path d="M295.769 76.24H289.309V82.76H295.769V76.24Z" fill="#416072"/>
<path d="M295.769 69.79H289.309V76.24H295.769V69.79Z" fill="black"/>
<path d="M289.309 225.52H282.799V232.04H289.309V225.52Z" fill="black"/>
<path d="M289.309 219.01H282.799V225.52H289.309V219.01Z" fill="#E7BD00"/>
<path d="M289.309 212.55H282.799V219H289.309V212.55Z" fill="black"/>
<path d="M289.309 95.74H282.799V102.19H289.309V95.74Z" fill="black"/>
<path d="M289.309 89.22H282.799V95.74H289.309V89.22Z" fill="#416072"/>
<path d="M289.309 82.76H282.799V89.21H289.309V82.76Z" fill="#2E4851"/>
<path d="M289.309 76.24H282.799V82.76H289.309V76.24Z" fill="#607C89"/>
<path d="M289.309 69.79H282.799V76.24H289.309V69.79Z" fill="black"/>
<path d="M282.79 225.52H276.34V232.04H282.79V225.52Z" fill="black"/>
<path d="M282.79 219.01H276.34V225.52H282.79V219.01Z" fill="#E7BD00"/>
<path d="M282.79 212.55H276.34V219H282.79V212.55Z" fill="black"/>
<path d="M282.79 102.19H276.34V108.71H282.79V102.19Z" fill="black"/>
<path d="M282.79 95.74H276.34V102.19H282.79V95.74Z" fill="#416072"/>
<path d="M282.79 89.22H276.34V95.74H282.79V89.22Z" fill="#416072"/>
<path d="M282.79 82.76H276.34V89.21H282.79V82.76Z" fill="#2E4851"/>
<path d="M282.79 76.24H276.34V82.76H282.79V76.24Z" fill="#607C89"/>
<path d="M282.79 69.79H276.34V76.24H282.79V69.79Z" fill="black"/>
<path d="M276.34 225.52H269.82V232.04H276.34V225.52Z" fill="black"/>
<path d="M276.34 219.01H269.82V225.52H276.34V219.01Z" fill="black"/>
<path d="M276.34 193.06H269.82V199.58H276.34V193.06Z" fill="black"/>
<path d="M276.34 186.61H269.82V193.06H276.34V186.61Z" fill="black"/>
<path d="M276.34 180.09H269.82V186.61H276.34V180.09Z" fill="black"/>
<path d="M276.34 173.64H269.82V180.09H276.34V173.64Z" fill="black"/>
<path d="M276.34 102.19H269.82V108.71H276.34V102.19Z" fill="black"/>
<path d="M276.34 95.74H269.82V102.19H276.34V95.74Z" fill="#416072"/>
<path d="M276.34 89.22H269.82V95.74H276.34V89.22Z" fill="#2E4851"/>
<path d="M276.34 82.76H269.82V89.21H276.34V82.76Z" fill="#416072"/>
<path d="M276.34 76.24H269.82V82.76H276.34V76.24Z" fill="#607C89"/>
<path d="M276.34 69.79H269.82V76.24H276.34V69.79Z" fill="black"/>
<path d="M269.819 232.04H263.369V238.49H269.819V232.04Z" fill="black"/>
<path d="M269.819 225.52H263.369V232.04H269.819V225.52Z" fill="#0D561B"/>
<path d="M269.819 219.01H263.369V225.52H269.819V219.01Z" fill="#0D561B"/>
<path d="M269.819 212.55H263.369V219H269.819V212.55Z" fill="black"/>
<path d="M269.819 206.03H263.369V212.55H269.819V206.03Z" fill="black"/>
<path d="M269.819 199.58H263.369V206.03H269.819V199.58Z" fill="black"/>
<path d="M269.819 193.06H263.369V199.58H269.819V193.06Z" fill="#0D561B"/>
<path d="M269.819 186.61H263.369V193.06H269.819V186.61Z" fill="#0D561B"/>
<path d="M269.819 180.09H263.369V186.61H269.819V180.09Z" fill="#5DA34B"/>
<path d="M269.819 173.64H263.369V180.09H269.819V173.64Z" fill="#0C4913"/>
<path d="M269.819 167.12H263.369V173.64H269.819V167.12Z" fill="black"/>
<path d="M269.819 102.19H263.369V108.71H269.819V102.19Z" fill="black"/>
<path d="M269.819 95.74H263.369V102.19H269.819V95.74Z" fill="#416072"/>
<path d="M269.819 89.22H263.369V95.74H269.819V89.22Z" fill="#2E4851"/>
<path d="M269.819 82.76H263.369V89.21H269.819V82.76Z" fill="#416072"/>
<path d="M269.819 76.24H263.369V82.76H269.819V76.24Z" fill="#607C89"/>
<path d="M269.819 69.79H263.369V76.24H269.819V69.79Z" fill="black"/>
<path d="M263.37 322.85H256.85V329.37H263.37V322.85Z" fill="black"/>
<path d="M263.37 238.5H256.85V245.02H263.37V238.5Z" fill="black"/>
<path d="M263.37 232.04H256.85V238.49H263.37V232.04Z" fill="#0D561B"/>
<path d="M263.37 225.52H256.85V232.04H263.37V225.52Z" fill="#0D561B"/>
<path d="M263.37 219.01H256.85V225.52H263.37V219.01Z" fill="#0D561B"/>
<path d="M263.37 212.55H256.85V219H263.37V212.55Z" fill="#0D561B"/>
<path d="M263.37 206.03H256.85V212.55H263.37V206.03Z" fill="#0D561B"/>
<path d="M263.37 199.58H256.85V206.03H263.37V199.58Z" fill="#0D561B"/>
<path d="M263.37 193.06H256.85V199.58H263.37V193.06Z" fill="#0D561B"/>
<path d="M263.37 186.61H256.85V193.06H263.37V186.61Z" fill="#0D561B"/>
<path d="M263.37 180.09H256.85V186.61H263.37V180.09Z" fill="#5DA34B"/>
<path d="M263.37 173.64H256.85V180.09H263.37V173.64Z" fill="#0C4913"/>
<path d="M263.37 167.12H256.85V173.64H263.37V167.12Z" fill="#429331"/>
<path d="M263.37 160.6H256.85V167.12H263.37V160.6Z" fill="black"/>
<path d="M263.37 154.14H256.85V160.59H263.37V154.14Z" fill="black"/>
<path d="M263.37 102.19H256.85V108.71H263.37V102.19Z" fill="black"/>
<path d="M263.37 95.74H256.85V102.19H263.37V95.74Z" fill="#416072"/>
<path d="M263.37 89.22H256.85V95.74H263.37V89.22Z" fill="#2E4851"/>
<path d="M263.37 82.76H256.85V89.21H263.37V82.76Z" fill="#607C89"/>
<path d="M263.37 76.24H256.85V82.76H263.37V76.24Z" fill="#607C89"/>
<path d="M263.37 69.79H256.85V76.24H263.37V69.79Z" fill="black"/>
<path d="M256.85 322.85H250.34V329.37H256.85V322.85Z" fill="#429331"/>
<path d="M256.85 316.4H250.34V322.85H256.85V316.4Z" fill="black"/>
<path d="M256.85 238.5H250.34V245.02H256.85V238.5Z" fill="black"/>
<path d="M256.85 232.04H250.34V238.49H256.85V232.04Z" fill="#0D561B"/>
<path d="M256.85 225.52H250.34V232.04H256.85V225.52Z" fill="#0D561B"/>
<path d="M256.85 219.01H250.34V225.52H256.85V219.01Z" fill="#0D561B"/>
<path d="M256.85 212.55H250.34V219H256.85V212.55Z" fill="#0D561B"/>
<path d="M256.85 206.03H250.34V212.55H256.85V206.03Z" fill="#0D561B"/>
<path d="M256.85 199.58H250.34V206.03H256.85V199.58Z" fill="#0D561B"/>
<path d="M256.85 193.06H250.34V199.58H256.85V193.06Z" fill="#0D561B"/>
<path d="M256.85 186.61H250.34V193.06H256.85V186.61Z" fill="#5DA34B"/>
<path d="M256.85 180.09H250.34V186.61H256.85V180.09Z" fill="#0C4913"/>
<path d="M256.85 173.64H250.34V180.09H256.85V173.64Z" fill="#429331"/>
<path d="M256.85 167.12H250.34V173.64H256.85V167.12Z" fill="#429331"/>
<path d="M256.85 160.6H250.34V167.12H256.85V160.6Z" fill="#5DA34B"/>
<path d="M256.85 154.14H250.34V160.59H256.85V154.14Z" fill="#0C4913"/>
<path d="M256.85 147.62H250.34V154.14H256.85V147.62Z" fill="black"/>
<path d="M256.85 141.17H250.34V147.62H256.85V141.17Z" fill="black"/>
<path d="M256.85 108.71H250.34V115.16H256.85V108.71Z" fill="black"/>
<path d="M256.85 102.19H250.34V108.71H256.85V102.19Z" fill="#416072"/>
<path d="M256.85 95.74H250.34V102.19H256.85V95.74Z" fill="#2E4851"/>
<path d="M256.85 89.22H250.34V95.74H256.85V89.22Z" fill="#416072"/>
<path d="M256.85 82.76H250.34V89.21H256.85V82.76Z" fill="#607C89"/>
<path d="M256.85 76.24H250.34V82.76H256.85V76.24Z" fill="black"/>
<path d="M250.329 322.85H243.869V329.37H250.329V322.85Z" fill="#5BAF43"/>
<path d="M250.329 316.4H243.869V322.85H250.329V316.4Z" fill="#429331"/>
<path d="M250.329 309.88H243.869V316.39H250.329V309.88Z" fill="black"/>
<path d="M250.329 303.42H243.869V309.88H250.329V303.42Z" fill="black"/>
<path d="M250.329 296.91H243.869V303.42H250.329V296.91Z" fill="black"/>
<path d="M250.329 238.5H243.869V245.02H250.329V238.5Z" fill="black"/>
<path d="M250.329 232.04H243.869V238.49H250.329V232.04Z" fill="black"/>
<path d="M250.329 225.52H243.869V232.04H250.329V225.52Z" fill="#0D561B"/>
<path d="M250.329 219.01H243.869V225.52H250.329V219.01Z" fill="black"/>
<path d="M250.329 212.55H243.869V219H250.329V212.55Z" fill="black"/>
<path d="M250.329 206.03H243.869V212.55H250.329V206.03Z" fill="black"/>
<path d="M250.329 199.58H243.869V206.03H250.329V199.58Z" fill="black"/>
<path d="M250.329 193.06H243.869V199.58H250.329V193.06Z" fill="black"/>
<path d="M250.329 186.61H243.869V193.06H250.329V186.61Z" fill="#0C4913"/>
<path d="M250.329 180.09H243.869V186.61H250.329V180.09Z" fill="#429331"/>
<path d="M250.329 173.64H243.869V180.09H250.329V173.64Z" fill="#429331"/>
<path d="M250.329 167.12H243.869V173.64H250.329V167.12Z" fill="#5DA34B"/>
<path d="M250.329 160.6H243.869V167.12H250.329V160.6Z" fill="#5DA34B"/>
<path d="M250.329 154.14H243.869V160.59H250.329V154.14Z" fill="#0C4913"/>
<path d="M250.329 147.62H243.869V154.14H250.329V147.62Z" fill="#429331"/>
<path d="M250.329 141.17H243.869V147.62H250.329V141.17Z" fill="#429331"/>
<path d="M250.329 134.65H243.869V141.17H250.329V134.65Z" fill="black"/>
<path d="M250.329 108.71H243.869V115.16H250.329V108.71Z" fill="black"/>
<path d="M250.329 102.19H243.869V108.71H250.329V102.19Z" fill="#416072"/>
<path d="M250.329 95.74H243.869V102.19H250.329V95.74Z" fill="#2E4851"/>
<path d="M250.329 89.22H243.869V95.74H250.329V89.22Z" fill="#416072"/>
<path d="M250.329 82.76H243.869V89.21H250.329V82.76Z" fill="#607C89"/>
<path d="M250.329 76.24H243.869V82.76H250.329V76.24Z" fill="black"/>
<path d="M243.879 322.85H237.369V329.37H243.879V322.85Z" fill="#5BAF43"/>
<path d="M243.879 316.4H237.369V322.85H243.879V316.4Z" fill="#429331"/>
<path d="M243.879 309.88H237.369V316.39H243.879V309.88Z" fill="#0C4913"/>
<path d="M243.879 303.42H237.369V309.88H243.879V303.42Z" fill="#429331"/>
<path d="M243.879 296.91H237.369V303.42H243.879V296.91Z" fill="#429331"/>
<path d="M243.879 290.45H237.369V296.9H243.879V290.45Z" fill="black"/>
<path d="M243.879 283.93H237.369V290.45H243.879V283.93Z" fill="black"/>
<path d="M243.879 277.48H237.369V283.93H243.879V277.48Z" fill="black"/>
<path d="M243.879 270.96H237.369V277.48H243.879V270.96Z" fill="black"/>
<path d="M243.879 264.45H237.369V270.96H243.879V264.45Z" fill="black"/>
<path d="M243.879 245.02H237.369V251.47H243.879V245.02Z" fill="black"/>
<path d="M243.879 238.5H237.369V245.02H243.879V238.5Z" fill="#E7BD00"/>
<path d="M243.879 232.04H237.369V238.49H243.879V232.04Z" fill="#E7BD00"/>
<path d="M243.879 225.52H237.369V232.04H243.879V225.52Z" fill="black"/>
<path d="M243.879 193.06H237.369V199.58H243.879V193.06Z" fill="black"/>
<path d="M243.879 186.61H237.369V193.06H243.879V186.61Z" fill="black"/>
<path d="M243.879 180.09H237.369V186.61H243.879V180.09Z" fill="black"/>
<path d="M243.879 173.64H237.369V180.09H243.879V173.64Z" fill="#5DA34B"/>
<path d="M243.879 167.12H237.369V173.64H243.879V167.12Z" fill="#5DA34B"/>
<path d="M243.879 160.6H237.369V167.12H243.879V160.6Z" fill="#0C4913"/>
<path d="M243.879 154.14H237.369V160.59H243.879V154.14Z" fill="#5DA34B"/>
<path d="M243.879 147.62H237.369V154.14H243.879V147.62Z" fill="#429331"/>
<path d="M243.879 141.17H237.369V147.62H243.879V141.17Z" fill="#429331"/>
<path d="M243.879 134.65H237.369V141.17H243.879V134.65Z" fill="#0C4913"/>
<path d="M243.879 128.2H237.369V134.65H243.879V128.2Z" fill="black"/>
<path d="M243.879 108.71H237.369V115.16H243.879V108.71Z" fill="black"/>
<path d="M243.879 102.19H237.369V108.71H243.879V102.19Z" fill="#416072"/>
<path d="M243.879 95.74H237.369V102.19H243.879V95.74Z" fill="#2E4851"/>
<path d="M243.879 89.22H237.369V95.74H243.879V89.22Z" fill="#416072"/>
<path d="M243.879 82.76H237.369V89.21H243.879V82.76Z" fill="#607C89"/>
<path d="M243.879 76.24H237.369V82.76H243.879V76.24Z" fill="black"/>
<path d="M237.36 322.85H230.91V329.37H237.36V322.85Z" fill="#429331"/>
<path d="M237.36 316.4H230.91V322.85H237.36V316.4Z" fill="#0C4913"/>
<path d="M237.36 309.88H230.91V316.39H237.36V309.88Z" fill="#429331"/>
<path d="M237.36 303.42H230.91V309.88H237.36V303.42Z" fill="#429331"/>
<path d="M237.36 296.91H230.91V303.42H237.36V296.91Z" fill="#429331"/>
<path d="M237.36 290.45H230.91V296.9H237.36V290.45Z" fill="#0C4913"/>
<path d="M237.36 283.93H230.91V290.45H237.36V283.93Z" fill="#0C4913"/>
<path d="M237.36 277.48H230.91V283.93H237.36V277.48Z" fill="#0C4913"/>
<path d="M237.36 270.96H230.91V277.48H237.36V270.96Z" fill="#5BAF43"/>
<path d="M237.36 264.45H230.91V270.96H237.36V264.45Z" fill="#429331"/>
<path d="M237.36 257.98H230.91V264.44H237.36V257.98Z" fill="black"/>
<path d="M237.36 251.47H230.91V257.98H237.36V251.47Z" fill="black"/>
<path d="M237.36 245.02H230.91V251.47H237.36V245.02Z" fill="#416072"/>
<path d="M237.36 238.5H230.91V245.02H237.36V238.5Z" fill="#416072"/>
<path d="M237.36 232.04H230.91V238.49H237.36V232.04Z" fill="#E7BD00"/>
<path d="M237.36 225.52H230.91V232.04H237.36V225.52Z" fill="black"/>
<path d="M237.36 173.64H230.91V180.09H237.36V173.64Z" fill="black"/>
<path d="M237.36 167.12H230.91V173.64H237.36V167.12Z" fill="#0C4913"/>
<path d="M237.36 160.6H230.91V167.12H237.36V160.6Z" fill="#5DA34B"/>
<path d="M237.36 154.14H230.91V160.59H237.36V154.14Z" fill="#429331"/>
<path d="M237.36 147.62H230.91V154.14H237.36V147.62Z" fill="#429331"/>
<path d="M237.36 141.17H230.91V147.62H237.36V141.17Z" fill="#429331"/>
<path d="M237.36 134.65H230.91V141.17H237.36V134.65Z" fill="#429331"/>
<path d="M237.36 128.2H230.91V134.65H237.36V128.2Z" fill="black"/>
<path d="M237.36 115.16H230.91V121.68H237.36V115.16Z" fill="black"/>
<path d="M237.36 108.71H230.91V115.16H237.36V108.71Z" fill="#416072"/>
<path d="M237.36 102.19H230.91V108.71H237.36V102.19Z" fill="#2E4851"/>
<path d="M237.36 95.74H230.91V102.19H237.36V95.74Z" fill="#416072"/>
<path d="M237.36 89.22H230.91V95.74H237.36V89.22Z" fill="#607C89"/>
<path d="M237.36 82.76H230.91V89.21H237.36V82.76Z" fill="black"/>
<path d="M230.909 322.85H224.389V329.37H230.909V322.85Z" fill="black"/>
<path d="M230.909 316.4H224.389V322.85H230.909V316.4Z" fill="black"/>
<path d="M230.909 309.88H224.389V316.39H230.909V309.88Z" fill="#429331"/>
<path d="M230.909 303.42H224.389V309.88H230.909V303.42Z" fill="#429331"/>
<path d="M230.909 296.91H224.389V303.42H230.909V296.91Z" fill="#429331"/>
<path d="M230.909 290.45H224.389V296.9H230.909V290.45Z" fill="#5BAF43"/>
<path d="M230.909 283.93H224.389V290.45H230.909V283.93Z" fill="#0C4913"/>
<path d="M230.909 277.48H224.389V283.93H230.909V277.48Z" fill="#5BAF43"/>
<path d="M230.909 270.96H224.389V277.48H230.909V270.96Z" fill="#5BAF43"/>
<path d="M230.909 264.45H224.389V270.96H230.909V264.45Z" fill="#429331"/>
<path d="M230.909 257.98H224.389V264.44H230.909V257.98Z" fill="#429331"/>
<path d="M230.909 251.47H224.389V257.98H230.909V251.47Z" fill="black"/>
<path d="M230.909 245.02H224.389V251.47H230.909V245.02Z" fill="#416072"/>
<path d="M230.909 238.5H224.389V245.02H230.909V238.5Z" fill="#416072"/>
<path d="M230.909 232.04H224.389V238.49H230.909V232.04Z" fill="black"/>
<path d="M230.909 225.52H224.389V232.04H230.909V225.52Z" fill="#0C4913"/>
<path d="M230.909 219.01H224.389V225.52H230.909V219.01Z" fill="black"/>
<path d="M230.909 212.55H224.389V219H230.909V212.55Z" fill="black"/>
<path d="M230.909 206.03H224.389V212.55H230.909V206.03Z" fill="black"/>
<path d="M230.909 199.58H224.389V206.03H230.909V199.58Z" fill="black"/>
<path d="M230.909 167.12H224.389V173.64H230.909V167.12Z" fill="black"/>
<path d="M230.909 160.6H224.389V167.12H230.909V160.6Z" fill="#0C4913"/>
<path d="M230.909 154.14H224.389V160.59H230.909V154.14Z" fill="#0C4913"/>
<path d="M230.909 147.62H224.389V154.14H230.909V147.62Z" fill="#0C4913"/>
<path d="M230.909 141.17H224.389V147.62H230.909V141.17Z" fill="#429331"/>
<path d="M230.909 134.65H224.389V141.17H230.909V134.65Z" fill="#429331"/>
<path d="M230.909 128.2H224.389V134.65H230.909V128.2Z" fill="black"/>
<path d="M230.909 115.16H224.389V121.68H230.909V115.16Z" fill="black"/>
<path d="M230.909 108.71H224.389V115.16H230.909V108.71Z" fill="#416072"/>
<path d="M230.909 102.19H224.389V108.71H230.909V102.19Z" fill="#2E4851"/>
<path d="M230.909 95.74H224.389V102.19H230.909V95.74Z" fill="#416072"/>
<path d="M230.909 89.22H224.389V95.74H230.909V89.22Z" fill="#607C89"/>
<path d="M230.909 82.76H224.389V89.21H230.909V82.76Z" fill="black"/>
<path d="M224.38 309.88H217.93V316.39H224.38V309.88Z" fill="black"/>
<path d="M224.38 303.42H217.93V309.88H224.38V303.42Z" fill="black"/>
<path d="M224.38 296.91H217.93V303.42H224.38V296.91Z" fill="black"/>
<path d="M224.38 290.45H217.93V296.9H224.38V290.45Z" fill="#5BAF43"/>
<path d="M224.38 283.93H217.93V290.45H224.38V283.93Z" fill="#5BAF43"/>
<path d="M224.38 277.48H217.93V283.93H224.38V277.48Z" fill="#5BAF43"/>
<path d="M224.38 270.96H217.93V277.48H224.38V270.96Z" fill="#429331"/>
<path d="M224.38 264.45H217.93V270.96H224.38V264.45Z" fill="#429331"/>
<path d="M224.38 257.98H217.93V264.44H224.38V257.98Z" fill="black"/>
<path d="M224.38 251.47H217.93V257.98H224.38V251.47Z" fill="#416072"/>
<path d="M224.38 245.02H217.93V251.47H224.38V245.02Z" fill="#416072"/>
<path d="M224.38 238.5H217.93V245.02H224.38V238.5Z" fill="#2E4851"/>
<path d="M224.38 232.04H217.93V238.49H224.38V232.04Z" fill="black"/>
<path d="M224.38 225.52H217.93V232.04H224.38V225.52Z" fill="#0C4913"/>
<path d="M224.38 219.01H217.93V225.52H224.38V219.01Z" fill="#0D561B"/>
<path d="M224.38 212.55H217.93V219H224.38V212.55Z" fill="#14661E"/>
<path d="M224.38 206.03H217.93V212.55H224.38V206.03Z" fill="#1F7227"/>
<path d="M224.38 199.58H217.93V206.03H224.38V199.58Z" fill="black"/>
<path d="M224.38 193.06H217.93V199.58H224.38V193.06Z" fill="black"/>
<path d="M224.38 180.09H217.93V186.61H224.38V180.09Z" fill="black"/>
<path d="M224.38 173.64H217.93V180.09H224.38V173.64Z" fill="black"/>
<path d="M224.38 167.12H217.93V173.64H224.38V167.12Z" fill="#0C4913"/>
<path d="M224.38 160.6H217.93V167.12H224.38V160.6Z" fill="#0C4913"/>
<path d="M224.38 154.14H217.93V160.59H224.38V154.14Z" fill="#0C4913"/>
<path d="M224.38 147.62H217.93V154.14H224.38V147.62Z" fill="#429331"/>
<path d="M224.38 141.17H217.93V147.62H224.38V141.17Z" fill="#429331"/>
<path d="M224.38 134.65H217.93V141.17H224.38V134.65Z" fill="#0C4913"/>
<path d="M224.38 128.2H217.93V134.65H224.38V128.2Z" fill="#429331"/>
<path d="M224.38 121.68H217.93V128.2H224.38V121.68Z" fill="black"/>
<path d="M224.38 115.16H217.93V121.68H224.38V115.16Z" fill="black"/>
<path d="M224.38 108.71H217.93V115.16H224.38V108.71Z" fill="#416072"/>
<path d="M224.38 102.19H217.93V108.71H224.38V102.19Z" fill="#2E4851"/>
<path d="M224.38 95.74H217.93V102.19H224.38V95.74Z" fill="#416072"/>
<path d="M224.38 89.22H217.93V95.74H224.38V89.22Z" fill="#607C89"/>
<path d="M224.38 82.76H217.93V89.21H224.38V82.76Z" fill="black"/>
<path d="M217.94 290.45H211.42V296.9H217.94V290.45Z" fill="black"/>
<path d="M217.94 283.93H211.42V290.45H217.94V283.93Z" fill="black"/>
<path d="M217.94 277.48H211.42V283.93H217.94V277.48Z" fill="black"/>
<path d="M217.94 270.96H211.42V277.48H217.94V270.96Z" fill="#429331"/>
<path d="M217.94 264.45H211.42V270.96H217.94V264.45Z" fill="#429331"/>
<path d="M217.94 257.98H211.42V264.44H217.94V257.98Z" fill="black"/>
<path d="M217.94 251.47H211.42V257.98H217.94V251.47Z" fill="#416072"/>
<path d="M217.94 245.02H211.42V251.47H217.94V245.02Z" fill="#2E4851"/>
<path d="M217.94 238.5H211.42V245.02H217.94V238.5Z" fill="black"/>
<path d="M217.94 232.04H211.42V238.49H217.94V232.04Z" fill="#0C4913"/>
<path d="M217.94 225.52H211.42V232.04H217.94V225.52Z" fill="#0D561B"/>
<path d="M217.94 219.01H211.42V225.52H217.94V219.01Z" fill="#0D561B"/>
<path d="M217.94 212.55H211.42V219H217.94V212.55Z" fill="#14661E"/>
<path d="M217.94 206.03H211.42V212.55H217.94V206.03Z" fill="#14661E"/>
<path d="M217.94 199.58H211.42V206.03H217.94V199.58Z" fill="black"/>
<path d="M217.94 193.06H211.42V199.58H217.94V193.06Z" fill="#0C4913"/>
<path d="M217.94 186.61H211.42V193.06H217.94V186.61Z" fill="black"/>
<path d="M217.94 180.09H211.42V186.61H217.94V180.09Z" fill="#0C4913"/>
<path d="M217.94 173.64H211.42V180.09H217.94V173.64Z" fill="#0C4913"/>
<path d="M217.94 167.12H211.42V173.64H217.94V167.12Z" fill="#0C4913"/>
<path d="M217.94 160.6H211.42V167.12H217.94V160.6Z" fill="#0C4913"/>
<path d="M217.94 154.14H211.42V160.59H217.94V154.14Z" fill="#429331"/>
<path d="M217.94 147.62H211.42V154.14H217.94V147.62Z" fill="#429331"/>
<path d="M217.94 141.17H211.42V147.62H217.94V141.17Z" fill="#0C4913"/>
<path d="M217.94 134.65H211.42V141.17H217.94V134.65Z" fill="#429331"/>
<path d="M217.94 128.2H211.42V134.65H217.94V128.2Z" fill="#429331"/>
<path d="M217.94 121.68H211.42V128.2H217.94V121.68Z" fill="black"/>
<path d="M217.94 115.16H211.42V121.68H217.94V115.16Z" fill="black"/>
<path d="M217.94 108.71H211.42V115.16H217.94V108.71Z" fill="black"/>
<path d="M217.94 102.19H211.42V108.71H217.94V102.19Z" fill="black"/>
<path d="M217.94 95.74H211.42V102.19H217.94V95.74Z" fill="black"/>
<path d="M217.94 89.22H211.42V95.74H217.94V89.22Z" fill="black"/>
<path d="M211.408 270.96H204.898V277.48H211.408V270.96Z" fill="black"/>
<path d="M211.408 264.45H204.898V270.96H211.408V264.45Z" fill="black"/>
<path d="M211.408 257.98H204.898V264.44H211.408V257.98Z" fill="black"/>
<path d="M211.408 251.47H204.898V257.98H211.408V251.47Z" fill="#416072"/>
<path d="M211.408 245.02H204.898V251.47H211.408V245.02Z" fill="#2E4851"/>
<path d="M211.408 238.5H204.898V245.02H211.408V238.5Z" fill="black"/>
<path d="M211.408 232.04H204.898V238.49H211.408V232.04Z" fill="#0C4913"/>
<path d="M211.408 225.52H204.898V232.04H211.408V225.52Z" fill="#0D561B"/>
<path d="M211.408 219.01H204.898V225.52H211.408V219.01Z" fill="#0D561B"/>
<path d="M211.408 212.55H204.898V219H211.408V212.55Z" fill="#0D561B"/>
<path d="M211.408 206.03H204.898V212.55H211.408V206.03Z" fill="#14661E"/>
<path d="M211.408 199.58H204.898V206.03H211.408V199.58Z" fill="black"/>
<path d="M211.408 193.06H204.898V199.58H211.408V193.06Z" fill="#0C4913"/>
<path d="M211.408 186.61H204.898V193.06H211.408V186.61Z" fill="#0C4913"/>
<path d="M211.408 180.09H204.898V186.61H211.408V180.09Z" fill="#0C4913"/>
<path d="M211.408 173.64H204.898V180.09H211.408V173.64Z" fill="#0C4913"/>
<path d="M211.408 167.12H204.898V173.64H211.408V167.12Z" fill="#429331"/>
<path d="M211.408 160.6H204.898V167.12H211.408V160.6Z" fill="#429331"/>
<path d="M211.408 154.14H204.898V160.59H211.408V154.14Z" fill="#0C4913"/>
<path d="M211.408 147.62H204.898V154.14H211.408V147.62Z" fill="#0C4913"/>
<path d="M211.408 141.17H204.898V147.62H211.408V141.17Z" fill="#0C4913"/>
<path d="M211.408 134.65H204.898V141.17H211.408V134.65Z" fill="#429331"/>
<path d="M211.408 128.2H204.898V134.65H211.408V128.2Z" fill="#0C4913"/>
<path d="M211.408 121.68H204.898V128.2H211.408V121.68Z" fill="#0C4913"/>
<path d="M211.408 115.16H204.898V121.68H211.408V115.16Z" fill="#0C4913"/>
<path d="M211.408 108.71H204.898V115.16H211.408V108.71Z" fill="black"/>
<path d="M211.408 102.19H204.898V108.71H211.408V102.19Z" fill="#0C4913"/>
<path d="M211.408 95.74H204.898V102.19H211.408V95.74Z" fill="black"/>
<path d="M211.408 89.22H204.898V95.74H211.408V89.22Z" fill="#429331"/>
<path d="M211.408 82.76H204.898V89.21H211.408V82.76Z" fill="black"/>
<path d="M204.889 264.45H198.439V270.96H204.889V264.45Z" fill="black"/>
<path d="M204.889 257.98H198.439V264.44H204.889V257.98Z" fill="#416072"/>
<path d="M204.889 251.47H198.439V257.98H204.889V251.47Z" fill="#2E4851"/>
<path d="M204.889 245.02H198.439V251.47H204.889V245.02Z" fill="#416072"/>
<path d="M204.889 238.5H198.439V245.02H204.889V238.5Z" fill="black"/>
<path d="M204.889 232.04H198.439V238.49H204.889V232.04Z" fill="#0C4913"/>
<path d="M204.889 225.52H198.439V232.04H204.889V225.52Z" fill="#0D561B"/>
<path d="M204.889 219.01H198.439V225.52H204.889V219.01Z" fill="#0D561B"/>
<path d="M204.889 212.55H198.439V219H204.889V212.55Z" fill="#14661E"/>
<path d="M204.889 206.03H198.439V212.55H204.889V206.03Z" fill="black"/>
<path d="M204.889 199.58H198.439V206.03H204.889V199.58Z" fill="#429331"/>
<path d="M204.889 193.06H198.439V199.58H204.889V193.06Z" fill="#429331"/>
<path d="M204.889 186.61H198.439V193.06H204.889V186.61Z" fill="#0C4913"/>
<path d="M204.889 180.09H198.439V186.61H204.889V180.09Z" fill="#0C4913"/>
<path d="M204.889 173.64H198.439V180.09H204.889V173.64Z" fill="#0C4913"/>
<path d="M204.889 167.12H198.439V173.64H204.889V167.12Z" fill="#5DA34B"/>
<path d="M204.889 160.6H198.439V167.12H204.889V160.6Z" fill="#429331"/>
<path d="M204.889 154.14H198.439V160.59H204.889V154.14Z" fill="#0C4913"/>
<path d="M204.889 147.62H198.439V154.14H204.889V147.62Z" fill="#0C4913"/>
<path d="M204.889 141.17H198.439V147.62H204.889V141.17Z" fill="#0C4913"/>
<path d="M204.889 134.65H198.439V141.17H204.889V134.65Z" fill="#0C4913"/>
<path d="M204.889 128.2H198.439V134.65H204.889V128.2Z" fill="#0C4913"/>
<path d="M204.889 121.68H198.439V128.2H204.889V121.68Z" fill="#429331"/>
<path d="M204.889 115.16H198.439V121.68H204.889V115.16Z" fill="#429331"/>
<path d="M204.889 108.71H198.439V115.16H204.889V108.71Z" fill="#429331"/>
<path d="M204.889 102.19H198.439V108.71H204.889V102.19Z" fill="#429331"/>
<path d="M204.889 95.74H198.439V102.19H204.889V95.74Z" fill="#429331"/>
<path d="M204.889 89.22H198.439V95.74H204.889V89.22Z" fill="#429331"/>
<path d="M204.889 82.76H198.439V89.21H204.889V82.76Z" fill="black"/>
<path d="M198.44 264.45H191.92V270.96H198.44V264.45Z" fill="black"/>
<path d="M198.44 257.98H191.92V264.44H198.44V257.98Z" fill="#416072"/>
<path d="M198.44 251.47H191.92V257.98H198.44V251.47Z" fill="#2E4851"/>
<path d="M198.44 245.02H191.92V251.47H198.44V245.02Z" fill="black"/>
<path d="M198.44 238.5H191.92V245.02H198.44V238.5Z" fill="#0C4913"/>
<path d="M198.44 232.04H191.92V238.49H198.44V232.04Z" fill="#0D561B"/>
<path d="M198.44 225.52H191.92V232.04H198.44V225.52Z" fill="#0D561B"/>
<path d="M198.44 219.01H191.92V225.52H198.44V219.01Z" fill="#0D561B"/>
<path d="M198.44 212.55H191.92V219H198.44V212.55Z" fill="#14661E"/>
<path d="M198.44 206.03H191.92V212.55H198.44V206.03Z" fill="black"/>
<path d="M198.44 199.58H191.92V206.03H198.44V199.58Z" fill="#429331"/>
<path d="M198.44 193.06H191.92V199.58H198.44V193.06Z" fill="#429331"/>
<path d="M198.44 186.61H191.92V193.06H198.44V186.61Z" fill="#429331"/>
<path d="M198.44 180.09H191.92V186.61H198.44V180.09Z" fill="#0C4913"/>
<path d="M198.44 173.64H191.92V180.09H198.44V173.64Z" fill="#0C4913"/>
<path d="M198.44 167.12H191.92V173.64H198.44V167.12Z" fill="#5DA34B"/>
<path d="M198.44 160.6H191.92V167.12H198.44V160.6Z" fill="#429331"/>
<path d="M198.44 154.14H191.92V160.59H198.44V154.14Z" fill="#0C4913"/>
<path d="M198.44 147.62H191.92V154.14H198.44V147.62Z" fill="#073A0F"/>
<path d="M198.44 141.17H191.92V147.62H198.44V141.17Z" fill="#073A0F"/>
<path d="M198.44 134.65H191.92V141.17H198.44V134.65Z" fill="#429331"/>
<path d="M198.44 128.2H191.92V134.65H198.44V128.2Z" fill="#429331"/>
<path d="M198.44 121.68H191.92V128.2H198.44V121.68Z" fill="#0C4913"/>
<path d="M198.44 115.16H191.92V121.68H198.44V115.16Z" fill="#429331"/>
<path d="M198.44 108.71H191.92V115.16H198.44V108.71Z" fill="black"/>
<path d="M198.44 102.19H191.92V108.71H198.44V102.19Z" fill="#429331"/>
<path d="M198.44 95.74H191.92V102.19H198.44V95.74Z" fill="black"/>
<path d="M198.44 89.22H191.92V95.74H198.44V89.22Z" fill="#5BAF43"/>
<path d="M198.44 82.76H191.92V89.21H198.44V82.76Z" fill="black"/>
<path d="M191.919 303.42H185.469V309.88H191.919V303.42Z" fill="black"/>
<path d="M191.919 296.91H185.469V303.42H191.919V296.91Z" fill="black"/>
<path d="M191.919 290.45H185.469V296.9H191.919V290.45Z" fill="black"/>
<path d="M191.919 283.93H185.469V290.45H191.919V283.93Z" fill="black"/>
<path d="M191.919 277.48H185.469V283.93H191.919V277.48Z" fill="black"/>
<path d="M191.919 270.96H185.469V277.48H191.919V270.96Z" fill="black"/>
<path d="M191.919 264.45H185.469V270.96H191.919V264.45Z" fill="black"/>
<path d="M191.919 257.98H185.469V264.44H191.919V257.98Z" fill="#416072"/>
<path d="M191.919 251.47H185.469V257.98H191.919V251.47Z" fill="#2E4851"/>
<path d="M191.919 245.02H185.469V251.47H191.919V245.02Z" fill="black"/>
<path d="M191.919 238.5H185.469V245.02H191.919V238.5Z" fill="#0C4913"/>
<path d="M191.919 232.04H185.469V238.49H191.919V232.04Z" fill="#0D561B"/>
<path d="M191.919 225.52H185.469V232.04H191.919V225.52Z" fill="#0D561B"/>
<path d="M191.919 219.01H185.469V225.52H191.919V219.01Z" fill="#0D561B"/>
<path d="M191.919 212.55H185.469V219H191.919V212.55Z" fill="#14661E"/>
<path d="M191.919 206.03H185.469V212.55H191.919V206.03Z" fill="black"/>
<path d="M191.919 199.58H185.469V206.03H191.919V199.58Z" fill="#0C4913"/>
<path d="M191.919 193.06H185.469V199.58H191.919V193.06Z" fill="#429331"/>
<path d="M191.919 186.61H185.469V193.06H191.919V186.61Z" fill="#429331"/>
<path d="M191.919 180.09H185.469V186.61H191.919V180.09Z" fill="#429331"/>
<path d="M191.919 173.64H185.469V180.09H191.919V173.64Z" fill="#0C4913"/>
<path d="M191.919 167.12H185.469V173.64H191.919V167.12Z" fill="#5DA34B"/>
<path d="M191.919 160.6H185.469V167.12H191.919V160.6Z" fill="#5DA34B"/>
<path d="M191.919 154.14H185.469V160.59H191.919V154.14Z" fill="#0C4913"/>
<path d="M191.919 147.62H185.469V154.14H191.919V147.62Z" fill="#073A0F"/>
<path d="M191.919 141.17H185.469V147.62H191.919V141.17Z" fill="#073A0F"/>
<path d="M191.919 134.65H185.469V141.17H191.919V134.65Z" fill="#429331"/>
<path d="M191.919 128.2H185.469V134.65H191.919V128.2Z" fill="#429331"/>
<path d="M191.919 121.68H185.469V128.2H191.919V121.68Z" fill="#0C4913"/>
<path d="M191.919 115.16H185.469V121.68H191.919V115.16Z" fill="#429331"/>
<path d="M191.919 108.71H185.469V115.16H191.919V108.71Z" fill="black"/>
<path d="M191.919 102.19H185.469V108.71H191.919V102.19Z" fill="#429331"/>
<path d="M191.919 95.74H185.469V102.19H191.919V95.74Z" fill="black"/>
<path d="M191.919 89.22H185.469V95.74H191.919V89.22Z" fill="#5BAF43"/>
<path d="M191.919 82.76H185.469V89.21H191.919V82.76Z" fill="black"/>
<path d="M185.469 322.85H178.949V329.37H185.469V322.85Z" fill="black"/>
<path d="M185.469 316.4H178.949V322.85H185.469V316.4Z" fill="black"/>
<path d="M185.469 309.88H178.949V316.39H185.469V309.88Z" fill="black"/>
<path d="M185.469 303.42H178.949V309.88H185.469V303.42Z" fill="#429331"/>
<path d="M185.469 296.91H178.949V303.42H185.469V296.91Z" fill="#429331"/>
<path d="M185.469 290.45H178.949V296.9H185.469V290.45Z" fill="#429331"/>
<path d="M185.469 283.93H178.949V290.45H185.469V283.93Z" fill="#429331"/>
<path d="M185.469 277.48H178.949V283.93H185.469V277.48Z" fill="#0C4913"/>
<path d="M185.469 270.96H178.949V277.48H185.469V270.96Z" fill="black"/>
<path d="M185.469 264.45H178.949V270.96H185.469V264.45Z" fill="#416072"/>
<path d="M185.469 257.98H178.949V264.44H185.469V257.98Z" fill="#2E4851"/>
<path d="M185.469 251.47H178.949V257.98H185.469V251.47Z" fill="#416072"/>
<path d="M185.469 245.02H178.949V251.47H185.469V245.02Z" fill="black"/>
<path d="M185.469 238.5H178.949V245.02H185.469V238.5Z" fill="#0C4913"/>
<path d="M185.469 232.04H178.949V238.49H185.469V232.04Z" fill="#0D561B"/>
<path d="M185.469 225.52H178.949V232.04H185.469V225.52Z" fill="#0D561B"/>
<path d="M185.469 219.01H178.949V225.52H185.469V219.01Z" fill="#0D561B"/>
<path d="M185.469 212.55H178.949V219H185.469V212.55Z" fill="#0D561B"/>
<path d="M185.469 206.03H178.949V212.55H185.469V206.03Z" fill="#14661E"/>
<path d="M185.469 199.58H178.949V206.03H185.469V199.58Z" fill="black"/>
<path d="M185.469 193.06H178.949V199.58H185.469V193.06Z" fill="#429331"/>
<path d="M185.469 186.61H178.949V193.06H185.469V186.61Z" fill="#429331"/>
<path d="M185.469 180.09H178.949V186.61H185.469V180.09Z" fill="#0C4913"/>
<path d="M185.469 173.64H178.949V180.09H185.469V173.64Z" fill="#0C4913"/>
<path d="M185.469 167.12H178.949V173.64H185.469V167.12Z" fill="#429331"/>
<path d="M185.469 160.6H178.949V167.12H185.469V160.6Z" fill="#0C4913"/>
<path d="M185.469 154.14H178.949V160.59H185.469V154.14Z" fill="#0C4913"/>
<path d="M185.469 147.62H178.949V154.14H185.469V147.62Z" fill="#5DA34B"/>
<path d="M185.469 141.17H178.949V147.62H185.469V141.17Z" fill="#073A0F"/>
<path d="M185.469 134.65H178.949V141.17H185.469V134.65Z" fill="#429331"/>
<path d="M185.469 128.2H178.949V134.65H185.469V128.2Z" fill="#429331"/>
<path d="M185.469 121.68H178.949V128.2H185.469V121.68Z" fill="#0C4913"/>
<path d="M185.469 115.16H178.949V121.68H185.469V115.16Z" fill="#0C4913"/>
<path d="M185.469 108.71H178.949V115.16H185.469V108.71Z" fill="#0C4913"/>
<path d="M185.469 102.19H178.949V108.71H185.469V102.19Z" fill="#0C4913"/>
<path d="M185.469 95.74H178.949V102.19H185.469V95.74Z" fill="#0C4913"/>
<path d="M185.469 89.22H178.949V95.74H185.469V89.22Z" fill="#5BAF43"/>
<path d="M185.469 82.76H178.949V89.21H185.469V82.76Z" fill="black"/>
<path d="M178.95 322.85H172.5V329.37H178.95V322.85Z" fill="#429331"/>
<path d="M178.95 316.4H172.5V322.85H178.95V316.4Z" fill="#0C4913"/>
<path d="M178.95 309.88H172.5V316.39H178.95V309.88Z" fill="#429331"/>
<path d="M178.95 303.42H172.5V309.88H178.95V303.42Z" fill="#429331"/>
<path d="M178.95 296.91H172.5V303.42H178.95V296.91Z" fill="#429331"/>
<path d="M178.95 290.45H172.5V296.9H178.95V290.45Z" fill="#429331"/>
<path d="M178.95 283.93H172.5V290.45H178.95V283.93Z" fill="#0C4913"/>
<path d="M178.95 277.48H172.5V283.93H178.95V277.48Z" fill="#0C4913"/>
<path d="M178.95 270.96H172.5V277.48H178.95V270.96Z" fill="black"/>
<path d="M178.95 264.45H172.5V270.96H178.95V264.45Z" fill="#416072"/>
<path d="M178.95 257.98H172.5V264.44H178.95V257.98Z" fill="#2E4851"/>
<path d="M178.95 251.47H172.5V257.98H178.95V251.47Z" fill="#416072"/>
<path d="M178.95 245.02H172.5V251.47H178.95V245.02Z" fill="black"/>
<path d="M178.95 238.5H172.5V245.02H178.95V238.5Z" fill="#0C4913"/>
<path d="M178.95 232.04H172.5V238.49H178.95V232.04Z" fill="#0D561B"/>
<path d="M178.95 225.52H172.5V232.04H178.95V225.52Z" fill="#0D561B"/>
<path d="M178.95 219.01H172.5V225.52H178.95V219.01Z" fill="#0D561B"/>
<path d="M178.95 212.55H172.5V219H178.95V212.55Z" fill="#14661E"/>
<path d="M178.95 206.03H172.5V212.55H178.95V206.03Z" fill="black"/>
<path d="M178.95 199.58H172.5V206.03H178.95V199.58Z" fill="#0C4913"/>
<path d="M178.95 193.06H172.5V199.58H178.95V193.06Z" fill="#0C4913"/>
<path d="M178.95 186.61H172.5V193.06H178.95V186.61Z" fill="#0C4913"/>
<path d="M178.95 180.09H172.5V186.61H178.95V180.09Z" fill="#0C4913"/>
<path d="M178.95 173.64H172.5V180.09H178.95V173.64Z" fill="#0C4913"/>
<path d="M178.95 167.12H172.5V173.64H178.95V167.12Z" fill="#429331"/>
<path d="M178.95 160.6H172.5V167.12H178.95V160.6Z" fill="#0C4913"/>
<path d="M178.95 154.14H172.5V160.59H178.95V154.14Z" fill="#0C4913"/>
<path d="M178.95 147.62H172.5V154.14H178.95V147.62Z" fill="#5DA34B"/>
<path d="M178.95 141.17H172.5V147.62H178.95V141.17Z" fill="#429331"/>
<path d="M178.95 134.65H172.5V141.17H178.95V134.65Z" fill="#0C4913"/>
<path d="M178.95 128.2H172.5V134.65H178.95V128.2Z" fill="#429331"/>
<path d="M178.95 121.68H172.5V128.2H178.95V121.68Z" fill="black"/>
<path d="M178.95 115.16H172.5V121.68H178.95V115.16Z" fill="black"/>
<path d="M178.95 108.71H172.5V115.16H178.95V108.71Z" fill="black"/>
<path d="M178.95 102.19H172.5V108.71H178.95V102.19Z" fill="black"/>
<path d="M178.95 95.74H172.5V102.19H178.95V95.74Z" fill="black"/>
<path d="M178.95 89.22H172.5V95.74H178.95V89.22Z" fill="black"/>
<path d="M172.499 322.85H165.979V329.37H172.499V322.85Z" fill="#429331"/>
<path d="M172.499 316.4H165.979V322.85H172.499V316.4Z" fill="#429331"/>
<path d="M172.499 309.88H165.979V316.39H172.499V309.88Z" fill="#0C4913"/>
<path d="M172.499 303.42H165.979V309.88H172.499V303.42Z" fill="#5BAF43"/>
<path d="M172.499 296.91H165.979V303.42H172.499V296.91Z" fill="#429331"/>
<path d="M172.499 290.45H165.979V296.9H172.499V290.45Z" fill="#429331"/>
<path d="M172.499 283.93H165.979V290.45H172.499V283.93Z" fill="#0C4913"/>
<path d="M172.499 277.48H165.979V283.93H172.499V277.48Z" fill="#5BAF43"/>
<path d="M172.499 270.96H165.979V277.48H172.499V270.96Z" fill="black"/>
<path d="M172.499 264.45H165.979V270.96H172.499V264.45Z" fill="#416072"/>
<path d="M172.499 257.98H165.979V264.44H172.499V257.98Z" fill="#2E4851"/>
<path d="M172.499 251.47H165.979V257.98H172.499V251.47Z" fill="black"/>
<path d="M172.499 245.02H165.979V251.47H172.499V245.02Z" fill="#0C4913"/>
<path d="M172.499 238.5H165.979V245.02H172.499V238.5Z" fill="#0D561B"/>
<path d="M172.499 232.04H165.979V238.49H172.499V232.04Z" fill="#0D561B"/>
<path d="M172.499 225.52H165.979V232.04H172.499V225.52Z" fill="#0D561B"/>
<path d="M172.499 219.01H165.979V225.52H172.499V219.01Z" fill="#14661E"/>
<path d="M172.499 212.55H165.979V219H172.499V212.55Z" fill="black"/>
<path d="M172.499 206.03H165.979V212.55H172.499V206.03Z" fill="black"/>
<path d="M172.499 199.58H165.979V206.03H172.499V199.58Z" fill="black"/>
<path d="M172.499 193.06H165.979V199.58H172.499V193.06Z" fill="black"/>
<path d="M172.499 186.61H165.979V193.06H172.499V186.61Z" fill="#0C4913"/>
<path d="M172.499 180.09H165.979V186.61H172.499V180.09Z" fill="black"/>
<path d="M172.499 173.64H165.979V180.09H172.499V173.64Z" fill="#429331"/>
<path d="M172.499 167.12H165.979V173.64H172.499V167.12Z" fill="#0C4913"/>
<path d="M172.499 160.6H165.979V167.12H172.499V160.6Z" fill="#0C4913"/>
<path d="M172.499 154.14H165.979V160.59H172.499V154.14Z" fill="#0C4913"/>
<path d="M172.499 147.62H165.979V154.14H172.499V147.62Z" fill="#0C4913"/>
<path d="M172.499 141.17H165.979V147.62H172.499V141.17Z" fill="#0C4913"/>
<path d="M172.499 134.65H165.979V141.17H172.499V134.65Z" fill="#0C4913"/>
<path d="M172.499 128.2H165.979V134.65H172.499V128.2Z" fill="black"/>
<path d="M172.499 121.68H165.979V128.2H172.499V121.68Z" fill="#102126"/>
<path d="M172.499 115.16H165.979V121.68H172.499V115.16Z" fill="#102126"/>
<path d="M172.499 108.71H165.979V115.16H172.499V108.71Z" fill="#416072"/>
<path d="M172.499 102.19H165.979V108.71H172.499V102.19Z" fill="black"/>
<path d="M165.979 322.85H159.529V329.37H165.979V322.85Z" fill="#429331"/>
<path d="M165.979 316.4H159.529V322.85H165.979V316.4Z" fill="#0C4913"/>
<path d="M165.979 309.88H159.529V316.39H165.979V309.88Z" fill="#5BAF43"/>
<path d="M165.979 303.42H159.529V309.88H165.979V303.42Z" fill="black"/>
<path d="M165.979 296.91H159.529V303.42H165.979V296.91Z" fill="black"/>
<path d="M165.979 290.45H159.529V296.9H165.979V290.45Z" fill="black"/>
<path d="M165.979 283.93H159.529V290.45H165.979V283.93Z" fill="black"/>
<path d="M165.979 277.48H159.529V283.93H165.979V277.48Z" fill="black"/>
<path d="M165.979 270.96H159.529V277.48H165.979V270.96Z" fill="black"/>
<path d="M165.979 264.45H159.529V270.96H165.979V264.45Z" fill="#2E4851"/>
<path d="M165.979 257.98H159.529V264.44H165.979V257.98Z" fill="#416072"/>
<path d="M165.979 251.47H159.529V257.98H165.979V251.47Z" fill="black"/>
<path d="M165.979 245.02H159.529V251.47H165.979V245.02Z" fill="black"/>
<path d="M165.979 238.5H159.529V245.02H165.979V238.5Z" fill="#0C4913"/>
<path d="M165.979 232.04H159.529V238.49H165.979V232.04Z" fill="#0D561B"/>
<path d="M165.979 225.52H159.529V232.04H165.979V225.52Z" fill="#0D561B"/>
<path d="M165.979 219.01H159.529V225.52H165.979V219.01Z" fill="black"/>
<path d="M165.979 212.55H159.529V219H165.979V212.55Z" fill="black"/>
<path d="M165.979 186.61H159.529V193.06H165.979V186.61Z" fill="black"/>
<path d="M165.979 180.09H159.529V186.61H165.979V180.09Z" fill="black"/>
<path d="M165.979 173.64H159.529V180.09H165.979V173.64Z" fill="black"/>
<path d="M165.979 167.12H159.529V173.64H165.979V167.12Z" fill="#0C4913"/>
<path d="M165.979 160.6H159.529V167.12H165.979V160.6Z" fill="#0C4913"/>
<path d="M165.979 154.14H159.529V160.59H165.979V154.14Z" fill="#0C4913"/>
<path d="M165.979 147.62H159.529V154.14H165.979V147.62Z" fill="#429331"/>
<path d="M165.979 141.17H159.529V147.62H165.979V141.17Z" fill="#429331"/>
<path d="M165.979 134.65H159.529V141.17H165.979V134.65Z" fill="black"/>
<path d="M165.979 128.2H159.529V134.65H165.979V128.2Z" fill="#102126"/>
<path d="M165.979 121.68H159.529V128.2H165.979V121.68Z" fill="#102126"/>
<path d="M165.979 115.16H159.529V121.68H165.979V115.16Z" fill="#2E4851"/>
<path d="M165.979 108.71H159.529V115.16H165.979V108.71Z" fill="#416072"/>
<path d="M165.979 102.19H159.529V108.71H165.979V102.19Z" fill="black"/>
<path d="M159.53 322.85H153.01V329.37H159.53V322.85Z" fill="#429331"/>
<path d="M159.53 316.4H153.01V322.85H159.53V316.4Z" fill="black"/>
<path d="M159.53 309.88H153.01V316.39H159.53V309.88Z" fill="black"/>
<path d="M159.53 277.48H153.01V283.93H159.53V277.48Z" fill="black"/>
<path d="M159.53 270.96H153.01V277.48H159.53V270.96Z" fill="#416072"/>
<path d="M159.53 264.45H153.01V270.96H159.53V264.45Z" fill="#2E4851"/>
<path d="M159.53 257.98H153.01V264.44H159.53V257.98Z" fill="#416072"/>
<path d="M159.53 251.47H153.01V257.98H159.53V251.47Z" fill="black"/>
<path d="M159.53 238.5H153.01V245.02H159.53V238.5Z" fill="black"/>
<path d="M159.53 232.04H153.01V238.49H159.53V232.04Z" fill="black"/>
<path d="M159.53 225.52H153.01V232.04H159.53V225.52Z" fill="black"/>
<path d="M159.53 193.06H153.01V199.58H159.53V193.06Z" fill="black"/>
<path d="M159.53 186.61H153.01V193.06H159.53V186.61Z" fill="#429331"/>
<path d="M159.53 180.09H153.01V186.61H159.53V180.09Z" fill="#429331"/>
<path d="M159.53 173.64H153.01V180.09H159.53V173.64Z" fill="#0C4913"/>
<path d="M159.53 167.12H153.01V173.64H159.53V167.12Z" fill="#0C4913"/>
<path d="M159.53 160.6H153.01V167.12H159.53V160.6Z" fill="#0C4913"/>
<path d="M159.53 154.14H153.01V160.59H159.53V154.14Z" fill="#429331"/>
<path d="M159.53 147.62H153.01V154.14H159.53V147.62Z" fill="#429331"/>
<path d="M159.53 141.17H153.01V147.62H159.53V141.17Z" fill="black"/>
<path d="M159.53 134.65H153.01V141.17H159.53V134.65Z" fill="#102126"/>
<path d="M159.53 128.2H153.01V134.65H159.53V128.2Z" fill="#102126"/>
<path d="M159.53 121.68H153.01V128.2H159.53V121.68Z" fill="#2E4851"/>
<path d="M159.53 115.16H153.01V121.68H159.53V115.16Z" fill="#416072"/>
<path d="M159.53 108.71H153.01V115.16H159.53V108.71Z" fill="black"/>
<path d="M153.01 322.85H146.49V329.37H153.01V322.85Z" fill="#5BAF43"/>
<path d="M153.01 316.4H146.49V322.85H153.01V316.4Z" fill="black"/>
<path d="M153.01 283.93H146.49V290.45H153.01V283.93Z" fill="black"/>
<path d="M153.01 277.48H146.49V283.93H153.01V277.48Z" fill="#416072"/>
<path d="M153.01 270.96H146.49V277.48H153.01V270.96Z" fill="#2E4851"/>
<path d="M153.01 264.45H146.49V270.96H153.01V264.45Z" fill="#416072"/>
<path d="M153.01 257.98H146.49V264.44H153.01V257.98Z" fill="#416072"/>
<path d="M153.01 251.47H146.49V257.98H153.01V251.47Z" fill="black"/>
<path d="M153.01 186.61H146.49V193.06H153.01V186.61Z" fill="black"/>
<path d="M153.01 180.09H146.49V186.61H153.01V180.09Z" fill="black"/>
<path d="M153.01 173.64H146.49V180.09H153.01V173.64Z" fill="#429331"/>
<path d="M153.01 167.12H146.49V173.64H153.01V167.12Z" fill="#429331"/>
<path d="M153.01 160.6H146.49V167.12H153.01V160.6Z" fill="#429331"/>
<path d="M153.01 154.14H146.49V160.59H153.01V154.14Z" fill="#429331"/>
<path d="M153.01 147.62H146.49V154.14H153.01V147.62Z" fill="black"/>
<path d="M153.01 141.17H146.49V147.62H153.01V141.17Z" fill="#102126"/>
<path d="M153.01 134.65H146.49V141.17H153.01V134.65Z" fill="#102126"/>
<path d="M153.01 128.2H146.49V134.65H153.01V128.2Z" fill="#102126"/>
<path d="M153.01 121.68H146.49V128.2H153.01V121.68Z" fill="#2E4851"/>
<path d="M153.01 115.16H146.49V121.68H153.01V115.16Z" fill="#416072"/>
<path d="M153.01 108.71H146.49V115.16H153.01V108.71Z" fill="black"/>
<path d="M146.489 322.85H140.039V329.37H146.489V322.85Z" fill="black"/>
<path d="M146.489 283.93H140.039V290.45H146.489V283.93Z" fill="black"/>
<path d="M146.489 277.48H140.039V283.93H146.489V277.48Z" fill="#416072"/>
<path d="M146.489 270.96H140.039V277.48H146.489V270.96Z" fill="#2E4851"/>
<path d="M146.489 264.45H140.039V270.96H146.489V264.45Z" fill="#416072"/>
<path d="M146.489 257.98H140.039V264.44H146.489V257.98Z" fill="black"/>
<path d="M146.489 193.06H140.039V199.58H146.489V193.06Z" fill="black"/>
<path d="M146.489 186.61H140.039V193.06H146.489V186.61Z" fill="black"/>
<path d="M146.489 180.09H140.039V186.61H146.489V180.09Z" fill="#0C4913"/>
<path d="M146.489 173.64H140.039V180.09H146.489V173.64Z" fill="#0C4913"/>
<path d="M146.489 167.12H140.039V173.64H146.489V167.12Z" fill="#0C4913"/>
<path d="M146.489 160.6H140.039V167.12H146.489V160.6Z" fill="#0C4913"/>
<path d="M146.489 154.14H140.039V160.59H146.489V154.14Z" fill="black"/>
<path d="M146.489 147.62H140.039V154.14H146.489V147.62Z" fill="#102126"/>
<path d="M146.489 141.17H140.039V147.62H146.489V141.17Z" fill="#102126"/>
<path d="M146.489 134.65H140.039V141.17H146.489V134.65Z" fill="#102126"/>
<path d="M146.489 128.2H140.039V134.65H146.489V128.2Z" fill="#2F4B5B"/>
<path d="M146.489 121.68H140.039V128.2H146.489V121.68Z" fill="#2E4851"/>
<path d="M146.489 115.16H140.039V121.68H146.489V115.16Z" fill="#416072"/>
<path d="M146.489 108.71H140.039V115.16H146.489V108.71Z" fill="black"/>
<path d="M140.04 283.93H133.52V290.45H140.04V283.93Z" fill="black"/>
<path d="M140.04 277.48H133.52V283.93H140.04V277.48Z" fill="#416072"/>
<path d="M140.04 270.96H133.52V277.48H140.04V270.96Z" fill="#2E4851"/>
<path d="M140.04 264.45H133.52V270.96H140.04V264.45Z" fill="#416072"/>
<path d="M140.04 257.98H133.52V264.44H140.04V257.98Z" fill="black"/>
<path d="M140.04 193.06H133.52V199.58H140.04V193.06Z" fill="black"/>
<path d="M140.04 186.61H133.52V193.06H140.04V186.61Z" fill="#0C4913"/>
<path d="M140.04 180.09H133.52V186.61H140.04V180.09Z" fill="#0C4913"/>
<path d="M140.04 173.64H133.52V180.09H140.04V173.64Z" fill="#0C4913"/>
<path d="M140.04 167.12H133.52V173.64H140.04V167.12Z" fill="#429331"/>
<path d="M140.04 160.6H133.52V167.12H140.04V160.6Z" fill="#0D561B"/>
<path d="M140.04 154.14H133.52V160.59H140.04V154.14Z" fill="#0D561B"/>
<path d="M140.04 147.62H133.52V154.14H140.04V147.62Z" fill="black"/>
<path d="M140.04 141.17H133.52V147.62H140.04V141.17Z" fill="#102126"/>
<path d="M140.04 134.65H133.52V141.17H140.04V134.65Z" fill="#2F4B5B"/>
<path d="M140.04 128.2H133.52V134.65H140.04V128.2Z" fill="#E7BD00"/>
<path d="M140.04 121.68H133.52V128.2H140.04V121.68Z" fill="#2E4851"/>
<path d="M140.04 115.16H133.52V121.68H140.04V115.16Z" fill="black"/>
<path d="M133.509 283.93H127.059V290.45H133.509V283.93Z" fill="black"/>
<path d="M133.509 277.48H127.059V283.93H133.509V277.48Z" fill="#416072"/>
<path d="M133.509 270.96H127.059V277.48H133.509V270.96Z" fill="#2E4851"/>
<path d="M133.509 264.45H127.059V270.96H133.509V264.45Z" fill="#416072"/>
<path d="M133.509 257.98H127.059V264.44H133.509V257.98Z" fill="black"/>
<path d="M133.509 193.06H127.059V199.58H133.509V193.06Z" fill="black"/>
<path d="M133.509 186.61H127.059V193.06H133.509V186.61Z" fill="#0C4913"/>
<path d="M133.509 180.09H127.059V186.61H133.509V180.09Z" fill="#0C4913"/>
<path d="M133.509 173.64H127.059V180.09H133.509V173.64Z" fill="#429331"/>
<path d="M133.509 167.12H127.059V173.64H133.509V167.12Z" fill="#0D561B"/>
<path d="M133.509 160.6H127.059V167.12H133.509V160.6Z" fill="#0D561B"/>
<path d="M133.509 154.14H127.059V160.59H133.509V154.14Z" fill="#0D561B"/>
<path d="M133.509 147.62H127.059V154.14H133.509V147.62Z" fill="#0D561B"/>
<path d="M133.509 141.17H127.059V147.62H133.509V141.17Z" fill="black"/>
<path d="M133.509 134.65H127.059V141.17H133.509V134.65Z" fill="#102126"/>
<path d="M133.509 128.2H127.059V134.65H133.509V128.2Z" fill="#E7BD00"/>
<path d="M133.509 121.68H127.059V128.2H133.509V121.68Z" fill="#E7BD00"/>
<path d="M133.509 115.16H127.059V121.68H133.509V115.16Z" fill="black"/>
<path d="M127.059 283.93H120.539V290.45H127.059V283.93Z" fill="black"/>
<path d="M127.059 277.48H120.539V283.93H127.059V277.48Z" fill="#416072"/>
<path d="M127.059 270.96H120.539V277.48H127.059V270.96Z" fill="#2E4851"/>
<path d="M127.059 264.45H120.539V270.96H127.059V264.45Z" fill="#416072"/>
<path d="M127.059 257.98H120.539V264.44H127.059V257.98Z" fill="black"/>
<path d="M127.059 186.61H120.539V193.06H127.059V186.61Z" fill="black"/>
<path d="M127.059 180.09H120.539V186.61H127.059V180.09Z" fill="#0C4913"/>
<path d="M127.059 173.64H120.539V180.09H127.059V173.64Z" fill="#429331"/>
<path d="M127.059 167.12H120.539V173.64H127.059V167.12Z" fill="#0D561B"/>
<path d="M127.059 160.6H120.539V167.12H127.059V160.6Z" fill="#0D561B"/>
<path d="M127.059 154.14H120.539V160.59H127.059V154.14Z" fill="#0D561B"/>
<path d="M127.059 147.62H120.539V154.14H127.059V147.62Z" fill="#0D561B"/>
<path d="M127.059 141.17H120.539V147.62H127.059V141.17Z" fill="black"/>
<path d="M127.059 134.65H120.539V141.17H127.059V134.65Z" fill="black"/>
<path d="M127.059 128.2H120.539V134.65H127.059V128.2Z" fill="black"/>
<path d="M127.059 121.68H120.539V128.2H127.059V121.68Z" fill="black"/>
<path d="M120.54 283.93H114.09V290.45H120.54V283.93Z" fill="black"/>
<path d="M120.54 277.48H114.09V283.93H120.54V277.48Z" fill="#416072"/>
<path d="M120.54 270.96H114.09V277.48H120.54V270.96Z" fill="#2E4851"/>
<path d="M120.54 264.45H114.09V270.96H120.54V264.45Z" fill="#416072"/>
<path d="M120.54 257.98H114.09V264.44H120.54V257.98Z" fill="black"/>
<path d="M120.54 180.09H114.09V186.61H120.54V180.09Z" fill="black"/>
<path d="M120.54 173.64H114.09V180.09H120.54V173.64Z" fill="black"/>
<path d="M120.54 167.12H114.09V173.64H120.54V167.12Z" fill="black"/>
<path d="M120.54 160.6H114.09V167.12H120.54V160.6Z" fill="black"/>
<path d="M120.54 154.14H114.09V160.59H120.54V154.14Z" fill="#0D561B"/>
<path d="M120.54 147.62H114.09V154.14H120.54V147.62Z" fill="#0D561B"/>
<path d="M120.54 141.17H114.09V147.62H120.54V141.17Z" fill="black"/>
<path d="M120.54 134.65H114.09V141.17H120.54V134.65Z" fill="black"/>
<path d="M120.54 128.2H114.09V134.65H120.54V128.2Z" fill="black"/>
<path d="M120.54 121.68H114.09V128.2H120.54V121.68Z" fill="black"/>
<path d="M114.09 277.48H107.57V283.93H114.09V277.48Z" fill="black"/>
<path d="M114.09 270.96H107.57V277.48H114.09V270.96Z" fill="#416072"/>
<path d="M114.09 264.45H107.57V270.96H114.09V264.45Z" fill="#416072"/>
<path d="M114.09 257.98H107.57V264.44H114.09V257.98Z" fill="black"/>
<path d="M114.09 160.6H107.57V167.12H114.09V160.6Z" fill="black"/>
<path d="M114.09 154.14H107.57V160.59H114.09V154.14Z" fill="black"/>
<path d="M114.09 147.62H107.57V154.14H114.09V147.62Z" fill="black"/>
<path d="M114.09 141.17H107.57V147.62H114.09V141.17Z" fill="black"/>
<path d="M114.09 134.65H107.57V141.17H114.09V134.65Z" fill="#0D561B"/>
<path d="M114.09 128.2H107.57V134.65H114.09V128.2Z" fill="#0D561B"/>
<path d="M114.09 121.68H107.57V128.2H114.09V121.68Z" fill="black"/>
<path d="M107.569 270.96H101.049V277.48H107.569V270.96Z" fill="black"/>
<path d="M107.569 264.45H101.049V270.96H107.569V264.45Z" fill="#416072"/>
<path d="M107.569 257.98H101.049V264.44H107.569V257.98Z" fill="black"/>
<path d="M107.569 154.14H101.049V160.59H107.569V154.14Z" fill="black"/>
<path d="M107.569 147.62H101.049V154.14H107.569V147.62Z" fill="black"/>
<path d="M107.569 141.17H101.049V147.62H107.569V141.17Z" fill="#0D561B"/>
<path d="M107.569 134.65H101.049V141.17H107.569V134.65Z" fill="#0D561B"/>
<path d="M107.569 128.2H101.049V134.65H107.569V128.2Z" fill="#0D561B"/>
<path d="M107.569 121.68H101.049V128.2H107.569V121.68Z" fill="black"/>
<path d="M101.05 264.45H94.5996V270.96H101.05V264.45Z" fill="black"/>
<path d="M101.05 257.98H94.5996V264.44H101.05V257.98Z" fill="black"/>
<path d="M101.05 154.14H94.5996V160.59H101.05V154.14Z" fill="black"/>
<path d="M101.05 147.62H94.5996V154.14H101.05V147.62Z" fill="black"/>
<path d="M101.05 141.17H94.5996V147.62H101.05V141.17Z" fill="#0D561B"/>
<path d="M101.05 134.65H94.5996V141.17H101.05V134.65Z" fill="#0D561B"/>
<path d="M101.05 128.2H94.5996V134.65H101.05V128.2Z" fill="black"/>
<path d="M94.6001 154.14H88.0801V160.59H94.6001V154.14Z" fill="black"/>
<path d="M94.6001 147.62H88.0801V154.14H94.6001V147.62Z" fill="#E7BD00"/>
<path d="M94.6001 141.17H88.0801V147.62H94.6001V141.17Z" fill="black"/>
<path d="M94.6001 134.65H88.0801V141.17H94.6001V134.65Z" fill="black"/>
<path d="M88.0789 160.6H81.6289V167.12H88.0789V160.6Z" fill="black"/>
<path d="M88.0789 154.14H81.6289V160.59H88.0789V154.14Z" fill="#E7BD00"/>
<path d="M88.0789 147.62H81.6289V154.14H88.0789V147.62Z" fill="black"/>
<path d="M81.6294 160.6H75.1094V167.12H81.6294V160.6Z" fill="black"/>
<path d="M81.6294 154.14H75.1094V160.59H81.6294V154.14Z" fill="black"/>
<path d="M81.6294 147.62H75.1094V154.14H81.6294V147.62Z" fill="black"/>
</svg>
