<svg width="400" height="400" viewBox="0 0 400 400" fill="none" xmlns="http://www.w3.org/2000/svg">
<path d="M385.781 200C385.781 302.6 302.601 385.78 200.001 385.78C97.4007 385.78 14.2207 302.6 14.2207 200C14.2207 97.4 97.3907 14.22 200.001 14.22C302.611 14.22 385.781 97.4 385.781 200Z" fill="black"/>
<path d="M200.001 392.78C93.7007 392.78 7.2207 306.3 7.2207 200C7.2207 93.7 93.7007 7.21997 200.001 7.21997C306.301 7.21997 392.781 93.7 392.781 200C392.781 306.3 306.301 392.78 200.001 392.78ZM200.001 21.22C101.421 21.22 21.2207 101.42 21.2207 200C21.2207 298.58 101.421 378.78 200.001 378.78C298.581 378.78 378.781 298.58 378.781 200C378.781 101.42 298.581 21.22 200.001 21.22Z" fill="#B5A518"/>
<path d="M304.459 145.78H297.359V152.88H304.459V145.78Z" fill="black"/>
<path d="M304.459 138.61H297.359V145.78H304.459V138.61Z" fill="black"/>
<path d="M304.459 131.44H297.359V138.61H304.459V131.44Z" fill="black"/>
<path d="M304.459 124.34H297.359V131.44H304.459V124.34Z" fill="black"/>
<path d="M304.459 117.19H297.359V124.36H304.459V117.19Z" fill="black"/>
<path d="M304.459 110.09H297.359V117.19H304.459V110.09Z" fill="black"/>
<path d="M304.459 88.6499H297.359V95.8199H304.459V88.6499Z" fill="black"/>
<path d="M297.359 174.31H290.189V181.41H297.359V174.31Z" fill="black"/>
<path d="M297.359 167.14H290.189V174.31H297.359V167.14Z" fill="black"/>
<path d="M297.359 160.04H290.189V167.14H297.359V160.04Z" fill="black"/>
<path d="M297.359 152.87H290.189V160.04H297.359V152.87Z" fill="black"/>
<path d="M297.359 145.78H290.189V152.88H297.359V145.78Z" fill="#3D3D3B"/>
<path d="M297.359 138.61H290.189V145.78H297.359V138.61Z" fill="#3D3D3B"/>
<path d="M297.359 131.44H290.189V138.61H297.359V131.44Z" fill="#3D3D3B"/>
<path d="M297.359 124.34H290.189V131.44H297.359V124.34Z" fill="#3D3D3B"/>
<path d="M297.359 117.19H290.189V124.36H297.359V117.19Z" fill="#3D3D3B"/>
<path d="M297.359 110.09H290.189V117.19H297.359V110.09Z" fill="#3D3D3B"/>
<path d="M297.359 102.92H290.189V110.09H297.359V102.92Z" fill="black"/>
<path d="M297.359 95.8201H290.189V102.92H297.359V95.8201Z" fill="black"/>
<path d="M297.359 88.6499H290.189V95.8199H297.359V88.6499Z" fill="#3D3D3B"/>
<path d="M297.359 81.5601H290.189V88.6601H297.359V81.5601Z" fill="black"/>
<path d="M290.209 188.56H283.109V195.73H290.209V188.56Z" fill="black"/>
<path d="M290.209 181.39H283.109V188.56H290.209V181.39Z" fill="black"/>
<path d="M290.209 174.31H283.109V181.41H290.209V174.31Z" fill="#3D3D3B"/>
<path d="M290.209 167.14H283.109V174.31H290.209V167.14Z" fill="#3D3D3B"/>
<path d="M290.209 160.04H283.109V167.14H290.209V160.04Z" fill="#3D3D3B"/>
<path d="M290.209 152.87H283.109V160.04H290.209V152.87Z" fill="#3D3D3B"/>
<path d="M290.209 145.78H283.109V152.88H290.209V145.78Z" fill="#2B2B2A"/>
<path d="M290.209 138.61H283.109V145.78H290.209V138.61Z" fill="#2B2B2A"/>
<path d="M290.209 131.44H283.109V138.61H290.209V131.44Z" fill="#2B2B2A"/>
<path d="M290.209 124.34H283.109V131.44H290.209V124.34Z" fill="#2B2B2A"/>
<path d="M290.209 117.19H283.109V124.36H290.209V117.19Z" fill="#2B2B2A"/>
<path d="M290.209 110.09H283.109V117.19H290.209V110.09Z" fill="#2B2B2A"/>
<path d="M290.209 102.92H283.109V110.09H290.209V102.92Z" fill="#3D3D3B"/>
<path d="M290.209 95.8201H283.109V102.92H290.209V95.8201Z" fill="#3D3D3B"/>
<path d="M290.209 88.6499H283.109V95.8199H290.209V88.6499Z" fill="#2B2B2A"/>
<path d="M290.209 81.5601H283.109V88.6601H290.209V81.5601Z" fill="black"/>
<path d="M283.109 202.83H275.939V210H283.109V202.83Z" fill="black"/>
<path d="M283.109 195.73H275.939V202.83H283.109V195.73Z" fill="black"/>
<path d="M283.109 188.56H275.939V195.73H283.109V188.56Z" fill="#3D3D3B"/>
<path d="M283.109 181.39H275.939V188.56H283.109V181.39Z" fill="#2B2B2A"/>
<path d="M283.109 174.31H275.939V181.41H283.109V174.31Z" fill="#2B2B2A"/>
<path d="M283.109 167.14H275.939V174.31H283.109V167.14Z" fill="#2B2B2A"/>
<path d="M283.109 160.04H275.939V167.14H283.109V160.04Z" fill="#2B2B2A"/>
<path d="M283.109 152.87H275.939V160.04H283.109V152.87Z" fill="#2B2B2A"/>
<path d="M283.109 102.92H275.939V110.09H283.109V102.92Z" fill="#2B2B2A"/>
<path d="M283.109 95.8201H275.939V102.92H283.109V95.8201Z" fill="#2B2B2A"/>
<path d="M283.109 88.6499H275.939V95.8199H283.109V88.6499Z" fill="#8A8D8E"/>
<path d="M275.94 217.09H268.77V224.26H275.94V217.09Z" fill="black"/>
<path d="M275.94 210H268.77V217.1H275.94V210Z" fill="black"/>
<path d="M275.94 202.83H268.77V210H275.94V202.83Z" fill="#3D3D3B"/>
<path d="M275.94 195.73H268.77V202.83H275.94V195.73Z" fill="#2B2B2A"/>
<path d="M275.94 188.56H268.77V195.73H275.94V188.56Z" fill="#2B2B2A"/>
<path d="M275.94 95.8201H268.77V102.92H275.94V95.8201Z" fill="#8A8D8E"/>
<path d="M268.77 224.26H261.67V231.36H268.77V224.26Z" fill="black"/>
<path d="M268.77 217.09H261.67V224.26H268.77V217.09Z" fill="#DD8976"/>
<path d="M268.77 210H261.67V217.1H268.77V210Z" fill="#DD8976"/>
<path d="M268.77 202.83H261.67V210H268.77V202.83Z" fill="#2B2B2A"/>
<path d="M268.77 102.92H261.67V110.09H268.77V102.92Z" fill="#8A8D8E"/>
<path d="M261.67 231.36H254.5V238.53H261.67V231.36Z" fill="black"/>
<path d="M261.67 224.26H254.5V231.36H261.67V224.26Z" fill="#DD8976"/>
<path d="M261.67 217.09H254.5V224.26H261.67V217.09Z" fill="#DD8976"/>
<path d="M261.67 210H254.5V217.1H261.67V210Z" fill="#F7AB94"/>
<path d="M261.67 202.83H254.5V210H261.67V202.83Z" fill="black"/>
<path d="M261.67 195.73H254.5V202.83H261.67V195.73Z" fill="black"/>
<path d="M261.67 188.56H254.5V195.73H261.67V188.56Z" fill="black"/>
<path d="M261.67 110.09H254.5V117.19H261.67V110.09Z" fill="#8A8D8E"/>
<path d="M254.51 324.17H247.41V331.27H254.51V324.17Z" fill="black"/>
<path d="M254.51 317H247.41V324.17H254.51V317Z" fill="black"/>
<path d="M254.51 231.36H247.41V238.53H254.51V231.36Z" fill="black"/>
<path d="M254.51 224.26H247.41V231.36H254.51V224.26Z" fill="#F7AB94"/>
<path d="M254.51 217.09H247.41V224.26H254.51V217.09Z" fill="#F7AB94"/>
<path d="M254.51 210H247.41V217.1H254.51V210Z" fill="#373801"/>
<path d="M254.51 202.83H247.41V210H254.51V202.83Z" fill="#373801"/>
<path d="M254.51 195.73H247.41V202.83H254.51V195.73Z" fill="#373801"/>
<path d="M254.51 188.56H247.41V195.73H254.51V188.56Z" fill="#373801"/>
<path d="M254.51 181.39H247.41V188.56H254.51V181.39Z" fill="black"/>
<path d="M254.51 174.31H247.41V181.41H254.51V174.31Z" fill="black"/>
<path d="M254.51 167.14H247.41V174.31H254.51V167.14Z" fill="black"/>
<path d="M254.51 160.04H247.41V167.14H254.51V160.04Z" fill="black"/>
<path d="M254.51 152.87H247.41V160.04H254.51V152.87Z" fill="black"/>
<path d="M254.51 117.19H247.41V124.36H254.51V117.19Z" fill="#8A8D8E"/>
<path d="M247.41 324.17H240.24V331.27H247.41V324.17Z" fill="black"/>
<path d="M247.41 317H240.24V324.17H247.41V317Z" fill="#660801"/>
<path d="M247.41 309.91H240.24V317.01H247.41V309.91Z" fill="black"/>
<path d="M247.41 267.05H240.24V274.22H247.41V267.05Z" fill="black"/>
<path d="M247.41 259.95H240.24V267.05H247.41V259.95Z" fill="black"/>
<path d="M247.41 252.78H240.24V259.95H247.41V252.78Z" fill="black"/>
<path d="M247.41 238.52H240.24V245.62H247.41V238.52Z" fill="black"/>
<path d="M247.41 231.36H240.24V238.53H247.41V231.36Z" fill="#3D3D3B"/>
<path d="M247.41 224.26H240.24V231.36H247.41V224.26Z" fill="black"/>
<path d="M247.41 217.09H240.24V224.26H247.41V217.09Z" fill="#373801"/>
<path d="M247.41 210H240.24V217.1H247.41V210Z" fill="#373801"/>
<path d="M247.41 202.83H240.24V210H247.41V202.83Z" fill="#373801"/>
<path d="M247.41 195.73H240.24V202.83H247.41V195.73Z" fill="#5C6302"/>
<path d="M247.41 188.56H240.24V195.73H247.41V188.56Z" fill="#5C6302"/>
<path d="M247.41 181.39H240.24V188.56H247.41V181.39Z" fill="#5C6302"/>
<path d="M247.41 174.31H240.24V181.41H247.41V174.31Z" fill="#5C6302"/>
<path d="M247.41 167.14H240.24V174.31H247.41V167.14Z" fill="black"/>
<path d="M247.41 160.04H240.24V167.14H247.41V160.04Z" fill="#2B2B2A"/>
<path d="M247.41 152.87H240.24V160.04H247.41V152.87Z" fill="#2B2B2A"/>
<path d="M247.41 145.78H240.24V152.88H247.41V145.78Z" fill="black"/>
<path d="M247.41 138.61H240.24V145.78H247.41V138.61Z" fill="black"/>
<path d="M247.41 124.34H240.24V131.44H247.41V124.34Z" fill="#8A8D8E"/>
<path d="M240.241 324.17H233.141V331.27H240.241V324.17Z" fill="black"/>
<path d="M240.241 317H233.141V324.17H240.241V317Z" fill="#660801"/>
<path d="M240.241 309.91H233.141V317.01H240.241V309.91Z" fill="#3F1401"/>
<path d="M240.241 302.74H233.141V309.91H240.241V302.74Z" fill="black"/>
<path d="M240.241 295.57H233.141V302.74H240.241V295.57Z" fill="black"/>
<path d="M240.241 288.48H233.141V295.58H240.241V288.48Z" fill="black"/>
<path d="M240.241 281.31H233.141V288.48H240.241V281.31Z" fill="black"/>
<path d="M240.241 274.22H233.141V281.32H240.241V274.22Z" fill="black"/>
<path d="M240.241 267.05H233.141V274.22H240.241V267.05Z" fill="#2B2B2A"/>
<path d="M240.241 259.95H233.141V267.05H240.241V259.95Z" fill="#2B2B2A"/>
<path d="M240.241 252.78H233.141V259.95H240.241V252.78Z" fill="#2B2B2A"/>
<path d="M240.241 245.61H233.141V252.78H240.241V245.61Z" fill="black"/>
<path d="M240.241 238.52H233.141V245.62H240.241V238.52Z" fill="black"/>
<path d="M240.241 231.36H233.141V238.53H240.241V231.36Z" fill="#3D3D3B"/>
<path d="M240.241 224.26H233.141V231.36H240.241V224.26Z" fill="#2B2B2A"/>
<path d="M240.241 217.09H233.141V224.26H240.241V217.09Z" fill="black"/>
<path d="M240.241 210H233.141V217.1H240.241V210Z" fill="#373801"/>
<path d="M240.241 202.83H233.141V210H240.241V202.83Z" fill="#5C6302"/>
<path d="M240.241 195.73H233.141V202.83H240.241V195.73Z" fill="#5C6302"/>
<path d="M240.241 188.56H233.141V195.73H240.241V188.56Z" fill="#5C6302"/>
<path d="M240.241 181.39H233.141V188.56H240.241V181.39Z" fill="#5C6302"/>
<path d="M240.241 174.31H233.141V181.41H240.241V174.31Z" fill="black"/>
<path d="M240.241 167.14H233.141V174.31H240.241V167.14Z" fill="#3D3D3B"/>
<path d="M240.241 160.04H233.141V167.14H240.241V160.04Z" fill="#2B2B2A"/>
<path d="M240.241 152.87H233.141V160.04H240.241V152.87Z" fill="#2B2B2A"/>
<path d="M240.241 145.78H233.141V152.88H240.241V145.78Z" fill="#3D3D3B"/>
<path d="M240.241 138.61H233.141V145.78H240.241V138.61Z" fill="black"/>
<path d="M240.241 131.44H233.141V138.61H240.241V131.44Z" fill="#8A8D8E"/>
<path d="M240.241 124.34H233.141V131.44H240.241V124.34Z" fill="black"/>
<path d="M240.241 117.19H233.141V124.36H240.241V117.19Z" fill="black"/>
<path d="M240.241 95.8201H233.141V102.92H240.241V95.8201Z" fill="black"/>
<path d="M240.241 88.6499H233.141V95.8199H240.241V88.6499Z" fill="black"/>
<path d="M240.241 81.5601H233.141V88.6601H240.241V81.5601Z" fill="black"/>
<path d="M233.15 324.17H225.98V331.27H233.15V324.17Z" fill="black"/>
<path d="M233.15 317H225.98V324.17H233.15V317Z" fill="#5B1E00"/>
<path d="M233.15 309.91H225.98V317.01H233.15V309.91Z" fill="#3F1401"/>
<path d="M233.15 302.74H225.98V309.91H233.15V302.74Z" fill="#3F1401"/>
<path d="M233.15 295.57H225.98V302.74H233.15V295.57Z" fill="#3F1401"/>
<path d="M233.15 288.48H225.98V295.58H233.15V288.48Z" fill="#3F1401"/>
<path d="M233.15 281.31H225.98V288.48H233.15V281.31Z" fill="#3F1401"/>
<path d="M233.15 274.22H225.98V281.32H233.15V274.22Z" fill="black"/>
<path d="M233.15 267.05H225.98V274.22H233.15V267.05Z" fill="#B5A518"/>
<path d="M233.15 259.95H225.98V267.05H233.15V259.95Z" fill="#2B2B2A"/>
<path d="M233.15 252.78H225.98V259.95H233.15V252.78Z" fill="#2B2B2A"/>
<path d="M233.15 245.61H225.98V252.78H233.15V245.61Z" fill="#2B2B2A"/>
<path d="M233.15 238.52H225.98V245.62H233.15V238.52Z" fill="black"/>
<path d="M233.15 231.36H225.98V238.53H233.15V231.36Z" fill="black"/>
<path d="M233.15 224.26H225.98V231.36H233.15V224.26Z" fill="black"/>
<path d="M233.15 217.09H225.98V224.26H233.15V217.09Z" fill="black"/>
<path d="M233.15 210H225.98V217.1H233.15V210Z" fill="black"/>
<path d="M233.15 202.83H225.98V210H233.15V202.83Z" fill="black"/>
<path d="M233.15 195.73H225.98V202.83H233.15V195.73Z" fill="black"/>
<path d="M233.15 188.56H225.98V195.73H233.15V188.56Z" fill="black"/>
<path d="M233.15 181.39H225.98V188.56H233.15V181.39Z" fill="black"/>
<path d="M233.15 174.31H225.98V181.41H233.15V174.31Z" fill="#373801"/>
<path d="M233.15 167.14H225.98V174.31H233.15V167.14Z" fill="black"/>
<path d="M233.15 160.04H225.98V167.14H233.15V160.04Z" fill="black"/>
<path d="M233.15 152.87H225.98V160.04H233.15V152.87Z" fill="#2B2B2A"/>
<path d="M233.15 145.78H225.98V152.88H233.15V145.78Z" fill="#2B2B2A"/>
<path d="M233.15 138.61H225.98V145.78H233.15V138.61Z" fill="#3D3D3B"/>
<path d="M233.15 131.44H225.98V138.61H233.15V131.44Z" fill="black"/>
<path d="M233.15 124.34H225.98V131.44H233.15V124.34Z" fill="black"/>
<path d="M233.15 117.19H225.98V124.36H233.15V117.19Z" fill="#2B2B2A"/>
<path d="M233.15 110.09H225.98V117.19H233.15V110.09Z" fill="black"/>
<path d="M233.15 102.92H225.98V110.09H233.15V102.92Z" fill="black"/>
<path d="M233.15 95.8201H225.98V102.92H233.15V95.8201Z" fill="#2B2B2A"/>
<path d="M233.15 88.6499H225.98V95.8199H233.15V88.6499Z" fill="#2B2B2A"/>
<path d="M233.15 81.5601H225.98V88.6601H233.15V81.5601Z" fill="black"/>
<path d="M225.981 324.17H218.811V331.27H225.981V324.17Z" fill="black"/>
<path d="M225.981 317H218.811V324.17H225.981V317Z" fill="#5B1E00"/>
<path d="M225.981 309.91H218.811V317.01H225.981V309.91Z" fill="#660801"/>
<path d="M225.981 302.74H218.811V309.91H225.981V302.74Z" fill="#660801"/>
<path d="M225.981 295.57H218.811V302.74H225.981V295.57Z" fill="#660801"/>
<path d="M225.981 288.48H218.811V295.58H225.981V288.48Z" fill="#3F1401"/>
<path d="M225.981 281.31H218.811V288.48H225.981V281.31Z" fill="#5B1E00"/>
<path d="M225.981 274.22H218.811V281.32H225.981V274.22Z" fill="black"/>
<path d="M225.981 267.05H218.811V274.22H225.981V267.05Z" fill="#B5A518"/>
<path d="M225.981 259.95H218.811V267.05H225.981V259.95Z" fill="#B5A518"/>
<path d="M225.981 252.78H218.811V259.95H225.981V252.78Z" fill="#2B2B2A"/>
<path d="M225.981 245.61H218.811V252.78H225.981V245.61Z" fill="#3D3D3B"/>
<path d="M225.981 238.52H218.811V245.62H225.981V238.52Z" fill="#2B2B2A"/>
<path d="M225.981 231.36H218.811V238.53H225.981V231.36Z" fill="black"/>
<path d="M225.981 224.26H218.811V231.36H225.981V224.26Z" fill="#373801"/>
<path d="M225.981 217.09H218.811V224.26H225.981V217.09Z" fill="#373801"/>
<path d="M225.981 210H218.811V217.1H225.981V210Z" fill="#5C6302"/>
<path d="M225.981 202.83H218.811V210H225.981V202.83Z" fill="#5C6302"/>
<path d="M225.981 195.73H218.811V202.83H225.981V195.73Z" fill="#5C6302"/>
<path d="M225.981 188.56H218.811V195.73H225.981V188.56Z" fill="#373801"/>
<path d="M225.981 181.39H218.811V188.56H225.981V181.39Z" fill="#373801"/>
<path d="M225.981 174.31H218.811V181.41H225.981V174.31Z" fill="#373801"/>
<path d="M225.981 167.14H218.811V174.31H225.981V167.14Z" fill="#2B2B2A"/>
<path d="M225.981 160.04H218.811V167.14H225.981V160.04Z" fill="#3D3D3B"/>
<path d="M225.981 152.87H218.811V160.04H225.981V152.87Z" fill="black"/>
<path d="M225.981 145.78H218.811V152.88H225.981V145.78Z" fill="#2B2B2A"/>
<path d="M225.981 138.61H218.811V145.78H225.981V138.61Z" fill="black"/>
<path d="M225.981 131.44H218.811V138.61H225.981V131.44Z" fill="#2B2B2A"/>
<path d="M225.981 124.34H218.811V131.44H225.981V124.34Z" fill="#2B2B2A"/>
<path d="M225.981 117.19H218.811V124.36H225.981V117.19Z" fill="#2B2B2A"/>
<path d="M225.981 110.09H218.811V117.19H225.981V110.09Z" fill="#2B2B2A"/>
<path d="M225.981 102.92H218.811V110.09H225.981V102.92Z" fill="#2B2B2A"/>
<path d="M225.981 95.8201H218.811V102.92H225.981V95.8201Z" fill="#2B2B2A"/>
<path d="M225.981 88.6499H218.811V95.8199H225.981V88.6499Z" fill="#2B2B2A"/>
<path d="M225.981 81.5601H218.811V88.6601H225.981V81.5601Z" fill="black"/>
<path d="M218.821 324.17H211.721V331.27H218.821V324.17Z" fill="black"/>
<path d="M218.821 317H211.721V324.17H218.821V317Z" fill="#5B1E00"/>
<path d="M218.821 309.91H211.721V317.01H218.821V309.91Z" fill="#5B1E00"/>
<path d="M218.821 302.74H211.721V309.91H218.821V302.74Z" fill="#660801"/>
<path d="M218.821 295.57H211.721V302.74H218.821V295.57Z" fill="#5B1E00"/>
<path d="M218.821 288.48H211.721V295.58H218.821V288.48Z" fill="#5B1E00"/>
<path d="M218.821 281.31H211.721V288.48H218.821V281.31Z" fill="#5B1E00"/>
<path d="M218.821 274.22H211.721V281.32H218.821V274.22Z" fill="black"/>
<path d="M218.821 267.05H211.721V274.22H218.821V267.05Z" fill="#B5A518"/>
<path d="M218.821 259.95H211.721V267.05H218.821V259.95Z" fill="#B5A518"/>
<path d="M218.821 252.78H211.721V259.95H218.821V252.78Z" fill="#B5A518"/>
<path d="M218.821 245.61H211.721V252.78H218.821V245.61Z" fill="#3D3D3B"/>
<path d="M218.821 238.52H211.721V245.62H218.821V238.52Z" fill="#3D3D3B"/>
<path d="M218.821 231.36H211.721V238.53H218.821V231.36Z" fill="#373801"/>
<path d="M218.821 224.26H211.721V231.36H218.821V224.26Z" fill="#373801"/>
<path d="M218.821 217.09H211.721V224.26H218.821V217.09Z" fill="#373801"/>
<path d="M218.821 210H211.721V217.1H218.821V210Z" fill="#5C6302"/>
<path d="M218.821 202.83H211.721V210H218.821V202.83Z" fill="#5C6302"/>
<path d="M218.821 195.73H211.721V202.83H218.821V195.73Z" fill="#5C6302"/>
<path d="M218.821 188.56H211.721V195.73H218.821V188.56Z" fill="#5C6302"/>
<path d="M218.821 181.39H211.721V188.56H218.821V181.39Z" fill="#373801"/>
<path d="M218.821 174.31H211.721V181.41H218.821V174.31Z" fill="#373801"/>
<path d="M218.821 167.14H211.721V174.31H218.821V167.14Z" fill="#2B2B2A"/>
<path d="M218.821 160.04H211.721V167.14H218.821V160.04Z" fill="#2B2B2A"/>
<path d="M218.821 152.87H211.721V160.04H218.821V152.87Z" fill="#2B2B2A"/>
<path d="M218.821 145.78H211.721V152.88H218.821V145.78Z" fill="#2B2B2A"/>
<path d="M218.821 138.61H211.721V145.78H218.821V138.61Z" fill="black"/>
<path d="M218.821 131.44H211.721V138.61H218.821V131.44Z" fill="#2B2B2A"/>
<path d="M218.821 124.34H211.721V131.44H218.821V124.34Z" fill="#2B2B2A"/>
<path d="M218.821 117.19H211.721V124.36H218.821V117.19Z" fill="#2B2B2A"/>
<path d="M218.821 110.09H211.721V117.19H218.821V110.09Z" fill="#2B2B2A"/>
<path d="M218.821 102.92H211.721V110.09H218.821V102.92Z" fill="#2B2B2A"/>
<path d="M218.821 95.8201H211.721V102.92H218.821V95.8201Z" fill="#2B2B2A"/>
<path d="M218.821 88.6499H211.721V95.8199H218.821V88.6499Z" fill="#2B2B2A"/>
<path d="M218.821 81.5601H211.721V88.6601H218.821V81.5601Z" fill="black"/>
<path d="M211.721 317H204.551V324.17H211.721V317Z" fill="black"/>
<path d="M211.721 309.91H204.551V317.01H211.721V309.91Z" fill="black"/>
<path d="M211.721 302.74H204.551V309.91H211.721V302.74Z" fill="black"/>
<path d="M211.721 295.57H204.551V302.74H211.721V295.57Z" fill="black"/>
<path d="M211.721 288.48H204.551V295.58H211.721V288.48Z" fill="black"/>
<path d="M211.721 281.31H204.551V288.48H211.721V281.31Z" fill="black"/>
<path d="M211.721 274.22H204.551V281.32H211.721V274.22Z" fill="black"/>
<path d="M211.721 267.05H204.551V274.22H211.721V267.05Z" fill="black"/>
<path d="M211.721 259.95H204.551V267.05H211.721V259.95Z" fill="black"/>
<path d="M211.721 252.78H204.551V259.95H211.721V252.78Z" fill="#B5A518"/>
<path d="M211.721 245.61H204.551V252.78H211.721V245.61Z" fill="#B5A518"/>
<path d="M211.721 238.52H204.551V245.62H211.721V238.52Z" fill="#B5A518"/>
<path d="M211.721 231.36H204.551V238.53H211.721V231.36Z" fill="#373801"/>
<path d="M211.721 224.26H204.551V231.36H211.721V224.26Z" fill="#B5A518"/>
<path d="M211.721 217.09H204.551V224.26H211.721V217.09Z" fill="#5C6302"/>
<path d="M211.721 210H204.551V217.1H211.721V210Z" fill="#5C6302"/>
<path d="M211.721 202.83H204.551V210H211.721V202.83Z" fill="#5C6302"/>
<path d="M211.721 195.73H204.551V202.83H211.721V195.73Z" fill="#5C6302"/>
<path d="M211.721 188.56H204.551V195.73H211.721V188.56Z" fill="#5C6302"/>
<path d="M211.721 181.39H204.551V188.56H211.721V181.39Z" fill="#B5A518"/>
<path d="M211.721 174.31H204.551V181.41H211.721V174.31Z" fill="#B5A518"/>
<path d="M211.721 167.14H204.551V174.31H211.721V167.14Z" fill="#3D3D3B"/>
<path d="M211.721 160.04H204.551V167.14H211.721V160.04Z" fill="#2B2B2A"/>
<path d="M211.721 152.87H204.551V160.04H211.721V152.87Z" fill="#3D3D3B"/>
<path d="M211.721 145.78H204.551V152.88H211.721V145.78Z" fill="black"/>
<path d="M211.721 138.61H204.551V145.78H211.721V138.61Z" fill="#F7AB94"/>
<path d="M211.721 131.44H204.551V138.61H211.721V131.44Z" fill="#F7AB94"/>
<path d="M211.721 124.34H204.551V131.44H211.721V124.34Z" fill="#F7AB94"/>
<path d="M211.721 117.19H204.551V124.36H211.721V117.19Z" fill="#F7AB94"/>
<path d="M211.721 110.09H204.551V117.19H211.721V110.09Z" fill="#2B2B2A"/>
<path d="M211.721 102.92H204.551V110.09H211.721V102.92Z" fill="#2B2B2A"/>
<path d="M211.721 95.8201H204.551V102.92H211.721V95.8201Z" fill="#2B2B2A"/>
<path d="M211.721 88.6499H204.551V95.8199H211.721V88.6499Z" fill="#3D3D3B"/>
<path d="M211.721 81.5601H204.551V88.6601H211.721V81.5601Z" fill="black"/>
<path d="M204.549 267.05H197.449V274.22H204.549V267.05Z" fill="black"/>
<path d="M204.549 259.95H197.449V267.05H204.549V259.95Z" fill="black"/>
<path d="M204.549 252.78H197.449V259.95H204.549V252.78Z" fill="black"/>
<path d="M204.549 245.61H197.449V252.78H204.549V245.61Z" fill="black"/>
<path d="M204.549 238.52H197.449V245.62H204.549V238.52Z" fill="black"/>
<path d="M204.549 231.36H197.449V238.53H204.549V231.36Z" fill="#373801"/>
<path d="M204.549 224.26H197.449V231.36H204.549V224.26Z" fill="#B5A518"/>
<path d="M204.549 217.09H197.449V224.26H204.549V217.09Z" fill="#B5A518"/>
<path d="M204.549 210H197.449V217.1H204.549V210Z" fill="#5C6302"/>
<path d="M204.549 202.83H197.449V210H204.549V202.83Z" fill="#5C6302"/>
<path d="M204.549 195.73H197.449V202.83H204.549V195.73Z" fill="#B5A518"/>
<path d="M204.549 188.56H197.449V195.73H204.549V188.56Z" fill="#B5A518"/>
<path d="M204.549 181.39H197.449V188.56H204.549V181.39Z" fill="#5C6302"/>
<path d="M204.549 174.31H197.449V181.41H204.549V174.31Z" fill="#2B2B2A"/>
<path d="M204.549 167.14H197.449V174.31H204.549V167.14Z" fill="#3D3D3B"/>
<path d="M204.549 160.04H197.449V167.14H204.549V160.04Z" fill="#3D3D3B"/>
<path d="M204.549 152.87H197.449V160.04H204.549V152.87Z" fill="#3D3D3B"/>
<path d="M204.549 145.78H197.449V152.88H204.549V145.78Z" fill="black"/>
<path d="M204.549 138.61H197.449V145.78H204.549V138.61Z" fill="#F7AB94"/>
<path d="M204.549 131.44H197.449V138.61H204.549V131.44Z" fill="#F7AB94"/>
<path d="M204.549 124.34H197.449V131.44H204.549V124.34Z" fill="#F7AB94"/>
<path d="M204.549 117.19H197.449V124.36H204.549V117.19Z" fill="#F7AB94"/>
<path d="M204.549 110.09H197.449V117.19H204.549V110.09Z" fill="#F7AB94"/>
<path d="M204.549 102.92H197.449V110.09H204.549V102.92Z" fill="#2B2B2A"/>
<path d="M204.549 95.8201H197.449V102.92H204.549V95.8201Z" fill="#3D3D3B"/>
<path d="M204.549 88.6499H197.449V95.8199H204.549V88.6499Z" fill="#3D3D3B"/>
<path d="M204.549 81.5601H197.449V88.6601H204.549V81.5601Z" fill="black"/>
<path d="M197.449 288.48H190.279V295.58H197.449V288.48Z" fill="black"/>
<path d="M197.449 281.31H190.279V288.48H197.449V281.31Z" fill="black"/>
<path d="M197.449 274.22H190.279V281.32H197.449V274.22Z" fill="black"/>
<path d="M197.449 267.05H190.279V274.22H197.449V267.05Z" fill="#B5A518"/>
<path d="M197.449 259.95H190.279V267.05H197.449V259.95Z" fill="#B5A518"/>
<path d="M197.449 252.78H190.279V259.95H197.449V252.78Z" fill="#2B2B2A"/>
<path d="M197.449 245.61H190.279V252.78H197.449V245.61Z" fill="#2B2B2A"/>
<path d="M197.449 238.52H190.279V245.62H197.449V238.52Z" fill="#2B2B2A"/>
<path d="M197.449 231.36H190.279V238.53H197.449V231.36Z" fill="black"/>
<path d="M197.449 224.26H190.279V231.36H197.449V224.26Z" fill="#373801"/>
<path d="M197.449 217.09H190.279V224.26H197.449V217.09Z" fill="#B5A518"/>
<path d="M197.449 210H190.279V217.1H197.449V210Z" fill="#B5A518"/>
<path d="M197.449 202.83H190.279V210H197.449V202.83Z" fill="#5C6302"/>
<path d="M197.449 195.73H190.279V202.83H197.449V195.73Z" fill="#B5A518"/>
<path d="M197.449 188.56H190.279V195.73H197.449V188.56Z" fill="#B5A518"/>
<path d="M197.449 181.39H190.279V188.56H197.449V181.39Z" fill="#5C6302"/>
<path d="M197.449 174.31H190.279V181.41H197.449V174.31Z" fill="#2B2B2A"/>
<path d="M197.449 167.14H190.279V174.31H197.449V167.14Z" fill="#3D3D3B"/>
<path d="M197.449 160.04H190.279V167.14H197.449V160.04Z" fill="#3D3D3B"/>
<path d="M197.449 152.87H190.279V160.04H197.449V152.87Z" fill="#3D3D3B"/>
<path d="M197.449 145.78H190.279V152.88H197.449V145.78Z" fill="black"/>
<path d="M197.449 138.61H190.279V145.78H197.449V138.61Z" fill="#F7AB94"/>
<path d="M197.449 131.44H190.279V138.61H197.449V131.44Z" fill="#F7AB94"/>
<path d="M197.449 124.34H190.279V131.44H197.449V124.34Z" fill="#F7AB94"/>
<path d="M197.449 117.19H190.279V124.36H197.449V117.19Z" fill="#F7AB94"/>
<path d="M197.449 110.09H190.279V117.19H197.449V110.09Z" fill="#F7AB94"/>
<path d="M197.449 102.92H190.279V110.09H197.449V102.92Z" fill="#3D3D3B"/>
<path d="M197.449 95.8201H190.279V102.92H197.449V95.8201Z" fill="#3D3D3B"/>
<path d="M197.449 88.6499H190.279V95.8199H197.449V88.6499Z" fill="#3D3D3B"/>
<path d="M197.449 81.5601H190.279V88.6601H197.449V81.5601Z" fill="black"/>
<path d="M190.289 309.91H183.189V317.01H190.289V309.91Z" fill="black"/>
<path d="M190.289 302.74H183.189V309.91H190.289V302.74Z" fill="black"/>
<path d="M190.289 295.57H183.189V302.74H190.289V295.57Z" fill="black"/>
<path d="M190.289 288.48H183.189V295.58H190.289V288.48Z" fill="#3F1401"/>
<path d="M190.289 281.31H183.189V288.48H190.289V281.31Z" fill="#3F1401"/>
<path d="M190.289 274.22H183.189V281.32H190.289V274.22Z" fill="black"/>
<path d="M190.289 267.05H183.189V274.22H190.289V267.05Z" fill="#B5A518"/>
<path d="M190.289 259.95H183.189V267.05H190.289V259.95Z" fill="#2B2B2A"/>
<path d="M190.289 252.78H183.189V259.95H190.289V252.78Z" fill="#2B2B2A"/>
<path d="M190.289 245.61H183.189V252.78H190.289V245.61Z" fill="#3D3D3B"/>
<path d="M190.289 238.52H183.189V245.62H190.289V238.52Z" fill="#2B2B2A"/>
<path d="M190.289 231.36H183.189V238.53H190.289V231.36Z" fill="black"/>
<path d="M190.289 224.26H183.189V231.36H190.289V224.26Z" fill="#373801"/>
<path d="M190.289 217.09H183.189V224.26H190.289V217.09Z" fill="#373801"/>
<path d="M190.289 210H183.189V217.1H190.289V210Z" fill="#5C6302"/>
<path d="M190.289 202.83H183.189V210H190.289V202.83Z" fill="#5C6302"/>
<path d="M190.289 195.73H183.189V202.83H190.289V195.73Z" fill="#B5A518"/>
<path d="M190.289 188.56H183.189V195.73H190.289V188.56Z" fill="#B5A518"/>
<path d="M190.289 181.39H183.189V188.56H190.289V181.39Z" fill="#373801"/>
<path d="M190.289 174.31H183.189V181.41H190.289V174.31Z" fill="#2B2B2A"/>
<path d="M190.289 167.14H183.189V174.31H190.289V167.14Z" fill="#3D3D3B"/>
<path d="M190.289 160.04H183.189V167.14H190.289V160.04Z" fill="#3D3D3B"/>
<path d="M190.289 152.87H183.189V160.04H190.289V152.87Z" fill="#3D3D3B"/>
<path d="M190.289 145.78H183.189V152.88H190.289V145.78Z" fill="black"/>
<path d="M190.289 138.61H183.189V145.78H190.289V138.61Z" fill="#F7AB94"/>
<path d="M190.289 131.44H183.189V138.61H190.289V131.44Z" fill="#F7AB94"/>
<path d="M190.289 124.34H183.189V131.44H190.289V124.34Z" fill="#F7AB94"/>
<path d="M190.289 117.19H183.189V124.36H190.289V117.19Z" fill="#F7AB94"/>
<path d="M190.289 110.09H183.189V117.19H190.289V110.09Z" fill="#3D3D3B"/>
<path d="M190.289 102.92H183.189V110.09H190.289V102.92Z" fill="#3D3D3B"/>
<path d="M190.289 95.8201H183.189V102.92H190.289V95.8201Z" fill="#3D3D3B"/>
<path d="M190.289 88.6499H183.189V95.8199H190.289V88.6499Z" fill="#3D3D3B"/>
<path d="M190.289 81.5601H183.189V88.6601H190.289V81.5601Z" fill="black"/>
<path d="M183.19 331.27H176.02V338.44H183.19V331.27Z" fill="black"/>
<path d="M183.19 324.17H176.02V331.27H183.19V324.17Z" fill="black"/>
<path d="M183.19 317H176.02V324.17H183.19V317Z" fill="black"/>
<path d="M183.19 309.91H176.02V317.01H183.19V309.91Z" fill="#3F1401"/>
<path d="M183.19 302.74H176.02V309.91H183.19V302.74Z" fill="#3F1401"/>
<path d="M183.19 295.57H176.02V302.74H183.19V295.57Z" fill="#3F1401"/>
<path d="M183.19 288.48H176.02V295.58H183.19V288.48Z" fill="#3F1401"/>
<path d="M183.19 281.31H176.02V288.48H183.19V281.31Z" fill="#3F1401"/>
<path d="M183.19 274.22H176.02V281.32H183.19V274.22Z" fill="#3F1401"/>
<path d="M183.19 267.05H176.02V274.22H183.19V267.05Z" fill="black"/>
<path d="M183.19 259.95H176.02V267.05H183.19V259.95Z" fill="#2B2B2A"/>
<path d="M183.19 252.78H176.02V259.95H183.19V252.78Z" fill="#3D3D3B"/>
<path d="M183.19 245.61H176.02V252.78H183.19V245.61Z" fill="#3D3D3B"/>
<path d="M183.19 238.52H176.02V245.62H183.19V238.52Z" fill="#3D3D3B"/>
<path d="M183.19 231.36H176.02V238.53H183.19V231.36Z" fill="#3D3D3B"/>
<path d="M183.19 224.26H176.02V231.36H183.19V224.26Z" fill="black"/>
<path d="M183.19 217.09H176.02V224.26H183.19V217.09Z" fill="#373801"/>
<path d="M183.19 210H176.02V217.1H183.19V210Z" fill="#5C6302"/>
<path d="M183.19 202.83H176.02V210H183.19V202.83Z" fill="#5C6302"/>
<path d="M183.19 195.73H176.02V202.83H183.19V195.73Z" fill="#5C6302"/>
<path d="M183.19 188.56H176.02V195.73H183.19V188.56Z" fill="#373801"/>
<path d="M183.19 181.39H176.02V188.56H183.19V181.39Z" fill="#B5A518"/>
<path d="M183.19 174.31H176.02V181.41H183.19V174.31Z" fill="#B5A518"/>
<path d="M183.19 167.14H176.02V174.31H183.19V167.14Z" fill="#3D3D3B"/>
<path d="M183.19 160.04H176.02V167.14H183.19V160.04Z" fill="#3D3D3B"/>
<path d="M183.19 152.87H176.02V160.04H183.19V152.87Z" fill="#3D3D3B"/>
<path d="M183.19 145.78H176.02V152.88H183.19V145.78Z" fill="#2B2B2A"/>
<path d="M183.19 138.61H176.02V145.78H183.19V138.61Z" fill="black"/>
<path d="M183.19 131.44H176.02V138.61H183.19V131.44Z" fill="#F7AB94"/>
<path d="M183.19 124.34H176.02V131.44H183.19V124.34Z" fill="#F7AB94"/>
<path d="M183.19 117.19H176.02V124.36H183.19V117.19Z" fill="#F7AB94"/>
<path d="M183.19 110.09H176.02V117.19H183.19V110.09Z" fill="#3D3D3B"/>
<path d="M183.19 102.92H176.02V110.09H183.19V102.92Z" fill="#3D3D3B"/>
<path d="M183.19 95.8201H176.02V102.92H183.19V95.8201Z" fill="#3D3D3B"/>
<path d="M183.19 88.6499H176.02V95.8199H183.19V88.6499Z" fill="black"/>
<path d="M176.03 331.27H168.93V338.44H176.03V331.27Z" fill="black"/>
<path d="M176.03 324.17H168.93V331.27H176.03V324.17Z" fill="#3F1401"/>
<path d="M176.03 317H168.93V324.17H176.03V317Z" fill="#3F1401"/>
<path d="M176.03 309.91H168.93V317.01H176.03V309.91Z" fill="#5B1E00"/>
<path d="M176.03 302.74H168.93V309.91H176.03V302.74Z" fill="#660801"/>
<path d="M176.03 295.57H168.93V302.74H176.03V295.57Z" fill="#660801"/>
<path d="M176.03 288.48H168.93V295.58H176.03V288.48Z" fill="#5B1E00"/>
<path d="M176.03 281.31H168.93V288.48H176.03V281.31Z" fill="#3F1401"/>
<path d="M176.03 274.22H168.93V281.32H176.03V274.22Z" fill="#5B1E00"/>
<path d="M176.03 267.05H168.93V274.22H176.03V267.05Z" fill="black"/>
<path d="M176.03 259.95H168.93V267.05H176.03V259.95Z" fill="#3D3D3B"/>
<path d="M176.03 252.78H168.93V259.95H176.03V252.78Z" fill="#3D3D3B"/>
<path d="M176.03 245.61H168.93V252.78H176.03V245.61Z" fill="#3D3D3B"/>
<path d="M176.03 238.52H168.93V245.62H176.03V238.52Z" fill="#2B2B2A"/>
<path d="M176.03 231.36H168.93V238.53H176.03V231.36Z" fill="#2B2B2A"/>
<path d="M176.03 224.26H168.93V231.36H176.03V224.26Z" fill="black"/>
<path d="M176.03 217.09H168.93V224.26H176.03V217.09Z" fill="#373801"/>
<path d="M176.03 210H168.93V217.1H176.03V210Z" fill="#5C6302"/>
<path d="M176.03 202.83H168.93V210H176.03V202.83Z" fill="#5C6302"/>
<path d="M176.03 195.73H168.93V202.83H176.03V195.73Z" fill="#373801"/>
<path d="M176.03 188.56H168.93V195.73H176.03V188.56Z" fill="#373801"/>
<path d="M176.03 181.39H168.93V188.56H176.03V181.39Z" fill="#373801"/>
<path d="M176.03 174.31H168.93V181.41H176.03V174.31Z" fill="#373801"/>
<path d="M176.03 167.14H168.93V174.31H176.03V167.14Z" fill="#373801"/>
<path d="M176.03 160.04H168.93V167.14H176.03V160.04Z" fill="#3D3D3B"/>
<path d="M176.03 152.87H168.93V160.04H176.03V152.87Z" fill="#2B2B2A"/>
<path d="M176.03 145.78H168.93V152.88H176.03V145.78Z" fill="#2B2B2A"/>
<path d="M176.03 138.61H168.93V145.78H176.03V138.61Z" fill="black"/>
<path d="M176.03 131.44H168.93V138.61H176.03V131.44Z" fill="#F7AB94"/>
<path d="M176.03 124.34H168.93V131.44H176.03V124.34Z" fill="#F7AB94"/>
<path d="M176.03 117.19H168.93V124.36H176.03V117.19Z" fill="#2B2B2A"/>
<path d="M176.03 110.09H168.93V117.19H176.03V110.09Z" fill="#3D3D3B"/>
<path d="M176.03 102.92H168.93V110.09H176.03V102.92Z" fill="#3D3D3B"/>
<path d="M176.03 95.8201H168.93V102.92H176.03V95.8201Z" fill="#3D3D3B"/>
<path d="M176.03 88.6499H168.93V95.8199H176.03V88.6499Z" fill="black"/>
<path d="M168.93 331.27H161.76V338.44H168.93V331.27Z" fill="black"/>
<path d="M168.93 324.17H161.76V331.27H168.93V324.17Z" fill="#660801"/>
<path d="M168.93 317H161.76V324.17H168.93V317Z" fill="#3F1401"/>
<path d="M168.93 309.91H161.76V317.01H168.93V309.91Z" fill="#5B1E00"/>
<path d="M168.93 302.74H161.76V309.91H168.93V302.74Z" fill="#660801"/>
<path d="M168.93 295.57H161.76V302.74H168.93V295.57Z" fill="#5B1E00"/>
<path d="M168.93 288.48H161.76V295.58H168.93V288.48Z" fill="#5B1E00"/>
<path d="M168.93 281.31H161.76V288.48H168.93V281.31Z" fill="#3F1401"/>
<path d="M168.93 274.22H161.76V281.32H168.93V274.22Z" fill="#5B1E00"/>
<path d="M168.93 267.05H161.76V274.22H168.93V267.05Z" fill="black"/>
<path d="M168.93 259.95H161.76V267.05H168.93V259.95Z" fill="#B5A518"/>
<path d="M168.93 252.78H161.76V259.95H168.93V252.78Z" fill="#B5A518"/>
<path d="M168.93 245.61H161.76V252.78H168.93V245.61Z" fill="black"/>
<path d="M168.93 238.52H161.76V245.62H168.93V238.52Z" fill="black"/>
<path d="M168.93 231.36H161.76V238.53H168.93V231.36Z" fill="black"/>
<path d="M168.93 224.26H161.76V231.36H168.93V224.26Z" fill="#3F1401"/>
<path d="M168.93 217.09H161.76V224.26H168.93V217.09Z" fill="black"/>
<path d="M168.93 210H161.76V217.1H168.93V210Z" fill="black"/>
<path d="M168.93 202.83H161.76V210H168.93V202.83Z" fill="black"/>
<path d="M168.93 195.73H161.76V202.83H168.93V195.73Z" fill="black"/>
<path d="M168.93 188.56H161.76V195.73H168.93V188.56Z" fill="black"/>
<path d="M168.93 181.39H161.76V188.56H168.93V181.39Z" fill="#373801"/>
<path d="M168.93 174.31H161.76V181.41H168.93V174.31Z" fill="black"/>
<path d="M168.93 167.14H161.76V174.31H168.93V167.14Z" fill="black"/>
<path d="M168.93 160.04H161.76V167.14H168.93V160.04Z" fill="black"/>
<path d="M168.93 152.87H161.76V160.04H168.93V152.87Z" fill="#2B2B2A"/>
<path d="M168.93 145.78H161.76V152.88H168.93V145.78Z" fill="#2B2B2A"/>
<path d="M168.93 138.61H161.76V145.78H168.93V138.61Z" fill="#2B2B2A"/>
<path d="M168.93 131.44H161.76V138.61H168.93V131.44Z" fill="black"/>
<path d="M168.93 124.34H161.76V131.44H168.93V124.34Z" fill="black"/>
<path d="M168.93 117.19H161.76V124.36H168.93V117.19Z" fill="#2B2B2A"/>
<path d="M168.93 110.09H161.76V117.19H168.93V110.09Z" fill="#3D3D3B"/>
<path d="M168.93 102.92H161.76V110.09H168.93V102.92Z" fill="black"/>
<path d="M168.93 95.8201H161.76V102.92H168.93V95.8201Z" fill="black"/>
<path d="M161.76 331.27H154.59V338.44H161.76V331.27Z" fill="black"/>
<path d="M161.76 324.17H154.59V331.27H161.76V324.17Z" fill="#660801"/>
<path d="M161.76 317H154.59V324.17H161.76V317Z" fill="#660801"/>
<path d="M161.76 309.91H154.59V317.01H161.76V309.91Z" fill="#5B1E00"/>
<path d="M161.76 302.74H154.59V309.91H161.76V302.74Z" fill="black"/>
<path d="M161.76 295.57H154.59V302.74H161.76V295.57Z" fill="black"/>
<path d="M161.76 288.48H154.59V295.58H161.76V288.48Z" fill="black"/>
<path d="M161.76 281.31H154.59V288.48H161.76V281.31Z" fill="black"/>
<path d="M161.76 274.22H154.59V281.32H161.76V274.22Z" fill="black"/>
<path d="M161.76 259.95H154.59V267.05H161.76V259.95Z" fill="black"/>
<path d="M161.76 252.78H154.59V259.95H161.76V252.78Z" fill="black"/>
<path d="M161.76 245.61H154.59V252.78H161.76V245.61Z" fill="#3F1401"/>
<path d="M161.76 238.52H154.59V245.62H161.76V238.52Z" fill="#3F1401"/>
<path d="M161.76 231.36H154.59V238.53H161.76V231.36Z" fill="#3F1401"/>
<path d="M161.76 224.26H154.59V231.36H161.76V224.26Z" fill="black"/>
<path d="M161.76 217.09H154.59V224.26H161.76V217.09Z" fill="black"/>
<path d="M161.76 210H154.59V217.1H161.76V210Z" fill="#B5A518"/>
<path d="M161.76 202.83H154.59V210H161.76V202.83Z" fill="#B5A518"/>
<path d="M161.76 195.73H154.59V202.83H161.76V195.73Z" fill="#B5A518"/>
<path d="M161.76 188.56H154.59V195.73H161.76V188.56Z" fill="black"/>
<path d="M161.76 181.39H154.59V188.56H161.76V181.39Z" fill="black"/>
<path d="M161.76 174.31H154.59V181.41H161.76V174.31Z" fill="black"/>
<path d="M161.76 167.14H154.59V174.31H161.76V167.14Z" fill="#2B2B2A"/>
<path d="M161.76 160.04H154.59V167.14H161.76V160.04Z" fill="#2B2B2A"/>
<path d="M161.76 152.87H154.59V160.04H161.76V152.87Z" fill="#3D3D3B"/>
<path d="M161.76 145.78H154.59V152.88H161.76V145.78Z" fill="#2B2B2A"/>
<path d="M161.76 138.61H154.59V145.78H161.76V138.61Z" fill="black"/>
<path d="M161.76 131.44H154.59V138.61H161.76V131.44Z" fill="black"/>
<path d="M161.76 117.19H154.59V124.36H161.76V117.19Z" fill="black"/>
<path d="M161.76 110.09H154.59V117.19H161.76V110.09Z" fill="black"/>
<path d="M154.6 331.27H147.5V338.44H154.6V331.27Z" fill="black"/>
<path d="M154.6 324.17H147.5V331.27H154.6V324.17Z" fill="#660801"/>
<path d="M154.6 317H147.5V324.17H154.6V317Z" fill="#660801"/>
<path d="M154.6 309.91H147.5V317.01H154.6V309.91Z" fill="black"/>
<path d="M154.6 259.95H147.5V267.05H154.6V259.95Z" fill="black"/>
<path d="M154.6 252.78H147.5V259.95H154.6V252.78Z" fill="#3D3D3B"/>
<path d="M154.6 245.61H147.5V252.78H154.6V245.61Z" fill="#3D3D3B"/>
<path d="M154.6 238.52H147.5V245.62H154.6V238.52Z" fill="#3F1401"/>
<path d="M154.6 231.36H147.5V238.53H154.6V231.36Z" fill="black"/>
<path d="M154.6 224.26H147.5V231.36H154.6V224.26Z" fill="#DD8976"/>
<path d="M154.6 217.09H147.5V224.26H154.6V217.09Z" fill="#373801"/>
<path d="M154.6 210H147.5V217.1H154.6V210Z" fill="#5C6302"/>
<path d="M154.6 202.83H147.5V210H154.6V202.83Z" fill="#5C6302"/>
<path d="M154.6 195.73H147.5V202.83H154.6V195.73Z" fill="#373801"/>
<path d="M154.6 188.56H147.5V195.73H154.6V188.56Z" fill="#373801"/>
<path d="M154.6 181.39H147.5V188.56H154.6V181.39Z" fill="#373801"/>
<path d="M154.6 174.31H147.5V181.41H154.6V174.31Z" fill="black"/>
<path d="M154.6 167.14H147.5V174.31H154.6V167.14Z" fill="#2B2B2A"/>
<path d="M154.6 160.04H147.5V167.14H154.6V160.04Z" fill="#3D3D3B"/>
<path d="M154.6 152.87H147.5V160.04H154.6V152.87Z" fill="#3D3D3B"/>
<path d="M154.6 145.78H147.5V152.88H154.6V145.78Z" fill="#3D3D3B"/>
<path d="M154.6 138.61H147.5V145.78H154.6V138.61Z" fill="black"/>
<path d="M147.5 331.27H140.33V338.44H147.5V331.27Z" fill="black"/>
<path d="M147.5 324.17H140.33V331.27H147.5V324.17Z" fill="black"/>
<path d="M147.5 317H140.33V324.17H147.5V317Z" fill="black"/>
<path d="M147.5 252.78H140.33V259.95H147.5V252.78Z" fill="black"/>
<path d="M147.5 245.61H140.33V252.78H147.5V245.61Z" fill="#3D3D3B"/>
<path d="M147.5 238.52H140.33V245.62H147.5V238.52Z" fill="black"/>
<path d="M147.5 231.36H140.33V238.53H147.5V231.36Z" fill="#DD8976"/>
<path d="M147.5 224.26H140.33V231.36H147.5V224.26Z" fill="#DD8976"/>
<path d="M147.5 217.09H140.33V224.26H147.5V217.09Z" fill="#5C6302"/>
<path d="M147.5 210H140.33V217.1H147.5V210Z" fill="#5C6302"/>
<path d="M147.5 202.83H140.33V210H147.5V202.83Z" fill="#373801"/>
<path d="M147.5 195.73H140.33V202.83H147.5V195.73Z" fill="#373801"/>
<path d="M147.5 188.56H140.33V195.73H147.5V188.56Z" fill="#5C6302"/>
<path d="M147.5 181.39H140.33V188.56H147.5V181.39Z" fill="#5C6302"/>
<path d="M147.5 174.31H140.33V181.41H147.5V174.31Z" fill="black"/>
<path d="M147.5 167.14H140.33V174.31H147.5V167.14Z" fill="#3D3D3B"/>
<path d="M147.5 160.04H140.33V167.14H147.5V160.04Z" fill="#3D3D3B"/>
<path d="M147.5 152.87H140.33V160.04H147.5V152.87Z" fill="#3D3D3B"/>
<path d="M147.5 145.78H140.33V152.88H147.5V145.78Z" fill="#2B2B2A"/>
<path d="M147.5 138.61H140.33V145.78H147.5V138.61Z" fill="black"/>
<path d="M140.33 252.78H133.23V259.95H140.33V252.78Z" fill="black"/>
<path d="M140.33 245.61H133.23V252.78H140.33V245.61Z" fill="#5C6302"/>
<path d="M140.33 238.52H133.23V245.62H140.33V238.52Z" fill="black"/>
<path d="M140.33 231.36H133.23V238.53H140.33V231.36Z" fill="#DD8976"/>
<path d="M140.33 224.26H133.23V231.36H140.33V224.26Z" fill="#F7AB94"/>
<path d="M140.33 217.09H133.23V224.26H140.33V217.09Z" fill="#F7AB94"/>
<path d="M140.33 210H133.23V217.1H140.33V210Z" fill="#373801"/>
<path d="M140.33 202.83H133.23V210H140.33V202.83Z" fill="#373801"/>
<path d="M140.33 195.73H133.23V202.83H140.33V195.73Z" fill="#5C6302"/>
<path d="M140.33 188.56H133.23V195.73H140.33V188.56Z" fill="#5C6302"/>
<path d="M140.33 181.39H133.23V188.56H140.33V181.39Z" fill="#5C6302"/>
<path d="M140.33 174.31H133.23V181.41H140.33V174.31Z" fill="#5C6302"/>
<path d="M140.33 167.14H133.23V174.31H140.33V167.14Z" fill="black"/>
<path d="M140.33 160.04H133.23V167.14H140.33V160.04Z" fill="#2B2B2A"/>
<path d="M140.33 152.87H133.23V160.04H140.33V152.87Z" fill="#2B2B2A"/>
<path d="M140.33 145.78H133.23V152.88H140.33V145.78Z" fill="black"/>
<path d="M133.231 259.95H126.061V267.05H133.231V259.95Z" fill="black"/>
<path d="M133.231 252.78H126.061V259.95H133.231V252.78Z" fill="#5C6302"/>
<path d="M133.231 245.61H126.061V252.78H133.231V245.61Z" fill="#5C6302"/>
<path d="M133.231 238.52H126.061V245.62H133.231V238.52Z" fill="#8A8D8E"/>
<path d="M133.231 231.36H126.061V238.53H133.231V231.36Z" fill="black"/>
<path d="M133.231 224.26H126.061V231.36H133.231V224.26Z" fill="#F7AB94"/>
<path d="M133.231 217.09H126.061V224.26H133.231V217.09Z" fill="black"/>
<path d="M133.231 210H126.061V217.1H133.231V210Z" fill="black"/>
<path d="M133.231 202.83H126.061V210H133.231V202.83Z" fill="black"/>
<path d="M133.231 195.73H126.061V202.83H133.231V195.73Z" fill="black"/>
<path d="M133.231 188.56H126.061V195.73H133.231V188.56Z" fill="black"/>
<path d="M133.231 181.39H126.061V188.56H133.231V181.39Z" fill="black"/>
<path d="M133.231 174.31H126.061V181.41H133.231V174.31Z" fill="black"/>
<path d="M133.231 160.04H126.061V167.14H133.231V160.04Z" fill="black"/>
<path d="M133.231 152.87H126.061V160.04H133.231V152.87Z" fill="black"/>
<path d="M126.071 252.78H118.971V259.95H126.071V252.78Z" fill="black"/>
<path d="M126.071 245.61H118.971V252.78H126.071V245.61Z" fill="black"/>
<path d="M126.071 238.52H118.971V245.62H126.071V238.52Z" fill="#8A8D8E"/>
<path d="M126.071 231.36H118.971V238.53H126.071V231.36Z" fill="#8A8D8E"/>
<path d="M126.071 224.26H118.971V231.36H126.071V224.26Z" fill="black"/>
<path d="M126.071 217.09H118.971V224.26H126.071V217.09Z" fill="#8A8D8E"/>
<path d="M118.981 238.52H111.811V245.62H118.981V238.52Z" fill="black"/>
<path d="M118.981 231.36H111.811V238.53H118.981V231.36Z" fill="#8A8D8E"/>
<path d="M118.981 224.26H111.811V231.36H118.981V224.26Z" fill="black"/>
<path d="M118.981 217.09H111.811V224.26H118.981V217.09Z" fill="#8A8D8E"/>
<path d="M118.981 210H111.811V217.1H118.981V210Z" fill="#8A8D8E"/>
<path d="M111.811 238.52H104.641V245.62H111.811V238.52Z" fill="black"/>
<path d="M111.811 231.36H104.641V238.53H111.811V231.36Z" fill="#8A8D8E"/>
<path d="M111.811 224.26H104.641V231.36H111.811V224.26Z" fill="#8A8D8E"/>
<path d="M111.811 217.09H104.641V224.26H111.811V217.09Z" fill="black"/>
<path d="M111.811 210H104.641V217.1H111.811V210Z" fill="#8A8D8E"/>
<path d="M104.639 231.36H97.5391V238.53H104.639V231.36Z" fill="black"/>
<path d="M104.639 224.26H97.5391V231.36H104.639V224.26Z" fill="#8A8D8E"/>
<path d="M224.59 200.79H220.93V204.45H224.59V200.79Z" fill="#373801"/>
<path d="M224.59 197.2H220.93V200.78H224.59V197.2Z" fill="#373801"/>
<path d="M224.59 193.62H220.93V197.2H224.59V193.62Z" fill="#373801"/>
<path d="M220.93 197.2H217.35V200.78H220.93V197.2Z" fill="#373801"/>
<path d="M220.93 193.62H217.35V197.2H220.93V193.62Z" fill="#373801"/>
<path d="M220.93 189.96H217.35V193.62H220.93V189.96Z" fill="#373801"/>
<path d="M220.93 186.38H217.35V189.96H220.93V186.38Z" fill="#373801"/>
<path d="M217.34 193.62H213.76V197.2H217.34V193.62Z" fill="#373801"/>
<path d="M217.34 189.96H213.76V193.62H217.34V189.96Z" fill="#373801"/>
<path d="M217.34 186.38H213.76V189.96H217.34V186.38Z" fill="#373801"/>
<path d="M213.769 189.96H210.109V193.62H213.769V189.96Z" fill="#373801"/>
<path d="M213.769 186.38H210.109V189.96H213.769V186.38Z" fill="#373801"/>
<path d="M213.769 182.71H210.109V186.37H213.769V182.71Z" fill="#373801"/>
<path d="M213.769 179.14H210.109V182.72H213.769V179.14Z" fill="#373801"/>
<path d="M213.769 175.55H210.109V179.13H213.769V175.55Z" fill="#373801"/>
<path d="M213.769 171.88H210.109V175.54H213.769V171.88Z" fill="#111110"/>
<path d="M210.1 186.38H206.52V189.96H210.1V186.38Z" fill="#373801"/>
<path d="M210.1 182.71H206.52V186.37H210.1V182.71Z" fill="#373801"/>
<path d="M210.1 179.14H206.52V182.72H210.1V179.14Z" fill="#373801"/>
<path d="M210.1 175.55H206.52V179.13H210.1V175.55Z" fill="#373801"/>
<path d="M210.1 171.88H206.52V175.54H210.1V171.88Z" fill="#111110"/>
<path d="M206.529 200.79H202.869V204.45H206.529V200.79Z" fill="#5C6302"/>
<path d="M206.529 171.88H202.869V175.54H206.529V171.88Z" fill="#111110"/>
<path d="M202.859 124.93H199.279V128.59H202.859V124.93Z" fill="#282728"/>
<path d="M202.859 117.76H199.279V121.34H202.859V117.76Z" fill="#F7AB94"/>
<path d="M202.859 114.11H199.279V117.77H202.859V114.11Z" fill="#F7AB94"/>
<path d="M199.279 193.62H195.699V197.2H199.279V193.62Z" fill="#128986"/>
<path d="M199.279 135.83H195.699V139.41H199.279V135.83Z" fill="#DD0590"/>
<path d="M199.279 124.93H195.699V128.59H199.279V124.93Z" fill="#282728"/>
<path d="M199.279 117.76H195.699V121.34H199.279V117.76Z" fill="#F7AB94"/>
<path d="M195.699 197.2H192.039V200.78H195.699V197.2Z" fill="#128986"/>
<path d="M195.699 193.62H192.039V197.2H195.699V193.62Z" fill="#B5A518"/>
<path d="M195.699 189.96H192.039V193.62H195.699V189.96Z" fill="#128986"/>
<path d="M195.699 135.83H192.039V139.41H195.699V135.83Z" fill="#DD0590"/>
<path d="M192.041 193.62H188.461V197.2H192.041V193.62Z" fill="#128986"/>
<path d="M192.041 135.83H188.461V139.41H192.041V135.83Z" fill="#DD0590"/>
<path d="M188.449 135.83H184.869V139.41H188.449V135.83Z" fill="#DD0590"/>
<path d="M184.881 200.79H181.221V204.45H184.881V200.79Z" fill="#5C6302"/>
<path d="M184.881 171.88H181.221V175.54H184.881V171.88Z" fill="#111110"/>
<path d="M184.881 124.93H181.221V128.59H184.881V124.93Z" fill="#282728"/>
<path d="M181.211 186.38H177.631V189.96H181.211V186.38Z" fill="#373801"/>
<path d="M181.211 182.71H177.631V186.37H181.211V182.71Z" fill="#373801"/>
<path d="M181.211 179.14H177.631V182.72H181.211V179.14Z" fill="#373801"/>
<path d="M181.211 175.55H177.631V179.13H181.211V175.55Z" fill="#373801"/>
<path d="M181.211 171.88H177.631V175.54H181.211V171.88Z" fill="#111110"/>
<path d="M181.211 124.93H177.631V128.59H181.211V124.93Z" fill="#282728"/>
<path d="M181.211 117.76H177.631V121.34H181.211V117.76Z" fill="#F7AB94"/>
<path d="M177.64 186.38H173.98V189.96H177.64V186.38Z" fill="#373801"/>
<path d="M177.64 182.71H173.98V186.37H177.64V182.71Z" fill="#373801"/>
<path d="M177.64 179.14H173.98V182.72H177.64V179.14Z" fill="#373801"/>
<path d="M177.64 175.55H173.98V179.13H177.64V175.55Z" fill="#373801"/>
<path d="M177.64 171.88H173.98V175.54H177.64V171.88Z" fill="#111110"/>
<path d="M177.64 168.31H173.98V171.89H177.64V168.31Z" fill="#111110"/>
<path d="M177.64 164.73H173.98V168.31H177.64V164.73Z" fill="#111110"/>
<path d="M173.971 164.73H170.391V168.31H173.971V164.73Z" fill="#111110"/>
<path d="M170.391 164.73H166.811V168.31H170.391V164.73Z" fill="#111110"/>
<path d="M163.15 128.59H159.57V132.17H163.15V128.59Z" fill="#705E03"/>
<path d="M163.15 124.93H159.57V128.59H163.15V124.93Z" fill="black"/>
<path d="M163.15 121.35H159.57V124.93H163.15V121.35Z" fill="black"/>
<path d="M159.56 128.59H155.9V132.17H159.56V128.59Z" fill="#705E03"/>
<path d="M159.56 124.93H155.9V128.59H159.56V124.93Z" fill="#705E03"/>
<path d="M159.56 121.35H155.9V124.93H159.56V121.35Z" fill="black"/>
<path d="M155.91 135.83H152.33V139.41H155.91V135.83Z" fill="#705E03"/>
<path d="M155.91 132.17H152.33V135.83H155.91V132.17Z" fill="#705E03"/>
<path d="M155.91 128.59H152.33V132.17H155.91V128.59Z" fill="#705E03"/>
<path d="M155.91 124.93H152.33V128.59H155.91V124.93Z" fill="#705E03"/>
<path d="M155.91 121.35H152.33V124.93H155.91V121.35Z" fill="#705E03"/>
<path d="M155.91 117.76H152.33V121.34H155.91V117.76Z" fill="black"/>
<path d="M152.33 135.83H148.75V139.41H152.33V135.83Z" fill="#705E03"/>
<path d="M152.33 132.17H148.75V135.83H152.33V132.17Z" fill="#705E03"/>
<path d="M152.33 128.59H148.75V132.17H152.33V128.59Z" fill="#705E03"/>
<path d="M152.33 124.93H148.75V128.59H152.33V124.93Z" fill="#705E03"/>
<path d="M152.33 121.35H148.75V124.93H152.33V121.35Z" fill="#998304"/>
<path d="M152.33 117.76H148.75V121.34H152.33V117.76Z" fill="#998304"/>
<path d="M152.33 114.11H148.75V117.77H152.33V114.11Z" fill="black"/>
<path d="M148.74 135.83H145.08V139.41H148.74V135.83Z" fill="#705E03"/>
<path d="M148.74 132.17H145.08V135.83H148.74V132.17Z" fill="#705E03"/>
<path d="M148.74 128.59H145.08V132.17H148.74V128.59Z" fill="#998304"/>
<path d="M148.74 124.93H145.08V128.59H148.74V124.93Z" fill="#998304"/>
<path d="M148.74 121.35H145.08V124.93H148.74V121.35Z" fill="#998304"/>
<path d="M148.74 117.76H145.08V121.34H148.74V117.76Z" fill="#BFA908"/>
<path d="M148.74 114.11H145.08V117.77H148.74V114.11Z" fill="#BFA908"/>
<path d="M148.74 110.52H145.08V114.1H148.74V110.52Z" fill="black"/>
<path d="M148.74 106.87H145.08V110.53H148.74V106.87Z" fill="black"/>
<path d="M145.07 135.83H141.49V139.41H145.07V135.83Z" fill="#705E03"/>
<path d="M145.07 132.17H141.49V135.83H145.07V132.17Z" fill="#998304"/>
<path d="M145.07 128.59H141.49V132.17H145.07V128.59Z" fill="#998304"/>
<path d="M145.07 124.93H141.49V128.59H145.07V124.93Z" fill="#BFA908"/>
<path d="M145.07 121.35H141.49V124.93H145.07V121.35Z" fill="#BFA908"/>
<path d="M145.07 117.76H141.49V121.34H145.07V117.76Z" fill="#BFA908"/>
<path d="M145.07 114.11H141.49V117.77H145.07V114.11Z" fill="black"/>
<path d="M145.07 110.52H141.49V114.1H145.07V110.52Z" fill="black"/>
<path d="M141.5 143H137.92V146.66H141.5V143Z" fill="#705E03"/>
<path d="M141.5 139.41H137.92V142.99H141.5V139.41Z" fill="#705E03"/>
<path d="M141.5 135.83H137.92V139.41H141.5V135.83Z" fill="#998304"/>
<path d="M141.5 132.17H137.92V135.83H141.5V132.17Z" fill="#998304"/>
<path d="M141.5 128.59H137.92V132.17H141.5V128.59Z" fill="#BFA908"/>
<path d="M141.5 124.93H137.92V128.59H141.5V124.93Z" fill="#BFA908"/>
<path d="M141.5 121.35H137.92V124.93H141.5V121.35Z" fill="#BFA908"/>
<path d="M141.5 117.76H137.92V121.34H141.5V117.76Z" fill="black"/>
<path d="M141.5 114.11H137.92V117.77H141.5V114.11Z" fill="black"/>
<path d="M137.91 143H134.25V146.66H137.91V143Z" fill="#705E03"/>
<path d="M137.91 139.41H134.25V142.99H137.91V139.41Z" fill="#998304"/>
<path d="M137.91 135.83H134.25V139.41H137.91V135.83Z" fill="#998304"/>
<path d="M137.91 132.17H134.25V135.83H137.91V132.17Z" fill="#BFA908"/>
<path d="M137.91 128.59H134.25V132.17H137.91V128.59Z" fill="#BFA908"/>
<path d="M137.91 124.93H134.25V128.59H137.91V124.93Z" fill="#BFA908"/>
<path d="M137.91 121.35H134.25V124.93H137.91V121.35Z" fill="black"/>
<path d="M137.91 117.76H134.25V121.34H137.91V117.76Z" fill="black"/>
<path d="M137.91 110.52H134.25V114.1H137.91V110.52Z" fill="black"/>
<path d="M134.25 143H130.67V146.66H134.25V143Z" fill="black"/>
<path d="M134.25 139.41H130.67V142.99H134.25V139.41Z" fill="#998304"/>
<path d="M134.25 135.83H130.67V139.41H134.25V135.83Z" fill="#998304"/>
<path d="M134.25 132.17H130.67V135.83H134.25V132.17Z" fill="#BFA908"/>
<path d="M134.25 128.59H130.67V132.17H134.25V128.59Z" fill="#BFA908"/>
<path d="M134.25 124.93H130.67V128.59H134.25V124.93Z" fill="black"/>
<path d="M134.25 121.35H130.67V124.93H134.25V121.35Z" fill="black"/>
<path d="M134.25 106.87H130.67V110.53H134.25V106.87Z" fill="black"/>
<path d="M130.67 139.41H127.01V142.99H130.67V139.41Z" fill="black"/>
<path d="M130.67 135.83H127.01V139.41H130.67V135.83Z" fill="#BFA908"/>
<path d="M130.67 132.17H127.01V135.83H130.67V132.17Z" fill="#BFA908"/>
<path d="M130.67 128.59H127.01V132.17H130.67V128.59Z" fill="black"/>
<path d="M130.67 124.93H127.01V128.59H130.67V124.93Z" fill="black"/>
<path d="M130.67 103.28H127.01V106.86H130.67V103.28Z" fill="black"/>
<path d="M130.67 99.7H127.01V103.28H130.67V99.7Z" fill="#545454"/>
<path d="M127.01 135.83H123.43V139.41H127.01V135.83Z" fill="black"/>
<path d="M127.01 132.17H123.43V135.83H127.01V132.17Z" fill="black"/>
<path d="M127.01 128.59H123.43V132.17H127.01V128.59Z" fill="black"/>
<path d="M127.01 121.35H123.43V124.93H127.01V121.35Z" fill="black"/>
<path d="M127.01 103.28H123.43V106.86H127.01V103.28Z" fill="#545454"/>
<path d="M127.01 99.7H123.43V103.28H127.01V99.7Z" fill="black"/>
<path d="M127.01 96.04H123.43V99.7H127.01V96.04Z" fill="#545454"/>
<path d="M123.42 135.83H119.84V139.41H123.42V135.83Z" fill="black"/>
<path d="M123.42 132.17H119.84V135.83H123.42V132.17Z" fill="black"/>
<path d="M123.42 117.76H119.84V121.34H123.42V117.76Z" fill="black"/>
<path d="M123.42 99.7H119.84V103.28H123.42V99.7Z" fill="#545454"/>
<path d="M123.42 96.04H119.84V99.7H123.42V96.04Z" fill="black"/>
<path d="M123.42 92.46H119.84V96.04H123.42V92.46Z" fill="#545454"/>
<path d="M119.849 114.11H116.189V117.77H119.849V114.11Z" fill="black"/>
<path d="M119.849 110.52H116.189V114.1H119.849V110.52Z" fill="#545454"/>
<path d="M119.849 96.04H116.189V99.7H119.849V96.04Z" fill="#545454"/>
<path d="M119.849 92.46H116.189V96.04H119.849V92.46Z" fill="black"/>
<path d="M119.849 88.8701H116.189V92.4501H119.849V88.8701Z" fill="#545454"/>
<path d="M116.18 114.11H112.6V117.77H116.18V114.11Z" fill="#545454"/>
<path d="M116.18 110.52H112.6V114.1H116.18V110.52Z" fill="black"/>
<path d="M116.18 106.87H112.6V110.53H116.18V106.87Z" fill="#545454"/>
<path d="M116.18 92.46H112.6V96.04H116.18V92.46Z" fill="#545454"/>
<path d="M112.6 110.52H109.02V114.1H112.6V110.52Z" fill="#545454"/>
<path d="M112.6 106.87H109.02V110.53H112.6V106.87Z" fill="black"/>
<path d="M112.6 103.28H109.02V106.86H112.6V103.28Z" fill="#545454"/>
<path d="M109.019 106.87H105.359V110.53H109.019V106.87Z" fill="#545454"/>
<path d="M109.019 103.28H105.359V106.86H109.019V103.28Z" fill="black"/>
<path d="M109.019 99.7H105.359V103.28H109.019V99.7Z" fill="#545454"/>
<path d="M105.359 103.28H101.779V106.86H105.359V103.28Z" fill="#545454"/>
</svg>
