<svg width="400" height="400" viewBox="0 0 400 400" fill="none" xmlns="http://www.w3.org/2000/svg">
<path d="M385.781 200C385.781 302.6 302.601 385.78 200.001 385.78C97.4007 385.78 14.2207 302.6 14.2207 200C14.2207 97.4 97.3907 14.22 200.001 14.22C302.611 14.22 385.781 97.4 385.781 200Z" fill="black"/>
<path d="M200.001 392.78C93.7007 392.78 7.2207 306.3 7.2207 200C7.2207 93.7 93.7007 7.21997 200.001 7.21997C306.301 7.21997 392.781 93.7 392.781 200C392.781 306.3 306.301 392.78 200.001 392.78ZM200.001 21.22C101.421 21.22 21.2207 101.42 21.2207 200C21.2207 298.58 101.421 378.78 200.001 378.78C298.581 378.78 378.781 298.58 378.781 200C378.781 101.42 298.581 21.22 200.001 21.22Z" fill="#79B6EE"/>
<path d="M328.11 159.05H321.43V165.79H328.11V159.05Z" fill="black"/>
<path d="M328.11 152.38H321.43V159.06H328.11V152.38Z" fill="black"/>
<path d="M328.11 145.63H321.43V152.37H328.11V145.63Z" fill="black"/>
<path d="M321.42 165.8H314.68V172.48H321.42V165.8Z" fill="black"/>
<path d="M321.42 159.05H314.68V165.79H321.42V159.05Z" fill="#5B271D"/>
<path d="M321.42 152.38H314.68V159.06H321.42V152.38Z" fill="#5B271D"/>
<path d="M321.42 145.63H314.68V152.37H321.42V145.63Z" fill="#5B271D"/>
<path d="M321.42 138.97H314.68V145.65H321.42V138.97Z" fill="black"/>
<path d="M314.7 165.8H308.02V172.48H314.7V165.8Z" fill="black"/>
<path d="M314.7 159.05H308.02V165.79H314.7V159.05Z" fill="#5B271D"/>
<path d="M314.7 152.38H308.02V159.06H314.7V152.38Z" fill="#5B271D"/>
<path d="M314.7 145.63H308.02V152.37H314.7V145.63Z" fill="black"/>
<path d="M308.01 246.36H301.27V253.04H308.01V246.36Z" fill="#B50012"/>
<path d="M308.01 172.46H301.27V179.2H308.01V172.46Z" fill="black"/>
<path d="M308.01 165.8H301.27V172.48H308.01V165.8Z" fill="black"/>
<path d="M308.01 159.05H301.27V165.79H308.01V159.05Z" fill="#5B271D"/>
<path d="M308.01 152.38H301.27V159.06H308.01V152.38Z" fill="black"/>
<path d="M301.28 253.03H294.6V259.77H301.28V253.03Z" fill="#B50012"/>
<path d="M301.28 246.36H294.6V253.04H301.28V246.36Z" fill="#B50012"/>
<path d="M301.28 172.46H294.6V179.2H301.28V172.46Z" fill="black"/>
<path d="M301.28 165.8H294.6V172.48H301.28V165.8Z" fill="#5B271D"/>
<path d="M301.28 159.05H294.6V165.79H301.28V159.05Z" fill="#5B271D"/>
<path d="M301.28 152.38H294.6V159.06H301.28V152.38Z" fill="black"/>
<path d="M301.28 125.48H294.6V132.22H301.28V125.48Z" fill="black"/>
<path d="M301.28 118.8H294.6V125.48H301.28V118.8Z" fill="black"/>
<path d="M301.28 112.07H294.6V118.81H301.28V112.07Z" fill="black"/>
<path d="M294.59 306.76H287.85V313.44H294.59V306.76Z" fill="#B50012"/>
<path d="M294.59 279.86H287.85V286.6H294.59V279.86Z" fill="#B50012"/>
<path d="M294.59 259.78H287.85V266.46H294.59V259.78Z" fill="#B50012"/>
<path d="M294.59 253.03H287.85V259.77H294.59V253.03Z" fill="#727B9B"/>
<path d="M294.59 246.36H287.85V253.04H294.59V246.36Z" fill="#B50012"/>
<path d="M294.59 179.21H287.85V185.95H294.59V179.21Z" fill="black"/>
<path d="M294.59 172.46H287.85V179.2H294.59V172.46Z" fill="black"/>
<path d="M294.59 165.8H287.85V172.48H294.59V165.8Z" fill="#5B271D"/>
<path d="M294.59 159.05H287.85V165.79H294.59V159.05Z" fill="black"/>
<path d="M294.59 138.97H287.85V145.65H294.59V138.97Z" fill="black"/>
<path d="M294.59 132.22H287.85V138.96H294.59V132.22Z" fill="black"/>
<path d="M294.59 125.48H287.85V132.22H294.59V125.48Z" fill="black"/>
<path d="M294.59 118.8H287.85V125.48H294.59V118.8Z" fill="#5B271D"/>
<path d="M294.59 112.07H287.85V118.81H294.59V112.07Z" fill="black"/>
<path d="M287.869 306.76H281.189V313.44H287.869V306.76Z" fill="#B50012"/>
<path d="M287.869 293.35H281.189V300.03H287.869V293.35Z" fill="#B50012"/>
<path d="M287.869 273.19H281.189V279.87H287.869V273.19Z" fill="#B50012"/>
<path d="M287.869 266.44H281.189V273.18H287.869V266.44Z" fill="#B50012"/>
<path d="M287.869 259.78H281.189V266.46H287.869V259.78Z" fill="#727B9B"/>
<path d="M287.869 253.03H281.189V259.77H287.869V253.03Z" fill="#727B9B"/>
<path d="M287.869 246.36H281.189V253.04H287.869V246.36Z" fill="#B50012"/>
<path d="M287.869 179.21H281.189V185.95H287.869V179.21Z" fill="black"/>
<path d="M287.869 172.46H281.189V179.2H287.869V172.46Z" fill="#5B271D"/>
<path d="M287.869 165.8H281.189V172.48H287.869V165.8Z" fill="#5B271D"/>
<path d="M287.869 159.05H281.189V165.79H287.869V159.05Z" fill="black"/>
<path d="M287.869 152.38H281.189V159.06H287.869V152.38Z" fill="black"/>
<path d="M287.869 145.63H281.189V152.37H287.869V145.63Z" fill="black"/>
<path d="M287.869 138.97H281.189V145.65H287.869V138.97Z" fill="#5B271D"/>
<path d="M287.869 132.22H281.189V138.96H287.869V132.22Z" fill="#5B271D"/>
<path d="M287.869 125.48H281.189V132.22H287.869V125.48Z" fill="#5B271D"/>
<path d="M287.869 118.8H281.189V125.48H287.869V118.8Z" fill="black"/>
<path d="M287.869 112.07H281.189V118.81H287.869V112.07Z" fill="black"/>
<path d="M281.179 306.76H274.439V313.44H281.179V306.76Z" fill="#B50012"/>
<path d="M281.179 300.02H274.439V306.76H281.179V300.02Z" fill="#B50012"/>
<path d="M281.179 266.44H274.439V273.18H281.179V266.44Z" fill="#B50012"/>
<path d="M281.179 259.78H274.439V266.46H281.179V259.78Z" fill="#727B9B"/>
<path d="M281.179 253.03H274.439V259.77H281.179V253.03Z" fill="#727B9B"/>
<path d="M281.179 246.36H274.439V253.04H281.179V246.36Z" fill="#B50012"/>
<path d="M281.179 179.21H274.439V185.95H281.179V179.21Z" fill="black"/>
<path d="M281.179 172.46H274.439V179.2H281.179V172.46Z" fill="#5B271D"/>
<path d="M281.179 165.8H274.439V172.48H281.179V165.8Z" fill="black"/>
<path d="M281.179 152.38H274.439V159.06H281.179V152.38Z" fill="black"/>
<path d="M281.179 145.63H274.439V152.37H281.179V145.63Z" fill="#5B271D"/>
<path d="M281.179 138.97H274.439V145.65H281.179V138.97Z" fill="#5B271D"/>
<path d="M281.179 132.22H274.439V138.96H281.179V132.22Z" fill="#5B271D"/>
<path d="M281.179 125.48H274.439V132.22H281.179V125.48Z" fill="black"/>
<path d="M281.179 118.8H274.439V125.48H281.179V118.8Z" fill="black"/>
<path d="M274.439 306.76H267.699V313.44H274.439V306.76Z" fill="#B50012"/>
<path d="M274.439 266.44H267.699V273.18H274.439V266.44Z" fill="#B50012"/>
<path d="M274.439 259.78H267.699V266.46H274.439V259.78Z" fill="#727B9B"/>
<path d="M274.439 253.03H267.699V259.77H274.439V253.03Z" fill="#727B9B"/>
<path d="M274.439 246.36H267.699V253.04H274.439V246.36Z" fill="#B50012"/>
<path d="M274.439 185.95H267.699V192.63H274.439V185.95Z" fill="black"/>
<path d="M274.439 179.21H267.699V185.95H274.439V179.21Z" fill="#5B271D"/>
<path d="M274.439 172.46H267.699V179.2H274.439V172.46Z" fill="#5B271D"/>
<path d="M274.439 165.8H267.699V172.48H274.439V165.8Z" fill="black"/>
<path d="M274.439 159.05H267.699V165.79H274.439V159.05Z" fill="black"/>
<path d="M274.439 152.38H267.699V159.06H274.439V152.38Z" fill="black"/>
<path d="M274.439 145.63H267.699V152.37H274.439V145.63Z" fill="#5B271D"/>
<path d="M274.439 138.97H267.699V145.65H274.439V138.97Z" fill="#5B271D"/>
<path d="M274.439 132.22H267.699V138.96H274.439V132.22Z" fill="#5B271D"/>
<path d="M274.439 125.48H267.699V132.22H274.439V125.48Z" fill="black"/>
<path d="M267.7 266.44H261.02V273.18H267.7V266.44Z" fill="#B50012"/>
<path d="M267.7 259.78H261.02V266.46H267.7V259.78Z" fill="#B50012"/>
<path d="M267.7 253.03H261.02V259.77H267.7V253.03Z" fill="#727B9B"/>
<path d="M267.7 246.36H261.02V253.04H267.7V246.36Z" fill="#B50012"/>
<path d="M267.7 185.95H261.02V192.63H267.7V185.95Z" fill="black"/>
<path d="M267.7 179.21H261.02V185.95H267.7V179.21Z" fill="#5B271D"/>
<path d="M267.7 172.46H261.02V179.2H267.7V172.46Z" fill="black"/>
<path d="M267.7 165.8H261.02V172.48H267.7V165.8Z" fill="black"/>
<path d="M267.7 159.05H261.02V165.79H267.7V159.05Z" fill="black"/>
<path d="M267.7 152.38H261.02V159.06H267.7V152.38Z" fill="#5B271D"/>
<path d="M267.7 145.63H261.02V152.37H267.7V145.63Z" fill="#5B271D"/>
<path d="M267.7 138.97H261.02V145.65H267.7V138.97Z" fill="black"/>
<path d="M267.7 132.22H261.02V138.96H267.7V132.22Z" fill="black"/>
<path d="M267.7 125.48H261.02V132.22H267.7V125.48Z" fill="black"/>
<path d="M261.019 259.78H254.279V266.46H261.019V259.78Z" fill="#B50012"/>
<path d="M261.019 253.03H254.279V259.77H261.019V253.03Z" fill="#727B9B"/>
<path d="M261.019 246.36H254.279V253.04H261.019V246.36Z" fill="#727B9B"/>
<path d="M261.019 239.61H254.279V246.35H261.019V239.61Z" fill="#B50012"/>
<path d="M261.019 192.63H254.279V199.37H261.019V192.63Z" fill="black"/>
<path d="M261.019 185.95H254.279V192.63H261.019V185.95Z" fill="#5B271D"/>
<path d="M261.019 179.21H254.279V185.95H261.019V179.21Z" fill="#5B271D"/>
<path d="M261.019 172.46H254.279V179.2H261.019V172.46Z" fill="black"/>
<path d="M261.019 165.8H254.279V172.48H261.019V165.8Z" fill="#5B271D"/>
<path d="M261.019 159.05H254.279V165.79H261.019V159.05Z" fill="#5B271D"/>
<path d="M261.019 152.38H254.279V159.06H261.019V152.38Z" fill="#5B271D"/>
<path d="M261.019 145.63H254.279V152.37H261.019V145.63Z" fill="#5B271D"/>
<path d="M261.019 138.97H254.279V145.65H261.019V138.97Z" fill="black"/>
<path d="M254.289 253.03H247.609V259.77H254.289V253.03Z" fill="#B50012"/>
<path d="M254.289 246.36H247.609V253.04H254.289V246.36Z" fill="#727B9B"/>
<path d="M254.289 239.61H247.609V246.35H254.289V239.61Z" fill="#727B9B"/>
<path d="M254.289 232.87H247.609V239.61H254.289V232.87Z" fill="black"/>
<path d="M254.289 226.2H247.609V232.88H254.289V226.2Z" fill="black"/>
<path d="M254.289 219.46H247.609V226.2H254.289V219.46Z" fill="black"/>
<path d="M254.289 212.78H247.609V219.46H254.289V212.78Z" fill="black"/>
<path d="M254.289 206.04H247.609V212.78H254.289V206.04Z" fill="black"/>
<path d="M254.289 192.63H247.609V199.37H254.289V192.63Z" fill="black"/>
<path d="M254.289 185.95H247.609V192.63H254.289V185.95Z" fill="#5B271D"/>
<path d="M254.289 179.21H247.609V185.95H254.289V179.21Z" fill="#5B271D"/>
<path d="M254.289 172.46H247.609V179.2H254.289V172.46Z" fill="black"/>
<path d="M254.289 165.8H247.609V172.48H254.289V165.8Z" fill="#5B271D"/>
<path d="M254.289 159.05H247.609V165.79H254.289V159.05Z" fill="black"/>
<path d="M254.289 152.38H247.609V159.06H254.289V152.38Z" fill="black"/>
<path d="M254.289 145.63H247.609V152.37H254.289V145.63Z" fill="black"/>
<path d="M254.289 138.97H247.609V145.65H254.289V138.97Z" fill="black"/>
<path d="M247.609 246.36H240.869V253.04H247.609V246.36Z" fill="#B50012"/>
<path d="M247.609 239.61H240.869V246.35H247.609V239.61Z" fill="#727B9B"/>
<path d="M247.609 232.87H240.869V239.61H247.609V232.87Z" fill="black"/>
<path d="M247.609 226.2H240.869V232.88H247.609V226.2Z" fill="black"/>
<path d="M247.609 219.46H240.869V226.2H247.609V219.46Z" fill="#507993"/>
<path d="M247.609 212.78H240.869V219.46H247.609V212.78Z" fill="#507993"/>
<path d="M247.609 206.04H240.869V212.78H247.609V206.04Z" fill="black"/>
<path d="M247.609 199.37H240.869V206.05H247.609V199.37Z" fill="black"/>
<path d="M247.609 185.95H240.869V192.63H247.609V185.95Z" fill="black"/>
<path d="M247.609 179.21H240.869V185.95H247.609V179.21Z" fill="#5B271D"/>
<path d="M247.609 172.46H240.869V179.2H247.609V172.46Z" fill="black"/>
<path d="M247.609 165.8H240.869V172.48H247.609V165.8Z" fill="#5B271D"/>
<path d="M247.609 159.05H240.869V165.79H247.609V159.05Z" fill="black"/>
<path d="M240.869 239.61H234.189V246.35H240.869V239.61Z" fill="black"/>
<path d="M240.869 232.87H234.189V239.61H240.869V232.87Z" fill="black"/>
<path d="M240.869 226.2H234.189V232.88H240.869V226.2Z" fill="#E0AD86"/>
<path d="M240.869 219.46H234.189V226.2H240.869V219.46Z" fill="#79B6EE"/>
<path d="M240.869 212.78H234.189V219.46H240.869V212.78Z" fill="#507993"/>
<path d="M240.869 206.04H234.189V212.78H240.869V206.04Z" fill="#507993"/>
<path d="M240.869 199.37H234.189V206.05H240.869V199.37Z" fill="black"/>
<path d="M240.869 192.63H234.189V199.37H240.869V192.63Z" fill="black"/>
<path d="M240.869 179.21H234.189V185.95H240.869V179.21Z" fill="black"/>
<path d="M240.869 172.46H234.189V179.2H240.869V172.46Z" fill="black"/>
<path d="M240.869 165.8H234.189V172.48H240.869V165.8Z" fill="black"/>
<path d="M240.869 159.05H234.189V165.79H240.869V159.05Z" fill="black"/>
<path d="M240.869 152.38H234.189V159.06H240.869V152.38Z" fill="black"/>
<path d="M240.869 145.63H234.189V152.37H240.869V145.63Z" fill="black"/>
<path d="M240.869 138.97H234.189V145.65H240.869V138.97Z" fill="black"/>
<path d="M240.869 132.22H234.189V138.96H240.869V132.22Z" fill="black"/>
<path d="M240.869 125.48H234.189V132.22H240.869V125.48Z" fill="black"/>
<path d="M240.869 118.8H234.189V125.48H240.869V118.8Z" fill="black"/>
<path d="M240.869 112.07H234.189V118.81H240.869V112.07Z" fill="black"/>
<path d="M234.189 239.61H227.449V246.35H234.189V239.61Z" fill="black"/>
<path d="M234.189 232.87H227.449V239.61H234.189V232.87Z" fill="#E0AD86"/>
<path d="M234.189 226.2H227.449V232.88H234.189V226.2Z" fill="#E0AD86"/>
<path d="M234.189 219.46H227.449V226.2H234.189V219.46Z" fill="#E0AD86"/>
<path d="M234.189 212.78H227.449V219.46H234.189V212.78Z" fill="#679EC6"/>
<path d="M234.189 206.04H227.449V212.78H234.189V206.04Z" fill="#507993"/>
<path d="M234.189 199.37H227.449V206.05H234.189V199.37Z" fill="#507993"/>
<path d="M234.189 192.63H227.449V199.37H234.189V192.63Z" fill="black"/>
<path d="M234.189 185.95H227.449V192.63H234.189V185.95Z" fill="black"/>
<path d="M234.189 179.21H227.449V185.95H234.189V179.21Z" fill="black"/>
<path d="M234.189 172.46H227.449V179.2H234.189V172.46Z" fill="#60342E"/>
<path d="M234.189 165.8H227.449V172.48H234.189V165.8Z" fill="black"/>
<path d="M234.189 159.05H227.449V165.79H234.189V159.05Z" fill="black"/>
<path d="M234.189 152.38H227.449V159.06H234.189V152.38Z" fill="black"/>
<path d="M234.189 145.63H227.449V152.37H234.189V145.63Z" fill="black"/>
<path d="M234.189 138.97H227.449V145.65H234.189V138.97Z" fill="#507993"/>
<path d="M234.189 132.22H227.449V138.96H234.189V132.22Z" fill="#507993"/>
<path d="M234.189 125.48H227.449V132.22H234.189V125.48Z" fill="#507993"/>
<path d="M234.189 118.8H227.449V125.48H234.189V118.8Z" fill="black"/>
<path d="M234.189 112.07H227.449V118.81H234.189V112.07Z" fill="black"/>
<path d="M234.189 105.39H227.449V112.07H234.189V105.39Z" fill="black"/>
<path d="M227.439 306.76H220.699V313.44H227.439V306.76Z" fill="black"/>
<path d="M227.439 300.02H220.699V306.76H227.439V300.02Z" fill="black"/>
<path d="M227.439 293.35H220.699V300.03H227.439V293.35Z" fill="black"/>
<path d="M227.439 286.61H220.699V293.35H227.439V286.61Z" fill="black"/>
<path d="M227.439 279.86H220.699V286.6H227.439V279.86Z" fill="black"/>
<path d="M227.439 273.19H220.699V279.87H227.439V273.19Z" fill="black"/>
<path d="M227.439 266.44H220.699V273.18H227.439V266.44Z" fill="black"/>
<path d="M227.439 239.61H220.699V246.35H227.439V239.61Z" fill="black"/>
<path d="M227.439 232.87H220.699V239.61H227.439V232.87Z" fill="#E0AD86"/>
<path d="M227.439 226.2H220.699V232.88H227.439V226.2Z" fill="#E0AD86"/>
<path d="M227.439 219.46H220.699V226.2H227.439V219.46Z" fill="#E0AD86"/>
<path d="M227.439 212.78H220.699V219.46H227.439V212.78Z" fill="#679EC6"/>
<path d="M227.439 206.04H220.699V212.78H227.439V206.04Z" fill="#679EC6"/>
<path d="M227.439 199.37H220.699V206.05H227.439V199.37Z" fill="#507993"/>
<path d="M227.439 192.63H220.699V199.37H227.439V192.63Z" fill="#507993"/>
<path d="M227.439 185.95H220.699V192.63H227.439V185.95Z" fill="black"/>
<path d="M227.439 179.21H220.699V185.95H227.439V179.21Z" fill="#60342E"/>
<path d="M227.439 172.46H220.699V179.2H227.439V172.46Z" fill="#60342E"/>
<path d="M227.439 165.8H220.699V172.48H227.439V165.8Z" fill="#60342E"/>
<path d="M227.439 159.05H220.699V165.79H227.439V159.05Z" fill="black"/>
<path d="M227.439 152.38H220.699V159.06H227.439V152.38Z" fill="black"/>
<path d="M227.439 145.63H220.699V152.37H227.439V145.63Z" fill="#507993"/>
<path d="M227.439 138.97H220.699V145.65H227.439V138.97Z" fill="#679EC6"/>
<path d="M227.439 132.22H220.699V138.96H227.439V132.22Z" fill="#679EC6"/>
<path d="M227.439 125.48H220.699V132.22H227.439V125.48Z" fill="#679EC6"/>
<path d="M227.439 118.8H220.699V125.48H227.439V118.8Z" fill="#507993"/>
<path d="M227.439 112.07H220.699V118.81H227.439V112.07Z" fill="#507993"/>
<path d="M227.439 105.39H220.699V112.07H227.439V105.39Z" fill="black"/>
<path d="M227.439 98.6499H220.699V105.39H227.439V98.6499Z" fill="black"/>
<path d="M220.719 306.76H214.039V313.44H220.719V306.76Z" fill="black"/>
<path d="M220.719 300.02H214.039V306.76H220.719V300.02Z" fill="#60401E"/>
<path d="M220.719 293.35H214.039V300.03H220.719V293.35Z" fill="#60401E"/>
<path d="M220.719 286.61H214.039V293.35H220.719V286.61Z" fill="#60401E"/>
<path d="M220.719 279.86H214.039V286.6H220.719V279.86Z" fill="#1C323A"/>
<path d="M220.719 273.19H214.039V279.87H220.719V273.19Z" fill="#1C323A"/>
<path d="M220.719 266.44H214.039V273.18H220.719V266.44Z" fill="black"/>
<path d="M220.719 259.78H214.039V266.46H220.719V259.78Z" fill="black"/>
<path d="M220.719 253.03H214.039V259.77H220.719V253.03Z" fill="black"/>
<path d="M220.719 246.36H214.039V253.04H220.719V246.36Z" fill="black"/>
<path d="M220.719 239.61H214.039V246.35H220.719V239.61Z" fill="black"/>
<path d="M220.719 232.87H214.039V239.61H220.719V232.87Z" fill="black"/>
<path d="M220.719 226.2H214.039V232.88H220.719V226.2Z" fill="black"/>
<path d="M220.719 219.46H214.039V226.2H220.719V219.46Z" fill="black"/>
<path d="M220.719 212.78H214.039V219.46H220.719V212.78Z" fill="#679EC6"/>
<path d="M220.719 206.04H214.039V212.78H220.719V206.04Z" fill="#679EC6"/>
<path d="M220.719 199.37H214.039V206.05H220.719V199.37Z" fill="#679EC6"/>
<path d="M220.719 192.63H214.039V199.37H220.719V192.63Z" fill="#507993"/>
<path d="M220.719 185.95H214.039V192.63H220.719V185.95Z" fill="#507993"/>
<path d="M220.719 179.21H214.039V185.95H220.719V179.21Z" fill="black"/>
<path d="M220.719 172.46H214.039V179.2H220.719V172.46Z" fill="#60342E"/>
<path d="M220.719 165.8H214.039V172.48H220.719V165.8Z" fill="black"/>
<path d="M220.719 159.05H214.039V165.79H220.719V159.05Z" fill="#6D4541"/>
<path d="M220.719 152.38H214.039V159.06H220.719V152.38Z" fill="#6D4541"/>
<path d="M220.719 145.63H214.039V152.37H220.719V145.63Z" fill="#679EC6"/>
<path d="M220.719 138.97H214.039V145.65H220.719V138.97Z" fill="#679EC6"/>
<path d="M220.719 132.22H214.039V138.96H220.719V132.22Z" fill="#679EC6"/>
<path d="M220.719 125.48H214.039V132.22H220.719V125.48Z" fill="#679EC6"/>
<path d="M220.719 118.8H214.039V125.48H220.719V118.8Z" fill="#679EC6"/>
<path d="M220.719 112.07H214.039V118.81H220.719V112.07Z" fill="#507993"/>
<path d="M220.719 105.39H214.039V112.07H220.719V105.39Z" fill="#507993"/>
<path d="M220.719 98.6499H214.039V105.39H220.719V98.6499Z" fill="black"/>
<path d="M220.719 91.97H214.039V98.65H220.719V91.97Z" fill="black"/>
<path d="M214.041 306.76H207.301V313.44H214.041V306.76Z" fill="black"/>
<path d="M214.041 300.02H207.301V306.76H214.041V300.02Z" fill="#60401E"/>
<path d="M214.041 293.35H207.301V300.03H214.041V293.35Z" fill="#60401E"/>
<path d="M214.041 286.61H207.301V293.35H214.041V286.61Z" fill="#354D59"/>
<path d="M214.041 279.86H207.301V286.6H214.041V279.86Z" fill="#354D59"/>
<path d="M214.041 273.19H207.301V279.87H214.041V273.19Z" fill="#1C323A"/>
<path d="M214.041 266.44H207.301V273.18H214.041V266.44Z" fill="#1C323A"/>
<path d="M214.041 259.78H207.301V266.46H214.041V259.78Z" fill="#1C323A"/>
<path d="M214.041 253.03H207.301V259.77H214.041V253.03Z" fill="#1C323A"/>
<path d="M214.041 246.36H207.301V253.04H214.041V246.36Z" fill="#1C323A"/>
<path d="M214.041 239.61H207.301V246.35H214.041V239.61Z" fill="#1C323A"/>
<path d="M214.041 232.87H207.301V239.61H214.041V232.87Z" fill="#1C323A"/>
<path d="M214.041 226.2H207.301V232.88H214.041V226.2Z" fill="#507993"/>
<path d="M214.041 219.46H207.301V226.2H214.041V219.46Z" fill="black"/>
<path d="M214.041 212.78H207.301V219.46H214.041V212.78Z" fill="black"/>
<path d="M214.041 206.04H207.301V212.78H214.041V206.04Z" fill="#679EC6"/>
<path d="M214.041 199.37H207.301V206.05H214.041V199.37Z" fill="#679EC6"/>
<path d="M214.041 192.63H207.301V199.37H214.041V192.63Z" fill="#679EC6"/>
<path d="M214.041 185.95H207.301V192.63H214.041V185.95Z" fill="#507993"/>
<path d="M214.041 179.21H207.301V185.95H214.041V179.21Z" fill="#507993"/>
<path d="M214.041 172.46H207.301V179.2H214.041V172.46Z" fill="black"/>
<path d="M214.041 165.8H207.301V172.48H214.041V165.8Z" fill="#6D4541"/>
<path d="M214.041 159.05H207.301V165.79H214.041V159.05Z" fill="#6D4541"/>
<path d="M214.041 152.38H207.301V159.06H214.041V152.38Z" fill="#79B6EE"/>
<path d="M214.041 145.63H207.301V152.37H214.041V145.63Z" fill="#BA7D54"/>
<path d="M214.041 138.97H207.301V145.65H214.041V138.97Z" fill="#BA7D54"/>
<path d="M214.041 132.22H207.301V138.96H214.041V132.22Z" fill="#BA7D54"/>
<path d="M214.041 125.48H207.301V132.22H214.041V125.48Z" fill="#679EC6"/>
<path d="M214.041 118.8H207.301V125.48H214.041V118.8Z" fill="#679EC6"/>
<path d="M214.041 112.07H207.301V118.81H214.041V112.07Z" fill="#679EC6"/>
<path d="M214.041 105.39H207.301V112.07H214.041V105.39Z" fill="#507993"/>
<path d="M214.041 98.6499H207.301V105.39H214.041V98.6499Z" fill="#507993"/>
<path d="M214.041 91.97H207.301V98.65H214.041V91.97Z" fill="black"/>
<path d="M207.299 306.76H200.619V313.44H207.299V306.76Z" fill="black"/>
<path d="M207.299 300.02H200.619V306.76H207.299V300.02Z" fill="black"/>
<path d="M207.299 293.35H200.619V300.03H207.299V293.35Z" fill="black"/>
<path d="M207.299 286.61H200.619V293.35H207.299V286.61Z" fill="black"/>
<path d="M207.299 279.86H200.619V286.6H207.299V279.86Z" fill="#354D59"/>
<path d="M207.299 273.19H200.619V279.87H207.299V273.19Z" fill="#354D59"/>
<path d="M207.299 266.44H200.619V273.18H207.299V266.44Z" fill="#354D59"/>
<path d="M207.299 259.78H200.619V266.46H207.299V259.78Z" fill="#354D59"/>
<path d="M207.299 253.03H200.619V259.77H207.299V253.03Z" fill="#354D59"/>
<path d="M207.299 246.36H200.619V253.04H207.299V246.36Z" fill="#1C323A"/>
<path d="M207.299 239.61H200.619V246.35H207.299V239.61Z" fill="#1C323A"/>
<path d="M207.299 232.87H200.619V239.61H207.299V232.87Z" fill="#507993"/>
<path d="M207.299 226.2H200.619V232.88H207.299V226.2Z" fill="#507993"/>
<path d="M207.299 219.46H200.619V226.2H207.299V219.46Z" fill="#507993"/>
<path d="M207.299 212.78H200.619V219.46H207.299V212.78Z" fill="#79B6EE"/>
<path d="M207.299 206.04H200.619V212.78H207.299V206.04Z" fill="#679EC6"/>
<path d="M207.299 199.37H200.619V206.05H207.299V199.37Z" fill="#679EC6"/>
<path d="M207.299 192.63H200.619V199.37H207.299V192.63Z" fill="#679EC6"/>
<path d="M207.299 185.95H200.619V192.63H207.299V185.95Z" fill="#79B6EE"/>
<path d="M207.299 179.21H200.619V185.95H207.299V179.21Z" fill="#507993"/>
<path d="M207.299 172.46H200.619V179.2H207.299V172.46Z" fill="#6D4541"/>
<path d="M207.299 165.8H200.619V172.48H207.299V165.8Z" fill="#6D4541"/>
<path d="M207.299 159.05H200.619V165.79H207.299V159.05Z" fill="#BA7D54"/>
<path d="M207.299 152.38H200.619V159.06H207.299V152.38Z" fill="#BA7D54"/>
<path d="M207.299 145.63H200.619V152.37H207.299V145.63Z" fill="#BA7D54"/>
<path d="M207.299 138.97H200.619V145.65H207.299V138.97Z" fill="#BA7D54"/>
<path d="M207.299 132.22H200.619V138.96H207.299V132.22Z" fill="#1C1C1C"/>
<path d="M207.299 125.48H200.619V132.22H207.299V125.48Z" fill="#1C1C1C"/>
<path d="M207.299 118.8H200.619V125.48H207.299V118.8Z" fill="#507993"/>
<path d="M207.299 112.07H200.619V118.81H207.299V112.07Z" fill="#679EC6"/>
<path d="M207.299 105.39H200.619V112.07H207.299V105.39Z" fill="#679EC6"/>
<path d="M207.299 98.6499H200.619V105.39H207.299V98.6499Z" fill="#507993"/>
<path d="M207.299 91.97H200.619V98.65H207.299V91.97Z" fill="#507993"/>
<path d="M207.299 85.23H200.619V91.97H207.299V85.23Z" fill="black"/>
<path d="M200.609 306.76H193.869V313.44H200.609V306.76Z" fill="black"/>
<path d="M200.609 279.86H193.869V286.6H200.609V279.86Z" fill="black"/>
<path d="M200.609 273.19H193.869V279.87H200.609V273.19Z" fill="black"/>
<path d="M200.609 266.44H193.869V273.18H200.609V266.44Z" fill="#354D59"/>
<path d="M200.609 259.78H193.869V266.46H200.609V259.78Z" fill="#354D59"/>
<path d="M200.609 253.03H193.869V259.77H200.609V253.03Z" fill="#354D59"/>
<path d="M200.609 246.36H193.869V253.04H200.609V246.36Z" fill="#354D59"/>
<path d="M200.609 239.61H193.869V246.35H200.609V239.61Z" fill="#1C323A"/>
<path d="M200.609 232.87H193.869V239.61H200.609V232.87Z" fill="#507993"/>
<path d="M200.609 226.2H193.869V232.88H200.609V226.2Z" fill="#507993"/>
<path d="M200.609 219.46H193.869V226.2H200.609V219.46Z" fill="#679EC6"/>
<path d="M200.609 212.78H193.869V219.46H200.609V212.78Z" fill="#679EC6"/>
<path d="M200.609 206.04H193.869V212.78H200.609V206.04Z" fill="#679EC6"/>
<path d="M200.609 199.37H193.869V206.05H200.609V199.37Z" fill="#679EC6"/>
<path d="M200.609 192.63H193.869V199.37H200.609V192.63Z" fill="#679EC6"/>
<path d="M200.609 185.95H193.869V192.63H200.609V185.95Z" fill="#679EC6"/>
<path d="M200.609 179.21H193.869V185.95H200.609V179.21Z" fill="#679EC6"/>
<path d="M200.609 172.46H193.869V179.2H200.609V172.46Z" fill="#6D4541"/>
<path d="M200.609 165.8H193.869V172.48H200.609V165.8Z" fill="#6D4541"/>
<path d="M200.609 159.05H193.869V165.79H200.609V159.05Z" fill="#E0AD86"/>
<path d="M200.609 152.38H193.869V159.06H200.609V152.38Z" fill="#E0AD86"/>
<path d="M200.609 145.63H193.869V152.37H200.609V145.63Z" fill="#E0AD86"/>
<path d="M200.609 138.97H193.869V145.65H200.609V138.97Z" fill="#BA7D54"/>
<path d="M200.609 132.22H193.869V138.96H200.609V132.22Z" fill="#1C1C1C"/>
<path d="M200.609 125.48H193.869V132.22H200.609V125.48Z" fill="#545453"/>
<path d="M200.609 118.8H193.869V125.48H200.609V118.8Z" fill="#507993"/>
<path d="M200.609 112.07H193.869V118.81H200.609V112.07Z" fill="#679EC6"/>
<path d="M200.609 105.39H193.869V112.07H200.609V105.39Z" fill="#679EC6"/>
<path d="M200.609 98.6499H193.869V105.39H200.609V98.6499Z" fill="#679EC6"/>
<path d="M200.609 91.97H193.869V98.65H200.609V91.97Z" fill="#507993"/>
<path d="M200.609 85.23H193.869V91.97H200.609V85.23Z" fill="black"/>
<path d="M200.609 78.5601H193.869V85.2401H200.609V78.5601Z" fill="black"/>
<path d="M193.891 273.19H187.211V279.87H193.891V273.19Z" fill="black"/>
<path d="M193.891 266.44H187.211V273.18H193.891V266.44Z" fill="#1C323A"/>
<path d="M193.891 259.78H187.211V266.46H193.891V259.78Z" fill="#354D59"/>
<path d="M193.891 253.03H187.211V259.77H193.891V253.03Z" fill="#354D59"/>
<path d="M193.891 246.36H187.211V253.04H193.891V246.36Z" fill="#354D59"/>
<path d="M193.891 239.61H187.211V246.35H193.891V239.61Z" fill="#1C323A"/>
<path d="M193.891 232.87H187.211V239.61H193.891V232.87Z" fill="#507993"/>
<path d="M193.891 226.2H187.211V232.88H193.891V226.2Z" fill="#79B6EE"/>
<path d="M193.891 219.46H187.211V226.2H193.891V219.46Z" fill="#679EC6"/>
<path d="M193.891 212.78H187.211V219.46H193.891V212.78Z" fill="#679EC6"/>
<path d="M193.891 206.04H187.211V212.78H193.891V206.04Z" fill="#679EC6"/>
<path d="M193.891 199.37H187.211V206.05H193.891V199.37Z" fill="#679EC6"/>
<path d="M193.891 192.63H187.211V199.37H193.891V192.63Z" fill="#679EC6"/>
<path d="M193.891 185.95H187.211V192.63H193.891V185.95Z" fill="#679EC6"/>
<path d="M193.891 179.21H187.211V185.95H193.891V179.21Z" fill="#679EC6"/>
<path d="M193.891 172.46H187.211V179.2H193.891V172.46Z" fill="#6D4541"/>
<path d="M193.891 165.8H187.211V172.48H193.891V165.8Z" fill="#6D4541"/>
<path d="M193.891 159.05H187.211V165.79H193.891V159.05Z" fill="#E0AD86"/>
<path d="M193.891 152.38H187.211V159.06H193.891V152.38Z" fill="#E0AD86"/>
<path d="M193.891 145.63H187.211V152.37H193.891V145.63Z" fill="#E0AD86"/>
<path d="M193.891 138.97H187.211V145.65H193.891V138.97Z" fill="#BA7D54"/>
<path d="M193.891 132.22H187.211V138.96H193.891V132.22Z" fill="#BA7D54"/>
<path d="M193.891 125.48H187.211V132.22H193.891V125.48Z" fill="#507993"/>
<path d="M193.891 118.8H187.211V125.48H193.891V118.8Z" fill="#679EC6"/>
<path d="M193.891 112.07H187.211V118.81H193.891V112.07Z" fill="#679EC6"/>
<path d="M193.891 105.39H187.211V112.07H193.891V105.39Z" fill="#679EC6"/>
<path d="M193.891 98.6499H187.211V105.39H193.891V98.6499Z" fill="#679EC6"/>
<path d="M193.891 91.97H187.211V98.65H193.891V91.97Z" fill="#679EC6"/>
<path d="M193.891 85.23H187.211V91.97H193.891V85.23Z" fill="#507993"/>
<path d="M193.891 78.5601H187.211V85.2401H193.891V78.5601Z" fill="black"/>
<path d="M187.201 306.76H180.461V313.44H187.201V306.76Z" fill="black"/>
<path d="M187.201 300.02H180.461V306.76H187.201V300.02Z" fill="black"/>
<path d="M187.201 293.35H180.461V300.03H187.201V293.35Z" fill="black"/>
<path d="M187.201 286.61H180.461V293.35H187.201V286.61Z" fill="black"/>
<path d="M187.201 279.86H180.461V286.6H187.201V279.86Z" fill="black"/>
<path d="M187.201 273.19H180.461V279.87H187.201V273.19Z" fill="black"/>
<path d="M187.201 266.44H180.461V273.18H187.201V266.44Z" fill="#1C323A"/>
<path d="M187.201 259.78H180.461V266.46H187.201V259.78Z" fill="#1C323A"/>
<path d="M187.201 253.03H180.461V259.77H187.201V253.03Z" fill="#1C323A"/>
<path d="M187.201 246.36H180.461V253.04H187.201V246.36Z" fill="#354D59"/>
<path d="M187.201 239.61H180.461V246.35H187.201V239.61Z" fill="#354D59"/>
<path d="M187.201 232.87H180.461V239.61H187.201V232.87Z" fill="#507993"/>
<path d="M187.201 226.2H180.461V232.88H187.201V226.2Z" fill="#679EC6"/>
<path d="M187.201 219.46H180.461V226.2H187.201V219.46Z" fill="#79B6EE"/>
<path d="M187.201 212.78H180.461V219.46H187.201V212.78Z" fill="#79B6EE"/>
<path d="M187.201 206.04H180.461V212.78H187.201V206.04Z" fill="#679EC6"/>
<path d="M187.201 199.37H180.461V206.05H187.201V199.37Z" fill="#679EC6"/>
<path d="M187.201 192.63H180.461V199.37H187.201V192.63Z" fill="#679EC6"/>
<path d="M187.201 185.95H180.461V192.63H187.201V185.95Z" fill="#679EC6"/>
<path d="M187.201 179.21H180.461V185.95H187.201V179.21Z" fill="#679EC6"/>
<path d="M187.201 172.46H180.461V179.2H187.201V172.46Z" fill="#6D4541"/>
<path d="M187.201 165.8H180.461V172.48H187.201V165.8Z" fill="#6D4541"/>
<path d="M187.201 159.05H180.461V165.79H187.201V159.05Z" fill="#E0AD86"/>
<path d="M187.201 152.38H180.461V159.06H187.201V152.38Z" fill="#E0AD86"/>
<path d="M187.201 145.63H180.461V152.37H187.201V145.63Z" fill="#E0AD86"/>
<path d="M187.201 138.97H180.461V145.65H187.201V138.97Z" fill="#BA7D54"/>
<path d="M187.201 132.22H180.461V138.96H187.201V132.22Z" fill="#507993"/>
<path d="M187.201 125.48H180.461V132.22H187.201V125.48Z" fill="#679EC6"/>
<path d="M187.201 118.8H180.461V125.48H187.201V118.8Z" fill="#679EC6"/>
<path d="M187.201 112.07H180.461V118.81H187.201V112.07Z" fill="#679EC6"/>
<path d="M187.201 105.39H180.461V112.07H187.201V105.39Z" fill="#679EC6"/>
<path d="M187.201 98.6499H180.461V105.39H187.201V98.6499Z" fill="#79B6EE"/>
<path d="M187.201 91.97H180.461V98.65H187.201V91.97Z" fill="#79B6EE"/>
<path d="M187.201 85.23H180.461V91.97H187.201V85.23Z" fill="black"/>
<path d="M187.201 78.5601H180.461V85.2401H187.201V78.5601Z" fill="black"/>
<path d="M180.469 306.76H173.789V313.44H180.469V306.76Z" fill="black"/>
<path d="M180.469 300.02H173.789V306.76H180.469V300.02Z" fill="#60401E"/>
<path d="M180.469 293.35H173.789V300.03H180.469V293.35Z" fill="#60401E"/>
<path d="M180.469 286.61H173.789V293.35H180.469V286.61Z" fill="#60401E"/>
<path d="M180.469 279.86H173.789V286.6H180.469V279.86Z" fill="#60401E"/>
<path d="M180.469 273.19H173.789V279.87H180.469V273.19Z" fill="#354D59"/>
<path d="M180.469 266.44H173.789V273.18H180.469V266.44Z" fill="#354D59"/>
<path d="M180.469 259.78H173.789V266.46H180.469V259.78Z" fill="#354D59"/>
<path d="M180.469 253.03H173.789V259.77H180.469V253.03Z" fill="#354D59"/>
<path d="M180.469 246.36H173.789V253.04H180.469V246.36Z" fill="#354D59"/>
<path d="M180.469 239.61H173.789V246.35H180.469V239.61Z" fill="#354D59"/>
<path d="M180.469 232.87H173.789V239.61H180.469V232.87Z" fill="#507993"/>
<path d="M180.469 226.2H173.789V232.88H180.469V226.2Z" fill="#507993"/>
<path d="M180.469 219.46H173.789V226.2H180.469V219.46Z" fill="#679EC6"/>
<path d="M180.469 212.78H173.789V219.46H180.469V212.78Z" fill="#79B6EE"/>
<path d="M180.469 206.04H173.789V212.78H180.469V206.04Z" fill="#79B6EE"/>
<path d="M180.469 199.37H173.789V206.05H180.469V199.37Z" fill="#679EC6"/>
<path d="M180.469 192.63H173.789V199.37H180.469V192.63Z" fill="#79B6EE"/>
<path d="M180.469 185.95H173.789V192.63H180.469V185.95Z" fill="#79B6EE"/>
<path d="M180.469 179.21H173.789V185.95H180.469V179.21Z" fill="#79B6EE"/>
<path d="M180.469 172.46H173.789V179.2H180.469V172.46Z" fill="#6D4541"/>
<path d="M180.469 165.8H173.789V172.48H180.469V165.8Z" fill="#6D4541"/>
<path d="M180.469 159.05H173.789V165.79H180.469V159.05Z" fill="#E0AD86"/>
<path d="M180.469 152.38H173.789V159.06H180.469V152.38Z" fill="#E0AD86"/>
<path d="M180.469 145.63H173.789V152.37H180.469V145.63Z" fill="#E0AD86"/>
<path d="M180.469 138.97H173.789V145.65H180.469V138.97Z" fill="#BA7D54"/>
<path d="M180.469 132.22H173.789V138.96H180.469V132.22Z" fill="#79B6EE"/>
<path d="M180.469 125.48H173.789V132.22H180.469V125.48Z" fill="#679EC6"/>
<path d="M180.469 118.8H173.789V125.48H180.469V118.8Z" fill="#679EC6"/>
<path d="M180.469 112.07H173.789V118.81H180.469V112.07Z" fill="#79B6EE"/>
<path d="M180.469 105.39H173.789V112.07H180.469V105.39Z" fill="#79B6EE"/>
<path d="M180.469 98.6499H173.789V105.39H180.469V98.6499Z" fill="#79B6EE"/>
<path d="M180.469 91.97H173.789V98.65H180.469V91.97Z" fill="black"/>
<path d="M180.469 85.23H173.789V91.97H180.469V85.23Z" fill="black"/>
<path d="M173.779 306.76H167.039V313.44H173.779V306.76Z" fill="black"/>
<path d="M173.779 300.02H167.039V306.76H173.779V300.02Z" fill="#60401E"/>
<path d="M173.779 293.35H167.039V300.03H173.779V293.35Z" fill="#60401E"/>
<path d="M173.779 286.61H167.039V293.35H173.779V286.61Z" fill="#60401E"/>
<path d="M173.779 279.86H167.039V286.6H173.779V279.86Z" fill="#354D59"/>
<path d="M173.779 273.19H167.039V279.87H173.779V273.19Z" fill="#354D59"/>
<path d="M173.779 266.44H167.039V273.18H173.779V266.44Z" fill="#354D59"/>
<path d="M173.779 259.78H167.039V266.46H173.779V259.78Z" fill="#354D59"/>
<path d="M173.779 253.03H167.039V259.77H173.779V253.03Z" fill="#354D59"/>
<path d="M173.779 246.36H167.039V253.04H173.779V246.36Z" fill="#354D59"/>
<path d="M173.779 239.61H167.039V246.35H173.779V239.61Z" fill="#354D59"/>
<path d="M173.779 232.87H167.039V239.61H173.779V232.87Z" fill="#507993"/>
<path d="M173.779 226.2H167.039V232.88H173.779V226.2Z" fill="#507993"/>
<path d="M173.779 219.46H167.039V226.2H173.779V219.46Z" fill="#507993"/>
<path d="M173.779 212.78H167.039V219.46H173.779V212.78Z" fill="#79B6EE"/>
<path d="M173.779 206.04H167.039V212.78H173.779V206.04Z" fill="#679EC6"/>
<path d="M173.779 199.37H167.039V206.05H173.779V199.37Z" fill="#79B6EE"/>
<path d="M173.779 192.63H167.039V199.37H173.779V192.63Z" fill="#79B6EE"/>
<path d="M173.779 185.95H167.039V192.63H173.779V185.95Z" fill="#79B6EE"/>
<path d="M173.779 179.21H167.039V185.95H173.779V179.21Z" fill="#79B6EE"/>
<path d="M173.779 172.46H167.039V179.2H173.779V172.46Z" fill="black"/>
<path d="M173.779 165.8H167.039V172.48H173.779V165.8Z" fill="#6D4541"/>
<path d="M173.779 159.05H167.039V165.79H173.779V159.05Z" fill="#E0AD86"/>
<path d="M173.779 152.38H167.039V159.06H173.779V152.38Z" fill="#E0AD86"/>
<path d="M173.779 145.63H167.039V152.37H173.779V145.63Z" fill="#E0AD86"/>
<path d="M173.779 138.97H167.039V145.65H173.779V138.97Z" fill="#BA7D54"/>
<path d="M173.779 132.22H167.039V138.96H173.779V132.22Z" fill="#0C0A08"/>
<path d="M173.779 125.48H167.039V132.22H173.779V125.48Z" fill="#507993"/>
<path d="M173.779 118.8H167.039V125.48H173.779V118.8Z" fill="#79B6EE"/>
<path d="M173.779 112.07H167.039V118.81H173.779V112.07Z" fill="#79B6EE"/>
<path d="M173.779 105.39H167.039V112.07H173.779V105.39Z" fill="#79B6EE"/>
<path d="M173.779 98.6499H167.039V105.39H173.779V98.6499Z" fill="black"/>
<path d="M173.779 91.97H167.039V98.65H173.779V91.97Z" fill="black"/>
<path d="M167.041 306.76H160.301V313.44H167.041V306.76Z" fill="black"/>
<path d="M167.041 300.02H160.301V306.76H167.041V300.02Z" fill="#60401E"/>
<path d="M167.041 293.35H160.301V300.03H167.041V293.35Z" fill="black"/>
<path d="M167.041 286.61H160.301V293.35H167.041V286.61Z" fill="black"/>
<path d="M167.041 279.86H160.301V286.6H167.041V279.86Z" fill="black"/>
<path d="M167.041 273.19H160.301V279.87H167.041V273.19Z" fill="#354D59"/>
<path d="M167.041 266.44H160.301V273.18H167.041V266.44Z" fill="#354D59"/>
<path d="M167.041 259.78H160.301V266.46H167.041V259.78Z" fill="#354D59"/>
<path d="M167.041 253.03H160.301V259.77H167.041V253.03Z" fill="#354D59"/>
<path d="M167.041 246.36H160.301V253.04H167.041V246.36Z" fill="#354D59"/>
<path d="M167.041 239.61H160.301V246.35H167.041V239.61Z" fill="#354D59"/>
<path d="M167.041 232.87H160.301V239.61H167.041V232.87Z" fill="#507993"/>
<path d="M167.041 226.2H160.301V232.88H167.041V226.2Z" fill="black"/>
<path d="M167.041 219.46H160.301V226.2H167.041V219.46Z" fill="#679EC6"/>
<path d="M167.041 212.78H160.301V219.46H167.041V212.78Z" fill="#679EC6"/>
<path d="M167.041 206.04H160.301V212.78H167.041V206.04Z" fill="#79B6EE"/>
<path d="M167.041 199.37H160.301V206.05H167.041V199.37Z" fill="#79B6EE"/>
<path d="M167.041 192.63H160.301V199.37H167.041V192.63Z" fill="#79B6EE"/>
<path d="M167.041 185.95H160.301V192.63H167.041V185.95Z" fill="#679EC6"/>
<path d="M167.041 179.21H160.301V185.95H167.041V179.21Z" fill="black"/>
<path d="M167.041 172.46H160.301V179.2H167.041V172.46Z" fill="black"/>
<path d="M167.041 165.8H160.301V172.48H167.041V165.8Z" fill="black"/>
<path d="M167.041 159.05H160.301V165.79H167.041V159.05Z" fill="black"/>
<path d="M167.041 152.38H160.301V159.06H167.041V152.38Z" fill="#79B6EE"/>
<path d="M167.041 145.63H160.301V152.37H167.041V145.63Z" fill="#79B6EE"/>
<path d="M167.041 138.97H160.301V145.65H167.041V138.97Z" fill="#BA7D54"/>
<path d="M167.041 132.22H160.301V138.96H167.041V132.22Z" fill="#BA7D54"/>
<path d="M167.041 125.48H160.301V132.22H167.041V125.48Z" fill="#BA7D54"/>
<path d="M167.041 118.8H160.301V125.48H167.041V118.8Z" fill="#79B6EE"/>
<path d="M167.041 112.07H160.301V118.81H167.041V112.07Z" fill="#79B6EE"/>
<path d="M167.041 105.39H160.301V112.07H167.041V105.39Z" fill="black"/>
<path d="M167.041 98.6499H160.301V105.39H167.041V98.6499Z" fill="black"/>
<path d="M160.311 306.76H153.631V313.44H160.311V306.76Z" fill="black"/>
<path d="M160.311 300.02H153.631V306.76H160.311V300.02Z" fill="black"/>
<path d="M160.311 293.35H153.631V300.03H160.311V293.35Z" fill="black"/>
<path d="M160.311 279.86H153.631V286.6H160.311V279.86Z" fill="black"/>
<path d="M160.311 273.19H153.631V279.87H160.311V273.19Z" fill="black"/>
<path d="M160.311 266.44H153.631V273.18H160.311V266.44Z" fill="black"/>
<path d="M160.311 259.78H153.631V266.46H160.311V259.78Z" fill="#354D59"/>
<path d="M160.311 253.03H153.631V259.77H160.311V253.03Z" fill="#354D59"/>
<path d="M160.311 246.36H153.631V253.04H160.311V246.36Z" fill="#507993"/>
<path d="M160.311 239.61H153.631V246.35H160.311V239.61Z" fill="#507993"/>
<path d="M160.311 232.87H153.631V239.61H160.311V232.87Z" fill="black"/>
<path d="M160.311 226.2H153.631V232.88H160.311V226.2Z" fill="black"/>
<path d="M160.311 219.46H153.631V226.2H160.311V219.46Z" fill="#79B6EE"/>
<path d="M160.311 212.78H153.631V219.46H160.311V212.78Z" fill="#79B6EE"/>
<path d="M160.311 206.04H153.631V212.78H160.311V206.04Z" fill="#79B6EE"/>
<path d="M160.311 199.37H153.631V206.05H160.311V199.37Z" fill="#79B6EE"/>
<path d="M160.311 192.63H153.631V199.37H160.311V192.63Z" fill="#679EC6"/>
<path d="M160.311 185.95H153.631V192.63H160.311V185.95Z" fill="black"/>
<path d="M160.311 159.05H153.631V165.79H160.311V159.05Z" fill="black"/>
<path d="M160.311 152.38H153.631V159.06H160.311V152.38Z" fill="black"/>
<path d="M160.311 145.63H153.631V152.37H160.311V145.63Z" fill="black"/>
<path d="M160.311 138.97H153.631V145.65H160.311V138.97Z" fill="#79B6EE"/>
<path d="M160.311 132.22H153.631V138.96H160.311V132.22Z" fill="#79B6EE"/>
<path d="M160.311 125.48H153.631V132.22H160.311V125.48Z" fill="#79B6EE"/>
<path d="M160.311 118.8H153.631V125.48H160.311V118.8Z" fill="black"/>
<path d="M160.311 112.07H153.631V118.81H160.311V112.07Z" fill="black"/>
<path d="M160.311 105.39H153.631V112.07H160.311V105.39Z" fill="black"/>
<path d="M153.631 306.76H146.891V313.44H153.631V306.76Z" fill="black"/>
<path d="M153.631 300.02H146.891V306.76H153.631V300.02Z" fill="black"/>
<path d="M153.631 266.44H146.891V273.18H153.631V266.44Z" fill="black"/>
<path d="M153.631 259.78H146.891V266.46H153.631V259.78Z" fill="black"/>
<path d="M153.631 253.03H146.891V259.77H153.631V253.03Z" fill="black"/>
<path d="M153.631 246.36H146.891V253.04H153.631V246.36Z" fill="black"/>
<path d="M153.631 239.61H146.891V246.35H153.631V239.61Z" fill="black"/>
<path d="M153.631 232.87H146.891V239.61H153.631V232.87Z" fill="black"/>
<path d="M153.631 226.2H146.891V232.88H153.631V226.2Z" fill="#E0AD86"/>
<path d="M153.631 219.46H146.891V226.2H153.631V219.46Z" fill="#E0AD86"/>
<path d="M153.631 212.78H146.891V219.46H153.631V212.78Z" fill="#79B6EE"/>
<path d="M153.631 206.04H146.891V212.78H153.631V206.04Z" fill="#79B6EE"/>
<path d="M153.631 199.37H146.891V206.05H153.631V199.37Z" fill="#679EC6"/>
<path d="M153.631 192.63H146.891V199.37H153.631V192.63Z" fill="black"/>
<path d="M153.631 145.63H146.891V152.37H153.631V145.63Z" fill="black"/>
<path d="M153.631 138.97H146.891V145.65H153.631V138.97Z" fill="black"/>
<path d="M153.631 132.22H146.891V138.96H153.631V132.22Z" fill="black"/>
<path d="M153.631 125.48H146.891V132.22H153.631V125.48Z" fill="black"/>
<path d="M153.631 118.8H146.891V125.48H153.631V118.8Z" fill="black"/>
<path d="M146.891 239.61H140.211V246.35H146.891V239.61Z" fill="black"/>
<path d="M146.891 232.87H140.211V239.61H146.891V232.87Z" fill="#E0AD86"/>
<path d="M146.891 226.2H140.211V232.88H146.891V226.2Z" fill="#E0AD86"/>
<path d="M146.891 219.46H140.211V226.2H146.891V219.46Z" fill="#E0AD86"/>
<path d="M146.891 212.78H140.211V219.46H146.891V212.78Z" fill="#E0AD86"/>
<path d="M146.891 206.04H140.211V212.78H146.891V206.04Z" fill="black"/>
<path d="M146.891 199.37H140.211V206.05H146.891V199.37Z" fill="black"/>
<path d="M140.211 232.87H133.471V239.61H140.211V232.87Z" fill="black"/>
<path d="M140.211 226.2H133.471V232.88H140.211V226.2Z" fill="black"/>
<path d="M140.211 219.46H133.471V226.2H140.211V219.46Z" fill="#E0AD86"/>
<path d="M140.211 212.78H133.471V219.46H140.211V212.78Z" fill="black"/>
<path d="M133.481 306.76H126.801V313.44H133.481V306.76Z" fill="#B50012"/>
<path d="M133.481 293.35H126.801V300.03H133.481V293.35Z" fill="#B50012"/>
<path d="M133.481 226.2H126.801V232.88H133.481V226.2Z" fill="#B50012"/>
<path d="M133.481 219.46H126.801V226.2H133.481V219.46Z" fill="#4A4A68"/>
<path d="M133.481 212.78H126.801V219.46H133.481V212.78Z" fill="#B50012"/>
<path d="M133.481 206.04H126.801V212.78H133.481V206.04Z" fill="#B50012"/>
<path d="M126.801 306.76H120.061V313.44H126.801V306.76Z" fill="#B50012"/>
<path d="M126.801 279.86H120.061V286.6H126.801V279.86Z" fill="#B50012"/>
<path d="M126.801 273.19H120.061V279.87H126.801V273.19Z" fill="#B50012"/>
<path d="M126.801 219.46H120.061V226.2H126.801V219.46Z" fill="#B50012"/>
<path d="M126.801 212.78H120.061V219.46H126.801V212.78Z" fill="#727B9B"/>
<path d="M126.801 206.04H120.061V212.78H126.801V206.04Z" fill="#727B9B"/>
<path d="M126.801 199.37H120.061V206.05H126.801V199.37Z" fill="#B50012"/>
<path d="M126.801 192.63H120.061V199.37H126.801V192.63Z" fill="#B50012"/>
<path d="M120.06 306.76H113.32V313.44H120.06V306.76Z" fill="#B50012"/>
<path d="M120.06 300.02H113.32V306.76H120.06V300.02Z" fill="#B50012"/>
<path d="M120.06 226.2H113.32V232.88H120.06V226.2Z" fill="#B50012"/>
<path d="M120.06 219.46H113.32V226.2H120.06V219.46Z" fill="#B50012"/>
<path d="M120.06 212.78H113.32V219.46H120.06V212.78Z" fill="#B50012"/>
<path d="M120.06 206.04H113.32V212.78H120.06V206.04Z" fill="#727B9B"/>
<path d="M120.06 199.37H113.32V206.05H120.06V199.37Z" fill="#727B9B"/>
<path d="M120.06 192.63H113.32V199.37H120.06V192.63Z" fill="#727B9B"/>
<path d="M120.06 185.95H113.32V192.63H120.06V185.95Z" fill="#B50012"/>
<path d="M120.06 179.21H113.32V185.95H120.06V179.21Z" fill="#B50012"/>
<path d="M113.321 306.76H106.641V313.44H113.321V306.76Z" fill="#B50012"/>
<path d="M113.321 286.61H106.641V293.35H113.321V286.61Z" fill="#B50012"/>
<path d="M113.321 246.36H106.641V253.04H113.321V246.36Z" fill="#B50012"/>
<path d="M113.321 239.61H106.641V246.35H113.321V239.61Z" fill="#B50012"/>
<path d="M113.321 212.78H106.641V219.46H113.321V212.78Z" fill="#B50012"/>
<path d="M113.321 206.04H106.641V212.78H113.321V206.04Z" fill="#B50012"/>
<path d="M113.321 199.37H106.641V206.05H113.321V199.37Z" fill="#B50012"/>
<path d="M113.321 192.63H106.641V199.37H113.321V192.63Z" fill="#727B9B"/>
<path d="M113.321 185.95H106.641V192.63H113.321V185.95Z" fill="#727B9B"/>
<path d="M113.321 179.21H106.641V185.95H113.321V179.21Z" fill="#727B9B"/>
<path d="M113.321 172.46H106.641V179.2H113.321V172.46Z" fill="#B50012"/>
<path d="M106.631 199.37H99.8906V206.05H106.631V199.37Z" fill="#B50012"/>
<path d="M106.631 192.63H99.8906V199.37H106.631V192.63Z" fill="#B50012"/>
<path d="M106.631 185.95H99.8906V192.63H106.631V185.95Z" fill="#B50012"/>
<path d="M106.631 179.21H99.8906V185.95H106.631V179.21Z" fill="#B50012"/>
</svg>
