<svg width="400" height="400" viewBox="0 0 400 400" fill="none" xmlns="http://www.w3.org/2000/svg">
<path d="M200.001 385.78C302.604 385.78 385.781 302.603 385.781 200C385.781 97.3965 302.604 14.22 200.001 14.22C97.3972 14.22 14.2207 97.3965 14.2207 200C14.2207 302.603 97.3972 385.78 200.001 385.78Z" fill="black"/>
<path d="M200.001 392.78C93.7007 392.78 7.2207 306.3 7.2207 200C7.2207 93.7 93.7007 7.21997 200.001 7.21997C306.301 7.21997 392.781 93.7 392.781 200C392.781 306.3 306.301 392.78 200.001 392.78ZM200.001 21.22C101.421 21.22 21.2207 101.42 21.2207 200C21.2207 298.58 101.421 378.78 200.001 378.78C298.581 378.78 378.781 298.58 378.781 200C378.781 101.42 298.581 21.22 200.001 21.22Z" fill="#668466"/>
<path d="M292.089 258.96H285.109V266.02H292.089V258.96Z" fill="black"/>
<path d="M292.089 251.98H285.109V258.96H292.089V251.98Z" fill="black"/>
<path d="M292.089 244.92H285.109V251.98H292.089V244.92Z" fill="black"/>
<path d="M292.089 237.87H285.109V244.92H292.089V237.87Z" fill="black"/>
<path d="M292.089 230.88H285.109V237.86H292.089V230.88Z" fill="black"/>
<path d="M292.089 223.83H285.109V230.89H292.089V223.83Z" fill="black"/>
<path d="M292.089 216.85H285.109V223.83H292.089V216.85Z" fill="black"/>
<path d="M292.089 209.79H285.109V216.85H292.089V209.79Z" fill="black"/>
<path d="M292.089 202.81H285.109V209.79H292.089V202.81Z" fill="black"/>
<path d="M292.089 195.75H285.109V202.81H292.089V195.75Z" fill="black"/>
<path d="M292.089 188.77H285.109V195.75H292.089V188.77Z" fill="black"/>
<path d="M292.089 181.71H285.109V188.77H292.089V181.71Z" fill="black"/>
<path d="M292.089 174.66H285.109V181.72H292.089V174.66Z" fill="black"/>
<path d="M292.089 146.58H285.109V153.64H292.089V146.58Z" fill="black"/>
<path d="M292.089 139.6H285.109V146.58H292.089V139.6Z" fill="black"/>
<path d="M292.089 132.54H285.109V139.6H292.089V132.54Z" fill="black"/>
<path d="M292.089 125.49H285.109V132.55H292.089V125.49Z" fill="black"/>
<path d="M285.121 266.02H278.061V273H285.121V266.02Z" fill="black"/>
<path d="M285.121 258.96H278.061V266.02H285.121V258.96Z" fill="#577C57"/>
<path d="M285.121 251.98H278.061V258.96H285.121V251.98Z" fill="#577C57"/>
<path d="M285.121 244.92H278.061V251.98H285.121V244.92Z" fill="#577C57"/>
<path d="M285.121 237.87H278.061V244.92H285.121V237.87Z" fill="#577C57"/>
<path d="M285.121 230.88H278.061V237.86H285.121V230.88Z" fill="#577C57"/>
<path d="M285.121 223.83H278.061V230.89H285.121V223.83Z" fill="#668466"/>
<path d="M285.121 216.85H278.061V223.83H285.121V216.85Z" fill="#668466"/>
<path d="M285.121 209.79H278.061V216.85H285.121V209.79Z" fill="#668466"/>
<path d="M285.121 202.81H278.061V209.79H285.121V202.81Z" fill="#577C57"/>
<path d="M285.121 195.75H278.061V202.81H285.121V195.75Z" fill="#577C57"/>
<path d="M285.121 188.77H278.061V195.75H285.121V188.77Z" fill="#577C57"/>
<path d="M285.121 181.71H278.061V188.77H285.121V181.71Z" fill="#577C57"/>
<path d="M285.121 174.66H278.061V181.72H285.121V174.66Z" fill="#577C57"/>
<path d="M285.121 167.68H278.061V174.66H285.121V167.68Z" fill="black"/>
<path d="M285.121 160.62H278.061V167.68H285.121V160.62Z" fill="black"/>
<path d="M285.121 153.64H278.061V160.62H285.121V153.64Z" fill="black"/>
<path d="M285.121 146.58H278.061V153.64H285.121V146.58Z" fill="#668466"/>
<path d="M285.121 139.6H278.061V146.58H285.121V139.6Z" fill="#446644"/>
<path d="M285.121 132.54H278.061V139.6H285.121V132.54Z" fill="#446644"/>
<path d="M285.121 125.49H278.061V132.55H285.121V125.49Z" fill="#668466"/>
<path d="M285.121 118.51H278.061V125.49H285.121V118.51Z" fill="black"/>
<path d="M285.121 111.45H278.061V118.51H285.121V111.45Z" fill="black"/>
<path d="M278.06 266.02H271.01V273H278.06V266.02Z" fill="black"/>
<path d="M278.06 258.96H271.01V266.02H278.06V258.96Z" fill="#446644"/>
<path d="M278.06 251.98H271.01V258.96H278.06V251.98Z" fill="#668466"/>
<path d="M278.06 244.92H271.01V251.98H278.06V244.92Z" fill="#668466"/>
<path d="M278.06 237.87H271.01V244.92H278.06V237.87Z" fill="#668466"/>
<path d="M278.06 230.88H271.01V237.86H278.06V230.88Z" fill="#668466"/>
<path d="M278.06 223.83H271.01V230.89H278.06V223.83Z" fill="#668466"/>
<path d="M278.06 216.85H271.01V223.83H278.06V216.85Z" fill="#668466"/>
<path d="M278.06 209.79H271.01V216.85H278.06V209.79Z" fill="#668466"/>
<path d="M278.06 202.81H271.01V209.79H278.06V202.81Z" fill="#668466"/>
<path d="M278.06 195.75H271.01V202.81H278.06V195.75Z" fill="#668466"/>
<path d="M278.06 188.77H271.01V195.75H278.06V188.77Z" fill="#668466"/>
<path d="M278.06 181.71H271.01V188.77H278.06V181.71Z" fill="#668466"/>
<path d="M278.06 174.66H271.01V181.72H278.06V174.66Z" fill="#577C57"/>
<path d="M278.06 167.68H271.01V174.66H278.06V167.68Z" fill="#446644"/>
<path d="M278.06 160.62H271.01V167.68H278.06V160.62Z" fill="#668466"/>
<path d="M278.06 153.64H271.01V160.62H278.06V153.64Z" fill="#668466"/>
<path d="M278.06 146.58H271.01V153.64H278.06V146.58Z" fill="#446644"/>
<path d="M278.06 139.6H271.01V146.58H278.06V139.6Z" fill="#668466"/>
<path d="M278.06 132.54H271.01V139.6H278.06V132.54Z" fill="#668466"/>
<path d="M278.06 125.49H271.01V132.55H278.06V125.49Z" fill="#446644"/>
<path d="M278.06 118.51H271.01V125.49H278.06V118.51Z" fill="#668466"/>
<path d="M278.06 111.45H271.01V118.51H278.06V111.45Z" fill="black"/>
<path d="M271 266.02H264.01V273H271V266.02Z" fill="black"/>
<path d="M271 258.96H264.01V266.02H271V258.96Z" fill="#446644"/>
<path d="M271 251.98H264.01V258.96H271V251.98Z" fill="#446644"/>
<path d="M271 244.92H264.01V251.98H271V244.92Z" fill="#446644"/>
<path d="M271 237.87H264.01V244.92H271V237.87Z" fill="#668466"/>
<path d="M271 230.88H264.01V237.86H271V230.88Z" fill="#668466"/>
<path d="M271 223.83H264.01V230.89H271V223.83Z" fill="#668466"/>
<path d="M271 216.85H264.01V223.83H271V216.85Z" fill="#668466"/>
<path d="M271 209.79H264.01V216.85H271V209.79Z" fill="#668466"/>
<path d="M271 202.81H264.01V209.79H271V202.81Z" fill="#668466"/>
<path d="M271 195.75H264.01V202.81H271V195.75Z" fill="#668466"/>
<path d="M271 188.77H264.01V195.75H271V188.77Z" fill="#668466"/>
<path d="M271 181.71H264.01V188.77H271V181.71Z" fill="#668466"/>
<path d="M271 174.66H264.01V181.72H271V174.66Z" fill="#668466"/>
<path d="M271 167.68H264.01V174.66H271V167.68Z" fill="#446644"/>
<path d="M271 160.62H264.01V167.68H271V160.62Z" fill="#668466"/>
<path d="M271 153.64H264.01V160.62H271V153.64Z" fill="#668466"/>
<path d="M271 146.58H264.01V153.64H271V146.58Z" fill="#668466"/>
<path d="M271 139.6H264.01V146.58H271V139.6Z" fill="#446644"/>
<path d="M271 132.54H264.01V139.6H271V132.54Z" fill="#668466"/>
<path d="M271 125.49H264.01V132.55H271V125.49Z" fill="#446644"/>
<path d="M271 118.51H264.01V125.49H271V118.51Z" fill="#668466"/>
<path d="M271 111.45H264.01V118.51H271V111.45Z" fill="black"/>
<path d="M264.019 266.02H256.969V273H264.019V266.02Z" fill="black"/>
<path d="M264.019 258.96H256.969V266.02H264.019V258.96Z" fill="#446644"/>
<path d="M264.019 251.98H256.969V258.96H264.019V251.98Z" fill="#446644"/>
<path d="M264.019 244.92H256.969V251.98H264.019V244.92Z" fill="#446644"/>
<path d="M264.019 237.87H256.969V244.92H264.019V237.87Z" fill="#446644"/>
<path d="M264.019 230.88H256.969V237.86H264.019V230.88Z" fill="#668466"/>
<path d="M264.019 223.83H256.969V230.89H264.019V223.83Z" fill="#668466"/>
<path d="M264.019 216.85H256.969V223.83H264.019V216.85Z" fill="#668466"/>
<path d="M264.019 209.79H256.969V216.85H264.019V209.79Z" fill="black"/>
<path d="M264.019 202.81H256.969V209.79H264.019V202.81Z" fill="black"/>
<path d="M264.019 195.75H256.969V202.81H264.019V195.75Z" fill="black"/>
<path d="M264.019 188.77H256.969V195.75H264.019V188.77Z" fill="black"/>
<path d="M264.019 181.71H256.969V188.77H264.019V181.71Z" fill="black"/>
<path d="M264.019 174.66H256.969V181.72H264.019V174.66Z" fill="#668466"/>
<path d="M264.019 167.68H256.969V174.66H264.019V167.68Z" fill="#446644"/>
<path d="M264.019 160.62H256.969V167.68H264.019V160.62Z" fill="black"/>
<path d="M264.019 153.64H256.969V160.62H264.019V153.64Z" fill="black"/>
<path d="M264.019 146.58H256.969V153.64H264.019V146.58Z" fill="black"/>
<path d="M264.019 139.6H256.969V146.58H264.019V139.6Z" fill="black"/>
<path d="M264.019 132.54H256.969V139.6H264.019V132.54Z" fill="#668466"/>
<path d="M264.019 125.49H256.969V132.55H264.019V125.49Z" fill="#668466"/>
<path d="M264.019 118.51H256.969V125.49H264.019V118.51Z" fill="#668466"/>
<path d="M264.019 111.45H256.969V118.51H264.019V111.45Z" fill="black"/>
<path d="M256.96 315.19H249.98V322.17H256.96V315.19Z" fill="black"/>
<path d="M256.96 308.13H249.98V315.19H256.96V308.13Z" fill="black"/>
<path d="M256.96 266.02H249.98V273H256.96V266.02Z" fill="black"/>
<path d="M256.96 258.96H249.98V266.02H256.96V258.96Z" fill="#446644"/>
<path d="M256.96 251.98H249.98V258.96H256.96V251.98Z" fill="#446644"/>
<path d="M256.96 244.92H249.98V251.98H256.96V244.92Z" fill="#446644"/>
<path d="M256.96 237.87H249.98V244.92H256.96V237.87Z" fill="#446644"/>
<path d="M256.96 230.88H249.98V237.86H256.96V230.88Z" fill="#446644"/>
<path d="M256.96 223.83H249.98V230.89H256.96V223.83Z" fill="#446644"/>
<path d="M256.96 216.85H249.98V223.83H256.96V216.85Z" fill="black"/>
<path d="M256.96 209.79H249.98V216.85H256.96V209.79Z" fill="#8ABC8A"/>
<path d="M256.96 202.81H249.98V209.79H256.96V202.81Z" fill="#8ABC8A"/>
<path d="M256.96 195.75H249.98V202.81H256.96V195.75Z" fill="#8ABC8A"/>
<path d="M256.96 188.77H249.98V195.75H256.96V188.77Z" fill="#8ABC8A"/>
<path d="M256.96 181.71H249.98V188.77H256.96V181.71Z" fill="#8ABC8A"/>
<path d="M256.96 174.66H249.98V181.72H256.96V174.66Z" fill="black"/>
<path d="M256.96 167.68H249.98V174.66H256.96V167.68Z" fill="#446644"/>
<path d="M256.96 160.62H249.98V167.68H256.96V160.62Z" fill="black"/>
<path d="M256.96 153.64H249.98V160.62H256.96V153.64Z" fill="#969696"/>
<path d="M256.96 146.58H249.98V153.64H256.96V146.58Z" fill="#969696"/>
<path d="M256.96 139.6H249.98V146.58H256.96V139.6Z" fill="black"/>
<path d="M256.96 132.54H249.98V139.6H256.96V132.54Z" fill="#668466"/>
<path d="M256.96 125.49H249.98V132.55H256.96V125.49Z" fill="#668466"/>
<path d="M256.96 118.51H249.98V125.49H256.96V118.51Z" fill="black"/>
<path d="M249.98 315.19H242.92V322.17H249.98V315.19Z" fill="black"/>
<path d="M249.98 308.13H242.92V315.19H249.98V308.13Z" fill="#724107"/>
<path d="M249.98 301.15H242.92V308.13H249.98V301.15Z" fill="black"/>
<path d="M249.98 294.09H242.92V301.15H249.98V294.09Z" fill="black"/>
<path d="M249.98 258.96H242.92V266.02H249.98V258.96Z" fill="black"/>
<path d="M249.98 251.98H242.92V258.96H249.98V251.98Z" fill="#446644"/>
<path d="M249.98 244.92H242.92V251.98H249.98V244.92Z" fill="#446644"/>
<path d="M249.98 237.87H242.92V244.92H249.98V237.87Z" fill="#446644"/>
<path d="M249.98 230.88H242.92V237.86H249.98V230.88Z" fill="#446644"/>
<path d="M249.98 223.83H242.92V230.89H249.98V223.83Z" fill="black"/>
<path d="M249.98 216.85H242.92V223.83H249.98V216.85Z" fill="#9DCF9D"/>
<path d="M249.98 209.79H242.92V216.85H249.98V209.79Z" fill="#9DCF9D"/>
<path d="M249.98 202.81H242.92V209.79H249.98V202.81Z" fill="#9DCF9D"/>
<path d="M249.98 195.75H242.92V202.81H249.98V195.75Z" fill="#9DCF9D"/>
<path d="M249.98 188.77H242.92V195.75H249.98V188.77Z" fill="#9DCF9D"/>
<path d="M249.98 181.71H242.92V188.77H249.98V181.71Z" fill="#8ABC8A"/>
<path d="M249.98 174.66H242.92V181.72H249.98V174.66Z" fill="#73C6C6"/>
<path d="M249.98 167.68H242.92V174.66H249.98V167.68Z" fill="black"/>
<path d="M249.98 160.62H242.92V167.68H249.98V160.62Z" fill="black"/>
<path d="M249.98 153.64H242.92V160.62H249.98V153.64Z" fill="#969696"/>
<path d="M249.98 146.58H242.92V153.64H249.98V146.58Z" fill="#969696"/>
<path d="M249.98 139.6H242.92V146.58H249.98V139.6Z" fill="#969696"/>
<path d="M249.98 132.54H242.92V139.6H249.98V132.54Z" fill="black"/>
<path d="M249.98 125.49H242.92V132.55H249.98V125.49Z" fill="black"/>
<path d="M242.919 315.19H235.939V322.17H242.919V315.19Z" fill="black"/>
<path d="M242.919 308.13H235.939V315.19H242.919V308.13Z" fill="#724107"/>
<path d="M242.919 301.15H235.939V308.13H242.919V301.15Z" fill="#4C3A1F"/>
<path d="M242.919 294.09H235.939V301.15H242.919V294.09Z" fill="#4C3A1F"/>
<path d="M242.919 287.04H235.939V294.09H242.919V287.04Z" fill="black"/>
<path d="M242.919 280.05H235.939V287.04H242.919V280.05Z" fill="black"/>
<path d="M242.919 273.01H235.939V280.06H242.919V273.01Z" fill="black"/>
<path d="M242.919 266.02H235.939V273H242.919V266.02Z" fill="black"/>
<path d="M242.919 258.96H235.939V266.02H242.919V258.96Z" fill="black"/>
<path d="M242.919 251.98H235.939V258.96H242.919V251.98Z" fill="black"/>
<path d="M242.919 244.92H235.939V251.98H242.919V244.92Z" fill="black"/>
<path d="M242.919 237.87H235.939V244.92H242.919V237.87Z" fill="#446644"/>
<path d="M242.919 230.88H235.939V237.86H242.919V230.88Z" fill="black"/>
<path d="M242.919 223.83H235.939V230.89H242.919V223.83Z" fill="#668466"/>
<path d="M242.919 216.85H235.939V223.83H242.919V216.85Z" fill="#668466"/>
<path d="M242.919 209.79H235.939V216.85H242.919V209.79Z" fill="#668466"/>
<path d="M242.919 202.81H235.939V209.79H242.919V202.81Z" fill="#668466"/>
<path d="M242.919 195.75H235.939V202.81H242.919V195.75Z" fill="#9DCF9D"/>
<path d="M242.919 188.77H235.939V195.75H242.919V188.77Z" fill="#9DCF9D"/>
<path d="M242.919 181.71H235.939V188.77H242.919V181.71Z" fill="#8ABC8A"/>
<path d="M242.919 174.66H235.939V181.72H242.919V174.66Z" fill="#9FF5F7"/>
<path d="M242.919 167.68H235.939V174.66H242.919V167.68Z" fill="#73C6C6"/>
<path d="M242.919 160.62H235.939V167.68H242.919V160.62Z" fill="#969696"/>
<path d="M242.919 153.64H235.939V160.62H242.919V153.64Z" fill="#969696"/>
<path d="M242.919 146.58H235.939V153.64H242.919V146.58Z" fill="#969696"/>
<path d="M242.919 139.6H235.939V146.58H242.919V139.6Z" fill="#FFD8AE"/>
<path d="M242.919 132.54H235.939V139.6H242.919V132.54Z" fill="#969696"/>
<path d="M242.919 125.49H235.939V132.55H242.919V125.49Z" fill="black"/>
<path d="M242.919 118.51H235.939V125.49H242.919V118.51Z" fill="black"/>
<path d="M242.919 111.45H235.939V118.51H242.919V111.45Z" fill="black"/>
<path d="M235.951 315.19H228.891V322.17H235.951V315.19Z" fill="black"/>
<path d="M235.951 308.13H228.891V315.19H235.951V308.13Z" fill="#724107"/>
<path d="M235.951 301.15H228.891V308.13H235.951V301.15Z" fill="#4C3A1F"/>
<path d="M235.951 294.09H228.891V301.15H235.951V294.09Z" fill="#4C3A1F"/>
<path d="M235.951 287.04H228.891V294.09H235.951V287.04Z" fill="#4C3A1F"/>
<path d="M235.951 280.05H228.891V287.04H235.951V280.05Z" fill="#4C3A1F"/>
<path d="M235.951 273.01H228.891V280.06H235.951V273.01Z" fill="#4C3A1F"/>
<path d="M235.951 266.02H228.891V273H235.951V266.02Z" fill="#634D27"/>
<path d="M235.951 258.96H228.891V266.02H235.951V258.96Z" fill="#634D27"/>
<path d="M235.951 251.98H228.891V258.96H235.951V251.98Z" fill="#634D27"/>
<path d="M235.951 244.92H228.891V251.98H235.951V244.92Z" fill="#634D27"/>
<path d="M235.951 237.87H228.891V244.92H235.951V237.87Z" fill="black"/>
<path d="M235.951 230.88H228.891V237.86H235.951V230.88Z" fill="black"/>
<path d="M235.951 223.83H228.891V230.89H235.951V223.83Z" fill="#FFD8AE"/>
<path d="M235.951 216.85H228.891V223.83H235.951V216.85Z" fill="#FFD8AE"/>
<path d="M235.951 209.79H228.891V216.85H235.951V209.79Z" fill="#FFD8AE"/>
<path d="M235.951 202.81H228.891V209.79H235.951V202.81Z" fill="#668466"/>
<path d="M235.951 195.75H228.891V202.81H235.951V195.75Z" fill="#9DCF9D"/>
<path d="M235.951 188.77H228.891V195.75H235.951V188.77Z" fill="#8ABC8A"/>
<path d="M235.951 181.71H228.891V188.77H235.951V181.71Z" fill="#9FF5F7"/>
<path d="M235.951 174.66H228.891V181.72H235.951V174.66Z" fill="#9FF5F7"/>
<path d="M235.951 167.68H228.891V174.66H235.951V167.68Z" fill="#9FF5F7"/>
<path d="M235.951 160.62H228.891V167.68H235.951V160.62Z" fill="#73C6C6"/>
<path d="M235.951 153.64H228.891V160.62H235.951V153.64Z" fill="#73C6C6"/>
<path d="M235.951 146.58H228.891V153.64H235.951V146.58Z" fill="#DBAB7B"/>
<path d="M235.951 139.6H228.891V146.58H235.951V139.6Z" fill="#DBAB7B"/>
<path d="M235.951 132.54H228.891V139.6H235.951V132.54Z" fill="#969696"/>
<path d="M235.951 125.49H228.891V132.55H235.951V125.49Z" fill="#969696"/>
<path d="M235.951 118.51H228.891V125.49H235.951V118.51Z" fill="#969696"/>
<path d="M235.951 111.45H228.891V118.51H235.951V111.45Z" fill="black"/>
<path d="M235.951 104.47H228.891V111.45H235.951V104.47Z" fill="black"/>
<path d="M228.89 315.19H221.84V322.17H228.89V315.19Z" fill="black"/>
<path d="M228.89 308.13H221.84V315.19H228.89V308.13Z" fill="black"/>
<path d="M228.89 301.15H221.84V308.13H228.89V301.15Z" fill="black"/>
<path d="M228.89 294.09H221.84V301.15H228.89V294.09Z" fill="#4C3A1F"/>
<path d="M228.89 287.04H221.84V294.09H228.89V287.04Z" fill="#4C3A1F"/>
<path d="M228.89 280.05H221.84V287.04H228.89V280.05Z" fill="#634D27"/>
<path d="M228.89 273.01H221.84V280.06H228.89V273.01Z" fill="#634D27"/>
<path d="M228.89 266.02H221.84V273H228.89V266.02Z" fill="#634D27"/>
<path d="M228.89 258.96H221.84V266.02H228.89V258.96Z" fill="#634D27"/>
<path d="M228.89 251.98H221.84V258.96H228.89V251.98Z" fill="#634D27"/>
<path d="M228.89 244.92H221.84V251.98H228.89V244.92Z" fill="#634D27"/>
<path d="M228.89 237.87H221.84V244.92H228.89V237.87Z" fill="#4C3A1F"/>
<path d="M228.89 230.88H221.84V237.86H228.89V230.88Z" fill="#8ABC8A"/>
<path d="M228.89 223.83H221.84V230.89H228.89V223.83Z" fill="#FFD8AE"/>
<path d="M228.89 216.85H221.84V223.83H228.89V216.85Z" fill="#FFD8AE"/>
<path d="M228.89 209.79H221.84V216.85H228.89V209.79Z" fill="#FFD8AE"/>
<path d="M228.89 202.81H221.84V209.79H228.89V202.81Z" fill="#9DCF9D"/>
<path d="M228.89 195.75H221.84V202.81H228.89V195.75Z" fill="#9DCF9D"/>
<path d="M228.89 188.77H221.84V195.75H228.89V188.77Z" fill="#9FF5F7"/>
<path d="M228.89 181.71H221.84V188.77H228.89V181.71Z" fill="#9FF5F7"/>
<path d="M228.89 174.66H221.84V181.72H228.89V174.66Z" fill="#73C6C6"/>
<path d="M228.89 167.68H221.84V174.66H228.89V167.68Z" fill="#9FF5F7"/>
<path d="M228.89 160.62H221.84V167.68H228.89V160.62Z" fill="#9FF5F7"/>
<path d="M228.89 153.64H221.84V160.62H228.89V153.64Z" fill="#73C6C6"/>
<path d="M228.89 146.58H221.84V153.64H228.89V146.58Z" fill="#FFD8AE"/>
<path d="M228.89 139.6H221.84V146.58H228.89V139.6Z" fill="#FFD8AE"/>
<path d="M228.89 132.54H221.84V139.6H228.89V132.54Z" fill="#FFD8AE"/>
<path d="M228.89 125.49H221.84V132.55H228.89V125.49Z" fill="#AFAFAF"/>
<path d="M228.89 118.51H221.84V125.49H228.89V118.51Z" fill="#AFAFAF"/>
<path d="M228.89 111.45H221.84V118.51H228.89V111.45Z" fill="#969696"/>
<path d="M228.89 104.47H221.84V111.45H228.89V104.47Z" fill="#969696"/>
<path d="M228.89 97.4099H221.84V104.47H228.89V97.4099Z" fill="black"/>
<path d="M221.83 294.09H214.85V301.15H221.83V294.09Z" fill="black"/>
<path d="M221.83 287.04H214.85V294.09H221.83V287.04Z" fill="black"/>
<path d="M221.83 280.05H214.85V287.04H221.83V280.05Z" fill="#634D27"/>
<path d="M221.83 273.01H214.85V280.06H221.83V273.01Z" fill="#634D27"/>
<path d="M221.83 266.02H214.85V273H221.83V266.02Z" fill="#634D27"/>
<path d="M221.83 258.96H214.85V266.02H221.83V258.96Z" fill="#634D27"/>
<path d="M221.83 251.98H214.85V258.96H221.83V251.98Z" fill="#634D27"/>
<path d="M221.83 244.92H214.85V251.98H221.83V244.92Z" fill="#634D27"/>
<path d="M221.83 237.87H214.85V244.92H221.83V237.87Z" fill="#4C3A1F"/>
<path d="M221.83 230.88H214.85V237.86H221.83V230.88Z" fill="#8ABC8A"/>
<path d="M221.83 223.83H214.85V230.89H221.83V223.83Z" fill="#9DCF9D"/>
<path d="M221.83 216.85H214.85V223.83H221.83V216.85Z" fill="#9DCF9D"/>
<path d="M221.83 209.79H214.85V216.85H221.83V209.79Z" fill="#FFD8AE"/>
<path d="M221.83 202.81H214.85V209.79H221.83V202.81Z" fill="#9DCF9D"/>
<path d="M221.83 195.75H214.85V202.81H221.83V195.75Z" fill="#73C6C6"/>
<path d="M221.83 188.77H214.85V195.75H221.83V188.77Z" fill="#9FF5F7"/>
<path d="M221.83 181.71H214.85V188.77H221.83V181.71Z" fill="#9FF5F7"/>
<path d="M221.83 174.66H214.85V181.72H221.83V174.66Z" fill="#9FF5F7"/>
<path d="M221.83 167.68H214.85V174.66H221.83V167.68Z" fill="#73C6C6"/>
<path d="M221.83 160.62H214.85V167.68H221.83V160.62Z" fill="#73C6C6"/>
<path d="M221.83 153.64H214.85V160.62H221.83V153.64Z" fill="#FFD8AE"/>
<path d="M221.83 146.58H214.85V153.64H221.83V146.58Z" fill="#FFD8AE"/>
<path d="M221.83 139.6H214.85V146.58H221.83V139.6Z" fill="black"/>
<path d="M221.83 132.54H214.85V139.6H221.83V132.54Z" fill="#FFD8AE"/>
<path d="M221.83 125.49H214.85V132.55H221.83V125.49Z" fill="#AFAFAF"/>
<path d="M221.83 118.51H214.85V125.49H221.83V118.51Z" fill="#AFAFAF"/>
<path d="M221.83 111.45H214.85V118.51H221.83V111.45Z" fill="#AFAFAF"/>
<path d="M221.83 104.47H214.85V111.45H221.83V104.47Z" fill="#969696"/>
<path d="M221.83 97.4099H214.85V104.47H221.83V97.4099Z" fill="black"/>
<path d="M214.849 287.04H207.789V294.09H214.849V287.04Z" fill="black"/>
<path d="M214.849 280.05H207.789V287.04H214.849V280.05Z" fill="black"/>
<path d="M214.849 273.01H207.789V280.06H214.849V273.01Z" fill="black"/>
<path d="M214.849 266.02H207.789V273H214.849V266.02Z" fill="#634D27"/>
<path d="M214.849 258.96H207.789V266.02H214.849V258.96Z" fill="#634D27"/>
<path d="M214.849 251.98H207.789V258.96H214.849V251.98Z" fill="#634D27"/>
<path d="M214.849 244.92H207.789V251.98H214.849V244.92Z" fill="#634D27"/>
<path d="M214.849 237.87H207.789V244.92H214.849V237.87Z" fill="#4C3A1F"/>
<path d="M214.849 230.88H207.789V237.86H214.849V230.88Z" fill="#8ABC8A"/>
<path d="M214.849 223.83H207.789V230.89H214.849V223.83Z" fill="#9DCF9D"/>
<path d="M214.849 216.85H207.789V223.83H214.849V216.85Z" fill="#9DCF9D"/>
<path d="M214.849 209.79H207.789V216.85H214.849V209.79Z" fill="#9DCF9D"/>
<path d="M214.849 202.81H207.789V209.79H214.849V202.81Z" fill="#9DCF9D"/>
<path d="M214.849 195.75H207.789V202.81H214.849V195.75Z" fill="#8ABC8A"/>
<path d="M214.849 188.77H207.789V195.75H214.849V188.77Z" fill="#73C6C6"/>
<path d="M214.849 181.71H207.789V188.77H214.849V181.71Z" fill="#9FF5F7"/>
<path d="M214.849 174.66H207.789V181.72H214.849V174.66Z" fill="#9FF5F7"/>
<path d="M214.849 167.68H207.789V174.66H214.849V167.68Z" fill="#9FF5F7"/>
<path d="M214.849 160.62H207.789V167.68H214.849V160.62Z" fill="#73C6C6"/>
<path d="M214.849 153.64H207.789V160.62H214.849V153.64Z" fill="#FFD8AE"/>
<path d="M214.849 146.58H207.789V153.64H214.849V146.58Z" fill="#FFD8AE"/>
<path d="M214.849 139.6H207.789V146.58H214.849V139.6Z" fill="#FFD8AE"/>
<path d="M214.849 132.54H207.789V139.6H214.849V132.54Z" fill="#FFD8AE"/>
<path d="M214.849 125.49H207.789V132.55H214.849V125.49Z" fill="#AFAFAF"/>
<path d="M214.849 118.51H207.789V125.49H214.849V118.51Z" fill="#AFAFAF"/>
<path d="M214.849 111.45H207.789V118.51H214.849V111.45Z" fill="#AFAFAF"/>
<path d="M214.849 104.47H207.789V111.45H214.849V104.47Z" fill="#969696"/>
<path d="M214.849 97.4099H207.789V104.47H214.849V97.4099Z" fill="black"/>
<path d="M207.791 315.19H200.811V322.17H207.791V315.19Z" fill="black"/>
<path d="M207.791 308.13H200.811V315.19H207.791V308.13Z" fill="black"/>
<path d="M207.791 301.15H200.811V308.13H207.791V301.15Z" fill="black"/>
<path d="M207.791 294.09H200.811V301.15H207.791V294.09Z" fill="black"/>
<path d="M207.791 287.04H200.811V294.09H207.791V287.04Z" fill="#4C3A1F"/>
<path d="M207.791 280.05H200.811V287.04H207.791V280.05Z" fill="#634D27"/>
<path d="M207.791 273.01H200.811V280.06H207.791V273.01Z" fill="#634D27"/>
<path d="M207.791 266.02H200.811V273H207.791V266.02Z" fill="#634D27"/>
<path d="M207.791 258.96H200.811V266.02H207.791V258.96Z" fill="#634D27"/>
<path d="M207.791 251.98H200.811V258.96H207.791V251.98Z" fill="#634D27"/>
<path d="M207.791 244.92H200.811V251.98H207.791V244.92Z" fill="#4C3A1F"/>
<path d="M207.791 237.87H200.811V244.92H207.791V237.87Z" fill="#8ABC8A"/>
<path d="M207.791 230.88H200.811V237.86H207.791V230.88Z" fill="#8ABC8A"/>
<path d="M207.791 223.83H200.811V230.89H207.791V223.83Z" fill="#9DCF9D"/>
<path d="M207.791 216.85H200.811V223.83H207.791V216.85Z" fill="#9DCF9D"/>
<path d="M207.791 209.79H200.811V216.85H207.791V209.79Z" fill="#9DCF9D"/>
<path d="M207.791 202.81H200.811V209.79H207.791V202.81Z" fill="#9DCF9D"/>
<path d="M207.791 195.75H200.811V202.81H207.791V195.75Z" fill="#8ABC8A"/>
<path d="M207.791 188.77H200.811V195.75H207.791V188.77Z" fill="#8ABC8A"/>
<path d="M207.791 181.71H200.811V188.77H207.791V181.71Z" fill="#73C6C6"/>
<path d="M207.791 174.66H200.811V181.72H207.791V174.66Z" fill="#9FF5F7"/>
<path d="M207.791 167.68H200.811V174.66H207.791V167.68Z" fill="#9FF5F7"/>
<path d="M207.791 160.62H200.811V167.68H207.791V160.62Z" fill="#73C6C6"/>
<path d="M207.791 153.64H200.811V160.62H207.791V153.64Z" fill="#FFD8AE"/>
<path d="M207.791 146.58H200.811V153.64H207.791V146.58Z" fill="#FFD8AE"/>
<path d="M207.791 139.6H200.811V146.58H207.791V139.6Z" fill="#FFD8AE"/>
<path d="M207.791 132.54H200.811V139.6H207.791V132.54Z" fill="#FFD8AE"/>
<path d="M207.791 125.49H200.811V132.55H207.791V125.49Z" fill="#AFAFAF"/>
<path d="M207.791 118.51H200.811V125.49H207.791V118.51Z" fill="#AFAFAF"/>
<path d="M207.791 111.45H200.811V118.51H207.791V111.45Z" fill="#AFAFAF"/>
<path d="M207.791 104.47H200.811V111.45H207.791V104.47Z" fill="#AFAFAF"/>
<path d="M207.791 97.4099H200.811V104.47H207.791V97.4099Z" fill="#969696"/>
<path d="M207.791 90.4299H200.811V97.4099H207.791V90.4299Z" fill="black"/>
<path d="M200.81 315.19H193.75V322.17H200.81V315.19Z" fill="black"/>
<path d="M200.81 308.13H193.75V315.19H200.81V308.13Z" fill="#724107"/>
<path d="M200.81 301.15H193.75V308.13H200.81V301.15Z" fill="#4C3A1F"/>
<path d="M200.81 294.09H193.75V301.15H200.81V294.09Z" fill="#4C3A1F"/>
<path d="M200.81 287.04H193.75V294.09H200.81V287.04Z" fill="#4C3A1F"/>
<path d="M200.81 280.05H193.75V287.04H200.81V280.05Z" fill="#4C3A1F"/>
<path d="M200.81 273.01H193.75V280.06H200.81V273.01Z" fill="#634D27"/>
<path d="M200.81 266.02H193.75V273H200.81V266.02Z" fill="#634D27"/>
<path d="M200.81 258.96H193.75V266.02H200.81V258.96Z" fill="#634D27"/>
<path d="M200.81 251.98H193.75V258.96H200.81V251.98Z" fill="#634D27"/>
<path d="M200.81 244.92H193.75V251.98H200.81V244.92Z" fill="#4C3A1F"/>
<path d="M200.81 237.87H193.75V244.92H200.81V237.87Z" fill="#8ABC8A"/>
<path d="M200.81 230.88H193.75V237.86H200.81V230.88Z" fill="#9DCF9D"/>
<path d="M200.81 223.83H193.75V230.89H200.81V223.83Z" fill="#9FF5F7"/>
<path d="M200.81 216.85H193.75V223.83H200.81V216.85Z" fill="#9DCF9D"/>
<path d="M200.81 209.79H193.75V216.85H200.81V209.79Z" fill="#9DCF9D"/>
<path d="M200.81 202.81H193.75V209.79H200.81V202.81Z" fill="#9FF5F7"/>
<path d="M200.81 195.75H193.75V202.81H200.81V195.75Z" fill="#9DCF9D"/>
<path d="M200.81 188.77H193.75V195.75H200.81V188.77Z" fill="#9DCF9D"/>
<path d="M200.81 181.71H193.75V188.77H200.81V181.71Z" fill="#73C6C6"/>
<path d="M200.81 174.66H193.75V181.72H200.81V174.66Z" fill="#9FF5F7"/>
<path d="M200.81 167.68H193.75V174.66H200.81V167.68Z" fill="#9FF5F7"/>
<path d="M200.81 160.62H193.75V167.68H200.81V160.62Z" fill="#73C6C6"/>
<path d="M200.81 153.64H193.75V160.62H200.81V153.64Z" fill="#FFD8AE"/>
<path d="M200.81 146.58H193.75V153.64H200.81V146.58Z" fill="#FFD8AE"/>
<path d="M200.81 139.6H193.75V146.58H200.81V139.6Z" fill="black"/>
<path d="M200.81 132.54H193.75V139.6H200.81V132.54Z" fill="#FFD8AE"/>
<path d="M200.81 125.49H193.75V132.55H200.81V125.49Z" fill="#AFAFAF"/>
<path d="M200.81 118.51H193.75V125.49H200.81V118.51Z" fill="#AFAFAF"/>
<path d="M200.81 111.45H193.75V118.51H200.81V111.45Z" fill="#AFAFAF"/>
<path d="M200.81 104.47H193.75V111.45H200.81V104.47Z" fill="#AFAFAF"/>
<path d="M200.81 97.4099H193.75V104.47H200.81V97.4099Z" fill="#969696"/>
<path d="M200.81 90.4299H193.75V97.4099H200.81V90.4299Z" fill="black"/>
<path d="M193.75 315.19H186.77V322.17H193.75V315.19Z" fill="black"/>
<path d="M193.75 308.13H186.77V315.19H193.75V308.13Z" fill="#724107"/>
<path d="M193.75 301.15H186.77V308.13H193.75V301.15Z" fill="#4C3A1F"/>
<path d="M193.75 294.09H186.77V301.15H193.75V294.09Z" fill="#4C3A1F"/>
<path d="M193.75 287.04H186.77V294.09H193.75V287.04Z" fill="#4C3A1F"/>
<path d="M193.75 280.05H186.77V287.04H193.75V280.05Z" fill="#4C3A1F"/>
<path d="M193.75 273.01H186.77V280.06H193.75V273.01Z" fill="#4C3A1F"/>
<path d="M193.75 266.02H186.77V273H193.75V266.02Z" fill="#634D27"/>
<path d="M193.75 258.96H186.77V266.02H193.75V258.96Z" fill="#634D27"/>
<path d="M193.75 251.98H186.77V258.96H193.75V251.98Z" fill="#634D27"/>
<path d="M193.75 244.92H186.77V251.98H193.75V244.92Z" fill="#4C3A1F"/>
<path d="M193.75 237.87H186.77V244.92H193.75V237.87Z" fill="#668466"/>
<path d="M193.75 230.88H186.77V237.86H193.75V230.88Z" fill="#668466"/>
<path d="M193.75 223.83H186.77V230.89H193.75V223.83Z" fill="#668466"/>
<path d="M193.75 216.85H186.77V223.83H193.75V216.85Z" fill="#668466"/>
<path d="M193.75 209.79H186.77V216.85H193.75V209.79Z" fill="#668466"/>
<path d="M193.75 202.81H186.77V209.79H193.75V202.81Z" fill="#668466"/>
<path d="M193.75 195.75H186.77V202.81H193.75V195.75Z" fill="#668466"/>
<path d="M193.75 188.77H186.77V195.75H193.75V188.77Z" fill="#668466"/>
<path d="M193.75 181.71H186.77V188.77H193.75V181.71Z" fill="#73C6C6"/>
<path d="M193.75 174.66H186.77V181.72H193.75V174.66Z" fill="#9FF5F7"/>
<path d="M193.75 167.68H186.77V174.66H193.75V167.68Z" fill="#73C6C6"/>
<path d="M193.75 160.62H186.77V167.68H193.75V160.62Z" fill="#73C6C6"/>
<path d="M193.75 153.64H186.77V160.62H193.75V153.64Z" fill="#FFD8AE"/>
<path d="M193.75 146.58H186.77V153.64H193.75V146.58Z" fill="#FFD8AE"/>
<path d="M193.75 139.6H186.77V146.58H193.75V139.6Z" fill="#FFD8AE"/>
<path d="M193.75 132.54H186.77V139.6H193.75V132.54Z" fill="#AFAFAF"/>
<path d="M193.75 125.49H186.77V132.55H193.75V125.49Z" fill="#AFAFAF"/>
<path d="M193.75 118.51H186.77V125.49H193.75V118.51Z" fill="#AFAFAF"/>
<path d="M193.75 111.45H186.77V118.51H193.75V111.45Z" fill="#AFAFAF"/>
<path d="M193.75 104.47H186.77V111.45H193.75V104.47Z" fill="#AFAFAF"/>
<path d="M193.75 97.4099H186.77V104.47H193.75V97.4099Z" fill="#AFAFAF"/>
<path d="M193.75 90.4299H186.77V97.4099H193.75V90.4299Z" fill="black"/>
<path d="M186.779 315.19H179.719V322.17H186.779V315.19Z" fill="black"/>
<path d="M186.779 308.13H179.719V315.19H186.779V308.13Z" fill="#724107"/>
<path d="M186.779 301.15H179.719V308.13H186.779V301.15Z" fill="#724107"/>
<path d="M186.779 294.09H179.719V301.15H186.779V294.09Z" fill="black"/>
<path d="M186.779 287.04H179.719V294.09H186.779V287.04Z" fill="black"/>
<path d="M186.779 280.05H179.719V287.04H186.779V280.05Z" fill="black"/>
<path d="M186.779 273.01H179.719V280.06H186.779V273.01Z" fill="#4C3A1F"/>
<path d="M186.779 266.02H179.719V273H186.779V266.02Z" fill="#4C3A1F"/>
<path d="M186.779 258.96H179.719V266.02H186.779V258.96Z" fill="#4C3A1F"/>
<path d="M186.779 251.98H179.719V258.96H186.779V251.98Z" fill="#4C3A1F"/>
<path d="M186.779 244.92H179.719V251.98H186.779V244.92Z" fill="#4C3A1F"/>
<path d="M186.779 237.87H179.719V244.92H186.779V237.87Z" fill="#8ABC8A"/>
<path d="M186.779 230.88H179.719V237.86H186.779V230.88Z" fill="#9DCF9D"/>
<path d="M186.779 223.83H179.719V230.89H186.779V223.83Z" fill="#9DCF9D"/>
<path d="M186.779 216.85H179.719V223.83H186.779V216.85Z" fill="#9DCF9D"/>
<path d="M186.779 209.79H179.719V216.85H186.779V209.79Z" fill="#9DCF9D"/>
<path d="M186.779 202.81H179.719V209.79H186.779V202.81Z" fill="#9DCF9D"/>
<path d="M186.779 195.75H179.719V202.81H186.779V195.75Z" fill="#9DCF9D"/>
<path d="M186.779 188.77H179.719V195.75H186.779V188.77Z" fill="#73C6C6"/>
<path d="M186.779 181.71H179.719V188.77H186.779V181.71Z" fill="#9FF5F7"/>
<path d="M186.779 174.66H179.719V181.72H186.779V174.66Z" fill="#9FF5F7"/>
<path d="M186.779 167.68H179.719V174.66H186.779V167.68Z" fill="#73C6C6"/>
<path d="M186.779 160.62H179.719V167.68H186.779V160.62Z" fill="#73C6C6"/>
<path d="M186.779 153.64H179.719V160.62H186.779V153.64Z" fill="#969696"/>
<path d="M186.779 146.58H179.719V153.64H186.779V146.58Z" fill="#FFD8AE"/>
<path d="M186.779 139.6H179.719V146.58H186.779V139.6Z" fill="#AFAFAF"/>
<path d="M186.779 132.54H179.719V139.6H186.779V132.54Z" fill="#AFAFAF"/>
<path d="M186.779 125.49H179.719V132.55H186.779V125.49Z" fill="#AFAFAF"/>
<path d="M186.779 118.51H179.719V125.49H186.779V118.51Z" fill="#AFAFAF"/>
<path d="M186.779 111.45H179.719V118.51H186.779V111.45Z" fill="#AFAFAF"/>
<path d="M186.779 104.47H179.719V111.45H186.779V104.47Z" fill="#AFAFAF"/>
<path d="M186.779 97.4099H179.719V104.47H186.779V97.4099Z" fill="black"/>
<path d="M179.71 315.19H172.73V322.17H179.71V315.19Z" fill="black"/>
<path d="M179.71 308.13H172.73V315.19H179.71V308.13Z" fill="#724107"/>
<path d="M179.71 301.15H172.73V308.13H179.71V301.15Z" fill="black"/>
<path d="M179.71 273.01H172.73V280.06H179.71V273.01Z" fill="black"/>
<path d="M179.71 266.02H172.73V273H179.71V266.02Z" fill="black"/>
<path d="M179.71 258.96H172.73V266.02H179.71V258.96Z" fill="black"/>
<path d="M179.71 251.98H172.73V258.96H179.71V251.98Z" fill="black"/>
<path d="M179.71 244.92H172.73V251.98H179.71V244.92Z" fill="black"/>
<path d="M179.71 237.87H172.73V244.92H179.71V237.87Z" fill="black"/>
<path d="M179.71 230.88H172.73V237.86H179.71V230.88Z" fill="#9DCF9D"/>
<path d="M179.71 223.83H172.73V230.89H179.71V223.83Z" fill="#9DCF9D"/>
<path d="M179.71 216.85H172.73V223.83H179.71V216.85Z" fill="#9DCF9D"/>
<path d="M179.71 209.79H172.73V216.85H179.71V209.79Z" fill="#9DCF9D"/>
<path d="M179.71 202.81H172.73V209.79H179.71V202.81Z" fill="#9DCF9D"/>
<path d="M179.71 195.75H172.73V202.81H179.71V195.75Z" fill="#9DCF9D"/>
<path d="M179.71 188.77H172.73V195.75H179.71V188.77Z" fill="#73C6C6"/>
<path d="M179.71 181.71H172.73V188.77H179.71V181.71Z" fill="#73C6C6"/>
<path d="M179.71 174.66H172.73V181.72H179.71V174.66Z" fill="#73C6C6"/>
<path d="M179.71 167.68H172.73V174.66H179.71V167.68Z" fill="black"/>
<path d="M179.71 160.62H172.73V167.68H179.71V160.62Z" fill="#969696"/>
<path d="M179.71 153.64H172.73V160.62H179.71V153.64Z" fill="#969696"/>
<path d="M179.71 146.58H172.73V153.64H179.71V146.58Z" fill="#969696"/>
<path d="M179.71 139.6H172.73V146.58H179.71V139.6Z" fill="#969696"/>
<path d="M179.71 132.54H172.73V139.6H179.71V132.54Z" fill="black"/>
<path d="M179.71 125.49H172.73V132.55H179.71V125.49Z" fill="#AFAFAF"/>
<path d="M179.71 118.51H172.73V125.49H179.71V118.51Z" fill="#AFAFAF"/>
<path d="M179.71 111.45H172.73V118.51H179.71V111.45Z" fill="#AFAFAF"/>
<path d="M179.71 104.47H172.73V111.45H179.71V104.47Z" fill="#969696"/>
<path d="M179.71 97.4099H172.73V104.47H179.71V97.4099Z" fill="black"/>
<path d="M172.74 315.19H165.68V322.17H172.74V315.19Z" fill="black"/>
<path d="M172.74 308.13H165.68V315.19H172.74V308.13Z" fill="black"/>
<path d="M172.74 230.88H165.68V237.86H172.74V230.88Z" fill="black"/>
<path d="M172.74 223.83H165.68V230.89H172.74V223.83Z" fill="#9DCF9D"/>
<path d="M172.74 216.85H165.68V223.83H172.74V216.85Z" fill="#668466"/>
<path d="M172.74 209.79H165.68V216.85H172.74V209.79Z" fill="#4F704F"/>
<path d="M172.74 202.81H165.68V209.79H172.74V202.81Z" fill="#4F704F"/>
<path d="M172.74 195.75H165.68V202.81H172.74V195.75Z" fill="black"/>
<path d="M172.74 188.77H165.68V195.75H172.74V188.77Z" fill="black"/>
<path d="M172.74 181.71H165.68V188.77H172.74V181.71Z" fill="black"/>
<path d="M172.74 174.66H165.68V181.72H172.74V174.66Z" fill="black"/>
<path d="M172.74 160.62H165.68V167.68H172.74V160.62Z" fill="black"/>
<path d="M172.74 153.64H165.68V160.62H172.74V153.64Z" fill="#969696"/>
<path d="M172.74 146.58H165.68V153.64H172.74V146.58Z" fill="black"/>
<path d="M172.74 139.6H165.68V146.58H172.74V139.6Z" fill="black"/>
<path d="M172.74 118.51H165.68V125.49H172.74V118.51Z" fill="black"/>
<path d="M172.74 111.45H165.68V118.51H172.74V111.45Z" fill="#969696"/>
<path d="M172.74 104.47H165.68V111.45H172.74V104.47Z" fill="black"/>
<path d="M165.679 230.88H158.619V237.86H165.679V230.88Z" fill="black"/>
<path d="M165.679 223.83H158.619V230.89H165.679V223.83Z" fill="#668466"/>
<path d="M165.679 216.85H158.619V223.83H165.679V216.85Z" fill="#668466"/>
<path d="M165.679 209.79H158.619V216.85H165.679V209.79Z" fill="#668466"/>
<path d="M165.679 202.81H158.619V209.79H165.679V202.81Z" fill="#4F704F"/>
<path d="M165.679 195.75H158.619V202.81H165.679V195.75Z" fill="black"/>
<path d="M165.679 160.62H158.619V167.68H165.679V160.62Z" fill="black"/>
<path d="M165.679 153.64H158.619V160.62H165.679V153.64Z" fill="black"/>
<path d="M165.679 146.58H158.619V153.64H165.679V146.58Z" fill="black"/>
<path d="M165.679 125.49H158.619V132.55H165.679V125.49Z" fill="black"/>
<path d="M165.679 118.51H158.619V125.49H165.679V118.51Z" fill="#969696"/>
<path d="M165.679 111.45H158.619V118.51H165.679V111.45Z" fill="black"/>
<path d="M158.621 237.87H151.641V244.92H158.621V237.87Z" fill="black"/>
<path d="M158.621 230.88H151.641V237.86H158.621V230.88Z" fill="#4F704F"/>
<path d="M158.621 223.83H151.641V230.89H158.621V223.83Z" fill="#668466"/>
<path d="M158.621 216.85H151.641V223.83H158.621V216.85Z" fill="#4F704F"/>
<path d="M158.621 209.79H151.641V216.85H158.621V209.79Z" fill="#668466"/>
<path d="M158.621 202.81H151.641V209.79H158.621V202.81Z" fill="#668466"/>
<path d="M158.621 195.75H151.641V202.81H158.621V195.75Z" fill="black"/>
<path d="M158.621 188.77H151.641V195.75H158.621V188.77Z" fill="black"/>
<path d="M158.621 118.51H151.641V125.49H158.621V118.51Z" fill="black"/>
<path d="M151.64 237.87H144.58V244.92H151.64V237.87Z" fill="black"/>
<path d="M151.64 230.88H144.58V237.86H151.64V230.88Z" fill="#4F704F"/>
<path d="M151.64 223.83H144.58V230.89H151.64V223.83Z" fill="#4F704F"/>
<path d="M151.64 216.85H144.58V223.83H151.64V216.85Z" fill="#668466"/>
<path d="M151.64 209.79H144.58V216.85H151.64V209.79Z" fill="#668466"/>
<path d="M151.64 202.81H144.58V209.79H151.64V202.81Z" fill="black"/>
<path d="M144.58 237.87H137.6V244.92H144.58V237.87Z" fill="black"/>
<path d="M144.58 230.88H137.6V237.86H144.58V230.88Z" fill="#4F704F"/>
<path d="M144.58 223.83H137.6V230.89H144.58V223.83Z" fill="#FFD8AE"/>
<path d="M144.58 216.85H137.6V223.83H144.58V216.85Z" fill="#FFD8AE"/>
<path d="M144.58 209.79H137.6V216.85H144.58V209.79Z" fill="black"/>
<path d="M137.609 237.87H130.549V244.92H137.609V237.87Z" fill="black"/>
<path d="M137.609 230.88H130.549V237.86H137.609V230.88Z" fill="#4F704F"/>
<path d="M137.609 223.83H130.549V230.89H137.609V223.83Z" fill="#FFD8AE"/>
<path d="M137.609 216.85H130.549V223.83H137.609V216.85Z" fill="black"/>
<path d="M130.541 230.88H123.561V237.86H130.541V230.88Z" fill="black"/>
<path d="M130.541 223.83H123.561V230.89H130.541V223.83Z" fill="#FFD8AE"/>
<path d="M130.541 216.85H123.561V223.83H130.541V216.85Z" fill="black"/>
<path d="M123.57 230.88H116.51V237.86H123.57V230.88Z" fill="black"/>
<path d="M123.57 223.83H116.51V230.89H123.57V223.83Z" fill="#FFD8AE"/>
<path d="M123.57 216.85H116.51V223.83H123.57V216.85Z" fill="black"/>
<path d="M116.509 223.83H109.449V230.89H116.509V223.83Z" fill="black"/>
<path d="M116.509 216.85H109.449V223.83H116.509V216.85Z" fill="black"/>
<path d="M109.449 216.85H102.469V223.83H109.449V216.85Z" fill="black"/>
<path d="M102.47 216.85H95.4102V223.83H102.47V216.85Z" fill="black"/>
<path d="M95.4097 216.85H88.4297V223.83H95.4097V216.85Z" fill="black"/>
<path d="M248.829 190.21H245.299V193.74H248.829V190.21Z" fill="#594F4F"/>
<path d="M245.299 193.74H241.699V197.34H245.299V193.74Z" fill="#594F4F"/>
<path d="M245.299 190.21H241.699V193.74H245.299V190.21Z" fill="black"/>
<path d="M245.299 186.68H241.699V190.21H245.299V186.68Z" fill="#594F4F"/>
<path d="M241.7 197.34H238.17V200.87H241.7V197.34Z" fill="#594F4F"/>
<path d="M241.7 193.74H238.17V197.34H241.7V193.74Z" fill="black"/>
<path d="M241.7 190.21H238.17V193.74H241.7V190.21Z" fill="#594F4F"/>
<path d="M238.17 200.86H234.65V204.46H238.17V200.86Z" fill="#594F4F"/>
<path d="M238.17 197.34H234.65V200.87H238.17V197.34Z" fill="black"/>
<path d="M238.17 193.74H234.65V197.34H238.17V193.74Z" fill="#594F4F"/>
<path d="M234.649 200.86H231.049V204.46H234.649V200.86Z" fill="black"/>
<path d="M234.649 197.34H231.049V200.87H234.649V197.34Z" fill="#594F4F"/>
<path d="M231.05 204.46H227.52V207.99H231.05V204.46Z" fill="black"/>
<path d="M227.52 207.99H223.92V211.52H227.52V207.99Z" fill="black"/>
<path d="M220.389 218.65H216.859V222.18H220.389V218.65Z" fill="black"/>
<path d="M216.86 222.17H213.26V225.77H216.86V222.17Z" fill="black"/>
<path d="M159.921 186.68H156.391V190.21H159.921V186.68Z" fill="black"/>
<path d="M156.389 200.86H152.859V204.46H156.389V200.86Z" fill="black"/>
<path d="M156.389 186.68H152.859V190.21H156.389V186.68Z" fill="black"/>
<path d="M152.86 200.86H149.26V204.46H152.86V200.86Z" fill="black"/>
<path d="M152.86 197.34H149.26V200.87H152.86V197.34Z" fill="#DDCA6C"/>
<path d="M152.86 193.74H149.26V197.34H152.86V193.74Z" fill="#DDCA6C"/>
<path d="M152.86 190.21H149.26V193.74H152.86V190.21Z" fill="#DDCA6C"/>
<path d="M152.86 186.68H149.26V190.21H152.86V186.68Z" fill="black"/>
<path d="M149.27 207.99H145.74V211.52H149.27V207.99Z" fill="black"/>
<path d="M149.27 204.46H145.74V207.99H149.27V204.46Z" fill="#DDCA6C"/>
<path d="M149.27 200.86H145.74V204.46H149.27V200.86Z" fill="#DDCA6C"/>
<path d="M149.27 197.34H145.74V200.87H149.27V197.34Z" fill="#FCE76B"/>
<path d="M149.27 193.74H145.74V197.34H149.27V193.74Z" fill="#FCE76B"/>
<path d="M149.27 190.21H145.74V193.74H149.27V190.21Z" fill="#DDCA6C"/>
<path d="M149.27 186.68H145.74V190.21H149.27V186.68Z" fill="black"/>
<path d="M145.739 207.99H142.209V211.52H145.739V207.99Z" fill="black"/>
<path d="M145.739 204.46H142.209V207.99H145.739V204.46Z" fill="#DDCA6C"/>
<path d="M145.739 200.86H142.209V204.46H145.739V200.86Z" fill="#FCE76B"/>
<path d="M145.739 197.34H142.209V200.87H145.739V197.34Z" fill="#FCE76B"/>
<path d="M145.739 193.74H142.209V197.34H145.739V193.74Z" fill="#FCE76B"/>
<path d="M145.739 190.21H142.209V193.74H145.739V190.21Z" fill="#DDCA6C"/>
<path d="M145.739 186.68H142.209V190.21H145.739V186.68Z" fill="black"/>
<path d="M142.209 215.12H138.609V218.65H142.209V215.12Z" fill="black"/>
<path d="M142.209 211.52H138.609V215.12H142.209V211.52Z" fill="#DDCA6C"/>
<path d="M142.209 207.99H138.609V211.52H142.209V207.99Z" fill="#DDCA6C"/>
<path d="M142.209 204.46H138.609V207.99H142.209V204.46Z" fill="#FCE76B"/>
<path d="M142.209 200.86H138.609V204.46H142.209V200.86Z" fill="#FCE76B"/>
<path d="M142.209 197.34H138.609V200.87H142.209V197.34Z" fill="#FCE76B"/>
<path d="M142.209 193.74H138.609V197.34H142.209V193.74Z" fill="#FCE76B"/>
<path d="M142.209 190.21H138.609V193.74H142.209V190.21Z" fill="#DDCA6C"/>
<path d="M142.209 186.68H138.609V190.21H142.209V186.68Z" fill="black"/>
<path d="M138.61 215.12H135.08V218.65H138.61V215.12Z" fill="black"/>
<path d="M138.61 211.52H135.08V215.12H138.61V211.52Z" fill="#DDCA6C"/>
<path d="M138.61 207.99H135.08V211.52H138.61V207.99Z" fill="#FCE76B"/>
<path d="M138.61 204.46H135.08V207.99H138.61V204.46Z" fill="#FCE76B"/>
<path d="M138.61 200.86H135.08V204.46H138.61V200.86Z" fill="#FCE76B"/>
<path d="M138.61 197.34H135.08V200.87H138.61V197.34Z" fill="#FCE76B"/>
<path d="M138.61 193.74H135.08V197.34H138.61V193.74Z" fill="#FCE76B"/>
<path d="M138.61 190.21H135.08V193.74H138.61V190.21Z" fill="#DDCA6C"/>
<path d="M138.61 186.68H135.08V190.21H138.61V186.68Z" fill="black"/>
<path d="M135.08 215.12H131.48V218.65H135.08V215.12Z" fill="#DDCA6C"/>
<path d="M135.08 211.52H131.48V215.12H135.08V211.52Z" fill="#FCE76B"/>
<path d="M135.08 207.99H131.48V211.52H135.08V207.99Z" fill="#FCE76B"/>
<path d="M135.08 204.46H131.48V207.99H135.08V204.46Z" fill="#E80F42"/>
<path d="M135.08 200.86H131.48V204.46H135.08V200.86Z" fill="#FCE76B"/>
<path d="M135.08 197.34H131.48V200.87H135.08V197.34Z" fill="#FCE76B"/>
<path d="M135.08 193.74H131.48V197.34H135.08V193.74Z" fill="#FCE76B"/>
<path d="M135.08 190.21H131.48V193.74H135.08V190.21Z" fill="#DDCA6C"/>
<path d="M135.08 186.68H131.48V190.21H135.08V186.68Z" fill="black"/>
<path d="M131.479 215.12H127.949V218.65H131.479V215.12Z" fill="#DDCA6C"/>
<path d="M131.479 211.52H127.949V215.12H131.479V211.52Z" fill="#FCE76B"/>
<path d="M131.479 207.99H127.949V211.52H131.479V207.99Z" fill="#E80F42"/>
<path d="M131.479 204.46H127.949V207.99H131.479V204.46Z" fill="#E80F42"/>
<path d="M131.479 200.86H127.949V204.46H131.479V200.86Z" fill="#E80F42"/>
<path d="M131.479 197.34H127.949V200.87H131.479V197.34Z" fill="#FCE76B"/>
<path d="M131.479 193.74H127.949V197.34H131.479V193.74Z" fill="#FCE76B"/>
<path d="M131.479 190.21H127.949V193.74H131.479V190.21Z" fill="#DDCA6C"/>
<path d="M131.479 186.68H127.949V190.21H131.479V186.68Z" fill="black"/>
<path d="M127.96 215.12H124.43V218.65H127.96V215.12Z" fill="#DDCA6C"/>
<path d="M127.96 211.52H124.43V215.12H127.96V211.52Z" fill="#FCE76B"/>
<path d="M127.96 207.99H124.43V211.52H127.96V207.99Z" fill="#E80F42"/>
<path d="M127.96 204.46H124.43V207.99H127.96V204.46Z" fill="#E80F42"/>
<path d="M127.96 200.86H124.43V204.46H127.96V200.86Z" fill="#E80F42"/>
<path d="M127.96 197.34H124.43V200.87H127.96V197.34Z" fill="#FCE76B"/>
<path d="M127.96 193.74H124.43V197.34H127.96V193.74Z" fill="#FCE76B"/>
<path d="M127.96 190.21H124.43V193.74H127.96V190.21Z" fill="#DDCA6C"/>
<path d="M127.96 186.68H124.43V190.21H127.96V186.68Z" fill="black"/>
<path d="M124.43 215.12H120.83V218.65H124.43V215.12Z" fill="#DDCA6C"/>
<path d="M124.43 211.52H120.83V215.12H124.43V211.52Z" fill="#FCE76B"/>
<path d="M124.43 207.99H120.83V211.52H124.43V207.99Z" fill="#E80F42"/>
<path d="M124.43 204.46H120.83V207.99H124.43V204.46Z" fill="#FCE76B"/>
<path d="M124.43 200.86H120.83V204.46H124.43V200.86Z" fill="#E80F42"/>
<path d="M124.43 197.34H120.83V200.87H124.43V197.34Z" fill="#FCE76B"/>
<path d="M124.43 193.74H120.83V197.34H124.43V193.74Z" fill="#FCE76B"/>
<path d="M124.43 190.21H120.83V193.74H124.43V190.21Z" fill="#DDCA6C"/>
<path d="M124.43 186.68H120.83V190.21H124.43V186.68Z" fill="black"/>
<path d="M120.829 215.12H117.299V218.65H120.829V215.12Z" fill="#DDCA6C"/>
<path d="M120.829 211.52H117.299V215.12H120.829V211.52Z" fill="#E80F42"/>
<path d="M120.829 207.99H117.299V211.52H120.829V207.99Z" fill="#FCE76B"/>
<path d="M120.829 204.46H117.299V207.99H120.829V204.46Z" fill="#FCE76B"/>
<path d="M120.829 200.86H117.299V204.46H120.829V200.86Z" fill="#FCE76B"/>
<path d="M120.829 197.34H117.299V200.87H120.829V197.34Z" fill="#E80F42"/>
<path d="M120.829 193.74H117.299V197.34H120.829V193.74Z" fill="#FCE76B"/>
<path d="M120.829 190.21H117.299V193.74H120.829V190.21Z" fill="#DDCA6C"/>
<path d="M120.829 186.68H117.299V190.21H120.829V186.68Z" fill="black"/>
<path d="M117.3 215.12H113.77V218.65H117.3V215.12Z" fill="#DDCA6C"/>
<path d="M117.3 211.52H113.77V215.12H117.3V211.52Z" fill="#E80F42"/>
<path d="M117.3 207.99H113.77V211.52H117.3V207.99Z" fill="#FCE76B"/>
<path d="M117.3 204.46H113.77V207.99H117.3V204.46Z" fill="#FCE76B"/>
<path d="M117.3 200.86H113.77V204.46H117.3V200.86Z" fill="#FCE76B"/>
<path d="M117.3 197.34H113.77V200.87H117.3V197.34Z" fill="#E80F42"/>
<path d="M117.3 193.74H113.77V197.34H117.3V193.74Z" fill="#FCE76B"/>
<path d="M117.3 190.21H113.77V193.74H117.3V190.21Z" fill="#DDCA6C"/>
<path d="M117.3 186.68H113.77V190.21H117.3V186.68Z" fill="black"/>
<path d="M113.77 215.12H110.17V218.65H113.77V215.12Z" fill="#DDCA6C"/>
<path d="M113.77 211.52H110.17V215.12H113.77V211.52Z" fill="#FCE76B"/>
<path d="M113.77 207.99H110.17V211.52H113.77V207.99Z" fill="#FCE76B"/>
<path d="M113.77 204.46H110.17V207.99H113.77V204.46Z" fill="#FCE76B"/>
<path d="M113.77 200.86H110.17V204.46H113.77V200.86Z" fill="#FCE76B"/>
<path d="M113.77 197.34H110.17V200.87H113.77V197.34Z" fill="#FCE76B"/>
<path d="M113.77 193.74H110.17V197.34H113.77V193.74Z" fill="#DDCA6C"/>
<path d="M113.77 190.21H110.17V193.74H113.77V190.21Z" fill="#DDCA6C"/>
<path d="M113.77 186.68H110.17V190.21H113.77V186.68Z" fill="black"/>
<path d="M110.18 215.12H106.65V218.65H110.18V215.12Z" fill="#DDCA6C"/>
<path d="M110.18 211.52H106.65V215.12H110.18V211.52Z" fill="#FCE76B"/>
<path d="M110.18 207.99H106.65V211.52H110.18V207.99Z" fill="#FCE76B"/>
<path d="M110.18 204.46H106.65V207.99H110.18V204.46Z" fill="#FCE76B"/>
<path d="M110.18 200.86H106.65V204.46H110.18V200.86Z" fill="#FCE76B"/>
<path d="M110.18 197.34H106.65V200.87H110.18V197.34Z" fill="#DDCA6C"/>
<path d="M110.18 193.74H106.65V197.34H110.18V193.74Z" fill="black"/>
<path d="M110.18 190.21H106.65V193.74H110.18V190.21Z" fill="black"/>
<path d="M106.649 215.12H103.049V218.65H106.649V215.12Z" fill="#DDCA6C"/>
<path d="M106.649 211.52H103.049V215.12H106.649V211.52Z" fill="#FCE76B"/>
<path d="M106.649 207.99H103.049V211.52H106.649V207.99Z" fill="#FCE76B"/>
<path d="M106.649 204.46H103.049V207.99H106.649V204.46Z" fill="#DDCA6C"/>
<path d="M106.649 200.86H103.049V204.46H106.649V200.86Z" fill="#DDCA6C"/>
<path d="M106.649 197.34H103.049V200.87H106.649V197.34Z" fill="black"/>
<path d="M106.649 193.74H103.049V197.34H106.649V193.74Z" fill="black"/>
<path d="M103.05 215.12H99.5195V218.65H103.05V215.12Z" fill="#DDCA6C"/>
<path d="M103.05 211.52H99.5195V215.12H103.05V211.52Z" fill="#FCE76B"/>
<path d="M103.05 207.99H99.5195V211.52H103.05V207.99Z" fill="#DDCA6C"/>
<path d="M103.05 204.46H99.5195V207.99H103.05V204.46Z" fill="black"/>
<path d="M103.05 200.86H99.5195V204.46H103.05V200.86Z" fill="black"/>
<path d="M103.05 197.34H99.5195V200.87H103.05V197.34Z" fill="#DDCA6C"/>
<path d="M103.05 193.74H99.5195V197.34H103.05V193.74Z" fill="#DDCA6C"/>
<path d="M103.05 190.21H99.5195V193.74H103.05V190.21Z" fill="black"/>
<path d="M99.5202 215.12H95.9902V218.65H99.5202V215.12Z" fill="#DDCA6C"/>
<path d="M99.5202 211.52H95.9902V215.12H99.5202V211.52Z" fill="#DDCA6C"/>
<path d="M99.5202 207.99H95.9902V211.52H99.5202V207.99Z" fill="black"/>
<path d="M99.5202 204.46H95.9902V207.99H99.5202V204.46Z" fill="#DDCA6C"/>
<path d="M99.5202 200.86H95.9902V204.46H99.5202V200.86Z" fill="#DDCA6C"/>
<path d="M99.5202 197.34H95.9902V200.87H99.5202V197.34Z" fill="#DDCA6C"/>
<path d="M99.5202 193.74H95.9902V197.34H99.5202V193.74Z" fill="#DDCA6C"/>
<path d="M99.5202 190.21H95.9902V193.74H99.5202V190.21Z" fill="black"/>
<path d="M95.9906 215.12H92.3906V218.65H95.9906V215.12Z" fill="#DDCA6C"/>
<path d="M95.9906 211.52H92.3906V215.12H95.9906V211.52Z" fill="black"/>
<path d="M95.9906 207.99H92.3906V211.52H95.9906V207.99Z" fill="#DDCA6C"/>
<path d="M95.9906 204.46H92.3906V207.99H95.9906V204.46Z" fill="#DDCA6C"/>
<path d="M95.9906 200.86H92.3906V204.46H95.9906V200.86Z" fill="#DDCA6C"/>
<path d="M95.9906 197.34H92.3906V200.87H95.9906V197.34Z" fill="#DDCA6C"/>
<path d="M95.9906 193.74H92.3906V197.34H95.9906V193.74Z" fill="#DDCA6C"/>
<path d="M95.9906 190.21H92.3906V193.74H95.9906V190.21Z" fill="#DDCA6C"/>
<path d="M95.9906 186.68H92.3906V190.21H95.9906V186.68Z" fill="black"/>
<path d="M92.3894 215.12H88.8594V218.65H92.3894V215.12Z" fill="black"/>
<path d="M92.3894 211.52H88.8594V215.12H92.3894V211.52Z" fill="#DDCA6C"/>
<path d="M92.3894 207.99H88.8594V211.52H92.3894V207.99Z" fill="#DDCA6C"/>
<path d="M92.3894 204.46H88.8594V207.99H92.3894V204.46Z" fill="#DDCA6C"/>
<path d="M92.3894 200.86H88.8594V204.46H92.3894V200.86Z" fill="#DDCA6C"/>
<path d="M92.3894 197.34H88.8594V200.87H92.3894V197.34Z" fill="#DDCA6C"/>
<path d="M92.3894 193.74H88.8594V197.34H92.3894V193.74Z" fill="#DDCA6C"/>
<path d="M92.3894 190.21H88.8594V193.74H92.3894V190.21Z" fill="#DDCA6C"/>
<path d="M92.3894 186.68H88.8594V190.21H92.3894V186.68Z" fill="black"/>
<path d="M88.8598 218.65H85.2598V222.18H88.8598V218.65Z" fill="black"/>
<path d="M88.8598 215.12H85.2598V218.65H88.8598V215.12Z" fill="black"/>
<path d="M88.8598 211.52H85.2598V215.12H88.8598V211.52Z" fill="black"/>
<path d="M88.8598 207.99H85.2598V211.52H88.8598V207.99Z" fill="black"/>
<path d="M88.8598 204.46H85.2598V207.99H88.8598V204.46Z" fill="black"/>
<path d="M88.8598 200.86H85.2598V204.46H88.8598V200.86Z" fill="black"/>
<path d="M88.8598 197.34H85.2598V200.87H88.8598V197.34Z" fill="black"/>
<path d="M88.8598 193.74H85.2598V197.34H88.8598V193.74Z" fill="black"/>
<path d="M88.8598 190.21H85.2598V193.74H88.8598V190.21Z" fill="black"/>
<path d="M88.8598 186.68H85.2598V190.21H88.8598V186.68Z" fill="black"/>
</svg>
