<svg width="400" height="400" viewBox="0 0 400 400" fill="none" xmlns="http://www.w3.org/2000/svg">
<path d="M385.781 200C385.781 302.6 302.601 385.78 200.001 385.78C97.4007 385.78 14.2207 302.6 14.2207 200C14.2207 97.4 97.3907 14.22 200.001 14.22C302.611 14.22 385.781 97.4 385.781 200Z" fill="black"/>
<path d="M200.001 392.78C93.7007 392.78 7.2207 306.3 7.2207 200C7.2207 93.7 93.7007 7.21997 200.001 7.21997C306.301 7.21997 392.781 93.7 392.781 200C392.781 306.3 306.301 392.78 200.001 392.78ZM200.001 21.22C101.421 21.22 21.2207 101.42 21.2207 200C21.2207 298.58 101.421 378.78 200.001 378.78C298.581 378.78 378.781 298.58 378.781 200C378.781 101.42 298.581 21.22 200.001 21.22Z" fill="#439B3E"/>
<path d="M287.929 206.27H281.449V212.75H287.929V206.27Z" fill="#754807"/>
<path d="M281.45 219.29H274.91V225.77H281.45V219.29Z" fill="#968E8B"/>
<path d="M281.45 212.75H274.91V219.29H281.45V212.75Z" fill="#754807"/>
<path d="M281.45 206.27H274.91V212.75H281.45V206.27Z" fill="#754807"/>
<path d="M281.45 199.72H274.91V206.26H281.45V199.72Z" fill="#754807"/>
<path d="M274.899 225.76H268.359V232.3H274.899V225.76Z" fill="#754807"/>
<path d="M274.899 219.29H268.359V225.77H274.899V219.29Z" fill="#754807"/>
<path d="M274.899 212.75H268.359V219.29H274.899V212.75Z" fill="#968E8B"/>
<path d="M274.899 206.27H268.359V212.75H274.899V206.27Z" fill="#754807"/>
<path d="M274.899 199.72H268.359V206.26H274.899V199.72Z" fill="#754807"/>
<path d="M274.899 193.25H268.359V199.73H274.899V193.25Z" fill="#754807"/>
<path d="M274.899 160.67H268.359V167.15H274.899V160.67Z" fill="#020000"/>
<path d="M274.899 154.13H268.359V160.67H274.899V154.13Z" fill="#020000"/>
<path d="M274.899 147.65H268.359V154.13H274.899V147.65Z" fill="#020000"/>
<path d="M274.899 141.11H268.359V147.65H274.899V141.11Z" fill="#020000"/>
<path d="M268.361 232.3H261.881V238.84H268.361V232.3Z" fill="#968E8B"/>
<path d="M268.361 225.76H261.881V232.3H268.361V225.76Z" fill="#754807"/>
<path d="M268.361 219.29H261.881V225.77H268.361V219.29Z" fill="#754807"/>
<path d="M268.361 212.75H261.881V219.29H268.361V212.75Z" fill="#754807"/>
<path d="M268.361 206.27H261.881V212.75H268.361V206.27Z" fill="#968E8B"/>
<path d="M268.361 199.72H261.881V206.26H268.361V199.72Z" fill="#754807"/>
<path d="M268.361 193.25H261.881V199.73H268.361V193.25Z" fill="#754807"/>
<path d="M268.361 173.69H261.881V180.23H268.361V173.69Z" fill="#020000"/>
<path d="M268.361 167.14H261.881V173.68H268.361V167.14Z" fill="#020000"/>
<path d="M268.361 160.67H261.881V167.15H268.361V160.67Z" fill="#586689"/>
<path d="M268.361 154.13H261.881V160.67H268.361V154.13Z" fill="#586689"/>
<path d="M268.361 147.65H261.881V154.13H268.361V147.65Z" fill="#586689"/>
<path d="M268.361 141.11H261.881V147.65H268.361V141.11Z" fill="#586689"/>
<path d="M268.361 134.64H261.881V141.12H268.361V134.64Z" fill="#020000"/>
<path d="M261.88 238.85H255.34V245.33H261.88V238.85Z" fill="#754807"/>
<path d="M261.88 232.3H255.34V238.84H261.88V232.3Z" fill="#754807"/>
<path d="M261.88 225.76H255.34V232.3H261.88V225.76Z" fill="#968E8B"/>
<path d="M261.88 219.29H255.34V225.77H261.88V219.29Z" fill="#754807"/>
<path d="M261.88 212.75H255.34V219.29H261.88V212.75Z" fill="#754807"/>
<path d="M261.88 206.27H255.34V212.75H261.88V206.27Z" fill="#754807"/>
<path d="M261.88 199.72H255.34V206.26H261.88V199.72Z" fill="#968E8B"/>
<path d="M261.88 180.23H255.34V186.71H261.88V180.23Z" fill="#020000"/>
<path d="M261.88 173.69H255.34V180.23H261.88V173.69Z" fill="#439B3E"/>
<path d="M261.88 167.14H255.34V173.68H261.88V167.14Z" fill="#439B3E"/>
<path d="M261.88 160.67H255.34V167.15H261.88V160.67Z" fill="#717A97"/>
<path d="M261.88 154.13H255.34V160.67H261.88V154.13Z" fill="#717A97"/>
<path d="M261.88 147.65H255.34V154.13H261.88V147.65Z" fill="#586689"/>
<path d="M261.88 141.11H255.34V147.65H261.88V141.11Z" fill="#586689"/>
<path d="M261.88 134.64H255.34V141.12H261.88V134.64Z" fill="#586689"/>
<path d="M261.88 128.09H255.34V134.63H261.88V128.09Z" fill="#020000"/>
<path d="M255.349 329.98H248.869V336.52H255.349V329.98Z" fill="#020000"/>
<path d="M255.349 323.5H248.869V329.98H255.349V323.5Z" fill="#020000"/>
<path d="M255.349 316.96H248.869V323.5H255.349V316.96Z" fill="#020000"/>
<path d="M255.349 310.49H248.869V316.97H255.349V310.49Z" fill="#020000"/>
<path d="M255.349 303.94H248.869V310.48H255.349V303.94Z" fill="#020100"/>
<path d="M255.349 297.46H248.869V303.94H255.349V297.46Z" fill="#020100"/>
<path d="M255.349 290.92H248.869V297.46H255.349V290.92Z" fill="#020000"/>
<path d="M255.349 284.45H248.869V290.93H255.349V284.45Z" fill="#020000"/>
<path d="M255.349 277.91H248.869V284.45H255.349V277.91Z" fill="#020000"/>
<path d="M255.349 271.36H248.869V277.9H255.349V271.36Z" fill="#020000"/>
<path d="M255.349 264.88H248.869V271.36H255.349V264.88Z" fill="#020000"/>
<path d="M255.349 258.34H248.869V264.88H255.349V258.34Z" fill="#020000"/>
<path d="M255.349 251.87H248.869V258.35H255.349V251.87Z" fill="#020000"/>
<path d="M255.349 245.33H248.869V251.87H255.349V245.33Z" fill="#020000"/>
<path d="M255.349 238.85H248.869V245.33H255.349V238.85Z" fill="#020000"/>
<path d="M255.349 232.3H248.869V238.84H255.349V232.3Z" fill="#754807"/>
<path d="M255.349 225.76H248.869V232.3H255.349V225.76Z" fill="#754807"/>
<path d="M255.349 219.29H248.869V225.77H255.349V219.29Z" fill="#968E8B"/>
<path d="M255.349 212.75H248.869V219.29H255.349V212.75Z" fill="#754807"/>
<path d="M255.349 206.27H248.869V212.75H255.349V206.27Z" fill="#49302B"/>
<path d="M255.349 199.72H248.869V206.26H255.349V199.72Z" fill="#49302B"/>
<path d="M255.349 193.25H248.869V199.73H255.349V193.25Z" fill="#968E8B"/>
<path d="M255.349 186.71H248.869V193.25H255.349V186.71Z" fill="#020000"/>
<path d="M255.349 180.23H248.869V186.71H255.349V180.23Z" fill="#439B3E"/>
<path d="M255.349 173.69H248.869V180.23H255.349V173.69Z" fill="#439B3E"/>
<path d="M255.349 167.14H248.869V173.68H255.349V167.14Z" fill="#439B3E"/>
<path d="M255.349 160.67H248.869V167.15H255.349V160.67Z" fill="#439B3E"/>
<path d="M255.349 154.13H248.869V160.67H255.349V154.13Z" fill="#717A97"/>
<path d="M255.349 147.65H248.869V154.13H255.349V147.65Z" fill="#717A97"/>
<path d="M255.349 141.11H248.869V147.65H255.349V141.11Z" fill="#586689"/>
<path d="M255.349 134.64H248.869V141.12H255.349V134.64Z" fill="#586689"/>
<path d="M255.349 128.09H248.869V134.63H255.349V128.09Z" fill="#586689"/>
<path d="M255.349 121.55H248.869V128.09H255.349V121.55Z" fill="#020000"/>
<path d="M248.87 329.98H242.33V336.52H248.87V329.98Z" fill="#020000"/>
<path d="M248.87 323.5H242.33V329.98H248.87V323.5Z" fill="#2B1910"/>
<path d="M248.87 316.96H242.33V323.5H248.87V316.96Z" fill="#2B1910"/>
<path d="M248.87 310.49H242.33V316.97H248.87V310.49Z" fill="#2B1910"/>
<path d="M248.87 303.94H242.33V310.48H248.87V303.94Z" fill="#2B1910"/>
<path d="M248.87 297.46H242.33V303.94H248.87V297.46Z" fill="#2B1910"/>
<path d="M248.87 290.92H242.33V297.46H248.87V290.92Z" fill="#2B1910"/>
<path d="M248.87 284.45H242.33V290.93H248.87V284.45Z" fill="#381D18"/>
<path d="M248.87 277.91H242.33V284.45H248.87V277.91Z" fill="#381D18"/>
<path d="M248.87 271.36H242.33V277.9H248.87V271.36Z" fill="#381D18"/>
<path d="M248.87 264.88H242.33V271.36H248.87V264.88Z" fill="#381D18"/>
<path d="M248.87 258.34H242.33V264.88H248.87V258.34Z" fill="#381D18"/>
<path d="M248.87 251.87H242.33V258.35H248.87V251.87Z" fill="#381D18"/>
<path d="M248.87 245.33H242.33V251.87H248.87V245.33Z" fill="#381D18"/>
<path d="M248.87 238.85H242.33V245.33H248.87V238.85Z" fill="#381D18"/>
<path d="M248.87 232.3H242.33V238.84H248.87V232.3Z" fill="#020000"/>
<path d="M248.87 225.76H242.33V232.3H248.87V225.76Z" fill="#754807"/>
<path d="M248.87 219.29H242.33V225.77H248.87V219.29Z" fill="#968E8B"/>
<path d="M248.87 212.75H242.33V219.29H248.87V212.75Z" fill="#49302B"/>
<path d="M248.87 206.27H242.33V212.75H248.87V206.27Z" fill="#49302B"/>
<path d="M248.87 199.72H242.33V206.26H248.87V199.72Z" fill="#968E8B"/>
<path d="M248.87 193.25H242.33V199.73H248.87V193.25Z" fill="#020000"/>
<path d="M248.87 186.71H242.33V193.25H248.87V186.71Z" fill="#439B3E"/>
<path d="M248.87 180.23H242.33V186.71H248.87V180.23Z" fill="#439B3E"/>
<path d="M248.87 173.69H242.33V180.23H248.87V173.69Z" fill="#34872D"/>
<path d="M248.87 167.14H242.33V173.68H248.87V167.14Z" fill="#34872D"/>
<path d="M248.87 160.67H242.33V167.15H248.87V160.67Z" fill="#439B3E"/>
<path d="M248.87 154.13H242.33V160.67H248.87V154.13Z" fill="#717A97"/>
<path d="M248.87 147.65H242.33V154.13H248.87V147.65Z" fill="#717A97"/>
<path d="M248.87 141.11H242.33V147.65H248.87V141.11Z" fill="#717A97"/>
<path d="M248.87 134.64H242.33V141.12H248.87V134.64Z" fill="#586689"/>
<path d="M248.87 128.09H242.33V134.63H248.87V128.09Z" fill="#586689"/>
<path d="M248.87 121.55H242.33V128.09H248.87V121.55Z" fill="#020000"/>
<path d="M242.33 323.5H235.85V329.98H242.33V323.5Z" fill="#020100"/>
<path d="M242.33 316.96H235.85V323.5H242.33V316.96Z" fill="#2B1910"/>
<path d="M242.33 310.49H235.85V316.97H242.33V310.49Z" fill="#2B1910"/>
<path d="M242.33 303.94H235.85V310.48H242.33V303.94Z" fill="#2B1910"/>
<path d="M242.33 297.46H235.85V303.94H242.33V297.46Z" fill="#2B1910"/>
<path d="M242.33 290.92H235.85V297.46H242.33V290.92Z" fill="#2B1910"/>
<path d="M242.33 284.45H235.85V290.93H242.33V284.45Z" fill="#49302B"/>
<path d="M242.33 277.91H235.85V284.45H242.33V277.91Z" fill="#381D18"/>
<path d="M242.33 271.36H235.85V277.9H242.33V271.36Z" fill="#381D18"/>
<path d="M242.33 264.88H235.85V271.36H242.33V264.88Z" fill="#381D18"/>
<path d="M242.33 258.34H235.85V264.88H242.33V258.34Z" fill="#020100"/>
<path d="M242.33 251.87H235.85V258.35H242.33V251.87Z" fill="#020000"/>
<path d="M242.33 245.33H235.85V251.87H242.33V245.33Z" fill="#020000"/>
<path d="M242.33 238.85H235.85V245.33H242.33V238.85Z" fill="#020000"/>
<path d="M242.33 232.3H235.85V238.84H242.33V232.3Z" fill="#020000"/>
<path d="M242.33 225.76H235.85V232.3H242.33V225.76Z" fill="#020000"/>
<path d="M242.33 219.29H235.85V225.77H242.33V219.29Z" fill="#00FFE2"/>
<path d="M242.33 212.75H235.85V219.29H242.33V212.75Z" fill="#968E8B"/>
<path d="M242.33 206.27H235.85V212.75H242.33V206.27Z" fill="#968E8B"/>
<path d="M242.33 199.72H235.85V206.26H242.33V199.72Z" fill="#020000"/>
<path d="M242.33 193.25H235.85V199.73H242.33V193.25Z" fill="#439B3E"/>
<path d="M242.33 186.71H235.85V193.25H242.33V186.71Z" fill="#439B3E"/>
<path d="M242.33 180.23H235.85V186.71H242.33V180.23Z" fill="#34872D"/>
<path d="M242.33 173.69H235.85V180.23H242.33V173.69Z" fill="#34872D"/>
<path d="M242.33 167.14H235.85V173.68H242.33V167.14Z" fill="#439B3E"/>
<path d="M242.33 160.67H235.85V167.15H242.33V160.67Z" fill="#439B3E"/>
<path d="M242.33 154.13H235.85V160.67H242.33V154.13Z" fill="#439B3E"/>
<path d="M242.33 147.65H235.85V154.13H242.33V147.65Z" fill="#717A97"/>
<path d="M242.33 141.11H235.85V147.65H242.33V141.11Z" fill="#717A97"/>
<path d="M242.33 134.64H235.85V141.12H242.33V134.64Z" fill="#717A97"/>
<path d="M242.33 128.09H235.85V134.63H242.33V128.09Z" fill="#586689"/>
<path d="M242.33 121.55H235.85V128.09H242.33V121.55Z" fill="#020000"/>
<path d="M235.841 329.98H229.301V336.52H235.841V329.98Z" fill="#020000"/>
<path d="M235.841 323.5H229.301V329.98H235.841V323.5Z" fill="#2B1910"/>
<path d="M235.841 316.96H229.301V323.5H235.841V316.96Z" fill="#2B1910"/>
<path d="M235.841 310.49H229.301V316.97H235.841V310.49Z" fill="#2B1910"/>
<path d="M235.841 303.94H229.301V310.48H235.841V303.94Z" fill="#2B1910"/>
<path d="M235.841 297.46H229.301V303.94H235.841V297.46Z" fill="#2B1910"/>
<path d="M235.841 290.92H229.301V297.46H235.841V290.92Z" fill="#2B1910"/>
<path d="M235.841 284.45H229.301V290.93H235.841V284.45Z" fill="#49302B"/>
<path d="M235.841 277.91H229.301V284.45H235.841V277.91Z" fill="#49302B"/>
<path d="M235.841 271.36H229.301V277.9H235.841V271.36Z" fill="#49302B"/>
<path d="M235.841 264.88H229.301V271.36H235.841V264.88Z" fill="#381D18"/>
<path d="M235.841 258.34H229.301V264.88H235.841V258.34Z" fill="#020100"/>
<path d="M235.841 251.87H229.301V258.35H235.841V251.87Z" fill="#05D6B8"/>
<path d="M235.841 245.33H229.301V251.87H235.841V245.33Z" fill="#05D6B8"/>
<path d="M235.841 238.85H229.301V245.33H235.841V238.85Z" fill="#05D6B8"/>
<path d="M235.841 232.3H229.301V238.84H235.841V232.3Z" fill="#05D6B8"/>
<path d="M235.841 225.76H229.301V232.3H235.841V225.76Z" fill="#05D6B8"/>
<path d="M235.841 219.29H229.301V225.77H235.841V219.29Z" fill="#05D6B8"/>
<path d="M235.841 212.75H229.301V219.29H235.841V212.75Z" fill="#05D6B8"/>
<path d="M235.841 206.27H229.301V212.75H235.841V206.27Z" fill="#05D6B8"/>
<path d="M235.841 199.72H229.301V206.26H235.841V199.72Z" fill="#020000"/>
<path d="M235.841 193.25H229.301V199.73H235.841V193.25Z" fill="#439B3E"/>
<path d="M235.841 186.71H229.301V193.25H235.841V186.71Z" fill="#439B3E"/>
<path d="M235.841 180.23H229.301V186.71H235.841V180.23Z" fill="#439B3E"/>
<path d="M235.841 173.69H229.301V180.23H235.841V173.69Z" fill="#439B3E"/>
<path d="M235.841 167.14H229.301V173.68H235.841V167.14Z" fill="#439B3E"/>
<path d="M235.841 160.67H229.301V167.15H235.841V160.67Z" fill="#439B3E"/>
<path d="M235.841 154.13H229.301V160.67H235.841V154.13Z" fill="#439B3E"/>
<path d="M235.841 147.65H229.301V154.13H235.841V147.65Z" fill="#717A97"/>
<path d="M235.841 141.11H229.301V147.65H235.841V141.11Z" fill="#717A97"/>
<path d="M235.841 134.64H229.301V141.12H235.841V134.64Z" fill="#717A97"/>
<path d="M235.841 128.09H229.301V134.63H235.841V128.09Z" fill="#717A97"/>
<path d="M235.841 121.55H229.301V128.09H235.841V121.55Z" fill="#05D6B8"/>
<path d="M235.841 102.06H229.301V108.54H235.841V102.06Z" fill="black"/>
<path d="M235.841 95.51H229.301V102.05H235.841V95.51Z" fill="black"/>
<path d="M235.841 89.03H229.301V95.51H235.841V89.03Z" fill="black"/>
<path d="M229.3 329.98H222.76V336.52H229.3V329.98Z" fill="#020000"/>
<path d="M229.3 323.5H222.76V329.98H229.3V323.5Z" fill="#2B1910"/>
<path d="M229.3 316.96H222.76V323.5H229.3V316.96Z" fill="#020100"/>
<path d="M229.3 310.49H222.76V316.97H229.3V310.49Z" fill="#020100"/>
<path d="M229.3 303.94H222.76V310.48H229.3V303.94Z" fill="#020000"/>
<path d="M229.3 297.46H222.76V303.94H229.3V297.46Z" fill="#020000"/>
<path d="M229.3 290.92H222.76V297.46H229.3V290.92Z" fill="#020000"/>
<path d="M229.3 284.45H222.76V290.93H229.3V284.45Z" fill="#49302B"/>
<path d="M229.3 277.91H222.76V284.45H229.3V277.91Z" fill="#49302B"/>
<path d="M229.3 271.36H222.76V277.9H229.3V271.36Z" fill="#49302B"/>
<path d="M229.3 264.88H222.76V271.36H229.3V264.88Z" fill="#49302B"/>
<path d="M229.3 258.34H222.76V264.88H229.3V258.34Z" fill="#020100"/>
<path d="M229.3 251.87H222.76V258.35H229.3V251.87Z" fill="#05D6B8"/>
<path d="M229.3 245.33H222.76V251.87H229.3V245.33Z" fill="#05D6B8"/>
<path d="M229.3 238.85H222.76V245.33H229.3V238.85Z" fill="#00FFE2"/>
<path d="M229.3 232.3H222.76V238.84H229.3V232.3Z" fill="#00FFE2"/>
<path d="M229.3 225.76H222.76V232.3H229.3V225.76Z" fill="#00FFE2"/>
<path d="M229.3 219.29H222.76V225.77H229.3V219.29Z" fill="#05D6B8"/>
<path d="M229.3 212.75H222.76V219.29H229.3V212.75Z" fill="#05D6B8"/>
<path d="M229.3 206.27H222.76V212.75H229.3V206.27Z" fill="#05D6B8"/>
<path d="M229.3 199.72H222.76V206.26H229.3V199.72Z" fill="#020000"/>
<path d="M229.3 193.25H222.76V199.73H229.3V193.25Z" fill="#439B3E"/>
<path d="M229.3 186.71H222.76V193.25H229.3V186.71Z" fill="#439B3E"/>
<path d="M229.3 180.23H222.76V186.71H229.3V180.23Z" fill="#439B3E"/>
<path d="M229.3 173.69H222.76V180.23H229.3V173.69Z" fill="#439B3E"/>
<path d="M229.3 167.14H222.76V173.68H229.3V167.14Z" fill="#439B3E"/>
<path d="M229.3 160.67H222.76V167.15H229.3V160.67Z" fill="#439B3E"/>
<path d="M229.3 154.13H222.76V160.67H229.3V154.13Z" fill="#439B3E"/>
<path d="M229.3 147.65H222.76V154.13H229.3V147.65Z" fill="#717A97"/>
<path d="M229.3 141.11H222.76V147.65H229.3V141.11Z" fill="#717A97"/>
<path d="M229.3 134.64H222.76V141.12H229.3V134.64Z" fill="#717A97"/>
<path d="M229.3 128.09H222.76V134.63H229.3V128.09Z" fill="#05D6B8"/>
<path d="M229.3 121.55H222.76V128.09H229.3V121.55Z" fill="#050100"/>
<path d="M229.3 108.54H222.76V115.08H229.3V108.54Z" fill="black"/>
<path d="M229.3 102.06H222.76V108.54H229.3V102.06Z" fill="#439B3E"/>
<path d="M229.3 95.51H222.76V102.05H229.3V95.51Z" fill="#439B3E"/>
<path d="M229.3 89.03H222.76V95.51H229.3V89.03Z" fill="#439B3E"/>
<path d="M229.3 82.49H222.76V89.03H229.3V82.49Z" fill="black"/>
<path d="M229.3 76.02H222.76V82.5H229.3V76.02Z" fill="black"/>
<path d="M222.769 329.98H216.289V336.52H222.769V329.98Z" fill="#020000"/>
<path d="M222.769 323.5H216.289V329.98H222.769V323.5Z" fill="#2B1910"/>
<path d="M222.769 316.96H216.289V323.5H222.769V316.96Z" fill="#020100"/>
<path d="M222.769 290.92H216.289V297.46H222.769V290.92Z" fill="#020000"/>
<path d="M222.769 284.45H216.289V290.93H222.769V284.45Z" fill="#020000"/>
<path d="M222.769 277.91H216.289V284.45H222.769V277.91Z" fill="#49302B"/>
<path d="M222.769 271.36H216.289V277.9H222.769V271.36Z" fill="#49302B"/>
<path d="M222.769 264.88H216.289V271.36H222.769V264.88Z" fill="#49302B"/>
<path d="M222.769 258.34H216.289V264.88H222.769V258.34Z" fill="#020100"/>
<path d="M222.769 251.87H216.289V258.35H222.769V251.87Z" fill="#05D6B8"/>
<path d="M222.769 245.33H216.289V251.87H222.769V245.33Z" fill="#00FFE2"/>
<path d="M222.769 238.85H216.289V245.33H222.769V238.85Z" fill="#00FFE2"/>
<path d="M222.769 232.3H216.289V238.84H222.769V232.3Z" fill="#00FFE2"/>
<path d="M222.769 225.76H216.289V232.3H222.769V225.76Z" fill="#00FFE2"/>
<path d="M222.769 219.29H216.289V225.77H222.769V219.29Z" fill="#00FFE2"/>
<path d="M222.769 212.75H216.289V219.29H222.769V212.75Z" fill="#05D6B8"/>
<path d="M222.769 206.27H216.289V212.75H222.769V206.27Z" fill="#05D6B8"/>
<path d="M222.769 199.72H216.289V206.26H222.769V199.72Z" fill="#020000"/>
<path d="M222.769 193.25H216.289V199.73H222.769V193.25Z" fill="#020000"/>
<path d="M222.769 186.71H216.289V193.25H222.769V186.71Z" fill="#439B3E"/>
<path d="M222.769 180.23H216.289V186.71H222.769V180.23Z" fill="#439B3E"/>
<path d="M222.769 173.69H216.289V180.23H222.769V173.69Z" fill="#439B3E"/>
<path d="M222.769 167.14H216.289V173.68H222.769V167.14Z" fill="#439B3E"/>
<path d="M222.769 160.67H216.289V167.15H222.769V160.67Z" fill="#020000"/>
<path d="M222.769 154.13H216.289V160.67H222.769V154.13Z" fill="#05D6B8"/>
<path d="M222.769 147.65H216.289V154.13H222.769V147.65Z" fill="#05D6B8"/>
<path d="M222.769 141.11H216.289V147.65H222.769V141.11Z" fill="#717A97"/>
<path d="M222.769 134.64H216.289V141.12H222.769V134.64Z" fill="#05D6B8"/>
<path d="M222.769 128.09H216.289V134.63H222.769V128.09Z" fill="#717A97"/>
<path d="M222.769 121.55H216.289V128.09H222.769V121.55Z" fill="#050100"/>
<path d="M222.769 115.07H216.289V121.55H222.769V115.07Z" fill="black"/>
<path d="M222.769 108.54H216.289V115.08H222.769V108.54Z" fill="#439B3E"/>
<path d="M222.769 102.06H216.289V108.54H222.769V102.06Z" fill="#439B3E"/>
<path d="M222.769 95.51H216.289V102.05H222.769V95.51Z" fill="#439B3E"/>
<path d="M222.769 89.03H216.289V95.51H222.769V89.03Z" fill="#439B3E"/>
<path d="M222.769 82.49H216.289V89.03H222.769V82.49Z" fill="#439B3E"/>
<path d="M222.769 76.02H216.289V82.5H222.769V76.02Z" fill="#439B3E"/>
<path d="M222.769 69.48H216.289V76.02H222.769V69.48Z" fill="black"/>
<path d="M216.29 329.98H209.75V336.52H216.29V329.98Z" fill="#020000"/>
<path d="M216.29 323.5H209.75V329.98H216.29V323.5Z" fill="#020000"/>
<path d="M216.29 316.96H209.75V323.5H216.29V316.96Z" fill="#020100"/>
<path d="M216.29 284.45H209.75V290.93H216.29V284.45Z" fill="#020000"/>
<path d="M216.29 277.91H209.75V284.45H216.29V277.91Z" fill="#020000"/>
<path d="M216.29 271.36H209.75V277.9H216.29V271.36Z" fill="#49302B"/>
<path d="M216.29 264.88H209.75V271.36H216.29V264.88Z" fill="#49302B"/>
<path d="M216.29 258.34H209.75V264.88H216.29V258.34Z" fill="#020000"/>
<path d="M216.29 251.87H209.75V258.35H216.29V251.87Z" fill="#00FFE2"/>
<path d="M216.29 245.33H209.75V251.87H216.29V245.33Z" fill="#00FFE2"/>
<path d="M216.29 238.85H209.75V245.33H216.29V238.85Z" fill="#00FFE2"/>
<path d="M216.29 232.3H209.75V238.84H216.29V232.3Z" fill="#00FFE2"/>
<path d="M216.29 225.76H209.75V232.3H216.29V225.76Z" fill="#00FFE2"/>
<path d="M216.29 219.29H209.75V225.77H216.29V219.29Z" fill="#00FFE2"/>
<path d="M216.29 212.75H209.75V219.29H216.29V212.75Z" fill="#00FFE2"/>
<path d="M216.29 206.27H209.75V212.75H216.29V206.27Z" fill="#00FFE2"/>
<path d="M216.29 199.72H209.75V206.26H216.29V199.72Z" fill="#00FFE2"/>
<path d="M216.29 193.25H209.75V199.73H216.29V193.25Z" fill="#020000"/>
<path d="M216.29 186.71H209.75V193.25H216.29V186.71Z" fill="#439B3E"/>
<path d="M216.29 180.23H209.75V186.71H216.29V180.23Z" fill="#439B3E"/>
<path d="M216.29 173.69H209.75V180.23H216.29V173.69Z" fill="#439B3E"/>
<path d="M216.29 167.14H209.75V173.68H216.29V167.14Z" fill="#020000"/>
<path d="M216.29 160.67H209.75V167.15H216.29V160.67Z" fill="#00FFE2"/>
<path d="M216.29 154.13H209.75V160.67H216.29V154.13Z" fill="#00FFE2"/>
<path d="M216.29 147.65H209.75V154.13H216.29V147.65Z" fill="#05D6B8"/>
<path d="M216.29 141.11H209.75V147.65H216.29V141.11Z" fill="#05D6B8"/>
<path d="M216.29 134.64H209.75V141.12H216.29V134.64Z" fill="#717A97"/>
<path d="M216.29 128.09H209.75V134.63H216.29V128.09Z" fill="#717A97"/>
<path d="M216.29 121.55H209.75V128.09H216.29V121.55Z" fill="#586689"/>
<path d="M216.29 115.07H209.75V121.55H216.29V115.07Z" fill="#8E4E38"/>
<path d="M216.29 108.54H209.75V115.08H216.29V108.54Z" fill="#8E4E38"/>
<path d="M216.29 102.06H209.75V108.54H216.29V102.06Z" fill="#8E4E38"/>
<path d="M216.29 95.51H209.75V102.05H216.29V95.51Z" fill="#439B3E"/>
<path d="M216.29 89.03H209.75V95.51H216.29V89.03Z" fill="#FF0031"/>
<path d="M216.29 82.49H209.75V89.03H216.29V82.49Z" fill="black"/>
<path d="M216.29 76.02H209.75V82.5H216.29V76.02Z" fill="#439B3E"/>
<path d="M216.29 69.48H209.75V76.02H216.29V69.48Z" fill="black"/>
<path d="M209.75 277.91H203.27V284.45H209.75V277.91Z" fill="#020000"/>
<path d="M209.75 271.36H203.27V277.9H209.75V271.36Z" fill="#020000"/>
<path d="M209.75 264.88H203.27V271.36H209.75V264.88Z" fill="#020000"/>
<path d="M209.75 258.34H203.27V264.88H209.75V258.34Z" fill="#020000"/>
<path d="M209.75 251.87H203.27V258.35H209.75V251.87Z" fill="#00FFE2"/>
<path d="M209.75 245.33H203.27V251.87H209.75V245.33Z" fill="#00FFE2"/>
<path d="M209.75 238.85H203.27V245.33H209.75V238.85Z" fill="#00FFE2"/>
<path d="M209.75 232.3H203.27V238.84H209.75V232.3Z" fill="#00FFE2"/>
<path d="M209.75 225.76H203.27V232.3H209.75V225.76Z" fill="#00FFE2"/>
<path d="M209.75 219.29H203.27V225.77H209.75V219.29Z" fill="#020000"/>
<path d="M209.75 212.75H203.27V219.29H209.75V212.75Z" fill="#00FFE2"/>
<path d="M209.75 206.27H203.27V212.75H209.75V206.27Z" fill="#00FFE2"/>
<path d="M209.75 199.72H203.27V206.26H209.75V199.72Z" fill="#00FFE2"/>
<path d="M209.75 193.25H203.27V199.73H209.75V193.25Z" fill="#020000"/>
<path d="M209.75 186.71H203.27V193.25H209.75V186.71Z" fill="#439B3E"/>
<path d="M209.75 180.23H203.27V186.71H209.75V180.23Z" fill="#439B3E"/>
<path d="M209.75 173.69H203.27V180.23H209.75V173.69Z" fill="#439B3E"/>
<path d="M209.75 167.14H203.27V173.68H209.75V167.14Z" fill="#020000"/>
<path d="M209.75 160.67H203.27V167.15H209.75V160.67Z" fill="#00FFE2"/>
<path d="M209.75 154.13H203.27V160.67H209.75V154.13Z" fill="#00FFE2"/>
<path d="M209.75 147.65H203.27V154.13H209.75V147.65Z" fill="#00FFE2"/>
<path d="M209.75 141.11H203.27V147.65H209.75V141.11Z" fill="#717A97"/>
<path d="M209.75 134.64H203.27V141.12H209.75V134.64Z" fill="#717A97"/>
<path d="M209.75 128.09H203.27V134.63H209.75V128.09Z" fill="#717A97"/>
<path d="M209.75 121.55H203.27V128.09H209.75V121.55Z" fill="#8E4E38"/>
<path d="M209.75 115.07H203.27V121.55H209.75V115.07Z" fill="#8E4E38"/>
<path d="M209.75 108.54H203.27V115.08H209.75V108.54Z" fill="#439B3E"/>
<path d="M209.75 102.06H203.27V108.54H209.75V102.06Z" fill="#8E4E38"/>
<path d="M209.75 95.51H203.27V102.05H209.75V95.51Z" fill="#439B3E"/>
<path d="M209.75 89.03H203.27V95.51H209.75V89.03Z" fill="black"/>
<path d="M209.75 82.49H203.27V89.03H209.75V82.49Z" fill="#439B3E"/>
<path d="M209.75 76.02H203.27V82.5H209.75V76.02Z" fill="#439B3E"/>
<path d="M209.75 69.48H203.27V76.02H209.75V69.48Z" fill="black"/>
<path d="M203.261 323.5H196.721V329.98H203.261V323.5Z" fill="#020000"/>
<path d="M203.261 316.96H196.721V323.5H203.261V316.96Z" fill="#020000"/>
<path d="M203.261 310.49H196.721V316.97H203.261V310.49Z" fill="#020000"/>
<path d="M203.261 303.94H196.721V310.48H203.261V303.94Z" fill="#020000"/>
<path d="M203.261 297.46H196.721V303.94H203.261V297.46Z" fill="#020000"/>
<path d="M203.261 290.92H196.721V297.46H203.261V290.92Z" fill="#020000"/>
<path d="M203.261 284.45H196.721V290.93H203.261V284.45Z" fill="#020000"/>
<path d="M203.261 277.91H196.721V284.45H203.261V277.91Z" fill="#020000"/>
<path d="M203.261 271.36H196.721V277.9H203.261V271.36Z" fill="#381D18"/>
<path d="M203.261 264.88H196.721V271.36H203.261V264.88Z" fill="#381D18"/>
<path d="M203.261 258.34H196.721V264.88H203.261V258.34Z" fill="#020000"/>
<path d="M203.261 251.87H196.721V258.35H203.261V251.87Z" fill="#00FFE2"/>
<path d="M203.261 245.33H196.721V251.87H203.261V245.33Z" fill="#00FFE2"/>
<path d="M203.261 238.85H196.721V245.33H203.261V238.85Z" fill="#00FFE2"/>
<path d="M203.261 232.3H196.721V238.84H203.261V232.3Z" fill="#00FFE2"/>
<path d="M203.261 225.76H196.721V232.3H203.261V225.76Z" fill="#00FFE2"/>
<path d="M203.261 219.29H196.721V225.77H203.261V219.29Z" fill="#020000"/>
<path d="M203.261 212.75H196.721V219.29H203.261V212.75Z" fill="#00FFE2"/>
<path d="M203.261 206.27H196.721V212.75H203.261V206.27Z" fill="#00FFE2"/>
<path d="M203.261 199.72H196.721V206.26H203.261V199.72Z" fill="#00FFE2"/>
<path d="M203.261 193.25H196.721V199.73H203.261V193.25Z" fill="#020000"/>
<path d="M203.261 186.71H196.721V193.25H203.261V186.71Z" fill="#34872D"/>
<path d="M203.261 180.23H196.721V186.71H203.261V180.23Z" fill="#34872D"/>
<path d="M203.261 173.69H196.721V180.23H203.261V173.69Z" fill="#34872D"/>
<path d="M203.261 167.14H196.721V173.68H203.261V167.14Z" fill="#020000"/>
<path d="M203.261 160.67H196.721V167.15H203.261V160.67Z" fill="#00FFE2"/>
<path d="M203.261 154.13H196.721V160.67H203.261V154.13Z" fill="#00FFE2"/>
<path d="M203.261 147.65H196.721V154.13H203.261V147.65Z" fill="#00FFE2"/>
<path d="M203.261 141.11H196.721V147.65H203.261V141.11Z" fill="#717A97"/>
<path d="M203.261 134.64H196.721V141.12H203.261V134.64Z" fill="#717A97"/>
<path d="M203.261 128.09H196.721V134.63H203.261V128.09Z" fill="#717A97"/>
<path d="M203.261 121.55H196.721V128.09H203.261V121.55Z" fill="#8E4E38"/>
<path d="M203.261 115.07H196.721V121.55H203.261V115.07Z" fill="#8E4E38"/>
<path d="M203.261 108.54H196.721V115.08H203.261V108.54Z" fill="#439B3E"/>
<path d="M203.261 102.06H196.721V108.54H203.261V102.06Z" fill="#439B3E"/>
<path d="M203.261 95.51H196.721V102.05H203.261V95.51Z" fill="#439B3E"/>
<path d="M203.261 89.03H196.721V95.51H203.261V89.03Z" fill="#439B3E"/>
<path d="M203.261 82.49H196.721V89.03H203.261V82.49Z" fill="#439B3E"/>
<path d="M203.261 76.02H196.721V82.5H203.261V76.02Z" fill="#439B3E"/>
<path d="M203.261 69.48H196.721V76.02H203.261V69.48Z" fill="black"/>
<path d="M196.73 323.5H190.25V329.98H196.73V323.5Z" fill="#020000"/>
<path d="M196.73 316.96H190.25V323.5H196.73V316.96Z" fill="#2B1910"/>
<path d="M196.73 310.49H190.25V316.97H196.73V310.49Z" fill="#2B1910"/>
<path d="M196.73 303.94H190.25V310.48H196.73V303.94Z" fill="#2B1910"/>
<path d="M196.73 297.46H190.25V303.94H196.73V297.46Z" fill="#2B1910"/>
<path d="M196.73 290.92H190.25V297.46H196.73V290.92Z" fill="#2B1910"/>
<path d="M196.73 284.45H190.25V290.93H196.73V284.45Z" fill="#381D18"/>
<path d="M196.73 277.91H190.25V284.45H196.73V277.91Z" fill="#381D18"/>
<path d="M196.73 271.36H190.25V277.9H196.73V271.36Z" fill="#381D18"/>
<path d="M196.73 264.88H190.25V271.36H196.73V264.88Z" fill="#381D18"/>
<path d="M196.73 258.34H190.25V264.88H196.73V258.34Z" fill="#020000"/>
<path d="M196.73 251.87H190.25V258.35H196.73V251.87Z" fill="#00FFE2"/>
<path d="M196.73 245.33H190.25V251.87H196.73V245.33Z" fill="#00FFE2"/>
<path d="M196.73 238.85H190.25V245.33H196.73V238.85Z" fill="#00FFE2"/>
<path d="M196.73 232.3H190.25V238.84H196.73V232.3Z" fill="#00FFE2"/>
<path d="M196.73 225.76H190.25V232.3H196.73V225.76Z" fill="#00FFE2"/>
<path d="M196.73 219.29H190.25V225.77H196.73V219.29Z" fill="#020000"/>
<path d="M196.73 212.75H190.25V219.29H196.73V212.75Z" fill="#00FFE2"/>
<path d="M196.73 206.27H190.25V212.75H196.73V206.27Z" fill="#05D6B8"/>
<path d="M196.73 199.72H190.25V206.26H196.73V199.72Z" fill="#05D6B8"/>
<path d="M196.73 193.25H190.25V199.73H196.73V193.25Z" fill="#05D6B8"/>
<path d="M196.73 186.71H190.25V193.25H196.73V186.71Z" fill="#020000"/>
<path d="M196.73 180.23H190.25V186.71H196.73V180.23Z" fill="#439B3E"/>
<path d="M196.73 173.69H190.25V180.23H196.73V173.69Z" fill="#439B3E"/>
<path d="M196.73 167.14H190.25V173.68H196.73V167.14Z" fill="#020000"/>
<path d="M196.73 160.67H190.25V167.15H196.73V160.67Z" fill="#00FFE2"/>
<path d="M196.73 154.13H190.25V160.67H196.73V154.13Z" fill="#00FFE2"/>
<path d="M196.73 147.65H190.25V154.13H196.73V147.65Z" fill="#00FFE2"/>
<path d="M196.73 141.11H190.25V147.65H196.73V141.11Z" fill="#717A97"/>
<path d="M196.73 134.64H190.25V141.12H196.73V134.64Z" fill="#717A97"/>
<path d="M196.73 128.09H190.25V134.63H196.73V128.09Z" fill="#717A97"/>
<path d="M196.73 121.55H190.25V128.09H196.73V121.55Z" fill="#8E4E38"/>
<path d="M196.73 115.07H190.25V121.55H196.73V115.07Z" fill="#8E4E38"/>
<path d="M196.73 108.54H190.25V115.08H196.73V108.54Z" fill="#439B3E"/>
<path d="M196.73 102.06H190.25V108.54H196.73V102.06Z" fill="#8E4E38"/>
<path d="M196.73 95.51H190.25V102.05H196.73V95.51Z" fill="#439B3E"/>
<path d="M196.73 89.03H190.25V95.51H196.73V89.03Z" fill="black"/>
<path d="M196.73 82.49H190.25V89.03H196.73V82.49Z" fill="#439B3E"/>
<path d="M196.73 76.02H190.25V82.5H196.73V76.02Z" fill="#439B3E"/>
<path d="M196.73 69.48H190.25V76.02H196.73V69.48Z" fill="black"/>
<path d="M190.251 316.96H183.711V323.5H190.251V316.96Z" fill="#020000"/>
<path d="M190.251 310.49H183.711V316.97H190.251V310.49Z" fill="#2B1910"/>
<path d="M190.251 303.94H183.711V310.48H190.251V303.94Z" fill="#2B1910"/>
<path d="M190.251 297.46H183.711V303.94H190.251V297.46Z" fill="#2B1910"/>
<path d="M190.251 290.92H183.711V297.46H190.251V290.92Z" fill="#2B1910"/>
<path d="M190.251 284.45H183.711V290.93H190.251V284.45Z" fill="#49302B"/>
<path d="M190.251 277.91H183.711V284.45H190.251V277.91Z" fill="#49302B"/>
<path d="M190.251 271.36H183.711V277.9H190.251V271.36Z" fill="#381D18"/>
<path d="M190.251 264.88H183.711V271.36H190.251V264.88Z" fill="#381D18"/>
<path d="M190.251 258.34H183.711V264.88H190.251V258.34Z" fill="#020000"/>
<path d="M190.251 251.87H183.711V258.35H190.251V251.87Z" fill="#00FFE2"/>
<path d="M190.251 245.33H183.711V251.87H190.251V245.33Z" fill="#00FFE2"/>
<path d="M190.251 238.85H183.711V245.33H190.251V238.85Z" fill="#00FFE2"/>
<path d="M190.251 232.3H183.711V238.84H190.251V232.3Z" fill="#00FFE2"/>
<path d="M190.251 225.76H183.711V232.3H190.251V225.76Z" fill="#00FFE2"/>
<path d="M190.251 219.29H183.711V225.77H190.251V219.29Z" fill="#020000"/>
<path d="M190.251 212.75H183.711V219.29H190.251V212.75Z" fill="#00FFE2"/>
<path d="M190.251 206.27H183.711V212.75H190.251V206.27Z" fill="#00FFE2"/>
<path d="M190.251 199.72H183.711V206.26H190.251V199.72Z" fill="#05D6B8"/>
<path d="M190.251 193.25H183.711V199.73H190.251V193.25Z" fill="#020000"/>
<path d="M190.251 186.71H183.711V193.25H190.251V186.71Z" fill="#439B3E"/>
<path d="M190.251 180.23H183.711V186.71H190.251V180.23Z" fill="#439B3E"/>
<path d="M190.251 173.69H183.711V180.23H190.251V173.69Z" fill="#439B3E"/>
<path d="M190.251 167.14H183.711V173.68H190.251V167.14Z" fill="#439B3E"/>
<path d="M190.251 160.67H183.711V167.15H190.251V160.67Z" fill="#020000"/>
<path d="M190.251 154.13H183.711V160.67H190.251V154.13Z" fill="#00FFE2"/>
<path d="M190.251 147.65H183.711V154.13H190.251V147.65Z" fill="#00FFE2"/>
<path d="M190.251 141.11H183.711V147.65H190.251V141.11Z" fill="#717A97"/>
<path d="M190.251 134.64H183.711V141.12H190.251V134.64Z" fill="#717A97"/>
<path d="M190.251 128.09H183.711V134.63H190.251V128.09Z" fill="#717A97"/>
<path d="M190.251 121.55H183.711V128.09H190.251V121.55Z" fill="#586689"/>
<path d="M190.251 115.07H183.711V121.55H190.251V115.07Z" fill="#8E4E38"/>
<path d="M190.251 108.54H183.711V115.08H190.251V108.54Z" fill="#8E4E38"/>
<path d="M190.251 102.06H183.711V108.54H190.251V102.06Z" fill="#8E4E38"/>
<path d="M190.251 95.51H183.711V102.05H190.251V95.51Z" fill="#439B3E"/>
<path d="M190.251 89.03H183.711V95.51H190.251V89.03Z" fill="#FF0031"/>
<path d="M190.251 82.49H183.711V89.03H190.251V82.49Z" fill="black"/>
<path d="M190.251 76.02H183.711V82.5H190.251V76.02Z" fill="black"/>
<path d="M183.71 323.5H177.23V329.98H183.71V323.5Z" fill="#020000"/>
<path d="M183.71 316.96H177.23V323.5H183.71V316.96Z" fill="#2B1910"/>
<path d="M183.71 310.49H177.23V316.97H183.71V310.49Z" fill="#2B1910"/>
<path d="M183.71 303.94H177.23V310.48H183.71V303.94Z" fill="#2B1910"/>
<path d="M183.71 297.46H177.23V303.94H183.71V297.46Z" fill="#2B1910"/>
<path d="M183.71 290.92H177.23V297.46H183.71V290.92Z" fill="#2B1910"/>
<path d="M183.71 284.45H177.23V290.93H183.71V284.45Z" fill="#49302B"/>
<path d="M183.71 277.91H177.23V284.45H183.71V277.91Z" fill="#49302B"/>
<path d="M183.71 271.36H177.23V277.9H183.71V271.36Z" fill="#49302B"/>
<path d="M183.71 264.88H177.23V271.36H183.71V264.88Z" fill="#381D18"/>
<path d="M183.71 258.34H177.23V264.88H183.71V258.34Z" fill="#020000"/>
<path d="M183.71 251.87H177.23V258.35H183.71V251.87Z" fill="#00FFE2"/>
<path d="M183.71 245.33H177.23V251.87H183.71V245.33Z" fill="#00FFE2"/>
<path d="M183.71 238.85H177.23V245.33H183.71V238.85Z" fill="#00FFE2"/>
<path d="M183.71 232.3H177.23V238.84H183.71V232.3Z" fill="#00FFE2"/>
<path d="M183.71 225.76H177.23V232.3H183.71V225.76Z" fill="#00FFE2"/>
<path d="M183.71 219.29H177.23V225.77H183.71V219.29Z" fill="#E5DAD4"/>
<path d="M183.71 212.75H177.23V219.29H183.71V212.75Z" fill="#E5DAD4"/>
<path d="M183.71 206.27H177.23V212.75H183.71V206.27Z" fill="#E5DAD4"/>
<path d="M183.71 199.72H177.23V206.26H183.71V199.72Z" fill="#05D6B8"/>
<path d="M183.71 193.25H177.23V199.73H183.71V193.25Z" fill="#020000"/>
<path d="M183.71 186.71H177.23V193.25H183.71V186.71Z" fill="#439B3E"/>
<path d="M183.71 180.23H177.23V186.71H183.71V180.23Z" fill="#439B3E"/>
<path d="M183.71 173.69H177.23V180.23H183.71V173.69Z" fill="black"/>
<path d="M183.71 167.14H177.23V173.68H183.71V167.14Z" fill="#E5DAD4"/>
<path d="M183.71 160.67H177.23V167.15H183.71V160.67Z" fill="#020000"/>
<path d="M183.71 154.13H177.23V160.67H183.71V154.13Z" fill="#00FFE2"/>
<path d="M183.71 147.65H177.23V154.13H183.71V147.65Z" fill="#00FFE2"/>
<path d="M183.71 141.11H177.23V147.65H183.71V141.11Z" fill="#717A97"/>
<path d="M183.71 134.64H177.23V141.12H183.71V134.64Z" fill="#717A97"/>
<path d="M183.71 128.09H177.23V134.63H183.71V128.09Z" fill="#717A97"/>
<path d="M183.71 121.55H177.23V128.09H183.71V121.55Z" fill="#00FFE2"/>
<path d="M183.71 115.07H177.23V121.55H183.71V115.07Z" fill="black"/>
<path d="M183.71 108.54H177.23V115.08H183.71V108.54Z" fill="black"/>
<path d="M183.71 102.06H177.23V108.54H183.71V102.06Z" fill="black"/>
<path d="M183.71 95.51H177.23V102.05H183.71V95.51Z" fill="black"/>
<path d="M183.71 89.03H177.23V95.51H183.71V89.03Z" fill="black"/>
<path d="M183.71 82.49H177.23V89.03H183.71V82.49Z" fill="black"/>
<path d="M177.229 323.5H170.689V329.98H177.229V323.5Z" fill="#020000"/>
<path d="M177.229 316.96H170.689V323.5H177.229V316.96Z" fill="#2B1910"/>
<path d="M177.229 310.49H170.689V316.97H177.229V310.49Z" fill="#2B1910"/>
<path d="M177.229 303.94H170.689V310.48H177.229V303.94Z" fill="#2B1910"/>
<path d="M177.229 297.46H170.689V303.94H177.229V297.46Z" fill="#2B1910"/>
<path d="M177.229 290.92H170.689V297.46H177.229V290.92Z" fill="#2B1910"/>
<path d="M177.229 284.45H170.689V290.93H177.229V284.45Z" fill="#49302B"/>
<path d="M177.229 277.91H170.689V284.45H177.229V277.91Z" fill="#49302B"/>
<path d="M177.229 271.36H170.689V277.9H177.229V271.36Z" fill="#49302B"/>
<path d="M177.229 264.88H170.689V271.36H177.229V264.88Z" fill="#49302B"/>
<path d="M177.229 258.34H170.689V264.88H177.229V258.34Z" fill="#020000"/>
<path d="M177.229 251.87H170.689V258.35H177.229V251.87Z" fill="#00FFE2"/>
<path d="M177.229 245.33H170.689V251.87H177.229V245.33Z" fill="#00FFE2"/>
<path d="M177.229 238.85H170.689V245.33H177.229V238.85Z" fill="#00FFE2"/>
<path d="M177.229 232.3H170.689V238.84H177.229V232.3Z" fill="#00FFE2"/>
<path d="M177.229 225.76H170.689V232.3H177.229V225.76Z" fill="#00FFE2"/>
<path d="M177.229 219.29H170.689V225.77H177.229V219.29Z" fill="#E5DAD4"/>
<path d="M177.229 212.75H170.689V219.29H177.229V212.75Z" fill="#E5DAD4"/>
<path d="M177.229 206.27H170.689V212.75H177.229V206.27Z" fill="#E5DAD4"/>
<path d="M177.229 199.72H170.689V206.26H177.229V199.72Z" fill="#E5DAD4"/>
<path d="M177.229 193.25H170.689V199.73H177.229V193.25Z" fill="#E5DAD4"/>
<path d="M177.229 186.71H170.689V193.25H177.229V186.71Z" fill="black"/>
<path d="M177.229 180.23H170.689V186.71H177.229V180.23Z" fill="#E5DAD4"/>
<path d="M177.229 173.69H170.689V180.23H177.229V173.69Z" fill="#E5DAD4"/>
<path d="M177.229 167.14H170.689V173.68H177.229V167.14Z" fill="#E5DAD4"/>
<path d="M177.229 160.67H170.689V167.15H177.229V160.67Z" fill="#E5DAD4"/>
<path d="M177.229 154.13H170.689V160.67H177.229V154.13Z" fill="#05D6B8"/>
<path d="M177.229 147.65H170.689V154.13H177.229V147.65Z" fill="#00FFE2"/>
<path d="M177.229 141.11H170.689V147.65H177.229V141.11Z" fill="#00FFE2"/>
<path d="M177.229 134.64H170.689V141.12H177.229V134.64Z" fill="#00FFE2"/>
<path d="M177.229 128.09H170.689V134.63H177.229V128.09Z" fill="#00FFE2"/>
<path d="M177.229 121.55H170.689V128.09H177.229V121.55Z" fill="#050100"/>
<path d="M170.681 323.5H164.141V329.98H170.681V323.5Z" fill="#020000"/>
<path d="M170.681 316.96H164.141V323.5H170.681V316.96Z" fill="#2B1910"/>
<path d="M170.681 310.49H164.141V316.97H170.681V310.49Z" fill="#2B1910"/>
<path d="M170.681 303.94H164.141V310.48H170.681V303.94Z" fill="#020000"/>
<path d="M170.681 297.46H164.141V303.94H170.681V297.46Z" fill="#020000"/>
<path d="M170.681 290.92H164.141V297.46H170.681V290.92Z" fill="#020000"/>
<path d="M170.681 284.45H164.141V290.93H170.681V284.45Z" fill="#49302B"/>
<path d="M170.681 277.91H164.141V284.45H170.681V277.91Z" fill="#49302B"/>
<path d="M170.681 271.36H164.141V277.9H170.681V271.36Z" fill="#49302B"/>
<path d="M170.681 264.88H164.141V271.36H170.681V264.88Z" fill="#49302B"/>
<path d="M170.681 258.34H164.141V264.88H170.681V258.34Z" fill="#020000"/>
<path d="M170.681 251.87H164.141V258.35H170.681V251.87Z" fill="#00FFE2"/>
<path d="M170.681 245.33H164.141V251.87H170.681V245.33Z" fill="#05D6B8"/>
<path d="M170.681 238.85H164.141V245.33H170.681V238.85Z" fill="#00FFE2"/>
<path d="M170.681 232.3H164.141V238.84H170.681V232.3Z" fill="#00FFE2"/>
<path d="M170.681 225.76H164.141V232.3H170.681V225.76Z" fill="#00FFE2"/>
<path d="M170.681 219.29H164.141V225.77H170.681V219.29Z" fill="#E5DAD4"/>
<path d="M170.681 212.75H164.141V219.29H170.681V212.75Z" fill="#E5DAD4"/>
<path d="M170.681 206.27H164.141V212.75H170.681V206.27Z" fill="#E5DAD4"/>
<path d="M170.681 199.72H164.141V206.26H170.681V199.72Z" fill="#E5DAD4"/>
<path d="M170.681 193.25H164.141V199.73H170.681V193.25Z" fill="#E5DAD4"/>
<path d="M170.681 186.71H164.141V193.25H170.681V186.71Z" fill="#E5DAD4"/>
<path d="M170.681 180.23H164.141V186.71H170.681V180.23Z" fill="#E5DAD4"/>
<path d="M170.681 173.69H164.141V180.23H170.681V173.69Z" fill="#E5DAD4"/>
<path d="M170.681 167.14H164.141V173.68H170.681V167.14Z" fill="black"/>
<path d="M170.681 160.67H164.141V167.15H170.681V160.67Z" fill="black"/>
<path d="M170.681 154.13H164.141V160.67H170.681V154.13Z" fill="#05D6B8"/>
<path d="M170.681 147.65H164.141V154.13H170.681V147.65Z" fill="#05D6B8"/>
<path d="M170.681 141.11H164.141V147.65H170.681V141.11Z" fill="#00FFE2"/>
<path d="M170.681 134.64H164.141V141.12H170.681V134.64Z" fill="#00FFE2"/>
<path d="M170.681 128.09H164.141V134.63H170.681V128.09Z" fill="#586689"/>
<path d="M170.681 121.55H164.141V128.09H170.681V121.55Z" fill="#586689"/>
<path d="M170.681 115.07H164.141V121.55H170.681V115.07Z" fill="#050100"/>
<path d="M164.15 323.5H157.67V329.98H164.15V323.5Z" fill="#020000"/>
<path d="M164.15 316.96H157.67V323.5H164.15V316.96Z" fill="#2B1910"/>
<path d="M164.15 310.49H157.67V316.97H164.15V310.49Z" fill="#2B1910"/>
<path d="M164.15 290.92H157.67V297.46H164.15V290.92Z" fill="#020000"/>
<path d="M164.15 284.45H157.67V290.93H164.15V284.45Z" fill="#020000"/>
<path d="M164.15 277.91H157.67V284.45H164.15V277.91Z" fill="#020100"/>
<path d="M164.15 271.36H157.67V277.9H164.15V271.36Z" fill="#49302B"/>
<path d="M164.15 264.88H157.67V271.36H164.15V264.88Z" fill="#49302B"/>
<path d="M164.15 258.34H157.67V264.88H164.15V258.34Z" fill="#020000"/>
<path d="M164.15 251.87H157.67V258.35H164.15V251.87Z" fill="#05D6B8"/>
<path d="M164.15 245.33H157.67V251.87H164.15V245.33Z" fill="#00FFE2"/>
<path d="M164.15 238.85H157.67V245.33H164.15V238.85Z" fill="#00FFE2"/>
<path d="M164.15 232.3H157.67V238.84H164.15V232.3Z" fill="#00FFE2"/>
<path d="M164.15 225.76H157.67V232.3H164.15V225.76Z" fill="#05D6B8"/>
<path d="M164.15 219.29H157.67V225.77H164.15V219.29Z" fill="#020000"/>
<path d="M164.15 212.75H157.67V219.29H164.15V212.75Z" fill="#00FFE2"/>
<path d="M164.15 206.27H157.67V212.75H164.15V206.27Z" fill="#E5DAD4"/>
<path d="M164.15 199.72H157.67V206.26H164.15V199.72Z" fill="#E5DAD4"/>
<path d="M164.15 193.25H157.67V199.73H164.15V193.25Z" fill="#E5DAD4"/>
<path d="M164.15 186.71H157.67V193.25H164.15V186.71Z" fill="#E5DAD4"/>
<path d="M164.15 180.23H157.67V186.71H164.15V180.23Z" fill="#E5DAD4"/>
<path d="M164.15 173.69H157.67V180.23H164.15V173.69Z" fill="black"/>
<path d="M164.15 167.14H157.67V173.68H164.15V167.14Z" fill="#439B3E"/>
<path d="M164.15 160.67H157.67V167.15H164.15V160.67Z" fill="#439B3E"/>
<path d="M164.15 154.13H157.67V160.67H164.15V154.13Z" fill="#020000"/>
<path d="M164.15 147.65H157.67V154.13H164.15V147.65Z" fill="#020000"/>
<path d="M164.15 141.11H157.67V147.65H164.15V141.11Z" fill="#020000"/>
<path d="M164.15 134.64H157.67V141.12H164.15V134.64Z" fill="#586689"/>
<path d="M164.15 128.09H157.67V134.63H164.15V128.09Z" fill="#586689"/>
<path d="M164.15 121.55H157.67V128.09H164.15V121.55Z" fill="#586689"/>
<path d="M164.15 115.07H157.67V121.55H164.15V115.07Z" fill="#050100"/>
<path d="M157.671 323.5H151.131V329.98H157.671V323.5Z" fill="#020000"/>
<path d="M157.671 316.96H151.131V323.5H157.671V316.96Z" fill="#020000"/>
<path d="M157.671 310.49H151.131V316.97H157.671V310.49Z" fill="#020000"/>
<path d="M157.671 271.36H151.131V277.9H157.671V271.36Z" fill="#020100"/>
<path d="M157.671 264.88H151.131V271.36H157.671V264.88Z" fill="#020000"/>
<path d="M157.671 258.34H151.131V264.88H157.671V258.34Z" fill="#020000"/>
<path d="M157.671 251.87H151.131V258.35H157.671V251.87Z" fill="#05D6B8"/>
<path d="M157.671 245.33H151.131V251.87H157.671V245.33Z" fill="#05D6B8"/>
<path d="M157.671 238.85H151.131V245.33H157.671V238.85Z" fill="#00FFE2"/>
<path d="M157.671 232.3H151.131V238.84H157.671V232.3Z" fill="#05D6B8"/>
<path d="M157.671 225.76H151.131V232.3H157.671V225.76Z" fill="#05D6B8"/>
<path d="M157.671 219.29H151.131V225.77H157.671V219.29Z" fill="black"/>
<path d="M157.671 212.75H151.131V219.29H157.671V212.75Z" fill="#020000"/>
<path d="M157.671 206.27H151.131V212.75H157.671V206.27Z" fill="#00FFE2"/>
<path d="M157.671 199.72H151.131V206.26H157.671V199.72Z" fill="#E5DAD4"/>
<path d="M157.671 193.25H151.131V199.73H157.671V193.25Z" fill="#E5DAD4"/>
<path d="M157.671 186.71H151.131V193.25H157.671V186.71Z" fill="#020000"/>
<path d="M157.671 180.23H151.131V186.71H157.671V180.23Z" fill="#439B3E"/>
<path d="M157.671 173.69H151.131V180.23H157.671V173.69Z" fill="#439B3E"/>
<path d="M157.671 167.14H151.131V173.68H157.671V167.14Z" fill="#439B3E"/>
<path d="M157.671 160.67H151.131V167.15H157.671V160.67Z" fill="#439B3E"/>
<path d="M157.671 154.13H151.131V160.67H157.671V154.13Z" fill="#020000"/>
<path d="M157.671 147.65H151.131V154.13H157.671V147.65Z" fill="#439B3E"/>
<path d="M157.671 141.11H151.131V147.65H157.671V141.11Z" fill="#439B3E"/>
<path d="M157.671 134.64H151.131V141.12H157.671V134.64Z" fill="#439B3E"/>
<path d="M157.671 128.09H151.131V134.63H157.671V128.09Z" fill="#586689"/>
<path d="M157.671 121.55H151.131V128.09H157.671V121.55Z" fill="#020000"/>
<path d="M151.13 258.34H144.65V264.88H151.13V258.34Z" fill="#020000"/>
<path d="M151.13 251.87H144.65V258.35H151.13V251.87Z" fill="#020000"/>
<path d="M151.13 245.33H144.65V251.87H151.13V245.33Z" fill="#020000"/>
<path d="M151.13 238.85H144.65V245.33H151.13V238.85Z" fill="#020000"/>
<path d="M151.13 232.3H144.65V238.84H151.13V232.3Z" fill="#020000"/>
<path d="M151.13 225.76H144.65V232.3H151.13V225.76Z" fill="#020000"/>
<path d="M151.13 219.29H144.65V225.77H151.13V219.29Z" fill="#020000"/>
<path d="M151.13 212.75H144.65V219.29H151.13V212.75Z" fill="black"/>
<path d="M151.13 206.27H144.65V212.75H151.13V206.27Z" fill="#020000"/>
<path d="M151.13 199.72H144.65V206.26H151.13V199.72Z" fill="#020000"/>
<path d="M151.13 193.25H144.65V199.73H151.13V193.25Z" fill="#020000"/>
<path d="M151.13 186.71H144.65V193.25H151.13V186.71Z" fill="#020000"/>
<path d="M151.13 180.23H144.65V186.71H151.13V180.23Z" fill="#439B3E"/>
<path d="M151.13 173.69H144.65V180.23H151.13V173.69Z" fill="#439B3E"/>
<path d="M151.13 167.14H144.65V173.68H151.13V167.14Z" fill="#439B3E"/>
<path d="M151.13 160.67H144.65V167.15H151.13V160.67Z" fill="#439B3E"/>
<path d="M151.13 154.13H144.65V160.67H151.13V154.13Z" fill="#020000"/>
<path d="M151.13 147.65H144.65V154.13H151.13V147.65Z" fill="#439B3E"/>
<path d="M151.13 141.11H144.65V147.65H151.13V141.11Z" fill="#439B3E"/>
<path d="M151.13 134.64H144.65V141.12H151.13V134.64Z" fill="#439B3E"/>
<path d="M151.13 128.09H144.65V134.63H151.13V128.09Z" fill="#020000"/>
<path d="M144.649 186.71H138.109V193.25H144.649V186.71Z" fill="#020000"/>
<path d="M144.649 180.23H138.109V186.71H144.649V180.23Z" fill="#020000"/>
<path d="M144.649 173.69H138.109V180.23H144.649V173.69Z" fill="#020000"/>
<path d="M144.649 167.14H138.109V173.68H144.649V167.14Z" fill="#439B3E"/>
<path d="M144.649 160.67H138.109V167.15H144.649V160.67Z" fill="#439B3E"/>
<path d="M144.649 154.13H138.109V160.67H144.649V154.13Z" fill="#439B3E"/>
<path d="M144.649 147.65H138.109V154.13H144.649V147.65Z" fill="#439B3E"/>
<path d="M144.649 141.11H138.109V147.65H144.649V141.11Z" fill="#34872D"/>
<path d="M144.649 134.64H138.109V141.12H144.649V134.64Z" fill="#439B3E"/>
<path d="M144.649 128.09H138.109V134.63H144.649V128.09Z" fill="#020000"/>
<path d="M138.121 173.69H131.641V180.23H138.121V173.69Z" fill="#020000"/>
<path d="M138.121 167.14H131.641V173.68H138.121V167.14Z" fill="#439B3E"/>
<path d="M138.121 160.67H131.641V167.15H138.121V160.67Z" fill="#439B3E"/>
<path d="M138.121 154.13H131.641V160.67H138.121V154.13Z" fill="#439B3E"/>
<path d="M138.121 147.65H131.641V154.13H138.121V147.65Z" fill="#34872D"/>
<path d="M138.121 141.11H131.641V147.65H138.121V141.11Z" fill="#439B3E"/>
<path d="M138.121 134.64H131.641V141.12H138.121V134.64Z" fill="#020000"/>
<path d="M131.63 173.69H125.09V180.23H131.63V173.69Z" fill="#020000"/>
<path d="M131.63 167.14H125.09V173.68H131.63V167.14Z" fill="#439B3E"/>
<path d="M131.63 160.67H125.09V167.15H131.63V160.67Z" fill="#439B3E"/>
<path d="M131.63 154.13H125.09V160.67H131.63V154.13Z" fill="#439B3E"/>
<path d="M131.63 147.65H125.09V154.13H131.63V147.65Z" fill="#439B3E"/>
<path d="M131.63 141.11H125.09V147.65H131.63V141.11Z" fill="#439B3E"/>
<path d="M131.63 134.64H125.09V141.12H131.63V134.64Z" fill="#050100"/>
<path d="M125.091 167.14H118.551V173.68H125.091V167.14Z" fill="#020000"/>
<path d="M125.091 160.67H118.551V167.15H125.091V160.67Z" fill="#439B3E"/>
<path d="M125.091 154.13H118.551V160.67H125.091V154.13Z" fill="#439B3E"/>
<path d="M125.091 147.65H118.551V154.13H125.091V147.65Z" fill="#439B3E"/>
<path d="M125.091 141.11H118.551V147.65H125.091V141.11Z" fill="#020000"/>
<path d="M118.55 160.67H112.07V167.15H118.55V160.67Z" fill="#020000"/>
<path d="M118.55 154.13H112.07V160.67H118.55V154.13Z" fill="#020000"/>
<path d="M118.55 147.65H112.07V154.13H118.55V147.65Z" fill="#020000"/>
</svg>
