<svg width="400" height="400" viewBox="0 0 400 400" fill="none" xmlns="http://www.w3.org/2000/svg">
<path d="M200.001 385.78C302.604 385.78 385.781 302.603 385.781 200C385.781 97.3965 302.604 14.22 200.001 14.22C97.3972 14.22 14.2207 97.3965 14.2207 200C14.2207 302.603 97.3972 385.78 200.001 385.78Z" fill="black"/>
<path d="M200.001 392.78C93.7007 392.78 7.2207 306.3 7.2207 200C7.2207 93.7 93.7007 7.21997 200.001 7.21997C306.301 7.21997 392.781 93.7 392.781 200C392.781 306.3 306.301 392.78 200.001 392.78ZM200.001 21.22C101.421 21.22 21.2207 101.42 21.2207 200C21.2207 298.58 101.421 378.78 200.001 378.78C298.581 378.78 378.781 298.58 378.781 200C378.781 101.42 298.581 21.22 200.001 21.22Z" fill="#EF0012"/>
<path d="M221.83 234.12H214.34V241.53H221.83V234.12Z" fill="#544B56"/>
<path d="M281.42 323.59H274.01V331H281.42V323.59Z" fill="black"/>
<path d="M177.051 323.59H169.641V331H177.051V323.59Z" fill="black"/>
<path d="M274.01 323.59H266.52V331H274.01V323.59Z" fill="black"/>
<path d="M266.521 323.59H259.041V331H266.521V323.59Z" fill="black"/>
<path d="M244.131 323.59H236.721V331H244.131V323.59Z" fill="black"/>
<path d="M251.621 323.59H244.131V331H251.621V323.59Z" fill="black"/>
<path d="M259.031 323.59H251.621V331H259.031V323.59Z" fill="black"/>
<path d="M199.439 323.59H191.949V331H199.439V323.59Z" fill="black"/>
<path d="M191.951 323.59H184.541V331H191.951V323.59Z" fill="black"/>
<path d="M184.541 323.59H177.051V331H184.541V323.59Z" fill="black"/>
<path d="M214.34 323.59H206.93V331H214.34V323.59Z" fill="black"/>
<path d="M206.929 323.59H199.439V331H206.929V323.59Z" fill="black"/>
<path d="M229.23 167.04H221.82V174.45H229.23V167.04Z" fill="#9087B5"/>
<path d="M221.83 167.04H214.34V174.45H221.83V167.04Z" fill="#9087B5"/>
<path d="M214.34 167.04H206.93V174.45H214.34V167.04Z" fill="#9087B5"/>
<path d="M236.72 167.04H229.23V174.45H236.72V167.04Z" fill="#9087B5"/>
<path d="M266.521 316.1H259.041V323.59H266.521V316.1Z" fill="#544B56"/>
<path d="M221.83 107.37H214.34V114.86H221.83V107.37Z" fill="black"/>
<path d="M214.34 107.37H206.93V114.86H214.34V107.37Z" fill="black"/>
<path d="M244.131 144.65H236.721V152.14H244.131V144.65Z" fill="#F49364"/>
<path d="M244.131 137.17H236.721V144.66H244.131V137.17Z" fill="#F49364"/>
<path d="M221.83 152.14H214.34V159.55H221.83V152.14Z" fill="#FFEFD3"/>
<path d="M221.83 137.17H214.34V144.66H221.83V137.17Z" fill="#FFEFD3"/>
<path d="M229.23 152.14H221.82V159.55H229.23V152.14Z" fill="#FFEFD3"/>
<path d="M229.23 144.65H221.82V152.14H229.23V144.65Z" fill="#FFEFD3"/>
<path d="M221.83 144.65H214.34V152.14H221.83V144.65Z" fill="#FFEFD3"/>
<path d="M229.23 137.17H221.82V144.66H229.23V137.17Z" fill="#FFEFD3"/>
<path d="M214.34 144.65H206.93V152.14H214.34V144.65Z" fill="#FFEFD3"/>
<path d="M214.34 137.17H206.93V144.66H214.34V137.17Z" fill="#FFEFD3"/>
<path d="M214.34 152.14H206.93V159.55H214.34V152.14Z" fill="#FFEFD3"/>
<path d="M236.72 144.65H229.23V152.14H236.72V144.65Z" fill="#FFEFD3"/>
<path d="M236.72 137.17H229.23V144.66H236.72V137.17Z" fill="#FFEFD3"/>
<path d="M236.72 152.14H229.23V159.55H236.72V152.14Z" fill="#FFEFD3"/>
<path d="M147.26 241.53H139.77V249.02H147.26V241.53Z" fill="#F49364"/>
<path d="M139.769 211.74H132.359V219.23H139.769V211.74Z" fill="#F49364"/>
<path d="M147.26 204.33H139.77V211.74H147.26V204.33Z" fill="#F49364"/>
<path d="M139.769 204.33H132.359V211.74H139.769V204.33Z" fill="#F49364"/>
<path d="M221.83 159.55H214.34V167.04H221.83V159.55Z" fill="#7A3124"/>
<path d="M229.23 159.55H221.82V167.04H229.23V159.55Z" fill="#7A3124"/>
<path d="M236.72 159.55H229.23V167.04H236.72V159.55Z" fill="#7A3124"/>
<path d="M244.131 152.14H236.721V159.55H244.131V152.14Z" fill="#7A3124"/>
<path d="M147.26 234.12H139.77V241.53H147.26V234.12Z" fill="#7A3124"/>
<path d="M147.26 219.22H139.77V226.63H147.26V219.22Z" fill="#7A3124"/>
<path d="M147.26 211.74H139.77V219.23H147.26V211.74Z" fill="#7A3124"/>
<path d="M139.769 219.22H132.359V226.63H139.769V219.22Z" fill="#7A3124"/>
<path d="M177.051 219.22H169.641V226.63H177.051V219.22Z" fill="#7A3124"/>
<path d="M177.051 211.74H169.641V219.23H177.051V211.74Z" fill="#7A3124"/>
<path d="M177.051 204.33H169.641V211.74H177.051V204.33Z" fill="#7A3124"/>
<path d="M184.541 204.33H177.051V211.74H184.541V204.33Z" fill="#7A3124"/>
<path d="M184.541 211.74H177.051V219.23H184.541V211.74Z" fill="#7A3124"/>
<path d="M184.541 219.22H177.051V226.63H184.541V219.22Z" fill="#7A3124"/>
<path d="M169.64 211.74H162.15V219.23H169.64V211.74Z" fill="#9087B5"/>
<path d="M169.64 204.33H162.15V211.74H169.64V204.33Z" fill="#9087B5"/>
<path d="M169.64 219.22H162.15V226.63H169.64V219.22Z" fill="#9087B5"/>
<path d="M139.769 189.35H132.359V196.84H139.769V189.35Z" fill="#544B56"/>
<path d="M191.951 286.3H184.541V293.71H191.951V286.3Z" fill="#E7DACE"/>
<path d="M259.031 286.3H251.621V293.71H259.031V286.3Z" fill="#E7DACE"/>
<path d="M251.621 286.3H244.131V293.71H251.621V286.3Z" fill="#E7DACE"/>
<path d="M266.521 181.94H259.041V189.35H266.521V181.94Z" fill="#E7DACE"/>
<path d="M251.621 189.35H244.131V196.84H251.621V189.35Z" fill="#E7DACE"/>
<path d="M251.621 181.94H244.131V189.35H251.621V181.94Z" fill="#E7DACE"/>
<path d="M251.621 204.33H244.131V211.74H251.621V204.33Z" fill="#E7DACE"/>
<path d="M251.621 196.84H244.131V204.33H251.621V196.84Z" fill="#E7DACE"/>
<path d="M259.031 181.94H251.621V189.35H259.031V181.94Z" fill="#E7DACE"/>
<path d="M251.621 167.04H244.131V174.45H251.621V167.04Z" fill="#E7DACE"/>
<path d="M259.031 167.04H251.621V174.45H259.031V167.04Z" fill="#E7DACE"/>
<path d="M229.23 99.96H221.82V107.37H229.23V99.96Z" fill="#E7DACE"/>
<path d="M221.83 99.96H214.34V107.37H221.83V99.96Z" fill="#E7DACE"/>
<path d="M236.72 99.96H229.23V107.37H236.72V99.96Z" fill="#E7DACE"/>
<path d="M221.83 181.94H214.34V189.35H221.83V181.94Z" fill="#E7DACE"/>
<path d="M229.23 189.35H221.82V196.84H229.23V189.35Z" fill="#E7DACE"/>
<path d="M229.23 174.45H221.82V181.94H229.23V174.45Z" fill="#E7DACE"/>
<path d="M221.83 196.84H214.34V204.33H221.83V196.84Z" fill="#E7DACE"/>
<path d="M221.83 189.35H214.34V196.84H221.83V189.35Z" fill="#E7DACE"/>
<path d="M229.23 181.94H221.82V189.35H229.23V181.94Z" fill="#E7DACE"/>
<path d="M169.64 226.63H162.15V234.12H169.64V226.63Z" fill="#544B56"/>
<path d="M162.15 219.22H154.74V226.63H162.15V219.22Z" fill="#544B56"/>
<path d="M162.15 211.74H154.74V219.23H162.15V211.74Z" fill="#544B56"/>
<path d="M154.74 211.74H147.25V219.23H154.74V211.74Z" fill="#544B56"/>
<path d="M154.74 219.22H147.25V226.63H154.74V219.22Z" fill="#544B56"/>
<path d="M274.01 316.1H266.52V323.59H274.01V316.1Z" fill="#544B56"/>
<path d="M266.521 308.62H259.041V316.1H266.521V308.62Z" fill="#544B56"/>
<path d="M244.131 293.72H236.721V301.2H244.131V293.72Z" fill="#544B56"/>
<path d="M259.031 316.1H251.621V323.59H259.031V316.1Z" fill="#544B56"/>
<path d="M259.031 308.62H251.621V316.1H259.031V308.62Z" fill="#544B56"/>
<path d="M259.031 301.2H251.621V308.62H259.031V301.2Z" fill="#544B56"/>
<path d="M259.031 293.72H251.621V301.2H259.031V293.72Z" fill="#544B56"/>
<path d="M251.621 316.1H244.131V323.59H251.621V316.1Z" fill="#544B56"/>
<path d="M251.621 301.2H244.131V308.62H251.621V301.2Z" fill="#544B56"/>
<path d="M251.621 308.62H244.131V316.1H251.621V308.62Z" fill="#544B56"/>
<path d="M251.621 293.72H244.131V301.2H251.621V293.72Z" fill="#544B56"/>
<path d="M244.131 278.82H236.721V286.31H244.131V278.82Z" fill="#544B56"/>
<path d="M251.621 278.82H244.131V286.31H251.621V278.82Z" fill="#544B56"/>
<path d="M236.72 271.41H229.23V278.82H236.72V271.41Z" fill="#544B56"/>
<path d="M236.72 263.92H229.23V271.41H236.72V263.92Z" fill="#544B56"/>
<path d="M244.131 263.92H236.721V271.41H244.131V263.92Z" fill="#544B56"/>
<path d="M244.131 271.41H236.721V278.82H244.131V271.41Z" fill="#544B56"/>
<path d="M244.131 256.44H236.721V263.92H244.131V256.44Z" fill="#544B56"/>
<path d="M251.621 263.92H244.131V271.41H251.621V263.92Z" fill="#544B56"/>
<path d="M251.621 271.41H244.131V278.82H251.621V271.41Z" fill="#544B56"/>
<path d="M259.031 271.41H251.621V278.82H259.031V271.41Z" fill="#544B56"/>
<path d="M199.439 301.2H191.949V308.62H199.439V301.2Z" fill="#544B56"/>
<path d="M199.439 308.62H191.949V316.1H199.439V308.62Z" fill="#544B56"/>
<path d="M199.439 316.1H191.949V323.59H199.439V316.1Z" fill="#544B56"/>
<path d="M199.439 293.72H191.949V301.2H199.439V293.72Z" fill="#544B56"/>
<path d="M191.951 293.72H184.541V301.2H191.951V293.72Z" fill="#544B56"/>
<path d="M191.951 316.1H184.541V323.59H191.951V316.1Z" fill="#544B56"/>
<path d="M184.541 316.1H177.051V323.59H184.541V316.1Z" fill="#544B56"/>
<path d="M206.929 286.3H199.439V293.71H206.929V286.3Z" fill="#544B56"/>
<path d="M206.929 301.2H199.439V308.62H206.929V301.2Z" fill="#544B56"/>
<path d="M206.929 316.1H199.439V323.59H206.929V316.1Z" fill="#544B56"/>
<path d="M206.929 308.62H199.439V316.1H206.929V308.62Z" fill="#544B56"/>
<path d="M206.929 293.72H199.439V301.2H206.929V293.72Z" fill="#544B56"/>
<path d="M311.221 234.12H303.801V241.53H311.221V234.12Z" fill="black"/>
<path d="M311.221 226.63H303.801V234.12H311.221V226.63Z" fill="black"/>
<path d="M311.221 219.22H303.801V226.63H311.221V219.22Z" fill="black"/>
<path d="M311.221 211.74H303.801V219.23H311.221V211.74Z" fill="black"/>
<path d="M311.221 204.33H303.801V211.74H311.221V204.33Z" fill="black"/>
<path d="M311.221 196.84H303.801V204.33H311.221V196.84Z" fill="black"/>
<path d="M311.221 189.35H303.801V196.84H311.221V189.35Z" fill="black"/>
<path d="M311.221 181.94H303.801V189.35H311.221V181.94Z" fill="black"/>
<path d="M311.221 174.45H303.801V181.94H311.221V174.45Z" fill="black"/>
<path d="M303.8 241.53H296.32V249.02H303.8V241.53Z" fill="black"/>
<path d="M303.8 234.12H296.32V241.53H303.8V234.12Z" fill="#544B56"/>
<path d="M303.8 226.63H296.32V234.12H303.8V226.63Z" fill="#544B56"/>
<path d="M303.8 219.22H296.32V226.63H303.8V219.22Z" fill="#544B56"/>
<path d="M303.8 211.74H296.32V219.23H303.8V211.74Z" fill="#544B56"/>
<path d="M303.8 204.33H296.32V211.74H303.8V204.33Z" fill="#544B56"/>
<path d="M303.8 196.84H296.32V204.33H303.8V196.84Z" fill="#544B56"/>
<path d="M303.8 189.35H296.32V196.84H303.8V189.35Z" fill="#544B56"/>
<path d="M303.8 181.94H296.32V189.35H303.8V181.94Z" fill="#544B56"/>
<path d="M303.8 174.45H296.32V181.94H303.8V174.45Z" fill="#544B56"/>
<path d="M303.8 167.04H296.32V174.45H303.8V167.04Z" fill="black"/>
<path d="M296.32 249.02H288.91V256.43H296.32V249.02Z" fill="black"/>
<path d="M296.32 241.53H288.91V249.02H296.32V241.53Z" fill="#544B56"/>
<path d="M296.32 234.12H288.91V241.53H296.32V234.12Z" fill="#89031A"/>
<path d="M296.32 226.63H288.91V234.12H296.32V226.63Z" fill="#89031A"/>
<path d="M296.32 219.22H288.91V226.63H296.32V219.22Z" fill="#89031A"/>
<path d="M296.32 211.74H288.91V219.23H296.32V211.74Z" fill="#89031A"/>
<path d="M296.32 204.33H288.91V211.74H296.32V204.33Z" fill="#89031A"/>
<path d="M296.32 196.84H288.91V204.33H296.32V196.84Z" fill="#89031A"/>
<path d="M296.32 189.35H288.91V196.84H296.32V189.35Z" fill="#89031A"/>
<path d="M296.32 181.94H288.91V189.35H296.32V181.94Z" fill="#89031A"/>
<path d="M296.32 174.45H288.91V181.94H296.32V174.45Z" fill="#544B56"/>
<path d="M296.32 167.04H288.91V174.45H296.32V167.04Z" fill="black"/>
<path d="M288.91 256.44H281.42V263.92H288.91V256.44Z" fill="black"/>
<path d="M288.91 249.02H281.42V256.43H288.91V249.02Z" fill="#544B56"/>
<path d="M288.91 241.53H281.42V249.02H288.91V241.53Z" fill="#89031A"/>
<path d="M288.91 234.12H281.42V241.53H288.91V234.12Z" fill="#89031A"/>
<path d="M288.91 226.63H281.42V234.12H288.91V226.63Z" fill="#89031A"/>
<path d="M288.91 219.22H281.42V226.63H288.91V219.22Z" fill="#89031A"/>
<path d="M288.91 211.74H281.42V219.23H288.91V211.74Z" fill="#89031A"/>
<path d="M288.91 204.33H281.42V211.74H288.91V204.33Z" fill="#89031A"/>
<path d="M288.91 196.84H281.42V204.33H288.91V196.84Z" fill="#89031A"/>
<path d="M288.91 189.35H281.42V196.84H288.91V189.35Z" fill="#89031A"/>
<path d="M288.91 181.94H281.42V189.35H288.91V181.94Z" fill="#544B56"/>
<path d="M288.91 174.45H281.42V181.94H288.91V174.45Z" fill="black"/>
<path d="M281.42 316.1H274.01V323.59H281.42V316.1Z" fill="black"/>
<path d="M281.42 263.92H274.01V271.41H281.42V263.92Z" fill="black"/>
<path d="M281.42 256.44H274.01V263.92H281.42V256.44Z" fill="#544B56"/>
<path d="M281.42 249.02H274.01V256.43H281.42V249.02Z" fill="#89031A"/>
<path d="M281.42 241.53H274.01V249.02H281.42V241.53Z" fill="#89031A"/>
<path d="M281.42 234.12H274.01V241.53H281.42V234.12Z" fill="#89031A"/>
<path d="M281.42 226.63H274.01V234.12H281.42V226.63Z" fill="#89031A"/>
<path d="M281.42 219.22H274.01V226.63H281.42V219.22Z" fill="#89031A"/>
<path d="M281.42 211.74H274.01V219.23H281.42V211.74Z" fill="#89031A"/>
<path d="M281.42 204.33H274.01V211.74H281.42V204.33Z" fill="#89031A"/>
<path d="M281.42 196.84H274.01V204.33H281.42V196.84Z" fill="#89031A"/>
<path d="M281.42 189.35H274.01V196.84H281.42V189.35Z" fill="#89031A"/>
<path d="M281.42 181.94H274.01V189.35H281.42V181.94Z" fill="#544B56"/>
<path d="M281.42 174.45H274.01V181.94H281.42V174.45Z" fill="black"/>
<path d="M274.01 308.62H266.52V316.1H274.01V308.62Z" fill="black"/>
<path d="M274.01 286.3H266.52V293.71H274.01V286.3Z" fill="black"/>
<path d="M274.01 263.92H266.52V271.41H274.01V263.92Z" fill="black"/>
<path d="M274.01 256.44H266.52V263.92H274.01V256.44Z" fill="#9087B5"/>
<path d="M274.01 249.02H266.52V256.43H274.01V249.02Z" fill="#544B56"/>
<path d="M274.01 241.53H266.52V249.02H274.01V241.53Z" fill="#A30417"/>
<path d="M274.01 234.12H266.52V241.53H274.01V234.12Z" fill="#A30417"/>
<path d="M274.01 226.63H266.52V234.12H274.01V226.63Z" fill="#A30417"/>
<path d="M274.01 219.22H266.52V226.63H274.01V219.22Z" fill="#A30417"/>
<path d="M274.01 211.74H266.52V219.23H274.01V211.74Z" fill="#EF0012"/>
<path d="M274.01 204.33H266.52V211.74H274.01V204.33Z" fill="#EF0012"/>
<path d="M274.01 196.84H266.52V204.33H274.01V196.84Z" fill="#EF0012"/>
<path d="M274.01 189.35H266.52V196.84H274.01V189.35Z" fill="#EF0012"/>
<path d="M274.01 181.94H266.52V189.35H274.01V181.94Z" fill="#9087B5"/>
<path d="M274.01 174.45H266.52V181.94H274.01V174.45Z" fill="black"/>
<path d="M274.01 167.04H266.52V174.45H274.01V167.04Z" fill="black"/>
<path d="M266.521 301.2H259.041V308.62H266.521V301.2Z" fill="black"/>
<path d="M266.521 293.72H259.041V301.2H266.521V293.72Z" fill="black"/>
<path d="M266.521 286.3H259.041V293.71H266.521V286.3Z" fill="#9087B5"/>
<path d="M266.521 278.82H259.041V286.31H266.521V278.82Z" fill="black"/>
<path d="M266.521 271.41H259.041V278.82H266.521V271.41Z" fill="black"/>
<path d="M266.521 263.92H259.041V271.41H266.521V263.92Z" fill="black"/>
<path d="M266.521 256.44H259.041V263.92H266.521V256.44Z" fill="black"/>
<path d="M266.521 249.02H259.041V256.43H266.521V249.02Z" fill="#9087B5"/>
<path d="M266.521 241.53H259.041V249.02H266.521V241.53Z" fill="#544B56"/>
<path d="M266.521 234.12H259.041V241.53H266.521V234.12Z" fill="#A30417"/>
<path d="M266.521 226.63H259.041V234.12H266.521V226.63Z" fill="#A30417"/>
<path d="M266.521 219.22H259.041V226.63H266.521V219.22Z" fill="#A30417"/>
<path d="M266.521 211.74H259.041V219.23H266.521V211.74Z" fill="#A30417"/>
<path d="M266.521 204.33H259.041V211.74H266.521V204.33Z" fill="#EF0012"/>
<path d="M266.521 196.84H259.041V204.33H266.521V196.84Z" fill="#EF0012"/>
<path d="M266.521 189.35H259.041V196.84H266.521V189.35Z" fill="#EF0012"/>
<path d="M266.521 174.45H259.041V181.94H266.521V174.45Z" fill="black"/>
<path d="M266.521 167.04H259.041V174.45H266.521V167.04Z" fill="#9087B5"/>
<path d="M266.521 159.55H259.041V167.04H266.521V159.55Z" fill="black"/>
<path d="M266.521 137.17H259.041V144.66H266.521V137.17Z" fill="black"/>
<path d="M266.521 129.76H259.041V137.17H266.521V129.76Z" fill="black"/>
<path d="M266.521 122.27H259.041V129.76H266.521V122.27Z" fill="black"/>
<path d="M259.031 278.82H251.621V286.31H259.031V278.82Z" fill="black"/>
<path d="M259.031 263.92H251.621V271.41H259.031V263.92Z" fill="black"/>
<path d="M259.031 256.44H251.621V263.92H259.031V256.44Z" fill="black"/>
<path d="M259.031 249.02H251.621V256.43H259.031V249.02Z" fill="black"/>
<path d="M259.031 241.53H251.621V249.02H259.031V241.53Z" fill="#9087B5"/>
<path d="M259.031 234.12H251.621V241.53H259.031V234.12Z" fill="#A30417"/>
<path d="M259.031 226.63H251.621V234.12H259.031V226.63Z" fill="#A30417"/>
<path d="M259.031 219.22H251.621V226.63H259.031V219.22Z" fill="#A30417"/>
<path d="M259.031 211.74H251.621V219.23H259.031V211.74Z" fill="#A30417"/>
<path d="M259.031 204.33H251.621V211.74H259.031V204.33Z" fill="#A30417"/>
<path d="M259.031 196.84H251.621V204.33H259.031V196.84Z" fill="#EF0012"/>
<path d="M259.031 189.35H251.621V196.84H259.031V189.35Z" fill="#EF0012"/>
<path d="M259.031 174.45H251.621V181.94H259.031V174.45Z" fill="black"/>
<path d="M259.031 159.55H251.621V167.04H259.031V159.55Z" fill="black"/>
<path d="M259.031 144.65H251.621V152.14H259.031V144.65Z" fill="black"/>
<path d="M259.031 137.17H251.621V144.66H259.031V137.17Z" fill="#544B56"/>
<path d="M259.031 129.76H251.621V137.17H259.031V129.76Z" fill="black"/>
<path d="M259.031 122.27H251.621V129.76H259.031V122.27Z" fill="#544B56"/>
<path d="M259.031 114.86H251.621V122.27H259.031V114.86Z" fill="black"/>
<path d="M259.031 107.37H251.621V114.86H259.031V107.37Z" fill="black"/>
<path d="M251.621 256.44H244.131V263.92H251.621V256.44Z" fill="black"/>
<path d="M251.621 249.02H244.131V256.43H251.621V249.02Z" fill="black"/>
<path d="M251.621 241.53H244.131V249.02H251.621V241.53Z" fill="black"/>
<path d="M251.621 234.12H244.131V241.53H251.621V234.12Z" fill="#9087B5"/>
<path d="M251.621 226.63H244.131V234.12H251.621V226.63Z" fill="#9087B5"/>
<path d="M251.621 219.22H244.131V226.63H251.621V219.22Z" fill="#9087B5"/>
<path d="M251.621 211.74H244.131V219.23H251.621V211.74Z" fill="#9087B5"/>
<path d="M251.621 174.45H244.131V181.94H251.621V174.45Z" fill="black"/>
<path d="M251.621 159.55H244.131V167.04H251.621V159.55Z" fill="black"/>
<path d="M251.621 152.14H244.131V159.55H251.621V152.14Z" fill="black"/>
<path d="M251.621 144.65H244.131V152.14H251.621V144.65Z" fill="#544B56"/>
<path d="M251.621 137.17H244.131V144.66H251.621V137.17Z" fill="#544B56"/>
<path d="M251.621 129.76H244.131V137.17H251.621V129.76Z" fill="black"/>
<path d="M251.621 122.27H244.131V129.76H251.621V122.27Z" fill="#9087B5"/>
<path d="M251.621 114.86H244.131V122.27H251.621V114.86Z" fill="#544B56"/>
<path d="M251.621 107.37H244.131V114.86H251.621V107.37Z" fill="#9087B5"/>
<path d="M251.621 99.96H244.131V107.37H251.621V99.96Z" fill="black"/>
<path d="M244.131 316.1H236.721V323.59H244.131V316.1Z" fill="black"/>
<path d="M244.131 308.62H236.721V316.1H244.131V308.62Z" fill="black"/>
<path d="M244.131 301.2H236.721V308.62H244.131V301.2Z" fill="black"/>
<path d="M244.131 286.3H236.721V293.71H244.131V286.3Z" fill="#9087B5"/>
<path d="M244.131 249.02H236.721V256.43H244.131V249.02Z" fill="black"/>
<path d="M244.131 241.53H236.721V249.02H244.131V241.53Z" fill="black"/>
<path d="M244.131 234.12H236.721V241.53H244.131V234.12Z" fill="black"/>
<path d="M244.131 226.63H236.721V234.12H244.131V226.63Z" fill="black"/>
<path d="M244.131 219.22H236.721V226.63H244.131V219.22Z" fill="black"/>
<path d="M244.131 211.74H236.721V219.23H244.131V211.74Z" fill="black"/>
<path d="M244.131 204.33H236.721V211.74H244.131V204.33Z" fill="black"/>
<path d="M244.131 196.84H236.721V204.33H244.131V196.84Z" fill="black"/>
<path d="M244.131 189.35H236.721V196.84H244.131V189.35Z" fill="black"/>
<path d="M244.131 181.94H236.721V189.35H244.131V181.94Z" fill="black"/>
<path d="M244.131 174.45H236.721V181.94H244.131V174.45Z" fill="black"/>
<path d="M244.131 167.04H236.721V174.45H244.131V167.04Z" fill="#9087B5"/>
<path d="M244.131 159.55H236.721V167.04H244.131V159.55Z" fill="black"/>
<path d="M244.131 129.76H236.721V137.17H244.131V129.76Z" fill="black"/>
<path d="M244.131 122.27H236.721V129.76H244.131V122.27Z" fill="#9087B5"/>
<path d="M244.131 114.86H236.721V122.27H244.131V114.86Z" fill="#9087B5"/>
<path d="M244.131 107.37H236.721V114.86H244.131V107.37Z" fill="#544B56"/>
<path d="M244.131 99.96H236.721V107.37H244.131V99.96Z" fill="#9087B5"/>
<path d="M244.131 92.47H236.721V99.96H244.131V92.47Z" fill="black"/>
<path d="M236.72 293.72H229.23V301.2H236.72V293.72Z" fill="black"/>
<path d="M236.72 286.3H229.23V293.71H236.72V286.3Z" fill="black"/>
<path d="M236.72 278.82H229.23V286.31H236.72V278.82Z" fill="black"/>
<path d="M236.72 256.44H229.23V263.92H236.72V256.44Z" fill="black"/>
<path d="M236.72 249.02H229.23V256.43H236.72V249.02Z" fill="black"/>
<path d="M236.72 241.53H229.23V249.02H236.72V241.53Z" fill="black"/>
<path d="M236.72 234.12H229.23V241.53H236.72V234.12Z" fill="black"/>
<path d="M236.72 226.63H229.23V234.12H236.72V226.63Z" fill="black"/>
<path d="M236.72 219.22H229.23V226.63H236.72V219.22Z" fill="black"/>
<path d="M236.72 211.74H229.23V219.23H236.72V211.74Z" fill="#544B56"/>
<path d="M236.72 204.33H229.23V211.74H236.72V204.33Z" fill="#9087B5"/>
<path d="M236.72 196.84H229.23V204.33H236.72V196.84Z" fill="#9087B5"/>
<path d="M236.72 189.35H229.23V196.84H236.72V189.35Z" fill="#9087B5"/>
<path d="M236.72 181.94H229.23V189.35H236.72V181.94Z" fill="#9087B5"/>
<path d="M236.72 174.45H229.23V181.94H236.72V174.45Z" fill="#9087B5"/>
<path d="M236.72 129.76H229.23V137.17H236.72V129.76Z" fill="black"/>
<path d="M236.72 122.27H229.23V129.76H236.72V122.27Z" fill="#9087B5"/>
<path d="M236.72 114.86H229.23V122.27H236.72V114.86Z" fill="#9087B5"/>
<path d="M236.72 107.37H229.23V114.86H236.72V107.37Z" fill="#544B56"/>
<path d="M236.72 92.47H229.23V99.96H236.72V92.47Z" fill="black"/>
<path d="M229.23 271.41H221.82V278.82H229.23V271.41Z" fill="black"/>
<path d="M229.23 263.92H221.82V271.41H229.23V263.92Z" fill="black"/>
<path d="M229.23 256.44H221.82V263.92H229.23V256.44Z" fill="#544B56"/>
<path d="M229.23 249.02H221.82V256.43H229.23V249.02Z" fill="#9087B5"/>
<path d="M229.23 241.53H221.82V249.02H229.23V241.53Z" fill="#9087B5"/>
<path d="M229.23 234.12H221.82V241.53H229.23V234.12Z" fill="#9087B5"/>
<path d="M229.23 226.63H221.82V234.12H229.23V226.63Z" fill="black"/>
<path d="M229.23 219.22H221.82V226.63H229.23V219.22Z" fill="#544B56"/>
<path d="M229.23 211.74H221.82V219.23H229.23V211.74Z" fill="#9087B5"/>
<path d="M229.23 204.33H221.82V211.74H229.23V204.33Z" fill="#9087B5"/>
<path d="M229.23 196.84H221.82V204.33H229.23V196.84Z" fill="#9087B5"/>
<path d="M229.23 129.76H221.82V137.17H229.23V129.76Z" fill="black"/>
<path d="M229.23 122.27H221.82V129.76H229.23V122.27Z" fill="#9087B5"/>
<path d="M229.23 114.86H221.82V122.27H229.23V114.86Z" fill="#9087B5"/>
<path d="M229.23 107.37H221.82V114.86H229.23V107.37Z" fill="#544B56"/>
<path d="M229.23 92.47H221.82V99.96H229.23V92.47Z" fill="black"/>
<path d="M221.83 271.41H214.34V278.82H221.83V271.41Z" fill="black"/>
<path d="M221.83 263.92H214.34V271.41H221.83V263.92Z" fill="black"/>
<path d="M221.83 256.44H214.34V263.92H221.83V256.44Z" fill="#9087B5"/>
<path d="M221.83 249.02H214.34V256.43H221.83V249.02Z" fill="#9087B5"/>
<path d="M221.83 241.53H214.34V249.02H221.83V241.53Z" fill="#9087B5"/>
<path d="M221.83 226.63H214.34V234.12H221.83V226.63Z" fill="#544B56"/>
<path d="M221.83 219.22H214.34V226.63H221.83V219.22Z" fill="#9087B5"/>
<path d="M221.83 211.74H214.34V219.23H221.83V211.74Z" fill="#9087B5"/>
<path d="M221.83 204.33H214.34V211.74H221.83V204.33Z" fill="#9087B5"/>
<path d="M221.83 174.45H214.34V181.94H221.83V174.45Z" fill="#9087B5"/>
<path d="M221.83 129.76H214.34V137.17H221.83V129.76Z" fill="black"/>
<path d="M221.83 122.27H214.34V129.76H221.83V122.27Z" fill="#9087B5"/>
<path d="M221.83 114.86H214.34V122.27H221.83V114.86Z" fill="#9087B5"/>
<path d="M221.83 92.47H214.34V99.96H221.83V92.47Z" fill="black"/>
<path d="M214.34 316.1H206.93V323.59H214.34V316.1Z" fill="black"/>
<path d="M214.34 308.62H206.93V316.1H214.34V308.62Z" fill="black"/>
<path d="M214.34 301.2H206.93V308.62H214.34V301.2Z" fill="black"/>
<path d="M214.34 293.72H206.93V301.2H214.34V293.72Z" fill="black"/>
<path d="M214.34 286.3H206.93V293.71H214.34V286.3Z" fill="black"/>
<path d="M214.34 278.82H206.93V286.31H214.34V278.82Z" fill="black"/>
<path d="M214.34 271.41H206.93V278.82H214.34V271.41Z" fill="#544B56"/>
<path d="M214.34 263.92H206.93V271.41H214.34V263.92Z" fill="black"/>
<path d="M214.34 256.44H206.93V263.92H214.34V256.44Z" fill="#544B56"/>
<path d="M214.34 249.02H206.93V256.43H214.34V249.02Z" fill="#544B56"/>
<path d="M214.34 241.53H206.93V249.02H214.34V241.53Z" fill="#544B56"/>
<path d="M214.34 234.12H206.93V241.53H214.34V234.12Z" fill="#544B56"/>
<path d="M214.34 226.63H206.93V234.12H214.34V226.63Z" fill="#544B56"/>
<path d="M214.34 219.22H206.93V226.63H214.34V219.22Z" fill="#544B56"/>
<path d="M214.34 211.74H206.93V219.23H214.34V211.74Z" fill="#544B56"/>
<path d="M214.34 204.33H206.93V211.74H214.34V204.33Z" fill="#544B56"/>
<path d="M214.34 196.84H206.93V204.33H214.34V196.84Z" fill="#544B56"/>
<path d="M214.34 189.35H206.93V196.84H214.34V189.35Z" fill="#9087B5"/>
<path d="M214.34 181.94H206.93V189.35H214.34V181.94Z" fill="#9087B5"/>
<path d="M214.34 174.45H206.93V181.94H214.34V174.45Z" fill="#9087B5"/>
<path d="M214.34 159.55H206.93V167.04H214.34V159.55Z" fill="black"/>
<path d="M214.34 129.76H206.93V137.17H214.34V129.76Z" fill="black"/>
<path d="M214.34 122.27H206.93V129.76H214.34V122.27Z" fill="#544B56"/>
<path d="M214.34 114.86H206.93V122.27H214.34V114.86Z" fill="#544B56"/>
<path d="M214.34 99.96H206.93V107.37H214.34V99.96Z" fill="#9087B5"/>
<path d="M214.34 92.47H206.93V99.96H214.34V92.47Z" fill="black"/>
<path d="M206.929 278.82H199.439V286.31H206.929V278.82Z" fill="black"/>
<path d="M206.929 271.41H199.439V278.82H206.929V271.41Z" fill="#544B56"/>
<path d="M206.929 263.92H199.439V271.41H206.929V263.92Z" fill="#544B56"/>
<path d="M206.929 256.44H199.439V263.92H206.929V256.44Z" fill="black"/>
<path d="M206.929 249.02H199.439V256.43H206.929V249.02Z" fill="black"/>
<path d="M206.929 241.53H199.439V249.02H206.929V241.53Z" fill="black"/>
<path d="M206.929 234.12H199.439V241.53H206.929V234.12Z" fill="black"/>
<path d="M206.929 226.63H199.439V234.12H206.929V226.63Z" fill="black"/>
<path d="M206.929 219.22H199.439V226.63H206.929V219.22Z" fill="black"/>
<path d="M206.929 211.74H199.439V219.23H206.929V211.74Z" fill="#544B56"/>
<path d="M206.929 204.33H199.439V211.74H206.929V204.33Z" fill="#544B56"/>
<path d="M206.929 196.84H199.439V204.33H206.929V196.84Z" fill="#544B56"/>
<path d="M206.929 189.35H199.439V196.84H206.929V189.35Z" fill="#9087B5"/>
<path d="M206.929 181.94H199.439V189.35H206.929V181.94Z" fill="#9087B5"/>
<path d="M206.929 174.45H199.439V181.94H206.929V174.45Z" fill="#544B56"/>
<path d="M206.929 167.04H199.439V174.45H206.929V167.04Z" fill="#544B56"/>
<path d="M206.929 159.55H199.439V167.04H206.929V159.55Z" fill="black"/>
<path d="M206.929 152.14H199.439V159.55H206.929V152.14Z" fill="black"/>
<path d="M206.929 144.65H199.439V152.14H206.929V144.65Z" fill="#544B56"/>
<path d="M206.929 137.17H199.439V144.66H206.929V137.17Z" fill="#544B56"/>
<path d="M206.929 129.76H199.439V137.17H206.929V129.76Z" fill="black"/>
<path d="M206.929 122.27H199.439V129.76H206.929V122.27Z" fill="#544B56"/>
<path d="M206.929 114.86H199.439V122.27H206.929V114.86Z" fill="#544B56"/>
<path d="M206.929 107.37H199.439V114.86H206.929V107.37Z" fill="black"/>
<path d="M206.929 99.96H199.439V107.37H206.929V99.96Z" fill="black"/>
<path d="M199.439 286.3H191.949V293.71H199.439V286.3Z" fill="#9087B5"/>
<path d="M199.439 278.82H191.949V286.31H199.439V278.82Z" fill="#544B56"/>
<path d="M199.439 271.41H191.949V278.82H199.439V271.41Z" fill="#544B56"/>
<path d="M199.439 263.92H191.949V271.41H199.439V263.92Z" fill="#544B56"/>
<path d="M199.439 256.44H191.949V263.92H199.439V256.44Z" fill="#544B56"/>
<path d="M199.439 249.02H191.949V256.43H199.439V249.02Z" fill="black"/>
<path d="M199.439 241.53H191.949V249.02H199.439V241.53Z" fill="#9087B5"/>
<path d="M199.439 234.12H191.949V241.53H199.439V234.12Z" fill="#9087B5"/>
<path d="M199.439 226.63H191.949V234.12H199.439V226.63Z" fill="black"/>
<path d="M199.439 219.22H191.949V226.63H199.439V219.22Z" fill="black"/>
<path d="M199.439 211.74H191.949V219.23H199.439V211.74Z" fill="black"/>
<path d="M199.439 204.33H191.949V211.74H199.439V204.33Z" fill="#544B56"/>
<path d="M199.439 196.84H191.949V204.33H199.439V196.84Z" fill="#544B56"/>
<path d="M199.439 189.35H191.949V196.84H199.439V189.35Z" fill="black"/>
<path d="M199.439 181.94H191.949V189.35H199.439V181.94Z" fill="black"/>
<path d="M199.439 174.45H191.949V181.94H199.439V174.45Z" fill="#544B56"/>
<path d="M199.439 167.04H191.949V174.45H199.439V167.04Z" fill="#9087B5"/>
<path d="M199.439 159.55H191.949V167.04H199.439V159.55Z" fill="black"/>
<path d="M199.439 144.65H191.949V152.14H199.439V144.65Z" fill="black"/>
<path d="M199.439 137.17H191.949V144.66H199.439V137.17Z" fill="black"/>
<path d="M199.439 129.76H191.949V137.17H199.439V129.76Z" fill="black"/>
<path d="M199.439 122.27H191.949V129.76H199.439V122.27Z" fill="#9087B5"/>
<path d="M199.439 114.86H191.949V122.27H199.439V114.86Z" fill="#9087B5"/>
<path d="M199.439 107.37H191.949V114.86H199.439V107.37Z" fill="black"/>
<path d="M191.951 308.62H184.541V316.1H191.951V308.62Z" fill="black"/>
<path d="M191.951 301.2H184.541V308.62H191.951V301.2Z" fill="black"/>
<path d="M191.951 278.82H184.541V286.31H191.951V278.82Z" fill="#544B56"/>
<path d="M191.951 271.41H184.541V278.82H191.951V271.41Z" fill="#544B56"/>
<path d="M191.951 263.92H184.541V271.41H191.951V263.92Z" fill="#544B56"/>
<path d="M191.951 256.44H184.541V263.92H191.951V256.44Z" fill="black"/>
<path d="M191.951 249.02H184.541V256.43H191.951V249.02Z" fill="#9087B5"/>
<path d="M191.951 241.53H184.541V249.02H191.951V241.53Z" fill="#9087B5"/>
<path d="M191.951 234.12H184.541V241.53H191.951V234.12Z" fill="#544B56"/>
<path d="M191.951 226.63H184.541V234.12H191.951V226.63Z" fill="black"/>
<path d="M191.951 219.22H184.541V226.63H191.951V219.22Z" fill="black"/>
<path d="M191.951 211.74H184.541V219.23H191.951V211.74Z" fill="black"/>
<path d="M191.951 204.33H184.541V211.74H191.951V204.33Z" fill="black"/>
<path d="M191.951 196.84H184.541V204.33H191.951V196.84Z" fill="black"/>
<path d="M191.951 189.35H184.541V196.84H191.951V189.35Z" fill="#544B56"/>
<path d="M191.951 181.94H184.541V189.35H191.951V181.94Z" fill="#544B56"/>
<path d="M191.951 174.45H184.541V181.94H191.951V174.45Z" fill="#9087B5"/>
<path d="M191.951 167.04H184.541V174.45H191.951V167.04Z" fill="#9087B5"/>
<path d="M191.951 159.55H184.541V167.04H191.951V159.55Z" fill="black"/>
<path d="M191.951 129.76H184.541V137.17H191.951V129.76Z" fill="black"/>
<path d="M191.951 122.27H184.541V129.76H191.951V122.27Z" fill="black"/>
<path d="M191.951 114.86H184.541V122.27H191.951V114.86Z" fill="black"/>
<path d="M184.541 308.62H177.051V316.1H184.541V308.62Z" fill="black"/>
<path d="M184.541 293.72H177.051V301.2H184.541V293.72Z" fill="black"/>
<path d="M184.541 286.3H177.051V293.71H184.541V286.3Z" fill="#9087B5"/>
<path d="M184.541 278.82H177.051V286.31H184.541V278.82Z" fill="black"/>
<path d="M184.541 271.41H177.051V278.82H184.541V271.41Z" fill="black"/>
<path d="M184.541 263.92H177.051V271.41H184.541V263.92Z" fill="black"/>
<path d="M184.541 256.44H177.051V263.92H184.541V256.44Z" fill="black"/>
<path d="M184.541 249.02H177.051V256.43H184.541V249.02Z" fill="black"/>
<path d="M184.541 241.53H177.051V249.02H184.541V241.53Z" fill="black"/>
<path d="M184.541 234.12H177.051V241.53H184.541V234.12Z" fill="black"/>
<path d="M184.541 226.63H177.051V234.12H184.541V226.63Z" fill="black"/>
<path d="M184.541 196.84H177.051V204.33H184.541V196.84Z" fill="black"/>
<path d="M184.541 189.35H177.051V196.84H184.541V189.35Z" fill="#544B56"/>
<path d="M184.541 181.94H177.051V189.35H184.541V181.94Z" fill="#9087B5"/>
<path d="M184.541 174.45H177.051V181.94H184.541V174.45Z" fill="#9087B5"/>
<path d="M184.541 167.04H177.051V174.45H184.541V167.04Z" fill="black"/>
<path d="M177.051 316.1H169.641V323.59H177.051V316.1Z" fill="black"/>
<path d="M177.051 286.3H169.641V293.71H177.051V286.3Z" fill="black"/>
<path d="M177.051 226.63H169.641V234.12H177.051V226.63Z" fill="black"/>
<path d="M177.051 196.84H169.641V204.33H177.051V196.84Z" fill="black"/>
<path d="M177.051 189.35H169.641V196.84H177.051V189.35Z" fill="black"/>
<path d="M177.051 181.94H169.641V189.35H177.051V181.94Z" fill="black"/>
<path d="M177.051 174.45H169.641V181.94H177.051V174.45Z" fill="black"/>
<path d="M169.64 234.12H162.15V241.53H169.64V234.12Z" fill="black"/>
<path d="M169.64 196.84H162.15V204.33H169.64V196.84Z" fill="black"/>
<path d="M162.15 226.63H154.74V234.12H162.15V226.63Z" fill="black"/>
<path d="M162.15 204.33H154.74V211.74H162.15V204.33Z" fill="black"/>
<path d="M154.74 249.02H147.25V256.43H154.74V249.02Z" fill="black"/>
<path d="M154.74 241.53H147.25V249.02H154.74V241.53Z" fill="black"/>
<path d="M154.74 234.12H147.25V241.53H154.74V234.12Z" fill="black"/>
<path d="M154.74 226.63H147.25V234.12H154.74V226.63Z" fill="black"/>
<path d="M154.74 204.33H147.25V211.74H154.74V204.33Z" fill="black"/>
<path d="M154.74 196.84H147.25V204.33H154.74V196.84Z" fill="black"/>
<path d="M154.74 189.35H147.25V196.84H154.74V189.35Z" fill="black"/>
<path d="M147.26 249.02H139.77V256.43H147.26V249.02Z" fill="black"/>
<path d="M147.26 226.63H139.77V234.12H147.26V226.63Z" fill="black"/>
<path d="M147.26 196.84H139.77V204.33H147.26V196.84Z" fill="#9087B5"/>
<path d="M147.26 189.35H139.77V196.84H147.26V189.35Z" fill="#E7DACE"/>
<path d="M147.26 181.94H139.77V189.35H147.26V181.94Z" fill="black"/>
<path d="M139.769 249.02H132.359V256.43H139.769V249.02Z" fill="black"/>
<path d="M139.769 241.53H132.359V249.02H139.769V241.53Z" fill="black"/>
<path d="M139.769 234.12H132.359V241.53H139.769V234.12Z" fill="black"/>
<path d="M139.769 226.63H132.359V234.12H139.769V226.63Z" fill="black"/>
<path d="M139.769 196.84H132.359V204.33H139.769V196.84Z" fill="#9087B5"/>
<path d="M139.769 181.94H132.359V189.35H139.769V181.94Z" fill="black"/>
<path d="M139.769 174.45H132.359V181.94H139.769V174.45Z" fill="black"/>
<path d="M139.769 167.04H132.359V174.45H139.769V167.04Z" fill="black"/>
<path d="M132.361 226.63H124.871V234.12H132.361V226.63Z" fill="black"/>
<path d="M132.361 219.22H124.871V226.63H132.361V219.22Z" fill="black"/>
<path d="M132.361 211.74H124.871V219.23H132.361V211.74Z" fill="black"/>
<path d="M132.361 204.33H124.871V211.74H132.361V204.33Z" fill="#9087B5"/>
<path d="M132.361 196.84H124.871V204.33H132.361V196.84Z" fill="#544B56"/>
<path d="M132.361 189.35H124.871V196.84H132.361V189.35Z" fill="#E7DACE"/>
<path d="M132.361 181.94H124.871V189.35H132.361V181.94Z" fill="#E7DACE"/>
<path d="M132.361 174.45H124.871V181.94H132.361V174.45Z" fill="#E7DACE"/>
<path d="M132.361 167.04H124.871V174.45H132.361V167.04Z" fill="#E7DACE"/>
<path d="M132.361 159.55H124.871V167.04H132.361V159.55Z" fill="black"/>
<path d="M132.361 152.14H124.871V159.55H132.361V152.14Z" fill="black"/>
<path d="M132.361 144.65H124.871V152.14H132.361V144.65Z" fill="black"/>
<path d="M124.871 211.74H117.461V219.23H124.871V211.74Z" fill="black"/>
<path d="M124.871 204.33H117.461V211.74H124.871V204.33Z" fill="#9087B5"/>
<path d="M124.871 196.84H117.461V204.33H124.871V196.84Z" fill="#544B56"/>
<path d="M124.871 189.35H117.461V196.84H124.871V189.35Z" fill="#E7DACE"/>
<path d="M124.871 181.94H117.461V189.35H124.871V181.94Z" fill="#E7DACE"/>
<path d="M124.871 174.45H117.461V181.94H124.871V174.45Z" fill="#E7DACE"/>
<path d="M124.871 167.04H117.461V174.45H124.871V167.04Z" fill="#E7DACE"/>
<path d="M124.871 159.55H117.461V167.04H124.871V159.55Z" fill="#E7DACE"/>
<path d="M124.871 152.14H117.461V159.55H124.871V152.14Z" fill="#E7DACE"/>
<path d="M124.871 144.65H117.461V152.14H124.871V144.65Z" fill="#E7DACE"/>
<path d="M124.871 137.17H117.461V144.66H124.871V137.17Z" fill="black"/>
<path d="M124.871 129.76H117.461V137.17H124.871V129.76Z" fill="black"/>
<path d="M124.871 122.27H117.461V129.76H124.871V122.27Z" fill="black"/>
<path d="M117.461 211.74H109.971V219.23H117.461V211.74Z" fill="black"/>
<path d="M117.461 204.33H109.971V211.74H117.461V204.33Z" fill="#E7DACE"/>
<path d="M117.461 196.84H109.971V204.33H117.461V196.84Z" fill="black"/>
<path d="M117.461 189.35H109.971V196.84H117.461V189.35Z" fill="black"/>
<path d="M117.461 181.94H109.971V189.35H117.461V181.94Z" fill="black"/>
<path d="M117.461 174.45H109.971V181.94H117.461V174.45Z" fill="black"/>
<path d="M117.461 167.04H109.971V174.45H117.461V167.04Z" fill="#E7DACE"/>
<path d="M117.461 159.55H109.971V167.04H117.461V159.55Z" fill="#E7DACE"/>
<path d="M117.461 152.14H109.971V159.55H117.461V152.14Z" fill="#E7DACE"/>
<path d="M117.461 144.65H109.971V152.14H117.461V144.65Z" fill="#E7DACE"/>
<path d="M117.461 137.17H109.971V144.66H117.461V137.17Z" fill="#E7DACE"/>
<path d="M117.461 129.76H109.971V137.17H117.461V129.76Z" fill="#E7DACE"/>
<path d="M117.461 122.27H109.971V129.76H117.461V122.27Z" fill="#E7DACE"/>
<path d="M117.461 114.86H109.971V122.27H117.461V114.86Z" fill="black"/>
<path d="M117.461 107.37H109.971V114.86H117.461V107.37Z" fill="black"/>
<path d="M109.971 204.33H102.561V211.74H109.971V204.33Z" fill="black"/>
<path d="M109.971 167.04H102.561V174.45H109.971V167.04Z" fill="black"/>
<path d="M109.971 159.55H102.561V167.04H109.971V159.55Z" fill="black"/>
<path d="M109.971 152.14H102.561V159.55H109.971V152.14Z" fill="black"/>
<path d="M109.971 144.65H102.561V152.14H109.971V144.65Z" fill="#E7DACE"/>
<path d="M109.971 137.17H102.561V144.66H109.971V137.17Z" fill="#E7DACE"/>
<path d="M109.971 129.76H102.561V137.17H109.971V129.76Z" fill="#E7DACE"/>
<path d="M109.971 122.27H102.561V129.76H109.971V122.27Z" fill="#E7DACE"/>
<path d="M109.971 114.86H102.561V122.27H109.971V114.86Z" fill="#E7DACE"/>
<path d="M109.971 107.37H102.561V114.86H109.971V107.37Z" fill="#E7DACE"/>
<path d="M109.971 99.96H102.561V107.37H109.971V99.96Z" fill="black"/>
<path d="M102.56 144.65H95.0703V152.14H102.56V144.65Z" fill="black"/>
<path d="M102.56 137.17H95.0703V144.66H102.56V137.17Z" fill="black"/>
<path d="M102.56 129.76H95.0703V137.17H102.56V129.76Z" fill="black"/>
<path d="M102.56 122.27H95.0703V129.76H102.56V122.27Z" fill="#E7DACE"/>
<path d="M102.56 114.86H95.0703V122.27H102.56V114.86Z" fill="#E7DACE"/>
<path d="M102.56 107.37H95.0703V114.86H102.56V107.37Z" fill="#E7DACE"/>
<path d="M102.56 99.96H95.0703V107.37H102.56V99.96Z" fill="black"/>
<path d="M95.0702 122.27H87.6602V129.76H95.0702V122.27Z" fill="black"/>
<path d="M95.0702 114.86H87.6602V122.27H95.0702V114.86Z" fill="black"/>
<path d="M95.0702 107.37H87.6602V114.86H95.0702V107.37Z" fill="black"/>
</svg>
