<svg width="400" height="400" viewBox="0 0 400 400" fill="none" xmlns="http://www.w3.org/2000/svg">
<path d="M200.001 385.78C302.604 385.78 385.781 302.603 385.781 200C385.781 97.3965 302.604 14.22 200.001 14.22C97.3972 14.22 14.2207 97.3965 14.2207 200C14.2207 302.603 97.3972 385.78 200.001 385.78Z" fill="black"/>
<path d="M200.001 392.78C93.7007 392.78 7.2207 306.3 7.2207 200C7.2207 93.7 93.7007 7.21997 200.001 7.21997C306.301 7.21997 392.781 93.7 392.781 200C392.781 306.3 306.301 392.78 200.001 392.78ZM200.001 21.22C101.421 21.22 21.2207 101.42 21.2207 200C21.2207 298.58 101.421 378.78 200.001 378.78C298.581 378.78 378.781 298.58 378.781 200C378.781 101.42 298.581 21.22 200.001 21.22Z" fill="#24DCEA"/>
<path d="M285.36 133.679H278.42V140.689H285.36V133.679Z" fill="black"/>
<path d="M285.36 126.739H278.42V133.679H285.36V126.739Z" fill="black"/>
<path d="M278.42 133.679H271.41V140.689H278.42V133.679Z" fill="black"/>
<path d="M278.42 126.739H271.41V133.679H278.42V126.739Z" fill="#0404BF"/>
<path d="M278.42 119.729H271.41V126.739H278.42V119.729Z" fill="black"/>
<path d="M271.4 133.679H264.4V140.689H271.4V133.679Z" fill="black"/>
<path d="M271.4 126.739H264.4V133.679H271.4V126.739Z" fill="#0404BF"/>
<path d="M271.4 119.729H264.4V126.739H271.4V119.729Z" fill="black"/>
<path d="M264.399 315.179H257.459V322.129H264.399V315.179Z" fill="black"/>
<path d="M264.399 308.179H257.459V315.179H264.399V308.179Z" fill="black"/>
<path d="M264.399 301.239H257.459V308.179H264.399V301.239Z" fill="black"/>
<path d="M264.399 294.219H257.459V301.229H264.399V294.219Z" fill="black"/>
<path d="M264.399 287.279H257.459V294.219H264.399V287.279Z" fill="black"/>
<path d="M264.399 238.419H257.459V245.359H264.399V238.419Z" fill="black"/>
<path d="M264.399 231.409H257.459V238.419H264.399V231.409Z" fill="black"/>
<path d="M264.399 224.399H257.459V231.399H264.399V224.399Z" fill="black"/>
<path d="M264.399 217.459H257.459V224.399H264.399V217.459Z" fill="black"/>
<path d="M264.399 210.449H257.459V217.459H264.399V210.449Z" fill="black"/>
<path d="M264.399 203.509H257.459V210.449H264.399V203.509Z" fill="black"/>
<path d="M264.399 196.489H257.459V203.499H264.399V196.489Z" fill="black"/>
<path d="M264.399 189.549H257.459V196.489H264.399V189.549Z" fill="black"/>
<path d="M264.399 182.539H257.459V189.549H264.399V182.539Z" fill="black"/>
<path d="M264.399 175.599H257.459V182.539H264.399V175.599Z" fill="black"/>
<path d="M264.399 168.589H257.459V175.599H264.399V168.589Z" fill="black"/>
<path d="M264.399 133.679H257.459V140.689H264.399V133.679Z" fill="black"/>
<path d="M264.399 126.739H257.459V133.679H264.399V126.739Z" fill="#0404BF"/>
<path d="M264.399 119.729H257.459V126.739H264.399V119.729Z" fill="#0404BF"/>
<path d="M264.399 112.719H257.459V119.729H264.399V112.719Z" fill="black"/>
<path d="M257.459 315.179H250.449V322.129H257.459V315.179Z" fill="#030384"/>
<path d="M257.459 308.179H250.449V315.179H257.459V308.179Z" fill="#030384"/>
<path d="M257.459 301.239H250.449V308.179H257.459V301.239Z" fill="#030384"/>
<path d="M257.459 294.219H250.449V301.229H257.459V294.219Z" fill="#030384"/>
<path d="M257.459 287.279H250.449V294.219H257.459V287.279Z" fill="#030384"/>
<path d="M257.459 280.269H250.449V287.279H257.459V280.269Z" fill="black"/>
<path d="M257.459 273.269H250.449V280.269H257.459V273.269Z" fill="black"/>
<path d="M257.459 266.309H250.449V273.259H257.459V266.309Z" fill="black"/>
<path d="M257.459 259.319H250.449V266.319H257.459V259.319Z" fill="black"/>
<path d="M257.459 252.369H250.449V259.309H257.459V252.369Z" fill="black"/>
<path d="M257.459 245.359H250.449V252.369H257.459V245.359Z" fill="black"/>
<path d="M257.459 238.419H250.449V245.359H257.459V238.419Z" fill="#E5A070"/>
<path d="M257.459 231.409H250.449V238.419H257.459V231.409Z" fill="#0404BF"/>
<path d="M257.459 224.399H250.449V231.399H257.459V224.399Z" fill="#0404BF"/>
<path d="M257.459 217.459H250.449V224.399H257.459V217.459Z" fill="#0404BF"/>
<path d="M257.459 210.449H250.449V217.459H257.459V210.449Z" fill="#0404BF"/>
<path d="M257.459 203.509H250.449V210.449H257.459V203.509Z" fill="#0404BF"/>
<path d="M257.459 196.489H250.449V203.499H257.459V196.489Z" fill="#0404BF"/>
<path d="M257.459 189.549H250.449V196.489H257.459V189.549Z" fill="#0404BF"/>
<path d="M257.459 182.539H250.449V189.549H257.459V182.539Z" fill="#0404BF"/>
<path d="M257.459 175.599H250.449V182.539H257.459V175.599Z" fill="#0404BF"/>
<path d="M257.459 168.589H250.449V175.599H257.459V168.589Z" fill="#0404BF"/>
<path d="M257.459 161.579H250.449V168.589H257.459V161.579Z" fill="black"/>
<path d="M257.459 147.629H250.449V154.639H257.459V147.629Z" fill="black"/>
<path d="M257.459 140.689H250.449V147.629H257.459V140.689Z" fill="black"/>
<path d="M257.459 133.679H250.449V140.689H257.459V133.679Z" fill="black"/>
<path d="M257.459 126.739H250.449V133.679H257.459V126.739Z" fill="#0404BF"/>
<path d="M257.459 119.729H250.449V126.739H257.459V119.729Z" fill="#0404BF"/>
<path d="M257.459 112.719H250.449V119.729H257.459V112.719Z" fill="#030384"/>
<path d="M257.459 105.779H250.449V112.719H257.459V105.779Z" fill="black"/>
<path d="M257.459 98.7593H250.449V105.769H257.459V98.7593Z" fill="black"/>
<path d="M257.459 91.8193H250.449V98.7593H257.459V91.8193Z" fill="black"/>
<path d="M257.459 84.8093H250.449V91.8193H257.459V84.8093Z" fill="black"/>
<path d="M250.45 315.179H243.51V322.129H250.45V315.179Z" fill="#030384"/>
<path d="M250.45 308.179H243.51V315.179H250.45V308.179Z" fill="#030384"/>
<path d="M250.45 301.239H243.51V308.179H250.45V301.239Z" fill="#030384"/>
<path d="M250.45 294.219H243.51V301.229H250.45V294.219Z" fill="#030384"/>
<path d="M250.45 287.279H243.51V294.219H250.45V287.279Z" fill="#030384"/>
<path d="M250.45 280.269H243.51V287.279H250.45V280.269Z" fill="#030384"/>
<path d="M250.45 273.269H243.51V280.269H250.45V273.269Z" fill="#030384"/>
<path d="M250.45 266.309H243.51V273.259H250.45V266.309Z" fill="#030384"/>
<path d="M250.45 259.319H243.51V266.319H250.45V259.319Z" fill="#030384"/>
<path d="M250.45 252.369H243.51V259.309H250.45V252.369Z" fill="#030384"/>
<path d="M250.45 245.359H243.51V252.369H250.45V245.359Z" fill="#0707A5"/>
<path d="M250.45 238.419H243.51V245.359H250.45V238.419Z" fill="#EDB58C"/>
<path d="M250.45 231.409H243.51V238.419H250.45V231.409Z" fill="#0404BF"/>
<path d="M250.45 224.399H243.51V231.399H250.45V224.399Z" fill="#0404BF"/>
<path d="M250.45 217.459H243.51V224.399H250.45V217.459Z" fill="#0404BF"/>
<path d="M250.45 210.449H243.51V217.459H250.45V210.449Z" fill="#0404BF"/>
<path d="M250.45 203.509H243.51V210.449H250.45V203.509Z" fill="#0404BF"/>
<path d="M250.45 196.489H243.51V203.499H250.45V196.489Z" fill="#0404BF"/>
<path d="M250.45 189.549H243.51V196.489H250.45V189.549Z" fill="#0404BF"/>
<path d="M250.45 182.539H243.51V189.549H250.45V182.539Z" fill="#0404BF"/>
<path d="M250.45 175.599H243.51V182.539H250.45V175.599Z" fill="#0404BF"/>
<path d="M250.45 168.589H243.51V175.599H250.45V168.589Z" fill="#0404BF"/>
<path d="M250.45 161.579H243.51V168.589H250.45V161.579Z" fill="black"/>
<path d="M250.45 154.639H243.51V161.579H250.45V154.639Z" fill="black"/>
<path d="M250.45 147.629H243.51V154.639H250.45V147.629Z" fill="#D8D7D6"/>
<path d="M250.45 140.689H243.51V147.629H250.45V140.689Z" fill="#9E9B98"/>
<path d="M250.45 133.679H243.51V140.689H250.45V133.679Z" fill="black"/>
<path d="M250.45 126.739H243.51V133.679H250.45V126.739Z" fill="#030384"/>
<path d="M250.45 119.729H243.51V126.739H250.45V119.729Z" fill="#0404BF"/>
<path d="M250.45 112.719H243.51V119.729H250.45V112.719Z" fill="#030384"/>
<path d="M250.45 105.779H243.51V112.719H250.45V105.779Z" fill="black"/>
<path d="M250.45 98.7593H243.51V105.769H250.45V98.7593Z" fill="#030384"/>
<path d="M250.45 91.8193H243.51V98.7593H250.45V91.8193Z" fill="#030384"/>
<path d="M250.45 84.8093H243.51V91.8193H250.45V84.8093Z" fill="#030384"/>
<path d="M250.45 77.8694H243.51V84.8094H250.45V77.8694Z" fill="black"/>
<path d="M243.5 315.179H236.49V322.129H243.5V315.179Z" fill="#0404BF"/>
<path d="M243.5 308.179H236.49V315.179H243.5V308.179Z" fill="#0404BF"/>
<path d="M243.5 301.239H236.49V308.179H243.5V301.239Z" fill="#0404BF"/>
<path d="M243.5 294.219H236.49V301.229H243.5V294.219Z" fill="#0404BF"/>
<path d="M243.5 287.279H236.49V294.219H243.5V287.279Z" fill="#0404BF"/>
<path d="M243.5 280.269H236.49V287.279H243.5V280.269Z" fill="#0404BF"/>
<path d="M243.5 273.269H236.49V280.269H243.5V273.269Z" fill="#0404BF"/>
<path d="M243.5 266.309H236.49V273.259H243.5V266.309Z" fill="#0404BF"/>
<path d="M243.5 259.319H236.49V266.319H243.5V259.319Z" fill="#0404BF"/>
<path d="M243.5 252.369H236.49V259.309H243.5V252.369Z" fill="#030384"/>
<path d="M243.5 245.359H236.49V252.369H243.5V245.359Z" fill="#0707A5"/>
<path d="M243.5 238.419H236.49V245.359H243.5V238.419Z" fill="#EDB58C"/>
<path d="M243.5 231.409H236.49V238.419H243.5V231.409Z" fill="#0404BF"/>
<path d="M243.5 224.399H236.49V231.399H243.5V224.399Z" fill="#0404BF"/>
<path d="M243.5 217.459H236.49V224.399H243.5V217.459Z" fill="#0404BF"/>
<path d="M243.5 210.449H236.49V217.459H243.5V210.449Z" fill="#0404BF"/>
<path d="M243.5 203.509H236.49V210.449H243.5V203.509Z" fill="#0404BF"/>
<path d="M243.5 196.489H236.49V203.499H243.5V196.489Z" fill="#0404BF"/>
<path d="M243.5 189.549H236.49V196.489H243.5V189.549Z" fill="#0404BF"/>
<path d="M243.5 182.539H236.49V189.549H243.5V182.539Z" fill="#0404BF"/>
<path d="M243.5 175.599H236.49V182.539H243.5V175.599Z" fill="#0404BF"/>
<path d="M243.5 168.589H236.49V175.599H243.5V168.589Z" fill="#030384"/>
<path d="M243.5 161.579H236.49V168.589H243.5V161.579Z" fill="black"/>
<path d="M243.5 154.639H236.49V161.579H243.5V154.639Z" fill="#D8D7D6"/>
<path d="M243.5 147.629H236.49V154.639H243.5V147.629Z" fill="#D8D7D6"/>
<path d="M243.5 140.689H236.49V147.629H243.5V140.689Z" fill="#D8D7D6"/>
<path d="M243.5 133.679H236.49V140.689H243.5V133.679Z" fill="black"/>
<path d="M243.5 126.739H236.49V133.679H243.5V126.739Z" fill="#030384"/>
<path d="M243.5 119.729H236.49V126.739H243.5V119.729Z" fill="#0404BF"/>
<path d="M243.5 112.719H236.49V119.729H243.5V112.719Z" fill="#0404BF"/>
<path d="M243.5 105.779H236.49V112.719H243.5V105.779Z" fill="#030384"/>
<path d="M243.5 98.7593H236.49V105.769H243.5V98.7593Z" fill="#030384"/>
<path d="M243.5 91.8193H236.49V98.7593H243.5V91.8193Z" fill="#030384"/>
<path d="M243.5 84.8093H236.49V91.8193H243.5V84.8093Z" fill="#030384"/>
<path d="M243.5 77.8694H236.49V84.8094H243.5V77.8694Z" fill="#030384"/>
<path d="M243.5 70.8594H236.49V77.8694H243.5V70.8594Z" fill="black"/>
<path d="M236.491 315.179H229.551V322.129H236.491V315.179Z" fill="#0404BF"/>
<path d="M236.491 308.179H229.551V315.179H236.491V308.179Z" fill="#0404BF"/>
<path d="M236.491 301.239H229.551V308.179H236.491V301.239Z" fill="#0404BF"/>
<path d="M236.491 294.219H229.551V301.229H236.491V294.219Z" fill="#0404BF"/>
<path d="M236.491 287.279H229.551V294.219H236.491V287.279Z" fill="#0404BF"/>
<path d="M236.491 280.269H229.551V287.279H236.491V280.269Z" fill="#0404BF"/>
<path d="M236.491 273.269H229.551V280.269H236.491V273.269Z" fill="#0404BF"/>
<path d="M236.491 266.309H229.551V273.259H236.491V266.309Z" fill="#0404BF"/>
<path d="M236.491 259.319H229.551V266.319H236.491V259.319Z" fill="#0404BF"/>
<path d="M236.491 252.369H229.551V259.309H236.491V252.369Z" fill="#0404BF"/>
<path d="M236.491 245.359H229.551V252.369H236.491V245.359Z" fill="#030384"/>
<path d="M236.491 238.419H229.551V245.359H236.491V238.419Z" fill="#0707A5"/>
<path d="M236.491 231.409H229.551V238.419H236.491V231.409Z" fill="black"/>
<path d="M236.491 224.399H229.551V231.399H236.491V224.399Z" fill="black"/>
<path d="M236.491 217.459H229.551V224.399H236.491V217.459Z" fill="black"/>
<path d="M236.491 210.449H229.551V217.459H236.491V210.449Z" fill="black"/>
<path d="M236.491 203.509H229.551V210.449H236.491V203.509Z" fill="black"/>
<path d="M236.491 196.489H229.551V203.499H236.491V196.489Z" fill="black"/>
<path d="M236.491 189.549H229.551V196.489H236.491V189.549Z" fill="#0404BF"/>
<path d="M236.491 182.539H229.551V189.549H236.491V182.539Z" fill="#030384"/>
<path d="M236.491 175.599H229.551V182.539H236.491V175.599Z" fill="#030384"/>
<path d="M236.491 168.589H229.551V175.599H236.491V168.589Z" fill="black"/>
<path d="M236.491 161.579H229.551V168.589H236.491V161.579Z" fill="#9E9B98"/>
<path d="M236.491 154.639H229.551V161.579H236.491V154.639Z" fill="#9E9B98"/>
<path d="M236.491 147.629H229.551V154.639H236.491V147.629Z" fill="#D8D7D6"/>
<path d="M236.491 140.689H229.551V147.629H236.491V140.689Z" fill="#9E9B98"/>
<path d="M236.491 133.679H229.551V140.689H236.491V133.679Z" fill="#9E9B98"/>
<path d="M236.491 126.739H229.551V133.679H236.491V126.739Z" fill="black"/>
<path d="M236.491 119.729H229.551V126.739H236.491V119.729Z" fill="#0404BF"/>
<path d="M236.491 112.719H229.551V119.729H236.491V112.719Z" fill="#0404BF"/>
<path d="M236.491 105.779H229.551V112.719H236.491V105.779Z" fill="#030384"/>
<path d="M236.491 98.7593H229.551V105.769H236.491V98.7593Z" fill="#030384"/>
<path d="M236.491 91.8193H229.551V98.7593H236.491V91.8193Z" fill="#030384"/>
<path d="M236.491 84.8093H229.551V91.8193H236.491V84.8093Z" fill="#030384"/>
<path d="M236.491 77.8694H229.551V84.8094H236.491V77.8694Z" fill="#030384"/>
<path d="M236.491 70.8594H229.551V77.8694H236.491V70.8594Z" fill="black"/>
<path d="M229.549 315.179H222.539V322.129H229.549V315.179Z" fill="#0404BF"/>
<path d="M229.549 308.179H222.539V315.179H229.549V308.179Z" fill="#0404BF"/>
<path d="M229.549 301.239H222.539V308.179H229.549V301.239Z" fill="#0404BF"/>
<path d="M229.549 294.219H222.539V301.229H229.549V294.219Z" fill="#0404BF"/>
<path d="M229.549 287.279H222.539V294.219H229.549V287.279Z" fill="#0404BF"/>
<path d="M229.549 280.269H222.539V287.279H229.549V280.269Z" fill="#0404BF"/>
<path d="M229.549 273.269H222.539V280.269H229.549V273.269Z" fill="#0404BF"/>
<path d="M229.549 266.309H222.539V273.259H229.549V266.309Z" fill="#0404BF"/>
<path d="M229.549 259.319H222.539V266.319H229.549V259.319Z" fill="#0404BF"/>
<path d="M229.549 252.369H222.539V259.309H229.549V252.369Z" fill="#0404BF"/>
<path d="M229.549 245.359H222.539V252.369H229.549V245.359Z" fill="#0404BF"/>
<path d="M229.549 238.419H222.539V245.359H229.549V238.419Z" fill="#030384"/>
<path d="M229.549 231.409H222.539V238.419H229.549V231.409Z" fill="#D6B409"/>
<path d="M229.549 224.399H222.539V231.399H229.549V224.399Z" fill="#0404BF"/>
<path d="M229.549 217.459H222.539V224.399H229.549V217.459Z" fill="#0404BF"/>
<path d="M229.549 210.449H222.539V217.459H229.549V210.449Z" fill="#0404BF"/>
<path d="M229.549 203.509H222.539V210.449H229.549V203.509Z" fill="#0404BF"/>
<path d="M229.549 196.489H222.539V203.499H229.549V196.489Z" fill="#0404BF"/>
<path d="M229.549 189.549H222.539V196.489H229.549V189.549Z" fill="#0404BF"/>
<path d="M229.549 182.539H222.539V189.549H229.549V182.539Z" fill="#030384"/>
<path d="M229.549 175.599H222.539V182.539H229.549V175.599Z" fill="black"/>
<path d="M229.549 168.589H222.539V175.599H229.549V168.589Z" fill="#D8D7D6"/>
<path d="M229.549 161.579H222.539V168.589H229.549V161.579Z" fill="#D8D7D6"/>
<path d="M229.549 154.639H222.539V161.579H229.549V154.639Z" fill="#D8D7D6"/>
<path d="M229.549 147.629H222.539V154.639H229.549V147.629Z" fill="#9E9B98"/>
<path d="M229.549 140.689H222.539V147.629H229.549V140.689Z" fill="#EFB589"/>
<path d="M229.549 133.679H222.539V140.689H229.549V133.679Z" fill="#EFB589"/>
<path d="M229.549 126.739H222.539V133.679H229.549V126.739Z" fill="black"/>
<path d="M229.549 119.729H222.539V126.739H229.549V119.729Z" fill="#0404BF"/>
<path d="M229.549 112.719H222.539V119.729H229.549V112.719Z" fill="#0404BF"/>
<path d="M229.549 105.779H222.539V112.719H229.549V105.779Z" fill="#0404BF"/>
<path d="M229.549 98.7593H222.539V105.769H229.549V98.7593Z" fill="#030384"/>
<path d="M229.549 91.8193H222.539V98.7593H229.549V91.8193Z" fill="#030384"/>
<path d="M229.549 84.8093H222.539V91.8193H229.549V84.8093Z" fill="#030384"/>
<path d="M229.549 77.8694H222.539V84.8094H229.549V77.8694Z" fill="#030384"/>
<path d="M229.549 70.8594H222.539V77.8694H229.549V70.8594Z" fill="black"/>
<path d="M222.54 315.179H215.6V322.129H222.54V315.179Z" fill="#0404BF"/>
<path d="M222.54 308.179H215.6V315.179H222.54V308.179Z" fill="#0404BF"/>
<path d="M222.54 301.239H215.6V308.179H222.54V301.239Z" fill="#0404BF"/>
<path d="M222.54 294.219H215.6V301.229H222.54V294.219Z" fill="#0404BF"/>
<path d="M222.54 287.279H215.6V294.219H222.54V287.279Z" fill="#0404BF"/>
<path d="M222.54 280.269H215.6V287.279H222.54V280.269Z" fill="#0404BF"/>
<path d="M222.54 273.269H215.6V280.269H222.54V273.269Z" fill="#0404BF"/>
<path d="M222.54 266.309H215.6V273.259H222.54V266.309Z" fill="#0404BF"/>
<path d="M222.54 259.319H215.6V266.319H222.54V259.319Z" fill="#0404BF"/>
<path d="M222.54 252.369H215.6V259.309H222.54V252.369Z" fill="#0404BF"/>
<path d="M222.54 245.359H215.6V252.369H222.54V245.359Z" fill="#0404BF"/>
<path d="M222.54 238.419H215.6V245.359H222.54V238.419Z" fill="#0404BF"/>
<path d="M222.54 231.409H215.6V238.419H222.54V231.409Z" fill="#F9C126"/>
<path d="M222.54 224.399H215.6V231.399H222.54V224.399Z" fill="#0404BF"/>
<path d="M222.54 217.459H215.6V224.399H222.54V217.459Z" fill="#0404BF"/>
<path d="M222.54 210.449H215.6V217.459H222.54V210.449Z" fill="#0404BF"/>
<path d="M222.54 203.509H215.6V210.449H222.54V203.509Z" fill="#0404BF"/>
<path d="M222.54 196.489H215.6V203.499H222.54V196.489Z" fill="#0404BF"/>
<path d="M222.54 189.549H215.6V196.489H222.54V189.549Z" fill="black"/>
<path d="M222.54 182.539H215.6V189.549H222.54V182.539Z" fill="black"/>
<path d="M222.54 175.599H215.6V182.539H222.54V175.599Z" fill="#9E9B98"/>
<path d="M222.54 168.589H215.6V175.599H222.54V168.589Z" fill="#D8D7D6"/>
<path d="M222.54 161.579H215.6V168.589H222.54V161.579Z" fill="#D8D7D6"/>
<path d="M222.54 154.639H215.6V161.579H222.54V154.639Z" fill="#9E9B98"/>
<path d="M222.54 147.629H215.6V154.639H222.54V147.629Z" fill="#EFB589"/>
<path d="M222.54 140.689H215.6V147.629H222.54V140.689Z" fill="#EFB589"/>
<path d="M222.54 133.679H215.6V140.689H222.54V133.679Z" fill="#EFB589"/>
<path d="M222.54 126.739H215.6V133.679H222.54V126.739Z" fill="black"/>
<path d="M222.54 119.729H215.6V126.739H222.54V119.729Z" fill="#0404BF"/>
<path d="M222.54 112.719H215.6V119.729H222.54V112.719Z" fill="#0404BF"/>
<path d="M222.54 105.779H215.6V112.719H222.54V105.779Z" fill="#0404BF"/>
<path d="M222.54 98.7593H215.6V105.769H222.54V98.7593Z" fill="#030384"/>
<path d="M222.54 91.8193H215.6V98.7593H222.54V91.8193Z" fill="#030384"/>
<path d="M222.54 84.8093H215.6V91.8193H222.54V84.8093Z" fill="#030384"/>
<path d="M222.54 77.8694H215.6V84.8094H222.54V77.8694Z" fill="black"/>
<path d="M215.6 315.179H208.59V322.129H215.6V315.179Z" fill="#0404BF"/>
<path d="M215.6 308.179H208.59V315.179H215.6V308.179Z" fill="#0404BF"/>
<path d="M215.6 301.239H208.59V308.179H215.6V301.239Z" fill="#0404BF"/>
<path d="M215.6 294.219H208.59V301.229H215.6V294.219Z" fill="#0404BF"/>
<path d="M215.6 287.279H208.59V294.219H215.6V287.279Z" fill="#0404BF"/>
<path d="M215.6 280.269H208.59V287.279H215.6V280.269Z" fill="#0404BF"/>
<path d="M215.6 273.269H208.59V280.269H215.6V273.269Z" fill="#0404BF"/>
<path d="M215.6 266.309H208.59V273.259H215.6V266.309Z" fill="#0404BF"/>
<path d="M215.6 259.319H208.59V266.319H215.6V259.319Z" fill="#0404BF"/>
<path d="M215.6 252.369H208.59V259.309H215.6V252.369Z" fill="#0404BF"/>
<path d="M215.6 245.359H208.59V252.369H215.6V245.359Z" fill="#0404BF"/>
<path d="M215.6 238.419H208.59V245.359H215.6V238.419Z" fill="#0404BF"/>
<path d="M215.6 231.409H208.59V238.419H215.6V231.409Z" fill="#F9C126"/>
<path d="M215.6 224.399H208.59V231.399H215.6V224.399Z" fill="#0404BF"/>
<path d="M215.6 217.459H208.59V224.399H215.6V217.459Z" fill="#0404BF"/>
<path d="M215.6 210.449H208.59V217.459H215.6V210.449Z" fill="#0404BF"/>
<path d="M215.6 203.509H208.59V210.449H215.6V203.509Z" fill="#0404BF"/>
<path d="M215.6 196.489H208.59V203.499H215.6V196.489Z" fill="black"/>
<path d="M215.6 189.549H208.59V196.489H215.6V189.549Z" fill="#9E9B98"/>
<path d="M215.6 182.539H208.59V189.549H215.6V182.539Z" fill="#D8D7D6"/>
<path d="M215.6 175.599H208.59V182.539H215.6V175.599Z" fill="#D8D7D6"/>
<path d="M215.6 168.589H208.59V175.599H215.6V168.589Z" fill="#D8D7D6"/>
<path d="M215.6 161.579H208.59V168.589H215.6V161.579Z" fill="#D8D7D6"/>
<path d="M215.6 154.639H208.59V161.579H215.6V154.639Z" fill="#D8D7D6"/>
<path d="M215.6 147.629H208.59V154.639H215.6V147.629Z" fill="#9E9B98"/>
<path d="M215.6 140.689H208.59V147.629H215.6V140.689Z" fill="#D8D7D6"/>
<path d="M215.6 133.679H208.59V140.689H215.6V133.679Z" fill="#EFB589"/>
<path d="M215.6 126.739H208.59V133.679H215.6V126.739Z" fill="black"/>
<path d="M215.6 119.729H208.59V126.739H215.6V119.729Z" fill="#0404BF"/>
<path d="M215.6 112.719H208.59V119.729H215.6V112.719Z" fill="#0404BF"/>
<path d="M215.6 105.779H208.59V112.719H215.6V105.779Z" fill="#0404BF"/>
<path d="M215.6 98.7593H208.59V105.769H215.6V98.7593Z" fill="#030384"/>
<path d="M215.6 91.8193H208.59V98.7593H215.6V91.8193Z" fill="#030384"/>
<path d="M215.6 84.8093H208.59V91.8193H215.6V84.8093Z" fill="black"/>
<path d="M208.59 315.179H201.58V322.129H208.59V315.179Z" fill="#0404BF"/>
<path d="M208.59 308.179H201.58V315.179H208.59V308.179Z" fill="#0404BF"/>
<path d="M208.59 301.239H201.58V308.179H208.59V301.239Z" fill="#0404BF"/>
<path d="M208.59 294.219H201.58V301.229H208.59V294.219Z" fill="#0404BF"/>
<path d="M208.59 287.279H201.58V294.219H208.59V287.279Z" fill="#0404BF"/>
<path d="M208.59 280.269H201.58V287.279H208.59V280.269Z" fill="#0404BF"/>
<path d="M208.59 273.269H201.58V280.269H208.59V273.269Z" fill="#0404BF"/>
<path d="M208.59 266.309H201.58V273.259H208.59V266.309Z" fill="#0404BF"/>
<path d="M208.59 259.319H201.58V266.319H208.59V259.319Z" fill="#0404BF"/>
<path d="M208.59 252.369H201.58V259.309H208.59V252.369Z" fill="#0404BF"/>
<path d="M208.59 245.359H201.58V252.369H208.59V245.359Z" fill="#0404BF"/>
<path d="M208.59 238.419H201.58V245.359H208.59V238.419Z" fill="#0404BF"/>
<path d="M208.59 231.409H201.58V238.419H208.59V231.409Z" fill="#F9C126"/>
<path d="M208.59 224.399H201.58V231.399H208.59V224.399Z" fill="#0404BF"/>
<path d="M208.59 217.459H201.58V224.399H208.59V217.459Z" fill="#0404BF"/>
<path d="M208.59 210.449H201.58V217.459H208.59V210.449Z" fill="#0404BF"/>
<path d="M208.59 203.509H201.58V210.449H208.59V203.509Z" fill="#0404BF"/>
<path d="M208.59 196.489H201.58V203.499H208.59V196.489Z" fill="#0404BF"/>
<path d="M208.59 189.549H201.58V196.489H208.59V189.549Z" fill="black"/>
<path d="M208.59 182.539H201.58V189.549H208.59V182.539Z" fill="#D8D7D6"/>
<path d="M208.59 175.599H201.58V182.539H208.59V175.599Z" fill="#D8D7D6"/>
<path d="M208.59 168.589H201.58V175.599H208.59V168.589Z" fill="#D8D7D6"/>
<path d="M208.59 161.579H201.58V168.589H208.59V161.579Z" fill="#D8D7D6"/>
<path d="M208.59 154.639H201.58V161.579H208.59V154.639Z" fill="#D8D7D6"/>
<path d="M208.59 147.629H201.58V154.639H208.59V147.629Z" fill="#9E9B98"/>
<path d="M208.59 140.689H201.58V147.629H208.59V140.689Z" fill="#D8D7D6"/>
<path d="M208.59 133.679H201.58V140.689H208.59V133.679Z" fill="#EFB589"/>
<path d="M208.59 126.739H201.58V133.679H208.59V126.739Z" fill="black"/>
<path d="M208.59 119.729H201.58V126.739H208.59V119.729Z" fill="#0404BF"/>
<path d="M208.59 112.719H201.58V119.729H208.59V112.719Z" fill="#0404BF"/>
<path d="M208.59 105.779H201.58V112.719H208.59V105.779Z" fill="#0404BF"/>
<path d="M208.59 98.7593H201.58V105.769H208.59V98.7593Z" fill="#0404BF"/>
<path d="M208.59 91.8193H201.58V98.7593H208.59V91.8193Z" fill="black"/>
<path d="M201.581 315.179H194.641V322.129H201.581V315.179Z" fill="#0404BF"/>
<path d="M201.581 308.179H194.641V315.179H201.581V308.179Z" fill="#0404BF"/>
<path d="M201.581 301.239H194.641V308.179H201.581V301.239Z" fill="#0404BF"/>
<path d="M201.581 294.219H194.641V301.229H201.581V294.219Z" fill="#0404BF"/>
<path d="M201.581 287.279H194.641V294.219H201.581V287.279Z" fill="#0404BF"/>
<path d="M201.581 280.269H194.641V287.279H201.581V280.269Z" fill="#0404BF"/>
<path d="M201.581 273.269H194.641V280.269H201.581V273.269Z" fill="#0404BF"/>
<path d="M201.581 266.309H194.641V273.259H201.581V266.309Z" fill="#0404BF"/>
<path d="M201.581 259.319H194.641V266.319H201.581V259.319Z" fill="#0404BF"/>
<path d="M201.581 252.369H194.641V259.309H201.581V252.369Z" fill="#0404BF"/>
<path d="M201.581 245.359H194.641V252.369H201.581V245.359Z" fill="#0404BF"/>
<path d="M201.581 238.419H194.641V245.359H201.581V238.419Z" fill="#0404BF"/>
<path d="M201.581 231.409H194.641V238.419H201.581V231.409Z" fill="#F9C126"/>
<path d="M201.581 224.399H194.641V231.399H201.581V224.399Z" fill="#0404BF"/>
<path d="M201.581 217.459H194.641V224.399H201.581V217.459Z" fill="#0404BF"/>
<path d="M201.581 210.449H194.641V217.459H201.581V210.449Z" fill="#0404BF"/>
<path d="M201.581 203.509H194.641V210.449H201.581V203.509Z" fill="#0404BF"/>
<path d="M201.581 196.489H194.641V203.499H201.581V196.489Z" fill="#0404BF"/>
<path d="M201.581 189.549H194.641V196.489H201.581V189.549Z" fill="#0404BF"/>
<path d="M201.581 182.539H194.641V189.549H201.581V182.539Z" fill="black"/>
<path d="M201.581 175.599H194.641V182.539H201.581V175.599Z" fill="#D8D7D6"/>
<path d="M201.581 168.589H194.641V175.599H201.581V168.589Z" fill="#D8D7D6"/>
<path d="M201.581 161.579H194.641V168.589H201.581V161.579Z" fill="#D8D7D6"/>
<path d="M201.581 154.639H194.641V161.579H201.581V154.639Z" fill="#D8D7D6"/>
<path d="M201.581 147.629H194.641V154.639H201.581V147.629Z" fill="#9E9B98"/>
<path d="M201.581 140.689H194.641V147.629H201.581V140.689Z" fill="#D8D7D6"/>
<path d="M201.581 133.679H194.641V140.689H201.581V133.679Z" fill="#EFB589"/>
<path d="M201.581 126.739H194.641V133.679H201.581V126.739Z" fill="black"/>
<path d="M201.581 119.729H194.641V126.739H201.581V119.729Z" fill="#0404BF"/>
<path d="M201.581 112.719H194.641V119.729H201.581V112.719Z" fill="#0404BF"/>
<path d="M201.581 105.779H194.641V112.719H201.581V105.779Z" fill="black"/>
<path d="M201.581 98.7593H194.641V105.769H201.581V98.7593Z" fill="black"/>
<path d="M194.641 315.179H187.631V322.129H194.641V315.179Z" fill="#0404BF"/>
<path d="M194.641 308.179H187.631V315.179H194.641V308.179Z" fill="#0404BF"/>
<path d="M194.641 301.239H187.631V308.179H194.641V301.239Z" fill="#0404BF"/>
<path d="M194.641 294.219H187.631V301.229H194.641V294.219Z" fill="#0404BF"/>
<path d="M194.641 287.279H187.631V294.219H194.641V287.279Z" fill="#0404BF"/>
<path d="M194.641 280.269H187.631V287.279H194.641V280.269Z" fill="#0404BF"/>
<path d="M194.641 273.269H187.631V280.269H194.641V273.269Z" fill="#0404BF"/>
<path d="M194.641 266.309H187.631V273.259H194.641V266.309Z" fill="#0404BF"/>
<path d="M194.641 259.319H187.631V266.319H194.641V259.319Z" fill="#0404BF"/>
<path d="M194.641 252.369H187.631V259.309H194.641V252.369Z" fill="#030384"/>
<path d="M194.641 245.359H187.631V252.369H194.641V245.359Z" fill="black"/>
<path d="M194.641 238.419H187.631V245.359H194.641V238.419Z" fill="black"/>
<path d="M194.641 231.409H187.631V238.419H194.641V231.409Z" fill="black"/>
<path d="M194.641 224.399H187.631V231.399H194.641V224.399Z" fill="black"/>
<path d="M194.641 217.459H187.631V224.399H194.641V217.459Z" fill="black"/>
<path d="M194.641 210.449H187.631V217.459H194.641V210.449Z" fill="black"/>
<path d="M194.641 203.509H187.631V210.449H194.641V203.509Z" fill="black"/>
<path d="M194.641 196.489H187.631V203.499H194.641V196.489Z" fill="black"/>
<path d="M194.641 189.549H187.631V196.489H194.641V189.549Z" fill="black"/>
<path d="M194.641 182.539H187.631V189.549H194.641V182.539Z" fill="black"/>
<path d="M194.641 175.599H187.631V182.539H194.641V175.599Z" fill="black"/>
<path d="M194.641 168.589H187.631V175.599H194.641V168.589Z" fill="#9E9B98"/>
<path d="M194.641 161.579H187.631V168.589H194.641V161.579Z" fill="#9E9B98"/>
<path d="M194.641 154.639H187.631V161.579H194.641V154.639Z" fill="black"/>
<path d="M194.641 147.629H187.631V154.639H194.641V147.629Z" fill="black"/>
<path d="M194.641 140.689H187.631V147.629H194.641V140.689Z" fill="black"/>
<path d="M194.641 133.679H187.631V140.689H194.641V133.679Z" fill="black"/>
<path d="M194.641 126.739H187.631V133.679H194.641V126.739Z" fill="#030384"/>
<path d="M194.641 119.729H187.631V126.739H194.641V119.729Z" fill="#0404BF"/>
<path d="M194.641 112.719H187.631V119.729H194.641V112.719Z" fill="#0404BF"/>
<path d="M194.641 105.779H187.631V112.719H194.641V105.779Z" fill="black"/>
<path d="M187.629 315.179H180.689V322.129H187.629V315.179Z" fill="black"/>
<path d="M187.629 308.179H180.689V315.179H187.629V308.179Z" fill="black"/>
<path d="M187.629 301.239H180.689V308.179H187.629V301.239Z" fill="black"/>
<path d="M187.629 294.219H180.689V301.229H187.629V294.219Z" fill="black"/>
<path d="M187.629 287.279H180.689V294.219H187.629V287.279Z" fill="black"/>
<path d="M187.629 280.269H180.689V287.279H187.629V280.269Z" fill="black"/>
<path d="M187.629 273.269H180.689V280.269H187.629V273.269Z" fill="black"/>
<path d="M187.629 266.309H180.689V273.259H187.629V266.309Z" fill="black"/>
<path d="M187.629 259.319H180.689V266.319H187.629V259.319Z" fill="black"/>
<path d="M187.629 252.369H180.689V259.309H187.629V252.369Z" fill="black"/>
<path d="M187.629 217.459H180.689V224.399H187.629V217.459Z" fill="black"/>
<path d="M187.629 210.449H180.689V217.459H187.629V210.449Z" fill="#030384"/>
<path d="M187.629 203.509H180.689V210.449H187.629V203.509Z" fill="#030384"/>
<path d="M187.629 196.489H180.689V203.499H187.629V196.489Z" fill="#030384"/>
<path d="M187.629 189.549H180.689V196.489H187.629V189.549Z" fill="black"/>
<path d="M187.629 168.589H180.689V175.599H187.629V168.589Z" fill="black"/>
<path d="M187.629 161.579H180.689V168.589H187.629V161.579Z" fill="black"/>
<path d="M187.629 133.679H180.689V140.689H187.629V133.679Z" fill="black"/>
<path d="M187.629 126.739H180.689V133.679H187.629V126.739Z" fill="#030384"/>
<path d="M187.629 119.729H180.689V126.739H187.629V119.729Z" fill="#0404BF"/>
<path d="M187.629 112.719H180.689V119.729H187.629V112.719Z" fill="black"/>
<path d="M180.69 217.459H173.68V224.399H180.69V217.459Z" fill="black"/>
<path d="M180.69 210.449H173.68V217.459H180.69V210.449Z" fill="#030384"/>
<path d="M180.69 203.509H173.68V210.449H180.69V203.509Z" fill="#030384"/>
<path d="M180.69 196.489H173.68V203.499H180.69V196.489Z" fill="#030384"/>
<path d="M180.69 189.549H173.68V196.489H180.69V189.549Z" fill="black"/>
<path d="M180.69 133.679H173.68V140.689H180.69V133.679Z" fill="black"/>
<path d="M180.69 126.739H173.68V133.679H180.69V126.739Z" fill="#030384"/>
<path d="M180.69 119.729H173.68V126.739H180.69V119.729Z" fill="black"/>
<path d="M173.68 217.459H166.74V224.399H173.68V217.459Z" fill="black"/>
<path d="M173.68 210.449H166.74V217.459H173.68V210.449Z" fill="#030384"/>
<path d="M173.68 203.509H166.74V210.449H173.68V203.509Z" fill="#030384"/>
<path d="M173.68 196.489H166.74V203.499H173.68V196.489Z" fill="#030384"/>
<path d="M173.68 189.549H166.74V196.489H173.68V189.549Z" fill="black"/>
<path d="M173.68 147.629H166.74V154.639H173.68V147.629Z" fill="black"/>
<path d="M173.68 140.689H166.74V147.629H173.68V140.689Z" fill="black"/>
<path d="M173.68 133.679H166.74V140.689H173.68V133.679Z" fill="black"/>
<path d="M173.68 126.739H166.74V133.679H173.68V126.739Z" fill="#030384"/>
<path d="M173.68 119.729H166.74V126.739H173.68V119.729Z" fill="black"/>
<path d="M166.74 217.459H159.73V224.399H166.74V217.459Z" fill="black"/>
<path d="M166.74 210.449H159.73V217.459H166.74V210.449Z" fill="black"/>
<path d="M166.74 203.509H159.73V210.449H166.74V203.509Z" fill="black"/>
<path d="M166.74 196.489H159.73V203.499H166.74V196.489Z" fill="black"/>
<path d="M166.74 189.549H159.73V196.489H166.74V189.549Z" fill="black"/>
<path d="M166.74 154.639H159.73V161.579H166.74V154.639Z" fill="black"/>
<path d="M166.74 147.629H159.73V154.639H166.74V147.629Z" fill="#FCB029"/>
<path d="M166.74 140.689H159.73V147.629H166.74V140.689Z" fill="#FCB029"/>
<path d="M166.74 133.679H159.73V140.689H166.74V133.679Z" fill="black"/>
<path d="M166.74 126.739H159.73V133.679H166.74V126.739Z" fill="black"/>
<path d="M166.74 119.729H159.73V126.739H166.74V119.729Z" fill="black"/>
<path d="M159.731 210.449H152.721V217.459H159.731V210.449Z" fill="black"/>
<path d="M159.731 203.509H152.721V210.449H159.731V203.509Z" fill="black"/>
<path d="M159.731 196.489H152.721V203.499H159.731V196.489Z" fill="black"/>
<path d="M159.731 189.549H152.721V196.489H159.731V189.549Z" fill="#EDB58C"/>
<path d="M159.731 182.539H152.721V189.549H159.731V182.539Z" fill="black"/>
<path d="M159.731 161.579H152.721V168.589H159.731V161.579Z" fill="black"/>
<path d="M159.731 154.639H152.721V161.579H159.731V154.639Z" fill="#FCB029"/>
<path d="M159.731 147.629H152.721V154.639H159.731V147.629Z" fill="#FCB029"/>
<path d="M159.731 140.689H152.721V147.629H159.731V140.689Z" fill="#2BE1F9"/>
<path d="M159.731 133.679H152.721V140.689H159.731V133.679Z" fill="#2BE1F9"/>
<path d="M159.731 126.739H152.721V133.679H159.731V126.739Z" fill="#2BE1F9"/>
<path d="M152.719 308.179H145.779V315.179H152.719V308.179Z" fill="black"/>
<path d="M152.719 301.239H145.779V308.179H152.719V301.239Z" fill="black"/>
<path d="M152.719 294.219H145.779V301.229H152.719V294.219Z" fill="black"/>
<path d="M152.719 287.279H145.779V294.219H152.719V287.279Z" fill="black"/>
<path d="M152.719 280.269H145.779V287.279H152.719V280.269Z" fill="black"/>
<path d="M152.719 273.269H145.779V280.269H152.719V273.269Z" fill="black"/>
<path d="M152.719 266.309H145.779V273.259H152.719V266.309Z" fill="black"/>
<path d="M152.719 259.319H145.779V266.319H152.719V259.319Z" fill="black"/>
<path d="M152.719 252.369H145.779V259.309H152.719V252.369Z" fill="black"/>
<path d="M152.719 245.359H145.779V252.369H152.719V245.359Z" fill="black"/>
<path d="M152.719 238.419H145.779V245.359H152.719V238.419Z" fill="black"/>
<path d="M152.719 231.409H145.779V238.419H152.719V231.409Z" fill="black"/>
<path d="M152.719 224.399H145.779V231.399H152.719V224.399Z" fill="black"/>
<path d="M152.719 217.459H145.779V224.399H152.719V217.459Z" fill="black"/>
<path d="M152.719 210.449H145.779V217.459H152.719V210.449Z" fill="black"/>
<path d="M152.719 203.509H145.779V210.449H152.719V203.509Z" fill="black"/>
<path d="M152.719 196.489H145.779V203.499H152.719V196.489Z" fill="#EDB58C"/>
<path d="M152.719 189.549H145.779V196.489H152.719V189.549Z" fill="#EDB58C"/>
<path d="M152.719 182.539H145.779V189.549H152.719V182.539Z" fill="black"/>
<path d="M152.719 175.599H145.779V182.539H152.719V175.599Z" fill="black"/>
<path d="M152.719 168.589H145.779V175.599H152.719V168.589Z" fill="black"/>
<path d="M152.719 161.579H145.779V168.589H152.719V161.579Z" fill="black"/>
<path d="M152.719 154.639H145.779V161.579H152.719V154.639Z" fill="black"/>
<path d="M152.719 147.629H145.779V154.639H152.719V147.629Z" fill="#2BE1F9"/>
<path d="M152.719 140.689H145.779V147.629H152.719V140.689Z" fill="#2BE1F9"/>
<path d="M152.719 133.679H145.779V140.689H152.719V133.679Z" fill="#2BE1F9"/>
<path d="M152.719 126.739H145.779V133.679H152.719V126.739Z" fill="#2BE1F9"/>
<path d="M152.719 119.729H145.779V126.739H152.719V119.729Z" fill="#2BE1F9"/>
<path d="M145.77 315.179H138.76V322.129H145.77V315.179Z" fill="black"/>
<path d="M145.77 308.179H138.76V315.179H145.77V308.179Z" fill="#823D27"/>
<path d="M145.77 301.239H138.76V308.179H145.77V301.239Z" fill="#823D27"/>
<path d="M145.77 294.219H138.76V301.229H145.77V294.219Z" fill="#823D27"/>
<path d="M145.77 287.279H138.76V294.219H145.77V287.279Z" fill="#823D27"/>
<path d="M145.77 280.269H138.76V287.279H145.77V280.269Z" fill="#823D27"/>
<path d="M145.77 273.269H138.76V280.269H145.77V273.269Z" fill="#823D27"/>
<path d="M145.77 266.309H138.76V273.259H145.77V266.309Z" fill="#823D27"/>
<path d="M145.77 259.319H138.76V266.319H145.77V259.319Z" fill="#823D27"/>
<path d="M145.77 252.369H138.76V259.309H145.77V252.369Z" fill="#823D27"/>
<path d="M145.77 245.359H138.76V252.369H145.77V245.359Z" fill="#823D27"/>
<path d="M145.77 238.419H138.76V245.359H145.77V238.419Z" fill="#823D27"/>
<path d="M145.77 231.409H138.76V238.419H145.77V231.409Z" fill="#823D27"/>
<path d="M145.77 224.399H138.76V231.399H145.77V224.399Z" fill="#823D27"/>
<path d="M145.77 217.459H138.76V224.399H145.77V217.459Z" fill="#823D27"/>
<path d="M145.77 210.449H138.76V217.459H145.77V210.449Z" fill="#823D27"/>
<path d="M145.77 203.509H138.76V210.449H145.77V203.509Z" fill="#823D27"/>
<path d="M145.77 196.489H138.76V203.499H145.77V196.489Z" fill="black"/>
<path d="M145.77 189.549H138.76V196.489H145.77V189.549Z" fill="#823D27"/>
<path d="M145.77 182.539H138.76V189.549H145.77V182.539Z" fill="black"/>
<path d="M145.77 175.599H138.76V182.539H145.77V175.599Z" fill="#823D27"/>
<path d="M145.77 168.589H138.76V175.599H145.77V168.589Z" fill="#823D27"/>
<path d="M145.77 161.579H138.76V168.589H145.77V161.579Z" fill="#823D27"/>
<path d="M145.77 154.639H138.76V161.579H145.77V154.639Z" fill="#FCB029"/>
<path d="M145.77 147.629H138.76V154.639H145.77V147.629Z" fill="#FCB029"/>
<path d="M145.77 140.689H138.76V147.629H145.77V140.689Z" fill="#FCB029"/>
<path d="M145.77 133.679H138.76V140.689H145.77V133.679Z" fill="#2BE1F9"/>
<path d="M145.77 126.739H138.76V133.679H145.77V126.739Z" fill="#2BE1F9"/>
<path d="M145.77 119.729H138.76V126.739H145.77V119.729Z" fill="#2BE1F9"/>
<path d="M145.77 112.719H138.76V119.729H145.77V112.719Z" fill="#2BE1F9"/>
<path d="M138.76 308.179H131.82V315.179H138.76V308.179Z" fill="black"/>
<path d="M138.76 301.239H131.82V308.179H138.76V301.239Z" fill="black"/>
<path d="M138.76 294.219H131.82V301.229H138.76V294.219Z" fill="black"/>
<path d="M138.76 287.279H131.82V294.219H138.76V287.279Z" fill="black"/>
<path d="M138.76 280.269H131.82V287.279H138.76V280.269Z" fill="black"/>
<path d="M138.76 273.269H131.82V280.269H138.76V273.269Z" fill="black"/>
<path d="M138.76 266.309H131.82V273.259H138.76V266.309Z" fill="black"/>
<path d="M138.76 259.319H131.82V266.319H138.76V259.319Z" fill="black"/>
<path d="M138.76 252.369H131.82V259.309H138.76V252.369Z" fill="black"/>
<path d="M138.76 245.359H131.82V252.369H138.76V245.359Z" fill="black"/>
<path d="M138.76 238.419H131.82V245.359H138.76V238.419Z" fill="black"/>
<path d="M138.76 231.409H131.82V238.419H138.76V231.409Z" fill="black"/>
<path d="M138.76 224.399H131.82V231.399H138.76V224.399Z" fill="black"/>
<path d="M138.76 217.459H131.82V224.399H138.76V217.459Z" fill="black"/>
<path d="M138.76 210.449H131.82V217.459H138.76V210.449Z" fill="black"/>
<path d="M138.76 203.509H131.82V210.449H138.76V203.509Z" fill="#EDB58C"/>
<path d="M138.76 196.489H131.82V203.499H138.76V196.489Z" fill="#823D27"/>
<path d="M138.76 189.549H131.82V196.489H138.76V189.549Z" fill="#EDB58C"/>
<path d="M138.76 182.539H131.82V189.549H138.76V182.539Z" fill="black"/>
<path d="M138.76 175.599H131.82V182.539H138.76V175.599Z" fill="black"/>
<path d="M138.76 168.589H131.82V175.599H138.76V168.589Z" fill="black"/>
<path d="M138.76 161.579H131.82V168.589H138.76V161.579Z" fill="black"/>
<path d="M138.76 154.639H131.82V161.579H138.76V154.639Z" fill="#2BE1F9"/>
<path d="M138.76 147.629H131.82V154.639H138.76V147.629Z" fill="#2BE1F9"/>
<path d="M138.76 140.689H131.82V147.629H138.76V140.689Z" fill="#2BE1F9"/>
<path d="M138.76 133.679H131.82V140.689H138.76V133.679Z" fill="#2BE1F9"/>
<path d="M138.76 126.739H131.82V133.679H138.76V126.739Z" fill="#2BE1F9"/>
<path d="M138.76 119.729H131.82V126.739H138.76V119.729Z" fill="#2BE1F9"/>
<path d="M138.76 112.719H131.82V119.729H138.76V112.719Z" fill="#2BE1F9"/>
<path d="M131.821 210.449H124.811V217.459H131.821V210.449Z" fill="black"/>
<path d="M131.821 203.509H124.811V210.449H131.821V203.509Z" fill="black"/>
<path d="M131.821 196.489H124.811V203.499H131.821V196.489Z" fill="black"/>
<path d="M131.821 189.549H124.811V196.489H131.821V189.549Z" fill="black"/>
<path d="M131.821 182.539H124.811V189.549H131.821V182.539Z" fill="black"/>
<path d="M131.821 161.579H124.811V168.589H131.821V161.579Z" fill="black"/>
<path d="M131.821 154.639H124.811V161.579H131.821V154.639Z" fill="#FCB029"/>
<path d="M131.821 147.629H124.811V154.639H131.821V147.629Z" fill="#2BE1F9"/>
<path d="M131.821 140.689H124.811V147.629H131.821V140.689Z" fill="#2BE1F9"/>
<path d="M131.821 133.679H124.811V140.689H131.821V133.679Z" fill="#2BE1F9"/>
<path d="M131.821 126.739H124.811V133.679H131.821V126.739Z" fill="#2BE1F9"/>
<path d="M131.821 119.729H124.811V126.739H131.821V119.729Z" fill="#2BE1F9"/>
<path d="M124.809 161.579H117.869V168.589H124.809V161.579Z" fill="black"/>
<path d="M124.809 154.639H117.869V161.579H124.809V154.639Z" fill="#FCB029"/>
<path d="M124.809 147.629H117.869V154.639H124.809V147.629Z" fill="#FCB029"/>
<path d="M124.809 140.689H117.869V147.629H124.809V140.689Z" fill="#2BE1F9"/>
<path d="M124.809 133.679H117.869V140.689H124.809V133.679Z" fill="#2BE1F9"/>
<path d="M124.809 126.739H117.869V133.679H124.809V126.739Z" fill="#2BE1F9"/>
<path d="M117.869 154.639H110.859V161.579H117.869V154.639Z" fill="black"/>
<path d="M117.869 147.629H110.859V154.639H117.869V147.629Z" fill="#FCB029"/>
<path d="M117.869 140.689H110.859V147.629H117.869V140.689Z" fill="#FCB029"/>
<path d="M110.86 147.629H103.92V154.639H110.86V147.629Z" fill="black"/>
<path d="M110.86 140.689H103.92V147.629H110.86V140.689Z" fill="black"/>
</svg>
